G04 #@! TF.GenerationSoftware,KiCad,Pcbnew,(5.1.9-0-10_14)*
G04 #@! TF.CreationDate,2021-02-04T04:11:51-06:00*
G04 #@! TF.ProjectId,micro_redox_semi_split,6d696372-6f5f-4726-9564-6f785f73656d,rev?*
G04 #@! TF.SameCoordinates,Original*
G04 #@! TF.FileFunction,Paste,Top*
G04 #@! TF.FilePolarity,Positive*
%FSLAX46Y46*%
G04 Gerber Fmt 4.6, Leading zero omitted, Abs format (unit mm)*
G04 Created by KiCad (PCBNEW (5.1.9-0-10_14)) date 2021-02-04 04:11:51*
%MOMM*%
%LPD*%
G01*
G04 APERTURE LIST*
%ADD10R,2.100000X1.800000*%
%ADD11R,0.550000X1.500000*%
%ADD12R,1.500000X0.550000*%
%ADD13R,0.700000X0.600000*%
%ADD14R,0.700000X1.000000*%
%ADD15C,0.100000*%
G04 APERTURE END LIST*
D10*
X134325868Y-88176399D03*
X137225868Y-88176399D03*
X137225868Y-90476399D03*
X134325868Y-90476399D03*
G36*
G01*
X133599365Y-62514399D02*
X133599365Y-63964399D01*
G75*
G02*
X133549365Y-64014399I-50000J0D01*
G01*
X132949365Y-64014399D01*
G75*
G02*
X132899365Y-63964399I0J50000D01*
G01*
X132899365Y-62514399D01*
G75*
G02*
X132949365Y-62464399I50000J0D01*
G01*
X133549365Y-62464399D01*
G75*
G02*
X133599365Y-62514399I0J-50000D01*
G01*
G37*
G36*
G01*
X140049365Y-62514399D02*
X140049365Y-63964399D01*
G75*
G02*
X139999365Y-64014399I-50000J0D01*
G01*
X139399365Y-64014399D01*
G75*
G02*
X139349365Y-63964399I0J50000D01*
G01*
X139349365Y-62514399D01*
G75*
G02*
X139399365Y-62464399I50000J0D01*
G01*
X139999365Y-62464399D01*
G75*
G02*
X140049365Y-62514399I0J-50000D01*
G01*
G37*
G36*
G01*
X134374365Y-62514399D02*
X134374365Y-63964399D01*
G75*
G02*
X134324365Y-64014399I-50000J0D01*
G01*
X133724365Y-64014399D01*
G75*
G02*
X133674365Y-63964399I0J50000D01*
G01*
X133674365Y-62514399D01*
G75*
G02*
X133724365Y-62464399I50000J0D01*
G01*
X134324365Y-62464399D01*
G75*
G02*
X134374365Y-62514399I0J-50000D01*
G01*
G37*
G36*
G01*
X139274365Y-62514399D02*
X139274365Y-63964399D01*
G75*
G02*
X139224365Y-64014399I-50000J0D01*
G01*
X138624365Y-64014399D01*
G75*
G02*
X138574365Y-63964399I0J50000D01*
G01*
X138574365Y-62514399D01*
G75*
G02*
X138624365Y-62464399I50000J0D01*
G01*
X139224365Y-62464399D01*
G75*
G02*
X139274365Y-62514399I0J-50000D01*
G01*
G37*
G36*
G01*
X138424365Y-62514399D02*
X138424365Y-63964399D01*
G75*
G02*
X138374365Y-64014399I-50000J0D01*
G01*
X138074365Y-64014399D01*
G75*
G02*
X138024365Y-63964399I0J50000D01*
G01*
X138024365Y-62514399D01*
G75*
G02*
X138074365Y-62464399I50000J0D01*
G01*
X138374365Y-62464399D01*
G75*
G02*
X138424365Y-62514399I0J-50000D01*
G01*
G37*
G36*
G01*
X134924365Y-62514399D02*
X134924365Y-63964399D01*
G75*
G02*
X134874365Y-64014399I-50000J0D01*
G01*
X134574365Y-64014399D01*
G75*
G02*
X134524365Y-63964399I0J50000D01*
G01*
X134524365Y-62514399D01*
G75*
G02*
X134574365Y-62464399I50000J0D01*
G01*
X134874365Y-62464399D01*
G75*
G02*
X134924365Y-62514399I0J-50000D01*
G01*
G37*
G36*
G01*
X137924365Y-62514399D02*
X137924365Y-63964399D01*
G75*
G02*
X137874365Y-64014399I-50000J0D01*
G01*
X137574365Y-64014399D01*
G75*
G02*
X137524365Y-63964399I0J50000D01*
G01*
X137524365Y-62514399D01*
G75*
G02*
X137574365Y-62464399I50000J0D01*
G01*
X137874365Y-62464399D01*
G75*
G02*
X137924365Y-62514399I0J-50000D01*
G01*
G37*
G36*
G01*
X135424365Y-62514399D02*
X135424365Y-63964399D01*
G75*
G02*
X135374365Y-64014399I-50000J0D01*
G01*
X135074365Y-64014399D01*
G75*
G02*
X135024365Y-63964399I0J50000D01*
G01*
X135024365Y-62514399D01*
G75*
G02*
X135074365Y-62464399I50000J0D01*
G01*
X135374365Y-62464399D01*
G75*
G02*
X135424365Y-62514399I0J-50000D01*
G01*
G37*
G36*
G01*
X137424365Y-62514399D02*
X137424365Y-63964399D01*
G75*
G02*
X137374365Y-64014399I-50000J0D01*
G01*
X137074365Y-64014399D01*
G75*
G02*
X137024365Y-63964399I0J50000D01*
G01*
X137024365Y-62514399D01*
G75*
G02*
X137074365Y-62464399I50000J0D01*
G01*
X137374365Y-62464399D01*
G75*
G02*
X137424365Y-62514399I0J-50000D01*
G01*
G37*
G36*
G01*
X135924365Y-62514399D02*
X135924365Y-63964399D01*
G75*
G02*
X135874365Y-64014399I-50000J0D01*
G01*
X135574365Y-64014399D01*
G75*
G02*
X135524365Y-63964399I0J50000D01*
G01*
X135524365Y-62514399D01*
G75*
G02*
X135574365Y-62464399I50000J0D01*
G01*
X135874365Y-62464399D01*
G75*
G02*
X135924365Y-62514399I0J-50000D01*
G01*
G37*
G36*
G01*
X136424365Y-62514399D02*
X136424365Y-63964399D01*
G75*
G02*
X136374365Y-64014399I-50000J0D01*
G01*
X136074365Y-64014399D01*
G75*
G02*
X136024365Y-63964399I0J50000D01*
G01*
X136024365Y-62514399D01*
G75*
G02*
X136074365Y-62464399I50000J0D01*
G01*
X136374365Y-62464399D01*
G75*
G02*
X136424365Y-62514399I0J-50000D01*
G01*
G37*
G36*
G01*
X136924365Y-62514399D02*
X136924365Y-63964399D01*
G75*
G02*
X136874365Y-64014399I-50000J0D01*
G01*
X136574365Y-64014399D01*
G75*
G02*
X136524365Y-63964399I0J50000D01*
G01*
X136524365Y-62514399D01*
G75*
G02*
X136574365Y-62464399I50000J0D01*
G01*
X136874365Y-62464399D01*
G75*
G02*
X136924365Y-62514399I0J-50000D01*
G01*
G37*
D11*
X140664865Y-109758399D03*
X139864865Y-109758399D03*
X139064865Y-109758399D03*
X138264865Y-109758399D03*
X137464865Y-109758399D03*
X136664865Y-109758399D03*
X135864865Y-109758399D03*
X135064865Y-109758399D03*
X134264865Y-109758399D03*
X133464865Y-109758399D03*
X132664865Y-109758399D03*
D12*
X130964865Y-108058399D03*
X130964865Y-107258399D03*
X130964865Y-106458399D03*
X130964865Y-105658399D03*
X130964865Y-104858399D03*
X130964865Y-104058399D03*
X130964865Y-103258399D03*
X130964865Y-102458399D03*
X130964865Y-101658399D03*
X130964865Y-100858399D03*
X130964865Y-100058399D03*
D11*
X132664865Y-98358399D03*
X133464865Y-98358399D03*
X134264865Y-98358399D03*
X135064865Y-98358399D03*
X135864865Y-98358399D03*
X136664865Y-98358399D03*
X137464865Y-98358399D03*
X138264865Y-98358399D03*
X139064865Y-98358399D03*
X139864865Y-98358399D03*
X140664865Y-98358399D03*
D12*
X142364865Y-100058399D03*
X142364865Y-100858399D03*
X142364865Y-101658399D03*
X142364865Y-102458399D03*
X142364865Y-103258399D03*
X142364865Y-104058399D03*
X142364865Y-104858399D03*
X142364865Y-105658399D03*
X142364865Y-106458399D03*
X142364865Y-107258399D03*
X142364865Y-108058399D03*
D13*
X135474362Y-79989400D03*
X135474362Y-78089400D03*
X137474362Y-78089400D03*
D14*
X137474362Y-79789400D03*
D15*
G36*
X106257656Y-121142382D02*
G01*
X105883049Y-122069566D01*
X104306836Y-121432734D01*
X104681443Y-120505550D01*
X106257656Y-121142382D01*
G37*
G36*
X100416397Y-118782361D02*
G01*
X100041790Y-119709545D01*
X98465577Y-119072713D01*
X98840184Y-118145529D01*
X100416397Y-118782361D01*
G37*
G36*
X107681161Y-117619083D02*
G01*
X107306554Y-118546267D01*
X105730341Y-117909435D01*
X106104948Y-116982251D01*
X107681161Y-117619083D01*
G37*
G36*
X101839902Y-115259062D02*
G01*
X101465295Y-116186246D01*
X99889082Y-115549414D01*
X100263689Y-114622230D01*
X101839902Y-115259062D01*
G37*
G36*
G01*
X129044386Y-111274577D02*
X128144384Y-111274577D01*
G75*
G02*
X127894385Y-111024578I0J249999D01*
G01*
X127894385Y-110374576D01*
G75*
G02*
X128144384Y-110124577I249999J0D01*
G01*
X129044386Y-110124577D01*
G75*
G02*
X129294385Y-110374576I0J-249999D01*
G01*
X129294385Y-111024578D01*
G75*
G02*
X129044386Y-111274577I-249999J0D01*
G01*
G37*
G36*
G01*
X129044386Y-113324577D02*
X128144384Y-113324577D01*
G75*
G02*
X127894385Y-113074578I0J249999D01*
G01*
X127894385Y-112424576D01*
G75*
G02*
X128144384Y-112174577I249999J0D01*
G01*
X129044386Y-112174577D01*
G75*
G02*
X129294385Y-112424576I0J-249999D01*
G01*
X129294385Y-113074578D01*
G75*
G02*
X129044386Y-113324577I-249999J0D01*
G01*
G37*
G36*
G01*
X138945364Y-79616400D02*
X139845366Y-79616400D01*
G75*
G02*
X140095365Y-79866399I0J-249999D01*
G01*
X140095365Y-80516401D01*
G75*
G02*
X139845366Y-80766400I-249999J0D01*
G01*
X138945364Y-80766400D01*
G75*
G02*
X138695365Y-80516401I0J249999D01*
G01*
X138695365Y-79866399D01*
G75*
G02*
X138945364Y-79616400I249999J0D01*
G01*
G37*
G36*
G01*
X138945364Y-77566400D02*
X139845366Y-77566400D01*
G75*
G02*
X140095365Y-77816399I0J-249999D01*
G01*
X140095365Y-78466401D01*
G75*
G02*
X139845366Y-78716400I-249999J0D01*
G01*
X138945364Y-78716400D01*
G75*
G02*
X138695365Y-78466401I0J249999D01*
G01*
X138695365Y-77816399D01*
G75*
G02*
X138945364Y-77566400I249999J0D01*
G01*
G37*
G36*
G01*
X134003370Y-78652895D02*
X133103368Y-78652895D01*
G75*
G02*
X132853369Y-78402896I0J249999D01*
G01*
X132853369Y-77752894D01*
G75*
G02*
X133103368Y-77502895I249999J0D01*
G01*
X134003370Y-77502895D01*
G75*
G02*
X134253369Y-77752894I0J-249999D01*
G01*
X134253369Y-78402896D01*
G75*
G02*
X134003370Y-78652895I-249999J0D01*
G01*
G37*
G36*
G01*
X134003370Y-80702895D02*
X133103368Y-80702895D01*
G75*
G02*
X132853369Y-80452896I0J249999D01*
G01*
X132853369Y-79802894D01*
G75*
G02*
X133103368Y-79552895I249999J0D01*
G01*
X134003370Y-79552895D01*
G75*
G02*
X134253369Y-79802894I0J-249999D01*
G01*
X134253369Y-80452896D01*
G75*
G02*
X134003370Y-80702895I-249999J0D01*
G01*
G37*
G36*
G01*
X134066867Y-67413401D02*
X133166865Y-67413401D01*
G75*
G02*
X132916866Y-67163402I0J249999D01*
G01*
X132916866Y-66513400D01*
G75*
G02*
X133166865Y-66263401I249999J0D01*
G01*
X134066867Y-66263401D01*
G75*
G02*
X134316866Y-66513400I0J-249999D01*
G01*
X134316866Y-67163402D01*
G75*
G02*
X134066867Y-67413401I-249999J0D01*
G01*
G37*
G36*
G01*
X134066867Y-69463401D02*
X133166865Y-69463401D01*
G75*
G02*
X132916866Y-69213402I0J249999D01*
G01*
X132916866Y-68563400D01*
G75*
G02*
X133166865Y-68313401I249999J0D01*
G01*
X134066867Y-68313401D01*
G75*
G02*
X134316866Y-68563400I0J-249999D01*
G01*
X134316866Y-69213402D01*
G75*
G02*
X134066867Y-69463401I-249999J0D01*
G01*
G37*
G36*
G01*
X138194366Y-66397399D02*
X137294364Y-66397399D01*
G75*
G02*
X137044365Y-66147400I0J249999D01*
G01*
X137044365Y-65497398D01*
G75*
G02*
X137294364Y-65247399I249999J0D01*
G01*
X138194366Y-65247399D01*
G75*
G02*
X138444365Y-65497398I0J-249999D01*
G01*
X138444365Y-66147400D01*
G75*
G02*
X138194366Y-66397399I-249999J0D01*
G01*
G37*
G36*
G01*
X138194366Y-68447399D02*
X137294364Y-68447399D01*
G75*
G02*
X137044365Y-68197400I0J249999D01*
G01*
X137044365Y-67547398D01*
G75*
G02*
X137294364Y-67297399I249999J0D01*
G01*
X138194366Y-67297399D01*
G75*
G02*
X138444365Y-67547398I0J-249999D01*
G01*
X138444365Y-68197400D01*
G75*
G02*
X138194366Y-68447399I-249999J0D01*
G01*
G37*
G36*
G01*
X108611092Y-120132986D02*
X109445559Y-120470133D01*
G75*
G02*
X109583703Y-120795579I-93651J-231795D01*
G01*
X109340208Y-121398250D01*
G75*
G02*
X109014762Y-121536394I-231795J93651D01*
G01*
X108180295Y-121199247D01*
G75*
G02*
X108042151Y-120873801I93651J231795D01*
G01*
X108285646Y-120271130D01*
G75*
G02*
X108611092Y-120132986I231795J-93651D01*
G01*
G37*
G36*
G01*
X109379036Y-118232260D02*
X110213503Y-118569407D01*
G75*
G02*
X110351647Y-118894853I-93651J-231795D01*
G01*
X110108152Y-119497524D01*
G75*
G02*
X109782706Y-119635668I-231795J93651D01*
G01*
X108948239Y-119298521D01*
G75*
G02*
X108810095Y-118973075I93651J231795D01*
G01*
X109053590Y-118370404D01*
G75*
G02*
X109379036Y-118232260I231795J-93651D01*
G01*
G37*
G36*
G01*
X139321869Y-72866894D02*
X138071869Y-72866894D01*
G75*
G02*
X137821869Y-72616894I0J250000D01*
G01*
X137821869Y-71691894D01*
G75*
G02*
X138071869Y-71441894I250000J0D01*
G01*
X139321869Y-71441894D01*
G75*
G02*
X139571869Y-71691894I0J-250000D01*
G01*
X139571869Y-72616894D01*
G75*
G02*
X139321869Y-72866894I-250000J0D01*
G01*
G37*
G36*
G01*
X139321869Y-75841894D02*
X138071869Y-75841894D01*
G75*
G02*
X137821869Y-75591894I0J250000D01*
G01*
X137821869Y-74666894D01*
G75*
G02*
X138071869Y-74416894I250000J0D01*
G01*
X139321869Y-74416894D01*
G75*
G02*
X139571869Y-74666894I0J-250000D01*
G01*
X139571869Y-75591894D01*
G75*
G02*
X139321869Y-75841894I-250000J0D01*
G01*
G37*
G36*
G01*
X139969573Y-111378155D02*
X139969573Y-112278157D01*
G75*
G02*
X139719574Y-112528156I-249999J0D01*
G01*
X139069572Y-112528156D01*
G75*
G02*
X138819573Y-112278157I0J249999D01*
G01*
X138819573Y-111378155D01*
G75*
G02*
X139069572Y-111128156I249999J0D01*
G01*
X139719574Y-111128156D01*
G75*
G02*
X139969573Y-111378155I0J-249999D01*
G01*
G37*
G36*
G01*
X142019573Y-111378155D02*
X142019573Y-112278157D01*
G75*
G02*
X141769574Y-112528156I-249999J0D01*
G01*
X141119572Y-112528156D01*
G75*
G02*
X140869573Y-112278157I0J249999D01*
G01*
X140869573Y-111378155D01*
G75*
G02*
X141119572Y-111128156I249999J0D01*
G01*
X141769574Y-111128156D01*
G75*
G02*
X142019573Y-111378155I0J-249999D01*
G01*
G37*
G36*
G01*
X129102304Y-99046503D02*
X128202302Y-99046503D01*
G75*
G02*
X127952303Y-98796504I0J249999D01*
G01*
X127952303Y-98146502D01*
G75*
G02*
X128202302Y-97896503I249999J0D01*
G01*
X129102304Y-97896503D01*
G75*
G02*
X129352303Y-98146502I0J-249999D01*
G01*
X129352303Y-98796504D01*
G75*
G02*
X129102304Y-99046503I-249999J0D01*
G01*
G37*
G36*
G01*
X129102304Y-101096503D02*
X128202302Y-101096503D01*
G75*
G02*
X127952303Y-100846504I0J249999D01*
G01*
X127952303Y-100196502D01*
G75*
G02*
X128202302Y-99946503I249999J0D01*
G01*
X129102304Y-99946503D01*
G75*
G02*
X129352303Y-100196502I0J-249999D01*
G01*
X129352303Y-100846504D01*
G75*
G02*
X129102304Y-101096503I-249999J0D01*
G01*
G37*
G36*
G01*
X148342803Y-108138003D02*
X148342803Y-107238001D01*
G75*
G02*
X148592802Y-106988002I249999J0D01*
G01*
X149242804Y-106988002D01*
G75*
G02*
X149492803Y-107238001I0J-249999D01*
G01*
X149492803Y-108138003D01*
G75*
G02*
X149242804Y-108388002I-249999J0D01*
G01*
X148592802Y-108388002D01*
G75*
G02*
X148342803Y-108138003I0J249999D01*
G01*
G37*
G36*
G01*
X146292803Y-108138003D02*
X146292803Y-107238001D01*
G75*
G02*
X146542802Y-106988002I249999J0D01*
G01*
X147192804Y-106988002D01*
G75*
G02*
X147442803Y-107238001I0J-249999D01*
G01*
X147442803Y-108138003D01*
G75*
G02*
X147192804Y-108388002I-249999J0D01*
G01*
X146542802Y-108388002D01*
G75*
G02*
X146292803Y-108138003I0J249999D01*
G01*
G37*
G36*
G01*
X132848803Y-112837002D02*
X132848803Y-111937000D01*
G75*
G02*
X133098802Y-111687001I249999J0D01*
G01*
X133748804Y-111687001D01*
G75*
G02*
X133998803Y-111937000I0J-249999D01*
G01*
X133998803Y-112837002D01*
G75*
G02*
X133748804Y-113087001I-249999J0D01*
G01*
X133098802Y-113087001D01*
G75*
G02*
X132848803Y-112837002I0J249999D01*
G01*
G37*
G36*
G01*
X130798803Y-112837002D02*
X130798803Y-111937000D01*
G75*
G02*
X131048802Y-111687001I249999J0D01*
G01*
X131698804Y-111687001D01*
G75*
G02*
X131948803Y-111937000I0J-249999D01*
G01*
X131948803Y-112837002D01*
G75*
G02*
X131698804Y-113087001I-249999J0D01*
G01*
X131048802Y-113087001D01*
G75*
G02*
X130798803Y-112837002I0J249999D01*
G01*
G37*
G36*
G01*
X143885385Y-104173578D02*
X143885385Y-103273576D01*
G75*
G02*
X144135384Y-103023577I249999J0D01*
G01*
X144785386Y-103023577D01*
G75*
G02*
X145035385Y-103273576I0J-249999D01*
G01*
X145035385Y-104173578D01*
G75*
G02*
X144785386Y-104423577I-249999J0D01*
G01*
X144135384Y-104423577D01*
G75*
G02*
X143885385Y-104173578I0J249999D01*
G01*
G37*
G36*
G01*
X145935385Y-104173578D02*
X145935385Y-103273576D01*
G75*
G02*
X146185384Y-103023577I249999J0D01*
G01*
X146835386Y-103023577D01*
G75*
G02*
X147085385Y-103273576I0J-249999D01*
G01*
X147085385Y-104173578D01*
G75*
G02*
X146835386Y-104423577I-249999J0D01*
G01*
X146185384Y-104423577D01*
G75*
G02*
X145935385Y-104173578I0J249999D01*
G01*
G37*
G36*
G01*
X139516866Y-89839899D02*
X140416868Y-89839899D01*
G75*
G02*
X140666867Y-90089898I0J-249999D01*
G01*
X140666867Y-90739900D01*
G75*
G02*
X140416868Y-90989899I-249999J0D01*
G01*
X139516866Y-90989899D01*
G75*
G02*
X139266867Y-90739900I0J249999D01*
G01*
X139266867Y-90089898D01*
G75*
G02*
X139516866Y-89839899I249999J0D01*
G01*
G37*
G36*
G01*
X139516866Y-87789899D02*
X140416868Y-87789899D01*
G75*
G02*
X140666867Y-88039898I0J-249999D01*
G01*
X140666867Y-88689900D01*
G75*
G02*
X140416868Y-88939899I-249999J0D01*
G01*
X139516866Y-88939899D01*
G75*
G02*
X139266867Y-88689900I0J249999D01*
G01*
X139266867Y-88039898D01*
G75*
G02*
X139516866Y-87789899I249999J0D01*
G01*
G37*
G36*
G01*
X131907871Y-88876398D02*
X131007869Y-88876398D01*
G75*
G02*
X130757870Y-88626399I0J249999D01*
G01*
X130757870Y-87976397D01*
G75*
G02*
X131007869Y-87726398I249999J0D01*
G01*
X131907871Y-87726398D01*
G75*
G02*
X132157870Y-87976397I0J-249999D01*
G01*
X132157870Y-88626399D01*
G75*
G02*
X131907871Y-88876398I-249999J0D01*
G01*
G37*
G36*
G01*
X131907871Y-90926398D02*
X131007869Y-90926398D01*
G75*
G02*
X130757870Y-90676399I0J249999D01*
G01*
X130757870Y-90026397D01*
G75*
G02*
X131007869Y-89776398I249999J0D01*
G01*
X131907871Y-89776398D01*
G75*
G02*
X132157870Y-90026397I0J-249999D01*
G01*
X132157870Y-90676399D01*
G75*
G02*
X131907871Y-90926398I-249999J0D01*
G01*
G37*
M02*
