G04 #@! TF.GenerationSoftware,KiCad,Pcbnew,(5.1.9-0-10_14)*
G04 #@! TF.CreationDate,2021-02-04T04:11:51-06:00*
G04 #@! TF.ProjectId,micro_redox_semi_split,6d696372-6f5f-4726-9564-6f785f73656d,rev?*
G04 #@! TF.SameCoordinates,Original*
G04 #@! TF.FileFunction,Paste,Bot*
G04 #@! TF.FilePolarity,Positive*
%FSLAX46Y46*%
G04 Gerber Fmt 4.6, Leading zero omitted, Abs format (unit mm)*
G04 Created by KiCad (PCBNEW (5.1.9-0-10_14)) date 2021-02-04 04:11:51*
%MOMM*%
%LPD*%
G01*
G04 APERTURE LIST*
%ADD10C,0.100000*%
G04 APERTURE END LIST*
D10*
G36*
X198689582Y-65138819D02*
G01*
X197715604Y-62728141D01*
X200126282Y-61754163D01*
X201100260Y-64164841D01*
X198689582Y-65138819D01*
G37*
G36*
X210222690Y-62851917D02*
G01*
X209248712Y-60441239D01*
X211659390Y-59467261D01*
X212633368Y-61877939D01*
X210222690Y-62851917D01*
G37*
G36*
X180695171Y-123418049D02*
G01*
X179130452Y-121341596D01*
X181206905Y-119776877D01*
X182771624Y-121853330D01*
X180695171Y-123418049D01*
G37*
G36*
X191243405Y-118224084D02*
G01*
X189678686Y-116147631D01*
X191755139Y-114582912D01*
X193319858Y-116659365D01*
X191243405Y-118224084D01*
G37*
G36*
X162234253Y-136126816D02*
G01*
X160228029Y-134473012D01*
X161881833Y-132466788D01*
X163888057Y-134120592D01*
X162234253Y-136126816D01*
G37*
G36*
X171278530Y-128613924D02*
G01*
X169272306Y-126960120D01*
X170926110Y-124953896D01*
X172932334Y-126607700D01*
X171278530Y-128613924D01*
G37*
G36*
X104894365Y-129002954D02*
G01*
X106900589Y-127349150D01*
X108554393Y-129355374D01*
X106548169Y-131009178D01*
X104894365Y-129002954D01*
G37*
G36*
X110543494Y-139314590D02*
G01*
X112549718Y-137660786D01*
X114203522Y-139667010D01*
X112197298Y-141320814D01*
X110543494Y-139314590D01*
G37*
G36*
X84946047Y-117911439D02*
G01*
X86510766Y-115834986D01*
X88587219Y-117399705D01*
X87022500Y-119476158D01*
X84946047Y-117911439D01*
G37*
G36*
X92846294Y-126619400D02*
G01*
X94411013Y-124542947D01*
X96487466Y-126107666D01*
X94922747Y-128184119D01*
X92846294Y-126619400D01*
G37*
G36*
X223518080Y-78600818D02*
G01*
X222544102Y-76190140D01*
X224954780Y-75216162D01*
X225928758Y-77626840D01*
X223518080Y-78600818D01*
G37*
G36*
X235051188Y-76313916D02*
G01*
X234077210Y-73903238D01*
X236487888Y-72929260D01*
X237461866Y-75339938D01*
X235051188Y-76313916D01*
G37*
G36*
X205039579Y-80950321D02*
G01*
X204065601Y-78539643D01*
X206476279Y-77565665D01*
X207450257Y-79976343D01*
X205039579Y-80950321D01*
G37*
G36*
X216572687Y-78663419D02*
G01*
X215598709Y-76252741D01*
X218009387Y-75278763D01*
X218983365Y-77689441D01*
X216572687Y-78663419D01*
G37*
G36*
X187450081Y-85458819D02*
G01*
X186476103Y-83048141D01*
X188886781Y-82074163D01*
X189860759Y-84484841D01*
X187450081Y-85458819D01*
G37*
G36*
X198983189Y-83171917D02*
G01*
X198009211Y-80761239D01*
X200419889Y-79787261D01*
X201393867Y-82197939D01*
X198983189Y-83171917D01*
G37*
G36*
X171702080Y-94412323D02*
G01*
X170728102Y-92001645D01*
X173138780Y-91027667D01*
X174112758Y-93438345D01*
X171702080Y-94412323D01*
G37*
G36*
X183235188Y-92125421D02*
G01*
X182261210Y-89714743D01*
X184671888Y-88740765D01*
X185645866Y-91151443D01*
X183235188Y-92125421D01*
G37*
G36*
X155890581Y-103365818D02*
G01*
X154916603Y-100955140D01*
X157327281Y-99981162D01*
X158301259Y-102391840D01*
X155890581Y-103365818D01*
G37*
G36*
X167423689Y-101078916D02*
G01*
X166449711Y-98668238D01*
X168860389Y-97694260D01*
X169834367Y-100104938D01*
X167423689Y-101078916D01*
G37*
G36*
X108637924Y-99938167D02*
G01*
X109611902Y-97527489D01*
X112022580Y-98501467D01*
X111048602Y-100912145D01*
X108637924Y-99938167D01*
G37*
G36*
X118522763Y-106304678D02*
G01*
X119496741Y-103894000D01*
X121907419Y-104867978D01*
X120933441Y-107278656D01*
X118522763Y-106304678D01*
G37*
G36*
X92826422Y-90984665D02*
G01*
X93800400Y-88573987D01*
X96211078Y-89547965D01*
X95237100Y-91958643D01*
X92826422Y-90984665D01*
G37*
G36*
X102711261Y-97351176D02*
G01*
X103685239Y-94940498D01*
X106095917Y-95914476D01*
X105121939Y-98325154D01*
X102711261Y-97351176D01*
G37*
G36*
X77014922Y-82031166D02*
G01*
X77988900Y-79620488D01*
X80399578Y-80594466D01*
X79425600Y-83005144D01*
X77014922Y-82031166D01*
G37*
G36*
X86899761Y-88397677D02*
G01*
X87873739Y-85986999D01*
X90284417Y-86960977D01*
X89310439Y-89371655D01*
X86899761Y-88397677D01*
G37*
G36*
X59425425Y-77522669D02*
G01*
X60399403Y-75111991D01*
X62810081Y-76085969D01*
X61836103Y-78496647D01*
X59425425Y-77522669D01*
G37*
G36*
X69310264Y-83889180D02*
G01*
X70284242Y-81478502D01*
X72694920Y-82452480D01*
X71720942Y-84863158D01*
X69310264Y-83889180D01*
G37*
G36*
X40946918Y-75173172D02*
G01*
X41920896Y-72762494D01*
X44331574Y-73736472D01*
X43357596Y-76147150D01*
X40946918Y-75173172D01*
G37*
G36*
X50831757Y-81539683D02*
G01*
X51805735Y-79129005D01*
X54216413Y-80102983D01*
X53242435Y-82513661D01*
X50831757Y-81539683D01*
G37*
G36*
X217168082Y-62852817D02*
G01*
X216194104Y-60442139D01*
X218604782Y-59468161D01*
X219578760Y-61878839D01*
X217168082Y-62852817D01*
G37*
G36*
X228701190Y-60565915D02*
G01*
X227727212Y-58155237D01*
X230137890Y-57181259D01*
X231111868Y-59591937D01*
X228701190Y-60565915D01*
G37*
G36*
X181100081Y-69710820D02*
G01*
X180126103Y-67300142D01*
X182536781Y-66326164D01*
X183510759Y-68736842D01*
X181100081Y-69710820D01*
G37*
G36*
X192633189Y-67423918D02*
G01*
X191659211Y-65013240D01*
X194069889Y-64039262D01*
X195043867Y-66449940D01*
X192633189Y-67423918D01*
G37*
G36*
X165352081Y-78664322D02*
G01*
X164378103Y-76253644D01*
X166788781Y-75279666D01*
X167762759Y-77690344D01*
X165352081Y-78664322D01*
G37*
G36*
X176885189Y-76377420D02*
G01*
X175911211Y-73966742D01*
X178321889Y-72992764D01*
X179295867Y-75403442D01*
X176885189Y-76377420D01*
G37*
G36*
X149477077Y-87554322D02*
G01*
X148503099Y-85143644D01*
X150913777Y-84169666D01*
X151887755Y-86580344D01*
X149477077Y-87554322D01*
G37*
G36*
X161010185Y-85267420D02*
G01*
X160036207Y-82856742D01*
X162446885Y-81882764D01*
X163420863Y-84293442D01*
X161010185Y-85267420D01*
G37*
G36*
X114987921Y-84190171D02*
G01*
X115961899Y-81779493D01*
X118372577Y-82753471D01*
X117398599Y-85164149D01*
X114987921Y-84190171D01*
G37*
G36*
X124872760Y-90556682D02*
G01*
X125846738Y-88146004D01*
X128257416Y-89119982D01*
X127283438Y-91530660D01*
X124872760Y-90556682D01*
G37*
G36*
X99176420Y-75236669D02*
G01*
X100150398Y-72825991D01*
X102561076Y-73799969D01*
X101587098Y-76210647D01*
X99176420Y-75236669D01*
G37*
G36*
X109061259Y-81603180D02*
G01*
X110035237Y-79192502D01*
X112445915Y-80166480D01*
X111471937Y-82577158D01*
X109061259Y-81603180D01*
G37*
G36*
X83428421Y-66283166D02*
G01*
X84402399Y-63872488D01*
X86813077Y-64846466D01*
X85839099Y-67257144D01*
X83428421Y-66283166D01*
G37*
G36*
X93313260Y-72649677D02*
G01*
X94287238Y-70238999D01*
X96697916Y-71212977D01*
X95723938Y-73623655D01*
X93313260Y-72649677D01*
G37*
G36*
X65838921Y-61711166D02*
G01*
X66812899Y-59300488D01*
X69223577Y-60274466D01*
X68249599Y-62685144D01*
X65838921Y-61711166D01*
G37*
G36*
X75723760Y-68077677D02*
G01*
X76697738Y-65666999D01*
X79108416Y-66640977D01*
X78134438Y-69051655D01*
X75723760Y-68077677D01*
G37*
G36*
X47360419Y-59425168D02*
G01*
X48334397Y-57014490D01*
X50745075Y-57988468D01*
X49771097Y-60399146D01*
X47360419Y-59425168D01*
G37*
G36*
X57245258Y-65791679D02*
G01*
X58219236Y-63381001D01*
X60629914Y-64354979D01*
X59655936Y-66765657D01*
X57245258Y-65791679D01*
G37*
G36*
X210818079Y-47041317D02*
G01*
X209844101Y-44630639D01*
X212254779Y-43656661D01*
X213228757Y-46067339D01*
X210818079Y-47041317D01*
G37*
G36*
X222351187Y-44754415D02*
G01*
X221377209Y-42343737D01*
X223787887Y-41369759D01*
X224761865Y-43780437D01*
X222351187Y-44754415D01*
G37*
G36*
X192339584Y-49390819D02*
G01*
X191365606Y-46980141D01*
X193776284Y-46006163D01*
X194750262Y-48416841D01*
X192339584Y-49390819D01*
G37*
G36*
X203872692Y-47103917D02*
G01*
X202898714Y-44693239D01*
X205309392Y-43719261D01*
X206283370Y-46129939D01*
X203872692Y-47103917D01*
G37*
G36*
X174750080Y-53899320D02*
G01*
X173776102Y-51488642D01*
X176186780Y-50514664D01*
X177160758Y-52925342D01*
X174750080Y-53899320D01*
G37*
G36*
X186283188Y-51612418D02*
G01*
X185309210Y-49201740D01*
X187719888Y-48227762D01*
X188693866Y-50638440D01*
X186283188Y-51612418D01*
G37*
G36*
X159002080Y-62852821D02*
G01*
X158028102Y-60442143D01*
X160438780Y-59468165D01*
X161412758Y-61878843D01*
X159002080Y-62852821D01*
G37*
G36*
X170535188Y-60565919D02*
G01*
X169561210Y-58155241D01*
X171971888Y-57181263D01*
X172945866Y-59591941D01*
X170535188Y-60565919D01*
G37*
G36*
X143127083Y-71806320D02*
G01*
X142153105Y-69395642D01*
X144563783Y-68421664D01*
X145537761Y-70832342D01*
X143127083Y-71806320D01*
G37*
G36*
X154660191Y-69519418D02*
G01*
X153686213Y-67108740D01*
X156096891Y-66134762D01*
X157070869Y-68545440D01*
X154660191Y-69519418D01*
G37*
G36*
X121337921Y-68378668D02*
G01*
X122311899Y-65967990D01*
X124722577Y-66941968D01*
X123748599Y-69352646D01*
X121337921Y-68378668D01*
G37*
G36*
X131222760Y-74745179D02*
G01*
X132196738Y-72334501D01*
X134607416Y-73308479D01*
X133633438Y-75719157D01*
X131222760Y-74745179D01*
G37*
G36*
X105589920Y-59425167D02*
G01*
X106563898Y-57014489D01*
X108974576Y-57988467D01*
X108000598Y-60399145D01*
X105589920Y-59425167D01*
G37*
G36*
X115474759Y-65791678D02*
G01*
X116448737Y-63381000D01*
X118859415Y-64354978D01*
X117885437Y-66765656D01*
X115474759Y-65791678D01*
G37*
G36*
X89778421Y-50535167D02*
G01*
X90752399Y-48124489D01*
X93163077Y-49098467D01*
X92189099Y-51509145D01*
X89778421Y-50535167D01*
G37*
G36*
X99663260Y-56901678D02*
G01*
X100637238Y-54491000D01*
X103047916Y-55464978D01*
X102073938Y-57875656D01*
X99663260Y-56901678D01*
G37*
G36*
X72188919Y-45963167D02*
G01*
X73162897Y-43552489D01*
X75573575Y-44526467D01*
X74599597Y-46937145D01*
X72188919Y-45963167D01*
G37*
G36*
X82073758Y-52329678D02*
G01*
X83047736Y-49919000D01*
X85458414Y-50892978D01*
X84484436Y-53303656D01*
X82073758Y-52329678D01*
G37*
G36*
X53710421Y-43677166D02*
G01*
X54684399Y-41266488D01*
X57095077Y-42240466D01*
X56121099Y-44651144D01*
X53710421Y-43677166D01*
G37*
G36*
X63595260Y-50043677D02*
G01*
X64569238Y-47632999D01*
X66979916Y-48606977D01*
X66005938Y-51017655D01*
X63595260Y-50043677D01*
G37*
G36*
G01*
X147390866Y-121578895D02*
X147390866Y-122478897D01*
G75*
G02*
X147140867Y-122728896I-249999J0D01*
G01*
X146490865Y-122728896D01*
G75*
G02*
X146240866Y-122478897I0J249999D01*
G01*
X146240866Y-121578895D01*
G75*
G02*
X146490865Y-121328896I249999J0D01*
G01*
X147140867Y-121328896D01*
G75*
G02*
X147390866Y-121578895I0J-249999D01*
G01*
G37*
G36*
G01*
X149440866Y-121578895D02*
X149440866Y-122478897D01*
G75*
G02*
X149190867Y-122728896I-249999J0D01*
G01*
X148540865Y-122728896D01*
G75*
G02*
X148290866Y-122478897I0J249999D01*
G01*
X148290866Y-121578895D01*
G75*
G02*
X148540865Y-121328896I249999J0D01*
G01*
X149190867Y-121328896D01*
G75*
G02*
X149440866Y-121578895I0J-249999D01*
G01*
G37*
G36*
G01*
X189281297Y-113705598D02*
X190000070Y-113163963D01*
G75*
G02*
X190350181Y-113213168I150453J-199658D01*
G01*
X190741362Y-113732283D01*
G75*
G02*
X190692157Y-114082394I-199658J-150453D01*
G01*
X189973384Y-114624029D01*
G75*
G02*
X189623273Y-114574824I-150453J199658D01*
G01*
X189232092Y-114055709D01*
G75*
G02*
X189281297Y-113705598I199658J150453D01*
G01*
G37*
G36*
G01*
X188047577Y-112068396D02*
X188766350Y-111526761D01*
G75*
G02*
X189116461Y-111575966I150453J-199658D01*
G01*
X189507642Y-112095081D01*
G75*
G02*
X189458437Y-112445192I-199658J-150453D01*
G01*
X188739664Y-112986827D01*
G75*
G02*
X188389553Y-112937622I-150453J199658D01*
G01*
X187998372Y-112418507D01*
G75*
G02*
X188047577Y-112068396I199658J150453D01*
G01*
G37*
G36*
G01*
X167904362Y-124313363D02*
X168476834Y-123618899D01*
G75*
G02*
X168828758Y-123585013I192905J-159019D01*
G01*
X169330316Y-123998465D01*
G75*
G02*
X169364202Y-124350389I-159019J-192905D01*
G01*
X168791730Y-125044853D01*
G75*
G02*
X168439806Y-125078739I-192905J159019D01*
G01*
X167938248Y-124665287D01*
G75*
G02*
X167904362Y-124313363I159019J192905D01*
G01*
G37*
G36*
G01*
X166322532Y-123009403D02*
X166895004Y-122314939D01*
G75*
G02*
X167246928Y-122281053I192905J-159019D01*
G01*
X167748486Y-122694505D01*
G75*
G02*
X167782372Y-123046429I-159019J-192905D01*
G01*
X167209900Y-123740893D01*
G75*
G02*
X166857976Y-123774779I-192905J159019D01*
G01*
X166356418Y-123361327D01*
G75*
G02*
X166322532Y-123009403I159019J192905D01*
G01*
G37*
G36*
G01*
X115139903Y-137017406D02*
X115712375Y-137711870D01*
G75*
G02*
X115678489Y-138063794I-192905J-159019D01*
G01*
X115176931Y-138477246D01*
G75*
G02*
X114825007Y-138443360I-159019J192905D01*
G01*
X114252535Y-137748896D01*
G75*
G02*
X114286421Y-137396972I192905J159019D01*
G01*
X114787979Y-136983520D01*
G75*
G02*
X115139903Y-137017406I159019J-192905D01*
G01*
G37*
G36*
G01*
X116721733Y-135713446D02*
X117294205Y-136407910D01*
G75*
G02*
X117260319Y-136759834I-192905J-159019D01*
G01*
X116758761Y-137173286D01*
G75*
G02*
X116406837Y-137139400I-159019J192905D01*
G01*
X115834365Y-136444936D01*
G75*
G02*
X115868251Y-136093012I192905J159019D01*
G01*
X116369809Y-135679560D01*
G75*
G02*
X116721733Y-135713446I159019J-192905D01*
G01*
G37*
G36*
G01*
X99269430Y-124897705D02*
X98727795Y-125616478D01*
G75*
G02*
X98377684Y-125665683I-199658J150453D01*
G01*
X97858569Y-125274502D01*
G75*
G02*
X97809364Y-124924391I150453J199658D01*
G01*
X98350999Y-124205618D01*
G75*
G02*
X98701110Y-124156413I199658J-150453D01*
G01*
X99220225Y-124547594D01*
G75*
G02*
X99269430Y-124897705I-150453J-199658D01*
G01*
G37*
G36*
G01*
X100906632Y-126131425D02*
X100364997Y-126850198D01*
G75*
G02*
X100014886Y-126899403I-199658J150453D01*
G01*
X99495771Y-126508222D01*
G75*
G02*
X99446566Y-126158111I150453J199658D01*
G01*
X99988201Y-125439338D01*
G75*
G02*
X100338312Y-125390133I199658J-150453D01*
G01*
X100857427Y-125781314D01*
G75*
G02*
X100906632Y-126131425I-150453J-199658D01*
G01*
G37*
G36*
G01*
X239847026Y-82644595D02*
X239012559Y-82981742D01*
G75*
G02*
X238687113Y-82843598I-93651J231795D01*
G01*
X238443618Y-82240927D01*
G75*
G02*
X238581762Y-81915481I231795J93651D01*
G01*
X239416229Y-81578334D01*
G75*
G02*
X239741675Y-81716478I93651J-231795D01*
G01*
X239985170Y-82319149D01*
G75*
G02*
X239847026Y-82644595I-231795J-93651D01*
G01*
G37*
G36*
G01*
X240614970Y-84545321D02*
X239780503Y-84882468D01*
G75*
G02*
X239455057Y-84744324I-93651J231795D01*
G01*
X239211562Y-84141653D01*
G75*
G02*
X239349706Y-83816207I231795J93651D01*
G01*
X240184173Y-83479060D01*
G75*
G02*
X240509619Y-83617204I93651J-231795D01*
G01*
X240753114Y-84219875D01*
G75*
G02*
X240614970Y-84545321I-231795J-93651D01*
G01*
G37*
G36*
G01*
X221368526Y-84994092D02*
X220534059Y-85331239D01*
G75*
G02*
X220208613Y-85193095I-93651J231795D01*
G01*
X219965118Y-84590424D01*
G75*
G02*
X220103262Y-84264978I231795J93651D01*
G01*
X220937729Y-83927831D01*
G75*
G02*
X221263175Y-84065975I93651J-231795D01*
G01*
X221506670Y-84668646D01*
G75*
G02*
X221368526Y-84994092I-231795J-93651D01*
G01*
G37*
G36*
G01*
X222136470Y-86894818D02*
X221302003Y-87231965D01*
G75*
G02*
X220976557Y-87093821I-93651J231795D01*
G01*
X220733062Y-86491150D01*
G75*
G02*
X220871206Y-86165704I231795J93651D01*
G01*
X221705673Y-85828557D01*
G75*
G02*
X222031119Y-85966701I93651J-231795D01*
G01*
X222274614Y-86569372D01*
G75*
G02*
X222136470Y-86894818I-231795J-93651D01*
G01*
G37*
G36*
G01*
X203779026Y-89502593D02*
X202944559Y-89839740D01*
G75*
G02*
X202619113Y-89701596I-93651J231795D01*
G01*
X202375618Y-89098925D01*
G75*
G02*
X202513762Y-88773479I231795J93651D01*
G01*
X203348229Y-88436332D01*
G75*
G02*
X203673675Y-88574476I93651J-231795D01*
G01*
X203917170Y-89177147D01*
G75*
G02*
X203779026Y-89502593I-231795J-93651D01*
G01*
G37*
G36*
G01*
X204546970Y-91403319D02*
X203712503Y-91740466D01*
G75*
G02*
X203387057Y-91602322I-93651J231795D01*
G01*
X203143562Y-90999651D01*
G75*
G02*
X203281706Y-90674205I231795J93651D01*
G01*
X204116173Y-90337058D01*
G75*
G02*
X204441619Y-90475202I93651J-231795D01*
G01*
X204685114Y-91077873D01*
G75*
G02*
X204546970Y-91403319I-231795J-93651D01*
G01*
G37*
G36*
G01*
X188031029Y-98456094D02*
X187196562Y-98793241D01*
G75*
G02*
X186871116Y-98655097I-93651J231795D01*
G01*
X186627621Y-98052426D01*
G75*
G02*
X186765765Y-97726980I231795J93651D01*
G01*
X187600232Y-97389833D01*
G75*
G02*
X187925678Y-97527977I93651J-231795D01*
G01*
X188169173Y-98130648D01*
G75*
G02*
X188031029Y-98456094I-231795J-93651D01*
G01*
G37*
G36*
G01*
X188798973Y-100356820D02*
X187964506Y-100693967D01*
G75*
G02*
X187639060Y-100555823I-93651J231795D01*
G01*
X187395565Y-99953152D01*
G75*
G02*
X187533709Y-99627706I231795J93651D01*
G01*
X188368176Y-99290559D01*
G75*
G02*
X188693622Y-99428703I93651J-231795D01*
G01*
X188937117Y-100031374D01*
G75*
G02*
X188798973Y-100356820I-231795J-93651D01*
G01*
G37*
G36*
G01*
X172219527Y-107409588D02*
X171385060Y-107746735D01*
G75*
G02*
X171059614Y-107608591I-93651J231795D01*
G01*
X170816119Y-107005920D01*
G75*
G02*
X170954263Y-106680474I231795J93651D01*
G01*
X171788730Y-106343327D01*
G75*
G02*
X172114176Y-106481471I93651J-231795D01*
G01*
X172357671Y-107084142D01*
G75*
G02*
X172219527Y-107409588I-231795J-93651D01*
G01*
G37*
G36*
G01*
X172987471Y-109310314D02*
X172153004Y-109647461D01*
G75*
G02*
X171827558Y-109509317I-93651J231795D01*
G01*
X171584063Y-108906646D01*
G75*
G02*
X171722207Y-108581200I231795J93651D01*
G01*
X172556674Y-108244053D01*
G75*
G02*
X172882120Y-108382197I93651J-231795D01*
G01*
X173125615Y-108984868D01*
G75*
G02*
X172987471Y-109310314I-231795J-93651D01*
G01*
G37*
G36*
G01*
X117629175Y-114160238D02*
X116794708Y-113823091D01*
G75*
G02*
X116656564Y-113497645I93651J231795D01*
G01*
X116900059Y-112894974D01*
G75*
G02*
X117225505Y-112756830I231795J-93651D01*
G01*
X118059972Y-113093977D01*
G75*
G02*
X118198116Y-113419423I-93651J-231795D01*
G01*
X117954621Y-114022094D01*
G75*
G02*
X117629175Y-114160238I-231795J93651D01*
G01*
G37*
G36*
G01*
X116861231Y-116060964D02*
X116026764Y-115723817D01*
G75*
G02*
X115888620Y-115398371I93651J231795D01*
G01*
X116132115Y-114795700D01*
G75*
G02*
X116457561Y-114657556I231795J-93651D01*
G01*
X117292028Y-114994703D01*
G75*
G02*
X117430172Y-115320149I-93651J-231795D01*
G01*
X117186677Y-115922820D01*
G75*
G02*
X116861231Y-116060964I-231795J93651D01*
G01*
G37*
G36*
G01*
X101754176Y-105270246D02*
X100919709Y-104933099D01*
G75*
G02*
X100781565Y-104607653I93651J231795D01*
G01*
X101025060Y-104004982D01*
G75*
G02*
X101350506Y-103866838I231795J-93651D01*
G01*
X102184973Y-104203985D01*
G75*
G02*
X102323117Y-104529431I-93651J-231795D01*
G01*
X102079622Y-105132102D01*
G75*
G02*
X101754176Y-105270246I-231795J93651D01*
G01*
G37*
G36*
G01*
X100986232Y-107170972D02*
X100151765Y-106833825D01*
G75*
G02*
X100013621Y-106508379I93651J231795D01*
G01*
X100257116Y-105905708D01*
G75*
G02*
X100582562Y-105767564I231795J-93651D01*
G01*
X101417029Y-106104711D01*
G75*
G02*
X101555173Y-106430157I-93651J-231795D01*
G01*
X101311678Y-107032828D01*
G75*
G02*
X100986232Y-107170972I-231795J93651D01*
G01*
G37*
G36*
G01*
X85942674Y-96316741D02*
X85108207Y-95979594D01*
G75*
G02*
X84970063Y-95654148I93651J231795D01*
G01*
X85213558Y-95051477D01*
G75*
G02*
X85539004Y-94913333I231795J-93651D01*
G01*
X86373471Y-95250480D01*
G75*
G02*
X86511615Y-95575926I-93651J-231795D01*
G01*
X86268120Y-96178597D01*
G75*
G02*
X85942674Y-96316741I-231795J93651D01*
G01*
G37*
G36*
G01*
X85174730Y-98217467D02*
X84340263Y-97880320D01*
G75*
G02*
X84202119Y-97554874I93651J231795D01*
G01*
X84445614Y-96952203D01*
G75*
G02*
X84771060Y-96814059I231795J-93651D01*
G01*
X85605527Y-97151206D01*
G75*
G02*
X85743671Y-97476652I-93651J-231795D01*
G01*
X85500176Y-98079323D01*
G75*
G02*
X85174730Y-98217467I-231795J93651D01*
G01*
G37*
G36*
G01*
X68353175Y-91808238D02*
X67518708Y-91471091D01*
G75*
G02*
X67380564Y-91145645I93651J231795D01*
G01*
X67624059Y-90542974D01*
G75*
G02*
X67949505Y-90404830I231795J-93651D01*
G01*
X68783972Y-90741977D01*
G75*
G02*
X68922116Y-91067423I-93651J-231795D01*
G01*
X68678621Y-91670094D01*
G75*
G02*
X68353175Y-91808238I-231795J93651D01*
G01*
G37*
G36*
G01*
X67585231Y-93708964D02*
X66750764Y-93371817D01*
G75*
G02*
X66612620Y-93046371I93651J231795D01*
G01*
X66856115Y-92443700D01*
G75*
G02*
X67181561Y-92305556I231795J-93651D01*
G01*
X68016028Y-92642703D01*
G75*
G02*
X68154172Y-92968149I-93651J-231795D01*
G01*
X67910677Y-93570820D01*
G75*
G02*
X67585231Y-93708964I-231795J93651D01*
G01*
G37*
G36*
G01*
X49874675Y-89458741D02*
X49040208Y-89121594D01*
G75*
G02*
X48902064Y-88796148I93651J231795D01*
G01*
X49145559Y-88193477D01*
G75*
G02*
X49471005Y-88055333I231795J-93651D01*
G01*
X50305472Y-88392480D01*
G75*
G02*
X50443616Y-88717926I-93651J-231795D01*
G01*
X50200121Y-89320597D01*
G75*
G02*
X49874675Y-89458741I-231795J93651D01*
G01*
G37*
G36*
G01*
X49106731Y-91359467D02*
X48272264Y-91022320D01*
G75*
G02*
X48134120Y-90696874I93651J231795D01*
G01*
X48377615Y-90094203D01*
G75*
G02*
X48703061Y-89956059I231795J-93651D01*
G01*
X49537528Y-90293206D01*
G75*
G02*
X49675672Y-90618652I-93651J-231795D01*
G01*
X49432177Y-91221323D01*
G75*
G02*
X49106731Y-91359467I-231795J93651D01*
G01*
G37*
G36*
G01*
X233497027Y-66896593D02*
X232662560Y-67233740D01*
G75*
G02*
X232337114Y-67095596I-93651J231795D01*
G01*
X232093619Y-66492925D01*
G75*
G02*
X232231763Y-66167479I231795J93651D01*
G01*
X233066230Y-65830332D01*
G75*
G02*
X233391676Y-65968476I93651J-231795D01*
G01*
X233635171Y-66571147D01*
G75*
G02*
X233497027Y-66896593I-231795J-93651D01*
G01*
G37*
G36*
G01*
X234264971Y-68797319D02*
X233430504Y-69134466D01*
G75*
G02*
X233105058Y-68996322I-93651J231795D01*
G01*
X232861563Y-68393651D01*
G75*
G02*
X232999707Y-68068205I231795J93651D01*
G01*
X233834174Y-67731058D01*
G75*
G02*
X234159620Y-67869202I93651J-231795D01*
G01*
X234403115Y-68471873D01*
G75*
G02*
X234264971Y-68797319I-231795J-93651D01*
G01*
G37*
G36*
G01*
X215018529Y-69182599D02*
X214184062Y-69519746D01*
G75*
G02*
X213858616Y-69381602I-93651J231795D01*
G01*
X213615121Y-68778931D01*
G75*
G02*
X213753265Y-68453485I231795J93651D01*
G01*
X214587732Y-68116338D01*
G75*
G02*
X214913178Y-68254482I93651J-231795D01*
G01*
X215156673Y-68857153D01*
G75*
G02*
X215018529Y-69182599I-231795J-93651D01*
G01*
G37*
G36*
G01*
X215786473Y-71083325D02*
X214952006Y-71420472D01*
G75*
G02*
X214626560Y-71282328I-93651J231795D01*
G01*
X214383065Y-70679657D01*
G75*
G02*
X214521209Y-70354211I231795J93651D01*
G01*
X215355676Y-70017064D01*
G75*
G02*
X215681122Y-70155208I93651J-231795D01*
G01*
X215924617Y-70757879D01*
G75*
G02*
X215786473Y-71083325I-231795J-93651D01*
G01*
G37*
G36*
G01*
X197429028Y-73754593D02*
X196594561Y-74091740D01*
G75*
G02*
X196269115Y-73953596I-93651J231795D01*
G01*
X196025620Y-73350925D01*
G75*
G02*
X196163764Y-73025479I231795J93651D01*
G01*
X196998231Y-72688332D01*
G75*
G02*
X197323677Y-72826476I93651J-231795D01*
G01*
X197567172Y-73429147D01*
G75*
G02*
X197429028Y-73754593I-231795J-93651D01*
G01*
G37*
G36*
G01*
X198196972Y-75655319D02*
X197362505Y-75992466D01*
G75*
G02*
X197037059Y-75854322I-93651J231795D01*
G01*
X196793564Y-75251651D01*
G75*
G02*
X196931708Y-74926205I231795J93651D01*
G01*
X197766175Y-74589058D01*
G75*
G02*
X198091621Y-74727202I93651J-231795D01*
G01*
X198335116Y-75329873D01*
G75*
G02*
X198196972Y-75655319I-231795J-93651D01*
G01*
G37*
G36*
G01*
X181681027Y-82708094D02*
X180846560Y-83045241D01*
G75*
G02*
X180521114Y-82907097I-93651J231795D01*
G01*
X180277619Y-82304426D01*
G75*
G02*
X180415763Y-81978980I231795J93651D01*
G01*
X181250230Y-81641833D01*
G75*
G02*
X181575676Y-81779977I93651J-231795D01*
G01*
X181819171Y-82382648D01*
G75*
G02*
X181681027Y-82708094I-231795J-93651D01*
G01*
G37*
G36*
G01*
X182448971Y-84608820D02*
X181614504Y-84945967D01*
G75*
G02*
X181289058Y-84807823I-93651J231795D01*
G01*
X181045563Y-84205152D01*
G75*
G02*
X181183707Y-83879706I231795J93651D01*
G01*
X182018174Y-83542559D01*
G75*
G02*
X182343620Y-83680703I93651J-231795D01*
G01*
X182587115Y-84283374D01*
G75*
G02*
X182448971Y-84608820I-231795J-93651D01*
G01*
G37*
G36*
G01*
X165806026Y-91598095D02*
X164971559Y-91935242D01*
G75*
G02*
X164646113Y-91797098I-93651J231795D01*
G01*
X164402618Y-91194427D01*
G75*
G02*
X164540762Y-90868981I231795J93651D01*
G01*
X165375229Y-90531834D01*
G75*
G02*
X165700675Y-90669978I93651J-231795D01*
G01*
X165944170Y-91272649D01*
G75*
G02*
X165806026Y-91598095I-231795J-93651D01*
G01*
G37*
G36*
G01*
X166573970Y-93498821D02*
X165739503Y-93835968D01*
G75*
G02*
X165414057Y-93697824I-93651J231795D01*
G01*
X165170562Y-93095153D01*
G75*
G02*
X165308706Y-92769707I231795J93651D01*
G01*
X166143173Y-92432560D01*
G75*
G02*
X166468619Y-92570704I93651J-231795D01*
G01*
X166712114Y-93173375D01*
G75*
G02*
X166573970Y-93498821I-231795J-93651D01*
G01*
G37*
G36*
G01*
X123915673Y-98475741D02*
X123081206Y-98138594D01*
G75*
G02*
X122943062Y-97813148I93651J231795D01*
G01*
X123186557Y-97210477D01*
G75*
G02*
X123512003Y-97072333I231795J-93651D01*
G01*
X124346470Y-97409480D01*
G75*
G02*
X124484614Y-97734926I-93651J-231795D01*
G01*
X124241119Y-98337597D01*
G75*
G02*
X123915673Y-98475741I-231795J93651D01*
G01*
G37*
G36*
G01*
X123147729Y-100376467D02*
X122313262Y-100039320D01*
G75*
G02*
X122175118Y-99713874I93651J231795D01*
G01*
X122418613Y-99111203D01*
G75*
G02*
X122744059Y-98973059I231795J-93651D01*
G01*
X123578526Y-99310206D01*
G75*
G02*
X123716670Y-99635652I-93651J-231795D01*
G01*
X123473175Y-100238323D01*
G75*
G02*
X123147729Y-100376467I-231795J93651D01*
G01*
G37*
G36*
G01*
X108104170Y-89522240D02*
X107269703Y-89185093D01*
G75*
G02*
X107131559Y-88859647I93651J231795D01*
G01*
X107375054Y-88256976D01*
G75*
G02*
X107700500Y-88118832I231795J-93651D01*
G01*
X108534967Y-88455979D01*
G75*
G02*
X108673111Y-88781425I-93651J-231795D01*
G01*
X108429616Y-89384096D01*
G75*
G02*
X108104170Y-89522240I-231795J93651D01*
G01*
G37*
G36*
G01*
X107336226Y-91422966D02*
X106501759Y-91085819D01*
G75*
G02*
X106363615Y-90760373I93651J231795D01*
G01*
X106607110Y-90157702D01*
G75*
G02*
X106932556Y-90019558I231795J-93651D01*
G01*
X107767023Y-90356705D01*
G75*
G02*
X107905167Y-90682151I-93651J-231795D01*
G01*
X107661672Y-91284822D01*
G75*
G02*
X107336226Y-91422966I-231795J93651D01*
G01*
G37*
G36*
G01*
X92353202Y-80566603D02*
X91518735Y-80229456D01*
G75*
G02*
X91380591Y-79904010I93651J231795D01*
G01*
X91624086Y-79301339D01*
G75*
G02*
X91949532Y-79163195I231795J-93651D01*
G01*
X92783999Y-79500342D01*
G75*
G02*
X92922143Y-79825788I-93651J-231795D01*
G01*
X92678648Y-80428459D01*
G75*
G02*
X92353202Y-80566603I-231795J93651D01*
G01*
G37*
G36*
G01*
X91585258Y-82467329D02*
X90750791Y-82130182D01*
G75*
G02*
X90612647Y-81804736I93651J231795D01*
G01*
X90856142Y-81202065D01*
G75*
G02*
X91181588Y-81063921I231795J-93651D01*
G01*
X92016055Y-81401068D01*
G75*
G02*
X92154199Y-81726514I-93651J-231795D01*
G01*
X91910704Y-82329185D01*
G75*
G02*
X91585258Y-82467329I-231795J93651D01*
G01*
G37*
G36*
G01*
X74763700Y-75931105D02*
X73929233Y-75593958D01*
G75*
G02*
X73791089Y-75268512I93651J231795D01*
G01*
X74034584Y-74665841D01*
G75*
G02*
X74360030Y-74527697I231795J-93651D01*
G01*
X75194497Y-74864844D01*
G75*
G02*
X75332641Y-75190290I-93651J-231795D01*
G01*
X75089146Y-75792961D01*
G75*
G02*
X74763700Y-75931105I-231795J93651D01*
G01*
G37*
G36*
G01*
X73995756Y-77831831D02*
X73161289Y-77494684D01*
G75*
G02*
X73023145Y-77169238I93651J231795D01*
G01*
X73266640Y-76566567D01*
G75*
G02*
X73592086Y-76428423I231795J-93651D01*
G01*
X74426553Y-76765570D01*
G75*
G02*
X74564697Y-77091016I-93651J-231795D01*
G01*
X74321202Y-77693687D01*
G75*
G02*
X73995756Y-77831831I-231795J93651D01*
G01*
G37*
G36*
G01*
X56288174Y-73647237D02*
X55453707Y-73310090D01*
G75*
G02*
X55315563Y-72984644I93651J231795D01*
G01*
X55559058Y-72381973D01*
G75*
G02*
X55884504Y-72243829I231795J-93651D01*
G01*
X56718971Y-72580976D01*
G75*
G02*
X56857115Y-72906422I-93651J-231795D01*
G01*
X56613620Y-73509093D01*
G75*
G02*
X56288174Y-73647237I-231795J93651D01*
G01*
G37*
G36*
G01*
X55520230Y-75547963D02*
X54685763Y-75210816D01*
G75*
G02*
X54547619Y-74885370I93651J231795D01*
G01*
X54791114Y-74282699D01*
G75*
G02*
X55116560Y-74144555I231795J-93651D01*
G01*
X55951027Y-74481702D01*
G75*
G02*
X56089171Y-74807148I-93651J-231795D01*
G01*
X55845676Y-75409819D01*
G75*
G02*
X55520230Y-75547963I-231795J93651D01*
G01*
G37*
G36*
G01*
X227147031Y-51085091D02*
X226312564Y-51422238D01*
G75*
G02*
X225987118Y-51284094I-93651J231795D01*
G01*
X225743623Y-50681423D01*
G75*
G02*
X225881767Y-50355977I231795J93651D01*
G01*
X226716234Y-50018830D01*
G75*
G02*
X227041680Y-50156974I93651J-231795D01*
G01*
X227285175Y-50759645D01*
G75*
G02*
X227147031Y-51085091I-231795J-93651D01*
G01*
G37*
G36*
G01*
X227914975Y-52985817D02*
X227080508Y-53322964D01*
G75*
G02*
X226755062Y-53184820I-93651J231795D01*
G01*
X226511567Y-52582149D01*
G75*
G02*
X226649711Y-52256703I231795J93651D01*
G01*
X227484178Y-51919556D01*
G75*
G02*
X227809624Y-52057700I93651J-231795D01*
G01*
X228053119Y-52660371D01*
G75*
G02*
X227914975Y-52985817I-231795J-93651D01*
G01*
G37*
G36*
G01*
X208668526Y-53434592D02*
X207834059Y-53771739D01*
G75*
G02*
X207508613Y-53633595I-93651J231795D01*
G01*
X207265118Y-53030924D01*
G75*
G02*
X207403262Y-52705478I231795J93651D01*
G01*
X208237729Y-52368331D01*
G75*
G02*
X208563175Y-52506475I93651J-231795D01*
G01*
X208806670Y-53109146D01*
G75*
G02*
X208668526Y-53434592I-231795J-93651D01*
G01*
G37*
G36*
G01*
X209436470Y-55335318D02*
X208602003Y-55672465D01*
G75*
G02*
X208276557Y-55534321I-93651J231795D01*
G01*
X208033062Y-54931650D01*
G75*
G02*
X208171206Y-54606204I231795J93651D01*
G01*
X209005673Y-54269057D01*
G75*
G02*
X209331119Y-54407201I93651J-231795D01*
G01*
X209574614Y-55009872D01*
G75*
G02*
X209436470Y-55335318I-231795J-93651D01*
G01*
G37*
G36*
G01*
X191079028Y-57943094D02*
X190244561Y-58280241D01*
G75*
G02*
X189919115Y-58142097I-93651J231795D01*
G01*
X189675620Y-57539426D01*
G75*
G02*
X189813764Y-57213980I231795J93651D01*
G01*
X190648231Y-56876833D01*
G75*
G02*
X190973677Y-57014977I93651J-231795D01*
G01*
X191217172Y-57617648D01*
G75*
G02*
X191079028Y-57943094I-231795J-93651D01*
G01*
G37*
G36*
G01*
X191846972Y-59843820D02*
X191012505Y-60180967D01*
G75*
G02*
X190687059Y-60042823I-93651J231795D01*
G01*
X190443564Y-59440152D01*
G75*
G02*
X190581708Y-59114706I231795J93651D01*
G01*
X191416175Y-58777559D01*
G75*
G02*
X191741621Y-58915703I93651J-231795D01*
G01*
X191985116Y-59518374D01*
G75*
G02*
X191846972Y-59843820I-231795J-93651D01*
G01*
G37*
G36*
G01*
X175331023Y-66896591D02*
X174496556Y-67233738D01*
G75*
G02*
X174171110Y-67095594I-93651J231795D01*
G01*
X173927615Y-66492923D01*
G75*
G02*
X174065759Y-66167477I231795J93651D01*
G01*
X174900226Y-65830330D01*
G75*
G02*
X175225672Y-65968474I93651J-231795D01*
G01*
X175469167Y-66571145D01*
G75*
G02*
X175331023Y-66896591I-231795J-93651D01*
G01*
G37*
G36*
G01*
X176098967Y-68797317D02*
X175264500Y-69134464D01*
G75*
G02*
X174939054Y-68996320I-93651J231795D01*
G01*
X174695559Y-68393649D01*
G75*
G02*
X174833703Y-68068203I231795J93651D01*
G01*
X175668170Y-67731056D01*
G75*
G02*
X175993616Y-67869200I93651J-231795D01*
G01*
X176237111Y-68471871D01*
G75*
G02*
X176098967Y-68797317I-231795J-93651D01*
G01*
G37*
G36*
G01*
X159456029Y-75850092D02*
X158621562Y-76187239D01*
G75*
G02*
X158296116Y-76049095I-93651J231795D01*
G01*
X158052621Y-75446424D01*
G75*
G02*
X158190765Y-75120978I231795J93651D01*
G01*
X159025232Y-74783831D01*
G75*
G02*
X159350678Y-74921975I93651J-231795D01*
G01*
X159594173Y-75524646D01*
G75*
G02*
X159456029Y-75850092I-231795J-93651D01*
G01*
G37*
G36*
G01*
X160223973Y-77750818D02*
X159389506Y-78087965D01*
G75*
G02*
X159064060Y-77949821I-93651J231795D01*
G01*
X158820565Y-77347150D01*
G75*
G02*
X158958709Y-77021704I231795J93651D01*
G01*
X159793176Y-76684557D01*
G75*
G02*
X160118622Y-76822701I93651J-231795D01*
G01*
X160362117Y-77425372D01*
G75*
G02*
X160223973Y-77750818I-231795J-93651D01*
G01*
G37*
G36*
G01*
X130265673Y-82664241D02*
X129431206Y-82327094D01*
G75*
G02*
X129293062Y-82001648I93651J231795D01*
G01*
X129536557Y-81398977D01*
G75*
G02*
X129862003Y-81260833I231795J-93651D01*
G01*
X130696470Y-81597980D01*
G75*
G02*
X130834614Y-81923426I-93651J-231795D01*
G01*
X130591119Y-82526097D01*
G75*
G02*
X130265673Y-82664241I-231795J93651D01*
G01*
G37*
G36*
G01*
X129497729Y-84564967D02*
X128663262Y-84227820D01*
G75*
G02*
X128525118Y-83902374I93651J231795D01*
G01*
X128768613Y-83299703D01*
G75*
G02*
X129094059Y-83161559I231795J-93651D01*
G01*
X129928526Y-83498706D01*
G75*
G02*
X130066670Y-83824152I-93651J-231795D01*
G01*
X129823175Y-84426823D01*
G75*
G02*
X129497729Y-84564967I-231795J93651D01*
G01*
G37*
G36*
G01*
X114517671Y-73710739D02*
X113683204Y-73373592D01*
G75*
G02*
X113545060Y-73048146I93651J231795D01*
G01*
X113788555Y-72445475D01*
G75*
G02*
X114114001Y-72307331I231795J-93651D01*
G01*
X114948468Y-72644478D01*
G75*
G02*
X115086612Y-72969924I-93651J-231795D01*
G01*
X114843117Y-73572595D01*
G75*
G02*
X114517671Y-73710739I-231795J93651D01*
G01*
G37*
G36*
G01*
X113749727Y-75611465D02*
X112915260Y-75274318D01*
G75*
G02*
X112777116Y-74948872I93651J231795D01*
G01*
X113020611Y-74346201D01*
G75*
G02*
X113346057Y-74208057I231795J-93651D01*
G01*
X114180524Y-74545204D01*
G75*
G02*
X114318668Y-74870650I-93651J-231795D01*
G01*
X114075173Y-75473321D01*
G75*
G02*
X113749727Y-75611465I-231795J93651D01*
G01*
G37*
G36*
G01*
X98706174Y-64757241D02*
X97871707Y-64420094D01*
G75*
G02*
X97733563Y-64094648I93651J231795D01*
G01*
X97977058Y-63491977D01*
G75*
G02*
X98302504Y-63353833I231795J-93651D01*
G01*
X99136971Y-63690980D01*
G75*
G02*
X99275115Y-64016426I-93651J-231795D01*
G01*
X99031620Y-64619097D01*
G75*
G02*
X98706174Y-64757241I-231795J93651D01*
G01*
G37*
G36*
G01*
X97938230Y-66657967D02*
X97103763Y-66320820D01*
G75*
G02*
X96965619Y-65995374I93651J231795D01*
G01*
X97209114Y-65392703D01*
G75*
G02*
X97534560Y-65254559I231795J-93651D01*
G01*
X98369027Y-65591706D01*
G75*
G02*
X98507171Y-65917152I-93651J-231795D01*
G01*
X98263676Y-66519823D01*
G75*
G02*
X97938230Y-66657967I-231795J93651D01*
G01*
G37*
G36*
G01*
X81180175Y-60248741D02*
X80345708Y-59911594D01*
G75*
G02*
X80207564Y-59586148I93651J231795D01*
G01*
X80451059Y-58983477D01*
G75*
G02*
X80776505Y-58845333I231795J-93651D01*
G01*
X81610972Y-59182480D01*
G75*
G02*
X81749116Y-59507926I-93651J-231795D01*
G01*
X81505621Y-60110597D01*
G75*
G02*
X81180175Y-60248741I-231795J93651D01*
G01*
G37*
G36*
G01*
X80412231Y-62149467D02*
X79577764Y-61812320D01*
G75*
G02*
X79439620Y-61486874I93651J231795D01*
G01*
X79683115Y-60884203D01*
G75*
G02*
X80008561Y-60746059I231795J-93651D01*
G01*
X80843028Y-61083206D01*
G75*
G02*
X80981172Y-61408652I-93651J-231795D01*
G01*
X80737677Y-62011323D01*
G75*
G02*
X80412231Y-62149467I-231795J93651D01*
G01*
G37*
G36*
G01*
X62701674Y-57962739D02*
X61867207Y-57625592D01*
G75*
G02*
X61729063Y-57300146I93651J231795D01*
G01*
X61972558Y-56697475D01*
G75*
G02*
X62298004Y-56559331I231795J-93651D01*
G01*
X63132471Y-56896478D01*
G75*
G02*
X63270615Y-57221924I-93651J-231795D01*
G01*
X63027120Y-57824595D01*
G75*
G02*
X62701674Y-57962739I-231795J93651D01*
G01*
G37*
G36*
G01*
X61933730Y-59863465D02*
X61099263Y-59526318D01*
G75*
G02*
X60961119Y-59200872I93651J231795D01*
G01*
X61204614Y-58598201D01*
G75*
G02*
X61530060Y-58460057I231795J-93651D01*
G01*
X62364527Y-58797204D01*
G75*
G02*
X62502671Y-59122650I-93651J-231795D01*
G01*
X62259176Y-59725321D01*
G75*
G02*
X61933730Y-59863465I-231795J93651D01*
G01*
G37*
M02*
