G04 #@! TF.GenerationSoftware,KiCad,Pcbnew,(5.1.9-0-10_14)*
G04 #@! TF.CreationDate,2021-02-04T04:11:51-06:00*
G04 #@! TF.ProjectId,micro_redox_semi_split,6d696372-6f5f-4726-9564-6f785f73656d,rev?*
G04 #@! TF.SameCoordinates,Original*
G04 #@! TF.FileFunction,Legend,Bot*
G04 #@! TF.FilePolarity,Positive*
%FSLAX46Y46*%
G04 Gerber Fmt 4.6, Leading zero omitted, Abs format (unit mm)*
G04 Created by KiCad (PCBNEW (5.1.9-0-10_14)) date 2021-02-04 04:11:51*
%MOMM*%
%LPD*%
G01*
G04 APERTURE LIST*
%ADD10C,0.150000*%
%ADD11C,0.120000*%
G04 APERTURE END LIST*
D10*
X210601745Y-63723376D02*
X210414442Y-63259784D01*
X200210818Y-60695400D02*
X202992370Y-59571581D01*
X199934530Y-61346296D02*
X200210818Y-60695400D01*
X201896548Y-64867728D02*
X204214507Y-63931211D01*
X209065858Y-59921922D02*
X208841094Y-59365612D01*
X201245653Y-64591439D02*
X201896548Y-64867728D01*
X208841094Y-59365612D02*
X204668767Y-61051342D01*
X204017872Y-60775053D02*
X203643265Y-59847869D01*
X202992370Y-59571581D02*
X203643265Y-59847869D01*
X206429418Y-65409106D02*
X210601745Y-63723376D01*
X206167193Y-64760077D02*
X206429418Y-65409106D01*
X204214507Y-63931211D02*
G75*
G02*
X206167193Y-64760077I561910J-1390776D01*
G01*
X204668766Y-61051341D02*
G75*
G02*
X204017872Y-60775053I-187303J463591D01*
G01*
D11*
X154212841Y-113284811D02*
X141452841Y-113284811D01*
X141452841Y-113284811D02*
X141452841Y-115944811D01*
X141452841Y-115944811D02*
X154212841Y-115944811D01*
X154212841Y-115944811D02*
X154212841Y-113284811D01*
D10*
X191835095Y-118967742D02*
X191534188Y-118568424D01*
X181014533Y-118732311D02*
X183410439Y-116926866D01*
X180916122Y-119432537D02*
X181014533Y-118732311D01*
X183722700Y-122326171D02*
X185719289Y-120821634D01*
X189367653Y-115693336D02*
X189006564Y-115214155D01*
X183022475Y-122227761D02*
X183722700Y-122326171D01*
X189006564Y-115214155D02*
X185412705Y-117922322D01*
X184712479Y-117823912D02*
X184110664Y-117025277D01*
X183410439Y-116926866D02*
X184110664Y-117025277D01*
X188241235Y-121675909D02*
X191835095Y-118967742D01*
X187819965Y-121116864D02*
X188241235Y-121675909D01*
X185719288Y-120821633D02*
G75*
G02*
X187819965Y-121116864I902723J-1197954D01*
G01*
X185412704Y-117922323D02*
G75*
G02*
X184712479Y-117823912I-300907J399318D01*
G01*
X172027476Y-129198908D02*
X171641663Y-128880868D01*
X161450926Y-131495992D02*
X163359161Y-129181119D01*
X161518699Y-132199844D02*
X161450926Y-131495992D01*
X164923237Y-134358344D02*
X166513432Y-132429283D01*
X168863815Y-126590987D02*
X168400840Y-126209340D01*
X164219385Y-134426118D02*
X164923237Y-134358344D01*
X168400840Y-126209340D02*
X165538488Y-129681651D01*
X164834637Y-129749424D02*
X164063012Y-129113346D01*
X163359161Y-129181119D02*
X164063012Y-129113346D01*
X169165124Y-132671218D02*
X172027476Y-129198908D01*
X168624986Y-132225963D02*
X169165124Y-132671218D01*
X166513432Y-132429283D02*
G75*
G02*
X168624986Y-132225963I1157437J-954117D01*
G01*
X165538489Y-129681650D02*
G75*
G02*
X164834637Y-129749424I-385813J318039D01*
G01*
X109826353Y-139938155D02*
X110212166Y-139620116D01*
X109589573Y-129117622D02*
X111497808Y-131432495D01*
X108885722Y-129049849D02*
X109589573Y-129117622D01*
X106117263Y-131979974D02*
X107707458Y-133909035D01*
X112990014Y-137330234D02*
X113452989Y-136948587D01*
X106185036Y-131276122D02*
X106117263Y-131979974D01*
X113452989Y-136948587D02*
X110590637Y-133476276D01*
X110658410Y-132772425D02*
X111430035Y-132136347D01*
X111497808Y-131432495D02*
X111430035Y-132136347D01*
X106964001Y-136465844D02*
X109826353Y-139938155D01*
X107504139Y-136020589D02*
X106964001Y-136465844D01*
X107707458Y-133909034D02*
G75*
G02*
X107504139Y-136020589I-1157437J-954118D01*
G01*
X110590637Y-133476276D02*
G75*
G02*
X110658410Y-132772425I385812J318039D01*
G01*
X92294536Y-127393149D02*
X92595444Y-126993831D01*
X89538295Y-116926863D02*
X91934201Y-118732308D01*
X88838070Y-117025274D02*
X89538295Y-116926863D01*
X86830127Y-120520723D02*
X88826716Y-122025261D01*
X94761978Y-124118743D02*
X95123067Y-123639562D01*
X86731717Y-119820498D02*
X86830127Y-120520723D01*
X95123067Y-123639562D02*
X91529207Y-120931394D01*
X91430797Y-120231169D02*
X92032612Y-119432534D01*
X91934201Y-118732308D02*
X92032612Y-119432534D01*
X88700676Y-124684981D02*
X92294536Y-127393149D01*
X89121947Y-124125936D02*
X88700676Y-124684981D01*
X88826716Y-122025261D02*
G75*
G02*
X89121947Y-124125936I-902722J-1197953D01*
G01*
X91529206Y-120931394D02*
G75*
G02*
X91430797Y-120231169I300908J399317D01*
G01*
X235430243Y-77185375D02*
X235242940Y-76721783D01*
X225039316Y-74157399D02*
X227820868Y-73033580D01*
X224763028Y-74808295D02*
X225039316Y-74157399D01*
X226725046Y-78329727D02*
X229043005Y-77393210D01*
X233894356Y-73383921D02*
X233669592Y-72827611D01*
X226074151Y-78053438D02*
X226725046Y-78329727D01*
X233669592Y-72827611D02*
X229497265Y-74513341D01*
X228846370Y-74237052D02*
X228471763Y-73309868D01*
X227820868Y-73033580D02*
X228471763Y-73309868D01*
X231257916Y-78871105D02*
X235430243Y-77185375D01*
X230995691Y-78222076D02*
X231257916Y-78871105D01*
X229043005Y-77393210D02*
G75*
G02*
X230995691Y-78222076I561910J-1390776D01*
G01*
X229497264Y-74513340D02*
G75*
G02*
X228846370Y-74237052I-187303J463591D01*
G01*
X216951742Y-79534878D02*
X216764439Y-79071286D01*
X206560815Y-76506902D02*
X209342367Y-75383083D01*
X206284527Y-77157798D02*
X206560815Y-76506902D01*
X208246545Y-80679230D02*
X210564504Y-79742713D01*
X215415855Y-75733424D02*
X215191091Y-75177114D01*
X207595650Y-80402941D02*
X208246545Y-80679230D01*
X215191091Y-75177114D02*
X211018764Y-76862844D01*
X210367869Y-76586555D02*
X209993262Y-75659371D01*
X209342367Y-75383083D02*
X209993262Y-75659371D01*
X212779415Y-81220608D02*
X216951742Y-79534878D01*
X212517190Y-80571579D02*
X212779415Y-81220608D01*
X210564504Y-79742713D02*
G75*
G02*
X212517190Y-80571579I561910J-1390776D01*
G01*
X211018763Y-76862843D02*
G75*
G02*
X210367869Y-76586555I-187303J463591D01*
G01*
X199362244Y-84043376D02*
X199174941Y-83579784D01*
X188971317Y-81015400D02*
X191752869Y-79891581D01*
X188695029Y-81666296D02*
X188971317Y-81015400D01*
X190657047Y-85187728D02*
X192975006Y-84251211D01*
X197826357Y-80241922D02*
X197601593Y-79685612D01*
X190006152Y-84911439D02*
X190657047Y-85187728D01*
X197601593Y-79685612D02*
X193429266Y-81371342D01*
X192778371Y-81095053D02*
X192403764Y-80167869D01*
X191752869Y-79891581D02*
X192403764Y-80167869D01*
X195189917Y-85729106D02*
X199362244Y-84043376D01*
X194927692Y-85080077D02*
X195189917Y-85729106D01*
X192975006Y-84251211D02*
G75*
G02*
X194927692Y-85080077I561910J-1390776D01*
G01*
X193429265Y-81371341D02*
G75*
G02*
X192778371Y-81095053I-187303J463591D01*
G01*
X183614243Y-92996880D02*
X183426940Y-92533288D01*
X173223316Y-89968904D02*
X176004868Y-88845085D01*
X172947028Y-90619800D02*
X173223316Y-89968904D01*
X174909046Y-94141232D02*
X177227005Y-93204715D01*
X182078356Y-89195426D02*
X181853592Y-88639116D01*
X174258151Y-93864943D02*
X174909046Y-94141232D01*
X181853592Y-88639116D02*
X177681265Y-90324846D01*
X177030370Y-90048557D02*
X176655763Y-89121373D01*
X176004868Y-88845085D02*
X176655763Y-89121373D01*
X179441916Y-94682610D02*
X183614243Y-92996880D01*
X179179691Y-94033581D02*
X179441916Y-94682610D01*
X177227005Y-93204715D02*
G75*
G02*
X179179691Y-94033581I561910J-1390776D01*
G01*
X177681264Y-90324845D02*
G75*
G02*
X177030370Y-90048557I-187303J463591D01*
G01*
X167802744Y-101950375D02*
X167615441Y-101486783D01*
X157411817Y-98922399D02*
X160193369Y-97798580D01*
X157135529Y-99573295D02*
X157411817Y-98922399D01*
X159097547Y-103094727D02*
X161415506Y-102158210D01*
X166266857Y-98148921D02*
X166042093Y-97592611D01*
X158446652Y-102818438D02*
X159097547Y-103094727D01*
X166042093Y-97592611D02*
X161869766Y-99278341D01*
X161218871Y-99002052D02*
X160844264Y-98074868D01*
X160193369Y-97798580D02*
X160844264Y-98074868D01*
X163630417Y-103636105D02*
X167802744Y-101950375D01*
X163368192Y-102987076D02*
X163630417Y-103636105D01*
X161415506Y-102158210D02*
G75*
G02*
X163368192Y-102987076I561910J-1390776D01*
G01*
X161869765Y-99278340D02*
G75*
G02*
X161218871Y-99002052I-187303J463591D01*
G01*
X118190067Y-107194868D02*
X118377370Y-106731276D01*
X112818868Y-97798581D02*
X115600420Y-98922400D01*
X112167973Y-98074869D02*
X112818868Y-97798581D01*
X111133139Y-101970908D02*
X113451098Y-102907424D01*
X119725954Y-103393415D02*
X119950718Y-102837104D01*
X110856850Y-101320013D02*
X111133139Y-101970908D01*
X119950718Y-102837104D02*
X115778391Y-101151375D01*
X115502102Y-100500479D02*
X115876708Y-99573296D01*
X115600420Y-98922400D02*
X115876708Y-99573296D01*
X114017740Y-105509139D02*
X118190067Y-107194868D01*
X114279964Y-104860110D02*
X114017740Y-105509139D01*
X113451098Y-102907424D02*
G75*
G02*
X114279964Y-104860110I-561910J-1390776D01*
G01*
X115778390Y-101151375D02*
G75*
G02*
X115502102Y-100500479I187304J463592D01*
G01*
X102378565Y-98241366D02*
X102565868Y-97777774D01*
X97007366Y-88845079D02*
X99788918Y-89968898D01*
X96356471Y-89121367D02*
X97007366Y-88845079D01*
X95321637Y-93017406D02*
X97639596Y-93953922D01*
X103914452Y-94439913D02*
X104139216Y-93883602D01*
X95045348Y-92366511D02*
X95321637Y-93017406D01*
X104139216Y-93883602D02*
X99966889Y-92197873D01*
X99690600Y-91546977D02*
X100065206Y-90619794D01*
X99788918Y-89968898D02*
X100065206Y-90619794D01*
X98206238Y-96555637D02*
X102378565Y-98241366D01*
X98468462Y-95906608D02*
X98206238Y-96555637D01*
X97639596Y-93953922D02*
G75*
G02*
X98468462Y-95906608I-561910J-1390776D01*
G01*
X99966888Y-92197873D02*
G75*
G02*
X99690600Y-91546977I187304J463592D01*
G01*
X86567065Y-89287867D02*
X86754368Y-88824275D01*
X81195866Y-79891580D02*
X83977418Y-81015399D01*
X80544971Y-80167868D02*
X81195866Y-79891580D01*
X79510137Y-84063907D02*
X81828096Y-85000423D01*
X88102952Y-85486414D02*
X88327716Y-84930103D01*
X79233848Y-83413012D02*
X79510137Y-84063907D01*
X88327716Y-84930103D02*
X84155389Y-83244374D01*
X83879100Y-82593478D02*
X84253706Y-81666295D01*
X83977418Y-81015399D02*
X84253706Y-81666295D01*
X82394738Y-87602138D02*
X86567065Y-89287867D01*
X82656962Y-86953109D02*
X82394738Y-87602138D01*
X81828096Y-85000423D02*
G75*
G02*
X82656962Y-86953109I-561910J-1390776D01*
G01*
X84155388Y-83244374D02*
G75*
G02*
X83879100Y-82593478I187304J463592D01*
G01*
X68977568Y-84779370D02*
X69164871Y-84315778D01*
X63606369Y-75383083D02*
X66387921Y-76506902D01*
X62955474Y-75659371D02*
X63606369Y-75383083D01*
X61920640Y-79555410D02*
X64238599Y-80491926D01*
X70513455Y-80977917D02*
X70738219Y-80421606D01*
X61644351Y-78904515D02*
X61920640Y-79555410D01*
X70738219Y-80421606D02*
X66565892Y-78735877D01*
X66289603Y-78084981D02*
X66664209Y-77157798D01*
X66387921Y-76506902D02*
X66664209Y-77157798D01*
X64805241Y-83093641D02*
X68977568Y-84779370D01*
X65067465Y-82444612D02*
X64805241Y-83093641D01*
X64238599Y-80491926D02*
G75*
G02*
X65067465Y-82444612I-561910J-1390776D01*
G01*
X66565891Y-78735877D02*
G75*
G02*
X66289603Y-78084981I187304J463592D01*
G01*
X50499061Y-82429873D02*
X50686364Y-81966281D01*
X45127862Y-73033586D02*
X47909414Y-74157405D01*
X44476967Y-73309874D02*
X45127862Y-73033586D01*
X43442133Y-77205913D02*
X45760092Y-78142429D01*
X52034948Y-78628420D02*
X52259712Y-78072109D01*
X43165844Y-76555018D02*
X43442133Y-77205913D01*
X52259712Y-78072109D02*
X48087385Y-76386380D01*
X47811096Y-75735484D02*
X48185702Y-74808301D01*
X47909414Y-74157405D02*
X48185702Y-74808301D01*
X46326734Y-80744144D02*
X50499061Y-82429873D01*
X46588958Y-80095115D02*
X46326734Y-80744144D01*
X45760092Y-78142429D02*
G75*
G02*
X46588958Y-80095115I-561910J-1390776D01*
G01*
X48087384Y-76386380D02*
G75*
G02*
X47811096Y-75735484I187304J463592D01*
G01*
X229080245Y-61437374D02*
X228892942Y-60973782D01*
X218689318Y-58409398D02*
X221470870Y-57285579D01*
X218413030Y-59060294D02*
X218689318Y-58409398D01*
X220375048Y-62581726D02*
X222693007Y-61645209D01*
X227544358Y-57635920D02*
X227319594Y-57079610D01*
X219724153Y-62305437D02*
X220375048Y-62581726D01*
X227319594Y-57079610D02*
X223147267Y-58765340D01*
X222496372Y-58489051D02*
X222121765Y-57561867D01*
X221470870Y-57285579D02*
X222121765Y-57561867D01*
X224907918Y-63123104D02*
X229080245Y-61437374D01*
X224645693Y-62474075D02*
X224907918Y-63123104D01*
X222693007Y-61645209D02*
G75*
G02*
X224645693Y-62474075I561910J-1390776D01*
G01*
X223147266Y-58765339D02*
G75*
G02*
X222496372Y-58489051I-187303J463591D01*
G01*
X193012244Y-68295377D02*
X192824941Y-67831785D01*
X182621317Y-65267401D02*
X185402869Y-64143582D01*
X182345029Y-65918297D02*
X182621317Y-65267401D01*
X184307047Y-69439729D02*
X186625006Y-68503212D01*
X191476357Y-64493923D02*
X191251593Y-63937613D01*
X183656152Y-69163440D02*
X184307047Y-69439729D01*
X191251593Y-63937613D02*
X187079266Y-65623343D01*
X186428371Y-65347054D02*
X186053764Y-64419870D01*
X185402869Y-64143582D02*
X186053764Y-64419870D01*
X188839917Y-69981107D02*
X193012244Y-68295377D01*
X188577692Y-69332078D02*
X188839917Y-69981107D01*
X186625006Y-68503212D02*
G75*
G02*
X188577692Y-69332078I561910J-1390776D01*
G01*
X187079265Y-65623342D02*
G75*
G02*
X186428371Y-65347054I-187303J463591D01*
G01*
X177264244Y-77248879D02*
X177076941Y-76785287D01*
X166873317Y-74220903D02*
X169654869Y-73097084D01*
X166597029Y-74871799D02*
X166873317Y-74220903D01*
X168559047Y-78393231D02*
X170877006Y-77456714D01*
X175728357Y-73447425D02*
X175503593Y-72891115D01*
X167908152Y-78116942D02*
X168559047Y-78393231D01*
X175503593Y-72891115D02*
X171331266Y-74576845D01*
X170680371Y-74300556D02*
X170305764Y-73373372D01*
X169654869Y-73097084D02*
X170305764Y-73373372D01*
X173091917Y-78934609D02*
X177264244Y-77248879D01*
X172829692Y-78285580D02*
X173091917Y-78934609D01*
X170877006Y-77456714D02*
G75*
G02*
X172829692Y-78285580I561910J-1390776D01*
G01*
X171331265Y-74576844D02*
G75*
G02*
X170680371Y-74300556I-187303J463591D01*
G01*
X161389240Y-86138879D02*
X161201937Y-85675287D01*
X150998313Y-83110903D02*
X153779865Y-81987084D01*
X150722025Y-83761799D02*
X150998313Y-83110903D01*
X152684043Y-87283231D02*
X155002002Y-86346714D01*
X159853353Y-82337425D02*
X159628589Y-81781115D01*
X152033148Y-87006942D02*
X152684043Y-87283231D01*
X159628589Y-81781115D02*
X155456262Y-83466845D01*
X154805367Y-83190556D02*
X154430760Y-82263372D01*
X153779865Y-81987084D02*
X154430760Y-82263372D01*
X157216913Y-87824609D02*
X161389240Y-86138879D01*
X156954688Y-87175580D02*
X157216913Y-87824609D01*
X155002002Y-86346714D02*
G75*
G02*
X156954688Y-87175580I561910J-1390776D01*
G01*
X155456261Y-83466844D02*
G75*
G02*
X154805367Y-83190556I-187303J463591D01*
G01*
X124540064Y-91446872D02*
X124727367Y-90983280D01*
X119168865Y-82050585D02*
X121950417Y-83174404D01*
X118517970Y-82326873D02*
X119168865Y-82050585D01*
X117483136Y-86222912D02*
X119801095Y-87159428D01*
X126075951Y-87645419D02*
X126300715Y-87089108D01*
X117206847Y-85572017D02*
X117483136Y-86222912D01*
X126300715Y-87089108D02*
X122128388Y-85403379D01*
X121852099Y-84752483D02*
X122226705Y-83825300D01*
X121950417Y-83174404D02*
X122226705Y-83825300D01*
X120367737Y-89761143D02*
X124540064Y-91446872D01*
X120629961Y-89112114D02*
X120367737Y-89761143D01*
X119801095Y-87159428D02*
G75*
G02*
X120629961Y-89112114I-561910J-1390776D01*
G01*
X122128387Y-85403379D02*
G75*
G02*
X121852099Y-84752483I187304J463592D01*
G01*
X108728563Y-82493370D02*
X108915866Y-82029778D01*
X103357364Y-73097083D02*
X106138916Y-74220902D01*
X102706469Y-73373371D02*
X103357364Y-73097083D01*
X101671635Y-77269410D02*
X103989594Y-78205926D01*
X110264450Y-78691917D02*
X110489214Y-78135606D01*
X101395346Y-76618515D02*
X101671635Y-77269410D01*
X110489214Y-78135606D02*
X106316887Y-76449877D01*
X106040598Y-75798981D02*
X106415204Y-74871798D01*
X106138916Y-74220902D02*
X106415204Y-74871798D01*
X104556236Y-80807641D02*
X108728563Y-82493370D01*
X104818460Y-80158612D02*
X104556236Y-80807641D01*
X103989594Y-78205926D02*
G75*
G02*
X104818460Y-80158612I-561910J-1390776D01*
G01*
X106316886Y-76449877D02*
G75*
G02*
X106040598Y-75798981I187304J463592D01*
G01*
X92980564Y-73539867D02*
X93167867Y-73076275D01*
X87609365Y-64143580D02*
X90390917Y-65267399D01*
X86958470Y-64419868D02*
X87609365Y-64143580D01*
X85923636Y-68315907D02*
X88241595Y-69252423D01*
X94516451Y-69738414D02*
X94741215Y-69182103D01*
X85647347Y-67665012D02*
X85923636Y-68315907D01*
X94741215Y-69182103D02*
X90568888Y-67496374D01*
X90292599Y-66845478D02*
X90667205Y-65918295D01*
X90390917Y-65267399D02*
X90667205Y-65918295D01*
X88808237Y-71854138D02*
X92980564Y-73539867D01*
X89070461Y-71205109D02*
X88808237Y-71854138D01*
X88241595Y-69252423D02*
G75*
G02*
X89070461Y-71205109I-561910J-1390776D01*
G01*
X90568887Y-67496374D02*
G75*
G02*
X90292599Y-66845478I187304J463592D01*
G01*
X75391064Y-68967867D02*
X75578367Y-68504275D01*
X70019865Y-59571580D02*
X72801417Y-60695399D01*
X69368970Y-59847868D02*
X70019865Y-59571580D01*
X68334136Y-63743907D02*
X70652095Y-64680423D01*
X76926951Y-65166414D02*
X77151715Y-64610103D01*
X68057847Y-63093012D02*
X68334136Y-63743907D01*
X77151715Y-64610103D02*
X72979388Y-62924374D01*
X72703099Y-62273478D02*
X73077705Y-61346295D01*
X72801417Y-60695399D02*
X73077705Y-61346295D01*
X71218737Y-67282138D02*
X75391064Y-68967867D01*
X71480961Y-66633109D02*
X71218737Y-67282138D01*
X70652095Y-64680423D02*
G75*
G02*
X71480961Y-66633109I-561910J-1390776D01*
G01*
X72979387Y-62924374D02*
G75*
G02*
X72703099Y-62273478I187304J463592D01*
G01*
X56912562Y-66681869D02*
X57099865Y-66218277D01*
X51541363Y-57285582D02*
X54322915Y-58409401D01*
X50890468Y-57561870D02*
X51541363Y-57285582D01*
X49855634Y-61457909D02*
X52173593Y-62394425D01*
X58448449Y-62880416D02*
X58673213Y-62324105D01*
X49579345Y-60807014D02*
X49855634Y-61457909D01*
X58673213Y-62324105D02*
X54500886Y-60638376D01*
X54224597Y-59987480D02*
X54599203Y-59060297D01*
X54322915Y-58409401D02*
X54599203Y-59060297D01*
X52740235Y-64996140D02*
X56912562Y-66681869D01*
X53002459Y-64347111D02*
X52740235Y-64996140D01*
X52173593Y-62394425D02*
G75*
G02*
X53002459Y-64347111I-561910J-1390776D01*
G01*
X54500885Y-60638376D02*
G75*
G02*
X54224597Y-59987480I187304J463592D01*
G01*
X222730242Y-45625874D02*
X222542939Y-45162282D01*
X212339315Y-42597898D02*
X215120867Y-41474079D01*
X212063027Y-43248794D02*
X212339315Y-42597898D01*
X214025045Y-46770226D02*
X216343004Y-45833709D01*
X221194355Y-41824420D02*
X220969591Y-41268110D01*
X213374150Y-46493937D02*
X214025045Y-46770226D01*
X220969591Y-41268110D02*
X216797264Y-42953840D01*
X216146369Y-42677551D02*
X215771762Y-41750367D01*
X215120867Y-41474079D02*
X215771762Y-41750367D01*
X218557915Y-47311604D02*
X222730242Y-45625874D01*
X218295690Y-46662575D02*
X218557915Y-47311604D01*
X216343004Y-45833709D02*
G75*
G02*
X218295690Y-46662575I561910J-1390776D01*
G01*
X216797263Y-42953839D02*
G75*
G02*
X216146369Y-42677551I-187303J463591D01*
G01*
X204251747Y-47975376D02*
X204064444Y-47511784D01*
X193860820Y-44947400D02*
X196642372Y-43823581D01*
X193584532Y-45598296D02*
X193860820Y-44947400D01*
X195546550Y-49119728D02*
X197864509Y-48183211D01*
X202715860Y-44173922D02*
X202491096Y-43617612D01*
X194895655Y-48843439D02*
X195546550Y-49119728D01*
X202491096Y-43617612D02*
X198318769Y-45303342D01*
X197667874Y-45027053D02*
X197293267Y-44099869D01*
X196642372Y-43823581D02*
X197293267Y-44099869D01*
X200079420Y-49661106D02*
X204251747Y-47975376D01*
X199817195Y-49012077D02*
X200079420Y-49661106D01*
X197864509Y-48183211D02*
G75*
G02*
X199817195Y-49012077I561910J-1390776D01*
G01*
X198318768Y-45303341D02*
G75*
G02*
X197667874Y-45027053I-187303J463591D01*
G01*
X186662243Y-52483877D02*
X186474940Y-52020285D01*
X176271316Y-49455901D02*
X179052868Y-48332082D01*
X175995028Y-50106797D02*
X176271316Y-49455901D01*
X177957046Y-53628229D02*
X180275005Y-52691712D01*
X185126356Y-48682423D02*
X184901592Y-48126113D01*
X177306151Y-53351940D02*
X177957046Y-53628229D01*
X184901592Y-48126113D02*
X180729265Y-49811843D01*
X180078370Y-49535554D02*
X179703763Y-48608370D01*
X179052868Y-48332082D02*
X179703763Y-48608370D01*
X182489916Y-54169607D02*
X186662243Y-52483877D01*
X182227691Y-53520578D02*
X182489916Y-54169607D01*
X180275005Y-52691712D02*
G75*
G02*
X182227691Y-53520578I561910J-1390776D01*
G01*
X180729264Y-49811842D02*
G75*
G02*
X180078370Y-49535554I-187303J463591D01*
G01*
X170914243Y-61437378D02*
X170726940Y-60973786D01*
X160523316Y-58409402D02*
X163304868Y-57285583D01*
X160247028Y-59060298D02*
X160523316Y-58409402D01*
X162209046Y-62581730D02*
X164527005Y-61645213D01*
X169378356Y-57635924D02*
X169153592Y-57079614D01*
X161558151Y-62305441D02*
X162209046Y-62581730D01*
X169153592Y-57079614D02*
X164981265Y-58765344D01*
X164330370Y-58489055D02*
X163955763Y-57561871D01*
X163304868Y-57285583D02*
X163955763Y-57561871D01*
X166741916Y-63123108D02*
X170914243Y-61437378D01*
X166479691Y-62474079D02*
X166741916Y-63123108D01*
X164527005Y-61645213D02*
G75*
G02*
X166479691Y-62474079I561910J-1390776D01*
G01*
X164981264Y-58765343D02*
G75*
G02*
X164330370Y-58489055I-187303J463591D01*
G01*
X155039246Y-70390877D02*
X154851943Y-69927285D01*
X144648319Y-67362901D02*
X147429871Y-66239082D01*
X144372031Y-68013797D02*
X144648319Y-67362901D01*
X146334049Y-71535229D02*
X148652008Y-70598712D01*
X153503359Y-66589423D02*
X153278595Y-66033113D01*
X145683154Y-71258940D02*
X146334049Y-71535229D01*
X153278595Y-66033113D02*
X149106268Y-67718843D01*
X148455373Y-67442554D02*
X148080766Y-66515370D01*
X147429871Y-66239082D02*
X148080766Y-66515370D01*
X150866919Y-72076607D02*
X155039246Y-70390877D01*
X150604694Y-71427578D02*
X150866919Y-72076607D01*
X148652008Y-70598712D02*
G75*
G02*
X150604694Y-71427578I561910J-1390776D01*
G01*
X149106267Y-67718842D02*
G75*
G02*
X148455373Y-67442554I-187303J463591D01*
G01*
X130890064Y-75635369D02*
X131077367Y-75171777D01*
X125518865Y-66239082D02*
X128300417Y-67362901D01*
X124867970Y-66515370D02*
X125518865Y-66239082D01*
X123833136Y-70411409D02*
X126151095Y-71347925D01*
X132425951Y-71833916D02*
X132650715Y-71277605D01*
X123556847Y-69760514D02*
X123833136Y-70411409D01*
X132650715Y-71277605D02*
X128478388Y-69591876D01*
X128202099Y-68940980D02*
X128576705Y-68013797D01*
X128300417Y-67362901D02*
X128576705Y-68013797D01*
X126717737Y-73949640D02*
X130890064Y-75635369D01*
X126979961Y-73300611D02*
X126717737Y-73949640D01*
X126151095Y-71347925D02*
G75*
G02*
X126979961Y-73300611I-561910J-1390776D01*
G01*
X128478387Y-69591876D02*
G75*
G02*
X128202099Y-68940980I187304J463592D01*
G01*
X115142063Y-66681868D02*
X115329366Y-66218276D01*
X109770864Y-57285581D02*
X112552416Y-58409400D01*
X109119969Y-57561869D02*
X109770864Y-57285581D01*
X108085135Y-61457908D02*
X110403094Y-62394424D01*
X116677950Y-62880415D02*
X116902714Y-62324104D01*
X107808846Y-60807013D02*
X108085135Y-61457908D01*
X116902714Y-62324104D02*
X112730387Y-60638375D01*
X112454098Y-59987479D02*
X112828704Y-59060296D01*
X112552416Y-58409400D02*
X112828704Y-59060296D01*
X110969736Y-64996139D02*
X115142063Y-66681868D01*
X111231960Y-64347110D02*
X110969736Y-64996139D01*
X110403094Y-62394424D02*
G75*
G02*
X111231960Y-64347110I-561910J-1390776D01*
G01*
X112730386Y-60638375D02*
G75*
G02*
X112454098Y-59987479I187304J463592D01*
G01*
X99330564Y-57791868D02*
X99517867Y-57328276D01*
X93959365Y-48395581D02*
X96740917Y-49519400D01*
X93308470Y-48671869D02*
X93959365Y-48395581D01*
X92273636Y-52567908D02*
X94591595Y-53504424D01*
X100866451Y-53990415D02*
X101091215Y-53434104D01*
X91997347Y-51917013D02*
X92273636Y-52567908D01*
X101091215Y-53434104D02*
X96918888Y-51748375D01*
X96642599Y-51097479D02*
X97017205Y-50170296D01*
X96740917Y-49519400D02*
X97017205Y-50170296D01*
X95158237Y-56106139D02*
X99330564Y-57791868D01*
X95420461Y-55457110D02*
X95158237Y-56106139D01*
X94591595Y-53504424D02*
G75*
G02*
X95420461Y-55457110I-561910J-1390776D01*
G01*
X96918887Y-51748375D02*
G75*
G02*
X96642599Y-51097479I187304J463592D01*
G01*
X81741062Y-53219868D02*
X81928365Y-52756276D01*
X76369863Y-43823581D02*
X79151415Y-44947400D01*
X75718968Y-44099869D02*
X76369863Y-43823581D01*
X74684134Y-47995908D02*
X77002093Y-48932424D01*
X83276949Y-49418415D02*
X83501713Y-48862104D01*
X74407845Y-47345013D02*
X74684134Y-47995908D01*
X83501713Y-48862104D02*
X79329386Y-47176375D01*
X79053097Y-46525479D02*
X79427703Y-45598296D01*
X79151415Y-44947400D02*
X79427703Y-45598296D01*
X77568735Y-51534139D02*
X81741062Y-53219868D01*
X77830959Y-50885110D02*
X77568735Y-51534139D01*
X77002093Y-48932424D02*
G75*
G02*
X77830959Y-50885110I-561910J-1390776D01*
G01*
X79329385Y-47176375D02*
G75*
G02*
X79053097Y-46525479I187304J463592D01*
G01*
X63262564Y-50933867D02*
X63449867Y-50470275D01*
X57891365Y-41537580D02*
X60672917Y-42661399D01*
X57240470Y-41813868D02*
X57891365Y-41537580D01*
X56205636Y-45709907D02*
X58523595Y-46646423D01*
X64798451Y-47132414D02*
X65023215Y-46576103D01*
X55929347Y-45059012D02*
X56205636Y-45709907D01*
X65023215Y-46576103D02*
X60850888Y-44890374D01*
X60574599Y-44239478D02*
X60949205Y-43312295D01*
X60672917Y-42661399D02*
X60949205Y-43312295D01*
X59090237Y-49248138D02*
X63262564Y-50933867D01*
X59352461Y-48599109D02*
X59090237Y-49248138D01*
X58523595Y-46646423D02*
G75*
G02*
X59352461Y-48599109I-561910J-1390776D01*
G01*
X60850887Y-44890374D02*
G75*
G02*
X60574599Y-44239478I187304J463592D01*
G01*
D11*
X146840866Y-121068896D02*
X149700866Y-121068896D01*
X149700866Y-121068896D02*
X149700866Y-122988896D01*
X149700866Y-122988896D02*
X146840866Y-122988896D01*
X189204992Y-114451773D02*
X187483801Y-112167675D01*
X187483801Y-112167675D02*
X189017181Y-111012191D01*
X189017181Y-111012191D02*
X190738372Y-113296288D01*
X168004356Y-125056734D02*
X165797510Y-123237550D01*
X165797510Y-123237550D02*
X167018780Y-121756031D01*
X167018780Y-121756031D02*
X169225627Y-123575215D01*
X114391110Y-136973722D02*
X116597957Y-135154538D01*
X116597957Y-135154538D02*
X117819227Y-136636057D01*
X117819227Y-136636057D02*
X115612381Y-138455241D01*
X99137105Y-124159403D02*
X101421202Y-125880594D01*
X101421202Y-125880594D02*
X100265718Y-127413974D01*
X100265718Y-127413974D02*
X97981620Y-125692783D01*
X240113856Y-81943595D02*
X241185231Y-84595341D01*
X241185231Y-84595341D02*
X239405038Y-85314585D01*
X239405038Y-85314585D02*
X238333663Y-82662839D01*
X221635356Y-84293092D02*
X222706731Y-86944838D01*
X222706731Y-86944838D02*
X220926538Y-87664082D01*
X220926538Y-87664082D02*
X219855163Y-85012336D01*
X204045856Y-88801593D02*
X205117231Y-91453339D01*
X205117231Y-91453339D02*
X203337038Y-92172583D01*
X203337038Y-92172583D02*
X202265663Y-89520837D01*
X188297859Y-97755094D02*
X189369234Y-100406840D01*
X189369234Y-100406840D02*
X187589041Y-101126084D01*
X187589041Y-101126084D02*
X186517666Y-98474338D01*
X172486357Y-106708588D02*
X173557732Y-109360334D01*
X173557732Y-109360334D02*
X171777539Y-110079578D01*
X171777539Y-110079578D02*
X170706164Y-107427832D01*
X118308071Y-113841335D02*
X117236696Y-116493081D01*
X117236696Y-116493081D02*
X115456503Y-115773837D01*
X115456503Y-115773837D02*
X116527878Y-113122091D01*
X102433072Y-104951343D02*
X101361697Y-107603089D01*
X101361697Y-107603089D02*
X99581504Y-106883845D01*
X99581504Y-106883845D02*
X100652879Y-104232099D01*
X86621570Y-95997838D02*
X85550195Y-98649584D01*
X85550195Y-98649584D02*
X83770002Y-97930340D01*
X83770002Y-97930340D02*
X84841377Y-95278594D01*
X69032071Y-91489335D02*
X67960696Y-94141081D01*
X67960696Y-94141081D02*
X66180503Y-93421837D01*
X66180503Y-93421837D02*
X67251878Y-90770091D01*
X50553571Y-89139838D02*
X49482196Y-91791584D01*
X49482196Y-91791584D02*
X47702003Y-91072340D01*
X47702003Y-91072340D02*
X48773378Y-88420594D01*
X233763857Y-66195593D02*
X234835232Y-68847339D01*
X234835232Y-68847339D02*
X233055039Y-69566583D01*
X233055039Y-69566583D02*
X231983664Y-66914837D01*
X215285359Y-68481599D02*
X216356734Y-71133345D01*
X216356734Y-71133345D02*
X214576541Y-71852589D01*
X214576541Y-71852589D02*
X213505166Y-69200843D01*
X197695858Y-73053593D02*
X198767233Y-75705339D01*
X198767233Y-75705339D02*
X196987040Y-76424583D01*
X196987040Y-76424583D02*
X195915665Y-73772837D01*
X181947857Y-82007094D02*
X183019232Y-84658840D01*
X183019232Y-84658840D02*
X181239039Y-85378084D01*
X181239039Y-85378084D02*
X180167664Y-82726338D01*
X166072856Y-90897095D02*
X167144231Y-93548841D01*
X167144231Y-93548841D02*
X165364038Y-94268085D01*
X165364038Y-94268085D02*
X164292663Y-91616339D01*
X124594569Y-98156838D02*
X123523194Y-100808584D01*
X123523194Y-100808584D02*
X121743001Y-100089340D01*
X121743001Y-100089340D02*
X122814376Y-97437594D01*
X108783066Y-89203337D02*
X107711691Y-91855083D01*
X107711691Y-91855083D02*
X105931498Y-91135839D01*
X105931498Y-91135839D02*
X107002873Y-88484093D01*
X93032098Y-80247700D02*
X91960723Y-82899446D01*
X91960723Y-82899446D02*
X90180530Y-82180202D01*
X90180530Y-82180202D02*
X91251905Y-79528456D01*
X75442596Y-75612202D02*
X74371221Y-78263948D01*
X74371221Y-78263948D02*
X72591028Y-77544704D01*
X72591028Y-77544704D02*
X73662403Y-74892958D01*
X56967070Y-73328334D02*
X55895695Y-75980080D01*
X55895695Y-75980080D02*
X54115502Y-75260836D01*
X54115502Y-75260836D02*
X55186877Y-72609090D01*
X227413861Y-50384091D02*
X228485236Y-53035837D01*
X228485236Y-53035837D02*
X226705043Y-53755081D01*
X226705043Y-53755081D02*
X225633668Y-51103335D01*
X208935356Y-52733592D02*
X210006731Y-55385338D01*
X210006731Y-55385338D02*
X208226538Y-56104582D01*
X208226538Y-56104582D02*
X207155163Y-53452836D01*
X191345858Y-57242094D02*
X192417233Y-59893840D01*
X192417233Y-59893840D02*
X190637040Y-60613084D01*
X190637040Y-60613084D02*
X189565665Y-57961338D01*
X175597853Y-66195591D02*
X176669228Y-68847337D01*
X176669228Y-68847337D02*
X174889035Y-69566581D01*
X174889035Y-69566581D02*
X173817660Y-66914835D01*
X159722859Y-75149092D02*
X160794234Y-77800838D01*
X160794234Y-77800838D02*
X159014041Y-78520082D01*
X159014041Y-78520082D02*
X157942666Y-75868336D01*
X130944569Y-82345338D02*
X129873194Y-84997084D01*
X129873194Y-84997084D02*
X128093001Y-84277840D01*
X128093001Y-84277840D02*
X129164376Y-81626094D01*
X115196567Y-73391836D02*
X114125192Y-76043582D01*
X114125192Y-76043582D02*
X112344999Y-75324338D01*
X112344999Y-75324338D02*
X113416374Y-72672592D01*
X99385070Y-64438338D02*
X98313695Y-67090084D01*
X98313695Y-67090084D02*
X96533502Y-66370840D01*
X96533502Y-66370840D02*
X97604877Y-63719094D01*
X81859071Y-59929838D02*
X80787696Y-62581584D01*
X80787696Y-62581584D02*
X79007503Y-61862340D01*
X79007503Y-61862340D02*
X80078878Y-59210594D01*
X63380570Y-57643836D02*
X62309195Y-60295582D01*
X62309195Y-60295582D02*
X60529002Y-59576338D01*
X60529002Y-59576338D02*
X61600377Y-56924592D01*
D10*
X207769585Y-58703560D02*
X207654969Y-58801226D01*
X207434211Y-58890419D01*
X207328069Y-58881944D01*
X207266079Y-58855631D01*
X207186251Y-58785166D01*
X207150574Y-58696863D01*
X207159049Y-58590721D01*
X207185362Y-58528731D01*
X207255827Y-58448902D01*
X207414595Y-58333397D01*
X207485060Y-58253569D01*
X207511373Y-58191579D01*
X207519848Y-58085437D01*
X207484171Y-57997134D01*
X207404342Y-57926669D01*
X207342352Y-57900356D01*
X207236211Y-57891881D01*
X207015453Y-57981073D01*
X206900836Y-58078740D01*
X206573936Y-58159457D02*
X206727785Y-59175833D01*
X206283602Y-58584913D01*
X206374572Y-59318540D01*
X205779207Y-58480549D01*
X205314933Y-59746662D02*
X205844753Y-59532601D01*
X205579843Y-59639632D02*
X205205236Y-58712448D01*
X205347055Y-58809226D01*
X205471035Y-58861852D01*
X205577177Y-58870327D01*
X204873417Y-59925046D02*
X204696811Y-59996400D01*
X204590669Y-59987925D01*
X204528679Y-59961612D01*
X204386861Y-59864834D01*
X204271355Y-59706066D01*
X204128648Y-59352853D01*
X204137123Y-59246711D01*
X204163436Y-59184721D01*
X204233901Y-59104893D01*
X204410507Y-59033539D01*
X204516649Y-59042014D01*
X204578639Y-59068327D01*
X204658468Y-59138792D01*
X204747660Y-59359550D01*
X204739185Y-59465692D01*
X204712872Y-59527682D01*
X204642407Y-59607510D01*
X204465800Y-59678864D01*
X204359659Y-59670389D01*
X204297669Y-59644076D01*
X204217840Y-59573611D01*
X153876174Y-116263477D02*
X153642841Y-116963477D01*
X153409507Y-116263477D01*
X152776174Y-116896811D02*
X152809507Y-116930144D01*
X152909507Y-116963477D01*
X152976174Y-116963477D01*
X153076174Y-116930144D01*
X153142841Y-116863477D01*
X153176174Y-116796811D01*
X153209507Y-116663477D01*
X153209507Y-116563477D01*
X153176174Y-116430144D01*
X153142841Y-116363477D01*
X153076174Y-116296811D01*
X152976174Y-116263477D01*
X152909507Y-116263477D01*
X152809507Y-116296811D01*
X152776174Y-116330144D01*
X152076174Y-116896811D02*
X152109507Y-116930144D01*
X152209507Y-116963477D01*
X152276174Y-116963477D01*
X152376174Y-116930144D01*
X152442841Y-116863477D01*
X152476174Y-116796811D01*
X152509507Y-116663477D01*
X152509507Y-116563477D01*
X152476174Y-116430144D01*
X152442841Y-116363477D01*
X152376174Y-116296811D01*
X152276174Y-116263477D01*
X152209507Y-116263477D01*
X152109507Y-116296811D01*
X152076174Y-116330144D01*
X143316174Y-116296811D02*
X143382841Y-116263477D01*
X143482841Y-116263477D01*
X143582841Y-116296811D01*
X143649507Y-116363477D01*
X143682841Y-116430144D01*
X143716174Y-116563477D01*
X143716174Y-116663477D01*
X143682841Y-116796811D01*
X143649507Y-116863477D01*
X143582841Y-116930144D01*
X143482841Y-116963477D01*
X143416174Y-116963477D01*
X143316174Y-116930144D01*
X143282841Y-116896811D01*
X143282841Y-116663477D01*
X143416174Y-116663477D01*
X142982841Y-116963477D02*
X142982841Y-116263477D01*
X142582841Y-116963477D01*
X142582841Y-116263477D01*
X142249507Y-116963477D02*
X142249507Y-116263477D01*
X142082841Y-116263477D01*
X141982841Y-116296811D01*
X141916174Y-116363477D01*
X141882841Y-116430144D01*
X141849507Y-116563477D01*
X141849507Y-116663477D01*
X141882841Y-116796811D01*
X141916174Y-116863477D01*
X141982841Y-116930144D01*
X142082841Y-116963477D01*
X142249507Y-116963477D01*
X145706174Y-116963477D02*
X145939507Y-116630144D01*
X146106174Y-116963477D02*
X146106174Y-116263477D01*
X145839507Y-116263477D01*
X145772841Y-116296811D01*
X145739507Y-116330144D01*
X145706174Y-116396811D01*
X145706174Y-116496811D01*
X145739507Y-116563477D01*
X145772841Y-116596811D01*
X145839507Y-116630144D01*
X146106174Y-116630144D01*
X145439507Y-116930144D02*
X145339507Y-116963477D01*
X145172841Y-116963477D01*
X145106174Y-116930144D01*
X145072841Y-116896811D01*
X145039507Y-116830144D01*
X145039507Y-116763477D01*
X145072841Y-116696811D01*
X145106174Y-116663477D01*
X145172841Y-116630144D01*
X145306174Y-116596811D01*
X145372841Y-116563477D01*
X145406174Y-116530144D01*
X145439507Y-116463477D01*
X145439507Y-116396811D01*
X145406174Y-116330144D01*
X145372841Y-116296811D01*
X145306174Y-116263477D01*
X145139507Y-116263477D01*
X145039507Y-116296811D01*
X144839507Y-116263477D02*
X144439507Y-116263477D01*
X144639507Y-116963477D02*
X144639507Y-116263477D01*
X156582841Y-116963477D02*
X156582841Y-116263477D01*
X156349507Y-116763477D01*
X156116174Y-116263477D01*
X156116174Y-116963477D01*
X155782841Y-116963477D02*
X155782841Y-116263477D01*
X155482841Y-116930144D02*
X155382841Y-116963477D01*
X155216174Y-116963477D01*
X155149507Y-116930144D01*
X155116174Y-116896811D01*
X155082841Y-116830144D01*
X155082841Y-116763477D01*
X155116174Y-116696811D01*
X155149507Y-116663477D01*
X155216174Y-116630144D01*
X155349507Y-116596811D01*
X155416174Y-116563477D01*
X155449507Y-116530144D01*
X155482841Y-116463477D01*
X155482841Y-116396811D01*
X155449507Y-116330144D01*
X155416174Y-116296811D01*
X155349507Y-116263477D01*
X155182841Y-116263477D01*
X155082841Y-116296811D01*
X154649507Y-116263477D02*
X154516174Y-116263477D01*
X154449507Y-116296811D01*
X154382841Y-116363477D01*
X154349507Y-116496811D01*
X154349507Y-116730144D01*
X154382841Y-116863477D01*
X154449507Y-116930144D01*
X154516174Y-116963477D01*
X154649507Y-116963477D01*
X154716174Y-116930144D01*
X154782841Y-116863477D01*
X154816174Y-116730144D01*
X154816174Y-116496811D01*
X154782841Y-116363477D01*
X154716174Y-116296811D01*
X154649507Y-116263477D01*
X151302841Y-116930144D02*
X151202841Y-116963477D01*
X151036174Y-116963477D01*
X150969507Y-116930144D01*
X150936174Y-116896811D01*
X150902841Y-116830144D01*
X150902841Y-116763477D01*
X150936174Y-116696811D01*
X150969507Y-116663477D01*
X151036174Y-116630144D01*
X151169507Y-116596811D01*
X151236174Y-116563477D01*
X151269507Y-116530144D01*
X151302841Y-116463477D01*
X151302841Y-116396811D01*
X151269507Y-116330144D01*
X151236174Y-116296811D01*
X151169507Y-116263477D01*
X151002841Y-116263477D01*
X150902841Y-116296811D01*
X150202841Y-116896811D02*
X150236174Y-116930144D01*
X150336174Y-116963477D01*
X150402841Y-116963477D01*
X150502841Y-116930144D01*
X150569507Y-116863477D01*
X150602841Y-116796811D01*
X150636174Y-116663477D01*
X150636174Y-116563477D01*
X150602841Y-116430144D01*
X150569507Y-116363477D01*
X150502841Y-116296811D01*
X150402841Y-116263477D01*
X150336174Y-116263477D01*
X150236174Y-116296811D01*
X150202841Y-116330144D01*
X149902841Y-116963477D02*
X149902841Y-116263477D01*
X149502841Y-116963477D02*
X149802841Y-116563477D01*
X149502841Y-116263477D02*
X149902841Y-116663477D01*
X148962841Y-116963477D02*
X148962841Y-116263477D01*
X148729507Y-116763477D01*
X148496174Y-116263477D01*
X148496174Y-116963477D01*
X148029507Y-116263477D02*
X147896174Y-116263477D01*
X147829507Y-116296811D01*
X147762841Y-116363477D01*
X147729507Y-116496811D01*
X147729507Y-116730144D01*
X147762841Y-116863477D01*
X147829507Y-116930144D01*
X147896174Y-116963477D01*
X148029507Y-116963477D01*
X148096174Y-116930144D01*
X148162841Y-116863477D01*
X148196174Y-116730144D01*
X148196174Y-116496811D01*
X148162841Y-116363477D01*
X148096174Y-116296811D01*
X148029507Y-116263477D01*
X147462841Y-116930144D02*
X147362841Y-116963477D01*
X147196174Y-116963477D01*
X147129507Y-116930144D01*
X147096174Y-116896811D01*
X147062841Y-116830144D01*
X147062841Y-116763477D01*
X147096174Y-116696811D01*
X147129507Y-116663477D01*
X147196174Y-116630144D01*
X147329507Y-116596811D01*
X147396174Y-116563477D01*
X147429507Y-116530144D01*
X147462841Y-116463477D01*
X147462841Y-116396811D01*
X147429507Y-116330144D01*
X147396174Y-116296811D01*
X147329507Y-116263477D01*
X147162841Y-116263477D01*
X147062841Y-116296811D01*
X146762841Y-116963477D02*
X146762841Y-116263477D01*
X187800214Y-114851988D02*
X187714781Y-114975992D01*
X187524630Y-115119281D01*
X187419912Y-115138567D01*
X187353224Y-115129194D01*
X187257878Y-115081792D01*
X187200562Y-115005731D01*
X187181276Y-114901013D01*
X187190649Y-114834325D01*
X187238051Y-114738979D01*
X187361515Y-114586317D01*
X187408917Y-114490971D01*
X187418290Y-114424283D01*
X187399004Y-114319564D01*
X187341689Y-114243504D01*
X187246343Y-114196101D01*
X187179654Y-114186729D01*
X187074936Y-114206014D01*
X186884785Y-114349304D01*
X186799352Y-114473307D01*
X186504482Y-114635882D02*
X186916146Y-115577807D01*
X186334157Y-115121984D01*
X186611904Y-115807070D01*
X185819937Y-115151724D01*
X185591756Y-115323671D02*
X185097362Y-115696223D01*
X185592837Y-115799860D01*
X185478746Y-115885834D01*
X185431344Y-115981180D01*
X185421971Y-116047868D01*
X185441257Y-116152586D01*
X185584546Y-116342737D01*
X185679892Y-116390140D01*
X185746580Y-116399512D01*
X185851298Y-116380227D01*
X186079480Y-116208280D01*
X186126883Y-116112934D01*
X186136255Y-116046246D01*
X184613423Y-116478276D02*
X185014633Y-117010700D01*
X184574311Y-116030745D02*
X185194330Y-116457909D01*
X184699937Y-116830462D01*
X167143275Y-126138797D02*
X167089151Y-126279318D01*
X166937704Y-126463038D01*
X166840381Y-126506237D01*
X166773348Y-126512692D01*
X166669570Y-126488857D01*
X166596082Y-126428278D01*
X166552883Y-126330955D01*
X166546429Y-126263921D01*
X166570264Y-126160144D01*
X166654677Y-125982878D01*
X166678512Y-125879101D01*
X166672058Y-125812067D01*
X166628859Y-125714745D01*
X166555371Y-125654166D01*
X166451593Y-125630331D01*
X166384560Y-125636785D01*
X166287237Y-125679984D01*
X166135790Y-125863704D01*
X166081666Y-126004226D01*
X165832896Y-126231144D02*
X166453073Y-127050943D01*
X165780755Y-126743577D01*
X166210757Y-127344895D01*
X165287686Y-126892537D01*
X165105949Y-127113001D02*
X164712186Y-127590673D01*
X165218165Y-127575781D01*
X165127296Y-127686013D01*
X165103461Y-127789790D01*
X165109916Y-127856824D01*
X165153115Y-127954147D01*
X165336835Y-128105594D01*
X165440612Y-128129429D01*
X165507646Y-128122974D01*
X165604969Y-128079776D01*
X165786705Y-127859311D01*
X165810540Y-127755534D01*
X165804086Y-127688500D01*
X164500160Y-127847882D02*
X164106397Y-128325554D01*
X164612376Y-128310661D01*
X164521507Y-128420893D01*
X164497673Y-128524671D01*
X164504127Y-128591704D01*
X164547326Y-128689027D01*
X164731046Y-128840474D01*
X164834823Y-128864309D01*
X164901857Y-128857855D01*
X164999180Y-128814656D01*
X165180916Y-128594192D01*
X165204751Y-128490414D01*
X165198297Y-128423381D01*
X113762190Y-135727588D02*
X113634578Y-135647645D01*
X113483130Y-135463925D01*
X113459296Y-135360148D01*
X113465750Y-135293114D01*
X113508949Y-135195791D01*
X113582437Y-135135212D01*
X113686214Y-135111377D01*
X113753248Y-135117832D01*
X113850571Y-135161031D01*
X114008472Y-135277717D01*
X114105795Y-135320916D01*
X114172829Y-135327370D01*
X114276606Y-135303536D01*
X114350094Y-135242957D01*
X114393293Y-135145634D01*
X114399748Y-135078600D01*
X114375913Y-134974823D01*
X114224466Y-134791103D01*
X114096853Y-134711160D01*
X113921571Y-134423662D02*
X112998499Y-134876021D01*
X113428502Y-134274703D01*
X112756184Y-134582068D01*
X113376361Y-133762270D01*
X113194625Y-133541806D02*
X112800862Y-133064133D01*
X112718936Y-133563657D01*
X112628067Y-133453425D01*
X112530745Y-133410226D01*
X112463711Y-133403772D01*
X112359934Y-133427607D01*
X112176213Y-133579054D01*
X112133015Y-133676377D01*
X112126560Y-133743410D01*
X112150395Y-133847188D01*
X112332132Y-134067652D01*
X112429455Y-134110851D01*
X112496488Y-134117305D01*
X112485058Y-132830760D02*
X112491513Y-132763727D01*
X112467678Y-132659949D01*
X112316231Y-132476229D01*
X112218908Y-132433030D01*
X112151875Y-132426576D01*
X112048097Y-132450411D01*
X111974609Y-132510990D01*
X111894666Y-132638602D01*
X111817211Y-133443003D01*
X111423449Y-132965331D01*
X95138688Y-122380117D02*
X94995939Y-122332174D01*
X94805788Y-122188885D01*
X94758385Y-122093539D01*
X94749013Y-122026851D01*
X94768298Y-121922132D01*
X94825614Y-121846072D01*
X94920960Y-121798669D01*
X94987648Y-121789297D01*
X95092366Y-121808582D01*
X95273145Y-121885183D01*
X95377864Y-121904469D01*
X95444552Y-121895096D01*
X95539898Y-121847694D01*
X95597213Y-121771633D01*
X95616499Y-121666915D01*
X95607126Y-121600227D01*
X95559724Y-121504881D01*
X95369572Y-121361591D01*
X95226824Y-121313648D01*
X94989270Y-121075013D02*
X94197304Y-121730359D01*
X94475050Y-121045274D01*
X93893061Y-121501096D01*
X94304725Y-120559171D01*
X94076544Y-120387224D02*
X93582150Y-120014672D01*
X93619099Y-120519519D01*
X93505008Y-120433546D01*
X93400290Y-120414260D01*
X93333602Y-120423633D01*
X93238256Y-120471035D01*
X93094967Y-120661186D01*
X93075681Y-120765905D01*
X93085054Y-120832593D01*
X93132456Y-120927939D01*
X93360638Y-121099886D01*
X93465356Y-121119172D01*
X93532044Y-121109799D01*
X92219730Y-120240150D02*
X92676093Y-120584045D01*
X92447911Y-120412098D02*
X93049726Y-119613462D01*
X93039813Y-119784869D01*
X93058558Y-119918245D01*
X93105961Y-120013591D01*
X232598083Y-72165559D02*
X232483467Y-72263225D01*
X232262709Y-72352418D01*
X232156567Y-72343943D01*
X232094577Y-72317630D01*
X232014749Y-72247165D01*
X231979072Y-72158862D01*
X231987547Y-72052720D01*
X232013860Y-71990730D01*
X232084325Y-71910901D01*
X232243093Y-71795396D01*
X232313558Y-71715568D01*
X232339871Y-71653578D01*
X232348346Y-71547436D01*
X232312669Y-71459133D01*
X232232840Y-71388668D01*
X232170850Y-71362355D01*
X232064709Y-71353880D01*
X231843951Y-71443072D01*
X231729334Y-71540739D01*
X231402434Y-71621456D02*
X231556283Y-72637832D01*
X231112100Y-72046912D01*
X231203070Y-72780539D01*
X230607705Y-71942548D01*
X230342796Y-72049578D02*
X229768825Y-72281477D01*
X230220593Y-72509821D01*
X230088138Y-72563337D01*
X230017674Y-72643165D01*
X229991360Y-72705155D01*
X229982886Y-72811297D01*
X230072078Y-73032055D01*
X230151906Y-73102520D01*
X230213896Y-73128833D01*
X230320038Y-73137308D01*
X230584947Y-73030277D01*
X230655412Y-72950449D01*
X230681726Y-72888459D01*
X229194854Y-72513377D02*
X229106551Y-72549053D01*
X229036086Y-72628882D01*
X229009773Y-72690872D01*
X229001298Y-72797014D01*
X229028500Y-72991458D01*
X229117692Y-73212216D01*
X229233197Y-73370985D01*
X229313026Y-73441449D01*
X229375016Y-73467763D01*
X229481157Y-73476237D01*
X229569460Y-73440561D01*
X229639925Y-73360732D01*
X229666238Y-73298742D01*
X229674713Y-73192600D01*
X229647511Y-72998156D01*
X229558319Y-72777397D01*
X229442814Y-72618629D01*
X229362985Y-72548165D01*
X229300995Y-72521851D01*
X229194854Y-72513377D01*
X214119582Y-74515062D02*
X214004966Y-74612728D01*
X213784208Y-74701921D01*
X213678066Y-74693446D01*
X213616076Y-74667133D01*
X213536248Y-74596668D01*
X213500571Y-74508365D01*
X213509046Y-74402223D01*
X213535359Y-74340233D01*
X213605824Y-74260404D01*
X213764592Y-74144899D01*
X213835057Y-74065071D01*
X213861370Y-74003081D01*
X213869845Y-73896939D01*
X213834168Y-73808636D01*
X213754339Y-73738171D01*
X213692349Y-73711858D01*
X213586208Y-73703383D01*
X213365450Y-73792575D01*
X213250833Y-73890242D01*
X212923933Y-73970959D02*
X213077782Y-74987335D01*
X212633599Y-74396415D01*
X212724569Y-75130042D01*
X212129204Y-74292051D01*
X211855820Y-74505223D02*
X211793830Y-74478909D01*
X211687688Y-74470435D01*
X211466930Y-74559627D01*
X211396465Y-74639455D01*
X211370152Y-74701445D01*
X211361677Y-74807587D01*
X211397354Y-74895890D01*
X211495021Y-75010506D01*
X212238901Y-75326265D01*
X211664930Y-75558164D01*
X211223414Y-75736548D02*
X211046808Y-75807902D01*
X210940666Y-75799427D01*
X210878676Y-75773114D01*
X210736858Y-75676336D01*
X210621352Y-75517568D01*
X210478645Y-75164355D01*
X210487120Y-75058213D01*
X210513433Y-74996223D01*
X210583898Y-74916395D01*
X210760504Y-74845041D01*
X210866646Y-74853516D01*
X210928636Y-74879829D01*
X211008465Y-74950294D01*
X211097657Y-75171052D01*
X211089182Y-75277194D01*
X211062869Y-75339184D01*
X210992404Y-75419012D01*
X210815797Y-75490366D01*
X210709656Y-75481891D01*
X210647666Y-75455578D01*
X210567837Y-75385113D01*
X196530084Y-79023560D02*
X196415468Y-79121226D01*
X196194710Y-79210419D01*
X196088568Y-79201944D01*
X196026578Y-79175631D01*
X195946750Y-79105166D01*
X195911073Y-79016863D01*
X195919548Y-78910721D01*
X195945861Y-78848731D01*
X196016326Y-78768902D01*
X196175094Y-78653397D01*
X196245559Y-78573569D01*
X196271872Y-78511579D01*
X196280347Y-78405437D01*
X196244670Y-78317134D01*
X196164841Y-78246669D01*
X196102851Y-78220356D01*
X195996710Y-78211881D01*
X195775952Y-78301073D01*
X195661335Y-78398740D01*
X195334435Y-78479457D02*
X195488284Y-79495833D01*
X195044101Y-78904913D01*
X195135071Y-79638540D01*
X194539706Y-78800549D01*
X194266322Y-79013721D02*
X194204332Y-78987407D01*
X194098190Y-78978933D01*
X193877432Y-79068125D01*
X193806967Y-79147953D01*
X193780654Y-79209943D01*
X193772179Y-79316085D01*
X193807856Y-79404388D01*
X193905523Y-79519004D01*
X194649403Y-79834763D01*
X194075432Y-80066662D01*
X193331552Y-79750904D02*
X193402017Y-79671075D01*
X193428330Y-79609085D01*
X193436805Y-79502944D01*
X193418967Y-79458792D01*
X193339138Y-79388327D01*
X193277148Y-79362014D01*
X193171006Y-79353539D01*
X192994400Y-79424893D01*
X192923935Y-79504721D01*
X192897622Y-79566711D01*
X192889147Y-79672853D01*
X192906986Y-79717005D01*
X192986814Y-79787469D01*
X193048804Y-79813783D01*
X193154946Y-79822257D01*
X193331552Y-79750904D01*
X193437694Y-79759379D01*
X193499684Y-79785692D01*
X193579512Y-79856157D01*
X193650866Y-80032763D01*
X193642391Y-80138905D01*
X193616078Y-80200895D01*
X193545613Y-80280723D01*
X193369007Y-80352077D01*
X193262865Y-80343602D01*
X193200875Y-80317289D01*
X193121046Y-80246824D01*
X193049693Y-80070217D01*
X193058168Y-79964076D01*
X193084481Y-79902086D01*
X193154946Y-79822257D01*
X180782083Y-87977064D02*
X180667467Y-88074730D01*
X180446709Y-88163923D01*
X180340567Y-88155448D01*
X180278577Y-88129135D01*
X180198749Y-88058670D01*
X180163072Y-87970367D01*
X180171547Y-87864225D01*
X180197860Y-87802235D01*
X180268325Y-87722406D01*
X180427093Y-87606901D01*
X180497558Y-87527073D01*
X180523871Y-87465083D01*
X180532346Y-87358941D01*
X180496669Y-87270638D01*
X180416840Y-87200173D01*
X180354850Y-87173860D01*
X180248709Y-87165385D01*
X180027951Y-87254577D01*
X179913334Y-87352244D01*
X179586434Y-87432961D02*
X179740283Y-88449337D01*
X179296100Y-87858417D01*
X179387070Y-88592044D01*
X178791705Y-87754053D01*
X178518321Y-87967225D02*
X178456331Y-87940911D01*
X178350189Y-87932437D01*
X178129431Y-88021629D01*
X178058966Y-88101457D01*
X178032653Y-88163447D01*
X178024178Y-88269589D01*
X178059855Y-88357892D01*
X178157522Y-88472508D01*
X178901402Y-88788267D01*
X178327431Y-89020166D01*
X177643763Y-88217851D02*
X177025641Y-88467589D01*
X177797612Y-89234227D01*
X164970584Y-96930559D02*
X164855968Y-97028225D01*
X164635210Y-97117418D01*
X164529068Y-97108943D01*
X164467078Y-97082630D01*
X164387250Y-97012165D01*
X164351573Y-96923862D01*
X164360048Y-96817720D01*
X164386361Y-96755730D01*
X164456826Y-96675901D01*
X164615594Y-96560396D01*
X164686059Y-96480568D01*
X164712372Y-96418578D01*
X164720847Y-96312436D01*
X164685170Y-96224133D01*
X164605341Y-96153668D01*
X164543351Y-96127355D01*
X164437210Y-96118880D01*
X164216452Y-96208072D01*
X164101835Y-96305739D01*
X163774935Y-96386456D02*
X163928784Y-97402832D01*
X163484601Y-96811912D01*
X163575571Y-97545539D01*
X162980206Y-96707548D01*
X162706822Y-96920720D02*
X162644832Y-96894406D01*
X162538690Y-96885932D01*
X162317932Y-96975124D01*
X162247467Y-97054952D01*
X162221154Y-97116942D01*
X162212679Y-97223084D01*
X162248356Y-97311387D01*
X162346023Y-97426003D01*
X163089903Y-97741762D01*
X162515932Y-97973661D01*
X161346597Y-97367569D02*
X161523203Y-97296215D01*
X161629345Y-97304690D01*
X161691335Y-97331003D01*
X161833153Y-97427781D01*
X161948659Y-97586549D01*
X162091366Y-97939762D01*
X162082891Y-98045904D01*
X162056578Y-98107894D01*
X161986113Y-98187722D01*
X161809507Y-98259076D01*
X161703365Y-98250601D01*
X161641375Y-98224288D01*
X161561546Y-98153823D01*
X161472354Y-97933065D01*
X161480829Y-97826923D01*
X161507142Y-97764933D01*
X161577607Y-97685105D01*
X161754214Y-97613751D01*
X161860355Y-97622226D01*
X161922345Y-97648539D01*
X162002174Y-97719004D01*
X119639838Y-101616531D02*
X119489545Y-101607167D01*
X119268787Y-101517975D01*
X119198322Y-101438147D01*
X119172009Y-101376157D01*
X119163534Y-101270015D01*
X119199211Y-101181712D01*
X119279039Y-101111247D01*
X119341029Y-101084934D01*
X119447171Y-101076459D01*
X119641616Y-101103661D01*
X119747758Y-101095186D01*
X119809748Y-101068873D01*
X119889576Y-100998408D01*
X119925253Y-100910105D01*
X119916778Y-100803963D01*
X119890465Y-100741973D01*
X119820000Y-100662145D01*
X119599242Y-100572953D01*
X119448949Y-100563589D01*
X119157726Y-100394569D02*
X118562361Y-101232561D01*
X118653331Y-100498933D01*
X118209148Y-101089853D01*
X118362997Y-100073477D01*
X118018259Y-100036912D02*
X117991946Y-99974922D01*
X117921481Y-99895093D01*
X117700723Y-99805901D01*
X117594581Y-99814376D01*
X117532591Y-99840689D01*
X117452763Y-99911154D01*
X117417086Y-99999457D01*
X117407722Y-100149751D01*
X117723481Y-100893631D01*
X117149510Y-100661731D01*
X116685236Y-99395618D02*
X117126752Y-99574002D01*
X116992519Y-100033356D01*
X116966206Y-99971366D01*
X116895741Y-99891538D01*
X116674983Y-99802346D01*
X116568841Y-99810821D01*
X116506851Y-99837134D01*
X116427023Y-99907599D01*
X116337831Y-100128357D01*
X116346306Y-100234498D01*
X116372619Y-100296488D01*
X116443084Y-100376317D01*
X116663842Y-100465509D01*
X116769983Y-100457034D01*
X116831974Y-100430721D01*
X103828336Y-92663029D02*
X103678043Y-92653665D01*
X103457285Y-92564473D01*
X103386820Y-92484645D01*
X103360507Y-92422655D01*
X103352032Y-92316513D01*
X103387709Y-92228210D01*
X103467537Y-92157745D01*
X103529527Y-92131432D01*
X103635669Y-92122957D01*
X103830114Y-92150159D01*
X103936256Y-92141684D01*
X103998246Y-92115371D01*
X104078074Y-92044906D01*
X104113751Y-91956603D01*
X104105276Y-91850461D01*
X104078963Y-91788471D01*
X104008498Y-91708643D01*
X103787740Y-91619451D01*
X103637447Y-91610087D01*
X103346224Y-91441067D02*
X102750859Y-92279059D01*
X102841829Y-91545431D01*
X102397646Y-92136351D01*
X102551495Y-91119975D01*
X102206757Y-91083410D02*
X102180444Y-91021420D01*
X102109979Y-90941591D01*
X101889221Y-90852399D01*
X101783079Y-90860874D01*
X101721089Y-90887187D01*
X101641261Y-90957652D01*
X101605584Y-91045955D01*
X101596220Y-91196249D01*
X101911979Y-91940129D01*
X101338008Y-91708229D01*
X100793016Y-90769016D02*
X100543279Y-91387138D01*
X101156482Y-90504995D02*
X101109664Y-91256461D01*
X100535693Y-91024562D01*
X88016836Y-83709530D02*
X87866543Y-83700166D01*
X87645785Y-83610974D01*
X87575320Y-83531146D01*
X87549007Y-83469156D01*
X87540532Y-83363014D01*
X87576209Y-83274711D01*
X87656037Y-83204246D01*
X87718027Y-83177933D01*
X87824169Y-83169458D01*
X88018614Y-83196660D01*
X88124756Y-83188185D01*
X88186746Y-83161872D01*
X88266574Y-83091407D01*
X88302251Y-83003104D01*
X88293776Y-82896962D01*
X88267463Y-82834972D01*
X88196998Y-82755144D01*
X87976240Y-82665952D01*
X87825947Y-82656588D01*
X87534724Y-82487568D02*
X86939359Y-83325560D01*
X87030329Y-82591932D01*
X86586146Y-83182852D01*
X86739995Y-82166476D01*
X86395257Y-82129911D02*
X86368944Y-82067921D01*
X86298479Y-81988092D01*
X86077721Y-81898900D01*
X85971579Y-81907375D01*
X85909589Y-81933688D01*
X85829761Y-82004153D01*
X85794084Y-82092456D01*
X85784720Y-82242750D01*
X86100479Y-82986630D01*
X85526508Y-82754730D01*
X85592053Y-81702678D02*
X85018082Y-81470778D01*
X85184436Y-81948860D01*
X85051981Y-81895345D01*
X84945839Y-81903820D01*
X84883849Y-81930133D01*
X84804021Y-82000598D01*
X84714829Y-82221356D01*
X84723304Y-82327497D01*
X84749617Y-82389487D01*
X84820082Y-82469316D01*
X85084991Y-82576346D01*
X85191133Y-82567872D01*
X85253123Y-82541558D01*
X70427339Y-79201033D02*
X70277046Y-79191669D01*
X70056288Y-79102477D01*
X69985823Y-79022649D01*
X69959510Y-78960659D01*
X69951035Y-78854517D01*
X69986712Y-78766214D01*
X70066540Y-78695749D01*
X70128530Y-78669436D01*
X70234672Y-78660961D01*
X70429117Y-78688163D01*
X70535259Y-78679688D01*
X70597249Y-78653375D01*
X70677077Y-78582910D01*
X70712754Y-78494607D01*
X70704279Y-78388465D01*
X70677966Y-78326475D01*
X70607501Y-78246647D01*
X70386743Y-78157455D01*
X70236450Y-78148091D01*
X69945227Y-77979071D02*
X69349862Y-78817063D01*
X69440832Y-78083435D01*
X68996649Y-78674355D01*
X69150498Y-77657979D01*
X68805760Y-77621414D02*
X68779447Y-77559424D01*
X68708982Y-77479595D01*
X68488224Y-77390403D01*
X68382082Y-77398878D01*
X68320092Y-77425191D01*
X68240264Y-77495656D01*
X68204587Y-77583959D01*
X68195223Y-77734253D01*
X68510982Y-78478133D01*
X67937011Y-78246233D01*
X67922727Y-77264646D02*
X67896414Y-77202656D01*
X67825949Y-77122827D01*
X67605191Y-77033635D01*
X67499050Y-77042110D01*
X67437060Y-77068423D01*
X67357231Y-77138888D01*
X67321554Y-77227191D01*
X67312191Y-77377484D01*
X67627949Y-78121365D01*
X67053978Y-77889465D01*
X51948832Y-76851536D02*
X51798539Y-76842172D01*
X51577781Y-76752980D01*
X51507316Y-76673152D01*
X51481003Y-76611162D01*
X51472528Y-76505020D01*
X51508205Y-76416717D01*
X51588033Y-76346252D01*
X51650023Y-76319939D01*
X51756165Y-76311464D01*
X51950610Y-76338666D01*
X52056752Y-76330191D01*
X52118742Y-76303878D01*
X52198570Y-76233413D01*
X52234247Y-76145110D01*
X52225772Y-76038968D01*
X52199459Y-75976978D01*
X52128994Y-75897150D01*
X51908236Y-75807958D01*
X51757943Y-75798594D01*
X51466720Y-75629574D02*
X50871355Y-76467566D01*
X50962325Y-75733938D01*
X50518142Y-76324858D01*
X50671991Y-75308482D01*
X50327253Y-75271917D02*
X50300940Y-75209927D01*
X50230475Y-75130098D01*
X50009717Y-75040906D01*
X49903575Y-75049381D01*
X49841585Y-75075694D01*
X49761757Y-75146159D01*
X49726080Y-75234462D01*
X49716716Y-75384756D01*
X50032475Y-76128636D01*
X49458504Y-75896736D01*
X48575471Y-75539968D02*
X49105291Y-75754029D01*
X48840381Y-75646999D02*
X49214988Y-74719815D01*
X49249776Y-74887947D01*
X49302402Y-75011927D01*
X49372867Y-75091755D01*
X226248085Y-56417558D02*
X226133469Y-56515224D01*
X225912711Y-56604417D01*
X225806569Y-56595942D01*
X225744579Y-56569629D01*
X225664751Y-56499164D01*
X225629074Y-56410861D01*
X225637549Y-56304719D01*
X225663862Y-56242729D01*
X225734327Y-56162900D01*
X225893095Y-56047395D01*
X225963560Y-55967567D01*
X225989873Y-55905577D01*
X225998348Y-55799435D01*
X225962671Y-55711132D01*
X225882842Y-55640667D01*
X225820852Y-55614354D01*
X225714711Y-55605879D01*
X225493953Y-55695071D01*
X225379336Y-55792738D01*
X225052436Y-55873455D02*
X225206285Y-56889831D01*
X224762102Y-56298911D01*
X224853072Y-57032538D01*
X224257707Y-56194547D01*
X223984323Y-56407719D02*
X223922333Y-56381405D01*
X223816191Y-56372931D01*
X223595433Y-56462123D01*
X223524968Y-56541951D01*
X223498655Y-56603941D01*
X223490180Y-56710083D01*
X223525857Y-56798386D01*
X223623524Y-56913002D01*
X224367404Y-57228761D01*
X223793433Y-57460660D01*
X222844856Y-56765376D02*
X222756553Y-56801052D01*
X222686088Y-56880881D01*
X222659775Y-56942871D01*
X222651300Y-57049013D01*
X222678502Y-57243457D01*
X222767694Y-57464215D01*
X222883199Y-57622984D01*
X222963028Y-57693448D01*
X223025018Y-57719762D01*
X223131159Y-57728236D01*
X223219462Y-57692560D01*
X223289927Y-57612731D01*
X223316240Y-57550741D01*
X223324715Y-57444599D01*
X223297513Y-57250155D01*
X223208321Y-57029396D01*
X223092816Y-56870628D01*
X223012987Y-56800164D01*
X222950997Y-56773850D01*
X222844856Y-56765376D01*
X190180084Y-63275561D02*
X190065468Y-63373227D01*
X189844710Y-63462420D01*
X189738568Y-63453945D01*
X189676578Y-63427632D01*
X189596750Y-63357167D01*
X189561073Y-63268864D01*
X189569548Y-63162722D01*
X189595861Y-63100732D01*
X189666326Y-63020903D01*
X189825094Y-62905398D01*
X189895559Y-62825570D01*
X189921872Y-62763580D01*
X189930347Y-62657438D01*
X189894670Y-62569135D01*
X189814841Y-62498670D01*
X189752851Y-62472357D01*
X189646710Y-62463882D01*
X189425952Y-62553074D01*
X189311335Y-62650741D01*
X188984435Y-62731458D02*
X189138284Y-63747834D01*
X188694101Y-63156914D01*
X188785071Y-63890541D01*
X188189706Y-63052550D01*
X187725432Y-64318663D02*
X188255252Y-64104602D01*
X187990342Y-64211633D02*
X187615735Y-63284449D01*
X187757554Y-63381227D01*
X187881534Y-63433853D01*
X187987676Y-63442328D01*
X186981552Y-64002905D02*
X187052017Y-63923076D01*
X187078330Y-63861086D01*
X187086805Y-63754945D01*
X187068967Y-63710793D01*
X186989138Y-63640328D01*
X186927148Y-63614015D01*
X186821006Y-63605540D01*
X186644400Y-63676894D01*
X186573935Y-63756722D01*
X186547622Y-63818712D01*
X186539147Y-63924854D01*
X186556986Y-63969006D01*
X186636814Y-64039470D01*
X186698804Y-64065784D01*
X186804946Y-64074258D01*
X186981552Y-64002905D01*
X187087694Y-64011380D01*
X187149684Y-64037693D01*
X187229512Y-64108158D01*
X187300866Y-64284764D01*
X187292391Y-64390906D01*
X187266078Y-64452896D01*
X187195613Y-64532724D01*
X187019007Y-64604078D01*
X186912865Y-64595603D01*
X186850875Y-64569290D01*
X186771046Y-64498825D01*
X186699693Y-64322218D01*
X186708168Y-64216077D01*
X186734481Y-64154087D01*
X186804946Y-64074258D01*
X174432084Y-72229063D02*
X174317468Y-72326729D01*
X174096710Y-72415922D01*
X173990568Y-72407447D01*
X173928578Y-72381134D01*
X173848750Y-72310669D01*
X173813073Y-72222366D01*
X173821548Y-72116224D01*
X173847861Y-72054234D01*
X173918326Y-71974405D01*
X174077094Y-71858900D01*
X174147559Y-71779072D01*
X174173872Y-71717082D01*
X174182347Y-71610940D01*
X174146670Y-71522637D01*
X174066841Y-71452172D01*
X174004851Y-71425859D01*
X173898710Y-71417384D01*
X173677952Y-71506576D01*
X173563335Y-71604243D01*
X173236435Y-71684960D02*
X173390284Y-72701336D01*
X172946101Y-72110416D01*
X173037071Y-72844043D01*
X172441706Y-72006052D01*
X171977432Y-73272165D02*
X172507252Y-73058104D01*
X172242342Y-73165135D02*
X171867735Y-72237951D01*
X172009554Y-72334729D01*
X172133534Y-72387355D01*
X172239676Y-72395830D01*
X171293764Y-72469850D02*
X170675642Y-72719588D01*
X171447613Y-73486226D01*
X158557080Y-81119063D02*
X158442464Y-81216729D01*
X158221706Y-81305922D01*
X158115564Y-81297447D01*
X158053574Y-81271134D01*
X157973746Y-81200669D01*
X157938069Y-81112366D01*
X157946544Y-81006224D01*
X157972857Y-80944234D01*
X158043322Y-80864405D01*
X158202090Y-80748900D01*
X158272555Y-80669072D01*
X158298868Y-80607082D01*
X158307343Y-80500940D01*
X158271666Y-80412637D01*
X158191837Y-80342172D01*
X158129847Y-80315859D01*
X158023706Y-80307384D01*
X157802948Y-80396576D01*
X157688331Y-80494243D01*
X157361431Y-80574960D02*
X157515280Y-81591336D01*
X157071097Y-81000416D01*
X157162067Y-81734043D01*
X156566702Y-80896052D01*
X156102428Y-82162165D02*
X156632248Y-81948104D01*
X156367338Y-82055135D02*
X155992731Y-81127951D01*
X156134550Y-81224729D01*
X156258530Y-81277355D01*
X156364672Y-81285830D01*
X154933093Y-81556073D02*
X155109699Y-81484719D01*
X155215841Y-81493194D01*
X155277831Y-81519507D01*
X155419649Y-81616285D01*
X155535155Y-81775053D01*
X155677862Y-82128266D01*
X155669387Y-82234408D01*
X155643074Y-82296398D01*
X155572609Y-82376226D01*
X155396003Y-82447580D01*
X155289861Y-82439105D01*
X155227871Y-82412792D01*
X155148042Y-82342327D01*
X155058850Y-82121569D01*
X155067325Y-82015427D01*
X155093638Y-81953437D01*
X155164103Y-81873609D01*
X155340710Y-81802255D01*
X155446851Y-81810730D01*
X155508841Y-81837043D01*
X155588670Y-81907508D01*
X125989835Y-85868535D02*
X125839542Y-85859171D01*
X125618784Y-85769979D01*
X125548319Y-85690151D01*
X125522006Y-85628161D01*
X125513531Y-85522019D01*
X125549208Y-85433716D01*
X125629036Y-85363251D01*
X125691026Y-85336938D01*
X125797168Y-85328463D01*
X125991613Y-85355665D01*
X126097755Y-85347190D01*
X126159745Y-85320877D01*
X126239573Y-85250412D01*
X126275250Y-85162109D01*
X126266775Y-85055967D01*
X126240462Y-84993977D01*
X126169997Y-84914149D01*
X125949239Y-84824957D01*
X125798946Y-84815593D01*
X125507723Y-84646573D02*
X124912358Y-85484565D01*
X125003328Y-84750937D01*
X124559145Y-85341857D01*
X124712994Y-84325481D01*
X123499507Y-84913735D02*
X124029326Y-85127796D01*
X123764416Y-85020766D02*
X124139023Y-84093582D01*
X124173811Y-84261714D01*
X124226437Y-84385694D01*
X124296902Y-84465522D01*
X123035233Y-83647622D02*
X123476749Y-83826006D01*
X123342516Y-84285360D01*
X123316203Y-84223370D01*
X123245738Y-84143542D01*
X123024980Y-84054350D01*
X122918838Y-84062825D01*
X122856848Y-84089138D01*
X122777020Y-84159603D01*
X122687828Y-84380361D01*
X122696303Y-84486502D01*
X122722616Y-84548492D01*
X122793081Y-84628321D01*
X123013839Y-84717513D01*
X123119980Y-84709038D01*
X123181971Y-84682725D01*
X110178334Y-76915033D02*
X110028041Y-76905669D01*
X109807283Y-76816477D01*
X109736818Y-76736649D01*
X109710505Y-76674659D01*
X109702030Y-76568517D01*
X109737707Y-76480214D01*
X109817535Y-76409749D01*
X109879525Y-76383436D01*
X109985667Y-76374961D01*
X110180112Y-76402163D01*
X110286254Y-76393688D01*
X110348244Y-76367375D01*
X110428072Y-76296910D01*
X110463749Y-76208607D01*
X110455274Y-76102465D01*
X110428961Y-76040475D01*
X110358496Y-75960647D01*
X110137738Y-75871455D01*
X109987445Y-75862091D01*
X109696222Y-75693071D02*
X109100857Y-76531063D01*
X109191827Y-75797435D01*
X108747644Y-76388355D01*
X108901493Y-75371979D01*
X107688006Y-75960233D02*
X108217825Y-76174294D01*
X107952915Y-76067264D02*
X108327522Y-75140080D01*
X108362310Y-75308212D01*
X108414936Y-75432192D01*
X108485401Y-75512020D01*
X107143014Y-75021020D02*
X106893277Y-75639142D01*
X107506480Y-74756999D02*
X107459662Y-75508465D01*
X106885691Y-75276566D01*
X94430335Y-67961530D02*
X94280042Y-67952166D01*
X94059284Y-67862974D01*
X93988819Y-67783146D01*
X93962506Y-67721156D01*
X93954031Y-67615014D01*
X93989708Y-67526711D01*
X94069536Y-67456246D01*
X94131526Y-67429933D01*
X94237668Y-67421458D01*
X94432113Y-67448660D01*
X94538255Y-67440185D01*
X94600245Y-67413872D01*
X94680073Y-67343407D01*
X94715750Y-67255104D01*
X94707275Y-67148962D01*
X94680962Y-67086972D01*
X94610497Y-67007144D01*
X94389739Y-66917952D01*
X94239446Y-66908588D01*
X93948223Y-66739568D02*
X93352858Y-67577560D01*
X93443828Y-66843932D01*
X92999645Y-67434852D01*
X93153494Y-66418476D01*
X91940007Y-67006730D02*
X92469826Y-67220791D01*
X92204916Y-67113761D02*
X92579523Y-66186577D01*
X92614311Y-66354709D01*
X92666937Y-66478689D01*
X92737402Y-66558517D01*
X92005552Y-65954678D02*
X91431581Y-65722778D01*
X91597935Y-66200860D01*
X91465480Y-66147345D01*
X91359338Y-66155820D01*
X91297348Y-66182133D01*
X91217520Y-66252598D01*
X91128328Y-66473356D01*
X91136803Y-66579497D01*
X91163116Y-66641487D01*
X91233581Y-66721316D01*
X91498490Y-66828346D01*
X91604632Y-66819872D01*
X91666622Y-66793558D01*
X76840835Y-63389530D02*
X76690542Y-63380166D01*
X76469784Y-63290974D01*
X76399319Y-63211146D01*
X76373006Y-63149156D01*
X76364531Y-63043014D01*
X76400208Y-62954711D01*
X76480036Y-62884246D01*
X76542026Y-62857933D01*
X76648168Y-62849458D01*
X76842613Y-62876660D01*
X76948755Y-62868185D01*
X77010745Y-62841872D01*
X77090573Y-62771407D01*
X77126250Y-62683104D01*
X77117775Y-62576962D01*
X77091462Y-62514972D01*
X77020997Y-62435144D01*
X76800239Y-62345952D01*
X76649946Y-62336588D01*
X76358723Y-62167568D02*
X75763358Y-63005560D01*
X75854328Y-62271932D01*
X75410145Y-62862852D01*
X75563994Y-61846476D01*
X74350507Y-62434730D02*
X74880326Y-62648791D01*
X74615416Y-62541761D02*
X74990023Y-61614577D01*
X75024811Y-61782709D01*
X75077437Y-61906689D01*
X75147902Y-61986517D01*
X74336223Y-61453143D02*
X74309910Y-61391153D01*
X74239445Y-61311324D01*
X74018687Y-61222132D01*
X73912546Y-61230607D01*
X73850556Y-61256920D01*
X73770727Y-61327385D01*
X73735050Y-61415688D01*
X73725687Y-61565981D01*
X74041445Y-62309862D01*
X73467474Y-62077962D01*
X58362333Y-61103532D02*
X58212040Y-61094168D01*
X57991282Y-61004976D01*
X57920817Y-60925148D01*
X57894504Y-60863158D01*
X57886029Y-60757016D01*
X57921706Y-60668713D01*
X58001534Y-60598248D01*
X58063524Y-60571935D01*
X58169666Y-60563460D01*
X58364111Y-60590662D01*
X58470253Y-60582187D01*
X58532243Y-60555874D01*
X58612071Y-60485409D01*
X58647748Y-60397106D01*
X58639273Y-60290964D01*
X58612960Y-60228974D01*
X58542495Y-60149146D01*
X58321737Y-60059954D01*
X58171444Y-60050590D01*
X57880221Y-59881570D02*
X57284856Y-60719562D01*
X57375826Y-59985934D01*
X56931643Y-60576854D01*
X57085492Y-59560478D01*
X55872005Y-60148732D02*
X56401824Y-60362793D01*
X56136914Y-60255763D02*
X56511521Y-59328579D01*
X56546309Y-59496711D01*
X56598935Y-59620691D01*
X56669400Y-59700519D01*
X54988972Y-59791964D02*
X55518792Y-60006025D01*
X55253882Y-59898995D02*
X55628489Y-58971811D01*
X55663277Y-59139943D01*
X55715903Y-59263923D01*
X55786368Y-59343751D01*
X219898082Y-40606058D02*
X219783466Y-40703724D01*
X219562708Y-40792917D01*
X219456566Y-40784442D01*
X219394576Y-40758129D01*
X219314748Y-40687664D01*
X219279071Y-40599361D01*
X219287546Y-40493219D01*
X219313859Y-40431229D01*
X219384324Y-40351400D01*
X219543092Y-40235895D01*
X219613557Y-40156067D01*
X219639870Y-40094077D01*
X219648345Y-39987935D01*
X219612668Y-39899632D01*
X219532839Y-39829167D01*
X219470849Y-39802854D01*
X219364708Y-39794379D01*
X219143950Y-39883571D01*
X219029333Y-39981238D01*
X218702433Y-40061955D02*
X218856282Y-41078331D01*
X218412099Y-40487411D01*
X218503069Y-41221038D01*
X217907704Y-40383047D01*
X217443430Y-41649160D02*
X217973250Y-41435099D01*
X217708340Y-41542130D02*
X217333733Y-40614946D01*
X217475552Y-40711724D01*
X217599532Y-40764350D01*
X217705674Y-40772825D01*
X216494853Y-40953876D02*
X216406550Y-40989552D01*
X216336085Y-41069381D01*
X216309772Y-41131371D01*
X216301297Y-41237513D01*
X216328499Y-41431957D01*
X216417691Y-41652715D01*
X216533196Y-41811484D01*
X216613025Y-41881948D01*
X216675015Y-41908262D01*
X216781156Y-41916736D01*
X216869459Y-41881060D01*
X216939924Y-41801231D01*
X216966237Y-41739241D01*
X216974712Y-41633099D01*
X216947510Y-41438655D01*
X216858318Y-41217896D01*
X216742813Y-41059128D01*
X216662984Y-40988664D01*
X216600994Y-40962350D01*
X216494853Y-40953876D01*
X200978071Y-43133944D02*
X200863455Y-43231611D01*
X200642697Y-43320803D01*
X200536555Y-43312328D01*
X200474565Y-43286015D01*
X200394737Y-43215550D01*
X200359060Y-43127247D01*
X200367535Y-43021105D01*
X200393848Y-42959115D01*
X200464313Y-42879287D01*
X200623081Y-42763781D01*
X200693545Y-42683953D01*
X200719859Y-42621963D01*
X200728333Y-42515821D01*
X200692657Y-42427518D01*
X200612828Y-42357053D01*
X200550838Y-42330740D01*
X200444696Y-42322265D01*
X200223938Y-42411457D01*
X200109322Y-42509124D01*
X199782422Y-42589841D02*
X199936271Y-43606217D01*
X199492088Y-43015297D01*
X199583058Y-43748924D01*
X198987693Y-42910933D01*
X198964935Y-43998662D02*
X198788329Y-44070016D01*
X198682187Y-44061541D01*
X198620197Y-44035228D01*
X198478379Y-43938450D01*
X198362874Y-43779682D01*
X198220166Y-43426469D01*
X198228641Y-43320327D01*
X198254954Y-43258337D01*
X198325419Y-43178509D01*
X198502026Y-43107155D01*
X198608167Y-43115630D01*
X198670157Y-43141943D01*
X198749986Y-43212408D01*
X198839178Y-43433166D01*
X198830703Y-43539308D01*
X198804390Y-43601298D01*
X198733925Y-43681126D01*
X198557318Y-43752480D01*
X198451177Y-43744005D01*
X198389187Y-43717692D01*
X198309358Y-43647227D01*
X183388567Y-47642445D02*
X183273951Y-47740112D01*
X183053193Y-47829304D01*
X182947051Y-47820829D01*
X182885061Y-47794516D01*
X182805233Y-47724051D01*
X182769556Y-47635748D01*
X182778031Y-47529606D01*
X182804344Y-47467616D01*
X182874809Y-47387788D01*
X183033577Y-47272282D01*
X183104041Y-47192454D01*
X183130355Y-47130464D01*
X183138829Y-47024322D01*
X183103153Y-46936019D01*
X183023324Y-46865554D01*
X182961334Y-46839241D01*
X182855192Y-46830766D01*
X182634434Y-46919958D01*
X182519818Y-47017625D01*
X182192918Y-47098342D02*
X182346767Y-48114718D01*
X181902584Y-47523798D01*
X181993554Y-48257425D01*
X181398189Y-47419434D01*
X181073067Y-48013021D02*
X181143532Y-47933192D01*
X181169845Y-47871202D01*
X181178320Y-47765061D01*
X181160482Y-47720909D01*
X181080653Y-47650444D01*
X181018663Y-47624131D01*
X180912522Y-47615656D01*
X180735915Y-47687010D01*
X180665450Y-47766838D01*
X180639137Y-47828828D01*
X180630662Y-47934970D01*
X180648501Y-47979121D01*
X180728329Y-48049586D01*
X180790319Y-48075899D01*
X180896461Y-48084374D01*
X181073067Y-48013021D01*
X181179209Y-48021495D01*
X181241199Y-48047809D01*
X181321027Y-48118273D01*
X181392381Y-48294880D01*
X181383906Y-48401022D01*
X181357593Y-48463012D01*
X181287128Y-48542840D01*
X181110522Y-48614194D01*
X181004380Y-48605719D01*
X180942390Y-48579406D01*
X180862562Y-48508941D01*
X180791208Y-48332334D01*
X180799683Y-48226193D01*
X180825996Y-48164203D01*
X180896461Y-48084374D01*
X167640567Y-56595946D02*
X167525951Y-56693613D01*
X167305193Y-56782805D01*
X167199051Y-56774330D01*
X167137061Y-56748017D01*
X167057233Y-56677552D01*
X167021556Y-56589249D01*
X167030031Y-56483107D01*
X167056344Y-56421117D01*
X167126809Y-56341289D01*
X167285577Y-56225783D01*
X167356041Y-56145955D01*
X167382355Y-56083965D01*
X167390829Y-55977823D01*
X167355153Y-55889520D01*
X167275324Y-55819055D01*
X167213334Y-55792742D01*
X167107192Y-55784267D01*
X166886434Y-55873459D01*
X166771818Y-55971126D01*
X166444918Y-56051843D02*
X166598767Y-57068219D01*
X166154584Y-56477299D01*
X166245554Y-57210926D01*
X165650189Y-56372935D01*
X165385280Y-56479965D02*
X164767157Y-56729703D01*
X165539128Y-57496341D01*
X151765570Y-65549445D02*
X151650954Y-65647112D01*
X151430196Y-65736304D01*
X151324054Y-65727829D01*
X151262064Y-65701516D01*
X151182236Y-65631051D01*
X151146559Y-65542748D01*
X151155034Y-65436606D01*
X151181347Y-65374616D01*
X151251812Y-65294788D01*
X151410580Y-65179282D01*
X151481044Y-65099454D01*
X151507358Y-65037464D01*
X151515832Y-64931322D01*
X151480156Y-64843019D01*
X151400327Y-64772554D01*
X151338337Y-64746241D01*
X151232195Y-64737766D01*
X151011437Y-64826958D01*
X150896821Y-64924625D01*
X150569921Y-65005342D02*
X150723770Y-66021718D01*
X150279587Y-65430798D01*
X150370557Y-66164425D01*
X149775192Y-65326434D01*
X149024615Y-65629687D02*
X149201221Y-65558333D01*
X149307363Y-65566808D01*
X149369353Y-65593121D01*
X149511171Y-65689899D01*
X149626677Y-65848667D01*
X149769384Y-66201880D01*
X149760909Y-66308022D01*
X149734596Y-66370012D01*
X149664131Y-66449840D01*
X149487525Y-66521194D01*
X149381383Y-66512719D01*
X149319393Y-66486406D01*
X149239565Y-66415941D01*
X149150373Y-66195183D01*
X149158847Y-66089041D01*
X149185161Y-66027051D01*
X149255625Y-65947223D01*
X149432232Y-65875869D01*
X149538373Y-65884344D01*
X149600363Y-65910657D01*
X149680192Y-65981122D01*
X131898319Y-69878648D02*
X131748026Y-69869284D01*
X131527268Y-69780092D01*
X131456803Y-69700264D01*
X131430490Y-69638274D01*
X131422015Y-69532132D01*
X131457692Y-69443829D01*
X131537520Y-69373364D01*
X131599510Y-69347051D01*
X131705652Y-69338576D01*
X131900097Y-69365778D01*
X132006238Y-69357303D01*
X132068228Y-69330990D01*
X132148057Y-69260525D01*
X132183734Y-69172222D01*
X132175259Y-69066080D01*
X132148946Y-69004090D01*
X132078481Y-68924262D01*
X131857723Y-68835070D01*
X131707430Y-68825706D01*
X131416207Y-68656686D02*
X130820842Y-69494677D01*
X130911812Y-68761050D01*
X130467629Y-69351970D01*
X130621478Y-68335594D01*
X129826749Y-68014503D02*
X130268265Y-68192887D01*
X130134032Y-68652242D01*
X130107719Y-68590252D01*
X130037254Y-68510423D01*
X129816496Y-68421231D01*
X129710355Y-68429706D01*
X129648365Y-68456019D01*
X129568536Y-68526484D01*
X129479344Y-68747242D01*
X129487819Y-68853384D01*
X129514132Y-68915374D01*
X129584597Y-68995202D01*
X129805355Y-69084394D01*
X129911497Y-69075919D01*
X129973487Y-69049606D01*
X116150318Y-60925147D02*
X116000025Y-60915783D01*
X115779267Y-60826591D01*
X115708802Y-60746763D01*
X115682489Y-60684773D01*
X115674014Y-60578631D01*
X115709691Y-60490328D01*
X115789519Y-60419863D01*
X115851509Y-60393550D01*
X115957651Y-60385075D01*
X116152096Y-60412277D01*
X116258237Y-60403802D01*
X116320227Y-60377489D01*
X116400056Y-60307024D01*
X116435733Y-60218721D01*
X116427258Y-60112579D01*
X116400945Y-60050589D01*
X116330480Y-59970761D01*
X116109722Y-59881569D01*
X115959429Y-59872205D01*
X115668206Y-59703185D02*
X115072841Y-60541176D01*
X115163811Y-59807549D01*
X114719628Y-60398469D01*
X114873477Y-59382093D01*
X113998030Y-59387902D02*
X113748293Y-60006024D01*
X114361496Y-59123881D02*
X114314678Y-59875347D01*
X113740707Y-59643448D01*
X100338819Y-52035147D02*
X100188526Y-52025783D01*
X99967768Y-51936591D01*
X99897303Y-51856763D01*
X99870990Y-51794773D01*
X99862515Y-51688631D01*
X99898192Y-51600328D01*
X99978020Y-51529863D01*
X100040010Y-51503550D01*
X100146152Y-51495075D01*
X100340597Y-51522277D01*
X100446738Y-51513802D01*
X100508728Y-51487489D01*
X100588557Y-51417024D01*
X100624234Y-51328721D01*
X100615759Y-51222579D01*
X100589446Y-51160589D01*
X100518981Y-51080761D01*
X100298223Y-50991569D01*
X100147930Y-50982205D01*
X99856707Y-50813185D02*
X99261342Y-51651176D01*
X99352312Y-50917549D01*
X98908129Y-51508469D01*
X99061978Y-50492093D01*
X98797068Y-50385063D02*
X98223097Y-50153164D01*
X98389451Y-50631245D01*
X98256996Y-50577730D01*
X98150855Y-50586205D01*
X98088865Y-50612518D01*
X98009036Y-50682983D01*
X97919844Y-50903741D01*
X97928319Y-51009883D01*
X97954632Y-51071873D01*
X98025097Y-51151701D01*
X98290007Y-51258731D01*
X98396148Y-51250257D01*
X98458138Y-51223943D01*
X82749317Y-47463147D02*
X82599024Y-47453783D01*
X82378266Y-47364591D01*
X82307801Y-47284763D01*
X82281488Y-47222773D01*
X82273013Y-47116631D01*
X82308690Y-47028328D01*
X82388518Y-46957863D01*
X82450508Y-46931550D01*
X82556650Y-46923075D01*
X82751095Y-46950277D01*
X82857236Y-46941802D01*
X82919226Y-46915489D01*
X82999055Y-46845024D01*
X83034732Y-46756721D01*
X83026257Y-46650579D01*
X82999944Y-46588589D01*
X82929479Y-46508761D01*
X82708721Y-46419569D01*
X82558428Y-46410205D01*
X82267205Y-46241185D02*
X81671840Y-47079176D01*
X81762810Y-46345549D01*
X81318627Y-46936469D01*
X81472476Y-45920093D01*
X81127738Y-45883528D02*
X81101424Y-45821538D01*
X81030960Y-45741709D01*
X80810202Y-45652517D01*
X80704060Y-45660992D01*
X80642070Y-45687305D01*
X80562241Y-45757770D01*
X80526565Y-45846073D01*
X80517201Y-45996366D01*
X80832959Y-46740247D01*
X80258988Y-46508347D01*
X64270819Y-45177146D02*
X64120526Y-45167782D01*
X63899768Y-45078590D01*
X63829303Y-44998762D01*
X63802990Y-44936772D01*
X63794515Y-44830630D01*
X63830192Y-44742327D01*
X63910020Y-44671862D01*
X63972010Y-44645549D01*
X64078152Y-44637074D01*
X64272597Y-44664276D01*
X64378738Y-44655801D01*
X64440728Y-44629488D01*
X64520557Y-44559023D01*
X64556234Y-44470720D01*
X64547759Y-44364578D01*
X64521446Y-44302588D01*
X64450981Y-44222760D01*
X64230223Y-44133568D01*
X64079930Y-44124204D01*
X63788707Y-43955184D02*
X63193342Y-44793175D01*
X63284312Y-44059548D01*
X62840129Y-44650468D01*
X62993978Y-43634092D01*
X61780490Y-44222346D02*
X62310310Y-44436407D01*
X62045400Y-44329377D02*
X62420007Y-43402193D01*
X62454795Y-43570325D01*
X62507421Y-43694305D01*
X62577886Y-43774133D01*
X149055151Y-120831276D02*
X149055151Y-119831276D01*
X148817056Y-119831276D01*
X148674199Y-119878896D01*
X148578961Y-119974134D01*
X148531342Y-120069372D01*
X148483723Y-120259848D01*
X148483723Y-120402705D01*
X148531342Y-120593181D01*
X148578961Y-120688419D01*
X148674199Y-120783657D01*
X148817056Y-120831276D01*
X149055151Y-120831276D01*
X148150389Y-119831276D02*
X147531342Y-119831276D01*
X147864675Y-120212229D01*
X147721818Y-120212229D01*
X147626580Y-120259848D01*
X147578961Y-120307467D01*
X147531342Y-120402705D01*
X147531342Y-120640800D01*
X147578961Y-120736038D01*
X147626580Y-120783657D01*
X147721818Y-120831276D01*
X148007532Y-120831276D01*
X148102770Y-120783657D01*
X148150389Y-120736038D01*
X146626580Y-119831276D02*
X147102770Y-119831276D01*
X147150389Y-120307467D01*
X147102770Y-120259848D01*
X147007532Y-120212229D01*
X146769437Y-120212229D01*
X146674199Y-120259848D01*
X146626580Y-120307467D01*
X146578961Y-120402705D01*
X146578961Y-120640800D01*
X146626580Y-120736038D01*
X146674199Y-120783657D01*
X146769437Y-120831276D01*
X147007532Y-120831276D01*
X147102770Y-120783657D01*
X147150389Y-120736038D01*
X188421605Y-115310411D02*
X189220241Y-114708596D01*
X189076952Y-114518445D01*
X188952948Y-114433012D01*
X188819572Y-114414267D01*
X188714853Y-114433552D01*
X188534074Y-114510153D01*
X188419983Y-114596127D01*
X188296520Y-114748789D01*
X188249118Y-114844135D01*
X188230373Y-114977511D01*
X188278316Y-115120260D01*
X188421605Y-115310411D01*
X188675742Y-113986021D02*
X188303189Y-113491627D01*
X188199552Y-113987102D01*
X188113579Y-113873011D01*
X188018233Y-113825609D01*
X187951545Y-113816236D01*
X187846826Y-113835522D01*
X187656675Y-113978811D01*
X187609272Y-114074157D01*
X187599900Y-114140845D01*
X187619185Y-114245563D01*
X187791133Y-114473745D01*
X187886478Y-114521148D01*
X187953167Y-114530520D01*
X187521136Y-113007688D02*
X186988712Y-113408898D01*
X187968668Y-112968576D02*
X187541503Y-113588595D01*
X187168951Y-113094202D01*
X167443061Y-126074525D02*
X168079139Y-125302901D01*
X167895419Y-125151454D01*
X167754897Y-125097329D01*
X167620830Y-125110239D01*
X167523507Y-125153437D01*
X167365605Y-125270124D01*
X167274737Y-125380356D01*
X167190323Y-125557621D01*
X167166489Y-125661399D01*
X167179398Y-125795466D01*
X167259340Y-125923078D01*
X167443061Y-126074525D01*
X167381002Y-124727402D02*
X166903330Y-124333639D01*
X166918223Y-124839617D01*
X166807990Y-124748749D01*
X166704213Y-124724914D01*
X166637180Y-124731369D01*
X166539857Y-124774567D01*
X166388409Y-124958287D01*
X166364575Y-125062065D01*
X166371029Y-125129098D01*
X166414228Y-125226421D01*
X166634692Y-125408158D01*
X166738469Y-125431993D01*
X166805503Y-125425538D01*
X166646122Y-124121613D02*
X166168449Y-123727850D01*
X166183342Y-124233828D01*
X166073110Y-124142960D01*
X165969332Y-124119125D01*
X165902299Y-124125580D01*
X165804976Y-124168778D01*
X165653529Y-124352499D01*
X165629694Y-124456276D01*
X165636149Y-124523309D01*
X165679347Y-124620632D01*
X165899811Y-124802369D01*
X166003589Y-124826204D01*
X166070622Y-124819749D01*
X115948563Y-135381909D02*
X115312485Y-134610284D01*
X115128765Y-134761732D01*
X115048822Y-134889344D01*
X115035913Y-135023411D01*
X115059748Y-135127188D01*
X115144161Y-135304454D01*
X115235030Y-135414686D01*
X115392931Y-135531373D01*
X115490254Y-135574571D01*
X115624321Y-135587481D01*
X115764843Y-135533356D01*
X115948563Y-135381909D01*
X114614348Y-135185784D02*
X114136676Y-135579547D01*
X114636199Y-135661473D01*
X114525967Y-135752341D01*
X114482769Y-135849664D01*
X114476314Y-135916697D01*
X114500149Y-136020475D01*
X114651596Y-136204195D01*
X114748919Y-136247394D01*
X114815953Y-136253848D01*
X114919730Y-136230013D01*
X115140194Y-136048277D01*
X115183393Y-135950954D01*
X115189847Y-135883920D01*
X113903302Y-135895350D02*
X113836269Y-135888896D01*
X113732491Y-135912730D01*
X113548771Y-136064178D01*
X113505573Y-136161500D01*
X113499118Y-136228534D01*
X113522953Y-136332311D01*
X113583532Y-136405799D01*
X113711144Y-136485742D01*
X114515546Y-136563197D01*
X114037873Y-136956960D01*
X101048515Y-125302221D02*
X101650330Y-124503586D01*
X101460178Y-124360297D01*
X101317430Y-124312353D01*
X101184053Y-124331098D01*
X101088707Y-124378501D01*
X100936046Y-124501964D01*
X100850072Y-124616055D01*
X100773471Y-124796834D01*
X100754185Y-124901552D01*
X100772930Y-125034928D01*
X100858363Y-125158932D01*
X101048515Y-125302221D01*
X100927755Y-123959087D02*
X100433361Y-123586534D01*
X100470310Y-124091382D01*
X100356219Y-124005408D01*
X100251501Y-123986122D01*
X100184813Y-123995495D01*
X100089467Y-124042898D01*
X99946178Y-124233049D01*
X99926892Y-124337767D01*
X99936265Y-124404455D01*
X99983667Y-124499801D01*
X100211849Y-124671748D01*
X100316567Y-124691034D01*
X100383255Y-124681662D01*
X99070941Y-123812013D02*
X99527304Y-124155907D01*
X99299122Y-123983960D02*
X99900937Y-123185324D01*
X99891024Y-123356731D01*
X99909769Y-123490107D01*
X99957172Y-123585453D01*
X238096939Y-85115330D02*
X239024122Y-84740724D01*
X238934930Y-84519966D01*
X238837264Y-84405349D01*
X238713284Y-84352723D01*
X238607142Y-84344248D01*
X238412697Y-84371450D01*
X238280242Y-84424965D01*
X238121474Y-84540471D01*
X238051009Y-84620299D01*
X237998383Y-84744279D01*
X238007747Y-84894572D01*
X238096939Y-85115330D01*
X238685193Y-83901843D02*
X238453293Y-83327872D01*
X238224949Y-83779641D01*
X238171434Y-83647186D01*
X238091606Y-83576721D01*
X238029616Y-83550408D01*
X237923474Y-83541933D01*
X237702716Y-83631125D01*
X237632251Y-83710954D01*
X237605938Y-83772944D01*
X237597463Y-83879085D01*
X237704494Y-84143995D01*
X237784322Y-84214460D01*
X237846312Y-84240773D01*
X238221394Y-82753901D02*
X238185717Y-82665598D01*
X238105889Y-82595133D01*
X238043899Y-82568820D01*
X237937757Y-82560345D01*
X237743312Y-82587547D01*
X237522554Y-82676739D01*
X237363786Y-82792245D01*
X237293321Y-82872073D01*
X237267008Y-82934063D01*
X237258533Y-83040205D01*
X237294210Y-83128508D01*
X237374039Y-83198973D01*
X237436029Y-83225286D01*
X237542170Y-83233761D01*
X237736615Y-83206559D01*
X237957373Y-83117367D01*
X238116141Y-83001861D01*
X238186606Y-82922033D01*
X238212919Y-82860043D01*
X238221394Y-82753901D01*
X222685158Y-86257127D02*
X223612341Y-85882521D01*
X223523149Y-85661763D01*
X223425483Y-85547146D01*
X223301503Y-85494520D01*
X223195361Y-85486045D01*
X223000916Y-85513247D01*
X222868461Y-85566762D01*
X222709693Y-85682268D01*
X222639228Y-85762096D01*
X222586602Y-85886076D01*
X222595966Y-86036369D01*
X222685158Y-86257127D01*
X223167270Y-85035165D02*
X223193583Y-84973175D01*
X223202058Y-84867034D01*
X223112866Y-84646276D01*
X223033038Y-84575811D01*
X222971048Y-84549498D01*
X222864906Y-84541023D01*
X222776603Y-84576700D01*
X222661986Y-84674367D01*
X222346228Y-85418247D01*
X222114329Y-84844276D01*
X221935944Y-84402760D02*
X221864591Y-84226153D01*
X221873066Y-84120012D01*
X221899379Y-84058022D01*
X221996157Y-83916203D01*
X222154925Y-83800698D01*
X222508138Y-83657991D01*
X222614279Y-83666466D01*
X222676269Y-83692779D01*
X222756098Y-83763244D01*
X222827451Y-83939850D01*
X222818977Y-84045992D01*
X222792663Y-84107982D01*
X222722199Y-84187810D01*
X222501441Y-84277002D01*
X222395299Y-84268527D01*
X222333309Y-84242214D01*
X222253481Y-84171749D01*
X222182127Y-83995143D01*
X222190602Y-83889001D01*
X222216915Y-83827011D01*
X222287380Y-83747183D01*
X205095658Y-90765628D02*
X206022841Y-90391022D01*
X205933649Y-90170264D01*
X205835983Y-90055647D01*
X205712003Y-90003021D01*
X205605861Y-89994546D01*
X205411416Y-90021748D01*
X205278961Y-90075263D01*
X205120193Y-90190769D01*
X205049728Y-90270597D01*
X204997102Y-90394577D01*
X205006466Y-90544870D01*
X205095658Y-90765628D01*
X205577770Y-89543666D02*
X205604083Y-89481676D01*
X205612558Y-89375535D01*
X205523366Y-89154777D01*
X205443538Y-89084312D01*
X205381548Y-89057999D01*
X205275406Y-89049524D01*
X205187103Y-89085201D01*
X205072486Y-89182868D01*
X204756728Y-89926748D01*
X204524829Y-89352777D01*
X204840587Y-88608897D02*
X204920415Y-88679361D01*
X204982405Y-88705675D01*
X205088547Y-88714149D01*
X205132699Y-88696311D01*
X205203163Y-88616483D01*
X205229477Y-88554493D01*
X205237951Y-88448351D01*
X205166598Y-88271745D01*
X205086769Y-88201280D01*
X205024779Y-88174967D01*
X204918638Y-88166492D01*
X204874486Y-88184330D01*
X204804021Y-88264159D01*
X204777708Y-88326149D01*
X204769233Y-88432290D01*
X204840587Y-88608897D01*
X204832112Y-88715038D01*
X204805799Y-88777028D01*
X204735334Y-88856857D01*
X204558728Y-88928210D01*
X204452586Y-88919736D01*
X204390596Y-88893422D01*
X204310768Y-88822958D01*
X204239414Y-88646351D01*
X204247889Y-88540209D01*
X204274202Y-88478219D01*
X204344667Y-88398391D01*
X204521273Y-88327037D01*
X204627415Y-88335512D01*
X204689405Y-88361825D01*
X204769233Y-88432290D01*
X189347661Y-99719129D02*
X190274844Y-99344523D01*
X190185652Y-99123765D01*
X190087986Y-99009148D01*
X189964006Y-98956522D01*
X189857864Y-98948047D01*
X189663419Y-98975249D01*
X189530964Y-99028764D01*
X189372196Y-99144270D01*
X189301731Y-99224098D01*
X189249105Y-99348078D01*
X189258469Y-99498371D01*
X189347661Y-99719129D01*
X189829773Y-98497167D02*
X189856086Y-98435177D01*
X189864561Y-98329036D01*
X189775369Y-98108278D01*
X189695541Y-98037813D01*
X189633551Y-98011500D01*
X189527409Y-98003025D01*
X189439106Y-98038702D01*
X189324489Y-98136369D01*
X189008731Y-98880249D01*
X188776832Y-98306278D01*
X189579147Y-97622610D02*
X189329409Y-97004487D01*
X188562771Y-97776459D01*
X173536159Y-108672623D02*
X174463342Y-108298017D01*
X174374150Y-108077259D01*
X174276484Y-107962642D01*
X174152504Y-107910016D01*
X174046362Y-107901541D01*
X173851917Y-107928743D01*
X173719462Y-107982258D01*
X173560694Y-108097764D01*
X173490229Y-108177592D01*
X173437603Y-108301572D01*
X173446967Y-108451865D01*
X173536159Y-108672623D01*
X174018271Y-107450661D02*
X174044584Y-107388671D01*
X174053059Y-107282530D01*
X173963867Y-107061772D01*
X173884039Y-106991307D01*
X173822049Y-106964994D01*
X173715907Y-106956519D01*
X173627604Y-106992196D01*
X173512987Y-107089863D01*
X173197229Y-107833743D01*
X172965330Y-107259772D01*
X173571422Y-106090436D02*
X173642776Y-106267043D01*
X173634301Y-106373184D01*
X173607988Y-106435174D01*
X173511210Y-106576993D01*
X173352442Y-106692498D01*
X172999229Y-106835205D01*
X172893087Y-106826731D01*
X172831097Y-106800417D01*
X172751269Y-106729953D01*
X172679915Y-106553346D01*
X172688390Y-106447204D01*
X172714703Y-106385214D01*
X172785168Y-106305386D01*
X173005926Y-106216194D01*
X173112067Y-106224669D01*
X173174058Y-106250982D01*
X173253886Y-106321447D01*
X173325240Y-106498053D01*
X173316765Y-106604195D01*
X173290452Y-106666185D01*
X173219987Y-106746013D01*
X119447540Y-114070596D02*
X118520356Y-113695990D01*
X118431164Y-113916748D01*
X118421801Y-114067041D01*
X118474427Y-114191021D01*
X118544892Y-114270849D01*
X118703660Y-114386355D01*
X118836115Y-114439870D01*
X119030560Y-114467072D01*
X119136701Y-114458597D01*
X119260681Y-114405971D01*
X119358348Y-114291354D01*
X119447540Y-114070596D01*
X118251891Y-114614699D02*
X118189901Y-114641012D01*
X118110073Y-114711477D01*
X118020881Y-114932235D01*
X118029356Y-115038376D01*
X118055669Y-115100366D01*
X118126134Y-115180195D01*
X118214437Y-115215872D01*
X118364730Y-115225235D01*
X119108610Y-114909477D01*
X118876711Y-115483448D01*
X117610598Y-115947722D02*
X117788982Y-115506206D01*
X118248336Y-115640438D01*
X118186346Y-115666751D01*
X118106518Y-115737216D01*
X118017326Y-115957974D01*
X118025800Y-116064116D01*
X118052114Y-116126106D01*
X118122578Y-116205934D01*
X118343337Y-116295126D01*
X118449478Y-116286652D01*
X118511468Y-116260338D01*
X118591297Y-116189874D01*
X118680489Y-115969116D01*
X118672014Y-115862974D01*
X118645701Y-115800984D01*
X103572541Y-105180604D02*
X102645357Y-104805998D01*
X102556165Y-105026756D01*
X102546802Y-105177049D01*
X102599428Y-105301029D01*
X102669893Y-105380857D01*
X102828661Y-105496363D01*
X102961116Y-105549878D01*
X103155561Y-105577080D01*
X103261702Y-105568605D01*
X103385682Y-105515979D01*
X103483349Y-105401362D01*
X103572541Y-105180604D01*
X102376892Y-105724707D02*
X102314902Y-105751020D01*
X102235074Y-105821485D01*
X102145882Y-106042243D01*
X102154357Y-106148384D01*
X102180670Y-106210374D01*
X102251135Y-106290203D01*
X102339438Y-106325880D01*
X102489731Y-106335243D01*
X103233611Y-106019485D01*
X103001712Y-106593456D01*
X102062498Y-107138447D02*
X102680621Y-107388185D01*
X101798477Y-106774982D02*
X102549944Y-106821800D01*
X102318044Y-107395771D01*
X87761039Y-96227099D02*
X86833855Y-95852493D01*
X86744663Y-96073251D01*
X86735300Y-96223544D01*
X86787926Y-96347524D01*
X86858391Y-96427352D01*
X87017159Y-96542858D01*
X87149614Y-96596373D01*
X87344059Y-96623575D01*
X87450200Y-96615100D01*
X87574180Y-96562474D01*
X87671847Y-96447857D01*
X87761039Y-96227099D01*
X86565390Y-96771202D02*
X86503400Y-96797515D01*
X86423572Y-96867980D01*
X86334380Y-97088738D01*
X86342855Y-97194879D01*
X86369168Y-97256869D01*
X86439633Y-97336698D01*
X86527936Y-97372375D01*
X86678229Y-97381738D01*
X87422109Y-97065980D01*
X87190210Y-97639951D01*
X86138157Y-97574406D02*
X85906258Y-98148377D01*
X86384340Y-97982023D01*
X86330825Y-98114477D01*
X86339299Y-98220619D01*
X86365613Y-98282609D01*
X86436077Y-98362437D01*
X86656836Y-98451629D01*
X86762977Y-98443155D01*
X86824967Y-98416841D01*
X86904796Y-98346377D01*
X87011826Y-98081467D01*
X87003351Y-97975325D01*
X86977038Y-97913335D01*
X70171540Y-91718596D02*
X69244356Y-91343990D01*
X69155164Y-91564748D01*
X69145801Y-91715041D01*
X69198427Y-91839021D01*
X69268892Y-91918849D01*
X69427660Y-92034355D01*
X69560115Y-92087870D01*
X69754560Y-92115072D01*
X69860701Y-92106597D01*
X69984681Y-92053971D01*
X70082348Y-91939354D01*
X70171540Y-91718596D01*
X68975891Y-92262699D02*
X68913901Y-92289012D01*
X68834073Y-92359477D01*
X68744881Y-92580235D01*
X68753356Y-92686376D01*
X68779669Y-92748366D01*
X68850134Y-92828195D01*
X68938437Y-92863872D01*
X69088730Y-92873235D01*
X69832610Y-92557477D01*
X69600711Y-93131448D01*
X68619123Y-93145731D02*
X68557133Y-93172044D01*
X68477305Y-93242509D01*
X68388113Y-93463267D01*
X68396588Y-93569409D01*
X68422901Y-93631399D01*
X68493366Y-93711227D01*
X68581669Y-93746904D01*
X68731962Y-93756268D01*
X69475842Y-93440509D01*
X69243943Y-94014480D01*
X51693040Y-89369099D02*
X50765856Y-88994493D01*
X50676664Y-89215251D01*
X50667301Y-89365544D01*
X50719927Y-89489524D01*
X50790392Y-89569352D01*
X50949160Y-89684858D01*
X51081615Y-89738373D01*
X51276060Y-89765575D01*
X51382201Y-89757100D01*
X51506181Y-89704474D01*
X51603848Y-89589857D01*
X51693040Y-89369099D01*
X50497391Y-89913202D02*
X50435401Y-89939515D01*
X50355573Y-90009980D01*
X50266381Y-90230738D01*
X50274856Y-90336879D01*
X50301169Y-90398869D01*
X50371634Y-90478698D01*
X50459937Y-90514375D01*
X50610230Y-90523738D01*
X51354110Y-90207980D01*
X51122211Y-90781951D01*
X50765443Y-91664983D02*
X50979504Y-91135164D01*
X50872473Y-91400073D02*
X49945290Y-91025467D01*
X50113421Y-90990679D01*
X50237401Y-90938052D01*
X50317230Y-90867588D01*
X231619939Y-69494330D02*
X232547122Y-69119724D01*
X232457930Y-68898966D01*
X232360264Y-68784349D01*
X232236284Y-68731723D01*
X232130142Y-68723248D01*
X231935697Y-68750450D01*
X231803242Y-68803965D01*
X231644474Y-68919471D01*
X231574009Y-68999299D01*
X231521383Y-69123279D01*
X231530747Y-69273572D01*
X231619939Y-69494330D01*
X232102051Y-68272368D02*
X232128364Y-68210378D01*
X232136839Y-68104237D01*
X232047647Y-67883479D01*
X231967819Y-67813014D01*
X231905829Y-67786701D01*
X231799687Y-67778226D01*
X231711384Y-67813903D01*
X231596767Y-67911570D01*
X231281009Y-68655450D01*
X231049110Y-68081479D01*
X231744394Y-67132901D02*
X231708717Y-67044598D01*
X231628889Y-66974133D01*
X231566899Y-66947820D01*
X231460757Y-66939345D01*
X231266312Y-66966547D01*
X231045554Y-67055739D01*
X230886786Y-67171245D01*
X230816321Y-67251073D01*
X230790008Y-67313063D01*
X230781533Y-67419205D01*
X230817210Y-67507508D01*
X230897039Y-67577973D01*
X230959029Y-67604286D01*
X231065170Y-67612761D01*
X231259615Y-67585559D01*
X231480373Y-67496367D01*
X231639141Y-67380861D01*
X231709606Y-67301033D01*
X231735919Y-67239043D01*
X231744394Y-67132901D01*
X216335161Y-70445634D02*
X217262344Y-70071028D01*
X217173152Y-69850270D01*
X217075486Y-69735653D01*
X216951506Y-69683027D01*
X216845364Y-69674552D01*
X216650919Y-69701754D01*
X216518464Y-69755269D01*
X216359696Y-69870775D01*
X216289231Y-69950603D01*
X216236605Y-70074583D01*
X216245969Y-70224876D01*
X216335161Y-70445634D01*
X215764332Y-69032783D02*
X215978392Y-69562602D01*
X215871362Y-69297693D02*
X216798546Y-68923086D01*
X216701768Y-69064904D01*
X216649141Y-69188884D01*
X216640667Y-69295026D01*
X215585947Y-68591267D02*
X215514594Y-68414660D01*
X215523069Y-68308519D01*
X215549382Y-68246529D01*
X215646160Y-68104710D01*
X215804928Y-67989205D01*
X216158141Y-67846498D01*
X216264282Y-67854973D01*
X216326272Y-67881286D01*
X216406101Y-67951751D01*
X216477454Y-68128357D01*
X216468980Y-68234499D01*
X216442666Y-68296489D01*
X216372202Y-68376317D01*
X216151444Y-68465509D01*
X216045302Y-68457034D01*
X215983312Y-68430721D01*
X215903484Y-68360256D01*
X215832130Y-68183650D01*
X215840605Y-68077508D01*
X215866918Y-68015518D01*
X215937383Y-67935690D01*
X198745660Y-75017628D02*
X199672843Y-74643022D01*
X199583651Y-74422264D01*
X199485985Y-74307647D01*
X199362005Y-74255021D01*
X199255863Y-74246546D01*
X199061418Y-74273748D01*
X198928963Y-74327263D01*
X198770195Y-74442769D01*
X198699730Y-74522597D01*
X198647104Y-74646577D01*
X198656468Y-74796870D01*
X198745660Y-75017628D01*
X198174831Y-73604777D02*
X198388891Y-74134596D01*
X198281861Y-73869687D02*
X199209045Y-73495080D01*
X199112267Y-73636898D01*
X199059640Y-73760878D01*
X199051166Y-73867020D01*
X198490589Y-72860897D02*
X198570417Y-72931361D01*
X198632407Y-72957675D01*
X198738549Y-72966149D01*
X198782701Y-72948311D01*
X198853165Y-72868483D01*
X198879479Y-72806493D01*
X198887953Y-72700351D01*
X198816600Y-72523745D01*
X198736771Y-72453280D01*
X198674781Y-72426967D01*
X198568640Y-72418492D01*
X198524488Y-72436330D01*
X198454023Y-72516159D01*
X198427710Y-72578149D01*
X198419235Y-72684290D01*
X198490589Y-72860897D01*
X198482114Y-72967038D01*
X198455801Y-73029028D01*
X198385336Y-73108857D01*
X198208730Y-73180210D01*
X198102588Y-73171736D01*
X198040598Y-73145422D01*
X197960770Y-73074958D01*
X197889416Y-72898351D01*
X197897891Y-72792209D01*
X197924204Y-72730219D01*
X197994669Y-72650391D01*
X198171275Y-72579037D01*
X198277417Y-72587512D01*
X198339407Y-72613825D01*
X198419235Y-72684290D01*
X182997659Y-83971129D02*
X183924842Y-83596523D01*
X183835650Y-83375765D01*
X183737984Y-83261148D01*
X183614004Y-83208522D01*
X183507862Y-83200047D01*
X183313417Y-83227249D01*
X183180962Y-83280764D01*
X183022194Y-83396270D01*
X182951729Y-83476098D01*
X182899103Y-83600078D01*
X182908467Y-83750371D01*
X182997659Y-83971129D01*
X182426830Y-82558278D02*
X182640890Y-83088097D01*
X182533860Y-82823188D02*
X183461044Y-82448581D01*
X183364266Y-82590399D01*
X183311639Y-82714379D01*
X183303165Y-82820521D01*
X183229145Y-81874610D02*
X182979407Y-81256487D01*
X182212769Y-82028459D01*
X167122658Y-92861130D02*
X168049841Y-92486524D01*
X167960649Y-92265766D01*
X167862983Y-92151149D01*
X167739003Y-92098523D01*
X167632861Y-92090048D01*
X167438416Y-92117250D01*
X167305961Y-92170765D01*
X167147193Y-92286271D01*
X167076728Y-92366099D01*
X167024102Y-92490079D01*
X167033466Y-92640372D01*
X167122658Y-92861130D01*
X166551829Y-91448279D02*
X166765889Y-91978098D01*
X166658859Y-91713189D02*
X167586043Y-91338582D01*
X167489265Y-91480400D01*
X167436638Y-91604380D01*
X167428164Y-91710522D01*
X167157921Y-90278943D02*
X167229275Y-90455550D01*
X167220800Y-90561691D01*
X167194487Y-90623681D01*
X167097709Y-90765500D01*
X166938941Y-90881005D01*
X166585728Y-91023712D01*
X166479586Y-91015238D01*
X166417596Y-90988924D01*
X166337768Y-90918460D01*
X166266414Y-90741853D01*
X166274889Y-90635711D01*
X166301202Y-90573721D01*
X166371667Y-90493893D01*
X166592425Y-90404701D01*
X166698566Y-90413176D01*
X166760557Y-90439489D01*
X166840385Y-90509954D01*
X166911739Y-90686560D01*
X166903264Y-90792702D01*
X166876951Y-90854692D01*
X166806486Y-90934520D01*
X125734038Y-98386099D02*
X124806854Y-98011493D01*
X124717662Y-98232251D01*
X124708299Y-98382544D01*
X124760925Y-98506524D01*
X124831390Y-98586352D01*
X124990158Y-98701858D01*
X125122613Y-98755373D01*
X125317058Y-98782575D01*
X125423199Y-98774100D01*
X125547179Y-98721474D01*
X125644846Y-98606857D01*
X125734038Y-98386099D01*
X125163209Y-99798951D02*
X125377270Y-99269132D01*
X125270240Y-99534041D02*
X124343056Y-99159435D01*
X124511187Y-99124647D01*
X124635167Y-99072020D01*
X124714996Y-99001555D01*
X123897096Y-100263225D02*
X124075480Y-99821709D01*
X124534834Y-99955941D01*
X124472844Y-99982254D01*
X124393016Y-100052719D01*
X124303824Y-100273477D01*
X124312298Y-100379619D01*
X124338612Y-100441609D01*
X124409076Y-100521437D01*
X124629835Y-100610629D01*
X124735976Y-100602155D01*
X124797966Y-100575841D01*
X124877795Y-100505377D01*
X124966987Y-100284619D01*
X124958512Y-100178477D01*
X124932199Y-100116487D01*
X109922535Y-89432598D02*
X108995351Y-89057992D01*
X108906159Y-89278750D01*
X108896796Y-89429043D01*
X108949422Y-89553023D01*
X109019887Y-89632851D01*
X109178655Y-89748357D01*
X109311110Y-89801872D01*
X109505555Y-89829074D01*
X109611696Y-89820599D01*
X109735676Y-89767973D01*
X109833343Y-89653356D01*
X109922535Y-89432598D01*
X109351706Y-90845450D02*
X109565767Y-90315631D01*
X109458737Y-90580540D02*
X108531553Y-90205934D01*
X108699684Y-90171146D01*
X108823664Y-90118519D01*
X108903493Y-90048054D01*
X108412492Y-91390441D02*
X109030615Y-91640179D01*
X108148471Y-91026976D02*
X108899938Y-91073794D01*
X108668038Y-91647765D01*
X94171567Y-80476961D02*
X93244383Y-80102355D01*
X93155191Y-80323113D01*
X93145828Y-80473406D01*
X93198454Y-80597386D01*
X93268919Y-80677214D01*
X93427687Y-80792720D01*
X93560142Y-80846235D01*
X93754587Y-80873437D01*
X93860728Y-80864962D01*
X93984708Y-80812336D01*
X94082375Y-80697719D01*
X94171567Y-80476961D01*
X93600738Y-81889813D02*
X93814799Y-81359994D01*
X93707769Y-81624903D02*
X92780585Y-81250297D01*
X92948716Y-81215509D01*
X93072696Y-81162882D01*
X93152525Y-81092417D01*
X92548685Y-81824268D02*
X92316786Y-82398239D01*
X92794868Y-82231885D01*
X92741353Y-82364339D01*
X92749827Y-82470481D01*
X92776141Y-82532471D01*
X92846605Y-82612299D01*
X93067364Y-82701491D01*
X93173505Y-82693017D01*
X93235495Y-82666703D01*
X93315324Y-82596239D01*
X93422354Y-82331329D01*
X93413879Y-82225187D01*
X93387566Y-82163197D01*
X76582065Y-75841463D02*
X75654881Y-75466857D01*
X75565689Y-75687615D01*
X75556326Y-75837908D01*
X75608952Y-75961888D01*
X75679417Y-76041716D01*
X75838185Y-76157222D01*
X75970640Y-76210737D01*
X76165085Y-76237939D01*
X76271226Y-76229464D01*
X76395206Y-76176838D01*
X76492873Y-76062221D01*
X76582065Y-75841463D01*
X76011236Y-77254315D02*
X76225297Y-76724496D01*
X76118267Y-76989405D02*
X75191083Y-76614799D01*
X75359214Y-76580011D01*
X75483194Y-76527384D01*
X75563023Y-76456919D01*
X75029648Y-77268598D02*
X74967658Y-77294911D01*
X74887830Y-77365376D01*
X74798638Y-77586134D01*
X74807113Y-77692276D01*
X74833426Y-77754266D01*
X74903891Y-77834094D01*
X74992194Y-77869771D01*
X75142487Y-77879135D01*
X75886367Y-77563376D01*
X75654468Y-78137347D01*
X58106539Y-73557595D02*
X57179355Y-73182989D01*
X57090163Y-73403747D01*
X57080800Y-73554040D01*
X57133426Y-73678020D01*
X57203891Y-73757848D01*
X57362659Y-73873354D01*
X57495114Y-73926869D01*
X57689559Y-73954071D01*
X57795700Y-73945596D01*
X57919680Y-73892970D01*
X58017347Y-73778353D01*
X58106539Y-73557595D01*
X57535710Y-74970447D02*
X57749771Y-74440628D01*
X57642741Y-74705537D02*
X56715557Y-74330931D01*
X56883688Y-74296143D01*
X57007668Y-74243516D01*
X57087497Y-74173051D01*
X57178942Y-75853479D02*
X57393003Y-75323660D01*
X57285972Y-75588569D02*
X56358789Y-75213963D01*
X56526920Y-75179175D01*
X56650900Y-75126548D01*
X56730729Y-75056084D01*
X225333439Y-53619330D02*
X226260622Y-53244724D01*
X226171430Y-53023966D01*
X226073764Y-52909349D01*
X225949784Y-52856723D01*
X225843642Y-52848248D01*
X225649197Y-52875450D01*
X225516742Y-52928965D01*
X225357974Y-53044471D01*
X225287509Y-53124299D01*
X225234883Y-53248279D01*
X225244247Y-53398572D01*
X225333439Y-53619330D01*
X224762610Y-52206479D02*
X224976670Y-52736298D01*
X224869640Y-52471389D02*
X225796824Y-52096782D01*
X225700046Y-52238600D01*
X225647419Y-52362580D01*
X225638945Y-52468722D01*
X225457894Y-51257901D02*
X225422217Y-51169598D01*
X225342389Y-51099133D01*
X225280399Y-51072820D01*
X225174257Y-51064345D01*
X224979812Y-51091547D01*
X224759054Y-51180739D01*
X224600286Y-51296245D01*
X224529821Y-51376073D01*
X224503508Y-51438063D01*
X224495033Y-51544205D01*
X224530710Y-51632508D01*
X224610539Y-51702973D01*
X224672529Y-51729286D01*
X224778670Y-51737761D01*
X224973115Y-51710559D01*
X225193873Y-51621367D01*
X225352641Y-51505861D01*
X225423106Y-51426033D01*
X225449419Y-51364043D01*
X225457894Y-51257901D01*
X209806774Y-54256111D02*
X210733957Y-53881505D01*
X210644765Y-53660747D01*
X210547098Y-53546130D01*
X210423118Y-53493504D01*
X210316977Y-53485029D01*
X210122532Y-53512231D01*
X209990077Y-53565746D01*
X209831309Y-53681252D01*
X209760844Y-53761080D01*
X209708218Y-53885060D01*
X209717581Y-54035353D01*
X209806774Y-54256111D01*
X209414329Y-53284776D02*
X209342975Y-53108169D01*
X209351450Y-53002028D01*
X209377763Y-52940038D01*
X209474541Y-52798219D01*
X209633309Y-52682714D01*
X209986522Y-52540007D01*
X210092663Y-52548482D01*
X210154653Y-52574795D01*
X210234482Y-52645260D01*
X210305836Y-52821866D01*
X210297361Y-52928008D01*
X210271048Y-52989998D01*
X210200583Y-53069826D01*
X209979825Y-53159018D01*
X209873683Y-53150543D01*
X209811693Y-53124230D01*
X209731865Y-53053765D01*
X209660511Y-52877159D01*
X209668986Y-52771017D01*
X209695299Y-52709027D01*
X209765764Y-52629199D01*
X192217276Y-58764613D02*
X193144459Y-58390007D01*
X193055267Y-58169249D01*
X192957600Y-58054632D01*
X192833620Y-58002006D01*
X192727479Y-57993531D01*
X192533034Y-58020733D01*
X192400579Y-58074248D01*
X192241811Y-58189754D01*
X192171346Y-58269582D01*
X192118720Y-58393562D01*
X192128083Y-58543855D01*
X192217276Y-58764613D01*
X192318973Y-57490914D02*
X192398801Y-57561379D01*
X192460792Y-57587692D01*
X192566933Y-57596167D01*
X192611085Y-57578328D01*
X192681550Y-57498500D01*
X192707863Y-57436510D01*
X192716338Y-57330368D01*
X192644984Y-57153762D01*
X192565155Y-57083297D01*
X192503165Y-57056984D01*
X192397024Y-57048509D01*
X192352872Y-57066347D01*
X192282407Y-57146176D01*
X192256094Y-57208166D01*
X192247619Y-57314307D01*
X192318973Y-57490914D01*
X192310498Y-57597055D01*
X192284185Y-57659045D01*
X192213720Y-57738874D01*
X192037114Y-57810227D01*
X191930972Y-57801753D01*
X191868982Y-57775439D01*
X191789154Y-57704975D01*
X191717800Y-57528368D01*
X191726275Y-57422227D01*
X191752588Y-57360237D01*
X191823053Y-57280408D01*
X191999659Y-57209055D01*
X192105801Y-57217529D01*
X192167791Y-57243843D01*
X192247619Y-57314307D01*
X176469271Y-67718110D02*
X177396454Y-67343504D01*
X177307262Y-67122746D01*
X177209595Y-67008129D01*
X177085615Y-66955503D01*
X176979474Y-66947028D01*
X176785029Y-66974230D01*
X176652574Y-67027745D01*
X176493806Y-67143251D01*
X176423341Y-67223079D01*
X176370715Y-67347059D01*
X176380078Y-67497352D01*
X176469271Y-67718110D01*
X177057525Y-66504623D02*
X176807787Y-65886501D01*
X176041149Y-66658472D01*
X160594277Y-76671611D02*
X161521460Y-76297005D01*
X161432268Y-76076247D01*
X161334601Y-75961630D01*
X161210621Y-75909004D01*
X161104480Y-75900529D01*
X160910035Y-75927731D01*
X160777580Y-75981246D01*
X160618812Y-76096752D01*
X160548347Y-76176580D01*
X160495721Y-76300560D01*
X160505084Y-76450853D01*
X160594277Y-76671611D01*
X160986308Y-74972456D02*
X161057662Y-75149063D01*
X161049187Y-75255205D01*
X161022874Y-75317195D01*
X160926096Y-75459013D01*
X160767328Y-75574518D01*
X160414115Y-75717225D01*
X160307973Y-75708751D01*
X160245983Y-75682437D01*
X160166155Y-75611973D01*
X160094801Y-75435366D01*
X160103276Y-75329225D01*
X160129589Y-75267235D01*
X160200054Y-75187406D01*
X160420812Y-75098214D01*
X160526954Y-75106689D01*
X160588944Y-75133002D01*
X160668772Y-75203467D01*
X160740126Y-75380073D01*
X160731651Y-75486215D01*
X160705338Y-75548205D01*
X160634873Y-75628033D01*
X131905654Y-83016115D02*
X130978470Y-82641509D01*
X130889278Y-82862267D01*
X130879915Y-83012560D01*
X130932541Y-83136540D01*
X131003006Y-83216369D01*
X131161774Y-83331874D01*
X131294229Y-83385389D01*
X131488674Y-83412591D01*
X131594815Y-83404116D01*
X131718795Y-83351490D01*
X131816462Y-83236873D01*
X131905654Y-83016115D01*
X130425480Y-84010209D02*
X130603864Y-83568693D01*
X131063218Y-83702925D01*
X131001228Y-83729238D01*
X130921400Y-83799703D01*
X130832208Y-84020461D01*
X130840683Y-84126603D01*
X130866996Y-84188593D01*
X130937461Y-84268421D01*
X131158219Y-84357613D01*
X131264360Y-84349139D01*
X131326350Y-84322825D01*
X131406179Y-84252361D01*
X131495371Y-84031602D01*
X131486896Y-83925461D01*
X131460583Y-83863471D01*
X116157652Y-74062613D02*
X115230468Y-73688007D01*
X115141276Y-73908765D01*
X115131913Y-74059058D01*
X115184539Y-74183038D01*
X115255004Y-74262867D01*
X115413772Y-74378372D01*
X115546227Y-74431887D01*
X115740672Y-74459089D01*
X115846813Y-74450614D01*
X115970793Y-74397988D01*
X116068460Y-74283371D01*
X116157652Y-74062613D01*
X115004377Y-75137424D02*
X115622500Y-75387162D01*
X114740356Y-74773959D02*
X115491823Y-74820777D01*
X115259923Y-75394748D01*
X100346155Y-65109115D02*
X99418971Y-64734509D01*
X99329779Y-64955267D01*
X99320416Y-65105560D01*
X99373042Y-65229540D01*
X99443507Y-65309369D01*
X99602275Y-65424874D01*
X99734730Y-65478389D01*
X99929175Y-65505591D01*
X100035316Y-65497116D01*
X100159296Y-65444490D01*
X100256963Y-65329873D01*
X100346155Y-65109115D01*
X99080042Y-65573389D02*
X98848142Y-66147360D01*
X99326224Y-65981006D01*
X99272709Y-66113461D01*
X99281184Y-66219603D01*
X99307497Y-66281593D01*
X99377962Y-66361421D01*
X99598720Y-66450613D01*
X99704861Y-66442139D01*
X99766851Y-66415825D01*
X99846680Y-66345361D01*
X99953710Y-66080451D01*
X99945235Y-65974309D01*
X99918922Y-65912319D01*
X82820156Y-60600615D02*
X81892972Y-60226009D01*
X81803780Y-60446767D01*
X81794417Y-60597060D01*
X81847043Y-60721040D01*
X81917508Y-60800869D01*
X82076276Y-60916374D01*
X82208731Y-60969889D01*
X82403176Y-60997091D01*
X82509317Y-60988616D01*
X82633297Y-60935990D01*
X82730964Y-60821373D01*
X82820156Y-60600615D01*
X81624507Y-61144718D02*
X81562517Y-61171031D01*
X81482689Y-61241496D01*
X81393497Y-61462254D01*
X81401972Y-61568396D01*
X81428285Y-61630386D01*
X81498750Y-61710214D01*
X81587053Y-61745891D01*
X81737346Y-61755254D01*
X82481226Y-61439496D01*
X82249327Y-62013467D01*
X64341655Y-58314613D02*
X63414471Y-57940007D01*
X63325279Y-58160765D01*
X63315916Y-58311058D01*
X63368542Y-58435038D01*
X63439007Y-58514867D01*
X63597775Y-58630372D01*
X63730230Y-58683887D01*
X63924675Y-58711089D01*
X64030816Y-58702614D01*
X64154796Y-58649988D01*
X64252463Y-58535371D01*
X64341655Y-58314613D01*
X63770826Y-59727465D02*
X63984887Y-59197646D01*
X63877857Y-59462555D02*
X62950673Y-59087949D01*
X63118804Y-59053161D01*
X63242784Y-59000534D01*
X63322613Y-58930070D01*
M02*
