G04 #@! TF.GenerationSoftware,KiCad,Pcbnew,(5.1.9-0-10_14)*
G04 #@! TF.CreationDate,2021-02-24T21:06:59-06:00*
G04 #@! TF.ProjectId,micro_redox_semi_split,6d696372-6f5f-4726-9564-6f785f73656d,rev?*
G04 #@! TF.SameCoordinates,Original*
G04 #@! TF.FileFunction,Legend,Top*
G04 #@! TF.FilePolarity,Positive*
%FSLAX46Y46*%
G04 Gerber Fmt 4.6, Leading zero omitted, Abs format (unit mm)*
G04 Created by KiCad (PCBNEW (5.1.9-0-10_14)) date 2021-02-24 21:06:59*
%MOMM*%
%LPD*%
G01*
G04 APERTURE LIST*
%ADD10C,0.050000*%
%ADD11C,0.300000*%
%ADD12C,0.150000*%
%ADD13C,0.120000*%
%ADD14C,0.200000*%
G04 APERTURE END LIST*
D10*
X133562459Y-106023552D02*
X133562459Y-106237838D01*
X133538649Y-106280695D01*
X133491030Y-106309266D01*
X133419602Y-106323552D01*
X133371983Y-106323552D01*
X134038649Y-106323552D02*
X133800554Y-106323552D01*
X133800554Y-106023552D01*
X134491030Y-106294980D02*
X134467221Y-106309266D01*
X134395792Y-106323552D01*
X134348173Y-106323552D01*
X134276744Y-106309266D01*
X134229125Y-106280695D01*
X134205316Y-106252123D01*
X134181506Y-106194980D01*
X134181506Y-106152123D01*
X134205316Y-106094980D01*
X134229125Y-106066409D01*
X134276744Y-106037838D01*
X134348173Y-106023552D01*
X134395792Y-106023552D01*
X134467221Y-106037838D01*
X134491030Y-106052123D01*
X134848173Y-106023552D02*
X134848173Y-106237838D01*
X134824363Y-106280695D01*
X134776744Y-106309266D01*
X134705316Y-106323552D01*
X134657697Y-106323552D01*
X135324363Y-106323552D02*
X135086268Y-106323552D01*
X135086268Y-106023552D01*
X135776744Y-106294980D02*
X135752935Y-106309266D01*
X135681506Y-106323552D01*
X135633887Y-106323552D01*
X135562459Y-106309266D01*
X135514840Y-106280695D01*
X135491030Y-106252123D01*
X135467221Y-106194980D01*
X135467221Y-106152123D01*
X135491030Y-106094980D01*
X135514840Y-106066409D01*
X135562459Y-106037838D01*
X135633887Y-106023552D01*
X135681506Y-106023552D01*
X135752935Y-106037838D01*
X135776744Y-106052123D01*
X136133887Y-106023552D02*
X136133887Y-106237838D01*
X136110078Y-106280695D01*
X136062459Y-106309266D01*
X135991030Y-106323552D01*
X135943411Y-106323552D01*
X136610078Y-106323552D02*
X136371983Y-106323552D01*
X136371983Y-106023552D01*
X137062459Y-106294980D02*
X137038649Y-106309266D01*
X136967221Y-106323552D01*
X136919602Y-106323552D01*
X136848173Y-106309266D01*
X136800554Y-106280695D01*
X136776744Y-106252123D01*
X136752935Y-106194980D01*
X136752935Y-106152123D01*
X136776744Y-106094980D01*
X136800554Y-106066409D01*
X136848173Y-106037838D01*
X136919602Y-106023552D01*
X136967221Y-106023552D01*
X137038649Y-106037838D01*
X137062459Y-106052123D01*
X137419602Y-106023552D02*
X137419602Y-106237838D01*
X137395792Y-106280695D01*
X137348173Y-106309266D01*
X137276744Y-106323552D01*
X137229125Y-106323552D01*
X137895792Y-106323552D02*
X137657697Y-106323552D01*
X137657697Y-106023552D01*
X138348173Y-106294980D02*
X138324363Y-106309266D01*
X138252935Y-106323552D01*
X138205316Y-106323552D01*
X138133887Y-106309266D01*
X138086268Y-106280695D01*
X138062459Y-106252123D01*
X138038649Y-106194980D01*
X138038649Y-106152123D01*
X138062459Y-106094980D01*
X138086268Y-106066409D01*
X138133887Y-106037838D01*
X138205316Y-106023552D01*
X138252935Y-106023552D01*
X138324363Y-106037838D01*
X138348173Y-106052123D01*
D11*
X60206953Y-99864609D02*
X60581560Y-98937425D01*
X60528045Y-99069880D02*
X60621030Y-99030411D01*
X60780242Y-99017698D01*
X60978924Y-99097971D01*
X61084621Y-99217714D01*
X61097334Y-99376926D01*
X60803000Y-100105428D01*
X61097334Y-99376926D02*
X61217076Y-99271229D01*
X61376289Y-99258517D01*
X61574971Y-99338790D01*
X61680668Y-99458532D01*
X61693380Y-99617745D01*
X61399047Y-100346246D01*
X62061321Y-100613823D02*
X62435927Y-99686639D01*
X62623231Y-99223047D02*
X62530246Y-99262517D01*
X62569716Y-99355502D01*
X62662701Y-99316032D01*
X62623231Y-99223047D01*
X62569716Y-99355502D01*
X63346399Y-101055990D02*
X63187187Y-101068702D01*
X62922277Y-100961671D01*
X62816580Y-100841929D01*
X62777110Y-100748944D01*
X62764398Y-100589731D01*
X62924944Y-100192367D01*
X63044686Y-100086670D01*
X63137671Y-100047200D01*
X63296884Y-100034488D01*
X63561794Y-100141518D01*
X63667491Y-100261261D01*
X63915689Y-101363036D02*
X64290295Y-100435852D01*
X64183265Y-100700762D02*
X64303007Y-100595064D01*
X64395992Y-100555594D01*
X64555205Y-100542882D01*
X64687660Y-100596398D01*
X64975327Y-101791158D02*
X64869630Y-101671415D01*
X64830160Y-101578430D01*
X64817448Y-101419217D01*
X64977994Y-101021853D01*
X65097736Y-100916156D01*
X65190721Y-100876686D01*
X65349934Y-100863974D01*
X65548616Y-100944247D01*
X65654313Y-101063989D01*
X65693783Y-101156974D01*
X65706495Y-101316187D01*
X65545950Y-101713551D01*
X65426207Y-101819248D01*
X65333222Y-101858718D01*
X65174010Y-101871430D01*
X64975327Y-101791158D01*
X65650314Y-102217946D02*
X66709952Y-102646068D01*
X67094605Y-102647401D02*
X67469211Y-101720217D01*
X67362181Y-101985127D02*
X67481923Y-101879430D01*
X67574908Y-101839960D01*
X67734121Y-101827248D01*
X67866576Y-101880763D01*
X68512138Y-103143084D02*
X68352926Y-103155796D01*
X68088016Y-103048765D01*
X67982319Y-102929023D01*
X67969607Y-102769810D01*
X68183667Y-102239991D01*
X68303410Y-102134294D01*
X68462623Y-102121582D01*
X68727532Y-102228612D01*
X68833229Y-102348355D01*
X68845942Y-102507567D01*
X68792426Y-102640022D01*
X68076637Y-102504901D01*
X69743701Y-103717706D02*
X70305611Y-102326930D01*
X69770459Y-103651478D02*
X69611247Y-103664190D01*
X69346337Y-103557160D01*
X69240640Y-103437417D01*
X69201170Y-103344432D01*
X69188458Y-103185220D01*
X69349003Y-102787855D01*
X69468746Y-102682158D01*
X69561731Y-102642688D01*
X69720943Y-102629976D01*
X69985853Y-102737007D01*
X70091550Y-102856749D01*
X70604658Y-104065555D02*
X70498961Y-103945812D01*
X70459491Y-103852827D01*
X70446779Y-103693615D01*
X70607324Y-103296250D01*
X70727067Y-103190553D01*
X70820052Y-103151083D01*
X70979264Y-103138371D01*
X71177947Y-103218644D01*
X71283644Y-103338386D01*
X71323114Y-103431371D01*
X71335826Y-103590584D01*
X71175280Y-103987948D01*
X71055538Y-104093646D01*
X70962553Y-104133115D01*
X70803340Y-104145828D01*
X70604658Y-104065555D01*
X71531842Y-104440161D02*
X72634950Y-103807311D01*
X71906448Y-103512977D02*
X72260343Y-104734495D01*
X72405510Y-104947223D02*
X73465149Y-105375345D01*
X73810331Y-105283693D02*
X73916029Y-105403435D01*
X74180938Y-105510466D01*
X74340151Y-105497754D01*
X74459893Y-105392056D01*
X74486651Y-105325829D01*
X74473939Y-105166617D01*
X74368242Y-105046874D01*
X74169559Y-104966601D01*
X74063862Y-104846858D01*
X74051150Y-104687646D01*
X74077908Y-104621419D01*
X74197650Y-104515721D01*
X74356863Y-104503009D01*
X74555545Y-104583282D01*
X74661242Y-104703025D01*
X75532244Y-105979391D02*
X75373032Y-105992103D01*
X75108122Y-105885072D01*
X75002425Y-105765330D01*
X74989713Y-105606117D01*
X75203774Y-105076298D01*
X75323516Y-104970601D01*
X75482729Y-104957889D01*
X75747639Y-105064919D01*
X75853336Y-105184662D01*
X75866048Y-105343874D01*
X75812533Y-105476329D01*
X75096743Y-105341208D01*
X76167761Y-106313194D02*
X76542368Y-105386010D01*
X76488852Y-105518465D02*
X76581837Y-105478995D01*
X76741050Y-105466283D01*
X76939732Y-105546556D01*
X77045429Y-105666299D01*
X77058141Y-105825511D01*
X76763808Y-106554013D01*
X77058141Y-105825511D02*
X77177884Y-105719814D01*
X77337097Y-105707102D01*
X77535779Y-105787375D01*
X77641476Y-105907117D01*
X77654188Y-106066330D01*
X77359854Y-106794831D01*
X78022129Y-107062407D02*
X78396735Y-106135224D01*
X78584039Y-105671632D02*
X78491053Y-105711101D01*
X78530523Y-105804086D01*
X78623508Y-105764617D01*
X78584039Y-105671632D01*
X78530523Y-105804086D01*
X78299751Y-107328650D02*
X79359389Y-107756772D01*
X79704572Y-107665120D02*
X79810269Y-107784863D01*
X80075179Y-107891893D01*
X80234391Y-107879181D01*
X80354134Y-107773484D01*
X80380891Y-107707257D01*
X80368179Y-107548044D01*
X80262482Y-107428302D01*
X80063800Y-107348029D01*
X79958102Y-107228286D01*
X79945390Y-107069074D01*
X79972148Y-107002846D01*
X80091890Y-106897149D01*
X80251103Y-106884437D01*
X80449785Y-106964710D01*
X80555482Y-107084452D01*
X81244514Y-107285801D02*
X80682604Y-108676577D01*
X81217757Y-107352028D02*
X81376969Y-107339316D01*
X81641879Y-107446347D01*
X81747576Y-107566089D01*
X81787046Y-107659074D01*
X81799758Y-107818287D01*
X81639212Y-108215651D01*
X81519470Y-108321349D01*
X81426485Y-108360818D01*
X81267272Y-108373531D01*
X81002362Y-108266500D01*
X80896665Y-108146757D01*
X82326911Y-108801652D02*
X82221214Y-108681910D01*
X82208501Y-108522697D01*
X82690138Y-107330604D01*
X82856730Y-109015713D02*
X83231337Y-108088529D01*
X83418640Y-107624937D02*
X83325655Y-107664407D01*
X83365125Y-107757392D01*
X83458110Y-107717923D01*
X83418640Y-107624937D01*
X83365125Y-107757392D01*
X83694929Y-108275833D02*
X84224748Y-108489894D01*
X84080914Y-107892514D02*
X83599277Y-109084607D01*
X83611989Y-109243820D01*
X83717687Y-109363562D01*
X83850141Y-109417077D01*
X64692710Y-103348702D02*
X64649241Y-104409674D01*
X65354984Y-103616278D01*
X66337017Y-103473778D02*
X66469472Y-103527293D01*
X66575169Y-103647035D01*
X66614639Y-103740020D01*
X66627351Y-103899233D01*
X66586548Y-104190900D01*
X66452760Y-104522037D01*
X66279502Y-104760189D01*
X66159759Y-104865887D01*
X66066774Y-104905356D01*
X65907562Y-104918069D01*
X65775107Y-104864553D01*
X65669410Y-104744811D01*
X65629940Y-104651826D01*
X65617228Y-104492613D01*
X65658031Y-104200946D01*
X65791819Y-103869809D01*
X65965077Y-103631657D01*
X66084819Y-103525960D01*
X66177804Y-103486490D01*
X66337017Y-103473778D01*
X66888261Y-105160220D02*
X66927731Y-105253205D01*
X66834746Y-105292675D01*
X66795276Y-105199690D01*
X66888261Y-105160220D01*
X66834746Y-105292675D01*
X67457550Y-105467266D02*
X67563247Y-105587009D01*
X67828157Y-105694039D01*
X67987369Y-105681327D01*
X68107112Y-105575630D01*
X68133870Y-105509402D01*
X68121157Y-105350190D01*
X68015460Y-105230447D01*
X67816778Y-105150175D01*
X67711081Y-105030432D01*
X67698368Y-104871219D01*
X67725126Y-104804992D01*
X67844869Y-104699295D01*
X68004081Y-104686583D01*
X68202763Y-104766855D01*
X68308461Y-104886598D01*
X69179463Y-106162964D02*
X69020250Y-106175676D01*
X68755341Y-106068646D01*
X68649643Y-105948903D01*
X68636931Y-105789691D01*
X68850992Y-105259871D01*
X68970735Y-105154174D01*
X69129947Y-105141462D01*
X69394857Y-105248493D01*
X69500554Y-105368235D01*
X69513266Y-105527448D01*
X69459751Y-105659902D01*
X68743962Y-105524781D01*
X70437784Y-106671359D02*
X70278571Y-106684071D01*
X70013662Y-106577041D01*
X69907964Y-106457298D01*
X69868495Y-106364313D01*
X69855782Y-106205100D01*
X70016328Y-105807736D01*
X70136071Y-105702039D01*
X70229056Y-105662569D01*
X70388268Y-105649857D01*
X70653178Y-105756887D01*
X70758875Y-105876630D01*
X71205755Y-107058678D02*
X71100058Y-106938935D01*
X71060588Y-106845950D01*
X71047876Y-106686737D01*
X71208422Y-106289373D01*
X71328164Y-106183676D01*
X71421149Y-106144206D01*
X71580362Y-106131494D01*
X71779044Y-106211767D01*
X71884741Y-106331509D01*
X71924211Y-106424494D01*
X71936923Y-106583707D01*
X71776378Y-106981071D01*
X71656635Y-107086768D01*
X71563650Y-107126238D01*
X71404437Y-107138950D01*
X71205755Y-107058678D01*
X72640000Y-106559616D02*
X72265394Y-107486799D01*
X72586485Y-106692070D02*
X72679470Y-106652601D01*
X72838683Y-106639888D01*
X73037365Y-106720161D01*
X73143062Y-106839904D01*
X73155774Y-106999116D01*
X72861441Y-107727618D01*
X74119762Y-108236013D02*
X74681671Y-106845237D01*
X74146519Y-108169785D02*
X73987307Y-108182497D01*
X73722397Y-108075467D01*
X73616700Y-107955724D01*
X73577230Y-107862739D01*
X73564518Y-107703527D01*
X73725063Y-107306162D01*
X73844806Y-107200465D01*
X73937791Y-107160995D01*
X74097004Y-107148283D01*
X74361913Y-107255314D01*
X74467611Y-107375056D01*
X74835551Y-108371134D02*
X74875021Y-108464119D01*
X74782036Y-108503589D01*
X74742566Y-108410604D01*
X74835551Y-108371134D01*
X74782036Y-108503589D01*
X75620234Y-107763708D02*
X76150054Y-107977769D01*
X76006220Y-107380389D02*
X75524583Y-108572483D01*
X75537295Y-108731695D01*
X75642992Y-108851438D01*
X75775447Y-108904953D01*
X76239039Y-109092256D02*
X76613646Y-108165072D01*
X76506615Y-108429982D02*
X76626358Y-108324285D01*
X76719343Y-108284815D01*
X76878555Y-108272103D01*
X77011010Y-108325618D01*
X77342147Y-108459406D02*
X77298678Y-109520378D01*
X78004421Y-108726982D02*
X77298678Y-109520378D01*
X77032435Y-109798000D01*
X76939450Y-109837470D01*
X76780237Y-109850182D01*
X63528425Y-106707099D02*
X64090335Y-105316323D01*
X63876274Y-105846142D02*
X64035487Y-105833430D01*
X64300396Y-105940461D01*
X64406094Y-106060203D01*
X64445563Y-106153188D01*
X64458276Y-106312401D01*
X64297730Y-106709765D01*
X64177987Y-106815463D01*
X64085002Y-106854932D01*
X63925790Y-106867645D01*
X63660880Y-106760614D01*
X63555183Y-106640871D01*
X65028898Y-106234794D02*
X64985428Y-107295766D01*
X65691172Y-106502371D02*
X64985428Y-107295766D01*
X64719185Y-107573388D01*
X64626200Y-107612858D01*
X64466988Y-107625570D01*
X66906024Y-108071737D02*
X67280630Y-107144553D01*
X67227115Y-107277008D02*
X67320100Y-107237538D01*
X67479312Y-107224826D01*
X67677995Y-107305099D01*
X67783692Y-107424842D01*
X67796404Y-107584054D01*
X67502070Y-108312556D01*
X67796404Y-107584054D02*
X67916147Y-107478357D01*
X68075359Y-107465645D01*
X68274041Y-107545917D01*
X68379739Y-107665660D01*
X68392451Y-107824873D01*
X68098117Y-108553374D01*
X69356438Y-109061769D02*
X69650772Y-108333267D01*
X69638060Y-108174055D01*
X69532362Y-108054312D01*
X69267453Y-107947282D01*
X69108240Y-107959994D01*
X69383196Y-108995541D02*
X69223983Y-109008254D01*
X68892846Y-108874466D01*
X68787149Y-108754723D01*
X68774437Y-108595510D01*
X68827952Y-108463056D01*
X68947695Y-108357358D01*
X69106907Y-108344646D01*
X69438044Y-108478434D01*
X69597257Y-108465722D01*
X70018712Y-109329345D02*
X70580622Y-107938569D01*
X70365228Y-108853041D02*
X70548532Y-109543406D01*
X70923138Y-108616222D02*
X70179258Y-108931980D01*
X71701155Y-109932058D02*
X71541943Y-109944770D01*
X71277033Y-109837740D01*
X71171336Y-109717997D01*
X71158624Y-109558785D01*
X71372685Y-109028965D01*
X71492427Y-108923268D01*
X71651640Y-108910556D01*
X71916549Y-109017586D01*
X72022247Y-109137329D01*
X72034959Y-109296541D01*
X71981444Y-109428996D01*
X71265654Y-109293875D01*
X72711278Y-109338678D02*
X72336672Y-110265861D01*
X72657763Y-109471132D02*
X72750748Y-109431663D01*
X72909961Y-109418950D01*
X73108643Y-109499223D01*
X73214340Y-109618966D01*
X73227052Y-109778178D01*
X72932719Y-110506680D01*
X73793675Y-110854529D02*
X73687978Y-110734786D01*
X73648508Y-110641801D01*
X73635796Y-110482589D01*
X73796341Y-110085224D01*
X73916084Y-109979527D01*
X74009069Y-109940057D01*
X74168282Y-109927345D01*
X74366964Y-110007618D01*
X74472661Y-110127361D01*
X74512131Y-110220346D01*
X74524843Y-110379558D01*
X74364297Y-110776923D01*
X74244555Y-110882620D01*
X74151570Y-110922090D01*
X73992357Y-110934802D01*
X73793675Y-110854529D01*
X75095465Y-110301952D02*
X75051996Y-111362924D01*
X75757740Y-110569528D01*
X76508999Y-111951591D02*
X76803333Y-111223090D01*
X76790621Y-111063877D01*
X76684923Y-110944134D01*
X76420014Y-110837104D01*
X76260801Y-110849816D01*
X76535757Y-111885364D02*
X76376544Y-111898076D01*
X76045407Y-111764288D01*
X75939710Y-111644545D01*
X75926998Y-111485333D01*
X75980513Y-111352878D01*
X76100256Y-111247181D01*
X76259468Y-111234468D01*
X76590605Y-111368257D01*
X76749818Y-111355544D01*
D12*
X226747891Y-56226701D02*
X227122497Y-57153885D01*
X231065199Y-69581881D02*
X231992383Y-69207275D01*
X226747891Y-56226701D02*
X225820707Y-56601307D01*
X231617777Y-68280091D02*
X231992383Y-69207275D01*
X219011809Y-74451767D02*
X218637203Y-73524583D01*
X214694501Y-61096587D02*
X213767317Y-61471193D01*
X219011809Y-74451767D02*
X219938993Y-74077161D01*
X214141923Y-62398377D02*
X213767317Y-61471193D01*
X208269392Y-58512705D02*
X208643998Y-59439889D01*
X212586700Y-71867885D02*
X213513884Y-71493279D01*
X208269392Y-58512705D02*
X207342208Y-58887311D01*
X213139278Y-70566095D02*
X213513884Y-71493279D01*
X200533310Y-76737771D02*
X200158704Y-75810587D01*
X196216002Y-63382591D02*
X195288818Y-63757197D01*
X200533310Y-76737771D02*
X201460494Y-76363165D01*
X195663424Y-64684381D02*
X195288818Y-63757197D01*
D13*
X135702348Y-124394237D02*
X136702348Y-124394237D01*
X136202348Y-123894237D02*
X136202348Y-124894237D01*
X142302348Y-127894237D02*
X142302348Y-130294237D01*
X142302348Y-123094237D02*
X142302348Y-125694237D01*
X142302348Y-118494237D02*
X142302348Y-120894237D01*
X129002348Y-120294237D02*
X128702348Y-120594237D01*
X128402348Y-120294237D02*
X129002348Y-120294237D01*
X128702348Y-120594237D02*
X128402348Y-120294237D01*
X130102348Y-118494237D02*
X130102348Y-130294237D01*
X134202348Y-118494237D02*
X130102348Y-118494237D01*
X134202348Y-130294237D02*
X130102348Y-130294237D01*
X142302348Y-130294237D02*
X138202348Y-130294237D01*
X138202348Y-118494237D02*
X142302348Y-118494237D01*
X139202348Y-124394237D02*
G75*
G03*
X139202348Y-124394237I-3000000J0D01*
G01*
X132803850Y-91465239D02*
X138203850Y-91465239D01*
X132803850Y-86965239D02*
X132803850Y-91465239D01*
D12*
X141567847Y-108547239D02*
X142842847Y-108547239D01*
X131217847Y-109122239D02*
X131892847Y-109122239D01*
X131217847Y-98772239D02*
X131892847Y-98772239D01*
X141567847Y-98772239D02*
X140892847Y-98772239D01*
X141567847Y-109122239D02*
X140892847Y-109122239D01*
X141567847Y-98772239D02*
X141567847Y-99447239D01*
X131217847Y-98772239D02*
X131217847Y-99447239D01*
X131217847Y-109122239D02*
X131217847Y-108447239D01*
X141567847Y-109122239D02*
X141567847Y-108547239D01*
X135402346Y-77328239D02*
X137002346Y-77328239D01*
X137402346Y-80528239D02*
X137702346Y-80528239D01*
X135402346Y-80528239D02*
X137002346Y-80528239D01*
X135402346Y-77328239D02*
X135402346Y-80528239D01*
X137002346Y-77328239D02*
X137002346Y-80528239D01*
D13*
X102930164Y-121252751D02*
X100612204Y-120316234D01*
X104976501Y-120192089D02*
X105725714Y-118337721D01*
X104990500Y-116153240D02*
X102672540Y-115216723D01*
X99876990Y-118131753D02*
X100626203Y-116277385D01*
X103515969Y-121004091D02*
X102930164Y-121252751D01*
X100363544Y-119730429D02*
X100612204Y-120316234D01*
X102086735Y-115465383D02*
X102672540Y-115216723D01*
X105239160Y-116739045D02*
X104990500Y-116153240D01*
X129032367Y-111874668D02*
X129032367Y-111352164D01*
X127612367Y-111874668D02*
X127612367Y-111352164D01*
X138413348Y-78793987D02*
X138413348Y-79316491D01*
X139833348Y-78793987D02*
X139833348Y-79316491D01*
X133991352Y-79252986D02*
X133991352Y-78730482D01*
X132571352Y-79252986D02*
X132571352Y-78730482D01*
X134054849Y-68013493D02*
X134054849Y-67490989D01*
X132634849Y-68013493D02*
X132634849Y-67490989D01*
X138182347Y-66997489D02*
X138182347Y-66474985D01*
X136762347Y-66997489D02*
X136762347Y-66474985D01*
X108364448Y-119264968D02*
X108168715Y-119749425D01*
X109681049Y-119796909D02*
X109485316Y-120281366D01*
X156540824Y-113173649D02*
X156540824Y-114503649D01*
X155210824Y-113173649D02*
X156540824Y-113173649D01*
X153940824Y-113173649D02*
X141180824Y-113173649D01*
X153940824Y-115833649D02*
X153940824Y-113173649D01*
X141180824Y-115833649D02*
X153940824Y-115833649D01*
X141180824Y-113173649D02*
X141180824Y-115833649D01*
X139334853Y-74132797D02*
X139334853Y-72928669D01*
X137514853Y-74132797D02*
X137514853Y-72928669D01*
X140408806Y-111006995D02*
X139886302Y-111006995D01*
X140408806Y-112426995D02*
X139886302Y-112426995D01*
X129090283Y-99646595D02*
X129090283Y-99124091D01*
X127670283Y-99646595D02*
X127670283Y-99124091D01*
X147359534Y-108286841D02*
X147882038Y-108286841D01*
X147359534Y-106866841D02*
X147882038Y-106866841D01*
X131865535Y-112985840D02*
X132388039Y-112985840D01*
X131865535Y-111565840D02*
X132388039Y-111565840D01*
X144952116Y-102902416D02*
X145474620Y-102902416D01*
X144952116Y-104322416D02*
X145474620Y-104322416D01*
X138984847Y-89017488D02*
X138984847Y-89539992D01*
X140404847Y-89017488D02*
X140404847Y-89539992D01*
X131895852Y-89476490D02*
X131895852Y-88953986D01*
X130475852Y-89476490D02*
X130475852Y-88953986D01*
D12*
X188253095Y-114464086D02*
X188854910Y-115262722D01*
X195879870Y-126246798D02*
X196678506Y-125644983D01*
X188253095Y-114464086D02*
X187454460Y-115065901D01*
X196076691Y-124846348D02*
X196678506Y-125644983D01*
X185497609Y-134070394D02*
X184895794Y-133271758D01*
X177870834Y-122287682D02*
X177072198Y-122889497D01*
X185497609Y-134070394D02*
X186296244Y-133468579D01*
X177674013Y-123688132D02*
X177072198Y-122889497D01*
X167511522Y-125589316D02*
X168283147Y-126225395D01*
X177678188Y-135266036D02*
X178314267Y-134494411D01*
X167511522Y-125589316D02*
X166875444Y-126360941D01*
X177542642Y-133858333D02*
X178314267Y-134494411D01*
X169409172Y-145297156D02*
X168637547Y-144661077D01*
X159242506Y-135620436D02*
X158606427Y-136392061D01*
X169409172Y-145297156D02*
X170045250Y-144525531D01*
X159378052Y-137028139D02*
X158606427Y-136392061D01*
X113798271Y-136328565D02*
X113026646Y-136964643D01*
X102359448Y-144462035D02*
X102995526Y-145233660D01*
X113798271Y-136328565D02*
X113162192Y-135556940D01*
X103767151Y-144597581D02*
X102995526Y-145233660D01*
X94090431Y-134430915D02*
X94862056Y-133794837D01*
X105529254Y-126297445D02*
X104893176Y-125525820D01*
X94090431Y-134430915D02*
X94726510Y-135202540D01*
X104121551Y-126161899D02*
X104893176Y-125525820D01*
X95332499Y-122889493D02*
X94730684Y-123688128D01*
X86108453Y-133468575D02*
X86907088Y-134070390D01*
X95332499Y-122889493D02*
X94533863Y-122287678D01*
X87508903Y-133271754D02*
X86907088Y-134070390D01*
X75726191Y-125644979D02*
X76328006Y-124846344D01*
X84950237Y-115065897D02*
X84151602Y-114464082D01*
X75726191Y-125644979D02*
X76524827Y-126246794D01*
X83549787Y-115262718D02*
X84151602Y-114464082D01*
X233097889Y-71974703D02*
X233472495Y-72901887D01*
X237415197Y-85329883D02*
X238342381Y-84955277D01*
X233097889Y-71974703D02*
X232170705Y-72349309D01*
X237967775Y-84028093D02*
X238342381Y-84955277D01*
X225361807Y-90199769D02*
X224987201Y-89272585D01*
X221044499Y-76844589D02*
X220117315Y-77219195D01*
X225361807Y-90199769D02*
X226288991Y-89825163D01*
X220491921Y-78146379D02*
X220117315Y-77219195D01*
X214619389Y-74324207D02*
X214993995Y-75251391D01*
X218936697Y-87679387D02*
X219863881Y-87304781D01*
X214619389Y-74324207D02*
X213692205Y-74698813D01*
X219489275Y-86377597D02*
X219863881Y-87304781D01*
X206883307Y-92549273D02*
X206508701Y-91622089D01*
X202565999Y-79194093D02*
X201638815Y-79568699D01*
X206883307Y-92549273D02*
X207810491Y-92174667D01*
X202013421Y-80495883D02*
X201638815Y-79568699D01*
X197029891Y-78832703D02*
X197404497Y-79759887D01*
X201347199Y-92187883D02*
X202274383Y-91813277D01*
X197029891Y-78832703D02*
X196102707Y-79207309D01*
X201899777Y-90886093D02*
X202274383Y-91813277D01*
X189293809Y-97057769D02*
X188919203Y-96130585D01*
X184976501Y-83702589D02*
X184049317Y-84077195D01*
X189293809Y-97057769D02*
X190220993Y-96683163D01*
X184423923Y-85004379D02*
X184049317Y-84077195D01*
X181281890Y-87786208D02*
X181656496Y-88713392D01*
X185599198Y-101141388D02*
X186526382Y-100766782D01*
X181281890Y-87786208D02*
X180354706Y-88160814D01*
X186151776Y-99839598D02*
X186526382Y-100766782D01*
X173545808Y-106011274D02*
X173171202Y-105084090D01*
X169228500Y-92656094D02*
X168301316Y-93030700D01*
X173545808Y-106011274D02*
X174472992Y-105636668D01*
X168675922Y-93957884D02*
X168301316Y-93030700D01*
X165470390Y-96739704D02*
X165844996Y-97666888D01*
X169787698Y-110094884D02*
X170714882Y-109720278D01*
X165470390Y-96739704D02*
X164543206Y-97114310D01*
X170340276Y-108793094D02*
X170714882Y-109720278D01*
X157734308Y-114964770D02*
X157359702Y-114037586D01*
X153417000Y-101609590D02*
X152489816Y-101984196D01*
X157734308Y-114964770D02*
X158661492Y-114590164D01*
X152864422Y-102911380D02*
X152489816Y-101984196D01*
X119978386Y-101984196D02*
X119603780Y-102911380D01*
X113806710Y-114590164D02*
X114733894Y-114964770D01*
X119978386Y-101984196D02*
X119051202Y-101609590D01*
X115108500Y-114037586D02*
X114733894Y-114964770D01*
X101753320Y-109720278D02*
X102127926Y-108793094D01*
X107924996Y-97114310D02*
X106997812Y-96739704D01*
X101753320Y-109720278D02*
X102680504Y-110094884D01*
X106623206Y-97666888D02*
X106997812Y-96739704D01*
X104166884Y-93030694D02*
X103792278Y-93957878D01*
X97995208Y-105636662D02*
X98922392Y-106011268D01*
X104166884Y-93030694D02*
X103239700Y-92656088D01*
X99296998Y-105084084D02*
X98922392Y-106011268D01*
X85941818Y-100766776D02*
X86316424Y-99839592D01*
X92113494Y-88160808D02*
X91186310Y-87786202D01*
X85941818Y-100766776D02*
X86869002Y-101141382D01*
X90811704Y-88713386D02*
X91186310Y-87786202D01*
X88355383Y-84077194D02*
X87980777Y-85004378D01*
X82183707Y-96683162D02*
X83110891Y-97057768D01*
X88355383Y-84077194D02*
X87428199Y-83702588D01*
X83485497Y-96130584D02*
X83110891Y-97057768D01*
X70130317Y-91813276D02*
X70504923Y-90886092D01*
X76301993Y-79207308D02*
X75374809Y-78832702D01*
X70130317Y-91813276D02*
X71057501Y-92187882D01*
X75000203Y-79759886D02*
X75374809Y-78832702D01*
X70765887Y-79568697D02*
X70391281Y-80495881D01*
X64594211Y-92174665D02*
X65521395Y-92549271D01*
X70765887Y-79568697D02*
X69838703Y-79194091D01*
X65896001Y-91622087D02*
X65521395Y-92549271D01*
X52540821Y-87304779D02*
X52915427Y-86377595D01*
X58712497Y-74698811D02*
X57785313Y-74324205D01*
X52540821Y-87304779D02*
X53468005Y-87679385D01*
X57410707Y-75251389D02*
X57785313Y-74324205D01*
X52287380Y-77219202D02*
X51912774Y-78146386D01*
X46115704Y-89825170D02*
X47042888Y-90199776D01*
X52287380Y-77219202D02*
X51360196Y-76844596D01*
X47417494Y-89272592D02*
X47042888Y-90199776D01*
X34062314Y-84955284D02*
X34436920Y-84028100D01*
X40233990Y-72349316D02*
X39306806Y-71974710D01*
X34062314Y-84955284D02*
X34989498Y-85329890D01*
X38932200Y-72901894D02*
X39306806Y-71974710D01*
X190679890Y-63084705D02*
X191054496Y-64011889D01*
X194997198Y-76439885D02*
X195924382Y-76065279D01*
X190679890Y-63084705D02*
X189752706Y-63459311D01*
X195549776Y-75138095D02*
X195924382Y-76065279D01*
X182943808Y-81309771D02*
X182569202Y-80382587D01*
X178626500Y-67954591D02*
X177699316Y-68329197D01*
X182943808Y-81309771D02*
X183870992Y-80935165D01*
X178073922Y-69256381D02*
X177699316Y-68329197D01*
X174931891Y-72038209D02*
X175306497Y-72965393D01*
X179249199Y-85393389D02*
X180176383Y-85018783D01*
X174931891Y-72038209D02*
X174004707Y-72412815D01*
X179801777Y-84091599D02*
X180176383Y-85018783D01*
X167195809Y-90263275D02*
X166821203Y-89336091D01*
X162878501Y-76908095D02*
X161951317Y-77282701D01*
X167195809Y-90263275D02*
X168122993Y-89888669D01*
X162325923Y-78209885D02*
X161951317Y-77282701D01*
X159056886Y-80928208D02*
X159431492Y-81855392D01*
X163374194Y-94283388D02*
X164301378Y-93908782D01*
X159056886Y-80928208D02*
X158129702Y-81302814D01*
X163926772Y-92981598D02*
X164301378Y-93908782D01*
X151320804Y-99153274D02*
X150946198Y-98226090D01*
X147003496Y-85798094D02*
X146076312Y-86172700D01*
X151320804Y-99153274D02*
X152247988Y-98778668D01*
X146450918Y-87099884D02*
X146076312Y-86172700D01*
X126328383Y-86236200D02*
X125953777Y-87163384D01*
X120156707Y-98842168D02*
X121083891Y-99216774D01*
X126328383Y-86236200D02*
X125401199Y-85861594D01*
X121458497Y-98289590D02*
X121083891Y-99216774D01*
X108103317Y-93972282D02*
X108477923Y-93045098D01*
X114274993Y-81366314D02*
X113347809Y-80991708D01*
X108103317Y-93972282D02*
X109030501Y-94346888D01*
X112973203Y-81918892D02*
X113347809Y-80991708D01*
X110516883Y-77282698D02*
X110142277Y-78209882D01*
X104345207Y-89888666D02*
X105272391Y-90263272D01*
X110516883Y-77282698D02*
X109589699Y-76908092D01*
X105646997Y-89336088D02*
X105272391Y-90263272D01*
X92291817Y-85018780D02*
X92666423Y-84091596D01*
X98463493Y-72412812D02*
X97536309Y-72038206D01*
X92291817Y-85018780D02*
X93219001Y-85393386D01*
X97161703Y-72965390D02*
X97536309Y-72038206D01*
X94768882Y-68329195D02*
X94394276Y-69256379D01*
X88597206Y-80935163D02*
X89524390Y-81309769D01*
X94768882Y-68329195D02*
X93841698Y-67954589D01*
X89898996Y-80382585D02*
X89524390Y-81309769D01*
X76543816Y-76065277D02*
X76918422Y-75138093D01*
X82715492Y-63459309D02*
X81788308Y-63084703D01*
X76543816Y-76065277D02*
X77471000Y-76439883D01*
X81413702Y-64011887D02*
X81788308Y-63084703D01*
X77179384Y-63757194D02*
X76804778Y-64684378D01*
X71007708Y-76363162D02*
X71934892Y-76737768D01*
X77179384Y-63757194D02*
X76252200Y-63382588D01*
X72309498Y-75810584D02*
X71934892Y-76737768D01*
X58954318Y-71493276D02*
X59328924Y-70566092D01*
X65125994Y-58887308D02*
X64198810Y-58512702D01*
X58954318Y-71493276D02*
X59881502Y-71867882D01*
X63824204Y-59439886D02*
X64198810Y-58512702D01*
X58700881Y-61471198D02*
X58326275Y-62398382D01*
X52529205Y-74077166D02*
X53456389Y-74451772D01*
X58700881Y-61471198D02*
X57773697Y-61096592D01*
X53830995Y-73524588D02*
X53456389Y-74451772D01*
X40475815Y-69207280D02*
X40850421Y-68280096D01*
X46647491Y-56601312D02*
X45720307Y-56226706D01*
X40475815Y-69207280D02*
X41402999Y-69581886D01*
X45345701Y-57153890D02*
X45720307Y-56226706D01*
X220397889Y-40415202D02*
X220772495Y-41342386D01*
X224715197Y-53770382D02*
X225642381Y-53395776D01*
X220397889Y-40415202D02*
X219470705Y-40789808D01*
X225267775Y-52468592D02*
X225642381Y-53395776D01*
X212661807Y-58640268D02*
X212287201Y-57713084D01*
X208344499Y-45285088D02*
X207417315Y-45659694D01*
X212661807Y-58640268D02*
X213588991Y-58265662D01*
X207791921Y-46586878D02*
X207417315Y-45659694D01*
X201919394Y-42764703D02*
X202294000Y-43691887D01*
X206236702Y-56119883D02*
X207163886Y-55745277D01*
X201919394Y-42764703D02*
X200992210Y-43139309D01*
X206789280Y-54818093D02*
X207163886Y-55745277D01*
X194183312Y-60989769D02*
X193808706Y-60062585D01*
X189866004Y-47634589D02*
X188938820Y-48009195D01*
X194183312Y-60989769D02*
X195110496Y-60615163D01*
X189313426Y-48936379D02*
X188938820Y-48009195D01*
X184329888Y-47273206D02*
X184704494Y-48200390D01*
X188647196Y-60628386D02*
X189574380Y-60253780D01*
X184329888Y-47273206D02*
X183402704Y-47647812D01*
X189199774Y-59326596D02*
X189574380Y-60253780D01*
X176593806Y-65498272D02*
X176219200Y-64571088D01*
X172276498Y-52143092D02*
X171349314Y-52517698D01*
X176593806Y-65498272D02*
X177520990Y-65123666D01*
X171723920Y-53444882D02*
X171349314Y-52517698D01*
X168581890Y-56226710D02*
X168956496Y-57153894D01*
X172899198Y-69581890D02*
X173826382Y-69207284D01*
X168581890Y-56226710D02*
X167654706Y-56601316D01*
X173451776Y-68280100D02*
X173826382Y-69207284D01*
X160845808Y-74451776D02*
X160471202Y-73524592D01*
X156528500Y-61096596D02*
X155601316Y-61471202D01*
X160845808Y-74451776D02*
X161772992Y-74077170D01*
X155975922Y-62398386D02*
X155601316Y-61471202D01*
X152706894Y-65180205D02*
X153081500Y-66107389D01*
X157024202Y-78535385D02*
X157951386Y-78160779D01*
X152706894Y-65180205D02*
X151779710Y-65554811D01*
X157576780Y-77233595D02*
X157951386Y-78160779D01*
X144970812Y-83405271D02*
X144596206Y-82478087D01*
X140653504Y-70050091D02*
X139726320Y-70424697D01*
X144970812Y-83405271D02*
X145897996Y-83030665D01*
X140100926Y-71351881D02*
X139726320Y-70424697D01*
X132678383Y-70424697D02*
X132303777Y-71351881D01*
X126506707Y-83030665D02*
X127433891Y-83405271D01*
X132678383Y-70424697D02*
X131751199Y-70050091D01*
X127808497Y-82478087D02*
X127433891Y-83405271D01*
X114453317Y-78160779D02*
X114827923Y-77233595D01*
X120624993Y-65554811D02*
X119697809Y-65180205D01*
X114453317Y-78160779D02*
X115380501Y-78535385D01*
X119323203Y-66107389D02*
X119697809Y-65180205D01*
X116930382Y-61471196D02*
X116555776Y-62398380D01*
X110758706Y-74077164D02*
X111685890Y-74451770D01*
X116930382Y-61471196D02*
X116003198Y-61096590D01*
X112060496Y-73524586D02*
X111685890Y-74451770D01*
X98705316Y-69207278D02*
X99079922Y-68280094D01*
X104876992Y-56601310D02*
X103949808Y-56226704D01*
X98705316Y-69207278D02*
X99632500Y-69581884D01*
X103575202Y-57153888D02*
X103949808Y-56226704D01*
X101118884Y-52581198D02*
X100744278Y-53508382D01*
X94947208Y-65187166D02*
X95874392Y-65561772D01*
X101118884Y-52581198D02*
X100191700Y-52206592D01*
X96248998Y-64634588D02*
X95874392Y-65561772D01*
X82893818Y-60317280D02*
X83268424Y-59390096D01*
X89065494Y-47711312D02*
X88138310Y-47336706D01*
X82893818Y-60317280D02*
X83821002Y-60691886D01*
X87763704Y-48263890D02*
X88138310Y-47336706D01*
X83529381Y-48009194D02*
X83154775Y-48936378D01*
X77357705Y-60615162D02*
X78284889Y-60989768D01*
X83529381Y-48009194D02*
X82602197Y-47634588D01*
X78659495Y-60062584D02*
X78284889Y-60989768D01*
X65304315Y-55745276D02*
X65678921Y-54818092D01*
X71475991Y-43139308D02*
X70548807Y-42764702D01*
X65304315Y-55745276D02*
X66231499Y-56119882D01*
X70174201Y-43691886D02*
X70548807Y-42764702D01*
X65050885Y-45723195D02*
X64676279Y-46650379D01*
X58879209Y-58329163D02*
X59806393Y-58703769D01*
X65050885Y-45723195D02*
X64123701Y-45348589D01*
X60180999Y-57776585D02*
X59806393Y-58703769D01*
X46825819Y-53459277D02*
X47200425Y-52532093D01*
X52997495Y-40853309D02*
X52070311Y-40478703D01*
X46825819Y-53459277D02*
X47753003Y-53833883D01*
X51695705Y-41405887D02*
X52070311Y-40478703D01*
X218261338Y-58738479D02*
X218411631Y-58729115D01*
X218632389Y-58639923D01*
X218702854Y-58560095D01*
X218729167Y-58498105D01*
X218737642Y-58391963D01*
X218701965Y-58303660D01*
X218622137Y-58233195D01*
X218560147Y-58206882D01*
X218454005Y-58198407D01*
X218259560Y-58225609D01*
X218153418Y-58217134D01*
X218091428Y-58190821D01*
X218011600Y-58120356D01*
X217975923Y-58032053D01*
X217984398Y-57925911D01*
X218010711Y-57863921D01*
X218081176Y-57784093D01*
X218301934Y-57694901D01*
X218452227Y-57685537D01*
X218743450Y-57516517D02*
X219338815Y-58354509D01*
X219247845Y-57620881D01*
X219692028Y-58211801D01*
X219538179Y-57195425D01*
X219882917Y-57158860D02*
X219909230Y-57096870D01*
X219979695Y-57017041D01*
X220200453Y-56927849D01*
X220306595Y-56936324D01*
X220368585Y-56962637D01*
X220448413Y-57033102D01*
X220484090Y-57121405D01*
X220493454Y-57271699D01*
X220177695Y-58015579D01*
X220751666Y-57783679D01*
X220951031Y-56624596D02*
X221039334Y-56588919D01*
X221145476Y-56597394D01*
X221207466Y-56623707D01*
X221287294Y-56694172D01*
X221402799Y-56852940D01*
X221491991Y-57073698D01*
X221519193Y-57268143D01*
X221510719Y-57374285D01*
X221484405Y-57436275D01*
X221413941Y-57516103D01*
X221325637Y-57551780D01*
X221219496Y-57543305D01*
X221157506Y-57516992D01*
X221077677Y-57446527D01*
X220962172Y-57287759D01*
X220872980Y-57067001D01*
X220845778Y-56872556D01*
X220854253Y-56766415D01*
X220880566Y-56704425D01*
X220951031Y-56624596D01*
D14*
X134871839Y-114824043D02*
X134871839Y-113824043D01*
X135252791Y-113824043D01*
X135348029Y-113871663D01*
X135395648Y-113919282D01*
X135443267Y-114014520D01*
X135443267Y-114157377D01*
X135395648Y-114252615D01*
X135348029Y-114300234D01*
X135252791Y-114347853D01*
X134871839Y-114347853D01*
X136205172Y-114300234D02*
X135871839Y-114300234D01*
X135871839Y-114824043D02*
X135871839Y-113824043D01*
X136348029Y-113824043D01*
X136633744Y-113824043D02*
X137300410Y-113824043D01*
X136871839Y-114824043D01*
X143592576Y-112105874D02*
X143592576Y-111105874D01*
X143973529Y-111105874D01*
X144068767Y-111153494D01*
X144116386Y-111201113D01*
X144164005Y-111296351D01*
X144164005Y-111439208D01*
X144116386Y-111534446D01*
X144068767Y-111582065D01*
X143973529Y-111629684D01*
X143592576Y-111629684D01*
X144592576Y-111582065D02*
X144925910Y-111582065D01*
X145068767Y-112105874D02*
X144592576Y-112105874D01*
X144592576Y-111105874D01*
X145068767Y-111105874D01*
X145925910Y-111105874D02*
X145735433Y-111105874D01*
X145640195Y-111153494D01*
X145592576Y-111201113D01*
X145497338Y-111343970D01*
X145449719Y-111534446D01*
X145449719Y-111915398D01*
X145497338Y-112010636D01*
X145544957Y-112058255D01*
X145640195Y-112105874D01*
X145830672Y-112105874D01*
X145925910Y-112058255D01*
X145973529Y-112010636D01*
X146021148Y-111915398D01*
X146021148Y-111677303D01*
X145973529Y-111582065D01*
X145925910Y-111534446D01*
X145830672Y-111486827D01*
X145640195Y-111486827D01*
X145544957Y-111534446D01*
X145497338Y-111582065D01*
X145449719Y-111677303D01*
X150040410Y-103203543D02*
X150040410Y-102203543D01*
X150421363Y-102203543D01*
X150516601Y-102251163D01*
X150564220Y-102298782D01*
X150611839Y-102394020D01*
X150611839Y-102536877D01*
X150564220Y-102632115D01*
X150516601Y-102679734D01*
X150421363Y-102727353D01*
X150040410Y-102727353D01*
X151373744Y-102679734D02*
X151516601Y-102727353D01*
X151564220Y-102774972D01*
X151611839Y-102870210D01*
X151611839Y-103013067D01*
X151564220Y-103108305D01*
X151516601Y-103155924D01*
X151421363Y-103203543D01*
X151040410Y-103203543D01*
X151040410Y-102203543D01*
X151373744Y-102203543D01*
X151468982Y-102251163D01*
X151516601Y-102298782D01*
X151564220Y-102394020D01*
X151564220Y-102489258D01*
X151516601Y-102584496D01*
X151468982Y-102632115D01*
X151373744Y-102679734D01*
X151040410Y-102679734D01*
X152230886Y-102203543D02*
X152326125Y-102203543D01*
X152421363Y-102251163D01*
X152468982Y-102298782D01*
X152516601Y-102394020D01*
X152564220Y-102584496D01*
X152564220Y-102822591D01*
X152516601Y-103013067D01*
X152468982Y-103108305D01*
X152421363Y-103155924D01*
X152326125Y-103203543D01*
X152230886Y-103203543D01*
X152135648Y-103155924D01*
X152088029Y-103108305D01*
X152040410Y-103013067D01*
X151992791Y-102822591D01*
X151992791Y-102584496D01*
X152040410Y-102394020D01*
X152088029Y-102298782D01*
X152135648Y-102251163D01*
X152230886Y-102203543D01*
X123337604Y-108980737D02*
X123337604Y-107980737D01*
X123718557Y-107980737D01*
X123813795Y-108028357D01*
X123861414Y-108075976D01*
X123909033Y-108171214D01*
X123909033Y-108314071D01*
X123861414Y-108409309D01*
X123813795Y-108456928D01*
X123718557Y-108504547D01*
X123337604Y-108504547D01*
X124909033Y-108885499D02*
X124861414Y-108933118D01*
X124718557Y-108980737D01*
X124623319Y-108980737D01*
X124480461Y-108933118D01*
X124385223Y-108837880D01*
X124337604Y-108742642D01*
X124289985Y-108552166D01*
X124289985Y-108409309D01*
X124337604Y-108218833D01*
X124385223Y-108123595D01*
X124480461Y-108028357D01*
X124623319Y-107980737D01*
X124718557Y-107980737D01*
X124861414Y-108028357D01*
X124909033Y-108075976D01*
X125242366Y-107980737D02*
X125909033Y-107980737D01*
X125480461Y-108980737D01*
X124671272Y-106985798D02*
X124671272Y-105985798D01*
X125052225Y-105985798D01*
X125147463Y-106033418D01*
X125195082Y-106081037D01*
X125242701Y-106176275D01*
X125242701Y-106319132D01*
X125195082Y-106414370D01*
X125147463Y-106461989D01*
X125052225Y-106509608D01*
X124671272Y-106509608D01*
X126242701Y-106890560D02*
X126195082Y-106938179D01*
X126052225Y-106985798D01*
X125956987Y-106985798D01*
X125814129Y-106938179D01*
X125718891Y-106842941D01*
X125671272Y-106747703D01*
X125623653Y-106557227D01*
X125623653Y-106414370D01*
X125671272Y-106223894D01*
X125718891Y-106128656D01*
X125814129Y-106033418D01*
X125956987Y-105985798D01*
X126052225Y-105985798D01*
X126195082Y-106033418D01*
X126242701Y-106081037D01*
X127099844Y-105985798D02*
X126909368Y-105985798D01*
X126814129Y-106033418D01*
X126766510Y-106081037D01*
X126671272Y-106223894D01*
X126623653Y-106414370D01*
X126623653Y-106795322D01*
X126671272Y-106890560D01*
X126718891Y-106938179D01*
X126814129Y-106985798D01*
X127004606Y-106985798D01*
X127099844Y-106938179D01*
X127147463Y-106890560D01*
X127195082Y-106795322D01*
X127195082Y-106557227D01*
X127147463Y-106461989D01*
X127099844Y-106414370D01*
X127004606Y-106366751D01*
X126814129Y-106366751D01*
X126718891Y-106414370D01*
X126671272Y-106461989D01*
X126623653Y-106557227D01*
X123655271Y-105017298D02*
X123655271Y-104017298D01*
X124036224Y-104017298D01*
X124131462Y-104064918D01*
X124179081Y-104112537D01*
X124226700Y-104207775D01*
X124226700Y-104350632D01*
X124179081Y-104445870D01*
X124131462Y-104493489D01*
X124036224Y-104541108D01*
X123655271Y-104541108D01*
X124988605Y-104493489D02*
X125131462Y-104541108D01*
X125179081Y-104588727D01*
X125226700Y-104683965D01*
X125226700Y-104826822D01*
X125179081Y-104922060D01*
X125131462Y-104969679D01*
X125036224Y-105017298D01*
X124655271Y-105017298D01*
X124655271Y-104017298D01*
X124988605Y-104017298D01*
X125083843Y-104064918D01*
X125131462Y-104112537D01*
X125179081Y-104207775D01*
X125179081Y-104303013D01*
X125131462Y-104398251D01*
X125083843Y-104445870D01*
X124988605Y-104493489D01*
X124655271Y-104493489D01*
X126083843Y-104017298D02*
X125893367Y-104017298D01*
X125798128Y-104064918D01*
X125750509Y-104112537D01*
X125655271Y-104255394D01*
X125607652Y-104445870D01*
X125607652Y-104826822D01*
X125655271Y-104922060D01*
X125702890Y-104969679D01*
X125798128Y-105017298D01*
X125988605Y-105017298D01*
X126083843Y-104969679D01*
X126131462Y-104922060D01*
X126179081Y-104826822D01*
X126179081Y-104588727D01*
X126131462Y-104493489D01*
X126083843Y-104445870D01*
X125988605Y-104398251D01*
X125798128Y-104398251D01*
X125702890Y-104445870D01*
X125655271Y-104493489D01*
X125607652Y-104588727D01*
D12*
X199782839Y-61024483D02*
X199933132Y-61015119D01*
X200153890Y-60925927D01*
X200224355Y-60846099D01*
X200250668Y-60784109D01*
X200259143Y-60677967D01*
X200223466Y-60589664D01*
X200143638Y-60519199D01*
X200081648Y-60492886D01*
X199975506Y-60484411D01*
X199781061Y-60511613D01*
X199674919Y-60503138D01*
X199612929Y-60476825D01*
X199533101Y-60406360D01*
X199497424Y-60318057D01*
X199505899Y-60211915D01*
X199532212Y-60149925D01*
X199602677Y-60070097D01*
X199823435Y-59980905D01*
X199973728Y-59971541D01*
X200264951Y-59802521D02*
X200860316Y-60640513D01*
X200769346Y-59906885D01*
X201213529Y-60497805D01*
X201059680Y-59481429D01*
X202273167Y-60069683D02*
X201743348Y-60283744D01*
X202008258Y-60176714D02*
X201633651Y-59249530D01*
X201598863Y-59417662D01*
X201546237Y-59541642D01*
X201475772Y-59621470D01*
X202714684Y-59891299D02*
X202891290Y-59819946D01*
X202961755Y-59740117D01*
X202988068Y-59678127D01*
X203022856Y-59509996D01*
X202995654Y-59315551D01*
X202852947Y-58962338D01*
X202773118Y-58891873D01*
X202711128Y-58865560D01*
X202604987Y-58857085D01*
X202428380Y-58928439D01*
X202357915Y-59008267D01*
X202331602Y-59070257D01*
X202323127Y-59176399D01*
X202412319Y-59397157D01*
X202492148Y-59467622D01*
X202554138Y-59493935D01*
X202660279Y-59502410D01*
X202836886Y-59431056D01*
X202907351Y-59351228D01*
X202933664Y-59289238D01*
X202942139Y-59183096D01*
X129692824Y-117598998D02*
X129835681Y-117646617D01*
X130073776Y-117646617D01*
X130169014Y-117598998D01*
X130216633Y-117551379D01*
X130264252Y-117456141D01*
X130264252Y-117360903D01*
X130216633Y-117265665D01*
X130169014Y-117218046D01*
X130073776Y-117170427D01*
X129883300Y-117122808D01*
X129788062Y-117075189D01*
X129740443Y-117027570D01*
X129692824Y-116932332D01*
X129692824Y-116837094D01*
X129740443Y-116741856D01*
X129788062Y-116694237D01*
X129883300Y-116646617D01*
X130121395Y-116646617D01*
X130264252Y-116694237D01*
X130597586Y-116646617D02*
X130835681Y-117646617D01*
X131026157Y-116932332D01*
X131216633Y-117646617D01*
X131454728Y-116646617D01*
X131740443Y-116646617D02*
X132359490Y-116646617D01*
X132026157Y-117027570D01*
X132169014Y-117027570D01*
X132264252Y-117075189D01*
X132311871Y-117122808D01*
X132359490Y-117218046D01*
X132359490Y-117456141D01*
X132311871Y-117551379D01*
X132264252Y-117598998D01*
X132169014Y-117646617D01*
X131883300Y-117646617D01*
X131788062Y-117598998D01*
X131740443Y-117551379D01*
X133264252Y-116646617D02*
X132788062Y-116646617D01*
X132740443Y-117122808D01*
X132788062Y-117075189D01*
X132883300Y-117027570D01*
X133121395Y-117027570D01*
X133216633Y-117075189D01*
X133264252Y-117122808D01*
X133311871Y-117218046D01*
X133311871Y-117456141D01*
X133264252Y-117551379D01*
X133216633Y-117598998D01*
X133121395Y-117646617D01*
X132883300Y-117646617D01*
X132788062Y-117598998D01*
X132740443Y-117551379D01*
X135027659Y-86141429D02*
X135027659Y-86617619D01*
X134694326Y-85617619D02*
X135027659Y-86141429D01*
X135360992Y-85617619D01*
X136218135Y-86617619D02*
X135646707Y-86617619D01*
X135932421Y-86617619D02*
X135932421Y-85617619D01*
X135837183Y-85760477D01*
X135741945Y-85855715D01*
X135646707Y-85903334D01*
X134811871Y-64245142D02*
X134811871Y-64892761D01*
X134849967Y-64968952D01*
X134888062Y-65007047D01*
X134964252Y-65045142D01*
X135116633Y-65045142D01*
X135192824Y-65007047D01*
X135230919Y-64968952D01*
X135269014Y-64892761D01*
X135269014Y-64245142D01*
X135611871Y-65007047D02*
X135726157Y-65045142D01*
X135916633Y-65045142D01*
X135992824Y-65007047D01*
X136030919Y-64968952D01*
X136069014Y-64892761D01*
X136069014Y-64816571D01*
X136030919Y-64740380D01*
X135992824Y-64702285D01*
X135916633Y-64664190D01*
X135764252Y-64626095D01*
X135688062Y-64587999D01*
X135649967Y-64549904D01*
X135611871Y-64473714D01*
X135611871Y-64397523D01*
X135649967Y-64321333D01*
X135688062Y-64283238D01*
X135764252Y-64245142D01*
X135954728Y-64245142D01*
X136069014Y-64283238D01*
X136678538Y-64626095D02*
X136792824Y-64664190D01*
X136830919Y-64702285D01*
X136869014Y-64778476D01*
X136869014Y-64892761D01*
X136830919Y-64968952D01*
X136792824Y-65007047D01*
X136716633Y-65045142D01*
X136411871Y-65045142D01*
X136411871Y-64245142D01*
X136678538Y-64245142D01*
X136754728Y-64283238D01*
X136792824Y-64321333D01*
X136830919Y-64397523D01*
X136830919Y-64473714D01*
X136792824Y-64549904D01*
X136754728Y-64587999D01*
X136678538Y-64626095D01*
X136411871Y-64626095D01*
X137630919Y-65045142D02*
X137173776Y-65045142D01*
X137402348Y-65045142D02*
X137402348Y-64245142D01*
X137326157Y-64359428D01*
X137249967Y-64435618D01*
X137173776Y-64473714D01*
X135630942Y-110849619D02*
X135630942Y-111659143D01*
X135678561Y-111754381D01*
X135726180Y-111802000D01*
X135821418Y-111849619D01*
X136011894Y-111849619D01*
X136107132Y-111802000D01*
X136154751Y-111754381D01*
X136202370Y-111659143D01*
X136202370Y-110849619D01*
X136630942Y-110944858D02*
X136678561Y-110897239D01*
X136773799Y-110849619D01*
X137011894Y-110849619D01*
X137107132Y-110897239D01*
X137154751Y-110944858D01*
X137202370Y-111040096D01*
X137202370Y-111135334D01*
X137154751Y-111278191D01*
X136583323Y-111849619D01*
X137202370Y-111849619D01*
X135669012Y-76385905D02*
X135669012Y-76952572D01*
X135702346Y-77019239D01*
X135735679Y-77052572D01*
X135802346Y-77085905D01*
X135935679Y-77085905D01*
X136002346Y-77052572D01*
X136035679Y-77019239D01*
X136069012Y-76952572D01*
X136069012Y-76385905D01*
X136769012Y-77085905D02*
X136369012Y-77085905D01*
X136569012Y-77085905D02*
X136569012Y-76385905D01*
X136502346Y-76485905D01*
X136435679Y-76552572D01*
X136369012Y-76585905D01*
X135369012Y-81100739D02*
X135602346Y-81100739D01*
X135702346Y-81467405D02*
X135369012Y-81467405D01*
X135369012Y-80767405D01*
X135702346Y-80767405D01*
X135969012Y-81434072D02*
X136069012Y-81467405D01*
X136235679Y-81467405D01*
X136302346Y-81434072D01*
X136335679Y-81400739D01*
X136369012Y-81334072D01*
X136369012Y-81267405D01*
X136335679Y-81200739D01*
X136302346Y-81167405D01*
X136235679Y-81134072D01*
X136102346Y-81100739D01*
X136035679Y-81067405D01*
X136002346Y-81034072D01*
X135969012Y-80967405D01*
X135969012Y-80900739D01*
X136002346Y-80834072D01*
X136035679Y-80800739D01*
X136102346Y-80767405D01*
X136269012Y-80767405D01*
X136369012Y-80800739D01*
X136669012Y-81467405D02*
X136669012Y-80767405D01*
X136835679Y-80767405D01*
X136935679Y-80800739D01*
X137002346Y-80867405D01*
X137035679Y-80934072D01*
X137069012Y-81067405D01*
X137069012Y-81167405D01*
X137035679Y-81300739D01*
X137002346Y-81367405D01*
X136935679Y-81434072D01*
X136835679Y-81467405D01*
X136669012Y-81467405D01*
X100116005Y-121499876D02*
X100196237Y-121568243D01*
X100350767Y-121630677D01*
X100425066Y-121624745D01*
X100468459Y-121606326D01*
X100524339Y-121557000D01*
X100549313Y-121495188D01*
X100543381Y-121420889D01*
X100524961Y-121377496D01*
X100475636Y-121321616D01*
X100364498Y-121240762D01*
X100315173Y-121184882D01*
X100296754Y-121141489D01*
X100290821Y-121067190D01*
X100315795Y-121005378D01*
X100371675Y-120956052D01*
X100415068Y-120937633D01*
X100489367Y-120931701D01*
X100643898Y-120994135D01*
X100724129Y-121062502D01*
X100952959Y-121119004D02*
X100845265Y-121830467D01*
X101156193Y-121416823D01*
X101092514Y-121930362D01*
X101509270Y-121343768D01*
X101694706Y-121418689D02*
X102096486Y-121581019D01*
X101780248Y-121740860D01*
X101872966Y-121778320D01*
X101922292Y-121834200D01*
X101940711Y-121877593D01*
X101946643Y-121951893D01*
X101884209Y-122106423D01*
X101828329Y-122155749D01*
X101784936Y-122174168D01*
X101710637Y-122180100D01*
X101525200Y-122105179D01*
X101475875Y-122049299D01*
X101457455Y-122005906D01*
X102652796Y-121805783D02*
X102529172Y-121755835D01*
X102454873Y-121761768D01*
X102411480Y-121780187D01*
X102312207Y-121847932D01*
X102231353Y-121959069D01*
X102131458Y-122206318D01*
X102137390Y-122280617D01*
X102155810Y-122324010D01*
X102205135Y-122379890D01*
X102328759Y-122429838D01*
X102403059Y-122423906D01*
X102446452Y-122405486D01*
X102502332Y-122356161D01*
X102564766Y-122201630D01*
X102558834Y-122127331D01*
X102540414Y-122083938D01*
X102491089Y-122028058D01*
X102367464Y-121978111D01*
X102293165Y-121984043D01*
X102249772Y-122002462D01*
X102193892Y-122051788D01*
X126130853Y-112065796D02*
X125797520Y-111589606D01*
X125559424Y-112065796D02*
X125559424Y-111065796D01*
X125940377Y-111065796D01*
X126035615Y-111113416D01*
X126083234Y-111161035D01*
X126130853Y-111256273D01*
X126130853Y-111399130D01*
X126083234Y-111494368D01*
X126035615Y-111541987D01*
X125940377Y-111589606D01*
X125559424Y-111589606D01*
X126987996Y-111065796D02*
X126797520Y-111065796D01*
X126702281Y-111113416D01*
X126654662Y-111161035D01*
X126559424Y-111303892D01*
X126511805Y-111494368D01*
X126511805Y-111875320D01*
X126559424Y-111970558D01*
X126607043Y-112018177D01*
X126702281Y-112065796D01*
X126892758Y-112065796D01*
X126987996Y-112018177D01*
X127035615Y-111970558D01*
X127083234Y-111875320D01*
X127083234Y-111637225D01*
X127035615Y-111541987D01*
X126987996Y-111494368D01*
X126892758Y-111446749D01*
X126702281Y-111446749D01*
X126607043Y-111494368D01*
X126559424Y-111541987D01*
X126511805Y-111637225D01*
X138956681Y-82038619D02*
X138623348Y-81562429D01*
X138385252Y-82038619D02*
X138385252Y-81038619D01*
X138766205Y-81038619D01*
X138861443Y-81086239D01*
X138909062Y-81133858D01*
X138956681Y-81229096D01*
X138956681Y-81371953D01*
X138909062Y-81467191D01*
X138861443Y-81514810D01*
X138766205Y-81562429D01*
X138385252Y-81562429D01*
X139861443Y-81038619D02*
X139385252Y-81038619D01*
X139337633Y-81514810D01*
X139385252Y-81467191D01*
X139480490Y-81419572D01*
X139718586Y-81419572D01*
X139813824Y-81467191D01*
X139861443Y-81514810D01*
X139909062Y-81610048D01*
X139909062Y-81848143D01*
X139861443Y-81943381D01*
X139813824Y-81991000D01*
X139718586Y-82038619D01*
X139480490Y-82038619D01*
X139385252Y-81991000D01*
X139337633Y-81943381D01*
X133114685Y-81984114D02*
X132781352Y-81507924D01*
X132543256Y-81984114D02*
X132543256Y-80984114D01*
X132924209Y-80984114D01*
X133019447Y-81031734D01*
X133067066Y-81079353D01*
X133114685Y-81174591D01*
X133114685Y-81317448D01*
X133067066Y-81412686D01*
X133019447Y-81460305D01*
X132924209Y-81507924D01*
X132543256Y-81507924D01*
X133971828Y-81317448D02*
X133971828Y-81984114D01*
X133733732Y-80936495D02*
X133495637Y-81650781D01*
X134114685Y-81650781D01*
X131267201Y-68187298D02*
X130933868Y-67711108D01*
X130695772Y-68187298D02*
X130695772Y-67187298D01*
X131076725Y-67187298D01*
X131171963Y-67234918D01*
X131219582Y-67282537D01*
X131267201Y-67377775D01*
X131267201Y-67520632D01*
X131219582Y-67615870D01*
X131171963Y-67663489D01*
X131076725Y-67711108D01*
X130695772Y-67711108D01*
X131600534Y-67187298D02*
X132219582Y-67187298D01*
X131886248Y-67568251D01*
X132029106Y-67568251D01*
X132124344Y-67615870D01*
X132171963Y-67663489D01*
X132219582Y-67758727D01*
X132219582Y-67996822D01*
X132171963Y-68092060D01*
X132124344Y-68139679D01*
X132029106Y-68187298D01*
X131743391Y-68187298D01*
X131648153Y-68139679D01*
X131600534Y-68092060D01*
X139331701Y-67171296D02*
X138998368Y-66695106D01*
X138760272Y-67171296D02*
X138760272Y-66171296D01*
X139141225Y-66171296D01*
X139236463Y-66218916D01*
X139284082Y-66266535D01*
X139331701Y-66361773D01*
X139331701Y-66504630D01*
X139284082Y-66599868D01*
X139236463Y-66647487D01*
X139141225Y-66695106D01*
X138760272Y-66695106D01*
X139712653Y-66266535D02*
X139760272Y-66218916D01*
X139855510Y-66171296D01*
X140093606Y-66171296D01*
X140188844Y-66218916D01*
X140236463Y-66266535D01*
X140284082Y-66361773D01*
X140284082Y-66457011D01*
X140236463Y-66599868D01*
X139665034Y-67171296D01*
X140284082Y-67171296D01*
X110345372Y-120860423D02*
X110214695Y-120294038D01*
X109815553Y-120646362D02*
X110190159Y-119719179D01*
X110543372Y-119861886D01*
X110613837Y-119941714D01*
X110640150Y-120003704D01*
X110648625Y-120109846D01*
X110595110Y-120242301D01*
X110515281Y-120312766D01*
X110453291Y-120339079D01*
X110347150Y-120347554D01*
X109993937Y-120204846D01*
X111228404Y-121217192D02*
X110698585Y-121003131D01*
X110963495Y-121110161D02*
X111338101Y-120182977D01*
X111196283Y-120279755D01*
X111072303Y-120332382D01*
X110966161Y-120340856D01*
X154110824Y-116852315D02*
X154110824Y-116152315D01*
X154344157Y-116652315D01*
X154577490Y-116152315D01*
X154577490Y-116852315D01*
X154910824Y-116852315D02*
X154910824Y-116152315D01*
X155210824Y-116818982D02*
X155310824Y-116852315D01*
X155477490Y-116852315D01*
X155544157Y-116818982D01*
X155577490Y-116785649D01*
X155610824Y-116718982D01*
X155610824Y-116652315D01*
X155577490Y-116585649D01*
X155544157Y-116552315D01*
X155477490Y-116518982D01*
X155344157Y-116485649D01*
X155277490Y-116452315D01*
X155244157Y-116418982D01*
X155210824Y-116352315D01*
X155210824Y-116285649D01*
X155244157Y-116218982D01*
X155277490Y-116185649D01*
X155344157Y-116152315D01*
X155510824Y-116152315D01*
X155610824Y-116185649D01*
X156044157Y-116152315D02*
X156177490Y-116152315D01*
X156244157Y-116185649D01*
X156310824Y-116252315D01*
X156344157Y-116385649D01*
X156344157Y-116618982D01*
X156310824Y-116752315D01*
X156244157Y-116818982D01*
X156177490Y-116852315D01*
X156044157Y-116852315D01*
X155977490Y-116818982D01*
X155910824Y-116752315D01*
X155877490Y-116618982D01*
X155877490Y-116385649D01*
X155910824Y-116252315D01*
X155977490Y-116185649D01*
X156044157Y-116152315D01*
X151737490Y-116152315D02*
X151970824Y-116852315D01*
X152204157Y-116152315D01*
X152837490Y-116785649D02*
X152804157Y-116818982D01*
X152704157Y-116852315D01*
X152637490Y-116852315D01*
X152537490Y-116818982D01*
X152470824Y-116752315D01*
X152437490Y-116685649D01*
X152404157Y-116552315D01*
X152404157Y-116452315D01*
X152437490Y-116318982D01*
X152470824Y-116252315D01*
X152537490Y-116185649D01*
X152637490Y-116152315D01*
X152704157Y-116152315D01*
X152804157Y-116185649D01*
X152837490Y-116218982D01*
X153537490Y-116785649D02*
X153504157Y-116818982D01*
X153404157Y-116852315D01*
X153337490Y-116852315D01*
X153237490Y-116818982D01*
X153170824Y-116752315D01*
X153137490Y-116685649D01*
X153104157Y-116552315D01*
X153104157Y-116452315D01*
X153137490Y-116318982D01*
X153170824Y-116252315D01*
X153237490Y-116185649D01*
X153337490Y-116152315D01*
X153404157Y-116152315D01*
X153504157Y-116185649D01*
X153537490Y-116218982D01*
X149230824Y-116818982D02*
X149330824Y-116852315D01*
X149497490Y-116852315D01*
X149564157Y-116818982D01*
X149597490Y-116785649D01*
X149630824Y-116718982D01*
X149630824Y-116652315D01*
X149597490Y-116585649D01*
X149564157Y-116552315D01*
X149497490Y-116518982D01*
X149364157Y-116485649D01*
X149297490Y-116452315D01*
X149264157Y-116418982D01*
X149230824Y-116352315D01*
X149230824Y-116285649D01*
X149264157Y-116218982D01*
X149297490Y-116185649D01*
X149364157Y-116152315D01*
X149530824Y-116152315D01*
X149630824Y-116185649D01*
X150330824Y-116785649D02*
X150297490Y-116818982D01*
X150197490Y-116852315D01*
X150130824Y-116852315D01*
X150030824Y-116818982D01*
X149964157Y-116752315D01*
X149930824Y-116685649D01*
X149897490Y-116552315D01*
X149897490Y-116452315D01*
X149930824Y-116318982D01*
X149964157Y-116252315D01*
X150030824Y-116185649D01*
X150130824Y-116152315D01*
X150197490Y-116152315D01*
X150297490Y-116185649D01*
X150330824Y-116218982D01*
X150630824Y-116852315D02*
X150630824Y-116152315D01*
X151030824Y-116852315D02*
X150730824Y-116452315D01*
X151030824Y-116152315D02*
X150630824Y-116552315D01*
X146490824Y-116852315D02*
X146490824Y-116152315D01*
X146724157Y-116652315D01*
X146957490Y-116152315D01*
X146957490Y-116852315D01*
X147424157Y-116152315D02*
X147557490Y-116152315D01*
X147624157Y-116185649D01*
X147690824Y-116252315D01*
X147724157Y-116385649D01*
X147724157Y-116618982D01*
X147690824Y-116752315D01*
X147624157Y-116818982D01*
X147557490Y-116852315D01*
X147424157Y-116852315D01*
X147357490Y-116818982D01*
X147290824Y-116752315D01*
X147257490Y-116618982D01*
X147257490Y-116385649D01*
X147290824Y-116252315D01*
X147357490Y-116185649D01*
X147424157Y-116152315D01*
X147990824Y-116818982D02*
X148090824Y-116852315D01*
X148257490Y-116852315D01*
X148324157Y-116818982D01*
X148357490Y-116785649D01*
X148390824Y-116718982D01*
X148390824Y-116652315D01*
X148357490Y-116585649D01*
X148324157Y-116552315D01*
X148257490Y-116518982D01*
X148124157Y-116485649D01*
X148057490Y-116452315D01*
X148024157Y-116418982D01*
X147990824Y-116352315D01*
X147990824Y-116285649D01*
X148024157Y-116218982D01*
X148057490Y-116185649D01*
X148124157Y-116152315D01*
X148290824Y-116152315D01*
X148390824Y-116185649D01*
X148690824Y-116852315D02*
X148690824Y-116152315D01*
X144667490Y-116852315D02*
X144434157Y-116518982D01*
X144267490Y-116852315D02*
X144267490Y-116152315D01*
X144534157Y-116152315D01*
X144600824Y-116185649D01*
X144634157Y-116218982D01*
X144667490Y-116285649D01*
X144667490Y-116385649D01*
X144634157Y-116452315D01*
X144600824Y-116485649D01*
X144534157Y-116518982D01*
X144267490Y-116518982D01*
X144934157Y-116818982D02*
X145034157Y-116852315D01*
X145200824Y-116852315D01*
X145267490Y-116818982D01*
X145300824Y-116785649D01*
X145334157Y-116718982D01*
X145334157Y-116652315D01*
X145300824Y-116585649D01*
X145267490Y-116552315D01*
X145200824Y-116518982D01*
X145067490Y-116485649D01*
X145000824Y-116452315D01*
X144967490Y-116418982D01*
X144934157Y-116352315D01*
X144934157Y-116285649D01*
X144967490Y-116218982D01*
X145000824Y-116185649D01*
X145067490Y-116152315D01*
X145234157Y-116152315D01*
X145334157Y-116185649D01*
X145534157Y-116152315D02*
X145934157Y-116152315D01*
X145734157Y-116852315D02*
X145734157Y-116152315D01*
X141977490Y-116185649D02*
X141910824Y-116152315D01*
X141810824Y-116152315D01*
X141710824Y-116185649D01*
X141644157Y-116252315D01*
X141610824Y-116318982D01*
X141577490Y-116452315D01*
X141577490Y-116552315D01*
X141610824Y-116685649D01*
X141644157Y-116752315D01*
X141710824Y-116818982D01*
X141810824Y-116852315D01*
X141877490Y-116852315D01*
X141977490Y-116818982D01*
X142010824Y-116785649D01*
X142010824Y-116552315D01*
X141877490Y-116552315D01*
X142310824Y-116852315D02*
X142310824Y-116152315D01*
X142710824Y-116852315D01*
X142710824Y-116152315D01*
X143044157Y-116852315D02*
X143044157Y-116152315D01*
X143210824Y-116152315D01*
X143310824Y-116185649D01*
X143377490Y-116252315D01*
X143410824Y-116318982D01*
X143444157Y-116452315D01*
X143444157Y-116552315D01*
X143410824Y-116685649D01*
X143377490Y-116752315D01*
X143310824Y-116818982D01*
X143210824Y-116852315D01*
X143044157Y-116852315D01*
X136117036Y-73505488D02*
X135783703Y-73505488D01*
X135783703Y-74029297D02*
X135783703Y-73029297D01*
X136259893Y-73029297D01*
X137164655Y-74029297D02*
X136593227Y-74029297D01*
X136878941Y-74029297D02*
X136878941Y-73029297D01*
X136783703Y-73172155D01*
X136688465Y-73267393D01*
X136593227Y-73315012D01*
X139980887Y-113724137D02*
X139933268Y-113771756D01*
X139790411Y-113819375D01*
X139695173Y-113819375D01*
X139552315Y-113771756D01*
X139457077Y-113676518D01*
X139409458Y-113581280D01*
X139361839Y-113390804D01*
X139361839Y-113247947D01*
X139409458Y-113057471D01*
X139457077Y-112962233D01*
X139552315Y-112866995D01*
X139695173Y-112819375D01*
X139790411Y-112819375D01*
X139933268Y-112866995D01*
X139980887Y-112914614D01*
X140314220Y-112819375D02*
X140980887Y-112819375D01*
X140552315Y-113819375D01*
X126314198Y-99715060D02*
X126266579Y-99762679D01*
X126123722Y-99810298D01*
X126028484Y-99810298D01*
X125885626Y-99762679D01*
X125790388Y-99667441D01*
X125742769Y-99572203D01*
X125695150Y-99381727D01*
X125695150Y-99238870D01*
X125742769Y-99048394D01*
X125790388Y-98953156D01*
X125885626Y-98857918D01*
X126028484Y-98810298D01*
X126123722Y-98810298D01*
X126266579Y-98857918D01*
X126314198Y-98905537D01*
X127171341Y-98810298D02*
X126980865Y-98810298D01*
X126885626Y-98857918D01*
X126838007Y-98905537D01*
X126742769Y-99048394D01*
X126695150Y-99238870D01*
X126695150Y-99619822D01*
X126742769Y-99715060D01*
X126790388Y-99762679D01*
X126885626Y-99810298D01*
X127076103Y-99810298D01*
X127171341Y-99762679D01*
X127218960Y-99715060D01*
X127266579Y-99619822D01*
X127266579Y-99381727D01*
X127218960Y-99286489D01*
X127171341Y-99238870D01*
X127076103Y-99191251D01*
X126885626Y-99191251D01*
X126790388Y-99238870D01*
X126742769Y-99286489D01*
X126695150Y-99381727D01*
X150253702Y-107970059D02*
X150206083Y-108017678D01*
X150063226Y-108065297D01*
X149967988Y-108065297D01*
X149825130Y-108017678D01*
X149729892Y-107922440D01*
X149682273Y-107827202D01*
X149634654Y-107636726D01*
X149634654Y-107493869D01*
X149682273Y-107303393D01*
X149729892Y-107208155D01*
X149825130Y-107112917D01*
X149967988Y-107065297D01*
X150063226Y-107065297D01*
X150206083Y-107112917D01*
X150253702Y-107160536D01*
X151158464Y-107065297D02*
X150682273Y-107065297D01*
X150634654Y-107541488D01*
X150682273Y-107493869D01*
X150777511Y-107446250D01*
X151015607Y-107446250D01*
X151110845Y-107493869D01*
X151158464Y-107541488D01*
X151206083Y-107636726D01*
X151206083Y-107874821D01*
X151158464Y-107970059D01*
X151110845Y-108017678D01*
X151015607Y-108065297D01*
X150777511Y-108065297D01*
X150682273Y-108017678D01*
X150634654Y-107970059D01*
X134759535Y-112695499D02*
X134711916Y-112743118D01*
X134569059Y-112790737D01*
X134473821Y-112790737D01*
X134330963Y-112743118D01*
X134235725Y-112647880D01*
X134188106Y-112552642D01*
X134140487Y-112362166D01*
X134140487Y-112219309D01*
X134188106Y-112028833D01*
X134235725Y-111933595D01*
X134330963Y-111838357D01*
X134473821Y-111790737D01*
X134569059Y-111790737D01*
X134711916Y-111838357D01*
X134759535Y-111885976D01*
X135616678Y-112124071D02*
X135616678Y-112790737D01*
X135378582Y-111743118D02*
X135140487Y-112457404D01*
X135759535Y-112457404D01*
X145046701Y-105620558D02*
X144999082Y-105668177D01*
X144856225Y-105715796D01*
X144760987Y-105715796D01*
X144618129Y-105668177D01*
X144522891Y-105572939D01*
X144475272Y-105477701D01*
X144427653Y-105287225D01*
X144427653Y-105144368D01*
X144475272Y-104953892D01*
X144522891Y-104858654D01*
X144618129Y-104763416D01*
X144760987Y-104715796D01*
X144856225Y-104715796D01*
X144999082Y-104763416D01*
X145046701Y-104811035D01*
X145380034Y-104715796D02*
X145999082Y-104715796D01*
X145665748Y-105096749D01*
X145808606Y-105096749D01*
X145903844Y-105144368D01*
X145951463Y-105191987D01*
X145999082Y-105287225D01*
X145999082Y-105525320D01*
X145951463Y-105620558D01*
X145903844Y-105668177D01*
X145808606Y-105715796D01*
X145522891Y-105715796D01*
X145427653Y-105668177D01*
X145380034Y-105620558D01*
X139522199Y-87078561D02*
X139474580Y-87126180D01*
X139331723Y-87173799D01*
X139236485Y-87173799D01*
X139093627Y-87126180D01*
X138998389Y-87030942D01*
X138950770Y-86935704D01*
X138903151Y-86745228D01*
X138903151Y-86602371D01*
X138950770Y-86411895D01*
X138998389Y-86316657D01*
X139093627Y-86221419D01*
X139236485Y-86173799D01*
X139331723Y-86173799D01*
X139474580Y-86221419D01*
X139522199Y-86269038D01*
X139903151Y-86269038D02*
X139950770Y-86221419D01*
X140046008Y-86173799D01*
X140284104Y-86173799D01*
X140379342Y-86221419D01*
X140426961Y-86269038D01*
X140474580Y-86364276D01*
X140474580Y-86459514D01*
X140426961Y-86602371D01*
X139855532Y-87173799D01*
X140474580Y-87173799D01*
X131076700Y-87078560D02*
X131029081Y-87126179D01*
X130886224Y-87173798D01*
X130790986Y-87173798D01*
X130648128Y-87126179D01*
X130552890Y-87030941D01*
X130505271Y-86935703D01*
X130457652Y-86745227D01*
X130457652Y-86602370D01*
X130505271Y-86411894D01*
X130552890Y-86316656D01*
X130648128Y-86221418D01*
X130790986Y-86173798D01*
X130886224Y-86173798D01*
X131029081Y-86221418D01*
X131076700Y-86269037D01*
X132029081Y-87173798D02*
X131457652Y-87173798D01*
X131743367Y-87173798D02*
X131743367Y-86173798D01*
X131648128Y-86316656D01*
X131552890Y-86411894D01*
X131457652Y-86459513D01*
X180705810Y-119086759D02*
X180848559Y-119038816D01*
X181038710Y-118895527D01*
X181086113Y-118800181D01*
X181095485Y-118733493D01*
X181076200Y-118628774D01*
X181018884Y-118552714D01*
X180923538Y-118505311D01*
X180856850Y-118495939D01*
X180752132Y-118515224D01*
X180571353Y-118591825D01*
X180466634Y-118611111D01*
X180399946Y-118601738D01*
X180304600Y-118554336D01*
X180247285Y-118478275D01*
X180227999Y-118373557D01*
X180237372Y-118306869D01*
X180284774Y-118211523D01*
X180474926Y-118068233D01*
X180617674Y-118020290D01*
X180855228Y-117781655D02*
X181647194Y-118437001D01*
X181369448Y-117751916D01*
X181951437Y-118207738D01*
X181539773Y-117265813D01*
X181767954Y-117093866D02*
X182262348Y-116721314D01*
X182225399Y-117226161D01*
X182339490Y-117140188D01*
X182444208Y-117120902D01*
X182510896Y-117130275D01*
X182606242Y-117177677D01*
X182749531Y-117367828D01*
X182768817Y-117472547D01*
X182759444Y-117539235D01*
X182712042Y-117634581D01*
X182483860Y-117806528D01*
X182379142Y-117825814D01*
X182312454Y-117816441D01*
X183147498Y-116471684D02*
X183548708Y-117004108D01*
X182728083Y-116310732D02*
X182967800Y-117024475D01*
X183462193Y-116651923D01*
X161251911Y-131846143D02*
X161379523Y-131766200D01*
X161530971Y-131582480D01*
X161554805Y-131478703D01*
X161548351Y-131411669D01*
X161505152Y-131314346D01*
X161431664Y-131253767D01*
X161327887Y-131229932D01*
X161260853Y-131236387D01*
X161163530Y-131279586D01*
X161005629Y-131396272D01*
X160908306Y-131439471D01*
X160841272Y-131445925D01*
X160737495Y-131422091D01*
X160664007Y-131361512D01*
X160620808Y-131264189D01*
X160614353Y-131197155D01*
X160638188Y-131093378D01*
X160789635Y-130909658D01*
X160917248Y-130829715D01*
X161092530Y-130542217D02*
X162015602Y-130994576D01*
X161585599Y-130393258D01*
X162257917Y-130700623D01*
X161637740Y-129880825D01*
X161819476Y-129660361D02*
X162213239Y-129182688D01*
X162295165Y-129682212D01*
X162386034Y-129571980D01*
X162483356Y-129528781D01*
X162550390Y-129522327D01*
X162654167Y-129546162D01*
X162837888Y-129697609D01*
X162881086Y-129794932D01*
X162887541Y-129861965D01*
X162863706Y-129965743D01*
X162681969Y-130186207D01*
X162584646Y-130229406D01*
X162517613Y-130235860D01*
X162425265Y-128925480D02*
X162819028Y-128447808D01*
X162900954Y-128947332D01*
X162991822Y-128837100D01*
X163089145Y-128793901D01*
X163156179Y-128787446D01*
X163259956Y-128811281D01*
X163443676Y-128962728D01*
X163486875Y-129060051D01*
X163493330Y-129127085D01*
X163469495Y-129230862D01*
X163287758Y-129451326D01*
X163190435Y-129494525D01*
X163123402Y-129500980D01*
X108850789Y-128990101D02*
X108904913Y-129130622D01*
X109056360Y-129314342D01*
X109153683Y-129357541D01*
X109220716Y-129363996D01*
X109324494Y-129340161D01*
X109397982Y-129279582D01*
X109441181Y-129182259D01*
X109447635Y-129115225D01*
X109423800Y-129011448D01*
X109339387Y-128834182D01*
X109315552Y-128730405D01*
X109322006Y-128663371D01*
X109365205Y-128566049D01*
X109438693Y-128505470D01*
X109542471Y-128481635D01*
X109609504Y-128488089D01*
X109706827Y-128531288D01*
X109858274Y-128715008D01*
X109912398Y-128855530D01*
X110161168Y-129082448D02*
X109540991Y-129902247D01*
X110213309Y-129594881D01*
X109783307Y-130196199D01*
X110706378Y-129743841D01*
X110888115Y-129964305D02*
X111281878Y-130441977D01*
X110775899Y-130427085D01*
X110866768Y-130537317D01*
X110890603Y-130641094D01*
X110884148Y-130708128D01*
X110840949Y-130805451D01*
X110657229Y-130956898D01*
X110553452Y-130980733D01*
X110486418Y-130974278D01*
X110389095Y-130931080D01*
X110207359Y-130710615D01*
X110183524Y-130606838D01*
X110189978Y-130539804D01*
X111450705Y-130796509D02*
X111517739Y-130802963D01*
X111615062Y-130846162D01*
X111766509Y-131029882D01*
X111790344Y-131133659D01*
X111783889Y-131200693D01*
X111740690Y-131298016D01*
X111667202Y-131358595D01*
X111526681Y-131412719D01*
X110722279Y-131335264D01*
X111116042Y-131812936D01*
X88808586Y-116908758D02*
X88894019Y-117032762D01*
X89084170Y-117176051D01*
X89188888Y-117195337D01*
X89255576Y-117185964D01*
X89350922Y-117138562D01*
X89408238Y-117062501D01*
X89427524Y-116957783D01*
X89418151Y-116891095D01*
X89370749Y-116795749D01*
X89247285Y-116643087D01*
X89199883Y-116547741D01*
X89190510Y-116481053D01*
X89209796Y-116376334D01*
X89267111Y-116300274D01*
X89362457Y-116252871D01*
X89429146Y-116243499D01*
X89533864Y-116262784D01*
X89724015Y-116406074D01*
X89809448Y-116530077D01*
X90104318Y-116692652D02*
X89692654Y-117634577D01*
X90274643Y-117178754D01*
X89996896Y-117863840D01*
X90788863Y-117208494D01*
X91017044Y-117380441D02*
X91511438Y-117752993D01*
X91015963Y-117856630D01*
X91130054Y-117942604D01*
X91177456Y-118037950D01*
X91186829Y-118104638D01*
X91167543Y-118209356D01*
X91024254Y-118399507D01*
X90928908Y-118446910D01*
X90862220Y-118456282D01*
X90757502Y-118436997D01*
X90529320Y-118265050D01*
X90481917Y-118169704D01*
X90472545Y-118103016D01*
X91670228Y-119124786D02*
X91213865Y-118780891D01*
X91442046Y-118952838D02*
X92043861Y-118154203D01*
X91881827Y-118210978D01*
X91748451Y-118229723D01*
X91643733Y-118210437D01*
X224611336Y-74486481D02*
X224761629Y-74477117D01*
X224982387Y-74387925D01*
X225052852Y-74308097D01*
X225079165Y-74246107D01*
X225087640Y-74139965D01*
X225051963Y-74051662D01*
X224972135Y-73981197D01*
X224910145Y-73954884D01*
X224804003Y-73946409D01*
X224609558Y-73973611D01*
X224503416Y-73965136D01*
X224441426Y-73938823D01*
X224361598Y-73868358D01*
X224325921Y-73780055D01*
X224334396Y-73673913D01*
X224360709Y-73611923D01*
X224431174Y-73532095D01*
X224651932Y-73442903D01*
X224802225Y-73433539D01*
X225093448Y-73264519D02*
X225688813Y-74102511D01*
X225597843Y-73368883D01*
X226042026Y-73959803D01*
X225888177Y-72943427D01*
X226153087Y-72836397D02*
X226727058Y-72604498D01*
X226560704Y-73082579D01*
X226693159Y-73029064D01*
X226799300Y-73037539D01*
X226861290Y-73063852D01*
X226941119Y-73134317D01*
X227030311Y-73355075D01*
X227021836Y-73461217D01*
X226995523Y-73523207D01*
X226925058Y-73603035D01*
X226660148Y-73710066D01*
X226554007Y-73701591D01*
X226492017Y-73675278D01*
X227301029Y-72372598D02*
X227389332Y-72336921D01*
X227495474Y-72345396D01*
X227557464Y-72371709D01*
X227637292Y-72442174D01*
X227752797Y-72600942D01*
X227841989Y-72821700D01*
X227869191Y-73016145D01*
X227860717Y-73122287D01*
X227834403Y-73184277D01*
X227763939Y-73264105D01*
X227675635Y-73299782D01*
X227569494Y-73291307D01*
X227507504Y-73264994D01*
X227427675Y-73194529D01*
X227312170Y-73035761D01*
X227222978Y-72815003D01*
X227195776Y-72620558D01*
X227204251Y-72514417D01*
X227230564Y-72452427D01*
X227301029Y-72372598D01*
X206132836Y-76835985D02*
X206283129Y-76826621D01*
X206503887Y-76737429D01*
X206574352Y-76657601D01*
X206600665Y-76595611D01*
X206609140Y-76489469D01*
X206573463Y-76401166D01*
X206493635Y-76330701D01*
X206431645Y-76304388D01*
X206325503Y-76295913D01*
X206131058Y-76323115D01*
X206024916Y-76314640D01*
X205962926Y-76288327D01*
X205883098Y-76217862D01*
X205847421Y-76129559D01*
X205855896Y-76023417D01*
X205882209Y-75961427D01*
X205952674Y-75881599D01*
X206173432Y-75792407D01*
X206323725Y-75783043D01*
X206614948Y-75614023D02*
X207210313Y-76452015D01*
X207119343Y-75718387D01*
X207563526Y-76309307D01*
X207409677Y-75292931D01*
X207754415Y-75256366D02*
X207780728Y-75194376D01*
X207851193Y-75114547D01*
X208071951Y-75025355D01*
X208178093Y-75033830D01*
X208240083Y-75060143D01*
X208319911Y-75130608D01*
X208355588Y-75218911D01*
X208364952Y-75369205D01*
X208049193Y-76113085D01*
X208623164Y-75881185D01*
X209064681Y-75702801D02*
X209241287Y-75631448D01*
X209311752Y-75551619D01*
X209338065Y-75489629D01*
X209372853Y-75321498D01*
X209345651Y-75127053D01*
X209202944Y-74773840D01*
X209123115Y-74703375D01*
X209061125Y-74677062D01*
X208954984Y-74668587D01*
X208778377Y-74739941D01*
X208707912Y-74819769D01*
X208681599Y-74881759D01*
X208673124Y-74987901D01*
X208762316Y-75208659D01*
X208842145Y-75279124D01*
X208904135Y-75305437D01*
X209010276Y-75313912D01*
X209186883Y-75242558D01*
X209257348Y-75162730D01*
X209283661Y-75100740D01*
X209292136Y-74994598D01*
X188543338Y-81344481D02*
X188693631Y-81335117D01*
X188914389Y-81245925D01*
X188984854Y-81166097D01*
X189011167Y-81104107D01*
X189019642Y-80997965D01*
X188983965Y-80909662D01*
X188904137Y-80839197D01*
X188842147Y-80812884D01*
X188736005Y-80804409D01*
X188541560Y-80831611D01*
X188435418Y-80823136D01*
X188373428Y-80796823D01*
X188293600Y-80726358D01*
X188257923Y-80638055D01*
X188266398Y-80531913D01*
X188292711Y-80469923D01*
X188363176Y-80390095D01*
X188583934Y-80300903D01*
X188734227Y-80291539D01*
X189025450Y-80122519D02*
X189620815Y-80960511D01*
X189529845Y-80226883D01*
X189974028Y-80817803D01*
X189820179Y-79801427D01*
X190164917Y-79764862D02*
X190191230Y-79702872D01*
X190261695Y-79623043D01*
X190482453Y-79533851D01*
X190588595Y-79542326D01*
X190650585Y-79568639D01*
X190730413Y-79639104D01*
X190766090Y-79727407D01*
X190775454Y-79877701D01*
X190459695Y-80621581D01*
X191033666Y-80389681D01*
X191349425Y-79645801D02*
X191243283Y-79637326D01*
X191181293Y-79611013D01*
X191101465Y-79540548D01*
X191083626Y-79496397D01*
X191092101Y-79390255D01*
X191118414Y-79328265D01*
X191188879Y-79248437D01*
X191365486Y-79177083D01*
X191471627Y-79185558D01*
X191533617Y-79211871D01*
X191613446Y-79282336D01*
X191631284Y-79326487D01*
X191622809Y-79432629D01*
X191596496Y-79494619D01*
X191526031Y-79574448D01*
X191349425Y-79645801D01*
X191278960Y-79725630D01*
X191252647Y-79787620D01*
X191244172Y-79893761D01*
X191315526Y-80070368D01*
X191395354Y-80140833D01*
X191457344Y-80167146D01*
X191563486Y-80175621D01*
X191740092Y-80104267D01*
X191810557Y-80024438D01*
X191836870Y-79962448D01*
X191845345Y-79856307D01*
X191773991Y-79679700D01*
X191694163Y-79609236D01*
X191632173Y-79582922D01*
X191526031Y-79574448D01*
X172795337Y-90297986D02*
X172945630Y-90288622D01*
X173166388Y-90199430D01*
X173236853Y-90119602D01*
X173263166Y-90057612D01*
X173271641Y-89951470D01*
X173235964Y-89863167D01*
X173156136Y-89792702D01*
X173094146Y-89766389D01*
X172988004Y-89757914D01*
X172793559Y-89785116D01*
X172687417Y-89776641D01*
X172625427Y-89750328D01*
X172545599Y-89679863D01*
X172509922Y-89591560D01*
X172518397Y-89485418D01*
X172544710Y-89423428D01*
X172615175Y-89343600D01*
X172835933Y-89254408D01*
X172986226Y-89245044D01*
X173277449Y-89076024D02*
X173872814Y-89914016D01*
X173781844Y-89180388D01*
X174226027Y-89771308D01*
X174072178Y-88754932D01*
X174416916Y-88718367D02*
X174443229Y-88656377D01*
X174513694Y-88576548D01*
X174734452Y-88487356D01*
X174840594Y-88495831D01*
X174902584Y-88522144D01*
X174982412Y-88592609D01*
X175018089Y-88680912D01*
X175027453Y-88831206D01*
X174711694Y-89575086D01*
X175285665Y-89343186D01*
X175220120Y-88291134D02*
X175838243Y-88041396D01*
X175815485Y-89129126D01*
X156983837Y-99251482D02*
X157134130Y-99242118D01*
X157354888Y-99152926D01*
X157425353Y-99073098D01*
X157451666Y-99011108D01*
X157460141Y-98904966D01*
X157424464Y-98816663D01*
X157344636Y-98746198D01*
X157282646Y-98719885D01*
X157176504Y-98711410D01*
X156982059Y-98738612D01*
X156875917Y-98730137D01*
X156813927Y-98703824D01*
X156734099Y-98633359D01*
X156698422Y-98545056D01*
X156706897Y-98438914D01*
X156733210Y-98376924D01*
X156803675Y-98297096D01*
X157024433Y-98207904D01*
X157174726Y-98198540D01*
X157465949Y-98029520D02*
X158061314Y-98867512D01*
X157970344Y-98133884D01*
X158414527Y-98724804D01*
X158260678Y-97708428D01*
X158605416Y-97671863D02*
X158631729Y-97609873D01*
X158702194Y-97530044D01*
X158922952Y-97440852D01*
X159029094Y-97449327D01*
X159091084Y-97475640D01*
X159170912Y-97546105D01*
X159206589Y-97634408D01*
X159215953Y-97784702D01*
X158900194Y-98528582D01*
X159474165Y-98296682D01*
X159894288Y-97048407D02*
X159717681Y-97119761D01*
X159647217Y-97199589D01*
X159620903Y-97261579D01*
X159586115Y-97429711D01*
X159613317Y-97624156D01*
X159756025Y-97977369D01*
X159835853Y-98047834D01*
X159897843Y-98074147D01*
X160003985Y-98082622D01*
X160180591Y-98011268D01*
X160251056Y-97931439D01*
X160277369Y-97869449D01*
X160285844Y-97763308D01*
X160196652Y-97542550D01*
X160116824Y-97472085D01*
X160054834Y-97445772D01*
X159948692Y-97437297D01*
X159772085Y-97508651D01*
X159701621Y-97588479D01*
X159675307Y-97650469D01*
X159666833Y-97756611D01*
X112128842Y-97895763D02*
X112243458Y-97993429D01*
X112464216Y-98082622D01*
X112570358Y-98074147D01*
X112632348Y-98047834D01*
X112712176Y-97977369D01*
X112747853Y-97889066D01*
X112739378Y-97782924D01*
X112713065Y-97720934D01*
X112642600Y-97641105D01*
X112483832Y-97525600D01*
X112413367Y-97445772D01*
X112387054Y-97383782D01*
X112378579Y-97277640D01*
X112414256Y-97189337D01*
X112494085Y-97118872D01*
X112556075Y-97092559D01*
X112662216Y-97084084D01*
X112882974Y-97173276D01*
X112997591Y-97270943D01*
X113324491Y-97351660D02*
X113170642Y-98368036D01*
X113614825Y-97777116D01*
X113523855Y-98510743D01*
X114119220Y-97672752D01*
X114392604Y-97885924D02*
X114454594Y-97859610D01*
X114560736Y-97851136D01*
X114781494Y-97940328D01*
X114851959Y-98020156D01*
X114878272Y-98082146D01*
X114886747Y-98188288D01*
X114851070Y-98276591D01*
X114753403Y-98391207D01*
X114009523Y-98706966D01*
X114583494Y-98938865D01*
X115796981Y-98350611D02*
X115355465Y-98172227D01*
X115132929Y-98595905D01*
X115194919Y-98569592D01*
X115301061Y-98561117D01*
X115521819Y-98650309D01*
X115592284Y-98730137D01*
X115618597Y-98792127D01*
X115627072Y-98898269D01*
X115537880Y-99119027D01*
X115458051Y-99189492D01*
X115396061Y-99215805D01*
X115289919Y-99224280D01*
X115069161Y-99135088D01*
X114998697Y-99055259D01*
X114972383Y-98993269D01*
X96317340Y-88942261D02*
X96431956Y-89039927D01*
X96652714Y-89129120D01*
X96758856Y-89120645D01*
X96820846Y-89094332D01*
X96900674Y-89023867D01*
X96936351Y-88935564D01*
X96927876Y-88829422D01*
X96901563Y-88767432D01*
X96831098Y-88687603D01*
X96672330Y-88572098D01*
X96601865Y-88492270D01*
X96575552Y-88430280D01*
X96567077Y-88324138D01*
X96602754Y-88235835D01*
X96682583Y-88165370D01*
X96744573Y-88139057D01*
X96850714Y-88130582D01*
X97071472Y-88219774D01*
X97186089Y-88317441D01*
X97512989Y-88398158D02*
X97359140Y-89414534D01*
X97803323Y-88823614D01*
X97712353Y-89557241D01*
X98307718Y-88719250D01*
X98581102Y-88932422D02*
X98643092Y-88906108D01*
X98749234Y-88897634D01*
X98969992Y-88986826D01*
X99040457Y-89066654D01*
X99066770Y-89128644D01*
X99075245Y-89234786D01*
X99039568Y-89323089D01*
X98941901Y-89437705D01*
X98198021Y-89753464D01*
X98771992Y-89985363D01*
X99816458Y-89688332D02*
X99566721Y-90306455D01*
X99738408Y-89245927D02*
X99250073Y-89819009D01*
X99824044Y-90050908D01*
X80505839Y-79988761D02*
X80620455Y-80086427D01*
X80841213Y-80175620D01*
X80947355Y-80167145D01*
X81009345Y-80140832D01*
X81089173Y-80070367D01*
X81124850Y-79982064D01*
X81116375Y-79875922D01*
X81090062Y-79813932D01*
X81019597Y-79734103D01*
X80860829Y-79618598D01*
X80790364Y-79538770D01*
X80764051Y-79476780D01*
X80755576Y-79370638D01*
X80791253Y-79282335D01*
X80871082Y-79211870D01*
X80933072Y-79185557D01*
X81039213Y-79177082D01*
X81259971Y-79266274D01*
X81374588Y-79363941D01*
X81701488Y-79444658D02*
X81547639Y-80461034D01*
X81991822Y-79870114D01*
X81900852Y-80603741D01*
X82496217Y-79765750D01*
X82769601Y-79978922D02*
X82831591Y-79952608D01*
X82937733Y-79944134D01*
X83158491Y-80033326D01*
X83228956Y-80113154D01*
X83255269Y-80175144D01*
X83263744Y-80281286D01*
X83228067Y-80369589D01*
X83130400Y-80484205D01*
X82386520Y-80799964D01*
X82960491Y-81031863D01*
X83644159Y-80229548D02*
X84218129Y-80461448D01*
X83766361Y-80689792D01*
X83898816Y-80743307D01*
X83969281Y-80823135D01*
X83995594Y-80885125D01*
X84004069Y-80991267D01*
X83914877Y-81212025D01*
X83835048Y-81282490D01*
X83773058Y-81308803D01*
X83666916Y-81317278D01*
X83402007Y-81210247D01*
X83331542Y-81130419D01*
X83305229Y-81068429D01*
X62916343Y-75480264D02*
X63030959Y-75577930D01*
X63251717Y-75667123D01*
X63357859Y-75658648D01*
X63419849Y-75632335D01*
X63499677Y-75561870D01*
X63535354Y-75473567D01*
X63526879Y-75367425D01*
X63500566Y-75305435D01*
X63430101Y-75225606D01*
X63271333Y-75110101D01*
X63200868Y-75030273D01*
X63174555Y-74968283D01*
X63166080Y-74862141D01*
X63201757Y-74773838D01*
X63281586Y-74703373D01*
X63343576Y-74677060D01*
X63449717Y-74668585D01*
X63670475Y-74757777D01*
X63785092Y-74855444D01*
X64111992Y-74936161D02*
X63958143Y-75952537D01*
X64402326Y-75361617D01*
X64311356Y-76095244D01*
X64906721Y-75257253D01*
X65180105Y-75470425D02*
X65242095Y-75444111D01*
X65348237Y-75435637D01*
X65568995Y-75524829D01*
X65639460Y-75604657D01*
X65665773Y-75666647D01*
X65674248Y-75772789D01*
X65638571Y-75861092D01*
X65540904Y-75975708D01*
X64797024Y-76291467D01*
X65370995Y-76523366D01*
X66063137Y-75827193D02*
X66125127Y-75800880D01*
X66231269Y-75792405D01*
X66452027Y-75881597D01*
X66522492Y-75961425D01*
X66548805Y-76023415D01*
X66557280Y-76129557D01*
X66521603Y-76217860D01*
X66423936Y-76332477D01*
X65680056Y-76648235D01*
X66254027Y-76880134D01*
X44437836Y-73130769D02*
X44552452Y-73228435D01*
X44773210Y-73317628D01*
X44879352Y-73309153D01*
X44941342Y-73282840D01*
X45021170Y-73212375D01*
X45056847Y-73124072D01*
X45048372Y-73017930D01*
X45022059Y-72955940D01*
X44951594Y-72876111D01*
X44792826Y-72760606D01*
X44722361Y-72680778D01*
X44696048Y-72618788D01*
X44687573Y-72512646D01*
X44723250Y-72424343D01*
X44803079Y-72353878D01*
X44865069Y-72327565D01*
X44971210Y-72319090D01*
X45191968Y-72408282D01*
X45306585Y-72505949D01*
X45633485Y-72586666D02*
X45479636Y-73603042D01*
X45923819Y-73012122D01*
X45832849Y-73745749D01*
X46428214Y-72907758D01*
X46701598Y-73120930D02*
X46763588Y-73094616D01*
X46869730Y-73086142D01*
X47090488Y-73175334D01*
X47160953Y-73255162D01*
X47187266Y-73317152D01*
X47195741Y-73423294D01*
X47160064Y-73511597D01*
X47062397Y-73626213D01*
X46318517Y-73941972D01*
X46892488Y-74173871D01*
X47775520Y-74530639D02*
X47245701Y-74316578D01*
X47510610Y-74423609D02*
X47885217Y-73496425D01*
X47743398Y-73593203D01*
X47619418Y-73645829D01*
X47513277Y-73654304D01*
X182193337Y-65596483D02*
X182343630Y-65587119D01*
X182564388Y-65497927D01*
X182634853Y-65418099D01*
X182661166Y-65356109D01*
X182669641Y-65249967D01*
X182633964Y-65161664D01*
X182554136Y-65091199D01*
X182492146Y-65064886D01*
X182386004Y-65056411D01*
X182191559Y-65083613D01*
X182085417Y-65075138D01*
X182023427Y-65048825D01*
X181943599Y-64978360D01*
X181907922Y-64890057D01*
X181916397Y-64783915D01*
X181942710Y-64721925D01*
X182013175Y-64642097D01*
X182233933Y-64552905D01*
X182384226Y-64543541D01*
X182675449Y-64374521D02*
X183270814Y-65212513D01*
X183179844Y-64478885D01*
X183624027Y-65069805D01*
X183470178Y-64053429D01*
X184683665Y-64641683D02*
X184153846Y-64855744D01*
X184418756Y-64748714D02*
X184044149Y-63821530D01*
X184009361Y-63989662D01*
X183956735Y-64113642D01*
X183886270Y-64193470D01*
X184999424Y-63897803D02*
X184893282Y-63889328D01*
X184831292Y-63863015D01*
X184751464Y-63792550D01*
X184733625Y-63748399D01*
X184742100Y-63642257D01*
X184768413Y-63580267D01*
X184838878Y-63500439D01*
X185015485Y-63429085D01*
X185121626Y-63437560D01*
X185183616Y-63463873D01*
X185263445Y-63534338D01*
X185281283Y-63578489D01*
X185272808Y-63684631D01*
X185246495Y-63746621D01*
X185176030Y-63826450D01*
X184999424Y-63897803D01*
X184928959Y-63977632D01*
X184902646Y-64039622D01*
X184894171Y-64145763D01*
X184965525Y-64322370D01*
X185045353Y-64392835D01*
X185107343Y-64419148D01*
X185213485Y-64427623D01*
X185390091Y-64356269D01*
X185460556Y-64276440D01*
X185486869Y-64214450D01*
X185495344Y-64108309D01*
X185423990Y-63931702D01*
X185344162Y-63861238D01*
X185282172Y-63834924D01*
X185176030Y-63826450D01*
X166445338Y-74549987D02*
X166595631Y-74540623D01*
X166816389Y-74451431D01*
X166886854Y-74371603D01*
X166913167Y-74309613D01*
X166921642Y-74203471D01*
X166885965Y-74115168D01*
X166806137Y-74044703D01*
X166744147Y-74018390D01*
X166638005Y-74009915D01*
X166443560Y-74037117D01*
X166337418Y-74028642D01*
X166275428Y-74002329D01*
X166195600Y-73931864D01*
X166159923Y-73843561D01*
X166168398Y-73737419D01*
X166194711Y-73675429D01*
X166265176Y-73595601D01*
X166485934Y-73506409D01*
X166636227Y-73497045D01*
X166927450Y-73328025D02*
X167522815Y-74166017D01*
X167431845Y-73432389D01*
X167876028Y-74023309D01*
X167722179Y-73006933D01*
X168935666Y-73595187D02*
X168405847Y-73809248D01*
X168670757Y-73702218D02*
X168296150Y-72775034D01*
X168261362Y-72943166D01*
X168208736Y-73067146D01*
X168138271Y-73146974D01*
X168870121Y-72543135D02*
X169488244Y-72293397D01*
X169465486Y-73381127D01*
X150570333Y-83439986D02*
X150720626Y-83430622D01*
X150941384Y-83341430D01*
X151011849Y-83261602D01*
X151038162Y-83199612D01*
X151046637Y-83093470D01*
X151010960Y-83005167D01*
X150931132Y-82934702D01*
X150869142Y-82908389D01*
X150763000Y-82899914D01*
X150568555Y-82927116D01*
X150462413Y-82918641D01*
X150400423Y-82892328D01*
X150320595Y-82821863D01*
X150284918Y-82733560D01*
X150293393Y-82627418D01*
X150319706Y-82565428D01*
X150390171Y-82485600D01*
X150610929Y-82396408D01*
X150761222Y-82387044D01*
X151052445Y-82218024D02*
X151647810Y-83056016D01*
X151556840Y-82322388D01*
X152001023Y-82913308D01*
X151847174Y-81896932D01*
X153060661Y-82485186D02*
X152530842Y-82699247D01*
X152795752Y-82592217D02*
X152421145Y-81665033D01*
X152386357Y-81833165D01*
X152333731Y-81957145D01*
X152263266Y-82036973D01*
X153480784Y-81236911D02*
X153304177Y-81308265D01*
X153233713Y-81388093D01*
X153207399Y-81450083D01*
X153172611Y-81618215D01*
X153199813Y-81812660D01*
X153342521Y-82165873D01*
X153422349Y-82236338D01*
X153484339Y-82262651D01*
X153590481Y-82271126D01*
X153767087Y-82199772D01*
X153837552Y-82119943D01*
X153863865Y-82057953D01*
X153872340Y-81951812D01*
X153783148Y-81731054D01*
X153703320Y-81660589D01*
X153641330Y-81634276D01*
X153535188Y-81625801D01*
X153358581Y-81697155D01*
X153288117Y-81776983D01*
X153261803Y-81838973D01*
X153253329Y-81945115D01*
X118478839Y-82147767D02*
X118593455Y-82245433D01*
X118814213Y-82334626D01*
X118920355Y-82326151D01*
X118982345Y-82299838D01*
X119062173Y-82229373D01*
X119097850Y-82141070D01*
X119089375Y-82034928D01*
X119063062Y-81972938D01*
X118992597Y-81893109D01*
X118833829Y-81777604D01*
X118763364Y-81697776D01*
X118737051Y-81635786D01*
X118728576Y-81529644D01*
X118764253Y-81441341D01*
X118844082Y-81370876D01*
X118906072Y-81344563D01*
X119012213Y-81336088D01*
X119232971Y-81425280D01*
X119347588Y-81522947D01*
X119674488Y-81603664D02*
X119520639Y-82620040D01*
X119964822Y-82029120D01*
X119873852Y-82762747D01*
X120469217Y-81924756D01*
X120933491Y-83190869D02*
X120403671Y-82976808D01*
X120668581Y-83083839D02*
X121043188Y-82156655D01*
X120901369Y-82253433D01*
X120777389Y-82306059D01*
X120671247Y-82314534D01*
X122146978Y-82602615D02*
X121705462Y-82424231D01*
X121482926Y-82847909D01*
X121544916Y-82821596D01*
X121651058Y-82813121D01*
X121871816Y-82902313D01*
X121942281Y-82982141D01*
X121968594Y-83044131D01*
X121977069Y-83150273D01*
X121887877Y-83371031D01*
X121808048Y-83441496D01*
X121746058Y-83467809D01*
X121639916Y-83476284D01*
X121419158Y-83387092D01*
X121348694Y-83307263D01*
X121322380Y-83245273D01*
X102667339Y-73194265D02*
X102781955Y-73291931D01*
X103002713Y-73381124D01*
X103108855Y-73372649D01*
X103170845Y-73346336D01*
X103250673Y-73275871D01*
X103286350Y-73187568D01*
X103277875Y-73081426D01*
X103251562Y-73019436D01*
X103181097Y-72939607D01*
X103022329Y-72824102D01*
X102951864Y-72744274D01*
X102925551Y-72682284D01*
X102917076Y-72576142D01*
X102952753Y-72487839D01*
X103032582Y-72417374D01*
X103094572Y-72391061D01*
X103200713Y-72382586D01*
X103421471Y-72471778D01*
X103536088Y-72569445D01*
X103862988Y-72650162D02*
X103709139Y-73666538D01*
X104153322Y-73075618D01*
X104062352Y-73809245D01*
X104657717Y-72971254D01*
X105121991Y-74237367D02*
X104592171Y-74023306D01*
X104857081Y-74130337D02*
X105231688Y-73203153D01*
X105089869Y-73299931D01*
X104965889Y-73352557D01*
X104859747Y-73361032D01*
X106166457Y-73940336D02*
X105916720Y-74558459D01*
X106088407Y-73497931D02*
X105600072Y-74071013D01*
X106174043Y-74302912D01*
X86919338Y-64240762D02*
X87033954Y-64338428D01*
X87254712Y-64427621D01*
X87360854Y-64419146D01*
X87422844Y-64392833D01*
X87502672Y-64322368D01*
X87538349Y-64234065D01*
X87529874Y-64127923D01*
X87503561Y-64065933D01*
X87433096Y-63986104D01*
X87274328Y-63870599D01*
X87203863Y-63790771D01*
X87177550Y-63728781D01*
X87169075Y-63622639D01*
X87204752Y-63534336D01*
X87284581Y-63463871D01*
X87346571Y-63437558D01*
X87452712Y-63429083D01*
X87673470Y-63518275D01*
X87788087Y-63615942D01*
X88114987Y-63696659D02*
X87961138Y-64713035D01*
X88405321Y-64122115D01*
X88314351Y-64855742D01*
X88909716Y-64017751D01*
X89373990Y-65283864D02*
X88844170Y-65069803D01*
X89109080Y-65176834D02*
X89483687Y-64249650D01*
X89341868Y-64346428D01*
X89217888Y-64399054D01*
X89111746Y-64407529D01*
X90057658Y-64481549D02*
X90631628Y-64713449D01*
X90179860Y-64941793D01*
X90312315Y-64995308D01*
X90382780Y-65075136D01*
X90409093Y-65137126D01*
X90417568Y-65243268D01*
X90328376Y-65464026D01*
X90248547Y-65534491D01*
X90186557Y-65560804D01*
X90080415Y-65569279D01*
X89815506Y-65462248D01*
X89745041Y-65382420D01*
X89718728Y-65320430D01*
X69329840Y-59668761D02*
X69444456Y-59766427D01*
X69665214Y-59855620D01*
X69771356Y-59847145D01*
X69833346Y-59820832D01*
X69913174Y-59750367D01*
X69948851Y-59662064D01*
X69940376Y-59555922D01*
X69914063Y-59493932D01*
X69843598Y-59414103D01*
X69684830Y-59298598D01*
X69614365Y-59218770D01*
X69588052Y-59156780D01*
X69579577Y-59050638D01*
X69615254Y-58962335D01*
X69695083Y-58891870D01*
X69757073Y-58865557D01*
X69863214Y-58857082D01*
X70083972Y-58946274D01*
X70198589Y-59043941D01*
X70525489Y-59124658D02*
X70371640Y-60141034D01*
X70815823Y-59550114D01*
X70724853Y-60283741D01*
X71320218Y-59445750D01*
X71784492Y-60711863D02*
X71254672Y-60497802D01*
X71519582Y-60604833D02*
X71894189Y-59677649D01*
X71752370Y-59774427D01*
X71628390Y-59827053D01*
X71522248Y-59835528D01*
X72476634Y-60015690D02*
X72538624Y-59989377D01*
X72644766Y-59980902D01*
X72865524Y-60070094D01*
X72935989Y-60149922D01*
X72962302Y-60211912D01*
X72970777Y-60318054D01*
X72935100Y-60406357D01*
X72837433Y-60520974D01*
X72093553Y-60836732D01*
X72667524Y-61068631D01*
X50851337Y-57382765D02*
X50965953Y-57480431D01*
X51186711Y-57569624D01*
X51292853Y-57561149D01*
X51354843Y-57534836D01*
X51434671Y-57464371D01*
X51470348Y-57376068D01*
X51461873Y-57269926D01*
X51435560Y-57207936D01*
X51365095Y-57128107D01*
X51206327Y-57012602D01*
X51135862Y-56932774D01*
X51109549Y-56870784D01*
X51101074Y-56764642D01*
X51136751Y-56676339D01*
X51216580Y-56605874D01*
X51278570Y-56579561D01*
X51384711Y-56571086D01*
X51605469Y-56660278D01*
X51720086Y-56757945D01*
X52046986Y-56838662D02*
X51893137Y-57855038D01*
X52337320Y-57264118D01*
X52246350Y-57997745D01*
X52841715Y-57159754D01*
X53305989Y-58425867D02*
X52776169Y-58211806D01*
X53041079Y-58318837D02*
X53415686Y-57391653D01*
X53273867Y-57488431D01*
X53149887Y-57541057D01*
X53043745Y-57549532D01*
X54189021Y-58782635D02*
X53659202Y-58568574D01*
X53924111Y-58675605D02*
X54298718Y-57748421D01*
X54156899Y-57845199D01*
X54032919Y-57897825D01*
X53926778Y-57906300D01*
X211911336Y-42926980D02*
X212061629Y-42917616D01*
X212282387Y-42828424D01*
X212352852Y-42748596D01*
X212379165Y-42686606D01*
X212387640Y-42580464D01*
X212351963Y-42492161D01*
X212272135Y-42421696D01*
X212210145Y-42395383D01*
X212104003Y-42386908D01*
X211909558Y-42414110D01*
X211803416Y-42405635D01*
X211741426Y-42379322D01*
X211661598Y-42308857D01*
X211625921Y-42220554D01*
X211634396Y-42114412D01*
X211660709Y-42052422D01*
X211731174Y-41972594D01*
X211951932Y-41883402D01*
X212102225Y-41874038D01*
X212393448Y-41705018D02*
X212988813Y-42543010D01*
X212897843Y-41809382D01*
X213342026Y-42400302D01*
X213188177Y-41383926D01*
X214401664Y-41972180D02*
X213871845Y-42186241D01*
X214136755Y-42079211D02*
X213762148Y-41152027D01*
X213727360Y-41320159D01*
X213674734Y-41444139D01*
X213604269Y-41523967D01*
X214601029Y-40813097D02*
X214689332Y-40777420D01*
X214795474Y-40785895D01*
X214857464Y-40812208D01*
X214937292Y-40882673D01*
X215052797Y-41041441D01*
X215141989Y-41262199D01*
X215169191Y-41456644D01*
X215160717Y-41562786D01*
X215134403Y-41624776D01*
X215063939Y-41704604D01*
X214975635Y-41740281D01*
X214869494Y-41731806D01*
X214807504Y-41705493D01*
X214727675Y-41635028D01*
X214612170Y-41476260D01*
X214522978Y-41255502D01*
X214495776Y-41061057D01*
X214504251Y-40954916D01*
X214530564Y-40892926D01*
X214601029Y-40813097D01*
X193874357Y-45098097D02*
X194024650Y-45088733D01*
X194245408Y-44999541D01*
X194315873Y-44919713D01*
X194342186Y-44857723D01*
X194350661Y-44751581D01*
X194314984Y-44663278D01*
X194235156Y-44592813D01*
X194173166Y-44566500D01*
X194067024Y-44558025D01*
X193872579Y-44585227D01*
X193766438Y-44576752D01*
X193704448Y-44550439D01*
X193624619Y-44479974D01*
X193588942Y-44391671D01*
X193597417Y-44285529D01*
X193623730Y-44223539D01*
X193694195Y-44143711D01*
X193914953Y-44054519D01*
X194065246Y-44045155D01*
X194356469Y-43876135D02*
X194951834Y-44714126D01*
X194860864Y-43980499D01*
X195305047Y-44571419D01*
X195151198Y-43555043D01*
X195923169Y-44321681D02*
X196099776Y-44250328D01*
X196170241Y-44170499D01*
X196196554Y-44108509D01*
X196231342Y-43940378D01*
X196204140Y-43745933D01*
X196061433Y-43392720D01*
X195981604Y-43322255D01*
X195919614Y-43295942D01*
X195813472Y-43287467D01*
X195636866Y-43358821D01*
X195566401Y-43438649D01*
X195540088Y-43500639D01*
X195531613Y-43606781D01*
X195620805Y-43827539D01*
X195700634Y-43898004D01*
X195762624Y-43924317D01*
X195868765Y-43932792D01*
X196045372Y-43861438D01*
X196115837Y-43781610D01*
X196142150Y-43719620D01*
X196150625Y-43613478D01*
X176284851Y-49606600D02*
X176435144Y-49597236D01*
X176655902Y-49508044D01*
X176726367Y-49428216D01*
X176752680Y-49366226D01*
X176761155Y-49260084D01*
X176725478Y-49171781D01*
X176645650Y-49101316D01*
X176583660Y-49075003D01*
X176477518Y-49066528D01*
X176283073Y-49093730D01*
X176176932Y-49085255D01*
X176114942Y-49058942D01*
X176035113Y-48988477D01*
X175999436Y-48900174D01*
X176007911Y-48794032D01*
X176034224Y-48732042D01*
X176104689Y-48652214D01*
X176325447Y-48563022D01*
X176475740Y-48553658D01*
X176766963Y-48384638D02*
X177362328Y-49222629D01*
X177271358Y-48489002D01*
X177715541Y-49079922D01*
X177561692Y-48063546D01*
X178207906Y-48264688D02*
X178101764Y-48256213D01*
X178039774Y-48229900D01*
X177959946Y-48159435D01*
X177942107Y-48115284D01*
X177950582Y-48009142D01*
X177976895Y-47947152D01*
X178047360Y-47867324D01*
X178223966Y-47795970D01*
X178330108Y-47804445D01*
X178392098Y-47830758D01*
X178471927Y-47901223D01*
X178489765Y-47945375D01*
X178481290Y-48051516D01*
X178454977Y-48113506D01*
X178384512Y-48193335D01*
X178207906Y-48264688D01*
X178137441Y-48344517D01*
X178111128Y-48406507D01*
X178102653Y-48512648D01*
X178174007Y-48689255D01*
X178253835Y-48759720D01*
X178315825Y-48786033D01*
X178421967Y-48794508D01*
X178598573Y-48723154D01*
X178669038Y-48643326D01*
X178695351Y-48581336D01*
X178703826Y-48475194D01*
X178632472Y-48298587D01*
X178552644Y-48228123D01*
X178490654Y-48201809D01*
X178384512Y-48193335D01*
X160536853Y-58560104D02*
X160687146Y-58550740D01*
X160907904Y-58461548D01*
X160978369Y-58381720D01*
X161004682Y-58319730D01*
X161013157Y-58213588D01*
X160977480Y-58125285D01*
X160897652Y-58054820D01*
X160835662Y-58028507D01*
X160729520Y-58020032D01*
X160535075Y-58047234D01*
X160428934Y-58038759D01*
X160366944Y-58012446D01*
X160287115Y-57941981D01*
X160251438Y-57853678D01*
X160259913Y-57747536D01*
X160286226Y-57685546D01*
X160356691Y-57605718D01*
X160577449Y-57516526D01*
X160727742Y-57507162D01*
X161018965Y-57338142D02*
X161614330Y-58176133D01*
X161523360Y-57442506D01*
X161967543Y-58033426D01*
X161813694Y-57017050D01*
X162078604Y-56910020D02*
X162696727Y-56660282D01*
X162673969Y-57748012D01*
X144661857Y-67513599D02*
X144812150Y-67504235D01*
X145032908Y-67415043D01*
X145103373Y-67335215D01*
X145129686Y-67273225D01*
X145138161Y-67167083D01*
X145102484Y-67078780D01*
X145022656Y-67008315D01*
X144960666Y-66982002D01*
X144854524Y-66973527D01*
X144660079Y-67000729D01*
X144553938Y-66992254D01*
X144491948Y-66965941D01*
X144412119Y-66895476D01*
X144376442Y-66807173D01*
X144384917Y-66701031D01*
X144411230Y-66639041D01*
X144481695Y-66559213D01*
X144702453Y-66470021D01*
X144852746Y-66460657D01*
X145143969Y-66291637D02*
X145739334Y-67129628D01*
X145648364Y-66396001D01*
X146092547Y-66986921D01*
X145938698Y-65970545D01*
X146689276Y-65667292D02*
X146512669Y-65738646D01*
X146442204Y-65818474D01*
X146415891Y-65880464D01*
X146381103Y-66048596D01*
X146408305Y-66243041D01*
X146551013Y-66596254D01*
X146630841Y-66666719D01*
X146692831Y-66693032D01*
X146798973Y-66701507D01*
X146975579Y-66630153D01*
X147046044Y-66550325D01*
X147072357Y-66488335D01*
X147080832Y-66382193D01*
X146991640Y-66161435D01*
X146911811Y-66090970D01*
X146849821Y-66064657D01*
X146743680Y-66056182D01*
X146567073Y-66127536D01*
X146496608Y-66207364D01*
X146470295Y-66269354D01*
X146461820Y-66375496D01*
X125270355Y-66514648D02*
X125384971Y-66612315D01*
X125605729Y-66701507D01*
X125711871Y-66693032D01*
X125773861Y-66666719D01*
X125853689Y-66596254D01*
X125889366Y-66507951D01*
X125880891Y-66401809D01*
X125854578Y-66339819D01*
X125784113Y-66259991D01*
X125625345Y-66144485D01*
X125554881Y-66064657D01*
X125528567Y-66002667D01*
X125520093Y-65896525D01*
X125555769Y-65808222D01*
X125635598Y-65737757D01*
X125697588Y-65711444D01*
X125803730Y-65702969D01*
X126024488Y-65792161D01*
X126139104Y-65889828D01*
X126466004Y-65970545D02*
X126312155Y-66986921D01*
X126756338Y-66396001D01*
X126665368Y-67129628D01*
X127260733Y-66291637D01*
X128055462Y-66612728D02*
X127613946Y-66434344D01*
X127391410Y-66858022D01*
X127453400Y-66831708D01*
X127559542Y-66823234D01*
X127780300Y-66912426D01*
X127850764Y-66992254D01*
X127877078Y-67054244D01*
X127885552Y-67160386D01*
X127796360Y-67381144D01*
X127716532Y-67451609D01*
X127654542Y-67477922D01*
X127548400Y-67486397D01*
X127327642Y-67397205D01*
X127257177Y-67317376D01*
X127230864Y-67255386D01*
X109522354Y-57561147D02*
X109636970Y-57658814D01*
X109857728Y-57748006D01*
X109963870Y-57739531D01*
X110025860Y-57713218D01*
X110105688Y-57642753D01*
X110141365Y-57554450D01*
X110132890Y-57448308D01*
X110106577Y-57386318D01*
X110036112Y-57306490D01*
X109877344Y-57190984D01*
X109806880Y-57111156D01*
X109780566Y-57049166D01*
X109772092Y-56943024D01*
X109807768Y-56854721D01*
X109887597Y-56784256D01*
X109949587Y-56757943D01*
X110055729Y-56749468D01*
X110276487Y-56838660D01*
X110391103Y-56936327D01*
X110718003Y-57017044D02*
X110564154Y-58033420D01*
X111008337Y-57442500D01*
X110917367Y-58176127D01*
X111512732Y-57338136D01*
X112138440Y-57950450D02*
X111888703Y-58568572D01*
X112060389Y-57508045D02*
X111572055Y-58081127D01*
X112146026Y-58313026D01*
X93710856Y-48671149D02*
X93825472Y-48768816D01*
X94046230Y-48858008D01*
X94152372Y-48849533D01*
X94214362Y-48823220D01*
X94294190Y-48752755D01*
X94329867Y-48664452D01*
X94321392Y-48558310D01*
X94295079Y-48496320D01*
X94224614Y-48416492D01*
X94065846Y-48300986D01*
X93995382Y-48221158D01*
X93969068Y-48159168D01*
X93960594Y-48053026D01*
X93996270Y-47964723D01*
X94076099Y-47894258D01*
X94138089Y-47867945D01*
X94244231Y-47859470D01*
X94464989Y-47948662D01*
X94579605Y-48046329D01*
X94906505Y-48127046D02*
X94752656Y-49143422D01*
X95196839Y-48552502D01*
X95105869Y-49286129D01*
X95701234Y-48448138D01*
X95966143Y-48555168D02*
X96540114Y-48787067D01*
X96088346Y-49015411D01*
X96220801Y-49068927D01*
X96291265Y-49148755D01*
X96317579Y-49210745D01*
X96326053Y-49316887D01*
X96236861Y-49537645D01*
X96157033Y-49608110D01*
X96095043Y-49634423D01*
X95988901Y-49642898D01*
X95723992Y-49535867D01*
X95653527Y-49456039D01*
X95627214Y-49394049D01*
X76121353Y-44099145D02*
X76235969Y-44196812D01*
X76456727Y-44286004D01*
X76562869Y-44277529D01*
X76624859Y-44251216D01*
X76704687Y-44180751D01*
X76740364Y-44092448D01*
X76731889Y-43986306D01*
X76705576Y-43924316D01*
X76635111Y-43844488D01*
X76476343Y-43728982D01*
X76405879Y-43649154D01*
X76379565Y-43587164D01*
X76371091Y-43481022D01*
X76406767Y-43392719D01*
X76486596Y-43322254D01*
X76548586Y-43295941D01*
X76654728Y-43287466D01*
X76875486Y-43376658D01*
X76990102Y-43474325D01*
X77317002Y-43555042D02*
X77163153Y-44571418D01*
X77607336Y-43980498D01*
X77516366Y-44714125D01*
X78111731Y-43876134D01*
X78385115Y-44089306D02*
X78447105Y-44062993D01*
X78553247Y-44054518D01*
X78774005Y-44143710D01*
X78844470Y-44223538D01*
X78870783Y-44285528D01*
X78879258Y-44391670D01*
X78843581Y-44479973D01*
X78745914Y-44594590D01*
X78002034Y-44910348D01*
X78576005Y-45142247D01*
X57642857Y-41813146D02*
X57757473Y-41910813D01*
X57978231Y-42000005D01*
X58084373Y-41991530D01*
X58146363Y-41965217D01*
X58226191Y-41894752D01*
X58261868Y-41806449D01*
X58253393Y-41700307D01*
X58227080Y-41638317D01*
X58156615Y-41558489D01*
X57997847Y-41442983D01*
X57927383Y-41363155D01*
X57901069Y-41301165D01*
X57892595Y-41195023D01*
X57928271Y-41106720D01*
X58008100Y-41036255D01*
X58070090Y-41009942D01*
X58176232Y-41001467D01*
X58396990Y-41090659D01*
X58511606Y-41188326D01*
X58838506Y-41269043D02*
X58684657Y-42285419D01*
X59128840Y-41694499D01*
X59037870Y-42428126D01*
X59633235Y-41590135D01*
X60097509Y-42856248D02*
X59567689Y-42642187D01*
X59832599Y-42749218D02*
X60207206Y-41822034D01*
X60065387Y-41918812D01*
X59941407Y-41971438D01*
X59835266Y-41979913D01*
M02*
