G04 #@! TF.GenerationSoftware,KiCad,Pcbnew,(5.1.9-0-10_14)*
G04 #@! TF.CreationDate,2021-02-24T21:06:59-06:00*
G04 #@! TF.ProjectId,micro_redox_semi_split,6d696372-6f5f-4726-9564-6f785f73656d,rev?*
G04 #@! TF.SameCoordinates,Original*
G04 #@! TF.FileFunction,Soldermask,Bot*
G04 #@! TF.FilePolarity,Negative*
%FSLAX46Y46*%
G04 Gerber Fmt 4.6, Leading zero omitted, Abs format (unit mm)*
G04 Created by KiCad (PCBNEW (5.1.9-0-10_14)) date 2021-02-24 21:06:59*
%MOMM*%
%LPD*%
G01*
G04 APERTURE LIST*
%ADD10C,1.803800*%
%ADD11C,3.102000*%
%ADD12C,3.531000*%
%ADD13C,2.134000*%
%ADD14C,1.854600*%
%ADD15C,2.102000*%
%ADD16C,0.750000*%
%ADD17O,1.100000X2.200000*%
%ADD18O,1.100000X1.700000*%
%ADD19O,1.802000X1.802000*%
%ADD20C,0.100000*%
G04 APERTURE END LIST*
D10*
X217780339Y-67399570D03*
X227979361Y-63278898D03*
G36*
G01*
X216848778Y-62760760D02*
X215874800Y-60350082D01*
G75*
G02*
X215902981Y-60283691I47286J19105D01*
G01*
X218313659Y-59309713D01*
G75*
G02*
X218380050Y-59337894I19105J-47286D01*
G01*
X219354028Y-61748572D01*
G75*
G02*
X219325847Y-61814963I-47286J-19105D01*
G01*
X216915169Y-62788941D01*
G75*
G02*
X216848778Y-62760760I-19105J47286D01*
G01*
G37*
D11*
X226110995Y-59989262D03*
D12*
X222879850Y-65339234D03*
D13*
X219667436Y-70735566D03*
X225090029Y-70809619D03*
D11*
X220650941Y-59822490D03*
G36*
G01*
X228381886Y-60473858D02*
X227407908Y-58063180D01*
G75*
G02*
X227436089Y-57996789I47286J19105D01*
G01*
X229846767Y-57022811D01*
G75*
G02*
X229913158Y-57050992I19105J-47286D01*
G01*
X230887136Y-59461670D01*
G75*
G02*
X230858955Y-59528061I-47286J-19105D01*
G01*
X228448277Y-60502039D01*
G75*
G02*
X228381886Y-60473858I-19105J47286D01*
G01*
G37*
G36*
G01*
X145535006Y-121426163D02*
X146735006Y-121426163D01*
G75*
G02*
X146786006Y-121477163I0J-51000D01*
G01*
X146786006Y-122377163D01*
G75*
G02*
X146735006Y-122428163I-51000J0D01*
G01*
X145535006Y-122428163D01*
G75*
G02*
X145484006Y-122377163I0J51000D01*
G01*
X145484006Y-121477163D01*
G75*
G02*
X145535006Y-121426163I51000J0D01*
G01*
G37*
G36*
G01*
X145535006Y-118126163D02*
X146735006Y-118126163D01*
G75*
G02*
X146786006Y-118177163I0J-51000D01*
G01*
X146786006Y-119077163D01*
G75*
G02*
X146735006Y-119128163I-51000J0D01*
G01*
X145535006Y-119128163D01*
G75*
G02*
X145484006Y-119077163I0J51000D01*
G01*
X145484006Y-118177163D01*
G75*
G02*
X145535006Y-118126163I51000J0D01*
G01*
G37*
G36*
G01*
X189310151Y-114242957D02*
X190268514Y-113520779D01*
G75*
G02*
X190339937Y-113530816I30693J-40730D01*
G01*
X190881570Y-114249588D01*
G75*
G02*
X190871533Y-114321011I-40730J-30693D01*
G01*
X189913170Y-115043189D01*
G75*
G02*
X189841747Y-115033152I-30693J40730D01*
G01*
X189300114Y-114314380D01*
G75*
G02*
X189310151Y-114242957I40730J30693D01*
G01*
G37*
G36*
G01*
X187324161Y-111607459D02*
X188282524Y-110885281D01*
G75*
G02*
X188353947Y-110895318I30693J-40730D01*
G01*
X188895580Y-111614090D01*
G75*
G02*
X188885543Y-111685513I-40730J-30693D01*
G01*
X187927180Y-112407691D01*
G75*
G02*
X187855757Y-112397654I-30693J40730D01*
G01*
X187314124Y-111678882D01*
G75*
G02*
X187324161Y-111607459I40730J30693D01*
G01*
G37*
G36*
G01*
X168076300Y-124762563D02*
X168839594Y-123836613D01*
G75*
G02*
X168911387Y-123829700I39353J-32440D01*
G01*
X169605849Y-124402170D01*
G75*
G02*
X169612762Y-124473963I-32440J-39353D01*
G01*
X168849468Y-125399913D01*
G75*
G02*
X168777675Y-125406826I-39353J32440D01*
G01*
X168083213Y-124834356D01*
G75*
G02*
X168076300Y-124762563I32440J39353D01*
G01*
G37*
G36*
G01*
X165529938Y-122663505D02*
X166293232Y-121737555D01*
G75*
G02*
X166365025Y-121730642I39353J-32440D01*
G01*
X167059487Y-122303112D01*
G75*
G02*
X167066400Y-122374905I-32440J-39353D01*
G01*
X166303106Y-123300855D01*
G75*
G02*
X166231313Y-123307768I-39353J32440D01*
G01*
X165536851Y-122735298D01*
G75*
G02*
X165529938Y-122663505I32440J39353D01*
G01*
G37*
G36*
G01*
X114233109Y-137235120D02*
X114996403Y-138161070D01*
G75*
G02*
X114989490Y-138232863I-39353J-32440D01*
G01*
X114295028Y-138805333D01*
G75*
G02*
X114223235Y-138798420I-32440J39353D01*
G01*
X113459941Y-137872470D01*
G75*
G02*
X113466854Y-137800677I39353J32440D01*
G01*
X114161316Y-137228207D01*
G75*
G02*
X114233109Y-137235120I32440J-39353D01*
G01*
G37*
G36*
G01*
X116779471Y-135136062D02*
X117542765Y-136062012D01*
G75*
G02*
X117535852Y-136133805I-39353J-32440D01*
G01*
X116841390Y-136706275D01*
G75*
G02*
X116769597Y-136699362I-32440J39353D01*
G01*
X116006303Y-135773412D01*
G75*
G02*
X116013216Y-135701619I39353J32440D01*
G01*
X116707678Y-135129149D01*
G75*
G02*
X116779471Y-135136062I32440J-39353D01*
G01*
G37*
G36*
G01*
X98529437Y-124246081D02*
X97807259Y-125204444D01*
G75*
G02*
X97735836Y-125214481I-40730J30693D01*
G01*
X97017064Y-124672848D01*
G75*
G02*
X97007027Y-124601425I30693J40730D01*
G01*
X97729205Y-123643062D01*
G75*
G02*
X97800628Y-123633025I40730J-30693D01*
G01*
X98519400Y-124174658D01*
G75*
G02*
X98529437Y-124246081I-30693J-40730D01*
G01*
G37*
G36*
G01*
X101164935Y-126232071D02*
X100442757Y-127190434D01*
G75*
G02*
X100371334Y-127200471I-40730J30693D01*
G01*
X99652562Y-126658838D01*
G75*
G02*
X99642525Y-126587415I30693J40730D01*
G01*
X100364703Y-125629052D01*
G75*
G02*
X100436126Y-125619015I40730J-30693D01*
G01*
X101154898Y-126160648D01*
G75*
G02*
X101164935Y-126232071I-30693J-40730D01*
G01*
G37*
G36*
G01*
X237105605Y-82233590D02*
X235992985Y-82683118D01*
G75*
G02*
X235926594Y-82654937I-19105J47286D01*
G01*
X235589448Y-81820471D01*
G75*
G02*
X235617629Y-81754080I47286J19105D01*
G01*
X236730249Y-81304552D01*
G75*
G02*
X236796640Y-81332733I19105J-47286D01*
G01*
X237133786Y-82167199D01*
G75*
G02*
X237105605Y-82233590I-47286J-19105D01*
G01*
G37*
G36*
G01*
X238341807Y-85293296D02*
X237229187Y-85742824D01*
G75*
G02*
X237162796Y-85714643I-19105J47286D01*
G01*
X236825650Y-84880177D01*
G75*
G02*
X236853831Y-84813786I47286J19105D01*
G01*
X237966451Y-84364258D01*
G75*
G02*
X238032842Y-84392439I19105J-47286D01*
G01*
X238369988Y-85226905D01*
G75*
G02*
X238341807Y-85293296I-47286J-19105D01*
G01*
G37*
G36*
G01*
X220942742Y-83695775D02*
X219830122Y-84145303D01*
G75*
G02*
X219763731Y-84117122I-19105J47286D01*
G01*
X219426585Y-83282656D01*
G75*
G02*
X219454766Y-83216265I47286J19105D01*
G01*
X220567386Y-82766737D01*
G75*
G02*
X220633777Y-82794918I19105J-47286D01*
G01*
X220970923Y-83629384D01*
G75*
G02*
X220942742Y-83695775I-47286J-19105D01*
G01*
G37*
G36*
G01*
X222178944Y-86755481D02*
X221066324Y-87205009D01*
G75*
G02*
X220999933Y-87176828I-19105J47286D01*
G01*
X220662787Y-86342362D01*
G75*
G02*
X220690968Y-86275971I47286J19105D01*
G01*
X221803588Y-85826443D01*
G75*
G02*
X221869979Y-85854624I19105J-47286D01*
G01*
X222207125Y-86689090D01*
G75*
G02*
X222178944Y-86755481I-47286J-19105D01*
G01*
G37*
G36*
G01*
X203376858Y-88190348D02*
X202264238Y-88639876D01*
G75*
G02*
X202197847Y-88611695I-19105J47286D01*
G01*
X201860701Y-87777229D01*
G75*
G02*
X201888882Y-87710838I47286J19105D01*
G01*
X203001502Y-87261310D01*
G75*
G02*
X203067893Y-87289491I19105J-47286D01*
G01*
X203405039Y-88123957D01*
G75*
G02*
X203376858Y-88190348I-47286J-19105D01*
G01*
G37*
G36*
G01*
X204613060Y-91250054D02*
X203500440Y-91699582D01*
G75*
G02*
X203434049Y-91671401I-19105J47286D01*
G01*
X203096903Y-90836935D01*
G75*
G02*
X203125084Y-90770544I47286J19105D01*
G01*
X204237704Y-90321016D01*
G75*
G02*
X204304095Y-90349197I19105J-47286D01*
G01*
X204641241Y-91183663D01*
G75*
G02*
X204613060Y-91250054I-47286J-19105D01*
G01*
G37*
G36*
G01*
X187618827Y-97159510D02*
X186506207Y-97609038D01*
G75*
G02*
X186439816Y-97580857I-19105J47286D01*
G01*
X186102670Y-96746391D01*
G75*
G02*
X186130851Y-96680000I47286J19105D01*
G01*
X187243471Y-96230472D01*
G75*
G02*
X187309862Y-96258653I19105J-47286D01*
G01*
X187647008Y-97093119D01*
G75*
G02*
X187618827Y-97159510I-47286J-19105D01*
G01*
G37*
G36*
G01*
X188855029Y-100219216D02*
X187742409Y-100668744D01*
G75*
G02*
X187676018Y-100640563I-19105J47286D01*
G01*
X187338872Y-99806097D01*
G75*
G02*
X187367053Y-99739706I47286J19105D01*
G01*
X188479673Y-99290178D01*
G75*
G02*
X188546064Y-99318359I19105J-47286D01*
G01*
X188883210Y-100152825D01*
G75*
G02*
X188855029Y-100219216I-47286J-19105D01*
G01*
G37*
G36*
G01*
X171778131Y-106093585D02*
X170665511Y-106543113D01*
G75*
G02*
X170599120Y-106514932I-19105J47286D01*
G01*
X170261974Y-105680466D01*
G75*
G02*
X170290155Y-105614075I47286J19105D01*
G01*
X171402775Y-105164547D01*
G75*
G02*
X171469166Y-105192728I19105J-47286D01*
G01*
X171806312Y-106027194D01*
G75*
G02*
X171778131Y-106093585I-47286J-19105D01*
G01*
G37*
G36*
G01*
X173014333Y-109153291D02*
X171901713Y-109602819D01*
G75*
G02*
X171835322Y-109574638I-19105J47286D01*
G01*
X171498176Y-108740172D01*
G75*
G02*
X171526357Y-108673781I47286J19105D01*
G01*
X172638977Y-108224253D01*
G75*
G02*
X172705368Y-108252434I19105J-47286D01*
G01*
X173042514Y-109086900D01*
G75*
G02*
X173014333Y-109153291I-47286J-19105D01*
G01*
G37*
G36*
G01*
X118024635Y-113142724D02*
X116912015Y-112693196D01*
G75*
G02*
X116883834Y-112626805I19105J47286D01*
G01*
X117220980Y-111792339D01*
G75*
G02*
X117287371Y-111764158I47286J-19105D01*
G01*
X118399991Y-112213686D01*
G75*
G02*
X118428172Y-112280077I-19105J-47286D01*
G01*
X118091026Y-113114543D01*
G75*
G02*
X118024635Y-113142724I-47286J19105D01*
G01*
G37*
G36*
G01*
X116788433Y-116202430D02*
X115675813Y-115752902D01*
G75*
G02*
X115647632Y-115686511I19105J47286D01*
G01*
X115984778Y-114852045D01*
G75*
G02*
X116051169Y-114823864I47286J-19105D01*
G01*
X117163789Y-115273392D01*
G75*
G02*
X117191970Y-115339783I-19105J-47286D01*
G01*
X116854824Y-116174249D01*
G75*
G02*
X116788433Y-116202430I-47286J19105D01*
G01*
G37*
G36*
G01*
X101883085Y-104567175D02*
X100770465Y-104117647D01*
G75*
G02*
X100742284Y-104051256I19105J47286D01*
G01*
X101079430Y-103216790D01*
G75*
G02*
X101145821Y-103188609I47286J-19105D01*
G01*
X102258441Y-103638137D01*
G75*
G02*
X102286622Y-103704528I-19105J-47286D01*
G01*
X101949476Y-104538994D01*
G75*
G02*
X101883085Y-104567175I-47286J19105D01*
G01*
G37*
G36*
G01*
X100646883Y-107626881D02*
X99534263Y-107177353D01*
G75*
G02*
X99506082Y-107110962I19105J47286D01*
G01*
X99843228Y-106276496D01*
G75*
G02*
X99909619Y-106248315I47286J-19105D01*
G01*
X101022239Y-106697843D01*
G75*
G02*
X101050420Y-106764234I-19105J-47286D01*
G01*
X100713274Y-107598700D01*
G75*
G02*
X100646883Y-107626881I-47286J19105D01*
G01*
G37*
G36*
G01*
X86413161Y-95195250D02*
X85300541Y-94745722D01*
G75*
G02*
X85272360Y-94679331I19105J47286D01*
G01*
X85609506Y-93844865D01*
G75*
G02*
X85675897Y-93816684I47286J-19105D01*
G01*
X86788517Y-94266212D01*
G75*
G02*
X86816698Y-94332603I-19105J-47286D01*
G01*
X86479552Y-95167069D01*
G75*
G02*
X86413161Y-95195250I-47286J19105D01*
G01*
G37*
G36*
G01*
X85176959Y-98254956D02*
X84064339Y-97805428D01*
G75*
G02*
X84036158Y-97739037I19105J47286D01*
G01*
X84373304Y-96904571D01*
G75*
G02*
X84439695Y-96876390I47286J-19105D01*
G01*
X85552315Y-97325918D01*
G75*
G02*
X85580496Y-97392309I-19105J-47286D01*
G01*
X85243350Y-98226775D01*
G75*
G02*
X85176959Y-98254956I-47286J19105D01*
G01*
G37*
G36*
G01*
X68801149Y-90721128D02*
X67688529Y-90271600D01*
G75*
G02*
X67660348Y-90205209I19105J47286D01*
G01*
X67997494Y-89370743D01*
G75*
G02*
X68063885Y-89342562I47286J-19105D01*
G01*
X69176505Y-89792090D01*
G75*
G02*
X69204686Y-89858481I-19105J-47286D01*
G01*
X68867540Y-90692947D01*
G75*
G02*
X68801149Y-90721128I-47286J19105D01*
G01*
G37*
G36*
G01*
X67564947Y-93780834D02*
X66452327Y-93331306D01*
G75*
G02*
X66424146Y-93264915I19105J47286D01*
G01*
X66761292Y-92430449D01*
G75*
G02*
X66827683Y-92402268I47286J-19105D01*
G01*
X67940303Y-92851796D01*
G75*
G02*
X67968484Y-92918187I-19105J-47286D01*
G01*
X67631338Y-93752653D01*
G75*
G02*
X67564947Y-93780834I-47286J19105D01*
G01*
G37*
G36*
G01*
X50320039Y-88322308D02*
X49207419Y-87872780D01*
G75*
G02*
X49179238Y-87806389I19105J47286D01*
G01*
X49516384Y-86971923D01*
G75*
G02*
X49582775Y-86943742I47286J-19105D01*
G01*
X50695395Y-87393270D01*
G75*
G02*
X50723576Y-87459661I-19105J-47286D01*
G01*
X50386430Y-88294127D01*
G75*
G02*
X50320039Y-88322308I-47286J19105D01*
G01*
G37*
G36*
G01*
X49083837Y-91382014D02*
X47971217Y-90932486D01*
G75*
G02*
X47943036Y-90866095I19105J47286D01*
G01*
X48280182Y-90031629D01*
G75*
G02*
X48346573Y-90003448I47286J-19105D01*
G01*
X49459193Y-90452976D01*
G75*
G02*
X49487374Y-90519367I-19105J-47286D01*
G01*
X49150228Y-91353833D01*
G75*
G02*
X49083837Y-91382014I-47286J19105D01*
G01*
G37*
G36*
G01*
X230283328Y-66703952D02*
X229170708Y-67153480D01*
G75*
G02*
X229104317Y-67125299I-19105J47286D01*
G01*
X228767171Y-66290833D01*
G75*
G02*
X228795352Y-66224442I47286J19105D01*
G01*
X229907972Y-65774914D01*
G75*
G02*
X229974363Y-65803095I19105J-47286D01*
G01*
X230311509Y-66637561D01*
G75*
G02*
X230283328Y-66703952I-47286J-19105D01*
G01*
G37*
G36*
G01*
X231519530Y-69763658D02*
X230406910Y-70213186D01*
G75*
G02*
X230340519Y-70185005I-19105J47286D01*
G01*
X230003373Y-69350539D01*
G75*
G02*
X230031554Y-69284148I47286J19105D01*
G01*
X231144174Y-68834620D01*
G75*
G02*
X231210565Y-68862801I19105J-47286D01*
G01*
X231547711Y-69697267D01*
G75*
G02*
X231519530Y-69763658I-47286J-19105D01*
G01*
G37*
G36*
G01*
X214602776Y-67834297D02*
X213490156Y-68283825D01*
G75*
G02*
X213423765Y-68255644I-19105J47286D01*
G01*
X213086619Y-67421178D01*
G75*
G02*
X213114800Y-67354787I47286J19105D01*
G01*
X214227420Y-66905259D01*
G75*
G02*
X214293811Y-66933440I19105J-47286D01*
G01*
X214630957Y-67767906D01*
G75*
G02*
X214602776Y-67834297I-47286J-19105D01*
G01*
G37*
G36*
G01*
X215838978Y-70894003D02*
X214726358Y-71343531D01*
G75*
G02*
X214659967Y-71315350I-19105J47286D01*
G01*
X214322821Y-70480884D01*
G75*
G02*
X214351002Y-70414493I47286J19105D01*
G01*
X215463622Y-69964965D01*
G75*
G02*
X215530013Y-69993146I19105J-47286D01*
G01*
X215867159Y-70827612D01*
G75*
G02*
X215838978Y-70894003I-47286J-19105D01*
G01*
G37*
G36*
G01*
X197025591Y-72470411D02*
X195912971Y-72919939D01*
G75*
G02*
X195846580Y-72891758I-19105J47286D01*
G01*
X195509434Y-72057292D01*
G75*
G02*
X195537615Y-71990901I47286J19105D01*
G01*
X196650235Y-71541373D01*
G75*
G02*
X196716626Y-71569554I19105J-47286D01*
G01*
X197053772Y-72404020D01*
G75*
G02*
X197025591Y-72470411I-47286J-19105D01*
G01*
G37*
G36*
G01*
X198261793Y-75530117D02*
X197149173Y-75979645D01*
G75*
G02*
X197082782Y-75951464I-19105J47286D01*
G01*
X196745636Y-75116998D01*
G75*
G02*
X196773817Y-75050607I47286J19105D01*
G01*
X197886437Y-74601079D01*
G75*
G02*
X197952828Y-74629260I19105J-47286D01*
G01*
X198289974Y-75463726D01*
G75*
G02*
X198261793Y-75530117I-47286J-19105D01*
G01*
G37*
G36*
G01*
X181267558Y-81439573D02*
X180154938Y-81889101D01*
G75*
G02*
X180088547Y-81860920I-19105J47286D01*
G01*
X179751401Y-81026454D01*
G75*
G02*
X179779582Y-80960063I47286J19105D01*
G01*
X180892202Y-80510535D01*
G75*
G02*
X180958593Y-80538716I19105J-47286D01*
G01*
X181295739Y-81373182D01*
G75*
G02*
X181267558Y-81439573I-47286J-19105D01*
G01*
G37*
G36*
G01*
X182503760Y-84499279D02*
X181391140Y-84948807D01*
G75*
G02*
X181324749Y-84920626I-19105J47286D01*
G01*
X180987603Y-84086160D01*
G75*
G02*
X181015784Y-84019769I47286J19105D01*
G01*
X182128404Y-83570241D01*
G75*
G02*
X182194795Y-83598422I19105J-47286D01*
G01*
X182531941Y-84432888D01*
G75*
G02*
X182503760Y-84499279I-47286J-19105D01*
G01*
G37*
G36*
G01*
X165379289Y-90255895D02*
X164266669Y-90705423D01*
G75*
G02*
X164200278Y-90677242I-19105J47286D01*
G01*
X163863132Y-89842776D01*
G75*
G02*
X163891313Y-89776385I47286J19105D01*
G01*
X165003933Y-89326857D01*
G75*
G02*
X165070324Y-89355038I19105J-47286D01*
G01*
X165407470Y-90189504D01*
G75*
G02*
X165379289Y-90255895I-47286J-19105D01*
G01*
G37*
G36*
G01*
X166615491Y-93315601D02*
X165502871Y-93765129D01*
G75*
G02*
X165436480Y-93736948I-19105J47286D01*
G01*
X165099334Y-92902482D01*
G75*
G02*
X165127515Y-92836091I47286J19105D01*
G01*
X166240135Y-92386563D01*
G75*
G02*
X166306526Y-92414744I19105J-47286D01*
G01*
X166643672Y-93249210D01*
G75*
G02*
X166615491Y-93315601I-47286J-19105D01*
G01*
G37*
G36*
G01*
X124340815Y-97340121D02*
X123228195Y-96890593D01*
G75*
G02*
X123200014Y-96824202I19105J47286D01*
G01*
X123537160Y-95989736D01*
G75*
G02*
X123603551Y-95961555I47286J-19105D01*
G01*
X124716171Y-96411083D01*
G75*
G02*
X124744352Y-96477474I-19105J-47286D01*
G01*
X124407206Y-97311940D01*
G75*
G02*
X124340815Y-97340121I-47286J19105D01*
G01*
G37*
G36*
G01*
X123104613Y-100399827D02*
X121991993Y-99950299D01*
G75*
G02*
X121963812Y-99883908I19105J47286D01*
G01*
X122300958Y-99049442D01*
G75*
G02*
X122367349Y-99021261I47286J-19105D01*
G01*
X123479969Y-99470789D01*
G75*
G02*
X123508150Y-99537180I-19105J-47286D01*
G01*
X123171004Y-100371646D01*
G75*
G02*
X123104613Y-100399827I-47286J19105D01*
G01*
G37*
G36*
G01*
X108558995Y-88429835D02*
X107446375Y-87980307D01*
G75*
G02*
X107418194Y-87913916I19105J47286D01*
G01*
X107755340Y-87079450D01*
G75*
G02*
X107821731Y-87051269I47286J-19105D01*
G01*
X108934351Y-87500797D01*
G75*
G02*
X108962532Y-87567188I-19105J-47286D01*
G01*
X108625386Y-88401654D01*
G75*
G02*
X108558995Y-88429835I-47286J19105D01*
G01*
G37*
G36*
G01*
X107322793Y-91489541D02*
X106210173Y-91040013D01*
G75*
G02*
X106181992Y-90973622I19105J47286D01*
G01*
X106519138Y-90139156D01*
G75*
G02*
X106585529Y-90110975I47286J-19105D01*
G01*
X107698149Y-90560503D01*
G75*
G02*
X107726330Y-90626894I-19105J-47286D01*
G01*
X107389184Y-91461360D01*
G75*
G02*
X107322793Y-91489541I-47286J19105D01*
G01*
G37*
G36*
G01*
X92847092Y-79440222D02*
X91734472Y-78990694D01*
G75*
G02*
X91706291Y-78924303I19105J47286D01*
G01*
X92043437Y-78089837D01*
G75*
G02*
X92109828Y-78061656I47286J-19105D01*
G01*
X93222448Y-78511184D01*
G75*
G02*
X93250629Y-78577575I-19105J-47286D01*
G01*
X92913483Y-79412041D01*
G75*
G02*
X92847092Y-79440222I-47286J19105D01*
G01*
G37*
G36*
G01*
X91610890Y-82499928D02*
X90498270Y-82050400D01*
G75*
G02*
X90470089Y-81984009I19105J47286D01*
G01*
X90807235Y-81149543D01*
G75*
G02*
X90873626Y-81121362I47286J-19105D01*
G01*
X91986246Y-81570890D01*
G75*
G02*
X92014427Y-81637281I-19105J-47286D01*
G01*
X91677281Y-82471747D01*
G75*
G02*
X91610890Y-82499928I-47286J19105D01*
G01*
G37*
G36*
G01*
X75199990Y-74883437D02*
X74087370Y-74433909D01*
G75*
G02*
X74059189Y-74367518I19105J47286D01*
G01*
X74396335Y-73533052D01*
G75*
G02*
X74462726Y-73504871I47286J-19105D01*
G01*
X75575346Y-73954399D01*
G75*
G02*
X75603527Y-74020790I-19105J-47286D01*
G01*
X75266381Y-74855256D01*
G75*
G02*
X75199990Y-74883437I-47286J19105D01*
G01*
G37*
G36*
G01*
X73963788Y-77943143D02*
X72851168Y-77493615D01*
G75*
G02*
X72822987Y-77427224I19105J47286D01*
G01*
X73160133Y-76592758D01*
G75*
G02*
X73226524Y-76564577I47286J-19105D01*
G01*
X74339144Y-77014105D01*
G75*
G02*
X74367325Y-77080496I-19105J-47286D01*
G01*
X74030179Y-77914962D01*
G75*
G02*
X73963788Y-77943143I-47286J19105D01*
G01*
G37*
G36*
G01*
X56695094Y-72543494D02*
X55582474Y-72093966D01*
G75*
G02*
X55554293Y-72027575I19105J47286D01*
G01*
X55891439Y-71193109D01*
G75*
G02*
X55957830Y-71164928I47286J-19105D01*
G01*
X57070450Y-71614456D01*
G75*
G02*
X57098631Y-71680847I-19105J-47286D01*
G01*
X56761485Y-72515313D01*
G75*
G02*
X56695094Y-72543494I-47286J19105D01*
G01*
G37*
G36*
G01*
X55458892Y-75603200D02*
X54346272Y-75153672D01*
G75*
G02*
X54318091Y-75087281I19105J47286D01*
G01*
X54655237Y-74252815D01*
G75*
G02*
X54721628Y-74224634I47286J-19105D01*
G01*
X55834248Y-74674162D01*
G75*
G02*
X55862429Y-74740553I-19105J-47286D01*
G01*
X55525283Y-75575019D01*
G75*
G02*
X55458892Y-75603200I-47286J19105D01*
G01*
G37*
G36*
G01*
X224497035Y-50687262D02*
X223384415Y-51136790D01*
G75*
G02*
X223318024Y-51108609I-19105J47286D01*
G01*
X222980878Y-50274143D01*
G75*
G02*
X223009059Y-50207752I47286J19105D01*
G01*
X224121679Y-49758224D01*
G75*
G02*
X224188070Y-49786405I19105J-47286D01*
G01*
X224525216Y-50620871D01*
G75*
G02*
X224497035Y-50687262I-47286J-19105D01*
G01*
G37*
G36*
G01*
X225733237Y-53746968D02*
X224620617Y-54196496D01*
G75*
G02*
X224554226Y-54168315I-19105J47286D01*
G01*
X224217080Y-53333849D01*
G75*
G02*
X224245261Y-53267458I47286J19105D01*
G01*
X225357881Y-52817930D01*
G75*
G02*
X225424272Y-52846111I19105J-47286D01*
G01*
X225761418Y-53680577D01*
G75*
G02*
X225733237Y-53746968I-47286J-19105D01*
G01*
G37*
G36*
G01*
X208251507Y-52114359D02*
X207138887Y-52563887D01*
G75*
G02*
X207072496Y-52535706I-19105J47286D01*
G01*
X206735350Y-51701240D01*
G75*
G02*
X206763531Y-51634849I47286J19105D01*
G01*
X207876151Y-51185321D01*
G75*
G02*
X207942542Y-51213502I19105J-47286D01*
G01*
X208279688Y-52047968D01*
G75*
G02*
X208251507Y-52114359I-47286J-19105D01*
G01*
G37*
G36*
G01*
X209487709Y-55174065D02*
X208375089Y-55623593D01*
G75*
G02*
X208308698Y-55595412I-19105J47286D01*
G01*
X207971552Y-54760946D01*
G75*
G02*
X207999733Y-54694555I47286J19105D01*
G01*
X209112353Y-54245027D01*
G75*
G02*
X209178744Y-54273208I19105J-47286D01*
G01*
X209515890Y-55107674D01*
G75*
G02*
X209487709Y-55174065I-47286J-19105D01*
G01*
G37*
G36*
G01*
X190709412Y-56667808D02*
X189596792Y-57117336D01*
G75*
G02*
X189530401Y-57089155I-19105J47286D01*
G01*
X189193255Y-56254689D01*
G75*
G02*
X189221436Y-56188298I47286J19105D01*
G01*
X190334056Y-55738770D01*
G75*
G02*
X190400447Y-55766951I19105J-47286D01*
G01*
X190737593Y-56601417D01*
G75*
G02*
X190709412Y-56667808I-47286J-19105D01*
G01*
G37*
G36*
G01*
X191945614Y-59727514D02*
X190832994Y-60177042D01*
G75*
G02*
X190766603Y-60148861I-19105J47286D01*
G01*
X190429457Y-59314395D01*
G75*
G02*
X190457638Y-59248004I47286J19105D01*
G01*
X191570258Y-58798476D01*
G75*
G02*
X191636649Y-58826657I19105J-47286D01*
G01*
X191973795Y-59661123D01*
G75*
G02*
X191945614Y-59727514I-47286J-19105D01*
G01*
G37*
G36*
G01*
X174927592Y-65578093D02*
X173814972Y-66027621D01*
G75*
G02*
X173748581Y-65999440I-19105J47286D01*
G01*
X173411435Y-65164974D01*
G75*
G02*
X173439616Y-65098583I47286J19105D01*
G01*
X174552236Y-64649055D01*
G75*
G02*
X174618627Y-64677236I19105J-47286D01*
G01*
X174955773Y-65511702D01*
G75*
G02*
X174927592Y-65578093I-47286J-19105D01*
G01*
G37*
G36*
G01*
X176163794Y-68637799D02*
X175051174Y-69087327D01*
G75*
G02*
X174984783Y-69059146I-19105J47286D01*
G01*
X174647637Y-68224680D01*
G75*
G02*
X174675818Y-68158289I47286J19105D01*
G01*
X175788438Y-67708761D01*
G75*
G02*
X175854829Y-67736942I19105J-47286D01*
G01*
X176191975Y-68571408D01*
G75*
G02*
X176163794Y-68637799I-47286J-19105D01*
G01*
G37*
G36*
G01*
X159028022Y-74535956D02*
X157915402Y-74985484D01*
G75*
G02*
X157849011Y-74957303I-19105J47286D01*
G01*
X157511865Y-74122837D01*
G75*
G02*
X157540046Y-74056446I47286J19105D01*
G01*
X158652666Y-73606918D01*
G75*
G02*
X158719057Y-73635099I19105J-47286D01*
G01*
X159056203Y-74469565D01*
G75*
G02*
X159028022Y-74535956I-47286J-19105D01*
G01*
G37*
G36*
G01*
X160264224Y-77595662D02*
X159151604Y-78045190D01*
G75*
G02*
X159085213Y-78017009I-19105J47286D01*
G01*
X158748067Y-77182543D01*
G75*
G02*
X158776248Y-77116152I47286J19105D01*
G01*
X159888868Y-76666624D01*
G75*
G02*
X159955259Y-76694805I19105J-47286D01*
G01*
X160292405Y-77529271D01*
G75*
G02*
X160264224Y-77595662I-47286J-19105D01*
G01*
G37*
G36*
G01*
X130774745Y-81585096D02*
X129662125Y-81135568D01*
G75*
G02*
X129633944Y-81069177I19105J47286D01*
G01*
X129971090Y-80234711D01*
G75*
G02*
X130037481Y-80206530I47286J-19105D01*
G01*
X131150101Y-80656058D01*
G75*
G02*
X131178282Y-80722449I-19105J-47286D01*
G01*
X130841136Y-81556915D01*
G75*
G02*
X130774745Y-81585096I-47286J19105D01*
G01*
G37*
G36*
G01*
X129538543Y-84644802D02*
X128425923Y-84195274D01*
G75*
G02*
X128397742Y-84128883I19105J47286D01*
G01*
X128734888Y-83294417D01*
G75*
G02*
X128801279Y-83266236I47286J-19105D01*
G01*
X129913899Y-83715764D01*
G75*
G02*
X129942080Y-83782155I-19105J-47286D01*
G01*
X129604934Y-84616621D01*
G75*
G02*
X129538543Y-84644802I-47286J19105D01*
G01*
G37*
G36*
G01*
X114957837Y-72592145D02*
X113845217Y-72142617D01*
G75*
G02*
X113817036Y-72076226I19105J47286D01*
G01*
X114154182Y-71241760D01*
G75*
G02*
X114220573Y-71213579I47286J-19105D01*
G01*
X115333193Y-71663107D01*
G75*
G02*
X115361374Y-71729498I-19105J-47286D01*
G01*
X115024228Y-72563964D01*
G75*
G02*
X114957837Y-72592145I-47286J19105D01*
G01*
G37*
G36*
G01*
X113721635Y-75651851D02*
X112609015Y-75202323D01*
G75*
G02*
X112580834Y-75135932I19105J47286D01*
G01*
X112917980Y-74301466D01*
G75*
G02*
X112984371Y-74273285I47286J-19105D01*
G01*
X114096991Y-74722813D01*
G75*
G02*
X114125172Y-74789204I-19105J-47286D01*
G01*
X113788026Y-75623670D01*
G75*
G02*
X113721635Y-75651851I-47286J19105D01*
G01*
G37*
G36*
G01*
X99198360Y-63720285D02*
X98085740Y-63270757D01*
G75*
G02*
X98057559Y-63204366I19105J47286D01*
G01*
X98394705Y-62369900D01*
G75*
G02*
X98461096Y-62341719I47286J-19105D01*
G01*
X99573716Y-62791247D01*
G75*
G02*
X99601897Y-62857638I-19105J-47286D01*
G01*
X99264751Y-63692104D01*
G75*
G02*
X99198360Y-63720285I-47286J19105D01*
G01*
G37*
G36*
G01*
X97962158Y-66779991D02*
X96849538Y-66330463D01*
G75*
G02*
X96821357Y-66264072I19105J47286D01*
G01*
X97158503Y-65429606D01*
G75*
G02*
X97224894Y-65401425I47286J-19105D01*
G01*
X98337514Y-65850953D01*
G75*
G02*
X98365695Y-65917344I-19105J-47286D01*
G01*
X98028549Y-66751810D01*
G75*
G02*
X97962158Y-66779991I-47286J19105D01*
G01*
G37*
G36*
G01*
X81575044Y-59104622D02*
X80462424Y-58655094D01*
G75*
G02*
X80434243Y-58588703I19105J47286D01*
G01*
X80771389Y-57754237D01*
G75*
G02*
X80837780Y-57726056I47286J-19105D01*
G01*
X81950400Y-58175584D01*
G75*
G02*
X81978581Y-58241975I-19105J-47286D01*
G01*
X81641435Y-59076441D01*
G75*
G02*
X81575044Y-59104622I-47286J19105D01*
G01*
G37*
G36*
G01*
X80338842Y-62164328D02*
X79226222Y-61714800D01*
G75*
G02*
X79198041Y-61648409I19105J47286D01*
G01*
X79535187Y-60813943D01*
G75*
G02*
X79601578Y-60785762I47286J-19105D01*
G01*
X80714198Y-61235290D01*
G75*
G02*
X80742379Y-61301681I-19105J-47286D01*
G01*
X80405233Y-62136147D01*
G75*
G02*
X80338842Y-62164328I-47286J19105D01*
G01*
G37*
G36*
G01*
X63012337Y-56809809D02*
X61899717Y-56360281D01*
G75*
G02*
X61871536Y-56293890I19105J47286D01*
G01*
X62208682Y-55459424D01*
G75*
G02*
X62275073Y-55431243I47286J-19105D01*
G01*
X63387693Y-55880771D01*
G75*
G02*
X63415874Y-55947162I-19105J-47286D01*
G01*
X63078728Y-56781628D01*
G75*
G02*
X63012337Y-56809809I-47286J19105D01*
G01*
G37*
G36*
G01*
X61776135Y-59869515D02*
X60663515Y-59419987D01*
G75*
G02*
X60635334Y-59353596I19105J47286D01*
G01*
X60972480Y-58519130D01*
G75*
G02*
X61038871Y-58490949I47286J-19105D01*
G01*
X62151491Y-58940477D01*
G75*
G02*
X62179672Y-59006868I-19105J-47286D01*
G01*
X61842526Y-59841334D01*
G75*
G02*
X61776135Y-59869515I-47286J19105D01*
G01*
G37*
D14*
X133592700Y-114370360D03*
X144783053Y-109875494D03*
X148832869Y-102786919D03*
X127496867Y-108501917D03*
X128512868Y-106533418D03*
X127496867Y-104564918D03*
D10*
X199301840Y-69685574D03*
X209500862Y-65564902D03*
G36*
G01*
X198370279Y-65046764D02*
X197396301Y-62636086D01*
G75*
G02*
X197424482Y-62569695I47286J19105D01*
G01*
X199835160Y-61595717D01*
G75*
G02*
X199901551Y-61623898I19105J-47286D01*
G01*
X200875529Y-64034576D01*
G75*
G02*
X200847348Y-64100967I-47286J-19105D01*
G01*
X198436670Y-65074945D01*
G75*
G02*
X198370279Y-65046764I-19105J47286D01*
G01*
G37*
D11*
X207632496Y-62275266D03*
D12*
X204401351Y-67625238D03*
D13*
X201188937Y-73021570D03*
X206611530Y-73095623D03*
D11*
X202172442Y-62108494D03*
G36*
G01*
X209903387Y-62759862D02*
X208929409Y-60349184D01*
G75*
G02*
X208957590Y-60282793I47286J19105D01*
G01*
X211368268Y-59308815D01*
G75*
G02*
X211434659Y-59336996I19105J-47286D01*
G01*
X212408637Y-61747674D01*
G75*
G02*
X212380456Y-61814065I-47286J-19105D01*
G01*
X209969778Y-62788043D01*
G75*
G02*
X209903387Y-62759862I-19105J47286D01*
G01*
G37*
D15*
X143202348Y-126894237D03*
X143202348Y-121894237D03*
G36*
G01*
X134551348Y-130994237D02*
X134551348Y-128994237D01*
G75*
G02*
X134602348Y-128943237I51000J0D01*
G01*
X137802348Y-128943237D01*
G75*
G02*
X137853348Y-128994237I0J-51000D01*
G01*
X137853348Y-130994237D01*
G75*
G02*
X137802348Y-131045237I-51000J0D01*
G01*
X134602348Y-131045237D01*
G75*
G02*
X134551348Y-130994237I0J51000D01*
G01*
G37*
G36*
G01*
X134551348Y-119794237D02*
X134551348Y-117794237D01*
G75*
G02*
X134602348Y-117743237I51000J0D01*
G01*
X137802348Y-117743237D01*
G75*
G02*
X137853348Y-117794237I0J-51000D01*
G01*
X137853348Y-119794237D01*
G75*
G02*
X137802348Y-119845237I-51000J0D01*
G01*
X134602348Y-119845237D01*
G75*
G02*
X134551348Y-119794237I0J51000D01*
G01*
G37*
X128702348Y-126894237D03*
X128702348Y-124394237D03*
G36*
G01*
X127651348Y-122894237D02*
X127651348Y-120894237D01*
G75*
G02*
X127702348Y-120843237I51000J0D01*
G01*
X129702348Y-120843237D01*
G75*
G02*
X129753348Y-120894237I0J-51000D01*
G01*
X129753348Y-122894237D01*
G75*
G02*
X129702348Y-122945237I-51000J0D01*
G01*
X127702348Y-122945237D01*
G75*
G02*
X127651348Y-122894237I0J51000D01*
G01*
G37*
D16*
X133312348Y-61683238D03*
X139092348Y-61683238D03*
D17*
X140522348Y-62213238D03*
X131882348Y-62213238D03*
D18*
X140522348Y-58033238D03*
X131882348Y-58033238D03*
D19*
X142510824Y-114732249D03*
X145050824Y-114275049D03*
X147590824Y-114732249D03*
X150130824Y-114275049D03*
X152670824Y-114732249D03*
G36*
G01*
X154360824Y-113374049D02*
X156060824Y-113374049D01*
G75*
G02*
X156111824Y-113425049I0J-51000D01*
G01*
X156111824Y-115125049D01*
G75*
G02*
X156060824Y-115176049I-51000J0D01*
G01*
X154360824Y-115176049D01*
G75*
G02*
X154309824Y-115125049I0J51000D01*
G01*
X154309824Y-113425049D01*
G75*
G02*
X154360824Y-113374049I51000J0D01*
G01*
G37*
D10*
X182482857Y-127577223D03*
X191267847Y-120957257D03*
G36*
G01*
X180382424Y-123337582D02*
X178817705Y-121261129D01*
G75*
G02*
X178827742Y-121189706I40730J30693D01*
G01*
X180904195Y-119624987D01*
G75*
G02*
X180975618Y-119635024I30693J-40730D01*
G01*
X182540337Y-121711477D01*
G75*
G02*
X182530300Y-121782900I-40730J-30693D01*
G01*
X180453847Y-123347619D01*
G75*
G02*
X180382424Y-123337582I-30693J40730D01*
G01*
G37*
D11*
X188611723Y-118263282D03*
D12*
X186875352Y-124267240D03*
D13*
X185169072Y-130311130D03*
X190426061Y-128979190D03*
D11*
X183294553Y-119515359D03*
G36*
G01*
X190930658Y-118143617D02*
X189365939Y-116067164D01*
G75*
G02*
X189375976Y-115995741I40730J30693D01*
G01*
X191452429Y-114431022D01*
G75*
G02*
X191523852Y-114441059I30693J-40730D01*
G01*
X193088571Y-116517512D01*
G75*
G02*
X193078534Y-116588935I-40730J-30693D01*
G01*
X191002081Y-118153654D01*
G75*
G02*
X190930658Y-118143617I-30693J40730D01*
G01*
G37*
D10*
X164961917Y-139687171D03*
X171958777Y-131199301D03*
G36*
G01*
X161929795Y-136055008D02*
X159923571Y-134401204D01*
G75*
G02*
X159916658Y-134329411I32440J39353D01*
G01*
X161570462Y-132323187D01*
G75*
G02*
X161642255Y-132316274I39353J-32440D01*
G01*
X163648479Y-133970078D01*
G75*
G02*
X163655392Y-134041871I-32440J-39353D01*
G01*
X162001588Y-136048095D01*
G75*
G02*
X161929795Y-136055008I-39353J32440D01*
G01*
G37*
D11*
X168747146Y-129199820D03*
D12*
X168460347Y-135443236D03*
D13*
X168212129Y-141718456D03*
X173012932Y-139196097D03*
D11*
X163869181Y-131658571D03*
G36*
G01*
X170974072Y-128542116D02*
X168967848Y-126888312D01*
G75*
G02*
X168960935Y-126816519I32440J39353D01*
G01*
X170614739Y-124810295D01*
G75*
G02*
X170686532Y-124803382I39353J-32440D01*
G01*
X172692756Y-126457186D01*
G75*
G02*
X172699669Y-126528979I-32440J-39353D01*
G01*
X171045865Y-128535203D01*
G75*
G02*
X170974072Y-128542116I-39353J32440D01*
G01*
G37*
D10*
X100445921Y-131135805D03*
X107442781Y-139623675D03*
G36*
G01*
X104589907Y-128852441D02*
X106596131Y-127198637D01*
G75*
G02*
X106667924Y-127205550I32440J-39353D01*
G01*
X108321728Y-129211774D01*
G75*
G02*
X108314815Y-129283567I-39353J-32440D01*
G01*
X106308591Y-130937371D01*
G75*
G02*
X106236798Y-130930458I-32440J39353D01*
G01*
X104582994Y-128924234D01*
G75*
G02*
X104589907Y-128852441I39353J32440D01*
G01*
G37*
D11*
X110018334Y-136852570D03*
D12*
X103944351Y-135379740D03*
D13*
X97831786Y-133938714D03*
X99391766Y-139132601D03*
D11*
X108535517Y-131595075D03*
G36*
G01*
X110239036Y-139164077D02*
X112245260Y-137510273D01*
G75*
G02*
X112317053Y-137517186I32440J-39353D01*
G01*
X113970857Y-139523410D01*
G75*
G02*
X113963944Y-139595203I-39353J-32440D01*
G01*
X111957720Y-141249007D01*
G75*
G02*
X111885927Y-141242094I-32440J39353D01*
G01*
X110232123Y-139235870D01*
G75*
G02*
X110239036Y-139164077I39353J32440D01*
G01*
G37*
D10*
X81136850Y-120957253D03*
X89921840Y-127577219D03*
G36*
G01*
X84633297Y-117769585D02*
X86198016Y-115693132D01*
G75*
G02*
X86269439Y-115683095I40730J-30693D01*
G01*
X88345892Y-117247814D01*
G75*
G02*
X88355929Y-117319237I-30693J-40730D01*
G01*
X86791210Y-119395690D01*
G75*
G02*
X86719787Y-119405727I-40730J30693D01*
G01*
X84643334Y-117841008D01*
G75*
G02*
X84633297Y-117769585I30693J40730D01*
G01*
G37*
D11*
X91779329Y-124281428D03*
D12*
X85529345Y-124267236D03*
D13*
X79249270Y-124292976D03*
X81978636Y-128979186D03*
D11*
X89110144Y-119515355D03*
G36*
G01*
X92533544Y-126477546D02*
X94098263Y-124401093D01*
G75*
G02*
X94169686Y-124391056I40730J-30693D01*
G01*
X96246139Y-125955775D01*
G75*
G02*
X96256176Y-126027198I-30693J-40730D01*
G01*
X94691457Y-128103651D01*
G75*
G02*
X94620034Y-128113688I-40730J30693D01*
G01*
X92543581Y-126548969D01*
G75*
G02*
X92533544Y-126477546I30693J40730D01*
G01*
G37*
D10*
X224130337Y-83147572D03*
X234329359Y-79026900D03*
G36*
G01*
X223198776Y-78508762D02*
X222224798Y-76098084D01*
G75*
G02*
X222252979Y-76031693I47286J19105D01*
G01*
X224663657Y-75057715D01*
G75*
G02*
X224730048Y-75085896I19105J-47286D01*
G01*
X225704026Y-77496574D01*
G75*
G02*
X225675845Y-77562965I-47286J-19105D01*
G01*
X223265167Y-78536943D01*
G75*
G02*
X223198776Y-78508762I-19105J47286D01*
G01*
G37*
D11*
X232460993Y-75737264D03*
D12*
X229229848Y-81087236D03*
D13*
X226017434Y-86483568D03*
X231440027Y-86557621D03*
D11*
X227000939Y-75570492D03*
G36*
G01*
X234731884Y-76221860D02*
X233757906Y-73811182D01*
G75*
G02*
X233786087Y-73744791I47286J19105D01*
G01*
X236196765Y-72770813D01*
G75*
G02*
X236263156Y-72798994I19105J-47286D01*
G01*
X237237134Y-75209672D01*
G75*
G02*
X237208953Y-75276063I-47286J-19105D01*
G01*
X234798275Y-76250041D01*
G75*
G02*
X234731884Y-76221860I-19105J47286D01*
G01*
G37*
D10*
X205651837Y-85497076D03*
X215850859Y-81376404D03*
G36*
G01*
X204720276Y-80858266D02*
X203746298Y-78447588D01*
G75*
G02*
X203774479Y-78381197I47286J19105D01*
G01*
X206185157Y-77407219D01*
G75*
G02*
X206251548Y-77435400I19105J-47286D01*
G01*
X207225526Y-79846078D01*
G75*
G02*
X207197345Y-79912469I-47286J-19105D01*
G01*
X204786667Y-80886447D01*
G75*
G02*
X204720276Y-80858266I-19105J47286D01*
G01*
G37*
D11*
X213982493Y-78086768D03*
D12*
X210751348Y-83436740D03*
D13*
X207538934Y-88833072D03*
X212961527Y-88907125D03*
D11*
X208522439Y-77919996D03*
G36*
G01*
X216253384Y-78571364D02*
X215279406Y-76160686D01*
G75*
G02*
X215307587Y-76094295I47286J19105D01*
G01*
X217718265Y-75120317D01*
G75*
G02*
X217784656Y-75148498I19105J-47286D01*
G01*
X218758634Y-77559176D01*
G75*
G02*
X218730453Y-77625567I-47286J-19105D01*
G01*
X216319775Y-78599545D01*
G75*
G02*
X216253384Y-78571364I-19105J47286D01*
G01*
G37*
D10*
X188062339Y-90005572D03*
X198261361Y-85884900D03*
G36*
G01*
X187130778Y-85366762D02*
X186156800Y-82956084D01*
G75*
G02*
X186184981Y-82889693I47286J19105D01*
G01*
X188595659Y-81915715D01*
G75*
G02*
X188662050Y-81943896I19105J-47286D01*
G01*
X189636028Y-84354574D01*
G75*
G02*
X189607847Y-84420965I-47286J-19105D01*
G01*
X187197169Y-85394943D01*
G75*
G02*
X187130778Y-85366762I-19105J47286D01*
G01*
G37*
D11*
X196392995Y-82595264D03*
D12*
X193161850Y-87945236D03*
D13*
X189949436Y-93341568D03*
X195372029Y-93415621D03*
D11*
X190932941Y-82428492D03*
G36*
G01*
X198663886Y-83079860D02*
X197689908Y-80669182D01*
G75*
G02*
X197718089Y-80602791I47286J19105D01*
G01*
X200128767Y-79628813D01*
G75*
G02*
X200195158Y-79656994I19105J-47286D01*
G01*
X201169136Y-82067672D01*
G75*
G02*
X201140955Y-82134063I-47286J-19105D01*
G01*
X198730277Y-83108041D01*
G75*
G02*
X198663886Y-83079860I-19105J47286D01*
G01*
G37*
D10*
X172314338Y-98959077D03*
X182513360Y-94838405D03*
G36*
G01*
X171382777Y-94320267D02*
X170408799Y-91909589D01*
G75*
G02*
X170436980Y-91843198I47286J19105D01*
G01*
X172847658Y-90869220D01*
G75*
G02*
X172914049Y-90897401I19105J-47286D01*
G01*
X173888027Y-93308079D01*
G75*
G02*
X173859846Y-93374470I-47286J-19105D01*
G01*
X171449168Y-94348448D01*
G75*
G02*
X171382777Y-94320267I-19105J47286D01*
G01*
G37*
D11*
X180644994Y-91548769D03*
D12*
X177413849Y-96898741D03*
D13*
X174201435Y-102295073D03*
X179624028Y-102369126D03*
D11*
X175184940Y-91381997D03*
G36*
G01*
X182915885Y-92033365D02*
X181941907Y-89622687D01*
G75*
G02*
X181970088Y-89556296I47286J19105D01*
G01*
X184380766Y-88582318D01*
G75*
G02*
X184447157Y-88610499I19105J-47286D01*
G01*
X185421135Y-91021177D01*
G75*
G02*
X185392954Y-91087568I-47286J-19105D01*
G01*
X182982276Y-92061546D01*
G75*
G02*
X182915885Y-92033365I-19105J47286D01*
G01*
G37*
D10*
X156502838Y-107912573D03*
X166701860Y-103791901D03*
G36*
G01*
X155571277Y-103273763D02*
X154597299Y-100863085D01*
G75*
G02*
X154625480Y-100796694I47286J19105D01*
G01*
X157036158Y-99822716D01*
G75*
G02*
X157102549Y-99850897I19105J-47286D01*
G01*
X158076527Y-102261575D01*
G75*
G02*
X158048346Y-102327966I-47286J-19105D01*
G01*
X155637668Y-103301944D01*
G75*
G02*
X155571277Y-103273763I-19105J47286D01*
G01*
G37*
D11*
X164833494Y-100502265D03*
D12*
X161602349Y-105852237D03*
D13*
X158389935Y-111248569D03*
X163812528Y-111322622D03*
D11*
X159373440Y-100335493D03*
G36*
G01*
X167104385Y-100986861D02*
X166130407Y-98576183D01*
G75*
G02*
X166158588Y-98509792I47286J19105D01*
G01*
X168569266Y-97535814D01*
G75*
G02*
X168635657Y-97563995I19105J-47286D01*
G01*
X169609635Y-99974673D01*
G75*
G02*
X169581454Y-100041064I-47286J-19105D01*
G01*
X167170776Y-101015042D01*
G75*
G02*
X167104385Y-100986861I-19105J47286D01*
G01*
G37*
D10*
X105766342Y-103791901D03*
X115965364Y-107912573D03*
G36*
G01*
X108318621Y-99807901D02*
X109292599Y-97397223D01*
G75*
G02*
X109358990Y-97369042I47286J-19105D01*
G01*
X111769668Y-98343020D01*
G75*
G02*
X111797849Y-98409411I-19105J-47286D01*
G01*
X110823871Y-100820089D01*
G75*
G02*
X110757480Y-100848270I-47286J19105D01*
G01*
X108346802Y-99874292D01*
G75*
G02*
X108318621Y-99807901I19105J47286D01*
G01*
G37*
D11*
X116906547Y-104248331D03*
D12*
X110865853Y-105852237D03*
D13*
X104806429Y-107502503D03*
X108655674Y-111322622D03*
D11*
X113094762Y-100335493D03*
G36*
G01*
X118203460Y-106174412D02*
X119177438Y-103763734D01*
G75*
G02*
X119243829Y-103735553I47286J-19105D01*
G01*
X121654507Y-104709531D01*
G75*
G02*
X121682688Y-104775922I-19105J-47286D01*
G01*
X120708710Y-107186600D01*
G75*
G02*
X120642319Y-107214781I-47286J19105D01*
G01*
X118231641Y-106240803D01*
G75*
G02*
X118203460Y-106174412I19105J47286D01*
G01*
G37*
D10*
X89954840Y-94838399D03*
X100153862Y-98959071D03*
G36*
G01*
X92507119Y-90854399D02*
X93481097Y-88443721D01*
G75*
G02*
X93547488Y-88415540I47286J-19105D01*
G01*
X95958166Y-89389518D01*
G75*
G02*
X95986347Y-89455909I-19105J-47286D01*
G01*
X95012369Y-91866587D01*
G75*
G02*
X94945978Y-91894768I-47286J19105D01*
G01*
X92535300Y-90920790D01*
G75*
G02*
X92507119Y-90854399I19105J47286D01*
G01*
G37*
D11*
X101095045Y-95294829D03*
D12*
X95054351Y-96898735D03*
D13*
X88994927Y-98549001D03*
X92844172Y-102369120D03*
D11*
X97283260Y-91381991D03*
G36*
G01*
X102391958Y-97220910D02*
X103365936Y-94810232D01*
G75*
G02*
X103432327Y-94782051I47286J-19105D01*
G01*
X105843005Y-95756029D01*
G75*
G02*
X105871186Y-95822420I-19105J-47286D01*
G01*
X104897208Y-98233098D01*
G75*
G02*
X104830817Y-98261279I-47286J19105D01*
G01*
X102420139Y-97287301D01*
G75*
G02*
X102391958Y-97220910I19105J47286D01*
G01*
G37*
D10*
X74143339Y-85884899D03*
X84342361Y-90005571D03*
G36*
G01*
X76695618Y-81900899D02*
X77669596Y-79490221D01*
G75*
G02*
X77735987Y-79462040I47286J-19105D01*
G01*
X80146665Y-80436018D01*
G75*
G02*
X80174846Y-80502409I-19105J-47286D01*
G01*
X79200868Y-82913087D01*
G75*
G02*
X79134477Y-82941268I-47286J19105D01*
G01*
X76723799Y-81967290D01*
G75*
G02*
X76695618Y-81900899I19105J47286D01*
G01*
G37*
D11*
X85283544Y-86341329D03*
D12*
X79242850Y-87945235D03*
D13*
X73183426Y-89595501D03*
X77032671Y-93415620D03*
D11*
X81471759Y-82428491D03*
G36*
G01*
X86580457Y-88267410D02*
X87554435Y-85856732D01*
G75*
G02*
X87620826Y-85828551I47286J-19105D01*
G01*
X90031504Y-86802529D01*
G75*
G02*
X90059685Y-86868920I-19105J-47286D01*
G01*
X89085707Y-89279598D01*
G75*
G02*
X89019316Y-89307779I-47286J19105D01*
G01*
X86608638Y-88333801D01*
G75*
G02*
X86580457Y-88267410I19105J47286D01*
G01*
G37*
D10*
X56553843Y-81376402D03*
X66752865Y-85497074D03*
G36*
G01*
X59106122Y-77392402D02*
X60080100Y-74981724D01*
G75*
G02*
X60146491Y-74953543I47286J-19105D01*
G01*
X62557169Y-75927521D01*
G75*
G02*
X62585350Y-75993912I-19105J-47286D01*
G01*
X61611372Y-78404590D01*
G75*
G02*
X61544981Y-78432771I-47286J19105D01*
G01*
X59134303Y-77458793D01*
G75*
G02*
X59106122Y-77392402I19105J47286D01*
G01*
G37*
D11*
X67694048Y-81832832D03*
D12*
X61653354Y-83436738D03*
D13*
X55593930Y-85087004D03*
X59443175Y-88907123D03*
D11*
X63882263Y-77919994D03*
G36*
G01*
X68990961Y-83758913D02*
X69964939Y-81348235D01*
G75*
G02*
X70031330Y-81320054I47286J-19105D01*
G01*
X72442008Y-82294032D01*
G75*
G02*
X72470189Y-82360423I-19105J-47286D01*
G01*
X71496211Y-84771101D01*
G75*
G02*
X71429820Y-84799282I-47286J19105D01*
G01*
X69019142Y-83825304D01*
G75*
G02*
X68990961Y-83758913I19105J47286D01*
G01*
G37*
D10*
X38075336Y-79026907D03*
X48274358Y-83147579D03*
G36*
G01*
X40627615Y-75042907D02*
X41601593Y-72632229D01*
G75*
G02*
X41667984Y-72604048I47286J-19105D01*
G01*
X44078662Y-73578026D01*
G75*
G02*
X44106843Y-73644417I-19105J-47286D01*
G01*
X43132865Y-76055095D01*
G75*
G02*
X43066474Y-76083276I-47286J19105D01*
G01*
X40655796Y-75109298D01*
G75*
G02*
X40627615Y-75042907I19105J47286D01*
G01*
G37*
D11*
X49215541Y-79483337D03*
D12*
X43174847Y-81087243D03*
D13*
X37115423Y-82737509D03*
X40964668Y-86557628D03*
D11*
X45403756Y-75570499D03*
G36*
G01*
X50512454Y-81409418D02*
X51486432Y-78998740D01*
G75*
G02*
X51552823Y-78970559I47286J-19105D01*
G01*
X53963501Y-79944537D01*
G75*
G02*
X53991682Y-80010928I-19105J-47286D01*
G01*
X53017704Y-82421606D01*
G75*
G02*
X52951313Y-82449787I-47286J19105D01*
G01*
X50540635Y-81475809D01*
G75*
G02*
X50512454Y-81409418I19105J47286D01*
G01*
G37*
D10*
X181712338Y-74257574D03*
X191911360Y-70136902D03*
G36*
G01*
X180780777Y-69618764D02*
X179806799Y-67208086D01*
G75*
G02*
X179834980Y-67141695I47286J19105D01*
G01*
X182245658Y-66167717D01*
G75*
G02*
X182312049Y-66195898I19105J-47286D01*
G01*
X183286027Y-68606576D01*
G75*
G02*
X183257846Y-68672967I-47286J-19105D01*
G01*
X180847168Y-69646945D01*
G75*
G02*
X180780777Y-69618764I-19105J47286D01*
G01*
G37*
D11*
X190042994Y-66847266D03*
D12*
X186811849Y-72197238D03*
D13*
X183599435Y-77593570D03*
X189022028Y-77667623D03*
D11*
X184582940Y-66680494D03*
G36*
G01*
X192313885Y-67331862D02*
X191339907Y-64921184D01*
G75*
G02*
X191368088Y-64854793I47286J19105D01*
G01*
X193778766Y-63880815D01*
G75*
G02*
X193845157Y-63908996I19105J-47286D01*
G01*
X194819135Y-66319674D01*
G75*
G02*
X194790954Y-66386065I-47286J-19105D01*
G01*
X192380276Y-67360043D01*
G75*
G02*
X192313885Y-67331862I-19105J47286D01*
G01*
G37*
D10*
X165964339Y-83211078D03*
X176163361Y-79090406D03*
G36*
G01*
X165032778Y-78572268D02*
X164058800Y-76161590D01*
G75*
G02*
X164086981Y-76095199I47286J19105D01*
G01*
X166497659Y-75121221D01*
G75*
G02*
X166564050Y-75149402I19105J-47286D01*
G01*
X167538028Y-77560080D01*
G75*
G02*
X167509847Y-77626471I-47286J-19105D01*
G01*
X165099169Y-78600449D01*
G75*
G02*
X165032778Y-78572268I-19105J47286D01*
G01*
G37*
D11*
X174294995Y-75800770D03*
D12*
X171063850Y-81150742D03*
D13*
X167851436Y-86547074D03*
X173274029Y-86621127D03*
D11*
X168834941Y-75633998D03*
G36*
G01*
X176565886Y-76285366D02*
X175591908Y-73874688D01*
G75*
G02*
X175620089Y-73808297I47286J19105D01*
G01*
X178030767Y-72834319D01*
G75*
G02*
X178097158Y-72862500I19105J-47286D01*
G01*
X179071136Y-75273178D01*
G75*
G02*
X179042955Y-75339569I-47286J-19105D01*
G01*
X176632277Y-76313547D01*
G75*
G02*
X176565886Y-76285366I-19105J47286D01*
G01*
G37*
D10*
X150089334Y-92101077D03*
X160288356Y-87980405D03*
G36*
G01*
X149157773Y-87462267D02*
X148183795Y-85051589D01*
G75*
G02*
X148211976Y-84985198I47286J19105D01*
G01*
X150622654Y-84011220D01*
G75*
G02*
X150689045Y-84039401I19105J-47286D01*
G01*
X151663023Y-86450079D01*
G75*
G02*
X151634842Y-86516470I-47286J-19105D01*
G01*
X149224164Y-87490448D01*
G75*
G02*
X149157773Y-87462267I-19105J47286D01*
G01*
G37*
D11*
X158419990Y-84690769D03*
D12*
X155188845Y-90040741D03*
D13*
X151976431Y-95437073D03*
X157399024Y-95511126D03*
D11*
X152959936Y-84523997D03*
G36*
G01*
X160690881Y-85175365D02*
X159716903Y-82764687D01*
G75*
G02*
X159745084Y-82698296I47286J19105D01*
G01*
X162155762Y-81724318D01*
G75*
G02*
X162222153Y-81752499I19105J-47286D01*
G01*
X163196131Y-84163177D01*
G75*
G02*
X163167950Y-84229568I-47286J-19105D01*
G01*
X160757272Y-85203546D01*
G75*
G02*
X160690881Y-85175365I-19105J47286D01*
G01*
G37*
D10*
X112116339Y-88043905D03*
X122315361Y-92164577D03*
G36*
G01*
X114668618Y-84059905D02*
X115642596Y-81649227D01*
G75*
G02*
X115708987Y-81621046I47286J-19105D01*
G01*
X118119665Y-82595024D01*
G75*
G02*
X118147846Y-82661415I-19105J-47286D01*
G01*
X117173868Y-85072093D01*
G75*
G02*
X117107477Y-85100274I-47286J19105D01*
G01*
X114696799Y-84126296D01*
G75*
G02*
X114668618Y-84059905I19105J47286D01*
G01*
G37*
D11*
X123256544Y-88500335D03*
D12*
X117215850Y-90104241D03*
D13*
X111156426Y-91754507D03*
X115005671Y-95574626D03*
D11*
X119444759Y-84587497D03*
G36*
G01*
X124553457Y-90426416D02*
X125527435Y-88015738D01*
G75*
G02*
X125593826Y-87987557I47286J-19105D01*
G01*
X128004504Y-88961535D01*
G75*
G02*
X128032685Y-89027926I-19105J-47286D01*
G01*
X127058707Y-91438604D01*
G75*
G02*
X126992316Y-91466785I-47286J19105D01*
G01*
X124581638Y-90492807D01*
G75*
G02*
X124553457Y-90426416I19105J47286D01*
G01*
G37*
D10*
X96304839Y-79090403D03*
X106503861Y-83211075D03*
G36*
G01*
X98857118Y-75106403D02*
X99831096Y-72695725D01*
G75*
G02*
X99897487Y-72667544I47286J-19105D01*
G01*
X102308165Y-73641522D01*
G75*
G02*
X102336346Y-73707913I-19105J-47286D01*
G01*
X101362368Y-76118591D01*
G75*
G02*
X101295977Y-76146772I-47286J19105D01*
G01*
X98885299Y-75172794D01*
G75*
G02*
X98857118Y-75106403I19105J47286D01*
G01*
G37*
D11*
X107445044Y-79546833D03*
D12*
X101404350Y-81150739D03*
D13*
X95344926Y-82801005D03*
X99194171Y-86621124D03*
D11*
X103633259Y-75633995D03*
G36*
G01*
X108741957Y-81472914D02*
X109715935Y-79062236D01*
G75*
G02*
X109782326Y-79034055I47286J-19105D01*
G01*
X112193004Y-80008033D01*
G75*
G02*
X112221185Y-80074424I-19105J-47286D01*
G01*
X111247207Y-82485102D01*
G75*
G02*
X111180816Y-82513283I-47286J19105D01*
G01*
X108770138Y-81539305D01*
G75*
G02*
X108741957Y-81472914I19105J47286D01*
G01*
G37*
D10*
X80556838Y-70136900D03*
X90755860Y-74257572D03*
G36*
G01*
X83109117Y-66152900D02*
X84083095Y-63742222D01*
G75*
G02*
X84149486Y-63714041I47286J-19105D01*
G01*
X86560164Y-64688019D01*
G75*
G02*
X86588345Y-64754410I-19105J-47286D01*
G01*
X85614367Y-67165088D01*
G75*
G02*
X85547976Y-67193269I-47286J19105D01*
G01*
X83137298Y-66219291D01*
G75*
G02*
X83109117Y-66152900I19105J47286D01*
G01*
G37*
D11*
X91697043Y-70593330D03*
D12*
X85656349Y-72197236D03*
D13*
X79596925Y-73847502D03*
X83446170Y-77667621D03*
D11*
X87885258Y-66680492D03*
G36*
G01*
X92993956Y-72519411D02*
X93967934Y-70108733D01*
G75*
G02*
X94034325Y-70080552I47286J-19105D01*
G01*
X96445003Y-71054530D01*
G75*
G02*
X96473184Y-71120921I-19105J-47286D01*
G01*
X95499206Y-73531599D01*
G75*
G02*
X95432815Y-73559780I-47286J19105D01*
G01*
X93022137Y-72585802D01*
G75*
G02*
X92993956Y-72519411I19105J47286D01*
G01*
G37*
D10*
X62967340Y-65564899D03*
X73166362Y-69685571D03*
G36*
G01*
X65519619Y-61580899D02*
X66493597Y-59170221D01*
G75*
G02*
X66559988Y-59142040I47286J-19105D01*
G01*
X68970666Y-60116018D01*
G75*
G02*
X68998847Y-60182409I-19105J-47286D01*
G01*
X68024869Y-62593087D01*
G75*
G02*
X67958478Y-62621268I-47286J19105D01*
G01*
X65547800Y-61647290D01*
G75*
G02*
X65519619Y-61580899I19105J47286D01*
G01*
G37*
D11*
X74107545Y-66021329D03*
D12*
X68066851Y-67625235D03*
D13*
X62007427Y-69275501D03*
X65856672Y-73095620D03*
D11*
X70295760Y-62108491D03*
G36*
G01*
X75404458Y-67947410D02*
X76378436Y-65536732D01*
G75*
G02*
X76444827Y-65508551I47286J-19105D01*
G01*
X78855505Y-66482529D01*
G75*
G02*
X78883686Y-66548920I-19105J-47286D01*
G01*
X77909708Y-68959598D01*
G75*
G02*
X77843317Y-68987779I-47286J19105D01*
G01*
X75432639Y-68013801D01*
G75*
G02*
X75404458Y-67947410I19105J47286D01*
G01*
G37*
D10*
X44488837Y-63278903D03*
X54687859Y-67399575D03*
G36*
G01*
X47041116Y-59294903D02*
X48015094Y-56884225D01*
G75*
G02*
X48081485Y-56856044I47286J-19105D01*
G01*
X50492163Y-57830022D01*
G75*
G02*
X50520344Y-57896413I-19105J-47286D01*
G01*
X49546366Y-60307091D01*
G75*
G02*
X49479975Y-60335272I-47286J19105D01*
G01*
X47069297Y-59361294D01*
G75*
G02*
X47041116Y-59294903I19105J47286D01*
G01*
G37*
D11*
X55629042Y-63735333D03*
D12*
X49588348Y-65339239D03*
D13*
X43528924Y-66989505D03*
X47378169Y-70809624D03*
D11*
X51817257Y-59822495D03*
G36*
G01*
X56925955Y-65661414D02*
X57899933Y-63250736D01*
G75*
G02*
X57966324Y-63222555I47286J-19105D01*
G01*
X60377002Y-64196533D01*
G75*
G02*
X60405183Y-64262924I-19105J-47286D01*
G01*
X59431205Y-66673602D01*
G75*
G02*
X59364814Y-66701783I-47286J19105D01*
G01*
X56954136Y-65727805D01*
G75*
G02*
X56925955Y-65661414I19105J47286D01*
G01*
G37*
D10*
X211430337Y-51588071D03*
X221629359Y-47467399D03*
G36*
G01*
X210498776Y-46949261D02*
X209524798Y-44538583D01*
G75*
G02*
X209552979Y-44472192I47286J19105D01*
G01*
X211963657Y-43498214D01*
G75*
G02*
X212030048Y-43526395I19105J-47286D01*
G01*
X213004026Y-45937073D01*
G75*
G02*
X212975845Y-46003464I-47286J-19105D01*
G01*
X210565167Y-46977442D01*
G75*
G02*
X210498776Y-46949261I-19105J47286D01*
G01*
G37*
D11*
X219760993Y-44177763D03*
D12*
X216529848Y-49527735D03*
D13*
X213317434Y-54924067D03*
X218740027Y-54998120D03*
D11*
X214300939Y-44010991D03*
G36*
G01*
X222031884Y-44662359D02*
X221057906Y-42251681D01*
G75*
G02*
X221086087Y-42185290I47286J19105D01*
G01*
X223496765Y-41211312D01*
G75*
G02*
X223563156Y-41239493I19105J-47286D01*
G01*
X224537134Y-43650171D01*
G75*
G02*
X224508953Y-43716562I-47286J-19105D01*
G01*
X222098275Y-44690540D01*
G75*
G02*
X222031884Y-44662359I-19105J47286D01*
G01*
G37*
D10*
X192951842Y-53937572D03*
X203150864Y-49816900D03*
G36*
G01*
X192020281Y-49298762D02*
X191046303Y-46888084D01*
G75*
G02*
X191074484Y-46821693I47286J19105D01*
G01*
X193485162Y-45847715D01*
G75*
G02*
X193551553Y-45875896I19105J-47286D01*
G01*
X194525531Y-48286574D01*
G75*
G02*
X194497350Y-48352965I-47286J-19105D01*
G01*
X192086672Y-49326943D01*
G75*
G02*
X192020281Y-49298762I-19105J47286D01*
G01*
G37*
D11*
X201282498Y-46527264D03*
D12*
X198051353Y-51877236D03*
D13*
X194838939Y-57273568D03*
X200261532Y-57347621D03*
D11*
X195822444Y-46360492D03*
G36*
G01*
X203553389Y-47011860D02*
X202579411Y-44601182D01*
G75*
G02*
X202607592Y-44534791I47286J19105D01*
G01*
X205018270Y-43560813D01*
G75*
G02*
X205084661Y-43588994I19105J-47286D01*
G01*
X206058639Y-45999672D01*
G75*
G02*
X206030458Y-46066063I-47286J-19105D01*
G01*
X203619780Y-47040041D01*
G75*
G02*
X203553389Y-47011860I-19105J47286D01*
G01*
G37*
D10*
X175362336Y-58446075D03*
X185561358Y-54325403D03*
G36*
G01*
X174430775Y-53807265D02*
X173456797Y-51396587D01*
G75*
G02*
X173484978Y-51330196I47286J19105D01*
G01*
X175895656Y-50356218D01*
G75*
G02*
X175962047Y-50384399I19105J-47286D01*
G01*
X176936025Y-52795077D01*
G75*
G02*
X176907844Y-52861468I-47286J-19105D01*
G01*
X174497166Y-53835446D01*
G75*
G02*
X174430775Y-53807265I-19105J47286D01*
G01*
G37*
D11*
X183692992Y-51035767D03*
D12*
X180461847Y-56385739D03*
D13*
X177249433Y-61782071D03*
X182672026Y-61856124D03*
D11*
X178232938Y-50868995D03*
G36*
G01*
X185963883Y-51520363D02*
X184989905Y-49109685D01*
G75*
G02*
X185018086Y-49043294I47286J19105D01*
G01*
X187428764Y-48069316D01*
G75*
G02*
X187495155Y-48097497I19105J-47286D01*
G01*
X188469133Y-50508175D01*
G75*
G02*
X188440952Y-50574566I-47286J-19105D01*
G01*
X186030274Y-51548544D01*
G75*
G02*
X185963883Y-51520363I-19105J47286D01*
G01*
G37*
D10*
X159614338Y-67399579D03*
X169813360Y-63278907D03*
G36*
G01*
X158682777Y-62760769D02*
X157708799Y-60350091D01*
G75*
G02*
X157736980Y-60283700I47286J19105D01*
G01*
X160147658Y-59309722D01*
G75*
G02*
X160214049Y-59337903I19105J-47286D01*
G01*
X161188027Y-61748581D01*
G75*
G02*
X161159846Y-61814972I-47286J-19105D01*
G01*
X158749168Y-62788950D01*
G75*
G02*
X158682777Y-62760769I-19105J47286D01*
G01*
G37*
D11*
X167944994Y-59989271D03*
D12*
X164713849Y-65339243D03*
D13*
X161501435Y-70735575D03*
X166924028Y-70809628D03*
D11*
X162484940Y-59822499D03*
G36*
G01*
X170215885Y-60473867D02*
X169241907Y-58063189D01*
G75*
G02*
X169270088Y-57996798I47286J19105D01*
G01*
X171680766Y-57022820D01*
G75*
G02*
X171747157Y-57051001I19105J-47286D01*
G01*
X172721135Y-59461679D01*
G75*
G02*
X172692954Y-59528070I-47286J-19105D01*
G01*
X170282276Y-60502048D01*
G75*
G02*
X170215885Y-60473867I-19105J47286D01*
G01*
G37*
D10*
X143739342Y-76353074D03*
X153938364Y-72232402D03*
G36*
G01*
X142807781Y-71714264D02*
X141833803Y-69303586D01*
G75*
G02*
X141861984Y-69237195I47286J19105D01*
G01*
X144272662Y-68263217D01*
G75*
G02*
X144339053Y-68291398I19105J-47286D01*
G01*
X145313031Y-70702076D01*
G75*
G02*
X145284850Y-70768467I-47286J-19105D01*
G01*
X142874172Y-71742445D01*
G75*
G02*
X142807781Y-71714264I-19105J47286D01*
G01*
G37*
D11*
X152069998Y-68942766D03*
D12*
X148838853Y-74292738D03*
D13*
X145626439Y-79689070D03*
X151049032Y-79763123D03*
D11*
X146609944Y-68775994D03*
G36*
G01*
X154340889Y-69427362D02*
X153366911Y-67016684D01*
G75*
G02*
X153395092Y-66950293I47286J19105D01*
G01*
X155805770Y-65976315D01*
G75*
G02*
X155872161Y-66004496I19105J-47286D01*
G01*
X156846139Y-68415174D01*
G75*
G02*
X156817958Y-68481565I-47286J-19105D01*
G01*
X154407280Y-69455543D01*
G75*
G02*
X154340889Y-69427362I-19105J47286D01*
G01*
G37*
D10*
X118466339Y-72232402D03*
X128665361Y-76353074D03*
G36*
G01*
X121018618Y-68248402D02*
X121992596Y-65837724D01*
G75*
G02*
X122058987Y-65809543I47286J-19105D01*
G01*
X124469665Y-66783521D01*
G75*
G02*
X124497846Y-66849912I-19105J-47286D01*
G01*
X123523868Y-69260590D01*
G75*
G02*
X123457477Y-69288771I-47286J19105D01*
G01*
X121046799Y-68314793D01*
G75*
G02*
X121018618Y-68248402I19105J47286D01*
G01*
G37*
D11*
X129606544Y-72688832D03*
D12*
X123565850Y-74292738D03*
D13*
X117506426Y-75943004D03*
X121355671Y-79763123D03*
D11*
X125794759Y-68775994D03*
G36*
G01*
X130903457Y-74614913D02*
X131877435Y-72204235D01*
G75*
G02*
X131943826Y-72176054I47286J-19105D01*
G01*
X134354504Y-73150032D01*
G75*
G02*
X134382685Y-73216423I-19105J-47286D01*
G01*
X133408707Y-75627101D01*
G75*
G02*
X133342316Y-75655282I-47286J19105D01*
G01*
X130931638Y-74681304D01*
G75*
G02*
X130903457Y-74614913I19105J47286D01*
G01*
G37*
D10*
X102718338Y-63278901D03*
X112917360Y-67399573D03*
G36*
G01*
X105270617Y-59294901D02*
X106244595Y-56884223D01*
G75*
G02*
X106310986Y-56856042I47286J-19105D01*
G01*
X108721664Y-57830020D01*
G75*
G02*
X108749845Y-57896411I-19105J-47286D01*
G01*
X107775867Y-60307089D01*
G75*
G02*
X107709476Y-60335270I-47286J19105D01*
G01*
X105298798Y-59361292D01*
G75*
G02*
X105270617Y-59294901I19105J47286D01*
G01*
G37*
D11*
X113858543Y-63735331D03*
D12*
X107817849Y-65339237D03*
D13*
X101758425Y-66989503D03*
X105607670Y-70809622D03*
D11*
X110046758Y-59822493D03*
G36*
G01*
X115155456Y-65661412D02*
X116129434Y-63250734D01*
G75*
G02*
X116195825Y-63222553I47286J-19105D01*
G01*
X118606503Y-64196531D01*
G75*
G02*
X118634684Y-64262922I-19105J-47286D01*
G01*
X117660706Y-66673600D01*
G75*
G02*
X117594315Y-66701781I-47286J19105D01*
G01*
X115183637Y-65727803D01*
G75*
G02*
X115155456Y-65661412I19105J47286D01*
G01*
G37*
D10*
X86906840Y-54388903D03*
X97105862Y-58509575D03*
G36*
G01*
X89459119Y-50404903D02*
X90433097Y-47994225D01*
G75*
G02*
X90499488Y-47966044I47286J-19105D01*
G01*
X92910166Y-48940022D01*
G75*
G02*
X92938347Y-49006413I-19105J-47286D01*
G01*
X91964369Y-51417091D01*
G75*
G02*
X91897978Y-51445272I-47286J19105D01*
G01*
X89487300Y-50471294D01*
G75*
G02*
X89459119Y-50404903I19105J47286D01*
G01*
G37*
D11*
X98047045Y-54845333D03*
D12*
X92006351Y-56449239D03*
D13*
X85946927Y-58099505D03*
X89796172Y-61919624D03*
D11*
X94235260Y-50932495D03*
G36*
G01*
X99343958Y-56771414D02*
X100317936Y-54360736D01*
G75*
G02*
X100384327Y-54332555I47286J-19105D01*
G01*
X102795005Y-55306533D01*
G75*
G02*
X102823186Y-55372924I-19105J-47286D01*
G01*
X101849208Y-57783602D01*
G75*
G02*
X101782817Y-57811783I-47286J19105D01*
G01*
X99372139Y-56837805D01*
G75*
G02*
X99343958Y-56771414I19105J47286D01*
G01*
G37*
D10*
X69317337Y-49816899D03*
X79516359Y-53937571D03*
G36*
G01*
X71869616Y-45832899D02*
X72843594Y-43422221D01*
G75*
G02*
X72909985Y-43394040I47286J-19105D01*
G01*
X75320663Y-44368018D01*
G75*
G02*
X75348844Y-44434409I-19105J-47286D01*
G01*
X74374866Y-46845087D01*
G75*
G02*
X74308475Y-46873268I-47286J19105D01*
G01*
X71897797Y-45899290D01*
G75*
G02*
X71869616Y-45832899I19105J47286D01*
G01*
G37*
D11*
X80457542Y-50273329D03*
D12*
X74416848Y-51877235D03*
D13*
X68357424Y-53527501D03*
X72206669Y-57347620D03*
D11*
X76645757Y-46360491D03*
G36*
G01*
X81754455Y-52199410D02*
X82728433Y-49788732D01*
G75*
G02*
X82794824Y-49760551I47286J-19105D01*
G01*
X85205502Y-50734529D01*
G75*
G02*
X85233683Y-50800920I-19105J-47286D01*
G01*
X84259705Y-53211598D01*
G75*
G02*
X84193314Y-53239779I-47286J19105D01*
G01*
X81782636Y-52265801D01*
G75*
G02*
X81754455Y-52199410I19105J47286D01*
G01*
G37*
D10*
X50838841Y-47530900D03*
X61037863Y-51651572D03*
G36*
G01*
X53391120Y-43546900D02*
X54365098Y-41136222D01*
G75*
G02*
X54431489Y-41108041I47286J-19105D01*
G01*
X56842167Y-42082019D01*
G75*
G02*
X56870348Y-42148410I-19105J-47286D01*
G01*
X55896370Y-44559088D01*
G75*
G02*
X55829979Y-44587269I-47286J19105D01*
G01*
X53419301Y-43613291D01*
G75*
G02*
X53391120Y-43546900I19105J47286D01*
G01*
G37*
D11*
X61979046Y-47987330D03*
D12*
X55938352Y-49591236D03*
D13*
X49878928Y-51241502D03*
X53728173Y-55061621D03*
D11*
X58167261Y-44074492D03*
G36*
G01*
X63275959Y-49913411D02*
X64249937Y-47502733D01*
G75*
G02*
X64316328Y-47474552I47286J-19105D01*
G01*
X66727006Y-48448530D01*
G75*
G02*
X66755187Y-48514921I-19105J-47286D01*
G01*
X65781209Y-50925599D01*
G75*
G02*
X65714818Y-50953780I-47286J19105D01*
G01*
X63304140Y-49979802D01*
G75*
G02*
X63275959Y-49913411I19105J47286D01*
G01*
G37*
D20*
G36*
X112286156Y-137476561D02*
G01*
X112579030Y-137831846D01*
X114004840Y-139561491D01*
X114004569Y-139564306D01*
X111919639Y-141282990D01*
X111917667Y-141283320D01*
X111916824Y-141282719D01*
X110198140Y-139197789D01*
X110197973Y-139196788D01*
X110202499Y-139196788D01*
X111918638Y-141278631D01*
X114000481Y-139562492D01*
X112575944Y-137834390D01*
X112284342Y-137480649D01*
X110202499Y-139196788D01*
X110197973Y-139196788D01*
X110197810Y-139195817D01*
X110198411Y-139194974D01*
X112283341Y-137476290D01*
X112285313Y-137475960D01*
X112286156Y-137476561D01*
G37*
G36*
X161604174Y-132282291D02*
G01*
X163689104Y-134000975D01*
X163689805Y-134002848D01*
X163689375Y-134003790D01*
X162262002Y-135735331D01*
X161970691Y-136088720D01*
X161967876Y-136088991D01*
X159882946Y-134370307D01*
X159882268Y-134368493D01*
X159887034Y-134368493D01*
X161968877Y-136084632D01*
X162258916Y-135732787D01*
X163685016Y-134002789D01*
X161603173Y-132286650D01*
X159887034Y-134368493D01*
X159882268Y-134368493D01*
X159882245Y-134368434D01*
X159882675Y-134367492D01*
X161601359Y-132282562D01*
X161603232Y-132281861D01*
X161604174Y-132282291D01*
G37*
G36*
X106637027Y-127164925D02*
G01*
X106760175Y-127314316D01*
X108355711Y-129249855D01*
X108355440Y-129252670D01*
X106270510Y-130971354D01*
X106268538Y-130971684D01*
X106267695Y-130971083D01*
X104549011Y-128886153D01*
X104548844Y-128885152D01*
X104553370Y-128885152D01*
X106269509Y-130966995D01*
X108351352Y-129250856D01*
X106757089Y-127316860D01*
X106635213Y-127169013D01*
X104553370Y-128885152D01*
X104548844Y-128885152D01*
X104548681Y-128884181D01*
X104549282Y-128883338D01*
X106634212Y-127164654D01*
X106636184Y-127164324D01*
X106637027Y-127164925D01*
G37*
G36*
X170648451Y-124769399D02*
G01*
X172733381Y-126488083D01*
X172734082Y-126489956D01*
X172733652Y-126490898D01*
X171014968Y-128575828D01*
X171013095Y-128576529D01*
X171012153Y-128576099D01*
X168927223Y-126857415D01*
X168926545Y-126855601D01*
X168931311Y-126855601D01*
X171013154Y-128571740D01*
X172729293Y-126489897D01*
X170647450Y-124773758D01*
X168931311Y-126855601D01*
X168926545Y-126855601D01*
X168926522Y-126855542D01*
X168926952Y-126854600D01*
X170645636Y-124769670D01*
X170647509Y-124768969D01*
X170648451Y-124769399D01*
G37*
M02*
