M48
; DRILL file {KiCad (5.1.9-0-10_14)} date Wednesday, February 24, 2021 at 09:07:01 PM
; FORMAT={-:-/ absolute / metric / decimal}
; #@! TF.CreationDate,2021-02-24T21:07:01-06:00
; #@! TF.GenerationSoftware,Kicad,Pcbnew,(5.1.9-0-10_14)
FMAT,2
METRIC
T1C0.400
T2C0.600
T3C1.000
T4C1.092
T5C1.270
T6C1.500
T7C0.650
T8C1.702
T9C3.000
T10C3.429
%
G90
G05
T1
X72.838Y-79.121
X74.439Y-107.709
X90.28Y-84.526
X91.59Y-105.474
X92.409Y-115.075
X96.503Y-68.461
X102.569Y-128.982
X103.903Y-139.65
X107.69Y-113.712
X123.842Y-120.663
X124.032Y-115.774
X126.763Y-100.407
X128.668Y-116.663
X129.024Y-92.008
X129.938Y-117.806
X130.128Y-109.868
X131.109Y-113.968
X135.081Y-103.391
X135.145Y-125.235
X136.415Y-82.182
X136.801Y-93.734
X137.177Y-69.8
X139.145Y-95.962
X140.098Y-104.407
X141.65Y-92.442
X142.927Y-117.838
X143.082Y-96.279
X143.717Y-99.962
X144.797Y-100.724
X145.94Y-101.55
X146.257Y-91.771
X146.668Y-111.958
X148.162Y-109.868
X151.133Y-111.971
X151.909Y-128.474
X153.8Y-106.954
X160.039Y-79.503
X166.505Y-94.492
X170.837Y-116.086
X176.646Y-70.602
X180.808Y-105.299
X181.483Y-113.936
X182.467Y-86.536
X185.183Y-109.551
X191.596Y-125.934
X192.098Y-61.893
X196.801Y-96.927
X199.666Y-78.08
X207.344Y-100.724
X209.842Y-57.669
X215.155Y-73.192
T3
X128.702Y-121.894
X128.702Y-124.394
X128.702Y-126.894
X142.511Y-114.732
X143.202Y-121.894
X143.202Y-126.894
X145.051Y-114.275
X147.591Y-114.732
X150.131Y-114.275
X152.671Y-114.732
X155.211Y-114.275
T4
X127.497Y-104.565
X127.497Y-108.502
X128.513Y-106.533
X133.593Y-114.37
X144.783Y-109.875
X148.833Y-102.787
T5
X37.115Y-82.738
X40.965Y-86.558
X43.529Y-66.99
X47.378Y-70.81
X49.879Y-51.242
X53.728Y-55.062
X55.594Y-85.087
X59.443Y-88.907
X62.007Y-69.276
X65.857Y-73.096
X68.357Y-53.528
X72.207Y-57.348
X73.183Y-89.596
X77.033Y-93.416
X79.249Y-124.293
X79.597Y-73.848
X81.979Y-128.979
X83.446Y-77.668
X85.947Y-58.1
X88.995Y-98.549
X89.796Y-61.92
X92.844Y-102.369
X95.345Y-82.801
X97.832Y-133.939
X99.194Y-86.621
X99.392Y-139.133
X101.758Y-66.99
X104.806Y-107.503
X105.608Y-70.81
X108.656Y-111.323
X111.156Y-91.755
X115.006Y-95.575
X117.506Y-75.943
X121.356Y-79.763
X145.626Y-79.689
X151.049Y-79.763
X151.976Y-95.437
X157.399Y-95.511
X158.39Y-111.249
X161.501Y-70.736
X163.813Y-111.323
X166.924Y-70.81
X167.851Y-86.547
X168.212Y-141.718
X173.013Y-139.196
X173.274Y-86.621
X174.201Y-102.295
X177.249Y-61.782
X179.624Y-102.369
X182.672Y-61.856
X183.599Y-77.594
X185.169Y-130.311
X189.022Y-77.668
X189.949Y-93.342
X190.426Y-128.979
X194.839Y-57.274
X195.372Y-93.416
X200.262Y-57.348
X201.189Y-73.022
X206.612Y-73.096
X207.539Y-88.833
X212.962Y-88.907
X213.317Y-54.924
X218.74Y-54.998
X219.667Y-70.736
X225.09Y-70.81
X226.017Y-86.484
X231.44Y-86.558
T7
X133.312Y-61.683
X139.092Y-61.683
T8
X38.075Y-79.027
X44.489Y-63.279
X48.274Y-83.148
X50.839Y-47.531
X54.688Y-67.4
X56.554Y-81.376
X61.038Y-51.652
X62.967Y-65.565
X66.753Y-85.497
X69.317Y-49.817
X73.166Y-69.686
X74.143Y-85.885
X79.516Y-53.938
X80.557Y-70.137
X81.137Y-120.957
X84.342Y-90.006
X86.907Y-54.389
X89.922Y-127.577
X89.955Y-94.838
X90.756Y-74.258
X96.305Y-79.09
X97.106Y-58.51
X100.154Y-98.959
X100.446Y-131.136
X102.718Y-63.279
X105.766Y-103.792
X106.504Y-83.211
X107.443Y-139.624
X112.116Y-88.044
X112.917Y-67.4
X115.965Y-107.913
X118.466Y-72.232
X122.315Y-92.165
X128.665Y-76.353
X143.739Y-76.353
X150.089Y-92.101
X153.938Y-72.232
X156.503Y-107.913
X159.614Y-67.4
X160.288Y-87.98
X164.962Y-139.687
X165.964Y-83.211
X166.702Y-103.792
X169.813Y-63.279
X171.959Y-131.199
X172.314Y-98.959
X175.362Y-58.446
X176.163Y-79.09
X181.712Y-74.258
X182.483Y-127.577
X182.513Y-94.838
X185.561Y-54.325
X188.062Y-90.006
X191.268Y-120.957
X191.911Y-70.137
X192.952Y-53.938
X198.261Y-85.885
X199.302Y-69.686
X203.151Y-49.817
X205.652Y-85.497
X209.501Y-65.565
X211.43Y-51.588
X215.851Y-81.376
X217.78Y-67.4
X221.629Y-47.467
X224.13Y-83.148
X227.979Y-63.279
X234.329Y-79.027
T9
X45.404Y-75.57
X49.216Y-79.483
X51.817Y-59.822
X55.629Y-63.735
X58.167Y-44.074
X61.979Y-47.987
X63.882Y-77.92
X67.694Y-81.833
X70.296Y-62.108
X74.108Y-66.021
X76.646Y-46.36
X80.458Y-50.273
X81.472Y-82.428
X85.284Y-86.341
X87.885Y-66.68
X89.11Y-119.515
X91.697Y-70.593
X91.779Y-124.281
X94.235Y-50.932
X97.283Y-91.382
X98.047Y-54.845
X101.095Y-95.295
X103.633Y-75.634
X107.445Y-79.547
X108.536Y-131.595
X110.018Y-136.853
X110.047Y-59.822
X113.095Y-100.335
X113.859Y-63.735
X116.907Y-104.248
X119.445Y-84.587
X123.257Y-88.5
X125.795Y-68.776
X129.607Y-72.689
X146.61Y-68.776
X152.07Y-68.943
X152.96Y-84.524
X158.42Y-84.691
X159.373Y-100.335
X162.485Y-59.822
X163.869Y-131.659
X164.833Y-100.502
X167.945Y-59.989
X168.747Y-129.2
X168.835Y-75.634
X174.295Y-75.801
X175.185Y-91.382
X178.233Y-50.869
X180.645Y-91.549
X183.295Y-119.515
X183.693Y-51.036
X184.583Y-66.68
X188.612Y-118.263
X190.043Y-66.847
X190.933Y-82.428
X195.822Y-46.36
X196.393Y-82.595
X201.282Y-46.527
X202.172Y-62.108
X207.632Y-62.275
X208.522Y-77.92
X213.982Y-78.087
X214.301Y-44.011
X219.761Y-44.178
X220.651Y-59.822
X226.111Y-59.989
X227.001Y-75.57
X232.461Y-75.737
T10
X43.175Y-81.087
X49.588Y-65.339
X55.938Y-49.591
X61.653Y-83.437
X68.067Y-67.625
X74.417Y-51.877
X79.243Y-87.945
X85.529Y-124.267
X85.656Y-72.197
X92.006Y-56.449
X95.054Y-96.899
X101.404Y-81.151
X103.944Y-135.38
X107.818Y-65.339
X110.866Y-105.852
X117.216Y-90.104
X123.566Y-74.293
X148.839Y-74.293
X155.189Y-90.041
X161.602Y-105.852
X164.714Y-65.339
X168.46Y-135.443
X171.064Y-81.151
X177.414Y-96.899
X180.462Y-56.386
X186.812Y-72.197
X186.875Y-124.267
X193.162Y-87.945
X198.051Y-51.877
X204.401Y-67.625
X210.751Y-83.437
X216.53Y-49.528
X222.88Y-65.339
X229.23Y-81.087
T2
G00X131.882Y-58.333
M15
G01X131.882Y-57.733
M16
G05
G00X131.882Y-62.763
M15
G01X131.882Y-61.663
M16
G05
G00X140.522Y-58.333
M15
G01X140.522Y-57.733
M16
G05
G00X140.522Y-62.763
M15
G01X140.522Y-61.663
M16
G05
T6
G00X135.552Y-118.794
M15
G01X136.852Y-118.794
M16
G05
G00X135.552Y-129.994
M15
G01X136.852Y-129.994
M16
G05
T0
M30
