M48
; DRILL file {KiCad (5.1.9-0-10_14)} date Thursday, February 04, 2021 at 04:11:54 AM
; FORMAT={-:-/ absolute / metric / decimal}
; #@! TF.CreationDate,2021-02-04T04:11:54-06:00
; #@! TF.GenerationSoftware,Kicad,Pcbnew,(5.1.9-0-10_14)
FMAT,2
METRIC
T1C0.400
T2C0.600
T3C1.000
T4C1.092
T5C1.270
T6C1.500
T7C0.650
T8C1.702
T9C3.000
T10C3.429
%
G90
G05
T1
X73.11Y-79.233
X74.711Y-107.82
X90.552Y-84.638
X91.862Y-105.585
X92.681Y-115.186
X96.775Y-68.572
X102.841Y-129.093
X104.175Y-139.761
X107.962Y-113.823
X124.114Y-120.774
X124.304Y-115.885
X127.035Y-100.518
X128.94Y-116.774
X129.296Y-92.119
X130.21Y-117.917
X130.4Y-109.979
X131.381Y-114.08
X135.353Y-103.502
X135.417Y-125.346
X136.687Y-82.293
X137.449Y-69.911
X139.417Y-96.073
X140.37Y-104.518
X141.922Y-92.553
X143.354Y-96.39
X143.989Y-100.073
X145.069Y-100.835
X146.212Y-101.661
X146.529Y-91.882
X146.94Y-112.07
X148.434Y-109.979
X151.405Y-112.082
X152.181Y-128.585
X154.072Y-107.066
X160.311Y-79.614
X166.777Y-94.603
X176.918Y-70.713
X181.08Y-105.411
X181.755Y-114.047
X182.739Y-86.647
X185.455Y-109.662
X191.868Y-126.045
X192.37Y-62.004
X197.073Y-97.038
X199.938Y-78.192
X207.616Y-100.835
X210.114Y-57.78
X215.427Y-73.303
T3
X128.974Y-122.005
X128.974Y-124.505
X128.974Y-127.005
X142.783Y-114.843
X143.474Y-122.005
X143.474Y-127.005
X145.323Y-114.386
X147.863Y-114.843
X150.403Y-114.386
X152.943Y-114.843
X155.483Y-114.386
T4
X127.769Y-104.676
X127.769Y-108.613
X128.785Y-106.645
X145.055Y-109.987
X149.105Y-102.898
T5
X37.387Y-82.849
X41.237Y-86.669
X43.801Y-67.101
X47.65Y-70.921
X50.151Y-51.353
X54.0Y-55.173
X55.866Y-85.198
X59.715Y-89.018
X62.279Y-69.387
X66.129Y-73.207
X68.629Y-53.639
X72.479Y-57.459
X73.455Y-89.707
X77.305Y-93.527
X79.521Y-124.404
X79.869Y-73.959
X82.251Y-129.09
X83.718Y-77.779
X86.219Y-58.211
X89.267Y-98.66
X90.068Y-62.031
X93.116Y-102.48
X95.617Y-82.912
X98.104Y-134.05
X99.466Y-86.732
X99.664Y-139.244
X102.03Y-67.101
X105.078Y-107.614
X105.88Y-70.921
X108.928Y-111.434
X111.428Y-91.866
X115.278Y-95.686
X117.778Y-76.054
X121.628Y-79.874
X145.898Y-79.8
X151.321Y-79.874
X152.248Y-95.548
X157.671Y-95.622
X158.662Y-111.36
X161.773Y-70.847
X164.085Y-111.434
X167.196Y-70.921
X168.123Y-86.658
X168.484Y-141.83
X173.285Y-139.307
X173.546Y-86.732
X174.473Y-102.406
X177.521Y-61.893
X179.896Y-102.48
X182.944Y-61.967
X183.871Y-77.705
X185.441Y-130.422
X189.294Y-77.779
X190.221Y-93.453
X190.698Y-129.09
X195.111Y-57.385
X195.644Y-93.527
X200.534Y-57.459
X201.461Y-73.133
X206.884Y-73.207
X207.811Y-88.944
X213.234Y-89.018
X213.589Y-55.035
X219.012Y-55.109
X219.939Y-70.847
X225.362Y-70.921
X226.289Y-86.595
X231.712Y-86.669
T7
X133.584Y-61.794
X139.364Y-61.794
T8
X38.347Y-79.138
X44.761Y-63.39
X48.546Y-83.259
X51.111Y-47.642
X54.96Y-67.511
X56.826Y-81.488
X61.31Y-51.763
X63.239Y-65.676
X67.025Y-85.608
X69.589Y-49.928
X73.438Y-69.797
X74.415Y-85.996
X79.788Y-54.049
X80.829Y-70.248
X81.409Y-121.068
X84.614Y-90.117
X87.179Y-54.5
X90.194Y-127.688
X90.227Y-94.95
X91.028Y-74.369
X96.577Y-79.202
X97.378Y-58.621
X100.426Y-99.07
X100.718Y-131.247
X102.99Y-63.39
X106.038Y-103.903
X106.776Y-83.322
X107.715Y-139.735
X112.388Y-88.155
X113.189Y-67.511
X116.237Y-108.024
X118.738Y-72.344
X122.587Y-92.276
X128.937Y-76.464
X144.011Y-76.464
X150.361Y-92.212
X154.21Y-72.344
X156.775Y-108.024
X159.886Y-67.511
X160.56Y-88.092
X165.234Y-139.798
X166.236Y-83.322
X166.974Y-103.903
X170.085Y-63.39
X172.231Y-131.31
X172.586Y-99.07
X175.634Y-58.557
X176.435Y-79.202
X181.984Y-74.369
X182.755Y-127.688
X182.785Y-94.95
X185.833Y-54.437
X188.334Y-90.117
X191.54Y-121.068
X192.183Y-70.248
X193.224Y-54.049
X198.533Y-85.996
X199.574Y-69.797
X203.423Y-49.928
X205.924Y-85.608
X209.773Y-65.676
X211.702Y-51.699
X216.123Y-81.488
X218.052Y-67.511
X221.901Y-47.579
X224.402Y-83.259
X228.251Y-63.39
X234.601Y-79.138
T9
X45.676Y-75.682
X49.488Y-79.594
X52.089Y-59.934
X55.901Y-63.846
X58.439Y-44.186
X62.251Y-48.098
X64.154Y-78.031
X67.966Y-81.944
X70.568Y-62.22
X74.38Y-66.132
X76.918Y-46.472
X80.73Y-50.384
X81.744Y-82.54
X85.556Y-86.452
X88.157Y-66.792
X89.382Y-119.627
X91.969Y-70.704
X92.051Y-124.393
X94.507Y-51.044
X97.555Y-91.493
X98.319Y-54.956
X101.367Y-95.406
X103.905Y-75.745
X107.717Y-79.658
X108.808Y-131.706
X110.29Y-136.964
X110.319Y-59.934
X113.367Y-100.447
X114.131Y-63.846
X117.179Y-104.359
X119.717Y-84.699
X123.529Y-88.611
X126.067Y-68.887
X129.879Y-72.8
X146.882Y-68.887
X152.342Y-69.054
X153.232Y-84.635
X158.692Y-84.802
X159.645Y-100.447
X162.757Y-59.934
X164.141Y-131.77
X165.106Y-100.613
X168.217Y-60.1
X169.019Y-129.311
X169.107Y-75.745
X174.567Y-75.912
X175.457Y-91.493
X178.505Y-50.98
X180.917Y-91.66
X183.567Y-119.627
X183.965Y-51.147
X184.855Y-66.792
X188.884Y-118.374
X190.315Y-66.958
X191.205Y-82.54
X196.094Y-46.472
X196.665Y-82.706
X201.555Y-46.638
X202.444Y-62.22
X207.905Y-62.386
X208.794Y-78.031
X214.255Y-78.198
X214.573Y-44.122
X220.033Y-44.289
X220.923Y-59.934
X226.383Y-60.1
X227.273Y-75.682
X232.733Y-75.848
T10
X43.447Y-81.198
X49.86Y-65.45
X56.21Y-49.702
X61.925Y-83.548
X68.339Y-67.736
X74.689Y-51.988
X79.515Y-88.056
X85.801Y-124.378
X85.928Y-72.308
X92.278Y-56.56
X95.326Y-97.01
X101.676Y-81.262
X104.216Y-135.491
X108.09Y-65.45
X111.138Y-105.963
X117.488Y-90.215
X123.838Y-74.404
X149.111Y-74.404
X155.461Y-90.152
X161.874Y-105.963
X164.986Y-65.45
X168.732Y-135.554
X171.336Y-81.262
X177.686Y-97.01
X180.734Y-56.497
X187.084Y-72.308
X187.147Y-124.378
X193.434Y-88.056
X198.323Y-51.988
X204.673Y-67.736
X211.023Y-83.548
X216.802Y-49.639
X223.152Y-65.45
X229.502Y-81.198
T2
G00X132.154Y-58.444
M15
G01X132.154Y-57.844
M16
G05
G00X132.154Y-62.874
M15
G01X132.154Y-61.774
M16
G05
G00X140.794Y-58.444
M15
G01X140.794Y-57.844
M16
G05
G00X140.794Y-62.874
M15
G01X140.794Y-61.774
M16
G05
T6
G00X135.824Y-118.905
M15
G01X137.124Y-118.905
M16
G05
G00X135.824Y-130.105
M15
G01X137.124Y-130.105
M16
G05
T0
M30
