G04 #@! TF.GenerationSoftware,KiCad,Pcbnew,(5.1.9-0-10_14)*
G04 #@! TF.CreationDate,2021-02-04T04:11:51-06:00*
G04 #@! TF.ProjectId,micro_redox_semi_split,6d696372-6f5f-4726-9564-6f785f73656d,rev?*
G04 #@! TF.SameCoordinates,Original*
G04 #@! TF.FileFunction,Soldermask,Top*
G04 #@! TF.FilePolarity,Negative*
%FSLAX46Y46*%
G04 Gerber Fmt 4.6, Leading zero omitted, Abs format (unit mm)*
G04 Created by KiCad (PCBNEW (5.1.9-0-10_14)) date 2021-02-04 04:11:51*
%MOMM*%
%LPD*%
G01*
G04 APERTURE LIST*
%ADD10C,1.854600*%
%ADD11C,1.803800*%
%ADD12C,3.102000*%
%ADD13C,3.531000*%
%ADD14C,2.134000*%
%ADD15C,2.102000*%
%ADD16C,0.750000*%
%ADD17O,1.100000X2.200000*%
%ADD18O,1.100000X1.700000*%
%ADD19O,1.802000X1.802000*%
%ADD20C,0.100000*%
G04 APERTURE END LIST*
D10*
X145055071Y-109986656D03*
X149104886Y-102898078D03*
X127768885Y-108613078D03*
X128784885Y-106644578D03*
X127768885Y-104676078D03*
D11*
X199573857Y-69796734D03*
X209772879Y-65676062D03*
D12*
X207904513Y-62386426D03*
D13*
X204673368Y-67736398D03*
D14*
X201460954Y-73132730D03*
X206883547Y-73206783D03*
D12*
X202444459Y-62219654D03*
D15*
X143474365Y-127005398D03*
X143474365Y-122005398D03*
G36*
G01*
X134823365Y-131105398D02*
X134823365Y-129105398D01*
G75*
G02*
X134874365Y-129054398I51000J0D01*
G01*
X138074365Y-129054398D01*
G75*
G02*
X138125365Y-129105398I0J-51000D01*
G01*
X138125365Y-131105398D01*
G75*
G02*
X138074365Y-131156398I-51000J0D01*
G01*
X134874365Y-131156398D01*
G75*
G02*
X134823365Y-131105398I0J51000D01*
G01*
G37*
G36*
G01*
X134823365Y-119905398D02*
X134823365Y-117905398D01*
G75*
G02*
X134874365Y-117854398I51000J0D01*
G01*
X138074365Y-117854398D01*
G75*
G02*
X138125365Y-117905398I0J-51000D01*
G01*
X138125365Y-119905398D01*
G75*
G02*
X138074365Y-119956398I-51000J0D01*
G01*
X134874365Y-119956398D01*
G75*
G02*
X134823365Y-119905398I0J51000D01*
G01*
G37*
X128974365Y-127005398D03*
X128974365Y-124505398D03*
G36*
G01*
X127923365Y-123005398D02*
X127923365Y-121005398D01*
G75*
G02*
X127974365Y-120954398I51000J0D01*
G01*
X129974365Y-120954398D01*
G75*
G02*
X130025365Y-121005398I0J-51000D01*
G01*
X130025365Y-123005398D01*
G75*
G02*
X129974365Y-123056398I-51000J0D01*
G01*
X127974365Y-123056398D01*
G75*
G02*
X127923365Y-123005398I0J51000D01*
G01*
G37*
G36*
G01*
X133224868Y-89076399D02*
X133224868Y-87276399D01*
G75*
G02*
X133275868Y-87225399I51000J0D01*
G01*
X135375868Y-87225399D01*
G75*
G02*
X135426868Y-87276399I0J-51000D01*
G01*
X135426868Y-89076399D01*
G75*
G02*
X135375868Y-89127399I-51000J0D01*
G01*
X133275868Y-89127399D01*
G75*
G02*
X133224868Y-89076399I0J51000D01*
G01*
G37*
G36*
G01*
X136124868Y-89076399D02*
X136124868Y-87276399D01*
G75*
G02*
X136175868Y-87225399I51000J0D01*
G01*
X138275868Y-87225399D01*
G75*
G02*
X138326868Y-87276399I0J-51000D01*
G01*
X138326868Y-89076399D01*
G75*
G02*
X138275868Y-89127399I-51000J0D01*
G01*
X136175868Y-89127399D01*
G75*
G02*
X136124868Y-89076399I0J51000D01*
G01*
G37*
G36*
G01*
X136124868Y-91376399D02*
X136124868Y-89576399D01*
G75*
G02*
X136175868Y-89525399I51000J0D01*
G01*
X138275868Y-89525399D01*
G75*
G02*
X138326868Y-89576399I0J-51000D01*
G01*
X138326868Y-91376399D01*
G75*
G02*
X138275868Y-91427399I-51000J0D01*
G01*
X136175868Y-91427399D01*
G75*
G02*
X136124868Y-91376399I0J51000D01*
G01*
G37*
G36*
G01*
X133224868Y-91376399D02*
X133224868Y-89576399D01*
G75*
G02*
X133275868Y-89525399I51000J0D01*
G01*
X135375868Y-89525399D01*
G75*
G02*
X135426868Y-89576399I0J-51000D01*
G01*
X135426868Y-91376399D01*
G75*
G02*
X135375868Y-91427399I-51000J0D01*
G01*
X133275868Y-91427399D01*
G75*
G02*
X133224868Y-91376399I0J51000D01*
G01*
G37*
G36*
G01*
X133599365Y-62514399D02*
X133599365Y-63964399D01*
G75*
G02*
X133549365Y-64014399I-50000J0D01*
G01*
X132949365Y-64014399D01*
G75*
G02*
X132899365Y-63964399I0J50000D01*
G01*
X132899365Y-62514399D01*
G75*
G02*
X132949365Y-62464399I50000J0D01*
G01*
X133549365Y-62464399D01*
G75*
G02*
X133599365Y-62514399I0J-50000D01*
G01*
G37*
G36*
G01*
X140049365Y-62514399D02*
X140049365Y-63964399D01*
G75*
G02*
X139999365Y-64014399I-50000J0D01*
G01*
X139399365Y-64014399D01*
G75*
G02*
X139349365Y-63964399I0J50000D01*
G01*
X139349365Y-62514399D01*
G75*
G02*
X139399365Y-62464399I50000J0D01*
G01*
X139999365Y-62464399D01*
G75*
G02*
X140049365Y-62514399I0J-50000D01*
G01*
G37*
G36*
G01*
X134374365Y-62514399D02*
X134374365Y-63964399D01*
G75*
G02*
X134324365Y-64014399I-50000J0D01*
G01*
X133724365Y-64014399D01*
G75*
G02*
X133674365Y-63964399I0J50000D01*
G01*
X133674365Y-62514399D01*
G75*
G02*
X133724365Y-62464399I50000J0D01*
G01*
X134324365Y-62464399D01*
G75*
G02*
X134374365Y-62514399I0J-50000D01*
G01*
G37*
G36*
G01*
X139274365Y-62514399D02*
X139274365Y-63964399D01*
G75*
G02*
X139224365Y-64014399I-50000J0D01*
G01*
X138624365Y-64014399D01*
G75*
G02*
X138574365Y-63964399I0J50000D01*
G01*
X138574365Y-62514399D01*
G75*
G02*
X138624365Y-62464399I50000J0D01*
G01*
X139224365Y-62464399D01*
G75*
G02*
X139274365Y-62514399I0J-50000D01*
G01*
G37*
G36*
G01*
X138424365Y-62514399D02*
X138424365Y-63964399D01*
G75*
G02*
X138374365Y-64014399I-50000J0D01*
G01*
X138074365Y-64014399D01*
G75*
G02*
X138024365Y-63964399I0J50000D01*
G01*
X138024365Y-62514399D01*
G75*
G02*
X138074365Y-62464399I50000J0D01*
G01*
X138374365Y-62464399D01*
G75*
G02*
X138424365Y-62514399I0J-50000D01*
G01*
G37*
G36*
G01*
X134924365Y-62514399D02*
X134924365Y-63964399D01*
G75*
G02*
X134874365Y-64014399I-50000J0D01*
G01*
X134574365Y-64014399D01*
G75*
G02*
X134524365Y-63964399I0J50000D01*
G01*
X134524365Y-62514399D01*
G75*
G02*
X134574365Y-62464399I50000J0D01*
G01*
X134874365Y-62464399D01*
G75*
G02*
X134924365Y-62514399I0J-50000D01*
G01*
G37*
G36*
G01*
X137924365Y-62514399D02*
X137924365Y-63964399D01*
G75*
G02*
X137874365Y-64014399I-50000J0D01*
G01*
X137574365Y-64014399D01*
G75*
G02*
X137524365Y-63964399I0J50000D01*
G01*
X137524365Y-62514399D01*
G75*
G02*
X137574365Y-62464399I50000J0D01*
G01*
X137874365Y-62464399D01*
G75*
G02*
X137924365Y-62514399I0J-50000D01*
G01*
G37*
G36*
G01*
X135424365Y-62514399D02*
X135424365Y-63964399D01*
G75*
G02*
X135374365Y-64014399I-50000J0D01*
G01*
X135074365Y-64014399D01*
G75*
G02*
X135024365Y-63964399I0J50000D01*
G01*
X135024365Y-62514399D01*
G75*
G02*
X135074365Y-62464399I50000J0D01*
G01*
X135374365Y-62464399D01*
G75*
G02*
X135424365Y-62514399I0J-50000D01*
G01*
G37*
G36*
G01*
X137424365Y-62514399D02*
X137424365Y-63964399D01*
G75*
G02*
X137374365Y-64014399I-50000J0D01*
G01*
X137074365Y-64014399D01*
G75*
G02*
X137024365Y-63964399I0J50000D01*
G01*
X137024365Y-62514399D01*
G75*
G02*
X137074365Y-62464399I50000J0D01*
G01*
X137374365Y-62464399D01*
G75*
G02*
X137424365Y-62514399I0J-50000D01*
G01*
G37*
G36*
G01*
X135924365Y-62514399D02*
X135924365Y-63964399D01*
G75*
G02*
X135874365Y-64014399I-50000J0D01*
G01*
X135574365Y-64014399D01*
G75*
G02*
X135524365Y-63964399I0J50000D01*
G01*
X135524365Y-62514399D01*
G75*
G02*
X135574365Y-62464399I50000J0D01*
G01*
X135874365Y-62464399D01*
G75*
G02*
X135924365Y-62514399I0J-50000D01*
G01*
G37*
G36*
G01*
X136424365Y-62514399D02*
X136424365Y-63964399D01*
G75*
G02*
X136374365Y-64014399I-50000J0D01*
G01*
X136074365Y-64014399D01*
G75*
G02*
X136024365Y-63964399I0J50000D01*
G01*
X136024365Y-62514399D01*
G75*
G02*
X136074365Y-62464399I50000J0D01*
G01*
X136374365Y-62464399D01*
G75*
G02*
X136424365Y-62514399I0J-50000D01*
G01*
G37*
G36*
G01*
X136924365Y-62514399D02*
X136924365Y-63964399D01*
G75*
G02*
X136874365Y-64014399I-50000J0D01*
G01*
X136574365Y-64014399D01*
G75*
G02*
X136524365Y-63964399I0J50000D01*
G01*
X136524365Y-62514399D01*
G75*
G02*
X136574365Y-62464399I50000J0D01*
G01*
X136874365Y-62464399D01*
G75*
G02*
X136924365Y-62514399I0J-50000D01*
G01*
G37*
D16*
X133584365Y-61794399D03*
X139364365Y-61794399D03*
D17*
X140794365Y-62324399D03*
X132154365Y-62324399D03*
D18*
X140794365Y-58144399D03*
X132154365Y-58144399D03*
G36*
G01*
X140389865Y-108957399D02*
X140939865Y-108957399D01*
G75*
G02*
X140990865Y-109008399I0J-51000D01*
G01*
X140990865Y-110508399D01*
G75*
G02*
X140939865Y-110559399I-51000J0D01*
G01*
X140389865Y-110559399D01*
G75*
G02*
X140338865Y-110508399I0J51000D01*
G01*
X140338865Y-109008399D01*
G75*
G02*
X140389865Y-108957399I51000J0D01*
G01*
G37*
G36*
G01*
X139589865Y-108957399D02*
X140139865Y-108957399D01*
G75*
G02*
X140190865Y-109008399I0J-51000D01*
G01*
X140190865Y-110508399D01*
G75*
G02*
X140139865Y-110559399I-51000J0D01*
G01*
X139589865Y-110559399D01*
G75*
G02*
X139538865Y-110508399I0J51000D01*
G01*
X139538865Y-109008399D01*
G75*
G02*
X139589865Y-108957399I51000J0D01*
G01*
G37*
G36*
G01*
X138789865Y-108957399D02*
X139339865Y-108957399D01*
G75*
G02*
X139390865Y-109008399I0J-51000D01*
G01*
X139390865Y-110508399D01*
G75*
G02*
X139339865Y-110559399I-51000J0D01*
G01*
X138789865Y-110559399D01*
G75*
G02*
X138738865Y-110508399I0J51000D01*
G01*
X138738865Y-109008399D01*
G75*
G02*
X138789865Y-108957399I51000J0D01*
G01*
G37*
G36*
G01*
X137989865Y-108957399D02*
X138539865Y-108957399D01*
G75*
G02*
X138590865Y-109008399I0J-51000D01*
G01*
X138590865Y-110508399D01*
G75*
G02*
X138539865Y-110559399I-51000J0D01*
G01*
X137989865Y-110559399D01*
G75*
G02*
X137938865Y-110508399I0J51000D01*
G01*
X137938865Y-109008399D01*
G75*
G02*
X137989865Y-108957399I51000J0D01*
G01*
G37*
G36*
G01*
X137189865Y-108957399D02*
X137739865Y-108957399D01*
G75*
G02*
X137790865Y-109008399I0J-51000D01*
G01*
X137790865Y-110508399D01*
G75*
G02*
X137739865Y-110559399I-51000J0D01*
G01*
X137189865Y-110559399D01*
G75*
G02*
X137138865Y-110508399I0J51000D01*
G01*
X137138865Y-109008399D01*
G75*
G02*
X137189865Y-108957399I51000J0D01*
G01*
G37*
G36*
G01*
X136389865Y-108957399D02*
X136939865Y-108957399D01*
G75*
G02*
X136990865Y-109008399I0J-51000D01*
G01*
X136990865Y-110508399D01*
G75*
G02*
X136939865Y-110559399I-51000J0D01*
G01*
X136389865Y-110559399D01*
G75*
G02*
X136338865Y-110508399I0J51000D01*
G01*
X136338865Y-109008399D01*
G75*
G02*
X136389865Y-108957399I51000J0D01*
G01*
G37*
G36*
G01*
X135589865Y-108957399D02*
X136139865Y-108957399D01*
G75*
G02*
X136190865Y-109008399I0J-51000D01*
G01*
X136190865Y-110508399D01*
G75*
G02*
X136139865Y-110559399I-51000J0D01*
G01*
X135589865Y-110559399D01*
G75*
G02*
X135538865Y-110508399I0J51000D01*
G01*
X135538865Y-109008399D01*
G75*
G02*
X135589865Y-108957399I51000J0D01*
G01*
G37*
G36*
G01*
X134789865Y-108957399D02*
X135339865Y-108957399D01*
G75*
G02*
X135390865Y-109008399I0J-51000D01*
G01*
X135390865Y-110508399D01*
G75*
G02*
X135339865Y-110559399I-51000J0D01*
G01*
X134789865Y-110559399D01*
G75*
G02*
X134738865Y-110508399I0J51000D01*
G01*
X134738865Y-109008399D01*
G75*
G02*
X134789865Y-108957399I51000J0D01*
G01*
G37*
G36*
G01*
X133989865Y-108957399D02*
X134539865Y-108957399D01*
G75*
G02*
X134590865Y-109008399I0J-51000D01*
G01*
X134590865Y-110508399D01*
G75*
G02*
X134539865Y-110559399I-51000J0D01*
G01*
X133989865Y-110559399D01*
G75*
G02*
X133938865Y-110508399I0J51000D01*
G01*
X133938865Y-109008399D01*
G75*
G02*
X133989865Y-108957399I51000J0D01*
G01*
G37*
G36*
G01*
X133189865Y-108957399D02*
X133739865Y-108957399D01*
G75*
G02*
X133790865Y-109008399I0J-51000D01*
G01*
X133790865Y-110508399D01*
G75*
G02*
X133739865Y-110559399I-51000J0D01*
G01*
X133189865Y-110559399D01*
G75*
G02*
X133138865Y-110508399I0J51000D01*
G01*
X133138865Y-109008399D01*
G75*
G02*
X133189865Y-108957399I51000J0D01*
G01*
G37*
G36*
G01*
X132389865Y-108957399D02*
X132939865Y-108957399D01*
G75*
G02*
X132990865Y-109008399I0J-51000D01*
G01*
X132990865Y-110508399D01*
G75*
G02*
X132939865Y-110559399I-51000J0D01*
G01*
X132389865Y-110559399D01*
G75*
G02*
X132338865Y-110508399I0J51000D01*
G01*
X132338865Y-109008399D01*
G75*
G02*
X132389865Y-108957399I51000J0D01*
G01*
G37*
G36*
G01*
X131765865Y-107783399D02*
X131765865Y-108333399D01*
G75*
G02*
X131714865Y-108384399I-51000J0D01*
G01*
X130214865Y-108384399D01*
G75*
G02*
X130163865Y-108333399I0J51000D01*
G01*
X130163865Y-107783399D01*
G75*
G02*
X130214865Y-107732399I51000J0D01*
G01*
X131714865Y-107732399D01*
G75*
G02*
X131765865Y-107783399I0J-51000D01*
G01*
G37*
G36*
G01*
X131765865Y-106983399D02*
X131765865Y-107533399D01*
G75*
G02*
X131714865Y-107584399I-51000J0D01*
G01*
X130214865Y-107584399D01*
G75*
G02*
X130163865Y-107533399I0J51000D01*
G01*
X130163865Y-106983399D01*
G75*
G02*
X130214865Y-106932399I51000J0D01*
G01*
X131714865Y-106932399D01*
G75*
G02*
X131765865Y-106983399I0J-51000D01*
G01*
G37*
G36*
G01*
X131765865Y-106183399D02*
X131765865Y-106733399D01*
G75*
G02*
X131714865Y-106784399I-51000J0D01*
G01*
X130214865Y-106784399D01*
G75*
G02*
X130163865Y-106733399I0J51000D01*
G01*
X130163865Y-106183399D01*
G75*
G02*
X130214865Y-106132399I51000J0D01*
G01*
X131714865Y-106132399D01*
G75*
G02*
X131765865Y-106183399I0J-51000D01*
G01*
G37*
G36*
G01*
X131765865Y-105383399D02*
X131765865Y-105933399D01*
G75*
G02*
X131714865Y-105984399I-51000J0D01*
G01*
X130214865Y-105984399D01*
G75*
G02*
X130163865Y-105933399I0J51000D01*
G01*
X130163865Y-105383399D01*
G75*
G02*
X130214865Y-105332399I51000J0D01*
G01*
X131714865Y-105332399D01*
G75*
G02*
X131765865Y-105383399I0J-51000D01*
G01*
G37*
G36*
G01*
X131765865Y-104583399D02*
X131765865Y-105133399D01*
G75*
G02*
X131714865Y-105184399I-51000J0D01*
G01*
X130214865Y-105184399D01*
G75*
G02*
X130163865Y-105133399I0J51000D01*
G01*
X130163865Y-104583399D01*
G75*
G02*
X130214865Y-104532399I51000J0D01*
G01*
X131714865Y-104532399D01*
G75*
G02*
X131765865Y-104583399I0J-51000D01*
G01*
G37*
G36*
G01*
X131765865Y-103783399D02*
X131765865Y-104333399D01*
G75*
G02*
X131714865Y-104384399I-51000J0D01*
G01*
X130214865Y-104384399D01*
G75*
G02*
X130163865Y-104333399I0J51000D01*
G01*
X130163865Y-103783399D01*
G75*
G02*
X130214865Y-103732399I51000J0D01*
G01*
X131714865Y-103732399D01*
G75*
G02*
X131765865Y-103783399I0J-51000D01*
G01*
G37*
G36*
G01*
X131765865Y-102983399D02*
X131765865Y-103533399D01*
G75*
G02*
X131714865Y-103584399I-51000J0D01*
G01*
X130214865Y-103584399D01*
G75*
G02*
X130163865Y-103533399I0J51000D01*
G01*
X130163865Y-102983399D01*
G75*
G02*
X130214865Y-102932399I51000J0D01*
G01*
X131714865Y-102932399D01*
G75*
G02*
X131765865Y-102983399I0J-51000D01*
G01*
G37*
G36*
G01*
X131765865Y-102183399D02*
X131765865Y-102733399D01*
G75*
G02*
X131714865Y-102784399I-51000J0D01*
G01*
X130214865Y-102784399D01*
G75*
G02*
X130163865Y-102733399I0J51000D01*
G01*
X130163865Y-102183399D01*
G75*
G02*
X130214865Y-102132399I51000J0D01*
G01*
X131714865Y-102132399D01*
G75*
G02*
X131765865Y-102183399I0J-51000D01*
G01*
G37*
G36*
G01*
X131765865Y-101383399D02*
X131765865Y-101933399D01*
G75*
G02*
X131714865Y-101984399I-51000J0D01*
G01*
X130214865Y-101984399D01*
G75*
G02*
X130163865Y-101933399I0J51000D01*
G01*
X130163865Y-101383399D01*
G75*
G02*
X130214865Y-101332399I51000J0D01*
G01*
X131714865Y-101332399D01*
G75*
G02*
X131765865Y-101383399I0J-51000D01*
G01*
G37*
G36*
G01*
X131765865Y-100583399D02*
X131765865Y-101133399D01*
G75*
G02*
X131714865Y-101184399I-51000J0D01*
G01*
X130214865Y-101184399D01*
G75*
G02*
X130163865Y-101133399I0J51000D01*
G01*
X130163865Y-100583399D01*
G75*
G02*
X130214865Y-100532399I51000J0D01*
G01*
X131714865Y-100532399D01*
G75*
G02*
X131765865Y-100583399I0J-51000D01*
G01*
G37*
G36*
G01*
X131765865Y-99783399D02*
X131765865Y-100333399D01*
G75*
G02*
X131714865Y-100384399I-51000J0D01*
G01*
X130214865Y-100384399D01*
G75*
G02*
X130163865Y-100333399I0J51000D01*
G01*
X130163865Y-99783399D01*
G75*
G02*
X130214865Y-99732399I51000J0D01*
G01*
X131714865Y-99732399D01*
G75*
G02*
X131765865Y-99783399I0J-51000D01*
G01*
G37*
G36*
G01*
X132389865Y-97557399D02*
X132939865Y-97557399D01*
G75*
G02*
X132990865Y-97608399I0J-51000D01*
G01*
X132990865Y-99108399D01*
G75*
G02*
X132939865Y-99159399I-51000J0D01*
G01*
X132389865Y-99159399D01*
G75*
G02*
X132338865Y-99108399I0J51000D01*
G01*
X132338865Y-97608399D01*
G75*
G02*
X132389865Y-97557399I51000J0D01*
G01*
G37*
G36*
G01*
X133189865Y-97557399D02*
X133739865Y-97557399D01*
G75*
G02*
X133790865Y-97608399I0J-51000D01*
G01*
X133790865Y-99108399D01*
G75*
G02*
X133739865Y-99159399I-51000J0D01*
G01*
X133189865Y-99159399D01*
G75*
G02*
X133138865Y-99108399I0J51000D01*
G01*
X133138865Y-97608399D01*
G75*
G02*
X133189865Y-97557399I51000J0D01*
G01*
G37*
G36*
G01*
X133989865Y-97557399D02*
X134539865Y-97557399D01*
G75*
G02*
X134590865Y-97608399I0J-51000D01*
G01*
X134590865Y-99108399D01*
G75*
G02*
X134539865Y-99159399I-51000J0D01*
G01*
X133989865Y-99159399D01*
G75*
G02*
X133938865Y-99108399I0J51000D01*
G01*
X133938865Y-97608399D01*
G75*
G02*
X133989865Y-97557399I51000J0D01*
G01*
G37*
G36*
G01*
X134789865Y-97557399D02*
X135339865Y-97557399D01*
G75*
G02*
X135390865Y-97608399I0J-51000D01*
G01*
X135390865Y-99108399D01*
G75*
G02*
X135339865Y-99159399I-51000J0D01*
G01*
X134789865Y-99159399D01*
G75*
G02*
X134738865Y-99108399I0J51000D01*
G01*
X134738865Y-97608399D01*
G75*
G02*
X134789865Y-97557399I51000J0D01*
G01*
G37*
G36*
G01*
X135589865Y-97557399D02*
X136139865Y-97557399D01*
G75*
G02*
X136190865Y-97608399I0J-51000D01*
G01*
X136190865Y-99108399D01*
G75*
G02*
X136139865Y-99159399I-51000J0D01*
G01*
X135589865Y-99159399D01*
G75*
G02*
X135538865Y-99108399I0J51000D01*
G01*
X135538865Y-97608399D01*
G75*
G02*
X135589865Y-97557399I51000J0D01*
G01*
G37*
G36*
G01*
X136389865Y-97557399D02*
X136939865Y-97557399D01*
G75*
G02*
X136990865Y-97608399I0J-51000D01*
G01*
X136990865Y-99108399D01*
G75*
G02*
X136939865Y-99159399I-51000J0D01*
G01*
X136389865Y-99159399D01*
G75*
G02*
X136338865Y-99108399I0J51000D01*
G01*
X136338865Y-97608399D01*
G75*
G02*
X136389865Y-97557399I51000J0D01*
G01*
G37*
G36*
G01*
X137189865Y-97557399D02*
X137739865Y-97557399D01*
G75*
G02*
X137790865Y-97608399I0J-51000D01*
G01*
X137790865Y-99108399D01*
G75*
G02*
X137739865Y-99159399I-51000J0D01*
G01*
X137189865Y-99159399D01*
G75*
G02*
X137138865Y-99108399I0J51000D01*
G01*
X137138865Y-97608399D01*
G75*
G02*
X137189865Y-97557399I51000J0D01*
G01*
G37*
G36*
G01*
X137989865Y-97557399D02*
X138539865Y-97557399D01*
G75*
G02*
X138590865Y-97608399I0J-51000D01*
G01*
X138590865Y-99108399D01*
G75*
G02*
X138539865Y-99159399I-51000J0D01*
G01*
X137989865Y-99159399D01*
G75*
G02*
X137938865Y-99108399I0J51000D01*
G01*
X137938865Y-97608399D01*
G75*
G02*
X137989865Y-97557399I51000J0D01*
G01*
G37*
G36*
G01*
X138789865Y-97557399D02*
X139339865Y-97557399D01*
G75*
G02*
X139390865Y-97608399I0J-51000D01*
G01*
X139390865Y-99108399D01*
G75*
G02*
X139339865Y-99159399I-51000J0D01*
G01*
X138789865Y-99159399D01*
G75*
G02*
X138738865Y-99108399I0J51000D01*
G01*
X138738865Y-97608399D01*
G75*
G02*
X138789865Y-97557399I51000J0D01*
G01*
G37*
G36*
G01*
X139589865Y-97557399D02*
X140139865Y-97557399D01*
G75*
G02*
X140190865Y-97608399I0J-51000D01*
G01*
X140190865Y-99108399D01*
G75*
G02*
X140139865Y-99159399I-51000J0D01*
G01*
X139589865Y-99159399D01*
G75*
G02*
X139538865Y-99108399I0J51000D01*
G01*
X139538865Y-97608399D01*
G75*
G02*
X139589865Y-97557399I51000J0D01*
G01*
G37*
G36*
G01*
X140389865Y-97557399D02*
X140939865Y-97557399D01*
G75*
G02*
X140990865Y-97608399I0J-51000D01*
G01*
X140990865Y-99108399D01*
G75*
G02*
X140939865Y-99159399I-51000J0D01*
G01*
X140389865Y-99159399D01*
G75*
G02*
X140338865Y-99108399I0J51000D01*
G01*
X140338865Y-97608399D01*
G75*
G02*
X140389865Y-97557399I51000J0D01*
G01*
G37*
G36*
G01*
X143165865Y-99783399D02*
X143165865Y-100333399D01*
G75*
G02*
X143114865Y-100384399I-51000J0D01*
G01*
X141614865Y-100384399D01*
G75*
G02*
X141563865Y-100333399I0J51000D01*
G01*
X141563865Y-99783399D01*
G75*
G02*
X141614865Y-99732399I51000J0D01*
G01*
X143114865Y-99732399D01*
G75*
G02*
X143165865Y-99783399I0J-51000D01*
G01*
G37*
G36*
G01*
X143165865Y-100583399D02*
X143165865Y-101133399D01*
G75*
G02*
X143114865Y-101184399I-51000J0D01*
G01*
X141614865Y-101184399D01*
G75*
G02*
X141563865Y-101133399I0J51000D01*
G01*
X141563865Y-100583399D01*
G75*
G02*
X141614865Y-100532399I51000J0D01*
G01*
X143114865Y-100532399D01*
G75*
G02*
X143165865Y-100583399I0J-51000D01*
G01*
G37*
G36*
G01*
X143165865Y-101383399D02*
X143165865Y-101933399D01*
G75*
G02*
X143114865Y-101984399I-51000J0D01*
G01*
X141614865Y-101984399D01*
G75*
G02*
X141563865Y-101933399I0J51000D01*
G01*
X141563865Y-101383399D01*
G75*
G02*
X141614865Y-101332399I51000J0D01*
G01*
X143114865Y-101332399D01*
G75*
G02*
X143165865Y-101383399I0J-51000D01*
G01*
G37*
G36*
G01*
X143165865Y-102183399D02*
X143165865Y-102733399D01*
G75*
G02*
X143114865Y-102784399I-51000J0D01*
G01*
X141614865Y-102784399D01*
G75*
G02*
X141563865Y-102733399I0J51000D01*
G01*
X141563865Y-102183399D01*
G75*
G02*
X141614865Y-102132399I51000J0D01*
G01*
X143114865Y-102132399D01*
G75*
G02*
X143165865Y-102183399I0J-51000D01*
G01*
G37*
G36*
G01*
X143165865Y-102983399D02*
X143165865Y-103533399D01*
G75*
G02*
X143114865Y-103584399I-51000J0D01*
G01*
X141614865Y-103584399D01*
G75*
G02*
X141563865Y-103533399I0J51000D01*
G01*
X141563865Y-102983399D01*
G75*
G02*
X141614865Y-102932399I51000J0D01*
G01*
X143114865Y-102932399D01*
G75*
G02*
X143165865Y-102983399I0J-51000D01*
G01*
G37*
G36*
G01*
X143165865Y-103783399D02*
X143165865Y-104333399D01*
G75*
G02*
X143114865Y-104384399I-51000J0D01*
G01*
X141614865Y-104384399D01*
G75*
G02*
X141563865Y-104333399I0J51000D01*
G01*
X141563865Y-103783399D01*
G75*
G02*
X141614865Y-103732399I51000J0D01*
G01*
X143114865Y-103732399D01*
G75*
G02*
X143165865Y-103783399I0J-51000D01*
G01*
G37*
G36*
G01*
X143165865Y-104583399D02*
X143165865Y-105133399D01*
G75*
G02*
X143114865Y-105184399I-51000J0D01*
G01*
X141614865Y-105184399D01*
G75*
G02*
X141563865Y-105133399I0J51000D01*
G01*
X141563865Y-104583399D01*
G75*
G02*
X141614865Y-104532399I51000J0D01*
G01*
X143114865Y-104532399D01*
G75*
G02*
X143165865Y-104583399I0J-51000D01*
G01*
G37*
G36*
G01*
X143165865Y-105383399D02*
X143165865Y-105933399D01*
G75*
G02*
X143114865Y-105984399I-51000J0D01*
G01*
X141614865Y-105984399D01*
G75*
G02*
X141563865Y-105933399I0J51000D01*
G01*
X141563865Y-105383399D01*
G75*
G02*
X141614865Y-105332399I51000J0D01*
G01*
X143114865Y-105332399D01*
G75*
G02*
X143165865Y-105383399I0J-51000D01*
G01*
G37*
G36*
G01*
X143165865Y-106183399D02*
X143165865Y-106733399D01*
G75*
G02*
X143114865Y-106784399I-51000J0D01*
G01*
X141614865Y-106784399D01*
G75*
G02*
X141563865Y-106733399I0J51000D01*
G01*
X141563865Y-106183399D01*
G75*
G02*
X141614865Y-106132399I51000J0D01*
G01*
X143114865Y-106132399D01*
G75*
G02*
X143165865Y-106183399I0J-51000D01*
G01*
G37*
G36*
G01*
X143165865Y-106983399D02*
X143165865Y-107533399D01*
G75*
G02*
X143114865Y-107584399I-51000J0D01*
G01*
X141614865Y-107584399D01*
G75*
G02*
X141563865Y-107533399I0J51000D01*
G01*
X141563865Y-106983399D01*
G75*
G02*
X141614865Y-106932399I51000J0D01*
G01*
X143114865Y-106932399D01*
G75*
G02*
X143165865Y-106983399I0J-51000D01*
G01*
G37*
G36*
G01*
X143165865Y-107783399D02*
X143165865Y-108333399D01*
G75*
G02*
X143114865Y-108384399I-51000J0D01*
G01*
X141614865Y-108384399D01*
G75*
G02*
X141563865Y-108333399I0J51000D01*
G01*
X141563865Y-107783399D01*
G75*
G02*
X141614865Y-107732399I51000J0D01*
G01*
X143114865Y-107732399D01*
G75*
G02*
X143165865Y-107783399I0J-51000D01*
G01*
G37*
G36*
G01*
X135824362Y-80339400D02*
X135124362Y-80339400D01*
G75*
G02*
X135074362Y-80289400I0J50000D01*
G01*
X135074362Y-79689400D01*
G75*
G02*
X135124362Y-79639400I50000J0D01*
G01*
X135824362Y-79639400D01*
G75*
G02*
X135874362Y-79689400I0J-50000D01*
G01*
X135874362Y-80289400D01*
G75*
G02*
X135824362Y-80339400I-50000J0D01*
G01*
G37*
G36*
G01*
X135824362Y-78439400D02*
X135124362Y-78439400D01*
G75*
G02*
X135074362Y-78389400I0J50000D01*
G01*
X135074362Y-77789400D01*
G75*
G02*
X135124362Y-77739400I50000J0D01*
G01*
X135824362Y-77739400D01*
G75*
G02*
X135874362Y-77789400I0J-50000D01*
G01*
X135874362Y-78389400D01*
G75*
G02*
X135824362Y-78439400I-50000J0D01*
G01*
G37*
G36*
G01*
X137824362Y-78439400D02*
X137124362Y-78439400D01*
G75*
G02*
X137074362Y-78389400I0J50000D01*
G01*
X137074362Y-77789400D01*
G75*
G02*
X137124362Y-77739400I50000J0D01*
G01*
X137824362Y-77739400D01*
G75*
G02*
X137874362Y-77789400I0J-50000D01*
G01*
X137874362Y-78389400D01*
G75*
G02*
X137824362Y-78439400I-50000J0D01*
G01*
G37*
G36*
G01*
X137824362Y-80339400D02*
X137124362Y-80339400D01*
G75*
G02*
X137074362Y-80289400I0J50000D01*
G01*
X137074362Y-79289400D01*
G75*
G02*
X137124362Y-79239400I50000J0D01*
G01*
X137824362Y-79239400D01*
G75*
G02*
X137874362Y-79289400I0J-50000D01*
G01*
X137874362Y-80289400D01*
G75*
G02*
X137824362Y-80339400I-50000J0D01*
G01*
G37*
G36*
G01*
X106304942Y-121161487D02*
X105930335Y-122088671D01*
G75*
G02*
X105863944Y-122116852I-47286J19105D01*
G01*
X104287731Y-121480020D01*
G75*
G02*
X104259550Y-121413629I19105J47286D01*
G01*
X104634157Y-120486445D01*
G75*
G02*
X104700548Y-120458264I47286J-19105D01*
G01*
X106276761Y-121095096D01*
G75*
G02*
X106304942Y-121161487I-19105J-47286D01*
G01*
G37*
G36*
G01*
X100463683Y-118801466D02*
X100089076Y-119728650D01*
G75*
G02*
X100022685Y-119756831I-47286J19105D01*
G01*
X98446472Y-119119999D01*
G75*
G02*
X98418291Y-119053608I19105J47286D01*
G01*
X98792898Y-118126424D01*
G75*
G02*
X98859289Y-118098243I47286J-19105D01*
G01*
X100435502Y-118735075D01*
G75*
G02*
X100463683Y-118801466I-19105J-47286D01*
G01*
G37*
G36*
G01*
X107728447Y-117638188D02*
X107353840Y-118565372D01*
G75*
G02*
X107287449Y-118593553I-47286J19105D01*
G01*
X105711236Y-117956721D01*
G75*
G02*
X105683055Y-117890330I19105J47286D01*
G01*
X106057662Y-116963146D01*
G75*
G02*
X106124053Y-116934965I47286J-19105D01*
G01*
X107700266Y-117571797D01*
G75*
G02*
X107728447Y-117638188I-19105J-47286D01*
G01*
G37*
G36*
G01*
X101887188Y-115278167D02*
X101512581Y-116205351D01*
G75*
G02*
X101446190Y-116233532I-47286J19105D01*
G01*
X99869977Y-115596700D01*
G75*
G02*
X99841796Y-115530309I19105J47286D01*
G01*
X100216403Y-114603125D01*
G75*
G02*
X100282794Y-114574944I47286J-19105D01*
G01*
X101859007Y-115211776D01*
G75*
G02*
X101887188Y-115278167I-19105J-47286D01*
G01*
G37*
G36*
G01*
X129073213Y-111325577D02*
X128115557Y-111325577D01*
G75*
G02*
X127843385Y-111053405I0J272172D01*
G01*
X127843385Y-110345749D01*
G75*
G02*
X128115557Y-110073577I272172J0D01*
G01*
X129073213Y-110073577D01*
G75*
G02*
X129345385Y-110345749I0J-272172D01*
G01*
X129345385Y-111053405D01*
G75*
G02*
X129073213Y-111325577I-272172J0D01*
G01*
G37*
G36*
G01*
X129073213Y-113375577D02*
X128115557Y-113375577D01*
G75*
G02*
X127843385Y-113103405I0J272172D01*
G01*
X127843385Y-112395749D01*
G75*
G02*
X128115557Y-112123577I272172J0D01*
G01*
X129073213Y-112123577D01*
G75*
G02*
X129345385Y-112395749I0J-272172D01*
G01*
X129345385Y-113103405D01*
G75*
G02*
X129073213Y-113375577I-272172J0D01*
G01*
G37*
G36*
G01*
X138916537Y-79565400D02*
X139874193Y-79565400D01*
G75*
G02*
X140146365Y-79837572I0J-272172D01*
G01*
X140146365Y-80545228D01*
G75*
G02*
X139874193Y-80817400I-272172J0D01*
G01*
X138916537Y-80817400D01*
G75*
G02*
X138644365Y-80545228I0J272172D01*
G01*
X138644365Y-79837572D01*
G75*
G02*
X138916537Y-79565400I272172J0D01*
G01*
G37*
G36*
G01*
X138916537Y-77515400D02*
X139874193Y-77515400D01*
G75*
G02*
X140146365Y-77787572I0J-272172D01*
G01*
X140146365Y-78495228D01*
G75*
G02*
X139874193Y-78767400I-272172J0D01*
G01*
X138916537Y-78767400D01*
G75*
G02*
X138644365Y-78495228I0J272172D01*
G01*
X138644365Y-77787572D01*
G75*
G02*
X138916537Y-77515400I272172J0D01*
G01*
G37*
G36*
G01*
X134032197Y-78703895D02*
X133074541Y-78703895D01*
G75*
G02*
X132802369Y-78431723I0J272172D01*
G01*
X132802369Y-77724067D01*
G75*
G02*
X133074541Y-77451895I272172J0D01*
G01*
X134032197Y-77451895D01*
G75*
G02*
X134304369Y-77724067I0J-272172D01*
G01*
X134304369Y-78431723D01*
G75*
G02*
X134032197Y-78703895I-272172J0D01*
G01*
G37*
G36*
G01*
X134032197Y-80753895D02*
X133074541Y-80753895D01*
G75*
G02*
X132802369Y-80481723I0J272172D01*
G01*
X132802369Y-79774067D01*
G75*
G02*
X133074541Y-79501895I272172J0D01*
G01*
X134032197Y-79501895D01*
G75*
G02*
X134304369Y-79774067I0J-272172D01*
G01*
X134304369Y-80481723D01*
G75*
G02*
X134032197Y-80753895I-272172J0D01*
G01*
G37*
G36*
G01*
X134095694Y-67464401D02*
X133138038Y-67464401D01*
G75*
G02*
X132865866Y-67192229I0J272172D01*
G01*
X132865866Y-66484573D01*
G75*
G02*
X133138038Y-66212401I272172J0D01*
G01*
X134095694Y-66212401D01*
G75*
G02*
X134367866Y-66484573I0J-272172D01*
G01*
X134367866Y-67192229D01*
G75*
G02*
X134095694Y-67464401I-272172J0D01*
G01*
G37*
G36*
G01*
X134095694Y-69514401D02*
X133138038Y-69514401D01*
G75*
G02*
X132865866Y-69242229I0J272172D01*
G01*
X132865866Y-68534573D01*
G75*
G02*
X133138038Y-68262401I272172J0D01*
G01*
X134095694Y-68262401D01*
G75*
G02*
X134367866Y-68534573I0J-272172D01*
G01*
X134367866Y-69242229D01*
G75*
G02*
X134095694Y-69514401I-272172J0D01*
G01*
G37*
G36*
G01*
X138223193Y-66448399D02*
X137265537Y-66448399D01*
G75*
G02*
X136993365Y-66176227I0J272172D01*
G01*
X136993365Y-65468571D01*
G75*
G02*
X137265537Y-65196399I272172J0D01*
G01*
X138223193Y-65196399D01*
G75*
G02*
X138495365Y-65468571I0J-272172D01*
G01*
X138495365Y-66176227D01*
G75*
G02*
X138223193Y-66448399I-272172J0D01*
G01*
G37*
G36*
G01*
X138223193Y-68498399D02*
X137265537Y-68498399D01*
G75*
G02*
X136993365Y-68226227I0J272172D01*
G01*
X136993365Y-67518571D01*
G75*
G02*
X137265537Y-67246399I272172J0D01*
G01*
X138223193Y-67246399D01*
G75*
G02*
X138495365Y-67518571I0J-272172D01*
G01*
X138495365Y-68226227D01*
G75*
G02*
X138223193Y-68498399I-272172J0D01*
G01*
G37*
G36*
G01*
X108603469Y-120074901D02*
X109491392Y-120433646D01*
G75*
G02*
X109641788Y-120787956I-101957J-252353D01*
G01*
X109376695Y-121444083D01*
G75*
G02*
X109022385Y-121594479I-252353J101957D01*
G01*
X108134462Y-121235734D01*
G75*
G02*
X107984066Y-120881424I101957J252353D01*
G01*
X108249159Y-120225297D01*
G75*
G02*
X108603469Y-120074901I252353J-101957D01*
G01*
G37*
G36*
G01*
X109371413Y-118174175D02*
X110259336Y-118532920D01*
G75*
G02*
X110409732Y-118887230I-101957J-252353D01*
G01*
X110144639Y-119543357D01*
G75*
G02*
X109790329Y-119693753I-252353J101957D01*
G01*
X108902406Y-119335008D01*
G75*
G02*
X108752010Y-118980698I101957J252353D01*
G01*
X109017103Y-118324571D01*
G75*
G02*
X109371413Y-118174175I252353J-101957D01*
G01*
G37*
D19*
X142782841Y-114843411D03*
X145322841Y-114386211D03*
X147862841Y-114843411D03*
X150402841Y-114386211D03*
X152942841Y-114843411D03*
G36*
G01*
X154632841Y-113485211D02*
X156332841Y-113485211D01*
G75*
G02*
X156383841Y-113536211I0J-51000D01*
G01*
X156383841Y-115236211D01*
G75*
G02*
X156332841Y-115287211I-51000J0D01*
G01*
X154632841Y-115287211D01*
G75*
G02*
X154581841Y-115236211I0J51000D01*
G01*
X154581841Y-113536211D01*
G75*
G02*
X154632841Y-113485211I51000J0D01*
G01*
G37*
G36*
G01*
X139354975Y-72917894D02*
X138038763Y-72917894D01*
G75*
G02*
X137770869Y-72650000I0J267894D01*
G01*
X137770869Y-71658788D01*
G75*
G02*
X138038763Y-71390894I267894J0D01*
G01*
X139354975Y-71390894D01*
G75*
G02*
X139622869Y-71658788I0J-267894D01*
G01*
X139622869Y-72650000D01*
G75*
G02*
X139354975Y-72917894I-267894J0D01*
G01*
G37*
G36*
G01*
X139354975Y-75892894D02*
X138038763Y-75892894D01*
G75*
G02*
X137770869Y-75625000I0J267894D01*
G01*
X137770869Y-74633788D01*
G75*
G02*
X138038763Y-74365894I267894J0D01*
G01*
X139354975Y-74365894D01*
G75*
G02*
X139622869Y-74633788I0J-267894D01*
G01*
X139622869Y-75625000D01*
G75*
G02*
X139354975Y-75892894I-267894J0D01*
G01*
G37*
G36*
G01*
X140020573Y-111349328D02*
X140020573Y-112306984D01*
G75*
G02*
X139748401Y-112579156I-272172J0D01*
G01*
X139040745Y-112579156D01*
G75*
G02*
X138768573Y-112306984I0J272172D01*
G01*
X138768573Y-111349328D01*
G75*
G02*
X139040745Y-111077156I272172J0D01*
G01*
X139748401Y-111077156D01*
G75*
G02*
X140020573Y-111349328I0J-272172D01*
G01*
G37*
G36*
G01*
X142070573Y-111349328D02*
X142070573Y-112306984D01*
G75*
G02*
X141798401Y-112579156I-272172J0D01*
G01*
X141090745Y-112579156D01*
G75*
G02*
X140818573Y-112306984I0J272172D01*
G01*
X140818573Y-111349328D01*
G75*
G02*
X141090745Y-111077156I272172J0D01*
G01*
X141798401Y-111077156D01*
G75*
G02*
X142070573Y-111349328I0J-272172D01*
G01*
G37*
G36*
G01*
X129131131Y-99097503D02*
X128173475Y-99097503D01*
G75*
G02*
X127901303Y-98825331I0J272172D01*
G01*
X127901303Y-98117675D01*
G75*
G02*
X128173475Y-97845503I272172J0D01*
G01*
X129131131Y-97845503D01*
G75*
G02*
X129403303Y-98117675I0J-272172D01*
G01*
X129403303Y-98825331D01*
G75*
G02*
X129131131Y-99097503I-272172J0D01*
G01*
G37*
G36*
G01*
X129131131Y-101147503D02*
X128173475Y-101147503D01*
G75*
G02*
X127901303Y-100875331I0J272172D01*
G01*
X127901303Y-100167675D01*
G75*
G02*
X128173475Y-99895503I272172J0D01*
G01*
X129131131Y-99895503D01*
G75*
G02*
X129403303Y-100167675I0J-272172D01*
G01*
X129403303Y-100875331D01*
G75*
G02*
X129131131Y-101147503I-272172J0D01*
G01*
G37*
G36*
G01*
X148291803Y-108166830D02*
X148291803Y-107209174D01*
G75*
G02*
X148563975Y-106937002I272172J0D01*
G01*
X149271631Y-106937002D01*
G75*
G02*
X149543803Y-107209174I0J-272172D01*
G01*
X149543803Y-108166830D01*
G75*
G02*
X149271631Y-108439002I-272172J0D01*
G01*
X148563975Y-108439002D01*
G75*
G02*
X148291803Y-108166830I0J272172D01*
G01*
G37*
G36*
G01*
X146241803Y-108166830D02*
X146241803Y-107209174D01*
G75*
G02*
X146513975Y-106937002I272172J0D01*
G01*
X147221631Y-106937002D01*
G75*
G02*
X147493803Y-107209174I0J-272172D01*
G01*
X147493803Y-108166830D01*
G75*
G02*
X147221631Y-108439002I-272172J0D01*
G01*
X146513975Y-108439002D01*
G75*
G02*
X146241803Y-108166830I0J272172D01*
G01*
G37*
G36*
G01*
X132797803Y-112865829D02*
X132797803Y-111908173D01*
G75*
G02*
X133069975Y-111636001I272172J0D01*
G01*
X133777631Y-111636001D01*
G75*
G02*
X134049803Y-111908173I0J-272172D01*
G01*
X134049803Y-112865829D01*
G75*
G02*
X133777631Y-113138001I-272172J0D01*
G01*
X133069975Y-113138001D01*
G75*
G02*
X132797803Y-112865829I0J272172D01*
G01*
G37*
G36*
G01*
X130747803Y-112865829D02*
X130747803Y-111908173D01*
G75*
G02*
X131019975Y-111636001I272172J0D01*
G01*
X131727631Y-111636001D01*
G75*
G02*
X131999803Y-111908173I0J-272172D01*
G01*
X131999803Y-112865829D01*
G75*
G02*
X131727631Y-113138001I-272172J0D01*
G01*
X131019975Y-113138001D01*
G75*
G02*
X130747803Y-112865829I0J272172D01*
G01*
G37*
G36*
G01*
X143834385Y-104202405D02*
X143834385Y-103244749D01*
G75*
G02*
X144106557Y-102972577I272172J0D01*
G01*
X144814213Y-102972577D01*
G75*
G02*
X145086385Y-103244749I0J-272172D01*
G01*
X145086385Y-104202405D01*
G75*
G02*
X144814213Y-104474577I-272172J0D01*
G01*
X144106557Y-104474577D01*
G75*
G02*
X143834385Y-104202405I0J272172D01*
G01*
G37*
G36*
G01*
X145884385Y-104202405D02*
X145884385Y-103244749D01*
G75*
G02*
X146156557Y-102972577I272172J0D01*
G01*
X146864213Y-102972577D01*
G75*
G02*
X147136385Y-103244749I0J-272172D01*
G01*
X147136385Y-104202405D01*
G75*
G02*
X146864213Y-104474577I-272172J0D01*
G01*
X146156557Y-104474577D01*
G75*
G02*
X145884385Y-104202405I0J272172D01*
G01*
G37*
G36*
G01*
X139488039Y-89788899D02*
X140445695Y-89788899D01*
G75*
G02*
X140717867Y-90061071I0J-272172D01*
G01*
X140717867Y-90768727D01*
G75*
G02*
X140445695Y-91040899I-272172J0D01*
G01*
X139488039Y-91040899D01*
G75*
G02*
X139215867Y-90768727I0J272172D01*
G01*
X139215867Y-90061071D01*
G75*
G02*
X139488039Y-89788899I272172J0D01*
G01*
G37*
G36*
G01*
X139488039Y-87738899D02*
X140445695Y-87738899D01*
G75*
G02*
X140717867Y-88011071I0J-272172D01*
G01*
X140717867Y-88718727D01*
G75*
G02*
X140445695Y-88990899I-272172J0D01*
G01*
X139488039Y-88990899D01*
G75*
G02*
X139215867Y-88718727I0J272172D01*
G01*
X139215867Y-88011071D01*
G75*
G02*
X139488039Y-87738899I272172J0D01*
G01*
G37*
G36*
G01*
X131936698Y-88927398D02*
X130979042Y-88927398D01*
G75*
G02*
X130706870Y-88655226I0J272172D01*
G01*
X130706870Y-87947570D01*
G75*
G02*
X130979042Y-87675398I272172J0D01*
G01*
X131936698Y-87675398D01*
G75*
G02*
X132208870Y-87947570I0J-272172D01*
G01*
X132208870Y-88655226D01*
G75*
G02*
X131936698Y-88927398I-272172J0D01*
G01*
G37*
G36*
G01*
X131936698Y-90977398D02*
X130979042Y-90977398D01*
G75*
G02*
X130706870Y-90705226I0J272172D01*
G01*
X130706870Y-89997570D01*
G75*
G02*
X130979042Y-89725398I272172J0D01*
G01*
X131936698Y-89725398D01*
G75*
G02*
X132208870Y-89997570I0J-272172D01*
G01*
X132208870Y-90705226D01*
G75*
G02*
X131936698Y-90977398I-272172J0D01*
G01*
G37*
D11*
X182754874Y-127688383D03*
X191539864Y-121068417D03*
D12*
X188883740Y-118374442D03*
D13*
X187147369Y-124378400D03*
D14*
X185441089Y-130422290D03*
X190698078Y-129090350D03*
D12*
X183566570Y-119626519D03*
D11*
X165233935Y-139798332D03*
X172230795Y-131310462D03*
D12*
X169019164Y-129310981D03*
D13*
X168732365Y-135554397D03*
D14*
X168484147Y-141829617D03*
X173284950Y-139307258D03*
D12*
X164141199Y-131769732D03*
D11*
X100717939Y-131246965D03*
X107714799Y-139734835D03*
D12*
X110290352Y-136963730D03*
D13*
X104216369Y-135490900D03*
D14*
X98103804Y-134049874D03*
X99663784Y-139243761D03*
D12*
X108807535Y-131706235D03*
D11*
X81408870Y-121068414D03*
X90193860Y-127688380D03*
D12*
X92051349Y-124392589D03*
D13*
X85801365Y-124378397D03*
D14*
X79521290Y-124404137D03*
X82250656Y-129090347D03*
D12*
X89382164Y-119626516D03*
D11*
X224402355Y-83258733D03*
X234601377Y-79138061D03*
D12*
X232733011Y-75848425D03*
D13*
X229501866Y-81198397D03*
D14*
X226289452Y-86594729D03*
X231712045Y-86668782D03*
D12*
X227272957Y-75681653D03*
D11*
X205923854Y-85608236D03*
X216122876Y-81487564D03*
D12*
X214254510Y-78197928D03*
D13*
X211023365Y-83547900D03*
D14*
X207810951Y-88944232D03*
X213233544Y-89018285D03*
D12*
X208794456Y-78031156D03*
D11*
X188334356Y-90116734D03*
X198533378Y-85996062D03*
D12*
X196665012Y-82706426D03*
D13*
X193433867Y-88056398D03*
D14*
X190221453Y-93452730D03*
X195644046Y-93526783D03*
D12*
X191204958Y-82539654D03*
D11*
X172586355Y-99070238D03*
X182785377Y-94949566D03*
D12*
X180917011Y-91659930D03*
D13*
X177685866Y-97009902D03*
D14*
X174473452Y-102406234D03*
X179896045Y-102480287D03*
D12*
X175456957Y-91493158D03*
D11*
X156774856Y-108023733D03*
X166973878Y-103903061D03*
D12*
X165105512Y-100613425D03*
D13*
X161874367Y-105963397D03*
D14*
X158661953Y-111359729D03*
X164084546Y-111433782D03*
D12*
X159645458Y-100446653D03*
D11*
X106038359Y-103903062D03*
X116237381Y-108023734D03*
D12*
X117178564Y-104359492D03*
D13*
X111137870Y-105963398D03*
D14*
X105078446Y-107613664D03*
X108927691Y-111433783D03*
D12*
X113366779Y-100446654D03*
D11*
X90226857Y-94949560D03*
X100425879Y-99070232D03*
D12*
X101367062Y-95405990D03*
D13*
X95326368Y-97009896D03*
D14*
X89266944Y-98660162D03*
X93116189Y-102480281D03*
D12*
X97555277Y-91493152D03*
D11*
X74415357Y-85996061D03*
X84614379Y-90116733D03*
D12*
X85555562Y-86452491D03*
D13*
X79514868Y-88056397D03*
D14*
X73455444Y-89706663D03*
X77304689Y-93526782D03*
D12*
X81743777Y-82539653D03*
D11*
X56825860Y-81487564D03*
X67024882Y-85608236D03*
D12*
X67966065Y-81943994D03*
D13*
X61925371Y-83547900D03*
D14*
X55865947Y-85198166D03*
X59715192Y-89018285D03*
D12*
X64154280Y-78031156D03*
D11*
X38347353Y-79138067D03*
X48546375Y-83258739D03*
D12*
X49487558Y-79594497D03*
D13*
X43446864Y-81198403D03*
D14*
X37387440Y-82848669D03*
X41236685Y-86668788D03*
D12*
X45675773Y-75681659D03*
D11*
X218052357Y-67510732D03*
X228251379Y-63390060D03*
D12*
X226383013Y-60100424D03*
D13*
X223151868Y-65450396D03*
D14*
X219939454Y-70846728D03*
X225362047Y-70920781D03*
D12*
X220922959Y-59933652D03*
D11*
X181984356Y-74368735D03*
X192183378Y-70248063D03*
D12*
X190315012Y-66958427D03*
D13*
X187083867Y-72308399D03*
D14*
X183871453Y-77704731D03*
X189294046Y-77778784D03*
D12*
X184854958Y-66791655D03*
D11*
X166236356Y-83322237D03*
X176435378Y-79201565D03*
D12*
X174567012Y-75911929D03*
D13*
X171335867Y-81261901D03*
D14*
X168123453Y-86658233D03*
X173546046Y-86732286D03*
D12*
X169106958Y-75745157D03*
D11*
X150361352Y-92212237D03*
X160560374Y-88091565D03*
D12*
X158692008Y-84801929D03*
D13*
X155460863Y-90151901D03*
D14*
X152248449Y-95548233D03*
X157671042Y-95622286D03*
D12*
X153231954Y-84635157D03*
D11*
X112388356Y-88155066D03*
X122587378Y-92275738D03*
D12*
X123528561Y-88611496D03*
D13*
X117487867Y-90215402D03*
D14*
X111428443Y-91865668D03*
X115277688Y-95685787D03*
D12*
X119716776Y-84698658D03*
D11*
X96576855Y-79201564D03*
X106775877Y-83322236D03*
D12*
X107717060Y-79657994D03*
D13*
X101676366Y-81261900D03*
D14*
X95616942Y-82912166D03*
X99466187Y-86732285D03*
D12*
X103905275Y-75745156D03*
D11*
X80828856Y-70248061D03*
X91027878Y-74368733D03*
D12*
X91969061Y-70704491D03*
D13*
X85928367Y-72308397D03*
D14*
X79868943Y-73958663D03*
X83718188Y-77778782D03*
D12*
X88157276Y-66791653D03*
D11*
X63239356Y-65676061D03*
X73438378Y-69796733D03*
D12*
X74379561Y-66132491D03*
D13*
X68338867Y-67736397D03*
D14*
X62279443Y-69386663D03*
X66128688Y-73206782D03*
D12*
X70567776Y-62219653D03*
D11*
X44760854Y-63390063D03*
X54959876Y-67510735D03*
D12*
X55901059Y-63846493D03*
D13*
X49860365Y-65450399D03*
D14*
X43800941Y-67100665D03*
X47650186Y-70920784D03*
D12*
X52089274Y-59933655D03*
D11*
X211702354Y-51699232D03*
X221901376Y-47578560D03*
D12*
X220033010Y-44288924D03*
D13*
X216801865Y-49638896D03*
D14*
X213589451Y-55035228D03*
X219012044Y-55109281D03*
D12*
X214572956Y-44122152D03*
D11*
X193223859Y-54048734D03*
X203422881Y-49928062D03*
D12*
X201554515Y-46638426D03*
D13*
X198323370Y-51988398D03*
D14*
X195110956Y-57384730D03*
X200533549Y-57458783D03*
D12*
X196094461Y-46471654D03*
D11*
X175634355Y-58557235D03*
X185833377Y-54436563D03*
D12*
X183965011Y-51146927D03*
D13*
X180733866Y-56496899D03*
D14*
X177521452Y-61893231D03*
X182944045Y-61967284D03*
D12*
X178504957Y-50980155D03*
D11*
X159886355Y-67510736D03*
X170085377Y-63390064D03*
D12*
X168217011Y-60100428D03*
D13*
X164985866Y-65450400D03*
D14*
X161773452Y-70846732D03*
X167196045Y-70920785D03*
D12*
X162756957Y-59933656D03*
D11*
X144011358Y-76464235D03*
X154210380Y-72343563D03*
D12*
X152342014Y-69053927D03*
D13*
X149110869Y-74403899D03*
D14*
X145898455Y-79800231D03*
X151321048Y-79874284D03*
D12*
X146881960Y-68887155D03*
D11*
X118738356Y-72343563D03*
X128937378Y-76464235D03*
D12*
X129878561Y-72799993D03*
D13*
X123837867Y-74403899D03*
D14*
X117778443Y-76054165D03*
X121627688Y-79874284D03*
D12*
X126066776Y-68887155D03*
D11*
X102990355Y-63390062D03*
X113189377Y-67510734D03*
D12*
X114130560Y-63846492D03*
D13*
X108089866Y-65450398D03*
D14*
X102030442Y-67100664D03*
X105879687Y-70920783D03*
D12*
X110318775Y-59933654D03*
D11*
X87178856Y-54500062D03*
X97377878Y-58620734D03*
D12*
X98319061Y-54956492D03*
D13*
X92278367Y-56560398D03*
D14*
X86218943Y-58210664D03*
X90068188Y-62030783D03*
D12*
X94507276Y-51043654D03*
D11*
X69589354Y-49928062D03*
X79788376Y-54048734D03*
D12*
X80729559Y-50384492D03*
D13*
X74688865Y-51988398D03*
D14*
X68629441Y-53638664D03*
X72478686Y-57458783D03*
D12*
X76917774Y-46471654D03*
D11*
X51110856Y-47642061D03*
X61309878Y-51762733D03*
D12*
X62251061Y-48098491D03*
D13*
X56210367Y-49702397D03*
D14*
X50150943Y-51352663D03*
X54000188Y-55172782D03*
D12*
X58439276Y-44185653D03*
D20*
G36*
X108500126Y-120035898D02*
G01*
X108500511Y-120035971D01*
X108544217Y-120048814D01*
X108544402Y-120048879D01*
X109551955Y-120455957D01*
X109552133Y-120456039D01*
X109592496Y-120477163D01*
X109592824Y-120477378D01*
X109623488Y-120502099D01*
X109623768Y-120502374D01*
X109649017Y-120532598D01*
X109649238Y-120532922D01*
X109668109Y-120567498D01*
X109668262Y-120567859D01*
X109680024Y-120605449D01*
X109680104Y-120605833D01*
X109684306Y-120644992D01*
X109684309Y-120645384D01*
X109680791Y-120684613D01*
X109680718Y-120684998D01*
X109667875Y-120728704D01*
X109667810Y-120728889D01*
X109643642Y-120788706D01*
X109585197Y-120933363D01*
X109581712Y-120941989D01*
X109563726Y-120986505D01*
X109548204Y-121024924D01*
X109521719Y-121090476D01*
X109502797Y-121137310D01*
X109354384Y-121504646D01*
X109354302Y-121504824D01*
X109333178Y-121545187D01*
X109332963Y-121545515D01*
X109308244Y-121576177D01*
X109307969Y-121576457D01*
X109277739Y-121601711D01*
X109277415Y-121601932D01*
X109242846Y-121620799D01*
X109242485Y-121620952D01*
X109204892Y-121632715D01*
X109204508Y-121632795D01*
X109165349Y-121636997D01*
X109164957Y-121637000D01*
X109125728Y-121633482D01*
X109125343Y-121633409D01*
X109081637Y-121620566D01*
X109081452Y-121620501D01*
X108073899Y-121213423D01*
X108073721Y-121213341D01*
X108033358Y-121192217D01*
X108033030Y-121192002D01*
X108002366Y-121167281D01*
X108002086Y-121167006D01*
X107976837Y-121136782D01*
X107976616Y-121136458D01*
X107957745Y-121101882D01*
X107957592Y-121101521D01*
X107945830Y-121063931D01*
X107945750Y-121063547D01*
X107941548Y-121024388D01*
X107941545Y-121023996D01*
X107944976Y-120985737D01*
X107966267Y-120985737D01*
X107971918Y-121038398D01*
X107987733Y-121088941D01*
X108013106Y-121135432D01*
X108047060Y-121176075D01*
X108088291Y-121209314D01*
X108135303Y-121233918D01*
X109023036Y-121592586D01*
X109073951Y-121607547D01*
X109126698Y-121612278D01*
X109179359Y-121606627D01*
X109229902Y-121590812D01*
X109276393Y-121565439D01*
X109317036Y-121531485D01*
X109350275Y-121490254D01*
X109374879Y-121443242D01*
X109499089Y-121135812D01*
X109518011Y-121088978D01*
X109544496Y-121023426D01*
X109560018Y-120985007D01*
X109578004Y-120940491D01*
X109581489Y-120931865D01*
X109639895Y-120787305D01*
X109654856Y-120736390D01*
X109659587Y-120683643D01*
X109653936Y-120630982D01*
X109638121Y-120580439D01*
X109612748Y-120533948D01*
X109578794Y-120493305D01*
X109537563Y-120460066D01*
X109490551Y-120435462D01*
X108602818Y-120076794D01*
X108551903Y-120061833D01*
X108499156Y-120057102D01*
X108446495Y-120062753D01*
X108395952Y-120078568D01*
X108349461Y-120103941D01*
X108308818Y-120137895D01*
X108275579Y-120179126D01*
X108250975Y-120226138D01*
X108126765Y-120533568D01*
X108107843Y-120580402D01*
X108081358Y-120645954D01*
X108065836Y-120684373D01*
X108047850Y-120728889D01*
X108044365Y-120737515D01*
X107985959Y-120882075D01*
X107970998Y-120932990D01*
X107966267Y-120985737D01*
X107944976Y-120985737D01*
X107945063Y-120984767D01*
X107945136Y-120984382D01*
X107957979Y-120940676D01*
X107958044Y-120940491D01*
X107982212Y-120880674D01*
X108040657Y-120736017D01*
X108044142Y-120727391D01*
X108062128Y-120682875D01*
X108077650Y-120644456D01*
X108104135Y-120578904D01*
X108123057Y-120532070D01*
X108271470Y-120164734D01*
X108271552Y-120164556D01*
X108292676Y-120124193D01*
X108292891Y-120123865D01*
X108317610Y-120093203D01*
X108317885Y-120092923D01*
X108348115Y-120067669D01*
X108348439Y-120067448D01*
X108383008Y-120048581D01*
X108383369Y-120048428D01*
X108420962Y-120036665D01*
X108421346Y-120036585D01*
X108460505Y-120032383D01*
X108460897Y-120032380D01*
X108500126Y-120035898D01*
G37*
G36*
X109268070Y-118135172D02*
G01*
X109268455Y-118135245D01*
X109312161Y-118148088D01*
X109312346Y-118148153D01*
X110319899Y-118555231D01*
X110320077Y-118555313D01*
X110360440Y-118576437D01*
X110360768Y-118576652D01*
X110391432Y-118601373D01*
X110391712Y-118601648D01*
X110416961Y-118631872D01*
X110417182Y-118632196D01*
X110436053Y-118666772D01*
X110436206Y-118667133D01*
X110447968Y-118704723D01*
X110448048Y-118705107D01*
X110452250Y-118744266D01*
X110452253Y-118744658D01*
X110448735Y-118783887D01*
X110448662Y-118784272D01*
X110435819Y-118827978D01*
X110435754Y-118828163D01*
X110411586Y-118887980D01*
X110353141Y-119032637D01*
X110349656Y-119041263D01*
X110331670Y-119085779D01*
X110316148Y-119124198D01*
X110289663Y-119189750D01*
X110270741Y-119236584D01*
X110122328Y-119603920D01*
X110122246Y-119604098D01*
X110101122Y-119644461D01*
X110100907Y-119644789D01*
X110076188Y-119675451D01*
X110075913Y-119675731D01*
X110045683Y-119700985D01*
X110045359Y-119701206D01*
X110010790Y-119720073D01*
X110010429Y-119720226D01*
X109972836Y-119731989D01*
X109972452Y-119732069D01*
X109933293Y-119736271D01*
X109932901Y-119736274D01*
X109893672Y-119732756D01*
X109893287Y-119732683D01*
X109849581Y-119719840D01*
X109849396Y-119719775D01*
X108841843Y-119312697D01*
X108841665Y-119312615D01*
X108801302Y-119291491D01*
X108800974Y-119291276D01*
X108770310Y-119266555D01*
X108770030Y-119266280D01*
X108744781Y-119236056D01*
X108744560Y-119235732D01*
X108725689Y-119201156D01*
X108725536Y-119200795D01*
X108713774Y-119163205D01*
X108713694Y-119162821D01*
X108709492Y-119123662D01*
X108709489Y-119123270D01*
X108712920Y-119085011D01*
X108734211Y-119085011D01*
X108739862Y-119137672D01*
X108755677Y-119188215D01*
X108781050Y-119234706D01*
X108815004Y-119275349D01*
X108856235Y-119308588D01*
X108903247Y-119333192D01*
X109790980Y-119691860D01*
X109841895Y-119706821D01*
X109894642Y-119711552D01*
X109947303Y-119705901D01*
X109997846Y-119690086D01*
X110044337Y-119664713D01*
X110084980Y-119630759D01*
X110118219Y-119589528D01*
X110142823Y-119542516D01*
X110267033Y-119235086D01*
X110285955Y-119188252D01*
X110312440Y-119122700D01*
X110327962Y-119084281D01*
X110345948Y-119039765D01*
X110349433Y-119031139D01*
X110407839Y-118886579D01*
X110422800Y-118835664D01*
X110427531Y-118782917D01*
X110421880Y-118730256D01*
X110406065Y-118679713D01*
X110380692Y-118633222D01*
X110346738Y-118592579D01*
X110305507Y-118559340D01*
X110258495Y-118534736D01*
X109370762Y-118176068D01*
X109319847Y-118161107D01*
X109267100Y-118156376D01*
X109214439Y-118162027D01*
X109163896Y-118177842D01*
X109117405Y-118203215D01*
X109076762Y-118237169D01*
X109043523Y-118278400D01*
X109018919Y-118325412D01*
X108894709Y-118632842D01*
X108875787Y-118679676D01*
X108849302Y-118745228D01*
X108845383Y-118754928D01*
X108833780Y-118783647D01*
X108815794Y-118828163D01*
X108812309Y-118836789D01*
X108753903Y-118981349D01*
X108738942Y-119032264D01*
X108734211Y-119085011D01*
X108712920Y-119085011D01*
X108713007Y-119084041D01*
X108713080Y-119083656D01*
X108725923Y-119039950D01*
X108725988Y-119039765D01*
X108750156Y-118979948D01*
X108808601Y-118835291D01*
X108812086Y-118826665D01*
X108830072Y-118782149D01*
X108841675Y-118753430D01*
X108845594Y-118743730D01*
X108872079Y-118678178D01*
X108891001Y-118631344D01*
X109039414Y-118264008D01*
X109039496Y-118263830D01*
X109060620Y-118223467D01*
X109060835Y-118223139D01*
X109085554Y-118192477D01*
X109085829Y-118192197D01*
X109116059Y-118166943D01*
X109116383Y-118166722D01*
X109150952Y-118147855D01*
X109151313Y-118147702D01*
X109188906Y-118135939D01*
X109189290Y-118135859D01*
X109228449Y-118131657D01*
X109228841Y-118131654D01*
X109268070Y-118135172D01*
G37*
G36*
X139540597Y-108956399D02*
G01*
X139540865Y-108957399D01*
X139540865Y-110559399D01*
X139539865Y-110561131D01*
X139538865Y-110561399D01*
X139390865Y-110561399D01*
X139389133Y-110560399D01*
X139388865Y-110559399D01*
X139388865Y-108957399D01*
X139389865Y-108955667D01*
X139390865Y-108955399D01*
X139538865Y-108955399D01*
X139540597Y-108956399D01*
G37*
G36*
X140340597Y-108956399D02*
G01*
X140340865Y-108957399D01*
X140340865Y-110559399D01*
X140339865Y-110561131D01*
X140338865Y-110561399D01*
X140190865Y-110561399D01*
X140189133Y-110560399D01*
X140188865Y-110559399D01*
X140188865Y-108957399D01*
X140189865Y-108955667D01*
X140190865Y-108955399D01*
X140338865Y-108955399D01*
X140340597Y-108956399D01*
G37*
G36*
X133140597Y-108956399D02*
G01*
X133140865Y-108957399D01*
X133140865Y-110559399D01*
X133139865Y-110561131D01*
X133138865Y-110561399D01*
X132990865Y-110561399D01*
X132989133Y-110560399D01*
X132988865Y-110559399D01*
X132988865Y-108957399D01*
X132989865Y-108955667D01*
X132990865Y-108955399D01*
X133138865Y-108955399D01*
X133140597Y-108956399D01*
G37*
G36*
X137140597Y-108956399D02*
G01*
X137140865Y-108957399D01*
X137140865Y-110559399D01*
X137139865Y-110561131D01*
X137138865Y-110561399D01*
X136990865Y-110561399D01*
X136989133Y-110560399D01*
X136988865Y-110559399D01*
X136988865Y-108957399D01*
X136989865Y-108955667D01*
X136990865Y-108955399D01*
X137138865Y-108955399D01*
X137140597Y-108956399D01*
G37*
G36*
X136340597Y-108956399D02*
G01*
X136340865Y-108957399D01*
X136340865Y-110559399D01*
X136339865Y-110561131D01*
X136338865Y-110561399D01*
X136190865Y-110561399D01*
X136189133Y-110560399D01*
X136188865Y-110559399D01*
X136188865Y-108957399D01*
X136189865Y-108955667D01*
X136190865Y-108955399D01*
X136338865Y-108955399D01*
X136340597Y-108956399D01*
G37*
G36*
X135540597Y-108956399D02*
G01*
X135540865Y-108957399D01*
X135540865Y-110559399D01*
X135539865Y-110561131D01*
X135538865Y-110561399D01*
X135390865Y-110561399D01*
X135389133Y-110560399D01*
X135388865Y-110559399D01*
X135388865Y-108957399D01*
X135389865Y-108955667D01*
X135390865Y-108955399D01*
X135538865Y-108955399D01*
X135540597Y-108956399D01*
G37*
G36*
X134740597Y-108956399D02*
G01*
X134740865Y-108957399D01*
X134740865Y-110559399D01*
X134739865Y-110561131D01*
X134738865Y-110561399D01*
X134590865Y-110561399D01*
X134589133Y-110560399D01*
X134588865Y-110559399D01*
X134588865Y-108957399D01*
X134589865Y-108955667D01*
X134590865Y-108955399D01*
X134738865Y-108955399D01*
X134740597Y-108956399D01*
G37*
G36*
X133940597Y-108956399D02*
G01*
X133940865Y-108957399D01*
X133940865Y-110559399D01*
X133939865Y-110561131D01*
X133938865Y-110561399D01*
X133790865Y-110561399D01*
X133789133Y-110560399D01*
X133788865Y-110559399D01*
X133788865Y-108957399D01*
X133789865Y-108955667D01*
X133790865Y-108955399D01*
X133938865Y-108955399D01*
X133940597Y-108956399D01*
G37*
G36*
X137940597Y-108956399D02*
G01*
X137940865Y-108957399D01*
X137940865Y-110559399D01*
X137939865Y-110561131D01*
X137938865Y-110561399D01*
X137790865Y-110561399D01*
X137789133Y-110560399D01*
X137788865Y-110559399D01*
X137788865Y-108957399D01*
X137789865Y-108955667D01*
X137790865Y-108955399D01*
X137938865Y-108955399D01*
X137940597Y-108956399D01*
G37*
G36*
X138740597Y-108956399D02*
G01*
X138740865Y-108957399D01*
X138740865Y-110559399D01*
X138739865Y-110561131D01*
X138738865Y-110561399D01*
X138590865Y-110561399D01*
X138589133Y-110560399D01*
X138588865Y-110559399D01*
X138588865Y-108957399D01*
X138589865Y-108955667D01*
X138590865Y-108955399D01*
X138738865Y-108955399D01*
X138740597Y-108956399D01*
G37*
G36*
X131767597Y-107583399D02*
G01*
X131767865Y-107584399D01*
X131767865Y-107732399D01*
X131766865Y-107734131D01*
X131765865Y-107734399D01*
X130163865Y-107734399D01*
X130162133Y-107733399D01*
X130161865Y-107732399D01*
X130161865Y-107584399D01*
X130162865Y-107582667D01*
X130163865Y-107582399D01*
X131765865Y-107582399D01*
X131767597Y-107583399D01*
G37*
G36*
X143167597Y-107583399D02*
G01*
X143167865Y-107584399D01*
X143167865Y-107732399D01*
X143166865Y-107734131D01*
X143165865Y-107734399D01*
X141563865Y-107734399D01*
X141562133Y-107733399D01*
X141561865Y-107732399D01*
X141561865Y-107584399D01*
X141562865Y-107582667D01*
X141563865Y-107582399D01*
X143165865Y-107582399D01*
X143167597Y-107583399D01*
G37*
G36*
X143167597Y-106783399D02*
G01*
X143167865Y-106784399D01*
X143167865Y-106932399D01*
X143166865Y-106934131D01*
X143165865Y-106934399D01*
X141563865Y-106934399D01*
X141562133Y-106933399D01*
X141561865Y-106932399D01*
X141561865Y-106784399D01*
X141562865Y-106782667D01*
X141563865Y-106782399D01*
X143165865Y-106782399D01*
X143167597Y-106783399D01*
G37*
G36*
X131767597Y-106783399D02*
G01*
X131767865Y-106784399D01*
X131767865Y-106932399D01*
X131766865Y-106934131D01*
X131765865Y-106934399D01*
X130163865Y-106934399D01*
X130162133Y-106933399D01*
X130161865Y-106932399D01*
X130161865Y-106784399D01*
X130162865Y-106782667D01*
X130163865Y-106782399D01*
X131765865Y-106782399D01*
X131767597Y-106783399D01*
G37*
G36*
X143167597Y-105983399D02*
G01*
X143167865Y-105984399D01*
X143167865Y-106132399D01*
X143166865Y-106134131D01*
X143165865Y-106134399D01*
X141563865Y-106134399D01*
X141562133Y-106133399D01*
X141561865Y-106132399D01*
X141561865Y-105984399D01*
X141562865Y-105982667D01*
X141563865Y-105982399D01*
X143165865Y-105982399D01*
X143167597Y-105983399D01*
G37*
G36*
X131767597Y-105983399D02*
G01*
X131767865Y-105984399D01*
X131767865Y-106132399D01*
X131766865Y-106134131D01*
X131765865Y-106134399D01*
X130163865Y-106134399D01*
X130162133Y-106133399D01*
X130161865Y-106132399D01*
X130161865Y-105984399D01*
X130162865Y-105982667D01*
X130163865Y-105982399D01*
X131765865Y-105982399D01*
X131767597Y-105983399D01*
G37*
G36*
X143167597Y-105183399D02*
G01*
X143167865Y-105184399D01*
X143167865Y-105332399D01*
X143166865Y-105334131D01*
X143165865Y-105334399D01*
X141563865Y-105334399D01*
X141562133Y-105333399D01*
X141561865Y-105332399D01*
X141561865Y-105184399D01*
X141562865Y-105182667D01*
X141563865Y-105182399D01*
X143165865Y-105182399D01*
X143167597Y-105183399D01*
G37*
G36*
X131767597Y-105183399D02*
G01*
X131767865Y-105184399D01*
X131767865Y-105332399D01*
X131766865Y-105334131D01*
X131765865Y-105334399D01*
X130163865Y-105334399D01*
X130162133Y-105333399D01*
X130161865Y-105332399D01*
X130161865Y-105184399D01*
X130162865Y-105182667D01*
X130163865Y-105182399D01*
X131765865Y-105182399D01*
X131767597Y-105183399D01*
G37*
G36*
X143167597Y-104383399D02*
G01*
X143167865Y-104384399D01*
X143167865Y-104532399D01*
X143166865Y-104534131D01*
X143165865Y-104534399D01*
X141563865Y-104534399D01*
X141562133Y-104533399D01*
X141561865Y-104532399D01*
X141561865Y-104384399D01*
X141562865Y-104382667D01*
X141563865Y-104382399D01*
X143165865Y-104382399D01*
X143167597Y-104383399D01*
G37*
G36*
X131767597Y-104383399D02*
G01*
X131767865Y-104384399D01*
X131767865Y-104532399D01*
X131766865Y-104534131D01*
X131765865Y-104534399D01*
X130163865Y-104534399D01*
X130162133Y-104533399D01*
X130161865Y-104532399D01*
X130161865Y-104384399D01*
X130162865Y-104382667D01*
X130163865Y-104382399D01*
X131765865Y-104382399D01*
X131767597Y-104383399D01*
G37*
G36*
X131767597Y-103583399D02*
G01*
X131767865Y-103584399D01*
X131767865Y-103732399D01*
X131766865Y-103734131D01*
X131765865Y-103734399D01*
X130163865Y-103734399D01*
X130162133Y-103733399D01*
X130161865Y-103732399D01*
X130161865Y-103584399D01*
X130162865Y-103582667D01*
X130163865Y-103582399D01*
X131765865Y-103582399D01*
X131767597Y-103583399D01*
G37*
G36*
X143167597Y-103583399D02*
G01*
X143167865Y-103584399D01*
X143167865Y-103732399D01*
X143166865Y-103734131D01*
X143165865Y-103734399D01*
X141563865Y-103734399D01*
X141562133Y-103733399D01*
X141561865Y-103732399D01*
X141561865Y-103584399D01*
X141562865Y-103582667D01*
X141563865Y-103582399D01*
X143165865Y-103582399D01*
X143167597Y-103583399D01*
G37*
G36*
X131767597Y-102783399D02*
G01*
X131767865Y-102784399D01*
X131767865Y-102932399D01*
X131766865Y-102934131D01*
X131765865Y-102934399D01*
X130163865Y-102934399D01*
X130162133Y-102933399D01*
X130161865Y-102932399D01*
X130161865Y-102784399D01*
X130162865Y-102782667D01*
X130163865Y-102782399D01*
X131765865Y-102782399D01*
X131767597Y-102783399D01*
G37*
G36*
X143167597Y-102783399D02*
G01*
X143167865Y-102784399D01*
X143167865Y-102932399D01*
X143166865Y-102934131D01*
X143165865Y-102934399D01*
X141563865Y-102934399D01*
X141562133Y-102933399D01*
X141561865Y-102932399D01*
X141561865Y-102784399D01*
X141562865Y-102782667D01*
X141563865Y-102782399D01*
X143165865Y-102782399D01*
X143167597Y-102783399D01*
G37*
G36*
X131767597Y-101983399D02*
G01*
X131767865Y-101984399D01*
X131767865Y-102132399D01*
X131766865Y-102134131D01*
X131765865Y-102134399D01*
X130163865Y-102134399D01*
X130162133Y-102133399D01*
X130161865Y-102132399D01*
X130161865Y-101984399D01*
X130162865Y-101982667D01*
X130163865Y-101982399D01*
X131765865Y-101982399D01*
X131767597Y-101983399D01*
G37*
G36*
X143167597Y-101983399D02*
G01*
X143167865Y-101984399D01*
X143167865Y-102132399D01*
X143166865Y-102134131D01*
X143165865Y-102134399D01*
X141563865Y-102134399D01*
X141562133Y-102133399D01*
X141561865Y-102132399D01*
X141561865Y-101984399D01*
X141562865Y-101982667D01*
X141563865Y-101982399D01*
X143165865Y-101982399D01*
X143167597Y-101983399D01*
G37*
G36*
X131767597Y-101183399D02*
G01*
X131767865Y-101184399D01*
X131767865Y-101332399D01*
X131766865Y-101334131D01*
X131765865Y-101334399D01*
X130163865Y-101334399D01*
X130162133Y-101333399D01*
X130161865Y-101332399D01*
X130161865Y-101184399D01*
X130162865Y-101182667D01*
X130163865Y-101182399D01*
X131765865Y-101182399D01*
X131767597Y-101183399D01*
G37*
G36*
X143167597Y-101183399D02*
G01*
X143167865Y-101184399D01*
X143167865Y-101332399D01*
X143166865Y-101334131D01*
X143165865Y-101334399D01*
X141563865Y-101334399D01*
X141562133Y-101333399D01*
X141561865Y-101332399D01*
X141561865Y-101184399D01*
X141562865Y-101182667D01*
X141563865Y-101182399D01*
X143165865Y-101182399D01*
X143167597Y-101183399D01*
G37*
G36*
X143167597Y-100383399D02*
G01*
X143167865Y-100384399D01*
X143167865Y-100532399D01*
X143166865Y-100534131D01*
X143165865Y-100534399D01*
X141563865Y-100534399D01*
X141562133Y-100533399D01*
X141561865Y-100532399D01*
X141561865Y-100384399D01*
X141562865Y-100382667D01*
X141563865Y-100382399D01*
X143165865Y-100382399D01*
X143167597Y-100383399D01*
G37*
G36*
X131767597Y-100383399D02*
G01*
X131767865Y-100384399D01*
X131767865Y-100532399D01*
X131766865Y-100534131D01*
X131765865Y-100534399D01*
X130163865Y-100534399D01*
X130162133Y-100533399D01*
X130161865Y-100532399D01*
X130161865Y-100384399D01*
X130162865Y-100382667D01*
X130163865Y-100382399D01*
X131765865Y-100382399D01*
X131767597Y-100383399D01*
G37*
G36*
X134740597Y-97556399D02*
G01*
X134740865Y-97557399D01*
X134740865Y-99159399D01*
X134739865Y-99161131D01*
X134738865Y-99161399D01*
X134590865Y-99161399D01*
X134589133Y-99160399D01*
X134588865Y-99159399D01*
X134588865Y-97557399D01*
X134589865Y-97555667D01*
X134590865Y-97555399D01*
X134738865Y-97555399D01*
X134740597Y-97556399D01*
G37*
G36*
X133940597Y-97556399D02*
G01*
X133940865Y-97557399D01*
X133940865Y-99159399D01*
X133939865Y-99161131D01*
X133938865Y-99161399D01*
X133790865Y-99161399D01*
X133789133Y-99160399D01*
X133788865Y-99159399D01*
X133788865Y-97557399D01*
X133789865Y-97555667D01*
X133790865Y-97555399D01*
X133938865Y-97555399D01*
X133940597Y-97556399D01*
G37*
G36*
X133140597Y-97556399D02*
G01*
X133140865Y-97557399D01*
X133140865Y-99159399D01*
X133139865Y-99161131D01*
X133138865Y-99161399D01*
X132990865Y-99161399D01*
X132989133Y-99160399D01*
X132988865Y-99159399D01*
X132988865Y-97557399D01*
X132989865Y-97555667D01*
X132990865Y-97555399D01*
X133138865Y-97555399D01*
X133140597Y-97556399D01*
G37*
G36*
X135540597Y-97556399D02*
G01*
X135540865Y-97557399D01*
X135540865Y-99159399D01*
X135539865Y-99161131D01*
X135538865Y-99161399D01*
X135390865Y-99161399D01*
X135389133Y-99160399D01*
X135388865Y-99159399D01*
X135388865Y-97557399D01*
X135389865Y-97555667D01*
X135390865Y-97555399D01*
X135538865Y-97555399D01*
X135540597Y-97556399D01*
G37*
G36*
X136340597Y-97556399D02*
G01*
X136340865Y-97557399D01*
X136340865Y-99159399D01*
X136339865Y-99161131D01*
X136338865Y-99161399D01*
X136190865Y-99161399D01*
X136189133Y-99160399D01*
X136188865Y-99159399D01*
X136188865Y-97557399D01*
X136189865Y-97555667D01*
X136190865Y-97555399D01*
X136338865Y-97555399D01*
X136340597Y-97556399D01*
G37*
G36*
X137140597Y-97556399D02*
G01*
X137140865Y-97557399D01*
X137140865Y-99159399D01*
X137139865Y-99161131D01*
X137138865Y-99161399D01*
X136990865Y-99161399D01*
X136989133Y-99160399D01*
X136988865Y-99159399D01*
X136988865Y-97557399D01*
X136989865Y-97555667D01*
X136990865Y-97555399D01*
X137138865Y-97555399D01*
X137140597Y-97556399D01*
G37*
G36*
X140340597Y-97556399D02*
G01*
X140340865Y-97557399D01*
X140340865Y-99159399D01*
X140339865Y-99161131D01*
X140338865Y-99161399D01*
X140190865Y-99161399D01*
X140189133Y-99160399D01*
X140188865Y-99159399D01*
X140188865Y-97557399D01*
X140189865Y-97555667D01*
X140190865Y-97555399D01*
X140338865Y-97555399D01*
X140340597Y-97556399D01*
G37*
G36*
X139540597Y-97556399D02*
G01*
X139540865Y-97557399D01*
X139540865Y-99159399D01*
X139539865Y-99161131D01*
X139538865Y-99161399D01*
X139390865Y-99161399D01*
X139389133Y-99160399D01*
X139388865Y-99159399D01*
X139388865Y-97557399D01*
X139389865Y-97555667D01*
X139390865Y-97555399D01*
X139538865Y-97555399D01*
X139540597Y-97556399D01*
G37*
G36*
X138740597Y-97556399D02*
G01*
X138740865Y-97557399D01*
X138740865Y-99159399D01*
X138739865Y-99161131D01*
X138738865Y-99161399D01*
X138590865Y-99161399D01*
X138589133Y-99160399D01*
X138588865Y-99159399D01*
X138588865Y-97557399D01*
X138589865Y-97555667D01*
X138590865Y-97555399D01*
X138738865Y-97555399D01*
X138740597Y-97556399D01*
G37*
G36*
X137940597Y-97556399D02*
G01*
X137940865Y-97557399D01*
X137940865Y-99159399D01*
X137939865Y-99161131D01*
X137938865Y-99161399D01*
X137790865Y-99161399D01*
X137789133Y-99160399D01*
X137788865Y-99159399D01*
X137788865Y-97557399D01*
X137789865Y-97555667D01*
X137790865Y-97555399D01*
X137938865Y-97555399D01*
X137940597Y-97556399D01*
G37*
G36*
X133676097Y-62463399D02*
G01*
X133676365Y-62464399D01*
X133676365Y-64014399D01*
X133675365Y-64016131D01*
X133674365Y-64016399D01*
X133599365Y-64016399D01*
X133597633Y-64015399D01*
X133597365Y-64014399D01*
X133597365Y-62464399D01*
X133598365Y-62462667D01*
X133599365Y-62462399D01*
X133674365Y-62462399D01*
X133676097Y-62463399D01*
G37*
G36*
X139351097Y-62463399D02*
G01*
X139351365Y-62464399D01*
X139351365Y-64014399D01*
X139350365Y-64016131D01*
X139349365Y-64016399D01*
X139274365Y-64016399D01*
X139272633Y-64015399D01*
X139272365Y-64014399D01*
X139272365Y-62464399D01*
X139273365Y-62462667D01*
X139274365Y-62462399D01*
X139349365Y-62462399D01*
X139351097Y-62463399D01*
G37*
G36*
X138576097Y-62463399D02*
G01*
X138576365Y-62464399D01*
X138576365Y-64014399D01*
X138575365Y-64016131D01*
X138574365Y-64016399D01*
X138424365Y-64016399D01*
X138422633Y-64015399D01*
X138422365Y-64014399D01*
X138422365Y-62464399D01*
X138423365Y-62462667D01*
X138424365Y-62462399D01*
X138574365Y-62462399D01*
X138576097Y-62463399D01*
G37*
G36*
X138026097Y-62463399D02*
G01*
X138026365Y-62464399D01*
X138026365Y-64014399D01*
X138025365Y-64016131D01*
X138024365Y-64016399D01*
X137924365Y-64016399D01*
X137922633Y-64015399D01*
X137922365Y-64014399D01*
X137922365Y-62464399D01*
X137923365Y-62462667D01*
X137924365Y-62462399D01*
X138024365Y-62462399D01*
X138026097Y-62463399D01*
G37*
G36*
X137526097Y-62463399D02*
G01*
X137526365Y-62464399D01*
X137526365Y-64014399D01*
X137525365Y-64016131D01*
X137524365Y-64016399D01*
X137424365Y-64016399D01*
X137422633Y-64015399D01*
X137422365Y-64014399D01*
X137422365Y-62464399D01*
X137423365Y-62462667D01*
X137424365Y-62462399D01*
X137524365Y-62462399D01*
X137526097Y-62463399D01*
G37*
G36*
X137026097Y-62463399D02*
G01*
X137026365Y-62464399D01*
X137026365Y-64014399D01*
X137025365Y-64016131D01*
X137024365Y-64016399D01*
X136924365Y-64016399D01*
X136922633Y-64015399D01*
X136922365Y-64014399D01*
X136922365Y-62464399D01*
X136923365Y-62462667D01*
X136924365Y-62462399D01*
X137024365Y-62462399D01*
X137026097Y-62463399D01*
G37*
G36*
X136526097Y-62463399D02*
G01*
X136526365Y-62464399D01*
X136526365Y-64014399D01*
X136525365Y-64016131D01*
X136524365Y-64016399D01*
X136424365Y-64016399D01*
X136422633Y-64015399D01*
X136422365Y-64014399D01*
X136422365Y-62464399D01*
X136423365Y-62462667D01*
X136424365Y-62462399D01*
X136524365Y-62462399D01*
X136526097Y-62463399D01*
G37*
G36*
X136026097Y-62463399D02*
G01*
X136026365Y-62464399D01*
X136026365Y-64014399D01*
X136025365Y-64016131D01*
X136024365Y-64016399D01*
X135924365Y-64016399D01*
X135922633Y-64015399D01*
X135922365Y-64014399D01*
X135922365Y-62464399D01*
X135923365Y-62462667D01*
X135924365Y-62462399D01*
X136024365Y-62462399D01*
X136026097Y-62463399D01*
G37*
G36*
X135526097Y-62463399D02*
G01*
X135526365Y-62464399D01*
X135526365Y-64014399D01*
X135525365Y-64016131D01*
X135524365Y-64016399D01*
X135424365Y-64016399D01*
X135422633Y-64015399D01*
X135422365Y-64014399D01*
X135422365Y-62464399D01*
X135423365Y-62462667D01*
X135424365Y-62462399D01*
X135524365Y-62462399D01*
X135526097Y-62463399D01*
G37*
G36*
X135026097Y-62463399D02*
G01*
X135026365Y-62464399D01*
X135026365Y-64014399D01*
X135025365Y-64016131D01*
X135024365Y-64016399D01*
X134924365Y-64016399D01*
X134922633Y-64015399D01*
X134922365Y-64014399D01*
X134922365Y-62464399D01*
X134923365Y-62462667D01*
X134924365Y-62462399D01*
X135024365Y-62462399D01*
X135026097Y-62463399D01*
G37*
G36*
X134526097Y-62463399D02*
G01*
X134526365Y-62464399D01*
X134526365Y-64014399D01*
X134525365Y-64016131D01*
X134524365Y-64016399D01*
X134374365Y-64016399D01*
X134372633Y-64015399D01*
X134372365Y-64014399D01*
X134372365Y-62464399D01*
X134373365Y-62462667D01*
X134374365Y-62462399D01*
X134524365Y-62462399D01*
X134526097Y-62463399D01*
G37*
G36*
X140245530Y-62337774D02*
G01*
X140246365Y-62339400D01*
X140246365Y-62874305D01*
X140256903Y-62981303D01*
X140287249Y-63081340D01*
X140286795Y-63083288D01*
X140284881Y-63083869D01*
X140283571Y-63082864D01*
X140282884Y-63081578D01*
X140269435Y-63061451D01*
X140252388Y-63044404D01*
X140232341Y-63031009D01*
X140210067Y-63021783D01*
X140186416Y-63017079D01*
X140162310Y-63017079D01*
X140138660Y-63021784D01*
X140116386Y-63031010D01*
X140096339Y-63044405D01*
X140079292Y-63061452D01*
X140065897Y-63081499D01*
X140056688Y-63103730D01*
X140051343Y-63139769D01*
X140050100Y-63141336D01*
X140048122Y-63141043D01*
X140047365Y-63139476D01*
X140047365Y-62464399D01*
X140048365Y-62462667D01*
X140049365Y-62462399D01*
X140119272Y-62462399D01*
X140143357Y-62460027D01*
X140166432Y-62453027D01*
X140187696Y-62441662D01*
X140206333Y-62426367D01*
X140221628Y-62407730D01*
X140232993Y-62386466D01*
X140239993Y-62363391D01*
X140242375Y-62339204D01*
X140243540Y-62337578D01*
X140245530Y-62337774D01*
G37*
G36*
X132706355Y-62339204D02*
G01*
X132708737Y-62363391D01*
X132715737Y-62386466D01*
X132727102Y-62407730D01*
X132742397Y-62426367D01*
X132761034Y-62441662D01*
X132782298Y-62453027D01*
X132805373Y-62460027D01*
X132829458Y-62462399D01*
X132899365Y-62462399D01*
X132901097Y-62463399D01*
X132901365Y-62464399D01*
X132901365Y-63139476D01*
X132900365Y-63141208D01*
X132898365Y-63141208D01*
X132897375Y-63139672D01*
X132894993Y-63115486D01*
X132887993Y-63092411D01*
X132876628Y-63071147D01*
X132861333Y-63052510D01*
X132842696Y-63037215D01*
X132821432Y-63025850D01*
X132798357Y-63018850D01*
X132774366Y-63016487D01*
X132750375Y-63018850D01*
X132727300Y-63025850D01*
X132706036Y-63037215D01*
X132687435Y-63052480D01*
X132665824Y-63081620D01*
X132665159Y-63082865D01*
X132663461Y-63083921D01*
X132661697Y-63082978D01*
X132661481Y-63081341D01*
X132691827Y-62981304D01*
X132702365Y-62874305D01*
X132702365Y-62339400D01*
X132703365Y-62337668D01*
X132705365Y-62337668D01*
X132706355Y-62339204D01*
G37*
M02*
