G04 #@! TF.GenerationSoftware,KiCad,Pcbnew,(5.1.9-0-10_14)*
G04 #@! TF.CreationDate,2021-02-04T04:11:51-06:00*
G04 #@! TF.ProjectId,micro_redox_semi_split,6d696372-6f5f-4726-9564-6f785f73656d,rev?*
G04 #@! TF.SameCoordinates,Original*
G04 #@! TF.FileFunction,Legend,Top*
G04 #@! TF.FilePolarity,Positive*
%FSLAX46Y46*%
G04 Gerber Fmt 4.6, Leading zero omitted, Abs format (unit mm)*
G04 Created by KiCad (PCBNEW (5.1.9-0-10_14)) date 2021-02-04 04:11:51*
%MOMM*%
%LPD*%
G01*
G04 APERTURE LIST*
%ADD10C,0.050000*%
%ADD11C,0.300000*%
%ADD12C,0.150000*%
%ADD13C,0.120000*%
%ADD14C,0.200000*%
G04 APERTURE END LIST*
D10*
X133834476Y-106134714D02*
X133834476Y-106349000D01*
X133810666Y-106391857D01*
X133763047Y-106420428D01*
X133691619Y-106434714D01*
X133644000Y-106434714D01*
X134310666Y-106434714D02*
X134072571Y-106434714D01*
X134072571Y-106134714D01*
X134763047Y-106406142D02*
X134739238Y-106420428D01*
X134667809Y-106434714D01*
X134620190Y-106434714D01*
X134548761Y-106420428D01*
X134501142Y-106391857D01*
X134477333Y-106363285D01*
X134453523Y-106306142D01*
X134453523Y-106263285D01*
X134477333Y-106206142D01*
X134501142Y-106177571D01*
X134548761Y-106149000D01*
X134620190Y-106134714D01*
X134667809Y-106134714D01*
X134739238Y-106149000D01*
X134763047Y-106163285D01*
X135120190Y-106134714D02*
X135120190Y-106349000D01*
X135096380Y-106391857D01*
X135048761Y-106420428D01*
X134977333Y-106434714D01*
X134929714Y-106434714D01*
X135596380Y-106434714D02*
X135358285Y-106434714D01*
X135358285Y-106134714D01*
X136048761Y-106406142D02*
X136024952Y-106420428D01*
X135953523Y-106434714D01*
X135905904Y-106434714D01*
X135834476Y-106420428D01*
X135786857Y-106391857D01*
X135763047Y-106363285D01*
X135739238Y-106306142D01*
X135739238Y-106263285D01*
X135763047Y-106206142D01*
X135786857Y-106177571D01*
X135834476Y-106149000D01*
X135905904Y-106134714D01*
X135953523Y-106134714D01*
X136024952Y-106149000D01*
X136048761Y-106163285D01*
X136405904Y-106134714D02*
X136405904Y-106349000D01*
X136382095Y-106391857D01*
X136334476Y-106420428D01*
X136263047Y-106434714D01*
X136215428Y-106434714D01*
X136882095Y-106434714D02*
X136644000Y-106434714D01*
X136644000Y-106134714D01*
X137334476Y-106406142D02*
X137310666Y-106420428D01*
X137239238Y-106434714D01*
X137191619Y-106434714D01*
X137120190Y-106420428D01*
X137072571Y-106391857D01*
X137048761Y-106363285D01*
X137024952Y-106306142D01*
X137024952Y-106263285D01*
X137048761Y-106206142D01*
X137072571Y-106177571D01*
X137120190Y-106149000D01*
X137191619Y-106134714D01*
X137239238Y-106134714D01*
X137310666Y-106149000D01*
X137334476Y-106163285D01*
X137691619Y-106134714D02*
X137691619Y-106349000D01*
X137667809Y-106391857D01*
X137620190Y-106420428D01*
X137548761Y-106434714D01*
X137501142Y-106434714D01*
X138167809Y-106434714D02*
X137929714Y-106434714D01*
X137929714Y-106134714D01*
X138620190Y-106406142D02*
X138596380Y-106420428D01*
X138524952Y-106434714D01*
X138477333Y-106434714D01*
X138405904Y-106420428D01*
X138358285Y-106391857D01*
X138334476Y-106363285D01*
X138310666Y-106306142D01*
X138310666Y-106263285D01*
X138334476Y-106206142D01*
X138358285Y-106177571D01*
X138405904Y-106149000D01*
X138477333Y-106134714D01*
X138524952Y-106134714D01*
X138596380Y-106149000D01*
X138620190Y-106163285D01*
D11*
X59396575Y-98459918D02*
X59926394Y-98673979D01*
X59782560Y-98076599D02*
X59300923Y-99268692D01*
X59313635Y-99427905D01*
X59419332Y-99547648D01*
X59551787Y-99601163D01*
X60015379Y-99788466D02*
X60389986Y-98861282D01*
X60282955Y-99126192D02*
X60402698Y-99020495D01*
X60495683Y-98981025D01*
X60654895Y-98968313D01*
X60787350Y-99021828D01*
X61472382Y-100377134D02*
X61766716Y-99648632D01*
X61754004Y-99489419D01*
X61648307Y-99369677D01*
X61383397Y-99262646D01*
X61224185Y-99275359D01*
X61499140Y-100310906D02*
X61339928Y-100323618D01*
X61008790Y-100189830D01*
X60903093Y-100070088D01*
X60890381Y-99910875D01*
X60943896Y-99778420D01*
X61063639Y-99672723D01*
X61222851Y-99660011D01*
X61553988Y-99793799D01*
X61713201Y-99781087D01*
X62134657Y-100644710D02*
X62509263Y-99717526D01*
X62455748Y-99849981D02*
X62548733Y-99810511D01*
X62707945Y-99797799D01*
X62906628Y-99878072D01*
X63012325Y-99997814D01*
X63025037Y-100157027D01*
X62730703Y-100885528D01*
X63025037Y-100157027D02*
X63144780Y-100051329D01*
X63303992Y-100038617D01*
X63502674Y-100118890D01*
X63608372Y-100238633D01*
X63621084Y-100397845D01*
X63326750Y-101126347D01*
X64363631Y-100466739D02*
X63801721Y-101857515D01*
X64336873Y-100532966D02*
X64496086Y-100520254D01*
X64760995Y-100627285D01*
X64866693Y-100747027D01*
X64906162Y-100840012D01*
X64918875Y-100999225D01*
X64758329Y-101396589D01*
X64638586Y-101502287D01*
X64545601Y-101541756D01*
X64386389Y-101554469D01*
X64121479Y-101447438D01*
X64015782Y-101327695D01*
X65207875Y-101809332D02*
X65313573Y-101929075D01*
X65578482Y-102036106D01*
X65737695Y-102023393D01*
X65857437Y-101917696D01*
X65884195Y-101851469D01*
X65871483Y-101692256D01*
X65765786Y-101572514D01*
X65567103Y-101492241D01*
X65461406Y-101372498D01*
X65448694Y-101213286D01*
X65475452Y-101147058D01*
X65595194Y-101041361D01*
X65754407Y-101028649D01*
X65953089Y-101108922D01*
X66058786Y-101228664D01*
X66549136Y-101349740D02*
X67078955Y-101563801D01*
X66935121Y-100966421D02*
X66453484Y-102158515D01*
X66466196Y-102317727D01*
X66571894Y-102437470D01*
X66704348Y-102490985D01*
X67763987Y-102919107D02*
X68058321Y-102190605D01*
X68045609Y-102031393D01*
X67939911Y-101911650D01*
X67675002Y-101804620D01*
X67515789Y-101817332D01*
X67790745Y-102852879D02*
X67631532Y-102865592D01*
X67300395Y-102731804D01*
X67194698Y-102612061D01*
X67181986Y-102452848D01*
X67235501Y-102320394D01*
X67355244Y-102214696D01*
X67514456Y-102201984D01*
X67845593Y-102335772D01*
X68004806Y-102323060D01*
X68426261Y-103186683D02*
X68800868Y-102259499D01*
X68747353Y-102391954D02*
X68840338Y-102352484D01*
X68999550Y-102339772D01*
X69198232Y-102420045D01*
X69303930Y-102539787D01*
X69316642Y-102699000D01*
X69022308Y-103427502D01*
X69316642Y-102699000D02*
X69436384Y-102593303D01*
X69595597Y-102580590D01*
X69794279Y-102660863D01*
X69899976Y-102780606D01*
X69912689Y-102939818D01*
X69618355Y-103668320D01*
X70655236Y-103008712D02*
X70093326Y-104399488D01*
X70628478Y-103074940D02*
X70787690Y-103062228D01*
X71052600Y-103169258D01*
X71158297Y-103289001D01*
X71197767Y-103381986D01*
X71210479Y-103541198D01*
X71049934Y-103938563D01*
X70930191Y-104044260D01*
X70837206Y-104083730D01*
X70677994Y-104096442D01*
X70413084Y-103989411D01*
X70307387Y-103869669D01*
X72598589Y-104872413D02*
X72973195Y-103945229D01*
X72919680Y-104077684D02*
X73012665Y-104038214D01*
X73171878Y-104025502D01*
X73370560Y-104105774D01*
X73476257Y-104225517D01*
X73488969Y-104384730D01*
X73194635Y-105113231D01*
X73488969Y-104384730D02*
X73608712Y-104279032D01*
X73767924Y-104266320D01*
X73966607Y-104346593D01*
X74072304Y-104466336D01*
X74085016Y-104625548D01*
X73790682Y-105354050D01*
X74452956Y-105621626D02*
X74827563Y-104694442D01*
X75014866Y-104230850D02*
X74921881Y-104270320D01*
X74961351Y-104363305D01*
X75054336Y-104323835D01*
X75014866Y-104230850D01*
X74961351Y-104363305D01*
X75738035Y-106063793D02*
X75578822Y-106076505D01*
X75313913Y-105969475D01*
X75208216Y-105849732D01*
X75168746Y-105756747D01*
X75156034Y-105597535D01*
X75316579Y-105200170D01*
X75436322Y-105094473D01*
X75529307Y-105055003D01*
X75688519Y-105042291D01*
X75953429Y-105149321D01*
X76059126Y-105269064D01*
X76307324Y-106370839D02*
X76681931Y-105443655D01*
X76574900Y-105708565D02*
X76694643Y-105602868D01*
X76787628Y-105563398D01*
X76946840Y-105550686D01*
X77079295Y-105604201D01*
X77366963Y-106798961D02*
X77261266Y-106679218D01*
X77221796Y-106586233D01*
X77209084Y-106427021D01*
X77369629Y-106029656D01*
X77489372Y-105923959D01*
X77582357Y-105884489D01*
X77741569Y-105871777D01*
X77940252Y-105952050D01*
X78045949Y-106071792D01*
X78085419Y-106164778D01*
X78098131Y-106323990D01*
X77937585Y-106721354D01*
X77817843Y-106827052D01*
X77724857Y-106866522D01*
X77565645Y-106879234D01*
X77366963Y-106798961D01*
X78640662Y-106697263D02*
X79700301Y-107125385D01*
X80148514Y-107922781D02*
X80523121Y-106995597D01*
X80416090Y-107260506D02*
X80535833Y-107154809D01*
X80628818Y-107115339D01*
X80788031Y-107102627D01*
X80920485Y-107156142D01*
X81566048Y-108418463D02*
X81406835Y-108431175D01*
X81141926Y-108324145D01*
X81036228Y-108204402D01*
X81023516Y-108045190D01*
X81237577Y-107515370D01*
X81357320Y-107409673D01*
X81516532Y-107396961D01*
X81781442Y-107503991D01*
X81887139Y-107623734D01*
X81899851Y-107782947D01*
X81846336Y-107915401D01*
X81130547Y-107780280D01*
X82797611Y-108993085D02*
X83359521Y-107602309D01*
X82824369Y-108926858D02*
X82665156Y-108939570D01*
X82400247Y-108832540D01*
X82294549Y-108712797D01*
X82255080Y-108619812D01*
X82242367Y-108460599D01*
X82402913Y-108063235D01*
X82522656Y-107957538D01*
X82615641Y-107918068D01*
X82774853Y-107905356D01*
X83039763Y-108012386D01*
X83145460Y-108132129D01*
X83658568Y-109340934D02*
X83552870Y-109221192D01*
X83513400Y-109128206D01*
X83500688Y-108968994D01*
X83661234Y-108571630D01*
X83780977Y-108465932D01*
X83873962Y-108426462D01*
X84033174Y-108413750D01*
X84231856Y-108494023D01*
X84337554Y-108613766D01*
X84377023Y-108706751D01*
X84389736Y-108865963D01*
X84229190Y-109263328D01*
X84109447Y-109369025D01*
X84016462Y-109408495D01*
X83857250Y-109421207D01*
X83658568Y-109340934D01*
X84585751Y-109715541D02*
X85688860Y-109082691D01*
X84960358Y-108788357D02*
X85314253Y-110009875D01*
X66487959Y-104075287D02*
X66444489Y-105136259D01*
X67150233Y-104342863D01*
X68132265Y-104200363D02*
X68264720Y-104253878D01*
X68370417Y-104373620D01*
X68409887Y-104466606D01*
X68422599Y-104625818D01*
X68381796Y-104917485D01*
X68248008Y-105248622D01*
X68074750Y-105486774D01*
X67955008Y-105592472D01*
X67862023Y-105631941D01*
X67702810Y-105644654D01*
X67570355Y-105591138D01*
X67464658Y-105471396D01*
X67425188Y-105378411D01*
X67412476Y-105219198D01*
X67453279Y-104927531D01*
X67587067Y-104596394D01*
X67760325Y-104358242D01*
X67880068Y-104252545D01*
X67973053Y-104213075D01*
X68132265Y-104200363D01*
X68683509Y-105886805D02*
X68722979Y-105979790D01*
X68629994Y-106019260D01*
X68590524Y-105926275D01*
X68683509Y-105886805D01*
X68629994Y-106019260D01*
X69468193Y-105279380D02*
X69998012Y-105493441D01*
X69292268Y-106286836D02*
X69773905Y-105094743D01*
X69893648Y-104989046D01*
X70052860Y-104976333D01*
X70185315Y-105029849D01*
X70086997Y-106607928D02*
X70461604Y-105680744D01*
X70648907Y-105217152D02*
X70555922Y-105256622D01*
X70595392Y-105349607D01*
X70688377Y-105310137D01*
X70648907Y-105217152D01*
X70595392Y-105349607D01*
X70749272Y-106875504D02*
X71123878Y-105948320D01*
X71016848Y-106213230D02*
X71136590Y-106107532D01*
X71229575Y-106068063D01*
X71388788Y-106055350D01*
X71521243Y-106108866D01*
X71570758Y-107130368D02*
X71676455Y-107250110D01*
X71941365Y-107357141D01*
X72100578Y-107344429D01*
X72220320Y-107238732D01*
X72247078Y-107172504D01*
X72234366Y-107013292D01*
X72128668Y-106893549D01*
X71929986Y-106813276D01*
X71824289Y-106693534D01*
X71811577Y-106534321D01*
X71838334Y-106468094D01*
X71958077Y-106362396D01*
X72117289Y-106349684D01*
X72315972Y-106429957D01*
X72421669Y-106549700D01*
X72912018Y-106670776D02*
X73441838Y-106884836D01*
X73298004Y-106287457D02*
X72816367Y-107479550D01*
X72829079Y-107638762D01*
X72934776Y-107758505D01*
X73067231Y-107812020D01*
X73584338Y-107866869D02*
X73623808Y-107959854D01*
X73530823Y-107999324D01*
X73491353Y-107906339D01*
X73584338Y-107866869D01*
X73530823Y-107999324D01*
X74369022Y-107259443D02*
X74898841Y-107473504D01*
X74755007Y-106876124D02*
X74273370Y-108068218D01*
X74286082Y-108227430D01*
X74391780Y-108347173D01*
X74524234Y-108400688D01*
X74987826Y-108587991D02*
X75362433Y-107660807D01*
X75255402Y-107925717D02*
X75375145Y-107820020D01*
X75468130Y-107780550D01*
X75627343Y-107767838D01*
X75759797Y-107821353D01*
X76090934Y-107955141D02*
X76047465Y-109016113D01*
X76753209Y-108222717D02*
X76047465Y-109016113D01*
X75781222Y-109293735D01*
X75688237Y-109333205D01*
X75529025Y-109345917D01*
X63800443Y-106818259D02*
X64362353Y-105427483D01*
X64148292Y-105957302D02*
X64307505Y-105944590D01*
X64572414Y-106051621D01*
X64678112Y-106171363D01*
X64717581Y-106264348D01*
X64730294Y-106423561D01*
X64569748Y-106820925D01*
X64450005Y-106926623D01*
X64357020Y-106966092D01*
X64197808Y-106978805D01*
X63932898Y-106871774D01*
X63827201Y-106752031D01*
X65300916Y-106345954D02*
X65257446Y-107406926D01*
X65963190Y-106613531D02*
X65257446Y-107406926D01*
X64991203Y-107684548D01*
X64898218Y-107724018D01*
X64739006Y-107736730D01*
X67178042Y-108182897D02*
X67552648Y-107255713D01*
X67499133Y-107388168D02*
X67592118Y-107348698D01*
X67751330Y-107335986D01*
X67950013Y-107416259D01*
X68055710Y-107536002D01*
X68068422Y-107695214D01*
X67774088Y-108423716D01*
X68068422Y-107695214D02*
X68188165Y-107589517D01*
X68347377Y-107576805D01*
X68546059Y-107657077D01*
X68651757Y-107776820D01*
X68664469Y-107936033D01*
X68370135Y-108664534D01*
X69628456Y-109172929D02*
X69922790Y-108444427D01*
X69910078Y-108285215D01*
X69804380Y-108165472D01*
X69539471Y-108058442D01*
X69380258Y-108071154D01*
X69655214Y-109106701D02*
X69496001Y-109119414D01*
X69164864Y-108985626D01*
X69059167Y-108865883D01*
X69046455Y-108706670D01*
X69099970Y-108574216D01*
X69219713Y-108468518D01*
X69378925Y-108455806D01*
X69710062Y-108589594D01*
X69869275Y-108576882D01*
X70290730Y-109440505D02*
X70852640Y-108049729D01*
X70637246Y-108964201D02*
X70820550Y-109654566D01*
X71195156Y-108727382D02*
X70451276Y-109043140D01*
X71973173Y-110043218D02*
X71813961Y-110055930D01*
X71549051Y-109948900D01*
X71443354Y-109829157D01*
X71430642Y-109669945D01*
X71644703Y-109140125D01*
X71764445Y-109034428D01*
X71923658Y-109021716D01*
X72188567Y-109128746D01*
X72294265Y-109248489D01*
X72306977Y-109407701D01*
X72253462Y-109540156D01*
X71537672Y-109405035D01*
X72983296Y-109449838D02*
X72608690Y-110377021D01*
X72929781Y-109582292D02*
X73022766Y-109542823D01*
X73181979Y-109530110D01*
X73380661Y-109610383D01*
X73486358Y-109730126D01*
X73499070Y-109889338D01*
X73204737Y-110617840D01*
X74065693Y-110965689D02*
X73959996Y-110845946D01*
X73920526Y-110752961D01*
X73907814Y-110593749D01*
X74068359Y-110196384D01*
X74188102Y-110090687D01*
X74281087Y-110051217D01*
X74440300Y-110038505D01*
X74638982Y-110118778D01*
X74744679Y-110238521D01*
X74784149Y-110331506D01*
X74796861Y-110490718D01*
X74636315Y-110888083D01*
X74516573Y-110993780D01*
X74423588Y-111033250D01*
X74264375Y-111045962D01*
X74065693Y-110965689D01*
X75367483Y-110413112D02*
X75324014Y-111474084D01*
X76029758Y-110680688D01*
X76781017Y-112062751D02*
X77075351Y-111334250D01*
X77062639Y-111175037D01*
X76956941Y-111055294D01*
X76692032Y-110948264D01*
X76532819Y-110960976D01*
X76807775Y-111996524D02*
X76648562Y-112009236D01*
X76317425Y-111875448D01*
X76211728Y-111755705D01*
X76199016Y-111596493D01*
X76252531Y-111464038D01*
X76372274Y-111358341D01*
X76531486Y-111345628D01*
X76862623Y-111479417D01*
X77021836Y-111466704D01*
D12*
X195935441Y-64795541D02*
X195560835Y-63868357D01*
X200805327Y-76848931D02*
X201732511Y-76474325D01*
X196488019Y-63493751D02*
X195560835Y-63868357D01*
X200805327Y-76848931D02*
X200430721Y-75921747D01*
X213411295Y-70677255D02*
X213785901Y-71604439D01*
X208541409Y-58623865D02*
X207614225Y-58998471D01*
X212858717Y-71979045D02*
X213785901Y-71604439D01*
X208541409Y-58623865D02*
X208916015Y-59551049D01*
D13*
X139474365Y-124505398D02*
G75*
G03*
X139474365Y-124505398I-3000000J0D01*
G01*
X138474365Y-118605398D02*
X142574365Y-118605398D01*
X142574365Y-130405398D02*
X138474365Y-130405398D01*
X134474365Y-130405398D02*
X130374365Y-130405398D01*
X134474365Y-118605398D02*
X130374365Y-118605398D01*
X130374365Y-118605398D02*
X130374365Y-130405398D01*
X128974365Y-120705398D02*
X128674365Y-120405398D01*
X128674365Y-120405398D02*
X129274365Y-120405398D01*
X129274365Y-120405398D02*
X128974365Y-120705398D01*
X142574365Y-118605398D02*
X142574365Y-121005398D01*
X142574365Y-123205398D02*
X142574365Y-125805398D01*
X142574365Y-128005398D02*
X142574365Y-130405398D01*
X136474365Y-124005398D02*
X136474365Y-125005398D01*
X135974365Y-124505398D02*
X136974365Y-124505398D01*
X133075868Y-87076399D02*
X133075868Y-91576399D01*
X133075868Y-91576399D02*
X138475868Y-91576399D01*
D12*
X141839865Y-109233399D02*
X141839865Y-108658399D01*
X131489865Y-109233399D02*
X131489865Y-108558399D01*
X131489865Y-98883399D02*
X131489865Y-99558399D01*
X141839865Y-98883399D02*
X141839865Y-99558399D01*
X141839865Y-109233399D02*
X141164865Y-109233399D01*
X141839865Y-98883399D02*
X141164865Y-98883399D01*
X131489865Y-98883399D02*
X132164865Y-98883399D01*
X131489865Y-109233399D02*
X132164865Y-109233399D01*
X141839865Y-108658399D02*
X143114865Y-108658399D01*
X137274362Y-77439400D02*
X137274362Y-80639400D01*
X135674362Y-77439400D02*
X135674362Y-80639400D01*
X135674362Y-80639400D02*
X137274362Y-80639400D01*
X137674362Y-80639400D02*
X137974362Y-80639400D01*
X135674362Y-77439400D02*
X137274362Y-77439400D01*
D13*
X105511177Y-116850206D02*
X105262517Y-116264401D01*
X102358752Y-115576544D02*
X102944557Y-115327884D01*
X100635561Y-119841590D02*
X100884221Y-120427395D01*
X103787986Y-121115252D02*
X103202181Y-121363912D01*
X100149007Y-118242914D02*
X100898220Y-116388546D01*
X105262517Y-116264401D02*
X102944557Y-115327884D01*
X105248518Y-120303250D02*
X105997731Y-118448882D01*
X103202181Y-121363912D02*
X100884221Y-120427395D01*
X127884385Y-111985829D02*
X127884385Y-111463325D01*
X129304385Y-111985829D02*
X129304385Y-111463325D01*
X140105365Y-78905148D02*
X140105365Y-79427652D01*
X138685365Y-78905148D02*
X138685365Y-79427652D01*
X132843369Y-79364147D02*
X132843369Y-78841643D01*
X134263369Y-79364147D02*
X134263369Y-78841643D01*
X132906866Y-68124653D02*
X132906866Y-67602149D01*
X134326866Y-68124653D02*
X134326866Y-67602149D01*
X137034365Y-67108651D02*
X137034365Y-66586147D01*
X138454365Y-67108651D02*
X138454365Y-66586147D01*
X109953066Y-119908069D02*
X109757333Y-120392526D01*
X108636465Y-119376128D02*
X108440732Y-119860585D01*
X141452841Y-113284811D02*
X141452841Y-115944811D01*
X141452841Y-115944811D02*
X154212841Y-115944811D01*
X154212841Y-115944811D02*
X154212841Y-113284811D01*
X154212841Y-113284811D02*
X141452841Y-113284811D01*
X155482841Y-113284811D02*
X156812841Y-113284811D01*
X156812841Y-113284811D02*
X156812841Y-114614811D01*
X137786869Y-74243958D02*
X137786869Y-73039830D01*
X139606869Y-74243958D02*
X139606869Y-73039830D01*
X140680825Y-112538156D02*
X140158321Y-112538156D01*
X140680825Y-111118156D02*
X140158321Y-111118156D01*
X127942303Y-99757755D02*
X127942303Y-99235251D01*
X129362303Y-99757755D02*
X129362303Y-99235251D01*
X147631551Y-106978002D02*
X148154055Y-106978002D01*
X147631551Y-108398002D02*
X148154055Y-108398002D01*
X132137551Y-111677001D02*
X132660055Y-111677001D01*
X132137551Y-113097001D02*
X132660055Y-113097001D01*
X145224133Y-104433577D02*
X145746637Y-104433577D01*
X145224133Y-103013577D02*
X145746637Y-103013577D01*
X140676867Y-89128647D02*
X140676867Y-89651151D01*
X139256867Y-89128647D02*
X139256867Y-89651151D01*
X130747870Y-89587650D02*
X130747870Y-89065146D01*
X132167870Y-89587650D02*
X132167870Y-89065146D01*
D12*
X177946030Y-123799292D02*
X177344215Y-123000657D01*
X185769626Y-134181554D02*
X186568261Y-133579739D01*
X178142851Y-122398842D02*
X177344215Y-123000657D01*
X185769626Y-134181554D02*
X185167811Y-133382918D01*
X196348708Y-124957508D02*
X196950523Y-125756143D01*
X188525112Y-114575246D02*
X187726477Y-115177061D01*
X196151887Y-126357958D02*
X196950523Y-125756143D01*
X188525112Y-114575246D02*
X189126927Y-115373882D01*
X159650070Y-137139300D02*
X158878445Y-136503222D01*
X169681190Y-145408317D02*
X170317268Y-144636692D01*
X159514524Y-135731597D02*
X158878445Y-136503222D01*
X169681190Y-145408317D02*
X168909565Y-144772238D01*
X177814660Y-133969494D02*
X178586285Y-134605572D01*
X167783540Y-125700477D02*
X167147462Y-126472102D01*
X177950206Y-135377197D02*
X178586285Y-134605572D01*
X167783540Y-125700477D02*
X168555165Y-126336556D01*
X104393569Y-126273059D02*
X105165194Y-125636980D01*
X94362449Y-134542075D02*
X94998528Y-135313700D01*
X105801272Y-126408605D02*
X105165194Y-125636980D01*
X94362449Y-134542075D02*
X95134074Y-133905997D01*
X104039169Y-144708741D02*
X103267544Y-145344820D01*
X114070289Y-136439725D02*
X113434210Y-135668100D01*
X102631466Y-144573195D02*
X103267544Y-145344820D01*
X114070289Y-136439725D02*
X113298664Y-137075803D01*
X83821807Y-115373879D02*
X84423622Y-114575243D01*
X75998211Y-125756140D02*
X76796847Y-126357955D01*
X85222257Y-115177058D02*
X84423622Y-114575243D01*
X75998211Y-125756140D02*
X76600026Y-124957505D01*
X87780923Y-133382915D02*
X87179108Y-134181551D01*
X95604519Y-123000654D02*
X94805883Y-122398839D01*
X86380473Y-133579736D02*
X87179108Y-134181551D01*
X95604519Y-123000654D02*
X95002704Y-123799289D01*
X220763939Y-78257540D02*
X220389333Y-77330356D01*
X225633825Y-90310930D02*
X226561009Y-89936324D01*
X221316517Y-76955750D02*
X220389333Y-77330356D01*
X225633825Y-90310930D02*
X225259219Y-89383746D01*
X238239793Y-84139254D02*
X238614399Y-85066438D01*
X233369907Y-72085864D02*
X232442723Y-72460470D01*
X237687215Y-85441044D02*
X238614399Y-85066438D01*
X233369907Y-72085864D02*
X233744513Y-73013048D01*
X202285438Y-80607043D02*
X201910832Y-79679859D01*
X207155324Y-92660433D02*
X208082508Y-92285827D01*
X202838016Y-79305253D02*
X201910832Y-79679859D01*
X207155324Y-92660433D02*
X206780718Y-91733249D01*
X219761292Y-86488757D02*
X220135898Y-87415941D01*
X214891406Y-74435367D02*
X213964222Y-74809973D01*
X219208714Y-87790547D02*
X220135898Y-87415941D01*
X214891406Y-74435367D02*
X215266012Y-75362551D01*
X184695940Y-85115541D02*
X184321334Y-84188357D01*
X189565826Y-97168931D02*
X190493010Y-96794325D01*
X185248518Y-83813751D02*
X184321334Y-84188357D01*
X189565826Y-97168931D02*
X189191220Y-96241747D01*
X202171794Y-90997255D02*
X202546400Y-91924439D01*
X197301908Y-78943865D02*
X196374724Y-79318471D01*
X201619216Y-92299045D02*
X202546400Y-91924439D01*
X197301908Y-78943865D02*
X197676514Y-79871049D01*
X168947939Y-94069045D02*
X168573333Y-93141861D01*
X173817825Y-106122435D02*
X174745009Y-105747829D01*
X169500517Y-92767255D02*
X168573333Y-93141861D01*
X173817825Y-106122435D02*
X173443219Y-105195251D01*
X186423793Y-99950759D02*
X186798399Y-100877943D01*
X181553907Y-87897369D02*
X180626723Y-88271975D01*
X185871215Y-101252549D02*
X186798399Y-100877943D01*
X181553907Y-87897369D02*
X181928513Y-88824553D01*
X153136440Y-103022540D02*
X152761834Y-102095356D01*
X158006326Y-115075930D02*
X158933510Y-114701324D01*
X153689018Y-101720750D02*
X152761834Y-102095356D01*
X158006326Y-115075930D02*
X157631720Y-114148746D01*
X170612294Y-108904254D02*
X170986900Y-109831438D01*
X165742408Y-96850864D02*
X164815224Y-97225470D01*
X170059716Y-110206044D02*
X170986900Y-109831438D01*
X165742408Y-96850864D02*
X166117014Y-97778048D01*
X106895223Y-97778049D02*
X107269829Y-96850865D01*
X102025337Y-109831439D02*
X102952521Y-110206045D01*
X108197013Y-97225471D02*
X107269829Y-96850865D01*
X102025337Y-109831439D02*
X102399943Y-108904255D01*
X115380517Y-114148747D02*
X115005911Y-115075931D01*
X120250403Y-102095357D02*
X119323219Y-101720751D01*
X114078727Y-114701325D02*
X115005911Y-115075931D01*
X120250403Y-102095357D02*
X119875797Y-103022541D01*
X91083721Y-88824547D02*
X91458327Y-87897363D01*
X86213835Y-100877937D02*
X87141019Y-101252543D01*
X92385511Y-88271969D02*
X91458327Y-87897363D01*
X86213835Y-100877937D02*
X86588441Y-99950753D01*
X99569015Y-105195245D02*
X99194409Y-106122429D01*
X104438901Y-93141855D02*
X103511717Y-92767249D01*
X98267225Y-105747823D02*
X99194409Y-106122429D01*
X104438901Y-93141855D02*
X104064295Y-94069039D01*
X75272221Y-79871048D02*
X75646827Y-78943864D01*
X70402335Y-91924438D02*
X71329519Y-92299044D01*
X76574011Y-79318470D02*
X75646827Y-78943864D01*
X70402335Y-91924438D02*
X70776941Y-90997254D01*
X83757515Y-96241746D02*
X83382909Y-97168930D01*
X88627401Y-84188356D02*
X87700217Y-83813750D01*
X82455725Y-96794324D02*
X83382909Y-97168930D01*
X88627401Y-84188356D02*
X88252795Y-85115540D01*
X57682724Y-75362551D02*
X58057330Y-74435367D01*
X52812838Y-87415941D02*
X53740022Y-87790547D01*
X58984514Y-74809973D02*
X58057330Y-74435367D01*
X52812838Y-87415941D02*
X53187444Y-86488757D01*
X66168018Y-91733249D02*
X65793412Y-92660433D01*
X71037904Y-79679859D02*
X70110720Y-79305253D01*
X64866228Y-92285827D02*
X65793412Y-92660433D01*
X71037904Y-79679859D02*
X70663298Y-80607043D01*
X39204217Y-73013054D02*
X39578823Y-72085870D01*
X34334331Y-85066444D02*
X35261515Y-85441050D01*
X40506007Y-72460476D02*
X39578823Y-72085870D01*
X34334331Y-85066444D02*
X34708937Y-84139260D01*
X47689511Y-89383752D02*
X47314905Y-90310936D01*
X52559397Y-77330362D02*
X51632213Y-76955756D01*
X46387721Y-89936330D02*
X47314905Y-90310936D01*
X52559397Y-77330362D02*
X52184791Y-78257546D01*
X214413941Y-62509539D02*
X214039335Y-61582355D01*
X219283827Y-74562929D02*
X220211011Y-74188323D01*
X214966519Y-61207749D02*
X214039335Y-61582355D01*
X219283827Y-74562929D02*
X218909221Y-73635745D01*
X231889795Y-68391253D02*
X232264401Y-69318437D01*
X227019909Y-56337863D02*
X226092725Y-56712469D01*
X231337217Y-69693043D02*
X232264401Y-69318437D01*
X227019909Y-56337863D02*
X227394515Y-57265047D01*
X178345940Y-69367542D02*
X177971334Y-68440358D01*
X183215826Y-81420932D02*
X184143010Y-81046326D01*
X178898518Y-68065752D02*
X177971334Y-68440358D01*
X183215826Y-81420932D02*
X182841220Y-80493748D01*
X195821794Y-75249256D02*
X196196400Y-76176440D01*
X190951908Y-63195866D02*
X190024724Y-63570472D01*
X195269216Y-76551046D02*
X196196400Y-76176440D01*
X190951908Y-63195866D02*
X191326514Y-64123050D01*
X162597940Y-78321044D02*
X162223334Y-77393860D01*
X167467826Y-90374434D02*
X168395010Y-89999828D01*
X163150518Y-77019254D02*
X162223334Y-77393860D01*
X167467826Y-90374434D02*
X167093220Y-89447250D01*
X180073794Y-84202758D02*
X180448400Y-85129942D01*
X175203908Y-72149368D02*
X174276724Y-72523974D01*
X179521216Y-85504548D02*
X180448400Y-85129942D01*
X175203908Y-72149368D02*
X175578514Y-73076552D01*
X146722936Y-87211044D02*
X146348330Y-86283860D01*
X151592822Y-99264434D02*
X152520006Y-98889828D01*
X147275514Y-85909254D02*
X146348330Y-86283860D01*
X151592822Y-99264434D02*
X151218216Y-98337250D01*
X164198790Y-93092758D02*
X164573396Y-94019942D01*
X159328904Y-81039368D02*
X158401720Y-81413974D01*
X163646212Y-94394548D02*
X164573396Y-94019942D01*
X159328904Y-81039368D02*
X159703510Y-81966552D01*
X113245220Y-82030053D02*
X113619826Y-81102869D01*
X108375334Y-94083443D02*
X109302518Y-94458049D01*
X114547010Y-81477475D02*
X113619826Y-81102869D01*
X108375334Y-94083443D02*
X108749940Y-93156259D01*
X121730514Y-98400751D02*
X121355908Y-99327935D01*
X126600400Y-86347361D02*
X125673216Y-85972755D01*
X120428724Y-98953329D02*
X121355908Y-99327935D01*
X126600400Y-86347361D02*
X126225794Y-87274545D01*
X97433719Y-73076551D02*
X97808325Y-72149367D01*
X92563833Y-85129941D02*
X93491017Y-85504547D01*
X98735509Y-72523973D02*
X97808325Y-72149367D01*
X92563833Y-85129941D02*
X92938439Y-84202757D01*
X105919013Y-89447249D02*
X105544407Y-90374433D01*
X110788899Y-77393859D02*
X109861715Y-77019253D01*
X104617223Y-89999827D02*
X105544407Y-90374433D01*
X110788899Y-77393859D02*
X110414293Y-78321043D01*
X81685720Y-64123048D02*
X82060326Y-63195864D01*
X76815834Y-76176438D02*
X77743018Y-76551044D01*
X82987510Y-63570470D02*
X82060326Y-63195864D01*
X76815834Y-76176438D02*
X77190440Y-75249254D01*
X90171014Y-80493746D02*
X89796408Y-81420930D01*
X95040900Y-68440356D02*
X94113716Y-68065750D01*
X88869224Y-81046324D02*
X89796408Y-81420930D01*
X95040900Y-68440356D02*
X94666294Y-69367540D01*
X64096220Y-59551048D02*
X64470826Y-58623864D01*
X59226334Y-71604438D02*
X60153518Y-71979044D01*
X65398010Y-58998470D02*
X64470826Y-58623864D01*
X59226334Y-71604438D02*
X59600940Y-70677254D01*
X72581514Y-75921746D02*
X72206908Y-76848930D01*
X77451400Y-63868356D02*
X76524216Y-63493750D01*
X71279724Y-76474324D02*
X72206908Y-76848930D01*
X77451400Y-63868356D02*
X77076794Y-64795540D01*
X45617718Y-57265050D02*
X45992324Y-56337866D01*
X40747832Y-69318440D02*
X41675016Y-69693046D01*
X46919508Y-56712472D02*
X45992324Y-56337866D01*
X40747832Y-69318440D02*
X41122438Y-68391256D01*
X54103012Y-73635748D02*
X53728406Y-74562932D01*
X58972898Y-61582358D02*
X58045714Y-61207752D01*
X52801222Y-74188326D02*
X53728406Y-74562932D01*
X58972898Y-61582358D02*
X58598292Y-62509542D01*
X208063938Y-46698039D02*
X207689332Y-45770855D01*
X212933824Y-58751429D02*
X213861008Y-58376823D01*
X208616516Y-45396249D02*
X207689332Y-45770855D01*
X212933824Y-58751429D02*
X212559218Y-57824245D01*
X225539792Y-52579753D02*
X225914398Y-53506937D01*
X220669906Y-40526363D02*
X219742722Y-40900969D01*
X224987214Y-53881543D02*
X225914398Y-53506937D01*
X220669906Y-40526363D02*
X221044512Y-41453547D01*
X189585443Y-49047541D02*
X189210837Y-48120357D01*
X194455329Y-61100931D02*
X195382513Y-60726325D01*
X190138021Y-47745751D02*
X189210837Y-48120357D01*
X194455329Y-61100931D02*
X194080723Y-60173747D01*
X207061297Y-54929255D02*
X207435903Y-55856439D01*
X202191411Y-42875865D02*
X201264227Y-43250471D01*
X206508719Y-56231045D02*
X207435903Y-55856439D01*
X202191411Y-42875865D02*
X202566017Y-43803049D01*
X171995939Y-53556042D02*
X171621333Y-52628858D01*
X176865825Y-65609432D02*
X177793009Y-65234826D01*
X172548517Y-52254252D02*
X171621333Y-52628858D01*
X176865825Y-65609432D02*
X176491219Y-64682248D01*
X189471793Y-59437756D02*
X189846399Y-60364940D01*
X184601907Y-47384366D02*
X183674723Y-47758972D01*
X188919215Y-60739546D02*
X189846399Y-60364940D01*
X184601907Y-47384366D02*
X184976513Y-48311550D01*
X156247939Y-62509543D02*
X155873333Y-61582359D01*
X161117825Y-74562933D02*
X162045009Y-74188327D01*
X156800517Y-61207753D02*
X155873333Y-61582359D01*
X161117825Y-74562933D02*
X160743219Y-73635749D01*
X173723793Y-68391257D02*
X174098399Y-69318441D01*
X168853907Y-56337867D02*
X167926723Y-56712473D01*
X173171215Y-69693047D02*
X174098399Y-69318441D01*
X168853907Y-56337867D02*
X169228513Y-57265051D01*
X140372942Y-71463042D02*
X139998336Y-70535858D01*
X145242828Y-83516432D02*
X146170012Y-83141826D01*
X140925520Y-70161252D02*
X139998336Y-70535858D01*
X145242828Y-83516432D02*
X144868222Y-82589248D01*
X157848796Y-77344756D02*
X158223402Y-78271940D01*
X152978910Y-65291366D02*
X152051726Y-65665972D01*
X157296218Y-78646546D02*
X158223402Y-78271940D01*
X152978910Y-65291366D02*
X153353516Y-66218550D01*
X119595220Y-66218550D02*
X119969826Y-65291366D01*
X114725334Y-78271940D02*
X115652518Y-78646546D01*
X120897010Y-65665972D02*
X119969826Y-65291366D01*
X114725334Y-78271940D02*
X115099940Y-77344756D01*
X128080514Y-82589248D02*
X127705908Y-83516432D01*
X132950400Y-70535858D02*
X132023216Y-70161252D01*
X126778724Y-83141826D02*
X127705908Y-83516432D01*
X132950400Y-70535858D02*
X132575794Y-71463042D01*
X103847219Y-57265049D02*
X104221825Y-56337865D01*
X98977333Y-69318439D02*
X99904517Y-69693045D01*
X105149009Y-56712471D02*
X104221825Y-56337865D01*
X98977333Y-69318439D02*
X99351939Y-68391255D01*
X112332513Y-73635747D02*
X111957907Y-74562931D01*
X117202399Y-61582357D02*
X116275215Y-61207751D01*
X111030723Y-74188325D02*
X111957907Y-74562931D01*
X117202399Y-61582357D02*
X116827793Y-62509541D01*
X88035720Y-48375049D02*
X88410326Y-47447865D01*
X83165834Y-60428439D02*
X84093018Y-60803045D01*
X89337510Y-47822471D02*
X88410326Y-47447865D01*
X83165834Y-60428439D02*
X83540440Y-59501255D01*
X96521014Y-64745747D02*
X96146408Y-65672931D01*
X101390900Y-52692357D02*
X100463716Y-52317751D01*
X95219224Y-65298325D02*
X96146408Y-65672931D01*
X101390900Y-52692357D02*
X101016294Y-53619541D01*
X70446218Y-43803049D02*
X70820824Y-42875865D01*
X65576332Y-55856439D02*
X66503516Y-56231045D01*
X71748008Y-43250471D02*
X70820824Y-42875865D01*
X65576332Y-55856439D02*
X65950938Y-54929255D01*
X78931512Y-60173747D02*
X78556906Y-61100931D01*
X83801398Y-48120357D02*
X82874214Y-47745751D01*
X77629722Y-60726325D02*
X78556906Y-61100931D01*
X83801398Y-48120357D02*
X83426792Y-49047541D01*
X51967720Y-41517048D02*
X52342326Y-40589864D01*
X47097834Y-53570438D02*
X48025018Y-53945044D01*
X53269510Y-40964470D02*
X52342326Y-40589864D01*
X47097834Y-53570438D02*
X47472440Y-52643254D01*
X60453014Y-57887746D02*
X60078408Y-58814930D01*
X65322900Y-45834356D02*
X64395716Y-45459750D01*
X59151224Y-58440324D02*
X60078408Y-58814930D01*
X65322900Y-45834356D02*
X64948294Y-46761540D01*
D14*
X143864594Y-112217036D02*
X143864594Y-111217036D01*
X144245547Y-111217036D01*
X144340785Y-111264656D01*
X144388404Y-111312275D01*
X144436023Y-111407513D01*
X144436023Y-111550370D01*
X144388404Y-111645608D01*
X144340785Y-111693227D01*
X144245547Y-111740846D01*
X143864594Y-111740846D01*
X144864594Y-111693227D02*
X145197928Y-111693227D01*
X145340785Y-112217036D02*
X144864594Y-112217036D01*
X144864594Y-111217036D01*
X145340785Y-111217036D01*
X146197928Y-111217036D02*
X146007451Y-111217036D01*
X145912213Y-111264656D01*
X145864594Y-111312275D01*
X145769356Y-111455132D01*
X145721737Y-111645608D01*
X145721737Y-112026560D01*
X145769356Y-112121798D01*
X145816975Y-112169417D01*
X145912213Y-112217036D01*
X146102690Y-112217036D01*
X146197928Y-112169417D01*
X146245547Y-112121798D01*
X146293166Y-112026560D01*
X146293166Y-111788465D01*
X146245547Y-111693227D01*
X146197928Y-111645608D01*
X146102690Y-111597989D01*
X145912213Y-111597989D01*
X145816975Y-111645608D01*
X145769356Y-111693227D01*
X145721737Y-111788465D01*
X147866790Y-101572458D02*
X147866790Y-100572458D01*
X148247743Y-100572458D01*
X148342981Y-100620078D01*
X148390600Y-100667697D01*
X148438219Y-100762935D01*
X148438219Y-100905792D01*
X148390600Y-101001030D01*
X148342981Y-101048649D01*
X148247743Y-101096268D01*
X147866790Y-101096268D01*
X149200124Y-101048649D02*
X149342981Y-101096268D01*
X149390600Y-101143887D01*
X149438219Y-101239125D01*
X149438219Y-101381982D01*
X149390600Y-101477220D01*
X149342981Y-101524839D01*
X149247743Y-101572458D01*
X148866790Y-101572458D01*
X148866790Y-100572458D01*
X149200124Y-100572458D01*
X149295362Y-100620078D01*
X149342981Y-100667697D01*
X149390600Y-100762935D01*
X149390600Y-100858173D01*
X149342981Y-100953411D01*
X149295362Y-101001030D01*
X149200124Y-101048649D01*
X148866790Y-101048649D01*
X150057266Y-100572458D02*
X150152505Y-100572458D01*
X150247743Y-100620078D01*
X150295362Y-100667697D01*
X150342981Y-100762935D01*
X150390600Y-100953411D01*
X150390600Y-101191506D01*
X150342981Y-101381982D01*
X150295362Y-101477220D01*
X150247743Y-101524839D01*
X150152505Y-101572458D01*
X150057266Y-101572458D01*
X149962028Y-101524839D01*
X149914409Y-101477220D01*
X149866790Y-101381982D01*
X149819171Y-101191506D01*
X149819171Y-100953411D01*
X149866790Y-100762935D01*
X149914409Y-100667697D01*
X149962028Y-100620078D01*
X150057266Y-100572458D01*
X120983170Y-110748220D02*
X120935551Y-110795839D01*
X120792694Y-110843458D01*
X120697456Y-110843458D01*
X120554599Y-110795839D01*
X120459361Y-110700601D01*
X120411742Y-110605363D01*
X120364123Y-110414887D01*
X120364123Y-110272030D01*
X120411742Y-110081554D01*
X120459361Y-109986316D01*
X120554599Y-109891078D01*
X120697456Y-109843458D01*
X120792694Y-109843458D01*
X120935551Y-109891078D01*
X120983170Y-109938697D01*
X121554599Y-110843458D02*
X121459361Y-110795839D01*
X121411742Y-110748220D01*
X121364123Y-110652982D01*
X121364123Y-110367268D01*
X121411742Y-110272030D01*
X121459361Y-110224411D01*
X121554599Y-110176792D01*
X121697456Y-110176792D01*
X121792694Y-110224411D01*
X121840313Y-110272030D01*
X121887932Y-110367268D01*
X121887932Y-110652982D01*
X121840313Y-110748220D01*
X121792694Y-110795839D01*
X121697456Y-110843458D01*
X121554599Y-110843458D01*
X122316504Y-110176792D02*
X122316504Y-110843458D01*
X122316504Y-110272030D02*
X122364123Y-110224411D01*
X122459361Y-110176792D01*
X122602218Y-110176792D01*
X122697456Y-110224411D01*
X122745075Y-110319649D01*
X122745075Y-110843458D01*
X123221265Y-110176792D02*
X123221265Y-110843458D01*
X123221265Y-110272030D02*
X123268885Y-110224411D01*
X123364123Y-110176792D01*
X123506980Y-110176792D01*
X123602218Y-110224411D01*
X123649837Y-110319649D01*
X123649837Y-110843458D01*
X123887932Y-110938697D02*
X124649837Y-110938697D01*
X125078408Y-109843458D02*
X125173646Y-109843458D01*
X125268885Y-109891078D01*
X125316504Y-109938697D01*
X125364123Y-110033935D01*
X125411742Y-110224411D01*
X125411742Y-110462506D01*
X125364123Y-110652982D01*
X125316504Y-110748220D01*
X125268885Y-110795839D01*
X125173646Y-110843458D01*
X125078408Y-110843458D01*
X124983170Y-110795839D01*
X124935551Y-110748220D01*
X124887932Y-110652982D01*
X124840313Y-110462506D01*
X124840313Y-110224411D01*
X124887932Y-110033935D01*
X124935551Y-109938697D01*
X124983170Y-109891078D01*
X125078408Y-109843458D01*
X126364123Y-110843458D02*
X125792694Y-110843458D01*
X126078408Y-110843458D02*
X126078408Y-109843458D01*
X125983170Y-109986316D01*
X125887932Y-110081554D01*
X125792694Y-110129173D01*
X126697456Y-110843458D02*
X127221265Y-110176792D01*
X126697456Y-110176792D02*
X127221265Y-110843458D01*
X127792694Y-109843458D02*
X127887932Y-109843458D01*
X127983170Y-109891078D01*
X128030789Y-109938697D01*
X128078408Y-110033935D01*
X128126027Y-110224411D01*
X128126027Y-110462506D01*
X128078408Y-110652982D01*
X128030789Y-110748220D01*
X127983170Y-110795839D01*
X127887932Y-110843458D01*
X127792694Y-110843458D01*
X127697456Y-110795839D01*
X127649837Y-110748220D01*
X127602218Y-110652982D01*
X127554599Y-110462506D01*
X127554599Y-110224411D01*
X127602218Y-110033935D01*
X127649837Y-109938697D01*
X127697456Y-109891078D01*
X127792694Y-109843458D01*
X129078408Y-110843458D02*
X128506980Y-110843458D01*
X128792694Y-110843458D02*
X128792694Y-109843458D01*
X128697456Y-109986316D01*
X128602218Y-110081554D01*
X128506980Y-110129173D01*
X129268885Y-110938697D02*
X130030789Y-110938697D01*
X130602218Y-110319649D02*
X130268885Y-110319649D01*
X130268885Y-110843458D02*
X130268885Y-109843458D01*
X130745075Y-109843458D01*
X131506980Y-110795839D02*
X131411742Y-110843458D01*
X131221265Y-110843458D01*
X131126027Y-110795839D01*
X131078408Y-110700601D01*
X131078408Y-110319649D01*
X131126027Y-110224411D01*
X131221265Y-110176792D01*
X131411742Y-110176792D01*
X131506980Y-110224411D01*
X131554599Y-110319649D01*
X131554599Y-110414887D01*
X131078408Y-110510125D01*
X131983170Y-110843458D02*
X131983170Y-110176792D01*
X131983170Y-110272030D02*
X132030789Y-110224411D01*
X132126027Y-110176792D01*
X132268885Y-110176792D01*
X132364123Y-110224411D01*
X132411742Y-110319649D01*
X132411742Y-110843458D01*
X132411742Y-110319649D02*
X132459361Y-110224411D01*
X132554599Y-110176792D01*
X132697456Y-110176792D01*
X132792694Y-110224411D01*
X132840313Y-110319649D01*
X132840313Y-110843458D01*
X133745075Y-110843458D02*
X133745075Y-110319649D01*
X133697456Y-110224411D01*
X133602218Y-110176792D01*
X133411742Y-110176792D01*
X133316504Y-110224411D01*
X133745075Y-110795839D02*
X133649837Y-110843458D01*
X133411742Y-110843458D01*
X133316504Y-110795839D01*
X133268885Y-110700601D01*
X133268885Y-110605363D01*
X133316504Y-110510125D01*
X133411742Y-110462506D01*
X133649837Y-110462506D01*
X133745075Y-110414887D01*
X134364123Y-110843458D02*
X134268885Y-110795839D01*
X134221265Y-110700601D01*
X134221265Y-109843458D01*
X135126027Y-110795839D02*
X135030789Y-110843458D01*
X134840313Y-110843458D01*
X134745075Y-110795839D01*
X134697456Y-110700601D01*
X134697456Y-110319649D01*
X134745075Y-110224411D01*
X134840313Y-110176792D01*
X135030789Y-110176792D01*
X135126027Y-110224411D01*
X135173646Y-110319649D01*
X135173646Y-110414887D01*
X134697456Y-110510125D01*
X124943289Y-107096958D02*
X124943289Y-106096958D01*
X125324242Y-106096958D01*
X125419480Y-106144578D01*
X125467099Y-106192197D01*
X125514718Y-106287435D01*
X125514718Y-106430292D01*
X125467099Y-106525530D01*
X125419480Y-106573149D01*
X125324242Y-106620768D01*
X124943289Y-106620768D01*
X126514718Y-107001720D02*
X126467099Y-107049339D01*
X126324242Y-107096958D01*
X126229004Y-107096958D01*
X126086146Y-107049339D01*
X125990908Y-106954101D01*
X125943289Y-106858863D01*
X125895670Y-106668387D01*
X125895670Y-106525530D01*
X125943289Y-106335054D01*
X125990908Y-106239816D01*
X126086146Y-106144578D01*
X126229004Y-106096958D01*
X126324242Y-106096958D01*
X126467099Y-106144578D01*
X126514718Y-106192197D01*
X127371861Y-106096958D02*
X127181385Y-106096958D01*
X127086146Y-106144578D01*
X127038527Y-106192197D01*
X126943289Y-106335054D01*
X126895670Y-106525530D01*
X126895670Y-106906482D01*
X126943289Y-107001720D01*
X126990908Y-107049339D01*
X127086146Y-107096958D01*
X127276623Y-107096958D01*
X127371861Y-107049339D01*
X127419480Y-107001720D01*
X127467099Y-106906482D01*
X127467099Y-106668387D01*
X127419480Y-106573149D01*
X127371861Y-106525530D01*
X127276623Y-106477911D01*
X127086146Y-106477911D01*
X126990908Y-106525530D01*
X126943289Y-106573149D01*
X126895670Y-106668387D01*
X123927289Y-105128458D02*
X123927289Y-104128458D01*
X124308242Y-104128458D01*
X124403480Y-104176078D01*
X124451099Y-104223697D01*
X124498718Y-104318935D01*
X124498718Y-104461792D01*
X124451099Y-104557030D01*
X124403480Y-104604649D01*
X124308242Y-104652268D01*
X123927289Y-104652268D01*
X125260623Y-104604649D02*
X125403480Y-104652268D01*
X125451099Y-104699887D01*
X125498718Y-104795125D01*
X125498718Y-104937982D01*
X125451099Y-105033220D01*
X125403480Y-105080839D01*
X125308242Y-105128458D01*
X124927289Y-105128458D01*
X124927289Y-104128458D01*
X125260623Y-104128458D01*
X125355861Y-104176078D01*
X125403480Y-104223697D01*
X125451099Y-104318935D01*
X125451099Y-104414173D01*
X125403480Y-104509411D01*
X125355861Y-104557030D01*
X125260623Y-104604649D01*
X124927289Y-104604649D01*
X126355861Y-104128458D02*
X126165385Y-104128458D01*
X126070146Y-104176078D01*
X126022527Y-104223697D01*
X125927289Y-104366554D01*
X125879670Y-104557030D01*
X125879670Y-104937982D01*
X125927289Y-105033220D01*
X125974908Y-105080839D01*
X126070146Y-105128458D01*
X126260623Y-105128458D01*
X126355861Y-105080839D01*
X126403480Y-105033220D01*
X126451099Y-104937982D01*
X126451099Y-104699887D01*
X126403480Y-104604649D01*
X126355861Y-104557030D01*
X126260623Y-104509411D01*
X126070146Y-104509411D01*
X125974908Y-104557030D01*
X125927289Y-104604649D01*
X125879670Y-104699887D01*
D12*
X200054856Y-61135643D02*
X200205149Y-61126279D01*
X200425907Y-61037087D01*
X200496372Y-60957259D01*
X200522685Y-60895269D01*
X200531160Y-60789127D01*
X200495483Y-60700824D01*
X200415655Y-60630359D01*
X200353665Y-60604046D01*
X200247523Y-60595571D01*
X200053078Y-60622773D01*
X199946936Y-60614298D01*
X199884946Y-60587985D01*
X199805118Y-60517520D01*
X199769441Y-60429217D01*
X199777916Y-60323075D01*
X199804229Y-60261085D01*
X199874694Y-60181257D01*
X200095452Y-60092065D01*
X200245745Y-60082701D01*
X200536968Y-59913681D02*
X201132333Y-60751673D01*
X201041363Y-60018045D01*
X201485546Y-60608965D01*
X201331697Y-59592589D01*
X202545184Y-60180843D02*
X202015365Y-60394904D01*
X202280275Y-60287874D02*
X201905668Y-59360690D01*
X201870880Y-59528822D01*
X201818254Y-59652802D01*
X201747789Y-59732630D01*
X202986701Y-60002459D02*
X203163307Y-59931106D01*
X203233772Y-59851277D01*
X203260085Y-59789287D01*
X203294873Y-59621156D01*
X203267671Y-59426711D01*
X203124964Y-59073498D01*
X203045135Y-59003033D01*
X202983145Y-58976720D01*
X202877004Y-58968245D01*
X202700397Y-59039599D01*
X202629932Y-59119427D01*
X202603619Y-59181417D01*
X202595144Y-59287559D01*
X202684336Y-59508317D01*
X202764165Y-59578782D01*
X202826155Y-59605095D01*
X202932296Y-59613570D01*
X203108903Y-59542216D01*
X203179368Y-59462388D01*
X203205681Y-59400398D01*
X203214156Y-59294256D01*
X129964841Y-117710159D02*
X130107698Y-117757778D01*
X130345793Y-117757778D01*
X130441031Y-117710159D01*
X130488650Y-117662540D01*
X130536269Y-117567302D01*
X130536269Y-117472064D01*
X130488650Y-117376826D01*
X130441031Y-117329207D01*
X130345793Y-117281588D01*
X130155317Y-117233969D01*
X130060079Y-117186350D01*
X130012460Y-117138731D01*
X129964841Y-117043493D01*
X129964841Y-116948255D01*
X130012460Y-116853017D01*
X130060079Y-116805398D01*
X130155317Y-116757778D01*
X130393412Y-116757778D01*
X130536269Y-116805398D01*
X130869603Y-116757778D02*
X131107698Y-117757778D01*
X131298174Y-117043493D01*
X131488650Y-117757778D01*
X131726745Y-116757778D01*
X132012460Y-116757778D02*
X132631507Y-116757778D01*
X132298174Y-117138731D01*
X132441031Y-117138731D01*
X132536269Y-117186350D01*
X132583888Y-117233969D01*
X132631507Y-117329207D01*
X132631507Y-117567302D01*
X132583888Y-117662540D01*
X132536269Y-117710159D01*
X132441031Y-117757778D01*
X132155317Y-117757778D01*
X132060079Y-117710159D01*
X132012460Y-117662540D01*
X133536269Y-116757778D02*
X133060079Y-116757778D01*
X133012460Y-117233969D01*
X133060079Y-117186350D01*
X133155317Y-117138731D01*
X133393412Y-117138731D01*
X133488650Y-117186350D01*
X133536269Y-117233969D01*
X133583888Y-117329207D01*
X133583888Y-117567302D01*
X133536269Y-117662540D01*
X133488650Y-117710159D01*
X133393412Y-117757778D01*
X133155317Y-117757778D01*
X133060079Y-117710159D01*
X133012460Y-117662540D01*
X135299677Y-86252589D02*
X135299677Y-86728779D01*
X134966344Y-85728779D02*
X135299677Y-86252589D01*
X135633010Y-85728779D01*
X136490153Y-86728779D02*
X135918725Y-86728779D01*
X136204439Y-86728779D02*
X136204439Y-85728779D01*
X136109201Y-85871637D01*
X136013963Y-85966875D01*
X135918725Y-86014494D01*
X135083888Y-64356303D02*
X135083888Y-65003922D01*
X135121984Y-65080113D01*
X135160079Y-65118208D01*
X135236269Y-65156303D01*
X135388650Y-65156303D01*
X135464841Y-65118208D01*
X135502936Y-65080113D01*
X135541031Y-65003922D01*
X135541031Y-64356303D01*
X135883888Y-65118208D02*
X135998174Y-65156303D01*
X136188650Y-65156303D01*
X136264841Y-65118208D01*
X136302936Y-65080113D01*
X136341031Y-65003922D01*
X136341031Y-64927732D01*
X136302936Y-64851541D01*
X136264841Y-64813446D01*
X136188650Y-64775351D01*
X136036269Y-64737256D01*
X135960079Y-64699160D01*
X135921984Y-64661065D01*
X135883888Y-64584875D01*
X135883888Y-64508684D01*
X135921984Y-64432494D01*
X135960079Y-64394399D01*
X136036269Y-64356303D01*
X136226745Y-64356303D01*
X136341031Y-64394399D01*
X136950555Y-64737256D02*
X137064841Y-64775351D01*
X137102936Y-64813446D01*
X137141031Y-64889637D01*
X137141031Y-65003922D01*
X137102936Y-65080113D01*
X137064841Y-65118208D01*
X136988650Y-65156303D01*
X136683888Y-65156303D01*
X136683888Y-64356303D01*
X136950555Y-64356303D01*
X137026745Y-64394399D01*
X137064841Y-64432494D01*
X137102936Y-64508684D01*
X137102936Y-64584875D01*
X137064841Y-64661065D01*
X137026745Y-64699160D01*
X136950555Y-64737256D01*
X136683888Y-64737256D01*
X137902936Y-65156303D02*
X137445793Y-65156303D01*
X137674365Y-65156303D02*
X137674365Y-64356303D01*
X137598174Y-64470589D01*
X137521984Y-64546779D01*
X137445793Y-64584875D01*
X135902960Y-110960779D02*
X135902960Y-111770303D01*
X135950579Y-111865541D01*
X135998198Y-111913160D01*
X136093436Y-111960779D01*
X136283912Y-111960779D01*
X136379150Y-111913160D01*
X136426769Y-111865541D01*
X136474388Y-111770303D01*
X136474388Y-110960779D01*
X136902960Y-111056018D02*
X136950579Y-111008399D01*
X137045817Y-110960779D01*
X137283912Y-110960779D01*
X137379150Y-111008399D01*
X137426769Y-111056018D01*
X137474388Y-111151256D01*
X137474388Y-111246494D01*
X137426769Y-111389351D01*
X136855341Y-111960779D01*
X137474388Y-111960779D01*
X135941028Y-76497066D02*
X135941028Y-77063733D01*
X135974362Y-77130400D01*
X136007695Y-77163733D01*
X136074362Y-77197066D01*
X136207695Y-77197066D01*
X136274362Y-77163733D01*
X136307695Y-77130400D01*
X136341028Y-77063733D01*
X136341028Y-76497066D01*
X137041028Y-77197066D02*
X136641028Y-77197066D01*
X136841028Y-77197066D02*
X136841028Y-76497066D01*
X136774362Y-76597066D01*
X136707695Y-76663733D01*
X136641028Y-76697066D01*
X135641028Y-81211900D02*
X135874362Y-81211900D01*
X135974362Y-81578566D02*
X135641028Y-81578566D01*
X135641028Y-80878566D01*
X135974362Y-80878566D01*
X136241028Y-81545233D02*
X136341028Y-81578566D01*
X136507695Y-81578566D01*
X136574362Y-81545233D01*
X136607695Y-81511900D01*
X136641028Y-81445233D01*
X136641028Y-81378566D01*
X136607695Y-81311900D01*
X136574362Y-81278566D01*
X136507695Y-81245233D01*
X136374362Y-81211900D01*
X136307695Y-81178566D01*
X136274362Y-81145233D01*
X136241028Y-81078566D01*
X136241028Y-81011900D01*
X136274362Y-80945233D01*
X136307695Y-80911900D01*
X136374362Y-80878566D01*
X136541028Y-80878566D01*
X136641028Y-80911900D01*
X136941028Y-81578566D02*
X136941028Y-80878566D01*
X137107695Y-80878566D01*
X137207695Y-80911900D01*
X137274362Y-80978566D01*
X137307695Y-81045233D01*
X137341028Y-81178566D01*
X137341028Y-81278566D01*
X137307695Y-81411900D01*
X137274362Y-81478566D01*
X137207695Y-81545233D01*
X137107695Y-81578566D01*
X136941028Y-81578566D01*
X100388022Y-121611037D02*
X100468254Y-121679404D01*
X100622784Y-121741838D01*
X100697083Y-121735906D01*
X100740476Y-121717487D01*
X100796356Y-121668161D01*
X100821330Y-121606349D01*
X100815398Y-121532050D01*
X100796978Y-121488657D01*
X100747653Y-121432777D01*
X100636515Y-121351923D01*
X100587190Y-121296043D01*
X100568771Y-121252650D01*
X100562838Y-121178351D01*
X100587812Y-121116539D01*
X100643692Y-121067213D01*
X100687085Y-121048794D01*
X100761384Y-121042862D01*
X100915915Y-121105296D01*
X100996146Y-121173663D01*
X101224976Y-121230165D02*
X101117282Y-121941628D01*
X101428210Y-121527984D01*
X101364531Y-122041523D01*
X101781287Y-121454929D01*
X101966723Y-121529850D02*
X102368503Y-121692180D01*
X102052265Y-121852021D01*
X102144983Y-121889481D01*
X102194309Y-121945361D01*
X102212728Y-121988754D01*
X102218660Y-122063054D01*
X102156226Y-122217584D01*
X102100346Y-122266910D01*
X102056953Y-122285329D01*
X101982654Y-122291261D01*
X101797217Y-122216340D01*
X101747892Y-122160460D01*
X101729472Y-122117067D01*
X102924813Y-121916944D02*
X102801189Y-121866996D01*
X102726890Y-121872929D01*
X102683497Y-121891348D01*
X102584224Y-121959093D01*
X102503370Y-122070230D01*
X102403475Y-122317479D01*
X102409407Y-122391778D01*
X102427827Y-122435171D01*
X102477152Y-122491051D01*
X102600776Y-122540999D01*
X102675076Y-122535067D01*
X102718469Y-122516647D01*
X102774349Y-122467322D01*
X102836783Y-122312791D01*
X102830851Y-122238492D01*
X102812431Y-122195099D01*
X102763106Y-122139219D01*
X102639481Y-122089272D01*
X102565182Y-122095204D01*
X102521789Y-122113623D01*
X102465909Y-122162949D01*
X126402871Y-112176957D02*
X126069538Y-111700767D01*
X125831442Y-112176957D02*
X125831442Y-111176957D01*
X126212395Y-111176957D01*
X126307633Y-111224577D01*
X126355252Y-111272196D01*
X126402871Y-111367434D01*
X126402871Y-111510291D01*
X126355252Y-111605529D01*
X126307633Y-111653148D01*
X126212395Y-111700767D01*
X125831442Y-111700767D01*
X127260014Y-111176957D02*
X127069538Y-111176957D01*
X126974299Y-111224577D01*
X126926680Y-111272196D01*
X126831442Y-111415053D01*
X126783823Y-111605529D01*
X126783823Y-111986481D01*
X126831442Y-112081719D01*
X126879061Y-112129338D01*
X126974299Y-112176957D01*
X127164776Y-112176957D01*
X127260014Y-112129338D01*
X127307633Y-112081719D01*
X127355252Y-111986481D01*
X127355252Y-111748386D01*
X127307633Y-111653148D01*
X127260014Y-111605529D01*
X127164776Y-111557910D01*
X126974299Y-111557910D01*
X126879061Y-111605529D01*
X126831442Y-111653148D01*
X126783823Y-111748386D01*
X139228698Y-82149780D02*
X138895365Y-81673590D01*
X138657269Y-82149780D02*
X138657269Y-81149780D01*
X139038222Y-81149780D01*
X139133460Y-81197400D01*
X139181079Y-81245019D01*
X139228698Y-81340257D01*
X139228698Y-81483114D01*
X139181079Y-81578352D01*
X139133460Y-81625971D01*
X139038222Y-81673590D01*
X138657269Y-81673590D01*
X140133460Y-81149780D02*
X139657269Y-81149780D01*
X139609650Y-81625971D01*
X139657269Y-81578352D01*
X139752507Y-81530733D01*
X139990603Y-81530733D01*
X140085841Y-81578352D01*
X140133460Y-81625971D01*
X140181079Y-81721209D01*
X140181079Y-81959304D01*
X140133460Y-82054542D01*
X140085841Y-82102161D01*
X139990603Y-82149780D01*
X139752507Y-82149780D01*
X139657269Y-82102161D01*
X139609650Y-82054542D01*
X133386702Y-82095275D02*
X133053369Y-81619085D01*
X132815273Y-82095275D02*
X132815273Y-81095275D01*
X133196226Y-81095275D01*
X133291464Y-81142895D01*
X133339083Y-81190514D01*
X133386702Y-81285752D01*
X133386702Y-81428609D01*
X133339083Y-81523847D01*
X133291464Y-81571466D01*
X133196226Y-81619085D01*
X132815273Y-81619085D01*
X134243845Y-81428609D02*
X134243845Y-82095275D01*
X134005749Y-81047656D02*
X133767654Y-81761942D01*
X134386702Y-81761942D01*
X131539218Y-68298458D02*
X131205885Y-67822268D01*
X130967789Y-68298458D02*
X130967789Y-67298458D01*
X131348742Y-67298458D01*
X131443980Y-67346078D01*
X131491599Y-67393697D01*
X131539218Y-67488935D01*
X131539218Y-67631792D01*
X131491599Y-67727030D01*
X131443980Y-67774649D01*
X131348742Y-67822268D01*
X130967789Y-67822268D01*
X131872551Y-67298458D02*
X132491599Y-67298458D01*
X132158265Y-67679411D01*
X132301123Y-67679411D01*
X132396361Y-67727030D01*
X132443980Y-67774649D01*
X132491599Y-67869887D01*
X132491599Y-68107982D01*
X132443980Y-68203220D01*
X132396361Y-68250839D01*
X132301123Y-68298458D01*
X132015408Y-68298458D01*
X131920170Y-68250839D01*
X131872551Y-68203220D01*
X139603719Y-67282458D02*
X139270386Y-66806268D01*
X139032290Y-67282458D02*
X139032290Y-66282458D01*
X139413243Y-66282458D01*
X139508481Y-66330078D01*
X139556100Y-66377697D01*
X139603719Y-66472935D01*
X139603719Y-66615792D01*
X139556100Y-66711030D01*
X139508481Y-66758649D01*
X139413243Y-66806268D01*
X139032290Y-66806268D01*
X139984671Y-66377697D02*
X140032290Y-66330078D01*
X140127528Y-66282458D01*
X140365624Y-66282458D01*
X140460862Y-66330078D01*
X140508481Y-66377697D01*
X140556100Y-66472935D01*
X140556100Y-66568173D01*
X140508481Y-66711030D01*
X139937052Y-67282458D01*
X140556100Y-67282458D01*
X110617389Y-120971583D02*
X110486712Y-120405198D01*
X110087570Y-120757522D02*
X110462176Y-119830339D01*
X110815389Y-119973046D01*
X110885854Y-120052874D01*
X110912167Y-120114864D01*
X110920642Y-120221006D01*
X110867127Y-120353461D01*
X110787298Y-120423926D01*
X110725308Y-120450239D01*
X110619167Y-120458714D01*
X110265954Y-120316006D01*
X111500421Y-121328352D02*
X110970602Y-121114291D01*
X111235512Y-121221321D02*
X111610118Y-120294137D01*
X111468300Y-120390915D01*
X111344320Y-120443542D01*
X111238178Y-120452016D01*
X154382841Y-116963477D02*
X154382841Y-116263477D01*
X154616174Y-116763477D01*
X154849507Y-116263477D01*
X154849507Y-116963477D01*
X155182841Y-116963477D02*
X155182841Y-116263477D01*
X155482841Y-116930144D02*
X155582841Y-116963477D01*
X155749507Y-116963477D01*
X155816174Y-116930144D01*
X155849507Y-116896811D01*
X155882841Y-116830144D01*
X155882841Y-116763477D01*
X155849507Y-116696811D01*
X155816174Y-116663477D01*
X155749507Y-116630144D01*
X155616174Y-116596811D01*
X155549507Y-116563477D01*
X155516174Y-116530144D01*
X155482841Y-116463477D01*
X155482841Y-116396811D01*
X155516174Y-116330144D01*
X155549507Y-116296811D01*
X155616174Y-116263477D01*
X155782841Y-116263477D01*
X155882841Y-116296811D01*
X156316174Y-116263477D02*
X156449507Y-116263477D01*
X156516174Y-116296811D01*
X156582841Y-116363477D01*
X156616174Y-116496811D01*
X156616174Y-116730144D01*
X156582841Y-116863477D01*
X156516174Y-116930144D01*
X156449507Y-116963477D01*
X156316174Y-116963477D01*
X156249507Y-116930144D01*
X156182841Y-116863477D01*
X156149507Y-116730144D01*
X156149507Y-116496811D01*
X156182841Y-116363477D01*
X156249507Y-116296811D01*
X156316174Y-116263477D01*
X152009507Y-116263477D02*
X152242841Y-116963477D01*
X152476174Y-116263477D01*
X153109507Y-116896811D02*
X153076174Y-116930144D01*
X152976174Y-116963477D01*
X152909507Y-116963477D01*
X152809507Y-116930144D01*
X152742841Y-116863477D01*
X152709507Y-116796811D01*
X152676174Y-116663477D01*
X152676174Y-116563477D01*
X152709507Y-116430144D01*
X152742841Y-116363477D01*
X152809507Y-116296811D01*
X152909507Y-116263477D01*
X152976174Y-116263477D01*
X153076174Y-116296811D01*
X153109507Y-116330144D01*
X153809507Y-116896811D02*
X153776174Y-116930144D01*
X153676174Y-116963477D01*
X153609507Y-116963477D01*
X153509507Y-116930144D01*
X153442841Y-116863477D01*
X153409507Y-116796811D01*
X153376174Y-116663477D01*
X153376174Y-116563477D01*
X153409507Y-116430144D01*
X153442841Y-116363477D01*
X153509507Y-116296811D01*
X153609507Y-116263477D01*
X153676174Y-116263477D01*
X153776174Y-116296811D01*
X153809507Y-116330144D01*
X149502841Y-116930144D02*
X149602841Y-116963477D01*
X149769507Y-116963477D01*
X149836174Y-116930144D01*
X149869507Y-116896811D01*
X149902841Y-116830144D01*
X149902841Y-116763477D01*
X149869507Y-116696811D01*
X149836174Y-116663477D01*
X149769507Y-116630144D01*
X149636174Y-116596811D01*
X149569507Y-116563477D01*
X149536174Y-116530144D01*
X149502841Y-116463477D01*
X149502841Y-116396811D01*
X149536174Y-116330144D01*
X149569507Y-116296811D01*
X149636174Y-116263477D01*
X149802841Y-116263477D01*
X149902841Y-116296811D01*
X150602841Y-116896811D02*
X150569507Y-116930144D01*
X150469507Y-116963477D01*
X150402841Y-116963477D01*
X150302841Y-116930144D01*
X150236174Y-116863477D01*
X150202841Y-116796811D01*
X150169507Y-116663477D01*
X150169507Y-116563477D01*
X150202841Y-116430144D01*
X150236174Y-116363477D01*
X150302841Y-116296811D01*
X150402841Y-116263477D01*
X150469507Y-116263477D01*
X150569507Y-116296811D01*
X150602841Y-116330144D01*
X150902841Y-116963477D02*
X150902841Y-116263477D01*
X151302841Y-116963477D02*
X151002841Y-116563477D01*
X151302841Y-116263477D02*
X150902841Y-116663477D01*
X146762841Y-116963477D02*
X146762841Y-116263477D01*
X146996174Y-116763477D01*
X147229507Y-116263477D01*
X147229507Y-116963477D01*
X147696174Y-116263477D02*
X147829507Y-116263477D01*
X147896174Y-116296811D01*
X147962841Y-116363477D01*
X147996174Y-116496811D01*
X147996174Y-116730144D01*
X147962841Y-116863477D01*
X147896174Y-116930144D01*
X147829507Y-116963477D01*
X147696174Y-116963477D01*
X147629507Y-116930144D01*
X147562841Y-116863477D01*
X147529507Y-116730144D01*
X147529507Y-116496811D01*
X147562841Y-116363477D01*
X147629507Y-116296811D01*
X147696174Y-116263477D01*
X148262841Y-116930144D02*
X148362841Y-116963477D01*
X148529507Y-116963477D01*
X148596174Y-116930144D01*
X148629507Y-116896811D01*
X148662841Y-116830144D01*
X148662841Y-116763477D01*
X148629507Y-116696811D01*
X148596174Y-116663477D01*
X148529507Y-116630144D01*
X148396174Y-116596811D01*
X148329507Y-116563477D01*
X148296174Y-116530144D01*
X148262841Y-116463477D01*
X148262841Y-116396811D01*
X148296174Y-116330144D01*
X148329507Y-116296811D01*
X148396174Y-116263477D01*
X148562841Y-116263477D01*
X148662841Y-116296811D01*
X148962841Y-116963477D02*
X148962841Y-116263477D01*
X144939507Y-116963477D02*
X144706174Y-116630144D01*
X144539507Y-116963477D02*
X144539507Y-116263477D01*
X144806174Y-116263477D01*
X144872841Y-116296811D01*
X144906174Y-116330144D01*
X144939507Y-116396811D01*
X144939507Y-116496811D01*
X144906174Y-116563477D01*
X144872841Y-116596811D01*
X144806174Y-116630144D01*
X144539507Y-116630144D01*
X145206174Y-116930144D02*
X145306174Y-116963477D01*
X145472841Y-116963477D01*
X145539507Y-116930144D01*
X145572841Y-116896811D01*
X145606174Y-116830144D01*
X145606174Y-116763477D01*
X145572841Y-116696811D01*
X145539507Y-116663477D01*
X145472841Y-116630144D01*
X145339507Y-116596811D01*
X145272841Y-116563477D01*
X145239507Y-116530144D01*
X145206174Y-116463477D01*
X145206174Y-116396811D01*
X145239507Y-116330144D01*
X145272841Y-116296811D01*
X145339507Y-116263477D01*
X145506174Y-116263477D01*
X145606174Y-116296811D01*
X145806174Y-116263477D02*
X146206174Y-116263477D01*
X146006174Y-116963477D02*
X146006174Y-116263477D01*
X142249507Y-116296811D02*
X142182841Y-116263477D01*
X142082841Y-116263477D01*
X141982841Y-116296811D01*
X141916174Y-116363477D01*
X141882841Y-116430144D01*
X141849507Y-116563477D01*
X141849507Y-116663477D01*
X141882841Y-116796811D01*
X141916174Y-116863477D01*
X141982841Y-116930144D01*
X142082841Y-116963477D01*
X142149507Y-116963477D01*
X142249507Y-116930144D01*
X142282841Y-116896811D01*
X142282841Y-116663477D01*
X142149507Y-116663477D01*
X142582841Y-116963477D02*
X142582841Y-116263477D01*
X142982841Y-116963477D01*
X142982841Y-116263477D01*
X143316174Y-116963477D02*
X143316174Y-116263477D01*
X143482841Y-116263477D01*
X143582841Y-116296811D01*
X143649507Y-116363477D01*
X143682841Y-116430144D01*
X143716174Y-116563477D01*
X143716174Y-116663477D01*
X143682841Y-116796811D01*
X143649507Y-116863477D01*
X143582841Y-116930144D01*
X143482841Y-116963477D01*
X143316174Y-116963477D01*
X136389052Y-73616649D02*
X136055719Y-73616649D01*
X136055719Y-74140458D02*
X136055719Y-73140458D01*
X136531909Y-73140458D01*
X137436671Y-74140458D02*
X136865243Y-74140458D01*
X137150957Y-74140458D02*
X137150957Y-73140458D01*
X137055719Y-73283316D01*
X136960481Y-73378554D01*
X136865243Y-73426173D01*
X140252906Y-113835298D02*
X140205287Y-113882917D01*
X140062430Y-113930536D01*
X139967192Y-113930536D01*
X139824334Y-113882917D01*
X139729096Y-113787679D01*
X139681477Y-113692441D01*
X139633858Y-113501965D01*
X139633858Y-113359108D01*
X139681477Y-113168632D01*
X139729096Y-113073394D01*
X139824334Y-112978156D01*
X139967192Y-112930536D01*
X140062430Y-112930536D01*
X140205287Y-112978156D01*
X140252906Y-113025775D01*
X140586239Y-112930536D02*
X141252906Y-112930536D01*
X140824334Y-113930536D01*
X126586218Y-99826220D02*
X126538599Y-99873839D01*
X126395742Y-99921458D01*
X126300504Y-99921458D01*
X126157646Y-99873839D01*
X126062408Y-99778601D01*
X126014789Y-99683363D01*
X125967170Y-99492887D01*
X125967170Y-99350030D01*
X126014789Y-99159554D01*
X126062408Y-99064316D01*
X126157646Y-98969078D01*
X126300504Y-98921458D01*
X126395742Y-98921458D01*
X126538599Y-98969078D01*
X126586218Y-99016697D01*
X127443361Y-98921458D02*
X127252885Y-98921458D01*
X127157646Y-98969078D01*
X127110027Y-99016697D01*
X127014789Y-99159554D01*
X126967170Y-99350030D01*
X126967170Y-99730982D01*
X127014789Y-99826220D01*
X127062408Y-99873839D01*
X127157646Y-99921458D01*
X127348123Y-99921458D01*
X127443361Y-99873839D01*
X127490980Y-99826220D01*
X127538599Y-99730982D01*
X127538599Y-99492887D01*
X127490980Y-99397649D01*
X127443361Y-99350030D01*
X127348123Y-99302411D01*
X127157646Y-99302411D01*
X127062408Y-99350030D01*
X127014789Y-99397649D01*
X126967170Y-99492887D01*
X150525719Y-108081220D02*
X150478100Y-108128839D01*
X150335243Y-108176458D01*
X150240005Y-108176458D01*
X150097147Y-108128839D01*
X150001909Y-108033601D01*
X149954290Y-107938363D01*
X149906671Y-107747887D01*
X149906671Y-107605030D01*
X149954290Y-107414554D01*
X150001909Y-107319316D01*
X150097147Y-107224078D01*
X150240005Y-107176458D01*
X150335243Y-107176458D01*
X150478100Y-107224078D01*
X150525719Y-107271697D01*
X151430481Y-107176458D02*
X150954290Y-107176458D01*
X150906671Y-107652649D01*
X150954290Y-107605030D01*
X151049528Y-107557411D01*
X151287624Y-107557411D01*
X151382862Y-107605030D01*
X151430481Y-107652649D01*
X151478100Y-107747887D01*
X151478100Y-107985982D01*
X151430481Y-108081220D01*
X151382862Y-108128839D01*
X151287624Y-108176458D01*
X151049528Y-108176458D01*
X150954290Y-108128839D01*
X150906671Y-108081220D01*
X132745718Y-114431220D02*
X132698099Y-114478839D01*
X132555242Y-114526458D01*
X132460004Y-114526458D01*
X132317146Y-114478839D01*
X132221908Y-114383601D01*
X132174289Y-114288363D01*
X132126670Y-114097887D01*
X132126670Y-113955030D01*
X132174289Y-113764554D01*
X132221908Y-113669316D01*
X132317146Y-113574078D01*
X132460004Y-113526458D01*
X132555242Y-113526458D01*
X132698099Y-113574078D01*
X132745718Y-113621697D01*
X133602861Y-113859792D02*
X133602861Y-114526458D01*
X133364765Y-113478839D02*
X133126670Y-114193125D01*
X133745718Y-114193125D01*
X145318718Y-105731719D02*
X145271099Y-105779338D01*
X145128242Y-105826957D01*
X145033004Y-105826957D01*
X144890146Y-105779338D01*
X144794908Y-105684100D01*
X144747289Y-105588862D01*
X144699670Y-105398386D01*
X144699670Y-105255529D01*
X144747289Y-105065053D01*
X144794908Y-104969815D01*
X144890146Y-104874577D01*
X145033004Y-104826957D01*
X145128242Y-104826957D01*
X145271099Y-104874577D01*
X145318718Y-104922196D01*
X145652051Y-104826957D02*
X146271099Y-104826957D01*
X145937765Y-105207910D01*
X146080623Y-105207910D01*
X146175861Y-105255529D01*
X146223480Y-105303148D01*
X146271099Y-105398386D01*
X146271099Y-105636481D01*
X146223480Y-105731719D01*
X146175861Y-105779338D01*
X146080623Y-105826957D01*
X145794908Y-105826957D01*
X145699670Y-105779338D01*
X145652051Y-105731719D01*
X139794219Y-87189720D02*
X139746600Y-87237339D01*
X139603743Y-87284958D01*
X139508505Y-87284958D01*
X139365647Y-87237339D01*
X139270409Y-87142101D01*
X139222790Y-87046863D01*
X139175171Y-86856387D01*
X139175171Y-86713530D01*
X139222790Y-86523054D01*
X139270409Y-86427816D01*
X139365647Y-86332578D01*
X139508505Y-86284958D01*
X139603743Y-86284958D01*
X139746600Y-86332578D01*
X139794219Y-86380197D01*
X140175171Y-86380197D02*
X140222790Y-86332578D01*
X140318028Y-86284958D01*
X140556124Y-86284958D01*
X140651362Y-86332578D01*
X140698981Y-86380197D01*
X140746600Y-86475435D01*
X140746600Y-86570673D01*
X140698981Y-86713530D01*
X140127552Y-87284958D01*
X140746600Y-87284958D01*
X131348718Y-87189720D02*
X131301099Y-87237339D01*
X131158242Y-87284958D01*
X131063004Y-87284958D01*
X130920146Y-87237339D01*
X130824908Y-87142101D01*
X130777289Y-87046863D01*
X130729670Y-86856387D01*
X130729670Y-86713530D01*
X130777289Y-86523054D01*
X130824908Y-86427816D01*
X130920146Y-86332578D01*
X131063004Y-86284958D01*
X131158242Y-86284958D01*
X131301099Y-86332578D01*
X131348718Y-86380197D01*
X132301099Y-87284958D02*
X131729670Y-87284958D01*
X132015385Y-87284958D02*
X132015385Y-86284958D01*
X131920146Y-86427816D01*
X131824908Y-86523054D01*
X131729670Y-86570673D01*
X180977827Y-119197919D02*
X181120576Y-119149976D01*
X181310727Y-119006687D01*
X181358130Y-118911341D01*
X181367502Y-118844653D01*
X181348217Y-118739934D01*
X181290901Y-118663874D01*
X181195555Y-118616471D01*
X181128867Y-118607099D01*
X181024149Y-118626384D01*
X180843370Y-118702985D01*
X180738651Y-118722271D01*
X180671963Y-118712898D01*
X180576617Y-118665496D01*
X180519302Y-118589435D01*
X180500016Y-118484717D01*
X180509389Y-118418029D01*
X180556791Y-118322683D01*
X180746943Y-118179393D01*
X180889691Y-118131450D01*
X181127245Y-117892815D02*
X181919211Y-118548161D01*
X181641465Y-117863076D01*
X182223454Y-118318898D01*
X181811790Y-117376973D01*
X182039971Y-117205026D02*
X182534365Y-116832474D01*
X182497416Y-117337321D01*
X182611507Y-117251348D01*
X182716225Y-117232062D01*
X182782913Y-117241435D01*
X182878259Y-117288837D01*
X183021548Y-117478988D01*
X183040834Y-117583707D01*
X183031461Y-117650395D01*
X182984059Y-117745741D01*
X182755877Y-117917688D01*
X182651159Y-117936974D01*
X182584471Y-117927601D01*
X183419515Y-116582844D02*
X183820725Y-117115268D01*
X183000100Y-116421892D02*
X183239817Y-117135635D01*
X183734210Y-116763083D01*
X161523929Y-131957304D02*
X161651541Y-131877361D01*
X161802989Y-131693641D01*
X161826823Y-131589864D01*
X161820369Y-131522830D01*
X161777170Y-131425507D01*
X161703682Y-131364928D01*
X161599905Y-131341093D01*
X161532871Y-131347548D01*
X161435548Y-131390747D01*
X161277647Y-131507433D01*
X161180324Y-131550632D01*
X161113290Y-131557086D01*
X161009513Y-131533252D01*
X160936025Y-131472673D01*
X160892826Y-131375350D01*
X160886371Y-131308316D01*
X160910206Y-131204539D01*
X161061653Y-131020819D01*
X161189266Y-130940876D01*
X161364548Y-130653378D02*
X162287620Y-131105737D01*
X161857617Y-130504419D01*
X162529935Y-130811784D01*
X161909758Y-129991986D01*
X162091494Y-129771522D02*
X162485257Y-129293849D01*
X162567183Y-129793373D01*
X162658052Y-129683141D01*
X162755374Y-129639942D01*
X162822408Y-129633488D01*
X162926185Y-129657323D01*
X163109906Y-129808770D01*
X163153104Y-129906093D01*
X163159559Y-129973126D01*
X163135724Y-130076904D01*
X162953987Y-130297368D01*
X162856664Y-130340567D01*
X162789631Y-130347021D01*
X162697283Y-129036641D02*
X163091046Y-128558969D01*
X163172972Y-129058493D01*
X163263840Y-128948261D01*
X163361163Y-128905062D01*
X163428197Y-128898607D01*
X163531974Y-128922442D01*
X163715694Y-129073889D01*
X163758893Y-129171212D01*
X163765348Y-129238246D01*
X163741513Y-129342023D01*
X163559776Y-129562487D01*
X163462453Y-129605686D01*
X163395420Y-129612141D01*
X109122807Y-129101261D02*
X109176931Y-129241782D01*
X109328378Y-129425502D01*
X109425701Y-129468701D01*
X109492734Y-129475156D01*
X109596512Y-129451321D01*
X109670000Y-129390742D01*
X109713199Y-129293419D01*
X109719653Y-129226385D01*
X109695818Y-129122608D01*
X109611405Y-128945342D01*
X109587570Y-128841565D01*
X109594024Y-128774531D01*
X109637223Y-128677209D01*
X109710711Y-128616630D01*
X109814489Y-128592795D01*
X109881522Y-128599249D01*
X109978845Y-128642448D01*
X110130292Y-128826168D01*
X110184416Y-128966690D01*
X110433186Y-129193608D02*
X109813009Y-130013407D01*
X110485327Y-129706041D01*
X110055325Y-130307359D01*
X110978396Y-129855001D01*
X111160133Y-130075465D02*
X111553896Y-130553137D01*
X111047917Y-130538245D01*
X111138786Y-130648477D01*
X111162621Y-130752254D01*
X111156166Y-130819288D01*
X111112967Y-130916611D01*
X110929247Y-131068058D01*
X110825470Y-131091893D01*
X110758436Y-131085438D01*
X110661113Y-131042240D01*
X110479377Y-130821775D01*
X110455542Y-130717998D01*
X110461996Y-130650964D01*
X111722723Y-130907669D02*
X111789757Y-130914123D01*
X111887080Y-130957322D01*
X112038527Y-131141042D01*
X112062362Y-131244819D01*
X112055907Y-131311853D01*
X112012708Y-131409176D01*
X111939220Y-131469755D01*
X111798699Y-131523879D01*
X110994297Y-131446424D01*
X111388060Y-131924096D01*
X89080606Y-117019919D02*
X89166039Y-117143923D01*
X89356190Y-117287212D01*
X89460908Y-117306498D01*
X89527596Y-117297125D01*
X89622942Y-117249723D01*
X89680258Y-117173662D01*
X89699544Y-117068944D01*
X89690171Y-117002256D01*
X89642769Y-116906910D01*
X89519305Y-116754248D01*
X89471903Y-116658902D01*
X89462530Y-116592214D01*
X89481816Y-116487495D01*
X89539131Y-116411435D01*
X89634477Y-116364032D01*
X89701166Y-116354660D01*
X89805884Y-116373945D01*
X89996035Y-116517235D01*
X90081468Y-116641238D01*
X90376338Y-116803813D02*
X89964674Y-117745738D01*
X90546663Y-117289915D01*
X90268916Y-117975001D01*
X91060883Y-117319655D01*
X91289064Y-117491602D02*
X91783458Y-117864154D01*
X91287983Y-117967791D01*
X91402074Y-118053765D01*
X91449476Y-118149111D01*
X91458849Y-118215799D01*
X91439563Y-118320517D01*
X91296274Y-118510668D01*
X91200928Y-118558071D01*
X91134240Y-118567443D01*
X91029522Y-118548158D01*
X90801340Y-118376211D01*
X90753937Y-118280865D01*
X90744565Y-118214177D01*
X91942248Y-119235947D02*
X91485885Y-118892052D01*
X91714066Y-119063999D02*
X92315881Y-118265364D01*
X92153847Y-118322139D01*
X92020471Y-118340884D01*
X91915753Y-118321598D01*
X224883354Y-74597642D02*
X225033647Y-74588278D01*
X225254405Y-74499086D01*
X225324870Y-74419258D01*
X225351183Y-74357268D01*
X225359658Y-74251126D01*
X225323981Y-74162823D01*
X225244153Y-74092358D01*
X225182163Y-74066045D01*
X225076021Y-74057570D01*
X224881576Y-74084772D01*
X224775434Y-74076297D01*
X224713444Y-74049984D01*
X224633616Y-73979519D01*
X224597939Y-73891216D01*
X224606414Y-73785074D01*
X224632727Y-73723084D01*
X224703192Y-73643256D01*
X224923950Y-73554064D01*
X225074243Y-73544700D01*
X225365466Y-73375680D02*
X225960831Y-74213672D01*
X225869861Y-73480044D01*
X226314044Y-74070964D01*
X226160195Y-73054588D01*
X226425105Y-72947558D02*
X226999076Y-72715659D01*
X226832722Y-73193740D01*
X226965177Y-73140225D01*
X227071318Y-73148700D01*
X227133308Y-73175013D01*
X227213137Y-73245478D01*
X227302329Y-73466236D01*
X227293854Y-73572378D01*
X227267541Y-73634368D01*
X227197076Y-73714196D01*
X226932166Y-73821227D01*
X226826025Y-73812752D01*
X226764035Y-73786439D01*
X227573047Y-72483759D02*
X227661350Y-72448082D01*
X227767492Y-72456557D01*
X227829482Y-72482870D01*
X227909310Y-72553335D01*
X228024815Y-72712103D01*
X228114007Y-72932861D01*
X228141209Y-73127306D01*
X228132735Y-73233448D01*
X228106421Y-73295438D01*
X228035957Y-73375266D01*
X227947653Y-73410943D01*
X227841512Y-73402468D01*
X227779522Y-73376155D01*
X227699693Y-73305690D01*
X227584188Y-73146922D01*
X227494996Y-72926164D01*
X227467794Y-72731719D01*
X227476269Y-72625578D01*
X227502582Y-72563588D01*
X227573047Y-72483759D01*
X206404853Y-76947145D02*
X206555146Y-76937781D01*
X206775904Y-76848589D01*
X206846369Y-76768761D01*
X206872682Y-76706771D01*
X206881157Y-76600629D01*
X206845480Y-76512326D01*
X206765652Y-76441861D01*
X206703662Y-76415548D01*
X206597520Y-76407073D01*
X206403075Y-76434275D01*
X206296933Y-76425800D01*
X206234943Y-76399487D01*
X206155115Y-76329022D01*
X206119438Y-76240719D01*
X206127913Y-76134577D01*
X206154226Y-76072587D01*
X206224691Y-75992759D01*
X206445449Y-75903567D01*
X206595742Y-75894203D01*
X206886965Y-75725183D02*
X207482330Y-76563175D01*
X207391360Y-75829547D01*
X207835543Y-76420467D01*
X207681694Y-75404091D01*
X208026432Y-75367526D02*
X208052745Y-75305536D01*
X208123210Y-75225707D01*
X208343968Y-75136515D01*
X208450110Y-75144990D01*
X208512100Y-75171303D01*
X208591928Y-75241768D01*
X208627605Y-75330071D01*
X208636969Y-75480365D01*
X208321210Y-76224245D01*
X208895181Y-75992345D01*
X209336698Y-75813961D02*
X209513304Y-75742608D01*
X209583769Y-75662779D01*
X209610082Y-75600789D01*
X209644870Y-75432658D01*
X209617668Y-75238213D01*
X209474961Y-74885000D01*
X209395132Y-74814535D01*
X209333142Y-74788222D01*
X209227001Y-74779747D01*
X209050394Y-74851101D01*
X208979929Y-74930929D01*
X208953616Y-74992919D01*
X208945141Y-75099061D01*
X209034333Y-75319819D01*
X209114162Y-75390284D01*
X209176152Y-75416597D01*
X209282293Y-75425072D01*
X209458900Y-75353718D01*
X209529365Y-75273890D01*
X209555678Y-75211900D01*
X209564153Y-75105758D01*
X188815355Y-81455643D02*
X188965648Y-81446279D01*
X189186406Y-81357087D01*
X189256871Y-81277259D01*
X189283184Y-81215269D01*
X189291659Y-81109127D01*
X189255982Y-81020824D01*
X189176154Y-80950359D01*
X189114164Y-80924046D01*
X189008022Y-80915571D01*
X188813577Y-80942773D01*
X188707435Y-80934298D01*
X188645445Y-80907985D01*
X188565617Y-80837520D01*
X188529940Y-80749217D01*
X188538415Y-80643075D01*
X188564728Y-80581085D01*
X188635193Y-80501257D01*
X188855951Y-80412065D01*
X189006244Y-80402701D01*
X189297467Y-80233681D02*
X189892832Y-81071673D01*
X189801862Y-80338045D01*
X190246045Y-80928965D01*
X190092196Y-79912589D01*
X190436934Y-79876024D02*
X190463247Y-79814034D01*
X190533712Y-79734205D01*
X190754470Y-79645013D01*
X190860612Y-79653488D01*
X190922602Y-79679801D01*
X191002430Y-79750266D01*
X191038107Y-79838569D01*
X191047471Y-79988863D01*
X190731712Y-80732743D01*
X191305683Y-80500843D01*
X191621442Y-79756963D02*
X191515300Y-79748488D01*
X191453310Y-79722175D01*
X191373482Y-79651710D01*
X191355643Y-79607559D01*
X191364118Y-79501417D01*
X191390431Y-79439427D01*
X191460896Y-79359599D01*
X191637503Y-79288245D01*
X191743644Y-79296720D01*
X191805634Y-79323033D01*
X191885463Y-79393498D01*
X191903301Y-79437649D01*
X191894826Y-79543791D01*
X191868513Y-79605781D01*
X191798048Y-79685610D01*
X191621442Y-79756963D01*
X191550977Y-79836792D01*
X191524664Y-79898782D01*
X191516189Y-80004923D01*
X191587543Y-80181530D01*
X191667371Y-80251995D01*
X191729361Y-80278308D01*
X191835503Y-80286783D01*
X192012109Y-80215429D01*
X192082574Y-80135600D01*
X192108887Y-80073610D01*
X192117362Y-79967469D01*
X192046008Y-79790862D01*
X191966180Y-79720398D01*
X191904190Y-79694084D01*
X191798048Y-79685610D01*
X173067354Y-90409147D02*
X173217647Y-90399783D01*
X173438405Y-90310591D01*
X173508870Y-90230763D01*
X173535183Y-90168773D01*
X173543658Y-90062631D01*
X173507981Y-89974328D01*
X173428153Y-89903863D01*
X173366163Y-89877550D01*
X173260021Y-89869075D01*
X173065576Y-89896277D01*
X172959434Y-89887802D01*
X172897444Y-89861489D01*
X172817616Y-89791024D01*
X172781939Y-89702721D01*
X172790414Y-89596579D01*
X172816727Y-89534589D01*
X172887192Y-89454761D01*
X173107950Y-89365569D01*
X173258243Y-89356205D01*
X173549466Y-89187185D02*
X174144831Y-90025177D01*
X174053861Y-89291549D01*
X174498044Y-89882469D01*
X174344195Y-88866093D01*
X174688933Y-88829528D02*
X174715246Y-88767538D01*
X174785711Y-88687709D01*
X175006469Y-88598517D01*
X175112611Y-88606992D01*
X175174601Y-88633305D01*
X175254429Y-88703770D01*
X175290106Y-88792073D01*
X175299470Y-88942367D01*
X174983711Y-89686247D01*
X175557682Y-89454347D01*
X175492137Y-88402295D02*
X176110260Y-88152557D01*
X176087502Y-89240287D01*
X157255855Y-99362642D02*
X157406148Y-99353278D01*
X157626906Y-99264086D01*
X157697371Y-99184258D01*
X157723684Y-99122268D01*
X157732159Y-99016126D01*
X157696482Y-98927823D01*
X157616654Y-98857358D01*
X157554664Y-98831045D01*
X157448522Y-98822570D01*
X157254077Y-98849772D01*
X157147935Y-98841297D01*
X157085945Y-98814984D01*
X157006117Y-98744519D01*
X156970440Y-98656216D01*
X156978915Y-98550074D01*
X157005228Y-98488084D01*
X157075693Y-98408256D01*
X157296451Y-98319064D01*
X157446744Y-98309700D01*
X157737967Y-98140680D02*
X158333332Y-98978672D01*
X158242362Y-98245044D01*
X158686545Y-98835964D01*
X158532696Y-97819588D01*
X158877434Y-97783023D02*
X158903747Y-97721033D01*
X158974212Y-97641204D01*
X159194970Y-97552012D01*
X159301112Y-97560487D01*
X159363102Y-97586800D01*
X159442930Y-97657265D01*
X159478607Y-97745568D01*
X159487971Y-97895862D01*
X159172212Y-98639742D01*
X159746183Y-98407842D01*
X160166306Y-97159567D02*
X159989699Y-97230921D01*
X159919235Y-97310749D01*
X159892921Y-97372739D01*
X159858133Y-97540871D01*
X159885335Y-97735316D01*
X160028043Y-98088529D01*
X160107871Y-98158994D01*
X160169861Y-98185307D01*
X160276003Y-98193782D01*
X160452609Y-98122428D01*
X160523074Y-98042599D01*
X160549387Y-97980609D01*
X160557862Y-97874468D01*
X160468670Y-97653710D01*
X160388842Y-97583245D01*
X160326852Y-97556932D01*
X160220710Y-97548457D01*
X160044103Y-97619811D01*
X159973639Y-97699639D01*
X159947325Y-97761629D01*
X159938851Y-97867771D01*
X112400859Y-98006924D02*
X112515475Y-98104590D01*
X112736233Y-98193783D01*
X112842375Y-98185308D01*
X112904365Y-98158995D01*
X112984193Y-98088530D01*
X113019870Y-98000227D01*
X113011395Y-97894085D01*
X112985082Y-97832095D01*
X112914617Y-97752266D01*
X112755849Y-97636761D01*
X112685384Y-97556933D01*
X112659071Y-97494943D01*
X112650596Y-97388801D01*
X112686273Y-97300498D01*
X112766102Y-97230033D01*
X112828092Y-97203720D01*
X112934233Y-97195245D01*
X113154991Y-97284437D01*
X113269608Y-97382104D01*
X113596508Y-97462821D02*
X113442659Y-98479197D01*
X113886842Y-97888277D01*
X113795872Y-98621904D01*
X114391237Y-97783913D01*
X114664621Y-97997085D02*
X114726611Y-97970771D01*
X114832753Y-97962297D01*
X115053511Y-98051489D01*
X115123976Y-98131317D01*
X115150289Y-98193307D01*
X115158764Y-98299449D01*
X115123087Y-98387752D01*
X115025420Y-98502368D01*
X114281540Y-98818127D01*
X114855511Y-99050026D01*
X116068998Y-98461772D02*
X115627482Y-98283388D01*
X115404946Y-98707066D01*
X115466936Y-98680753D01*
X115573078Y-98672278D01*
X115793836Y-98761470D01*
X115864301Y-98841298D01*
X115890614Y-98903288D01*
X115899089Y-99009430D01*
X115809897Y-99230188D01*
X115730068Y-99300653D01*
X115668078Y-99326966D01*
X115561936Y-99335441D01*
X115341178Y-99246249D01*
X115270714Y-99166420D01*
X115244400Y-99104430D01*
X96589357Y-89053422D02*
X96703973Y-89151088D01*
X96924731Y-89240281D01*
X97030873Y-89231806D01*
X97092863Y-89205493D01*
X97172691Y-89135028D01*
X97208368Y-89046725D01*
X97199893Y-88940583D01*
X97173580Y-88878593D01*
X97103115Y-88798764D01*
X96944347Y-88683259D01*
X96873882Y-88603431D01*
X96847569Y-88541441D01*
X96839094Y-88435299D01*
X96874771Y-88346996D01*
X96954600Y-88276531D01*
X97016590Y-88250218D01*
X97122731Y-88241743D01*
X97343489Y-88330935D01*
X97458106Y-88428602D01*
X97785006Y-88509319D02*
X97631157Y-89525695D01*
X98075340Y-88934775D01*
X97984370Y-89668402D01*
X98579735Y-88830411D01*
X98853119Y-89043583D02*
X98915109Y-89017269D01*
X99021251Y-89008795D01*
X99242009Y-89097987D01*
X99312474Y-89177815D01*
X99338787Y-89239805D01*
X99347262Y-89345947D01*
X99311585Y-89434250D01*
X99213918Y-89548866D01*
X98470038Y-89864625D01*
X99044009Y-90096524D01*
X100088475Y-89799493D02*
X99838738Y-90417616D01*
X100010425Y-89357088D02*
X99522090Y-89930170D01*
X100096061Y-90162069D01*
X80777857Y-80099923D02*
X80892473Y-80197589D01*
X81113231Y-80286782D01*
X81219373Y-80278307D01*
X81281363Y-80251994D01*
X81361191Y-80181529D01*
X81396868Y-80093226D01*
X81388393Y-79987084D01*
X81362080Y-79925094D01*
X81291615Y-79845265D01*
X81132847Y-79729760D01*
X81062382Y-79649932D01*
X81036069Y-79587942D01*
X81027594Y-79481800D01*
X81063271Y-79393497D01*
X81143100Y-79323032D01*
X81205090Y-79296719D01*
X81311231Y-79288244D01*
X81531989Y-79377436D01*
X81646606Y-79475103D01*
X81973506Y-79555820D02*
X81819657Y-80572196D01*
X82263840Y-79981276D01*
X82172870Y-80714903D01*
X82768235Y-79876912D01*
X83041619Y-80090084D02*
X83103609Y-80063770D01*
X83209751Y-80055296D01*
X83430509Y-80144488D01*
X83500974Y-80224316D01*
X83527287Y-80286306D01*
X83535762Y-80392448D01*
X83500085Y-80480751D01*
X83402418Y-80595367D01*
X82658538Y-80911126D01*
X83232509Y-81143025D01*
X83916177Y-80340710D02*
X84490147Y-80572610D01*
X84038379Y-80800954D01*
X84170834Y-80854469D01*
X84241299Y-80934297D01*
X84267612Y-80996287D01*
X84276087Y-81102429D01*
X84186895Y-81323187D01*
X84107066Y-81393652D01*
X84045076Y-81419965D01*
X83938934Y-81428440D01*
X83674025Y-81321409D01*
X83603560Y-81241581D01*
X83577247Y-81179591D01*
X63188360Y-75591426D02*
X63302976Y-75689092D01*
X63523734Y-75778285D01*
X63629876Y-75769810D01*
X63691866Y-75743497D01*
X63771694Y-75673032D01*
X63807371Y-75584729D01*
X63798896Y-75478587D01*
X63772583Y-75416597D01*
X63702118Y-75336768D01*
X63543350Y-75221263D01*
X63472885Y-75141435D01*
X63446572Y-75079445D01*
X63438097Y-74973303D01*
X63473774Y-74885000D01*
X63553603Y-74814535D01*
X63615593Y-74788222D01*
X63721734Y-74779747D01*
X63942492Y-74868939D01*
X64057109Y-74966606D01*
X64384009Y-75047323D02*
X64230160Y-76063699D01*
X64674343Y-75472779D01*
X64583373Y-76206406D01*
X65178738Y-75368415D01*
X65452122Y-75581587D02*
X65514112Y-75555273D01*
X65620254Y-75546799D01*
X65841012Y-75635991D01*
X65911477Y-75715819D01*
X65937790Y-75777809D01*
X65946265Y-75883951D01*
X65910588Y-75972254D01*
X65812921Y-76086870D01*
X65069041Y-76402629D01*
X65643012Y-76634528D01*
X66335154Y-75938355D02*
X66397144Y-75912042D01*
X66503286Y-75903567D01*
X66724044Y-75992759D01*
X66794509Y-76072587D01*
X66820822Y-76134577D01*
X66829297Y-76240719D01*
X66793620Y-76329022D01*
X66695953Y-76443639D01*
X65952073Y-76759397D01*
X66526044Y-76991296D01*
X44709853Y-73241929D02*
X44824469Y-73339595D01*
X45045227Y-73428788D01*
X45151369Y-73420313D01*
X45213359Y-73394000D01*
X45293187Y-73323535D01*
X45328864Y-73235232D01*
X45320389Y-73129090D01*
X45294076Y-73067100D01*
X45223611Y-72987271D01*
X45064843Y-72871766D01*
X44994378Y-72791938D01*
X44968065Y-72729948D01*
X44959590Y-72623806D01*
X44995267Y-72535503D01*
X45075096Y-72465038D01*
X45137086Y-72438725D01*
X45243227Y-72430250D01*
X45463985Y-72519442D01*
X45578602Y-72617109D01*
X45905502Y-72697826D02*
X45751653Y-73714202D01*
X46195836Y-73123282D01*
X46104866Y-73856909D01*
X46700231Y-73018918D01*
X46973615Y-73232090D02*
X47035605Y-73205776D01*
X47141747Y-73197302D01*
X47362505Y-73286494D01*
X47432970Y-73366322D01*
X47459283Y-73428312D01*
X47467758Y-73534454D01*
X47432081Y-73622757D01*
X47334414Y-73737373D01*
X46590534Y-74053132D01*
X47164505Y-74285031D01*
X48047537Y-74641799D02*
X47517718Y-74427738D01*
X47782627Y-74534769D02*
X48157234Y-73607585D01*
X48015415Y-73704363D01*
X47891435Y-73756989D01*
X47785294Y-73765464D01*
X218533356Y-58849641D02*
X218683649Y-58840277D01*
X218904407Y-58751085D01*
X218974872Y-58671257D01*
X219001185Y-58609267D01*
X219009660Y-58503125D01*
X218973983Y-58414822D01*
X218894155Y-58344357D01*
X218832165Y-58318044D01*
X218726023Y-58309569D01*
X218531578Y-58336771D01*
X218425436Y-58328296D01*
X218363446Y-58301983D01*
X218283618Y-58231518D01*
X218247941Y-58143215D01*
X218256416Y-58037073D01*
X218282729Y-57975083D01*
X218353194Y-57895255D01*
X218573952Y-57806063D01*
X218724245Y-57796699D01*
X219015468Y-57627679D02*
X219610833Y-58465671D01*
X219519863Y-57732043D01*
X219964046Y-58322963D01*
X219810197Y-57306587D01*
X220154935Y-57270022D02*
X220181248Y-57208032D01*
X220251713Y-57128203D01*
X220472471Y-57039011D01*
X220578613Y-57047486D01*
X220640603Y-57073799D01*
X220720431Y-57144264D01*
X220756108Y-57232567D01*
X220765472Y-57382861D01*
X220449713Y-58126741D01*
X221023684Y-57894841D01*
X221223049Y-56735758D02*
X221311352Y-56700081D01*
X221417494Y-56708556D01*
X221479484Y-56734869D01*
X221559312Y-56805334D01*
X221674817Y-56964102D01*
X221764009Y-57184860D01*
X221791211Y-57379305D01*
X221782737Y-57485447D01*
X221756423Y-57547437D01*
X221685959Y-57627265D01*
X221597655Y-57662942D01*
X221491514Y-57654467D01*
X221429524Y-57628154D01*
X221349695Y-57557689D01*
X221234190Y-57398921D01*
X221144998Y-57178163D01*
X221117796Y-56983718D01*
X221126271Y-56877577D01*
X221152584Y-56815587D01*
X221223049Y-56735758D01*
X182465355Y-65707644D02*
X182615648Y-65698280D01*
X182836406Y-65609088D01*
X182906871Y-65529260D01*
X182933184Y-65467270D01*
X182941659Y-65361128D01*
X182905982Y-65272825D01*
X182826154Y-65202360D01*
X182764164Y-65176047D01*
X182658022Y-65167572D01*
X182463577Y-65194774D01*
X182357435Y-65186299D01*
X182295445Y-65159986D01*
X182215617Y-65089521D01*
X182179940Y-65001218D01*
X182188415Y-64895076D01*
X182214728Y-64833086D01*
X182285193Y-64753258D01*
X182505951Y-64664066D01*
X182656244Y-64654702D01*
X182947467Y-64485682D02*
X183542832Y-65323674D01*
X183451862Y-64590046D01*
X183896045Y-65180966D01*
X183742196Y-64164590D01*
X184955683Y-64752844D02*
X184425864Y-64966905D01*
X184690774Y-64859875D02*
X184316167Y-63932691D01*
X184281379Y-64100823D01*
X184228753Y-64224803D01*
X184158288Y-64304631D01*
X185271442Y-64008964D02*
X185165300Y-64000489D01*
X185103310Y-63974176D01*
X185023482Y-63903711D01*
X185005643Y-63859560D01*
X185014118Y-63753418D01*
X185040431Y-63691428D01*
X185110896Y-63611600D01*
X185287503Y-63540246D01*
X185393644Y-63548721D01*
X185455634Y-63575034D01*
X185535463Y-63645499D01*
X185553301Y-63689650D01*
X185544826Y-63795792D01*
X185518513Y-63857782D01*
X185448048Y-63937611D01*
X185271442Y-64008964D01*
X185200977Y-64088793D01*
X185174664Y-64150783D01*
X185166189Y-64256924D01*
X185237543Y-64433531D01*
X185317371Y-64503996D01*
X185379361Y-64530309D01*
X185485503Y-64538784D01*
X185662109Y-64467430D01*
X185732574Y-64387601D01*
X185758887Y-64325611D01*
X185767362Y-64219470D01*
X185696008Y-64042863D01*
X185616180Y-63972399D01*
X185554190Y-63946085D01*
X185448048Y-63937611D01*
X166717355Y-74661146D02*
X166867648Y-74651782D01*
X167088406Y-74562590D01*
X167158871Y-74482762D01*
X167185184Y-74420772D01*
X167193659Y-74314630D01*
X167157982Y-74226327D01*
X167078154Y-74155862D01*
X167016164Y-74129549D01*
X166910022Y-74121074D01*
X166715577Y-74148276D01*
X166609435Y-74139801D01*
X166547445Y-74113488D01*
X166467617Y-74043023D01*
X166431940Y-73954720D01*
X166440415Y-73848578D01*
X166466728Y-73786588D01*
X166537193Y-73706760D01*
X166757951Y-73617568D01*
X166908244Y-73608204D01*
X167199467Y-73439184D02*
X167794832Y-74277176D01*
X167703862Y-73543548D01*
X168148045Y-74134468D01*
X167994196Y-73118092D01*
X169207683Y-73706346D02*
X168677864Y-73920407D01*
X168942774Y-73813377D02*
X168568167Y-72886193D01*
X168533379Y-73054325D01*
X168480753Y-73178305D01*
X168410288Y-73258133D01*
X169142138Y-72654294D02*
X169760261Y-72404556D01*
X169737503Y-73492286D01*
X150842351Y-83551146D02*
X150992644Y-83541782D01*
X151213402Y-83452590D01*
X151283867Y-83372762D01*
X151310180Y-83310772D01*
X151318655Y-83204630D01*
X151282978Y-83116327D01*
X151203150Y-83045862D01*
X151141160Y-83019549D01*
X151035018Y-83011074D01*
X150840573Y-83038276D01*
X150734431Y-83029801D01*
X150672441Y-83003488D01*
X150592613Y-82933023D01*
X150556936Y-82844720D01*
X150565411Y-82738578D01*
X150591724Y-82676588D01*
X150662189Y-82596760D01*
X150882947Y-82507568D01*
X151033240Y-82498204D01*
X151324463Y-82329184D02*
X151919828Y-83167176D01*
X151828858Y-82433548D01*
X152273041Y-83024468D01*
X152119192Y-82008092D01*
X153332679Y-82596346D02*
X152802860Y-82810407D01*
X153067770Y-82703377D02*
X152693163Y-81776193D01*
X152658375Y-81944325D01*
X152605749Y-82068305D01*
X152535284Y-82148133D01*
X153752802Y-81348071D02*
X153576195Y-81419425D01*
X153505731Y-81499253D01*
X153479417Y-81561243D01*
X153444629Y-81729375D01*
X153471831Y-81923820D01*
X153614539Y-82277033D01*
X153694367Y-82347498D01*
X153756357Y-82373811D01*
X153862499Y-82382286D01*
X154039105Y-82310932D01*
X154109570Y-82231103D01*
X154135883Y-82169113D01*
X154144358Y-82062972D01*
X154055166Y-81842214D01*
X153975338Y-81771749D01*
X153913348Y-81745436D01*
X153807206Y-81736961D01*
X153630599Y-81808315D01*
X153560135Y-81888143D01*
X153533821Y-81950133D01*
X153525347Y-82056275D01*
X118750856Y-82258928D02*
X118865472Y-82356594D01*
X119086230Y-82445787D01*
X119192372Y-82437312D01*
X119254362Y-82410999D01*
X119334190Y-82340534D01*
X119369867Y-82252231D01*
X119361392Y-82146089D01*
X119335079Y-82084099D01*
X119264614Y-82004270D01*
X119105846Y-81888765D01*
X119035381Y-81808937D01*
X119009068Y-81746947D01*
X119000593Y-81640805D01*
X119036270Y-81552502D01*
X119116099Y-81482037D01*
X119178089Y-81455724D01*
X119284230Y-81447249D01*
X119504988Y-81536441D01*
X119619605Y-81634108D01*
X119946505Y-81714825D02*
X119792656Y-82731201D01*
X120236839Y-82140281D01*
X120145869Y-82873908D01*
X120741234Y-82035917D01*
X121205508Y-83302030D02*
X120675688Y-83087969D01*
X120940598Y-83195000D02*
X121315205Y-82267816D01*
X121173386Y-82364594D01*
X121049406Y-82417220D01*
X120943264Y-82425695D01*
X122418995Y-82713776D02*
X121977479Y-82535392D01*
X121754943Y-82959070D01*
X121816933Y-82932757D01*
X121923075Y-82924282D01*
X122143833Y-83013474D01*
X122214298Y-83093302D01*
X122240611Y-83155292D01*
X122249086Y-83261434D01*
X122159894Y-83482192D01*
X122080065Y-83552657D01*
X122018075Y-83578970D01*
X121911933Y-83587445D01*
X121691175Y-83498253D01*
X121620711Y-83418424D01*
X121594397Y-83356434D01*
X102939355Y-73305426D02*
X103053971Y-73403092D01*
X103274729Y-73492285D01*
X103380871Y-73483810D01*
X103442861Y-73457497D01*
X103522689Y-73387032D01*
X103558366Y-73298729D01*
X103549891Y-73192587D01*
X103523578Y-73130597D01*
X103453113Y-73050768D01*
X103294345Y-72935263D01*
X103223880Y-72855435D01*
X103197567Y-72793445D01*
X103189092Y-72687303D01*
X103224769Y-72599000D01*
X103304598Y-72528535D01*
X103366588Y-72502222D01*
X103472729Y-72493747D01*
X103693487Y-72582939D01*
X103808104Y-72680606D01*
X104135004Y-72761323D02*
X103981155Y-73777699D01*
X104425338Y-73186779D01*
X104334368Y-73920406D01*
X104929733Y-73082415D01*
X105394007Y-74348528D02*
X104864187Y-74134467D01*
X105129097Y-74241498D02*
X105503704Y-73314314D01*
X105361885Y-73411092D01*
X105237905Y-73463718D01*
X105131763Y-73472193D01*
X106438473Y-74051497D02*
X106188736Y-74669620D01*
X106360423Y-73609092D02*
X105872088Y-74182174D01*
X106446059Y-74414073D01*
X87191356Y-64351923D02*
X87305972Y-64449589D01*
X87526730Y-64538782D01*
X87632872Y-64530307D01*
X87694862Y-64503994D01*
X87774690Y-64433529D01*
X87810367Y-64345226D01*
X87801892Y-64239084D01*
X87775579Y-64177094D01*
X87705114Y-64097265D01*
X87546346Y-63981760D01*
X87475881Y-63901932D01*
X87449568Y-63839942D01*
X87441093Y-63733800D01*
X87476770Y-63645497D01*
X87556599Y-63575032D01*
X87618589Y-63548719D01*
X87724730Y-63540244D01*
X87945488Y-63629436D01*
X88060105Y-63727103D01*
X88387005Y-63807820D02*
X88233156Y-64824196D01*
X88677339Y-64233276D01*
X88586369Y-64966903D01*
X89181734Y-64128912D01*
X89646008Y-65395025D02*
X89116188Y-65180964D01*
X89381098Y-65287995D02*
X89755705Y-64360811D01*
X89613886Y-64457589D01*
X89489906Y-64510215D01*
X89383764Y-64518690D01*
X90329676Y-64592710D02*
X90903646Y-64824610D01*
X90451878Y-65052954D01*
X90584333Y-65106469D01*
X90654798Y-65186297D01*
X90681111Y-65248287D01*
X90689586Y-65354429D01*
X90600394Y-65575187D01*
X90520565Y-65645652D01*
X90458575Y-65671965D01*
X90352433Y-65680440D01*
X90087524Y-65573409D01*
X90017059Y-65493581D01*
X89990746Y-65431591D01*
X69601856Y-59779923D02*
X69716472Y-59877589D01*
X69937230Y-59966782D01*
X70043372Y-59958307D01*
X70105362Y-59931994D01*
X70185190Y-59861529D01*
X70220867Y-59773226D01*
X70212392Y-59667084D01*
X70186079Y-59605094D01*
X70115614Y-59525265D01*
X69956846Y-59409760D01*
X69886381Y-59329932D01*
X69860068Y-59267942D01*
X69851593Y-59161800D01*
X69887270Y-59073497D01*
X69967099Y-59003032D01*
X70029089Y-58976719D01*
X70135230Y-58968244D01*
X70355988Y-59057436D01*
X70470605Y-59155103D01*
X70797505Y-59235820D02*
X70643656Y-60252196D01*
X71087839Y-59661276D01*
X70996869Y-60394903D01*
X71592234Y-59556912D01*
X72056508Y-60823025D02*
X71526688Y-60608964D01*
X71791598Y-60715995D02*
X72166205Y-59788811D01*
X72024386Y-59885589D01*
X71900406Y-59938215D01*
X71794264Y-59946690D01*
X72748650Y-60126852D02*
X72810640Y-60100539D01*
X72916782Y-60092064D01*
X73137540Y-60181256D01*
X73208005Y-60261084D01*
X73234318Y-60323074D01*
X73242793Y-60429216D01*
X73207116Y-60517519D01*
X73109449Y-60632136D01*
X72365569Y-60947894D01*
X72939540Y-61179793D01*
X51123354Y-57493925D02*
X51237970Y-57591591D01*
X51458728Y-57680784D01*
X51564870Y-57672309D01*
X51626860Y-57645996D01*
X51706688Y-57575531D01*
X51742365Y-57487228D01*
X51733890Y-57381086D01*
X51707577Y-57319096D01*
X51637112Y-57239267D01*
X51478344Y-57123762D01*
X51407879Y-57043934D01*
X51381566Y-56981944D01*
X51373091Y-56875802D01*
X51408768Y-56787499D01*
X51488597Y-56717034D01*
X51550587Y-56690721D01*
X51656728Y-56682246D01*
X51877486Y-56771438D01*
X51992103Y-56869105D01*
X52319003Y-56949822D02*
X52165154Y-57966198D01*
X52609337Y-57375278D01*
X52518367Y-58108905D01*
X53113732Y-57270914D01*
X53578006Y-58537027D02*
X53048186Y-58322966D01*
X53313096Y-58429997D02*
X53687703Y-57502813D01*
X53545884Y-57599591D01*
X53421904Y-57652217D01*
X53315762Y-57660692D01*
X54461038Y-58893795D02*
X53931219Y-58679734D01*
X54196128Y-58786765D02*
X54570735Y-57859581D01*
X54428916Y-57956359D01*
X54304936Y-58008985D01*
X54198795Y-58017460D01*
X212183353Y-43038141D02*
X212333646Y-43028777D01*
X212554404Y-42939585D01*
X212624869Y-42859757D01*
X212651182Y-42797767D01*
X212659657Y-42691625D01*
X212623980Y-42603322D01*
X212544152Y-42532857D01*
X212482162Y-42506544D01*
X212376020Y-42498069D01*
X212181575Y-42525271D01*
X212075433Y-42516796D01*
X212013443Y-42490483D01*
X211933615Y-42420018D01*
X211897938Y-42331715D01*
X211906413Y-42225573D01*
X211932726Y-42163583D01*
X212003191Y-42083755D01*
X212223949Y-41994563D01*
X212374242Y-41985199D01*
X212665465Y-41816179D02*
X213260830Y-42654171D01*
X213169860Y-41920543D01*
X213614043Y-42511463D01*
X213460194Y-41495087D01*
X214673681Y-42083341D02*
X214143862Y-42297402D01*
X214408772Y-42190372D02*
X214034165Y-41263188D01*
X213999377Y-41431320D01*
X213946751Y-41555300D01*
X213876286Y-41635128D01*
X214873046Y-40924258D02*
X214961349Y-40888581D01*
X215067491Y-40897056D01*
X215129481Y-40923369D01*
X215209309Y-40993834D01*
X215324814Y-41152602D01*
X215414006Y-41373360D01*
X215441208Y-41567805D01*
X215432734Y-41673947D01*
X215406420Y-41735937D01*
X215335956Y-41815765D01*
X215247652Y-41851442D01*
X215141511Y-41842967D01*
X215079521Y-41816654D01*
X214999692Y-41746189D01*
X214884187Y-41587421D01*
X214794995Y-41366663D01*
X214767793Y-41172218D01*
X214776268Y-41066077D01*
X214802581Y-41004087D01*
X214873046Y-40924258D01*
X194146374Y-45209259D02*
X194296667Y-45199895D01*
X194517425Y-45110703D01*
X194587890Y-45030875D01*
X194614203Y-44968885D01*
X194622678Y-44862743D01*
X194587001Y-44774440D01*
X194507173Y-44703975D01*
X194445183Y-44677662D01*
X194339041Y-44669187D01*
X194144596Y-44696389D01*
X194038455Y-44687914D01*
X193976465Y-44661601D01*
X193896636Y-44591136D01*
X193860959Y-44502833D01*
X193869434Y-44396691D01*
X193895747Y-44334701D01*
X193966212Y-44254873D01*
X194186970Y-44165681D01*
X194337263Y-44156317D01*
X194628486Y-43987297D02*
X195223851Y-44825288D01*
X195132881Y-44091661D01*
X195577064Y-44682581D01*
X195423215Y-43666205D01*
X196195186Y-44432843D02*
X196371793Y-44361490D01*
X196442258Y-44281661D01*
X196468571Y-44219671D01*
X196503359Y-44051540D01*
X196476157Y-43857095D01*
X196333450Y-43503882D01*
X196253621Y-43433417D01*
X196191631Y-43407104D01*
X196085489Y-43398629D01*
X195908883Y-43469983D01*
X195838418Y-43549811D01*
X195812105Y-43611801D01*
X195803630Y-43717943D01*
X195892822Y-43938701D01*
X195972651Y-44009166D01*
X196034641Y-44035479D01*
X196140782Y-44043954D01*
X196317389Y-43972600D01*
X196387854Y-43892772D01*
X196414167Y-43830782D01*
X196422642Y-43724640D01*
X176556870Y-49717760D02*
X176707163Y-49708396D01*
X176927921Y-49619204D01*
X176998386Y-49539376D01*
X177024699Y-49477386D01*
X177033174Y-49371244D01*
X176997497Y-49282941D01*
X176917669Y-49212476D01*
X176855679Y-49186163D01*
X176749537Y-49177688D01*
X176555092Y-49204890D01*
X176448951Y-49196415D01*
X176386961Y-49170102D01*
X176307132Y-49099637D01*
X176271455Y-49011334D01*
X176279930Y-48905192D01*
X176306243Y-48843202D01*
X176376708Y-48763374D01*
X176597466Y-48674182D01*
X176747759Y-48664818D01*
X177038982Y-48495798D02*
X177634347Y-49333789D01*
X177543377Y-48600162D01*
X177987560Y-49191082D01*
X177833711Y-48174706D01*
X178479925Y-48375848D02*
X178373783Y-48367373D01*
X178311793Y-48341060D01*
X178231965Y-48270595D01*
X178214126Y-48226444D01*
X178222601Y-48120302D01*
X178248914Y-48058312D01*
X178319379Y-47978484D01*
X178495985Y-47907130D01*
X178602127Y-47915605D01*
X178664117Y-47941918D01*
X178743946Y-48012383D01*
X178761784Y-48056535D01*
X178753309Y-48162676D01*
X178726996Y-48224666D01*
X178656531Y-48304495D01*
X178479925Y-48375848D01*
X178409460Y-48455677D01*
X178383147Y-48517667D01*
X178374672Y-48623808D01*
X178446026Y-48800415D01*
X178525854Y-48870880D01*
X178587844Y-48897193D01*
X178693986Y-48905668D01*
X178870592Y-48834314D01*
X178941057Y-48754486D01*
X178967370Y-48692496D01*
X178975845Y-48586354D01*
X178904491Y-48409747D01*
X178824663Y-48339283D01*
X178762673Y-48312969D01*
X178656531Y-48304495D01*
X160808870Y-58671261D02*
X160959163Y-58661897D01*
X161179921Y-58572705D01*
X161250386Y-58492877D01*
X161276699Y-58430887D01*
X161285174Y-58324745D01*
X161249497Y-58236442D01*
X161169669Y-58165977D01*
X161107679Y-58139664D01*
X161001537Y-58131189D01*
X160807092Y-58158391D01*
X160700951Y-58149916D01*
X160638961Y-58123603D01*
X160559132Y-58053138D01*
X160523455Y-57964835D01*
X160531930Y-57858693D01*
X160558243Y-57796703D01*
X160628708Y-57716875D01*
X160849466Y-57627683D01*
X160999759Y-57618319D01*
X161290982Y-57449299D02*
X161886347Y-58287290D01*
X161795377Y-57553663D01*
X162239560Y-58144583D01*
X162085711Y-57128207D01*
X162350621Y-57021177D02*
X162968744Y-56771439D01*
X162945986Y-57859169D01*
X144933873Y-67624760D02*
X145084166Y-67615396D01*
X145304924Y-67526204D01*
X145375389Y-67446376D01*
X145401702Y-67384386D01*
X145410177Y-67278244D01*
X145374500Y-67189941D01*
X145294672Y-67119476D01*
X145232682Y-67093163D01*
X145126540Y-67084688D01*
X144932095Y-67111890D01*
X144825954Y-67103415D01*
X144763964Y-67077102D01*
X144684135Y-67006637D01*
X144648458Y-66918334D01*
X144656933Y-66812192D01*
X144683246Y-66750202D01*
X144753711Y-66670374D01*
X144974469Y-66581182D01*
X145124762Y-66571818D01*
X145415985Y-66402798D02*
X146011350Y-67240789D01*
X145920380Y-66507162D01*
X146364563Y-67098082D01*
X146210714Y-66081706D01*
X146961292Y-65778453D02*
X146784685Y-65849807D01*
X146714220Y-65929635D01*
X146687907Y-65991625D01*
X146653119Y-66159757D01*
X146680321Y-66354202D01*
X146823029Y-66707415D01*
X146902857Y-66777880D01*
X146964847Y-66804193D01*
X147070989Y-66812668D01*
X147247595Y-66741314D01*
X147318060Y-66661486D01*
X147344373Y-66599496D01*
X147352848Y-66493354D01*
X147263656Y-66272596D01*
X147183827Y-66202131D01*
X147121837Y-66175818D01*
X147015696Y-66167343D01*
X146839089Y-66238697D01*
X146768624Y-66318525D01*
X146742311Y-66380515D01*
X146733836Y-66486657D01*
X125542372Y-66625809D02*
X125656988Y-66723476D01*
X125877746Y-66812668D01*
X125983888Y-66804193D01*
X126045878Y-66777880D01*
X126125706Y-66707415D01*
X126161383Y-66619112D01*
X126152908Y-66512970D01*
X126126595Y-66450980D01*
X126056130Y-66371152D01*
X125897362Y-66255646D01*
X125826898Y-66175818D01*
X125800584Y-66113828D01*
X125792110Y-66007686D01*
X125827786Y-65919383D01*
X125907615Y-65848918D01*
X125969605Y-65822605D01*
X126075747Y-65814130D01*
X126296505Y-65903322D01*
X126411121Y-66000989D01*
X126738021Y-66081706D02*
X126584172Y-67098082D01*
X127028355Y-66507162D01*
X126937385Y-67240789D01*
X127532750Y-66402798D01*
X128327479Y-66723889D02*
X127885963Y-66545505D01*
X127663427Y-66969183D01*
X127725417Y-66942869D01*
X127831559Y-66934395D01*
X128052317Y-67023587D01*
X128122781Y-67103415D01*
X128149095Y-67165405D01*
X128157569Y-67271547D01*
X128068377Y-67492305D01*
X127988549Y-67562770D01*
X127926559Y-67589083D01*
X127820417Y-67597558D01*
X127599659Y-67508366D01*
X127529194Y-67428537D01*
X127502881Y-67366547D01*
X109794371Y-57672308D02*
X109908987Y-57769975D01*
X110129745Y-57859167D01*
X110235887Y-57850692D01*
X110297877Y-57824379D01*
X110377705Y-57753914D01*
X110413382Y-57665611D01*
X110404907Y-57559469D01*
X110378594Y-57497479D01*
X110308129Y-57417651D01*
X110149361Y-57302145D01*
X110078897Y-57222317D01*
X110052583Y-57160327D01*
X110044109Y-57054185D01*
X110079785Y-56965882D01*
X110159614Y-56895417D01*
X110221604Y-56869104D01*
X110327746Y-56860629D01*
X110548504Y-56949821D01*
X110663120Y-57047488D01*
X110990020Y-57128205D02*
X110836171Y-58144581D01*
X111280354Y-57553661D01*
X111189384Y-58287288D01*
X111784749Y-57449297D01*
X112410457Y-58061611D02*
X112160720Y-58679733D01*
X112332406Y-57619206D02*
X111844072Y-58192288D01*
X112418043Y-58424187D01*
X93982872Y-48782308D02*
X94097488Y-48879975D01*
X94318246Y-48969167D01*
X94424388Y-48960692D01*
X94486378Y-48934379D01*
X94566206Y-48863914D01*
X94601883Y-48775611D01*
X94593408Y-48669469D01*
X94567095Y-48607479D01*
X94496630Y-48527651D01*
X94337862Y-48412145D01*
X94267398Y-48332317D01*
X94241084Y-48270327D01*
X94232610Y-48164185D01*
X94268286Y-48075882D01*
X94348115Y-48005417D01*
X94410105Y-47979104D01*
X94516247Y-47970629D01*
X94737005Y-48059821D01*
X94851621Y-48157488D01*
X95178521Y-48238205D02*
X95024672Y-49254581D01*
X95468855Y-48663661D01*
X95377885Y-49397288D01*
X95973250Y-48559297D01*
X96238159Y-48666327D02*
X96812130Y-48898226D01*
X96360362Y-49126570D01*
X96492817Y-49180086D01*
X96563281Y-49259914D01*
X96589595Y-49321904D01*
X96598069Y-49428046D01*
X96508877Y-49648804D01*
X96429049Y-49719269D01*
X96367059Y-49745582D01*
X96260917Y-49754057D01*
X95996008Y-49647026D01*
X95925543Y-49567198D01*
X95899230Y-49505208D01*
X76393370Y-44210308D02*
X76507986Y-44307975D01*
X76728744Y-44397167D01*
X76834886Y-44388692D01*
X76896876Y-44362379D01*
X76976704Y-44291914D01*
X77012381Y-44203611D01*
X77003906Y-44097469D01*
X76977593Y-44035479D01*
X76907128Y-43955651D01*
X76748360Y-43840145D01*
X76677896Y-43760317D01*
X76651582Y-43698327D01*
X76643108Y-43592185D01*
X76678784Y-43503882D01*
X76758613Y-43433417D01*
X76820603Y-43407104D01*
X76926745Y-43398629D01*
X77147503Y-43487821D01*
X77262119Y-43585488D01*
X77589019Y-43666205D02*
X77435170Y-44682581D01*
X77879353Y-44091661D01*
X77788383Y-44825288D01*
X78383748Y-43987297D01*
X78657132Y-44200469D02*
X78719122Y-44174156D01*
X78825264Y-44165681D01*
X79046022Y-44254873D01*
X79116487Y-44334701D01*
X79142800Y-44396691D01*
X79151275Y-44502833D01*
X79115598Y-44591136D01*
X79017931Y-44705753D01*
X78274051Y-45021511D01*
X78848022Y-45253410D01*
X57914872Y-41924307D02*
X58029488Y-42021974D01*
X58250246Y-42111166D01*
X58356388Y-42102691D01*
X58418378Y-42076378D01*
X58498206Y-42005913D01*
X58533883Y-41917610D01*
X58525408Y-41811468D01*
X58499095Y-41749478D01*
X58428630Y-41669650D01*
X58269862Y-41554144D01*
X58199398Y-41474316D01*
X58173084Y-41412326D01*
X58164610Y-41306184D01*
X58200286Y-41217881D01*
X58280115Y-41147416D01*
X58342105Y-41121103D01*
X58448247Y-41112628D01*
X58669005Y-41201820D01*
X58783621Y-41299487D01*
X59110521Y-41380204D02*
X58956672Y-42396580D01*
X59400855Y-41805660D01*
X59309885Y-42539287D01*
X59905250Y-41701296D01*
X60369524Y-42967409D02*
X59839704Y-42753348D01*
X60104614Y-42860379D02*
X60479221Y-41933195D01*
X60337402Y-42029973D01*
X60213422Y-42082599D01*
X60107281Y-42091074D01*
M02*
