M48
; DRILL file {KiCad (5.1.9-0-10_14)} date Wednesday, February 24, 2021 at 03:03:02 PM
; FORMAT={-:-/ absolute / metric / decimal}
; #@! TF.CreationDate,2021-02-24T15:03:02-06:00
; #@! TF.GenerationSoftware,Kicad,Pcbnew,(5.1.9-0-10_14)
FMAT,2
METRIC
T1C0.400
T2C0.813
T3C0.900
T4C1.270
T5C0.800
T6C1.702
T7C3.000
T8C3.429
%
G90
G05
T1
X37.91Y-140.398
X40.322Y-125.857
X40.45Y-120.015
X41.593Y-102.489
X48.133Y-136.652
X50.609Y-136.652
X51.943Y-103.759
X53.213Y-136.652
X55.753Y-136.652
X58.229Y-136.652
X60.77Y-136.652
X63.309Y-136.715
X70.167Y-101.282
X87.884Y-103.759
X88.519Y-119.951
X96.965Y-128.333
X106.108Y-106.108
X121.539Y-128.27
T2
X34.099Y-130.866
X34.099Y-146.086
X35.369Y-129.54
X35.369Y-144.78
X36.639Y-130.866
X36.639Y-146.086
X37.91Y-129.54
X37.91Y-144.78
X39.179Y-130.866
X39.179Y-146.086
X40.45Y-129.54
X40.45Y-144.78
X41.719Y-130.866
X41.719Y-146.086
X42.989Y-129.54
X42.989Y-144.78
X44.259Y-130.866
X44.259Y-146.086
X45.529Y-129.54
X45.529Y-144.78
X46.799Y-130.866
X46.799Y-146.086
X48.069Y-129.54
X48.069Y-144.78
X49.34Y-130.866
X49.34Y-146.086
X50.609Y-129.54
X50.609Y-144.78
X51.88Y-130.866
X51.88Y-146.086
X53.149Y-129.54
X53.149Y-144.78
X54.419Y-130.866
X54.419Y-146.086
X55.689Y-129.54
X55.689Y-144.78
X56.959Y-130.866
X56.959Y-146.086
X58.229Y-129.54
X58.229Y-144.78
X59.499Y-130.866
X59.499Y-146.086
X60.77Y-129.54
X60.77Y-144.78
X62.039Y-130.866
X62.039Y-146.086
X63.309Y-129.54
X63.309Y-144.78
T4
X35.132Y-79.322
X35.132Y-96.276
X35.132Y-113.294
X40.132Y-77.221
X40.132Y-94.176
X40.132Y-111.194
X45.132Y-79.322
X45.132Y-96.276
X45.132Y-113.294
X53.166Y-74.559
X53.166Y-91.513
X53.166Y-108.531
X58.166Y-72.459
X58.166Y-89.413
X58.166Y-106.431
X63.166Y-74.559
X63.166Y-91.513
X63.166Y-108.531
X71.136Y-72.146
X71.136Y-89.164
X71.2Y-106.182
X76.136Y-70.046
X76.136Y-87.064
X76.2Y-104.082
X81.136Y-72.146
X81.136Y-89.164
X81.2Y-106.182
X89.17Y-74.559
X89.17Y-91.577
X89.17Y-108.531
X91.721Y-136.323
X94.17Y-72.459
X94.17Y-89.477
X94.17Y-106.431
X97.095Y-135.589
X99.17Y-74.559
X99.17Y-91.577
X99.17Y-108.531
X101.381Y-138.911
X107.141Y-76.972
X107.141Y-93.926
X107.141Y-110.944
X112.141Y-74.872
X112.141Y-91.826
X112.141Y-108.844
X114.259Y-138.991
X117.141Y-76.972
X117.141Y-93.926
X117.141Y-110.944
X119.655Y-139.531
X123.047Y-143.763
T5
X117.447Y-128.333
X117.447Y-128.333
X124.447Y-128.333
X124.447Y-128.333
T6
X34.632Y-83.121
X34.632Y-100.076
X34.632Y-117.094
X45.632Y-83.121
X45.632Y-100.076
X45.632Y-117.094
X52.666Y-78.359
X52.666Y-95.313
X52.666Y-112.331
X63.666Y-78.359
X63.666Y-95.313
X63.666Y-112.331
X70.636Y-75.946
X70.636Y-92.964
X70.7Y-109.982
X81.636Y-75.946
X81.636Y-92.964
X81.7Y-109.982
X88.67Y-78.359
X88.67Y-95.377
X88.67Y-112.331
X90.255Y-139.864
X99.67Y-78.359
X99.67Y-95.377
X99.67Y-112.331
X100.88Y-142.711
X106.641Y-80.772
X106.641Y-97.727
X106.641Y-114.744
X112.007Y-142.092
X117.641Y-80.772
X117.641Y-97.727
X117.641Y-114.744
X121.673Y-147.341
T7
X35.132Y-86.871
X35.132Y-103.826
X35.132Y-120.844
X40.132Y-89.072
X40.132Y-106.026
X40.132Y-123.044
X45.132Y-86.871
X45.132Y-103.826
X45.132Y-120.844
X53.166Y-82.109
X53.166Y-99.063
X53.166Y-116.081
X58.166Y-84.309
X58.166Y-101.263
X58.166Y-118.281
X63.166Y-82.109
X63.166Y-99.063
X63.166Y-116.081
X71.136Y-79.696
X71.136Y-96.714
X71.2Y-113.732
X76.136Y-81.896
X76.136Y-98.914
X76.2Y-115.932
X81.136Y-79.696
X81.136Y-96.714
X81.2Y-113.732
X89.17Y-82.109
X89.17Y-99.127
X89.17Y-116.081
X89.767Y-143.616
X94.028Y-147.035
X94.17Y-84.309
X94.17Y-101.327
X94.17Y-118.281
X99.17Y-82.109
X99.17Y-99.127
X99.17Y-116.081
X99.427Y-146.204
X107.141Y-84.522
X107.141Y-101.477
X107.141Y-118.494
X110.657Y-145.626
X112.141Y-86.722
X112.141Y-103.676
X112.141Y-120.694
X114.001Y-149.945
X117.141Y-84.522
X117.141Y-101.477
X117.141Y-118.494
X119.445Y-150.398
T8
X40.132Y-83.121
X40.132Y-100.076
X40.132Y-117.094
X58.166Y-78.359
X58.166Y-95.313
X58.166Y-112.331
X76.136Y-75.946
X76.136Y-92.964
X76.2Y-109.982
X94.17Y-78.359
X94.17Y-95.377
X94.17Y-112.331
X95.567Y-141.287
X112.141Y-80.772
X112.141Y-97.727
X112.141Y-114.744
X116.84Y-144.716
T3
G00X114.947Y-126.033
M15
G01X114.547Y-126.033
M16
G05
G00X114.947Y-126.033
M15
G01X114.547Y-126.033
M16
G05
G00X114.547Y-130.633
M15
G01X114.947Y-130.633
M16
G05
G00X114.547Y-130.633
M15
G01X114.947Y-130.633
M16
G05
G00X115.647Y-126.033
M15
G01X116.047Y-126.033
M16
G05
G00X115.647Y-126.033
M15
G01X116.047Y-126.033
M16
G05
G00X116.047Y-130.633
M15
G01X115.647Y-130.633
M16
G05
G00X116.047Y-130.633
M15
G01X115.647Y-130.633
M16
G05
G00X119.647Y-126.033
M15
G01X120.047Y-126.033
M16
G05
G00X119.647Y-126.033
M15
G01X120.047Y-126.033
M16
G05
G00X120.047Y-130.633
M15
G01X119.647Y-130.633
M16
G05
G00X120.047Y-130.633
M15
G01X119.647Y-130.633
M16
G05
G00X122.647Y-126.033
M15
G01X123.047Y-126.033
M16
G05
G00X122.647Y-126.033
M15
G01X123.047Y-126.033
M16
G05
G00X123.047Y-130.633
M15
G01X122.647Y-130.633
M16
G05
G00X123.047Y-130.633
M15
G01X122.647Y-130.633
M16
G05
T0
M30
