G04 #@! TF.GenerationSoftware,KiCad,Pcbnew,(5.1.9-0-10_14)*
G04 #@! TF.CreationDate,2021-02-24T15:03:00-06:00*
G04 #@! TF.ProjectId,micro_redox_split,6d696372-6f5f-4726-9564-6f785f73706c,rev?*
G04 #@! TF.SameCoordinates,Original*
G04 #@! TF.FileFunction,Profile,NP*
%FSLAX46Y46*%
G04 Gerber Fmt 4.6, Leading zero omitted, Abs format (unit mm)*
G04 Created by KiCad (PCBNEW (5.1.9-0-10_14)) date 2021-02-24 15:03:00*
%MOMM*%
%LPD*%
G01*
G04 APERTURE LIST*
G04 #@! TA.AperFunction,Profile*
%ADD10C,0.200000*%
G04 #@! TD*
G04 APERTURE END LIST*
D10*
X30117408Y-130915496D02*
X30117408Y-142915496D01*
X88336525Y-148210496D02*
G75*
G02*
X88724754Y-148261607I1J-1500000D01*
G01*
X126345657Y-133473595D02*
X129791217Y-140367789D01*
X129791217Y-140367789D02*
G75*
G02*
X129767683Y-141754108I-1341760J-670581D01*
G01*
X122117408Y-73405759D02*
X122117408Y-121739249D01*
X120981730Y-71950675D02*
G75*
G02*
X122117408Y-73405759I-364322J-1455084D01*
G01*
X31177773Y-74291591D02*
G75*
G02*
X120981730Y-71950675I49108300J-160195519D01*
G01*
X30117408Y-146710496D02*
X30117408Y-142915496D01*
X88336526Y-148210496D02*
X31617408Y-148210496D01*
X31617408Y-148210496D02*
G75*
G02*
X30117408Y-146710496I0J1500000D01*
G01*
X30117408Y-75725719D02*
G75*
G02*
X31177773Y-74291592I1500000J0D01*
G01*
X30117408Y-130915496D02*
X30117408Y-75725719D01*
X122034655Y-155996574D02*
G75*
G02*
X120328200Y-156729725I-1318226J715738D01*
G01*
X129767683Y-141754108D02*
X122034654Y-155996574D01*
X126345658Y-133473595D02*
G75*
G02*
X126187418Y-132803014I1341760J670581D01*
G01*
X126187418Y-124739249D02*
X126187418Y-132803014D01*
X124687418Y-123239249D02*
G75*
G02*
X126187418Y-124739249I0J-1500000D01*
G01*
X123617408Y-123239249D02*
X124687418Y-123239249D01*
X123617408Y-123239249D02*
G75*
G02*
X122117408Y-121739249I0J1500000D01*
G01*
X120328200Y-156729725D02*
X88724754Y-148261607D01*
M02*
