0
SECTION
2
HEADER
9
$INSUNITS
70
4
9
$ACADVER
1
AC1014
9
$HANDSEED
5
FFFF
0
ENDSEC
0
SECTION
2
TABLES
0
TABLE
2
VPORT
5
8
100
AcDbSymbolTable
0
ENDTAB
0
TABLE
2
LTYPE
5
5
100
AcDbSymbolTable
0
LTYPE
5
14
100
AcDbSymbolTableRecord
100
AcDbLinetypeTableRecord
2
BYBLOCK
70
0
0
LTYPE
5
15
100
AcDbSymbolTableRecord
100
AcDbLinetypeTableRecord
2
BYLAYER
70
0
0
ENDTAB
0
TABLE
2
LAYER
5
2
100
AcDbSymbolTable
70
2
0
LAYER
5
50
100
AcDbSymbolTableRecord
100
AcDbLayerTableRecord
2
0
70
0
6
CONTINUOUS
0
ENDTAB
0
TABLE
2
STYLE
5
3
100
AcDbSymbolTable
70
1
0
STYLE
5
11
100
AcDbSymbolTableRecord
100
AcDbTextStyleTableRecord
2
STANDARD
70
0
0
ENDTAB
0
TABLE
2
VIEW
5
6
100
AcDbSymbolTable
70
0
0
ENDTAB
0
TABLE
2
UCS
5
7
100
AcDbSymbolTable
70
0
0
ENDTAB
0
TABLE
2
APPID
5
9
100
AcDbSymbolTable
70
2
0
APPID
5
12
100
AcDbSymbolTableRecord
100
AcDbRegAppTableRecord
2
ACAD
70
0
0
ENDTAB
0
TABLE
2
DIMSTYLE
5
A
100
AcDbSymbolTable
70
1
0
ENDTAB
0
TABLE
2
BLOCK_RECORD
5
1
100
AcDbSymbolTable
70
1
0
BLOCK_RECORD
5
1F
100
AcDbSymbolTableRecord
100
AcDbBlockTableRecord
2
*MODEL_SPACE
0
BLOCK_RECORD
5
1B
100
AcDbSymbolTableRecord
100
AcDbBlockTableRecord
2
*PAPER_SPACE
0
ENDTAB
0
ENDSEC
0
SECTION
2
BLOCKS
0
BLOCK
5
20
100
AcDbEntity
100
AcDbBlockBegin
2
*MODEL_SPACE
0
ENDBLK
5
21
100
AcDbEntity
100
AcDbBlockEnd
0
BLOCK
5
1C
100
AcDbEntity
100
AcDbBlockBegin
2
*PAPER_SPACE
0
ENDBLK
5
1D
100
AcDbEntity
100
AcDbBlockEnd
0
ENDSEC
0
SECTION
2
ENTITIES
0
ARC
5
100
100
AcDbEntity
8
0
100
AcDbCircle
10
-74.095983092208229
20
114.85053687324466
30
0
40
1.5000000000000053
210
0
220
-0
230
1
100
AcDbArc
50
52.999999999999439
51
129.4999999999992
0
ARC
5
101
100
AcDbEntity
8
0
100
AcDbCircle
10
-21.286681167904177
20
7.7112358991232277
30
0
40
1.5000000000000189
210
0
220
0
230
1
100
AcDbArc
50
265.04303972343405
51
337.99999999999994
0
LWPOLYLINE
5
102
100
AcDbEntity
8
0
100
AcDbPolyline
90
4
70
1
43
0.0
10
-65.797368373929118
20
91.066148801664966
10
-54.615948816556553
20
82.642070393191375
10
-46.189514433908492
20
93.822538075210076
10
-57.370934543858326
20
102.24661778547413
0
LWPOLYLINE
5
103
100
AcDbEntity
8
0
100
AcDbPolyline
90
4
70
1
43
0.0
10
-84.256139583315232
20
104.53164686863173
10
-75.350747804754249
20
93.728813721929939
10
-64.548865784193154
20
102.6318513806842
10
-73.453306989190722
20
113.43703994898313
0
LWPOLYLINE
5
104
100
AcDbEntity
8
0
100
AcDbPolyline
90
4
70
1
43
0.0
10
-22.773348874177302
20
45.408968544097739
10
-9.7923419153821953
20
40.164301294995838
10
-4.5486261670275807
20
53.14295320680035
10
-17.529633125822688
20
58.387620455902251
0
LWPOLYLINE
5
105
100
AcDbEntity
8
0
100
AcDbPolyline
90
4
70
1
43
0.0
10
-29.141660962247808
20
29.646843016462363
10
-16.160654003452702
20
24.402175767360465
10
-10.916938255098083
20
37.380827679164966
10
-23.897945213893188
20
42.625494928266868
0
LWPOLYLINE
5
106
100
AcDbEntity
8
0
100
AcDbPolyline
90
4
70
1
43
0.0
10
-35.509973050318308
20
13.884717488826976
10
-22.528966091523202
20
8.6400502397250811
10
-17.285250343168585
20
21.61870215152959
10
-30.266257301963691
20
26.86336940063148
0
LWPOLYLINE
5
107
100
AcDbEntity
8
0
100
AcDbPolyline
90
4
70
1
43
0.0
10
-53.983344460630803
20
16.211927698858332
10
-41.00233750183569
20
10.96726044975644
10
-35.758621753481073
20
23.945912361560943
10
-48.739628712276179
20
29.190579610662837
0
LWPOLYLINE
5
108
100
AcDbEntity
8
0
100
AcDbPolyline
90
4
70
1
43
0.0
10
-29.39030966541057
20
39.708037889196326
10
-42.371316624205676
20
44.952705138298228
10
-47.615032372560293
20
31.974053226493719
10
-34.634025413765187
20
26.729385977391829
0
LWPOLYLINE
5
109
100
AcDbEntity
8
0
100
AcDbPolyline
90
4
70
1
43
0.0
10
-23.021997577340066
20
55.470163416831717
10
-36.003004536135172
20
60.714830665933604
10
-41.246720284489783
20
47.736178754129106
10
-28.26571332569468
20
42.491511505027205
0
LWPOLYLINE
5
110
100
AcDbEntity
8
0
100
AcDbPolyline
90
4
70
1
43
0.0
10
-40.602862410527052
20
60.006404922493985
10
-53.583869369322159
20
65.251072171595879
10
-58.828536618424053
20
52.270065212800759
10
-45.847529659628954
20
47.025397963698872
0
LWPOLYLINE
5
111
100
AcDbEntity
8
0
100
AcDbPolyline
90
4
70
1
43
0.0
10
-65.196848706494549
20
36.507939685165383
10
-52.21584174769945
20
31.263272436063488
10
-46.971174498597563
20
44.244279394858594
10
-59.952181457392662
20
49.488946643960489
0
LWPOLYLINE
5
112
100
AcDbEntity
8
0
100
AcDbPolyline
90
4
70
1
43
0.0
10
-71.56516079456506
20
20.745814157529992
10
-58.58415383576996
20
15.501146908428101
10
-53.339486586668059
20
28.482153867223204
10
-66.320493545463165
20
33.726821116325098
0
LWPOLYLINE
5
113
100
AcDbEntity
8
0
100
AcDbPolyline
90
4
70
1
43
0.0
10
-87.361963225035169
20
29.69776506183117
10
-74.380956266240034
20
24.453097812729272
10
-69.137240517885431
20
37.43174972453378
10
-82.118247476680537
20
42.676416973635682
0
LWPOLYLINE
5
114
100
AcDbEntity
8
0
100
AcDbPolyline
90
4
70
1
43
0.0
10
-62.76892842981492
20
53.193875252169164
10
-75.749935388610041
20
58.438542501271073
10
-80.993651136964644
20
45.459890589466561
10
-68.012644178169538
20
40.215223340364659
0
LWPOLYLINE
5
115
100
AcDbEntity
8
0
100
AcDbPolyline
90
4
70
1
43
0.0
10
-103.15971715625253
20
38.64736091914174
10
-90.178710197457434
20
33.402693670039845
10
-84.934043322962111
20
46.383699701651096
10
-97.915050281757217
20
51.628366950752991
0
LWPOLYLINE
5
116
100
AcDbEntity
8
0
100
AcDbPolyline
90
4
70
1
43
0.0
10
-78.565731234891615
20
62.145825229286487
10
-91.546738193686707
20
67.390492478388381
10
-96.791405068182016
20
54.409486446777123
10
-83.810398109386909
20
49.164819197675236
0
LWPOLYLINE
5
117
100
AcDbEntity
8
0
100
AcDbPolyline
90
4
70
1
43
0.0
10
-56.40061634174441
20
68.956000779804555
10
-69.38162330053953
20
74.200668028906449
10
-74.625339048894148
20
61.222016117101958
10
-61.644332090099027
20
55.97734886800005
0
LWPOLYLINE
5
118
100
AcDbEntity
8
0
100
AcDbPolyline
90
4
70
1
43
0.0
10
-72.197419146821119
20
77.907950756921878
10
-85.178426105616211
20
83.152618006023772
10
-90.423092980111505
20
70.171611974412514
10
-77.442086021316413
20
64.926944725310619
0
LINE
5
119
100
AcDbEntity
8
0
100
AcDbLine
10
-106.67779503520457
20
-16.410023097580616
30
0
11
-106.67106587188167
21
122.5412952149356
31
0
0
ARC
5
120
100
AcDbEntity
8
0
100
AcDbCircle
10
34.244553930844894
20
133.1072944987329
30
0
40
87.725600645003837
210
0
220
0
230
1
100
AcDbArc
50
206.16946236232397
51
246.03143745544534
0
LINE
5
121
100
AcDbEntity
8
0
100
AcDbLine
10
-1.3926845073413521
20
52.946404751758962
30
0
11
-19.895905386054
21
7.1493260089993598
31
0
0
LINE
5
122
100
AcDbEntity
8
0
100
AcDbLine
10
-44.488607435173613
20
94.417886260312699
30
0
11
-73.19326055748013
21
116.04849013831561
31
0
0
LWPOLYLINE
5
123
100
AcDbEntity
8
0
100
AcDbPolyline
90
4
70
1
43
0.0
10
-99.672516967949434
20
85.577434637077445
10
-113.67251696794941
20
85.577434637077445
10
-113.67251696794941
20
99.577434637077459
10
-99.672516967949434
20
99.577434637077459
0
LWPOLYLINE
5
124
100
AcDbEntity
8
0
100
AcDbPolyline
90
4
70
1
43
0.0
10
-76.149757416400504
20
62.7872592611063
10
-92.839066798602673
20
69.530177942592701
10
-86.470754710532162
20
85.292303470228106
10
-69.78144532832998
20
78.54938478874169
0
CIRCLE
5
125
100
AcDbEntity
8
0
100
AcDbCircle
10
-106.67251696794942
20
92.577434637077459
30
0
40
19.000000000000004
210
0
220
0
230
1
0
ARC
5
126
100
AcDbEntity
8
0
100
AcDbCircle
10
-106.67443651283807
20
52.940516934560989
30
0
40
28.225592147387406
210
0
220
0
230
1
100
AcDbArc
50
238.75223534224625
51
301.24221519392074
0
ARC
5
127
100
AcDbEntity
8
0
100
AcDbCircle
10
-6.9384174793184172
20
173.14383674088188
30
0
40
167.55366027927874
210
0
220
0
230
1
100
AcDbArc
50
239.47749290743621
51
265.04303972343382
0
LWPOLYLINE
5
128
100
AcDbEntity
8
0
100
AcDbPolyline
90
4
70
1
43
0.0
10
-164.61154437544837
20
29.196191079877405
10
-159.36908571739144
20
16.217031341439302
10
-172.35060059496806
20
10.973621410740952
10
-177.59305925302499
20
23.952781149179067
0
LINE
5
129
100
AcDbEntity
8
0
100
AcDbLine
10
-168.85624794949939
20
94.423909162256123
30
0
11
-140.14949989907876
21
116.05173270899064
31
0
0
LWPOLYLINE
5
130
100
AcDbEntity
8
0
100
AcDbPolyline
90
4
70
1
43
0.0
10
-167.15539862203394
20
93.828396236191082
10
-155.97316263836728
20
102.25139291466979
10
-147.54781174797023
20
91.070107829127693
10
-158.73004717893355
20
82.647112452385954
0
LWPOLYLINE
5
131
100
AcDbEntity
8
0
100
AcDbPolyline
90
4
70
1
43
0.0
10
-156.94670524576122
20
68.960870046695518
10
-143.96519036818458
20
74.204279977393867
10
-138.72273171012765
20
61.225120238955768
10
-151.70424658770429
20
55.981710308257398
0
LWPOLYLINE
5
132
100
AcDbEntity
8
0
100
AcDbPolyline
90
4
70
1
43
0.0
10
-183.95984464824585
20
39.715523414762231
10
-170.97832977066926
20
44.958933345460579
10
-165.73587111261233
20
31.979773607022473
10
-178.71738599018892
20
26.736363676324125
0
LWPOLYLINE
5
133
100
AcDbEntity
8
0
100
AcDbPolyline
90
4
70
1
43
0.0
10
-141.14903546099464
20
77.911289960127661
10
-128.16752058341802
20
83.154699890825995
10
-122.92411102723646
20
70.173185940469523
10
-135.90562590481306
20
64.92977600977116
0
LWPOLYLINE
5
134
100
AcDbEntity
8
0
100
AcDbPolyline
90
4
70
1
43
0.0
10
-177.842682446292
20
13.891610406860055
10
-190.82419732386859
20
8.6482004761617031
10
-196.06665598192558
20
21.627360214599811
10
-183.08514110434896
20
26.87077014529816
0
LWPOLYLINE
5
135
100
AcDbEntity
8
0
100
AcDbPolyline
90
4
70
1
43
0.0
10
-129.08773640529145
20
104.53381798252042
10
-137.99417446577627
20
93.731847430816103
10
-148.79519411935598
20
102.63593127938258
10
-139.88970640429241
20
113.44025734474215
0
LWPOLYLINE
5
136
100
AcDbEntity
8
0
100
AcDbPolyline
90
4
70
1
43
0.0
10
-167.50191599795403
20
47.031289467605134
10
-172.74532592865242
20
60.012804345181749
10
-159.76381105107581
20
65.256214275880097
10
-154.52040112037741
20
52.274699398303468
0
LWPOLYLINE
5
137
100
AcDbEntity
8
0
100
AcDbPolyline
90
4
70
1
43
0.0
10
-147.03024026063403
20
33.730729744713756
10
-141.7868303299357
20
20.749214867137127
10
-154.76834520751228
20
15.505804936438786
10
-160.01175513821065
20
28.487319814015393
0
LWPOLYLINE
5
138
100
AcDbEntity
8
0
100
AcDbPolyline
90
4
70
1
43
0.0
10
-190.32663004346674
20
55.478265680345402
10
-177.34511516589012
20
60.72167561104375
10
-172.10265650783322
20
47.742515872605651
10
-185.08417138540983
20
42.499105941907295
0
LWPOLYLINE
5
139
100
AcDbEntity
8
0
100
AcDbPolyline
90
4
70
1
43
0.0
10
-184.20946784151289
20
29.65435267244322
10
-197.1909827190895
20
24.410942741744883
10
-202.43344137714644
20
37.390102480182975
10
-189.45192649956979
20
42.633512410881337
0
ARC
5
140
100
AcDbEntity
8
0
100
AcDbCircle
10
-206.39881261585572
20
173.15349625035341
30
0
40
167.55366027927792
210
0
220
0
230
1
100
AcDbArc
50
274.95141081273329
51
300.51695762873089
0
LWPOLYLINE
5
141
100
AcDbEntity
8
0
100
AcDbPolyline
90
4
70
1
43
0.0
10
-129.53884050959218
20
49.167033744188004
10
-134.78225006577375
20
62.148547694544476
10
-121.80073518819714
20
67.391957625242839
10
-116.55732563201556
20
54.410443674886338
0
LWPOLYLINE
5
142
100
AcDbEntity
8
0
100
AcDbPolyline
90
4
70
1
43
0.0
10
-190.57625323673378
20
45.417094938026388
10
-203.55776811431042
20
40.173685007328032
10
-208.8002267723673
20
53.152844745766146
10
-195.81871189479068
20
58.396254676464494
0
LWPOLYLINE
5
143
100
AcDbEntity
8
0
100
AcDbPolyline
90
4
70
1
43
0.0
10
-143.56494714115235
20
78.552957991502666
10
-137.19816174593146
20
62.790215725919474
10
-120.50819934707869
20
69.531517909094518
10
-126.87498474229957
20
85.294260174677703
0
LWPOLYLINE
5
144
100
AcDbEntity
8
0
100
AcDbPolyline
90
4
70
1
43
0.0
10
-166.3785405334315
20
44.250062079598571
10
-153.39702565585492
20
49.493472010296919
10
-148.15361572515656
20
36.511957132720305
10
-161.13513060273317
20
31.268547202021963
0
ARC
5
145
100
AcDbEntity
8
0
100
AcDbCircle
10
-192.06657220328822
20
7.7195064631812009
30
0
40
1.5000000000000411
210
0
220
0
230
1
100
AcDbArc
50
201.9944505361666
51
274.95141081273124
0
LWPOLYLINE
5
146
100
AcDbEntity
8
0
100
AcDbPolyline
90
4
70
1
43
0.0
10
-123.17205511437129
20
33.404291478604826
10
-128.41546467055286
20
46.385805428961305
10
-115.43394979297625
20
51.629215359659646
10
-110.1905402367947
20
38.647701409303174
0
ARC
5
147
100
AcDbEntity
8
0
100
AcDbCircle
10
-247.58566162881561
20
133.12094303098763
30
0
40
87.725600645003567
210
0
220
0
230
1
100
AcDbArc
50
293.96301308072185
51
333.82498817384322
0
LWPOLYLINE
5
148
100
AcDbEntity
8
0
100
AcDbPolyline
90
4
70
1
43
0.0
10
-131.23161957774283
20
42.678795446227518
10
-125.98916091968587
20
29.699635707789412
10
-138.97067579726252
20
24.456225777091056
10
-144.21313445531945
20
37.435385515529163
0
LWPOLYLINE
5
149
100
AcDbEntity
8
0
100
AcDbPolyline
90
4
70
1
43
0.0
10
-132.35594631490676
20
45.462377973372583
10
-145.33746119248337
20
40.218968042674234
10
-150.57991985054034
20
53.198127781112333
10
-137.59840497296369
20
58.441537711810696
0
LINE
5
150
100
AcDbEntity
8
0
100
AcDbLine
10
-211.95618745422917
20
52.956601964843216
30
0
11
-193.45740240319265
21
7.1577312812499478
31
0
0
ARC
5
151
100
AcDbEntity
8
0
100
AcDbCircle
10
-139.24689339804411
20
114.85369201506992
30
0
40
1.5000000000000266
210
0
220
-0
230
1
100
AcDbArc
50
50.494450536167008
51
126.99445053616711
0
ARC
5
152
100
AcDbEntity
8
0
100
AcDbCircle
10
-106.66952468739512
20
154.36540259506344
30
0
40
49.709962166230291
210
0
220
0
230
1
100
AcDbArc
50
230.49445053616785
51
309.49999999999926
0
ENDSEC
0
SECTION
2
OBJECTS
0
DICTIONARY
5
C
100
AcDbDictionary
3
ACAD_GROUP
350
D
3
ACAD_MLINESTYLE
350
17
0
DICTIONARY
5
D
100
AcDbDictionary
0
DICTIONARY
5
1A
330
C
100
AcDbDictionary
0
DICTIONARY
5
17
100
AcDbDictionary
0
ENDSEC
0
EOF
