0
SECTION
2
HEADER
9
$INSUNITS
70
4
9
$ACADVER
1
AC1014
9
$HANDSEED
5
FFFF
0
ENDSEC
0
SECTION
2
TABLES
0
TABLE
2
VPORT
5
8
100
AcDbSymbolTable
0
ENDTAB
0
TABLE
2
LTYPE
5
5
100
AcDbSymbolTable
0
LTYPE
5
14
100
AcDbSymbolTableRecord
100
AcDbLinetypeTableRecord
2
BYBLOCK
70
0
0
LTYPE
5
15
100
AcDbSymbolTableRecord
100
AcDbLinetypeTableRecord
2
BYLAYER
70
0
0
ENDTAB
0
TABLE
2
LAYER
5
2
100
AcDbSymbolTable
70
2
0
LAYER
5
50
100
AcDbSymbolTableRecord
100
AcDbLayerTableRecord
2
0
70
0
6
CONTINUOUS
0
ENDTAB
0
TABLE
2
STYLE
5
3
100
AcDbSymbolTable
70
1
0
STYLE
5
11
100
AcDbSymbolTableRecord
100
AcDbTextStyleTableRecord
2
STANDARD
70
0
0
ENDTAB
0
TABLE
2
VIEW
5
6
100
AcDbSymbolTable
70
0
0
ENDTAB
0
TABLE
2
UCS
5
7
100
AcDbSymbolTable
70
0
0
ENDTAB
0
TABLE
2
APPID
5
9
100
AcDbSymbolTable
70
2
0
APPID
5
12
100
AcDbSymbolTableRecord
100
AcDbRegAppTableRecord
2
ACAD
70
0
0
ENDTAB
0
TABLE
2
DIMSTYLE
5
A
100
AcDbSymbolTable
70
1
0
ENDTAB
0
TABLE
2
BLOCK_RECORD
5
1
100
AcDbSymbolTable
70
1
0
BLOCK_RECORD
5
1F
100
AcDbSymbolTableRecord
100
AcDbBlockTableRecord
2
*MODEL_SPACE
0
BLOCK_RECORD
5
1B
100
AcDbSymbolTableRecord
100
AcDbBlockTableRecord
2
*PAPER_SPACE
0
ENDTAB
0
ENDSEC
0
SECTION
2
BLOCKS
0
BLOCK
5
20
100
AcDbEntity
100
AcDbBlockBegin
2
*MODEL_SPACE
0
ENDBLK
5
21
100
AcDbEntity
100
AcDbBlockEnd
0
BLOCK
5
1C
100
AcDbEntity
100
AcDbBlockBegin
2
*PAPER_SPACE
0
ENDBLK
5
1D
100
AcDbEntity
100
AcDbBlockEnd
0
ENDSEC
0
SECTION
2
ENTITIES
0
LINE
5
100
100
AcDbEntity
8
0
100
AcDbLine
10
-113.13021062014639
20
5.8266701879664495
30
0
11
-113.13021062014639
21
102.44636894853903
31
0
0
LWPOLYLINE
5
101
100
AcDbEntity
8
0
100
AcDbPolyline
90
24
70
1
43
0.0
10
-95.068503843028168
20
90.774372961423339
42
-0.34676977437525525
10
-93.362049606381419
20
91.507523560467519
10
-61.758603732671901
20
83.039405760566339
42
0.065543462815238637
10
-61.370375165018118
20
82.988294499999938
10
-4.6512574999999963
20
82.988294499999924
42
-0.41421356237308915
10
-3.1512574999999963
20
81.488294499999938
10
-3.1512575000000007
20
77.693294499999979
42
-0.41421356237309348
10
-4.6512574999999963
20
76.193294499999979
10
-9.1512574999999963
20
76.193294499999979
10
-9.1512574999999963
20
67.193294499999979
10
-4.6512574999999963
20
67.193294499999979
42
-0.41421356237309348
10
-3.1512574999999963
20
65.693294499999965
10
-3.1512574999999989
20
10.50351746279274
42
-0.32954234370872354
10
-4.2116225242370753
20
9.0693901713412259
42
-0.13653714146227178
10
-94.015579508837561
20
6.7284736587362639
42
-0.34405108989723271
10
-95.151257500000014
20
8.183557667952428
10
-95.151257500000014
20
56.517046999999998
42
0.41421356237309509
10
-96.651257500000014
20
58.017047000000005
10
-97.721267000000012
20
58.017047000000019
42
-0.4142135623730881
10
-99.221266999999997
20
59.517047000000005
10
-99.221266999999997
20
67.58081223940053
42
0.11638863236123316
10
-99.379506600971652
20
68.251393354254873
10
-102.82506685428081
20
75.145587356960291
42
-0.24495203839129398
10
-102.8015321242454
20
76.53190661220404
0
LWPOLYLINE
5
102
100
AcDbEntity
8
0
100
AcDbPolyline
90
4
70
1
43
0.0
10
-78.151024000000021
20
8.5168139999999948
10
-78.151024000000021
20
22.517279999999996
10
-92.151491000000021
20
22.517279999999996
10
-92.151491000000021
20
8.5168139999999948
0
CIRCLE
5
103
100
AcDbEntity
8
0
100
AcDbCircle
10
-70.010736082857989
20
63.164059018155278
30
0
40
1.6000000000000014
210
0
220
-0
230
1
0
LWPOLYLINE
5
104
100
AcDbEntity
8
0
100
AcDbPolyline
90
4
70
1
43
0.0
10
-60.151024
20
54.134763
10
-74.151491000000007
20
54.134763
10
-74.151491000000007
20
40.13683600000001
10
-60.151024
20
40.13683600000001
0
LWPOLYLINE
5
105
100
AcDbEntity
8
0
100
AcDbPolyline
90
4
70
1
43
0.0
10
-42.151023999999992
20
3.7543179999999987
10
-42.151023999999992
20
17.754784999999998
10
-56.151490999999993
20
17.754784999999998
10
-56.151490999999993
20
3.7543179999999987
0
LWPOLYLINE
5
106
100
AcDbEntity
8
0
100
AcDbPolyline
90
4
70
1
43
0.0
10
-60.151024
20
20.134763
10
-74.151491000000007
20
20.134763
10
-74.151491000000007
20
6.1368359999999988
10
-60.151024
20
6.1368359999999988
0
LWPOLYLINE
5
107
100
AcDbEntity
8
0
100
AcDbPolyline
90
4
70
1
43
0.0
10
-60.151024
20
23.136836000000002
10
-60.151024
20
37.134763
10
-74.151491000000007
20
37.134763
10
-74.151491000000007
20
23.136836000000002
0
LWPOLYLINE
5
108
100
AcDbEntity
8
0
100
AcDbPolyline
90
4
70
1
43
0.0
10
-59.998624000000007
20
81.015761000000012
10
-73.521571999999992
20
84.637798000000004
10
-77.146147999999997
20
71.114850000000018
10
-63.623201000000009
20
67.49281400000001
0
LWPOLYLINE
5
109
100
AcDbEntity
8
0
100
AcDbPolyline
90
4
70
1
43
0.0
10
-80.321145000000001
20
82.306080000000023
10
-92.624893999999998
20
88.988814000000005
10
-99.305087000000015
20
76.685065000000009
10
-87.001339000000002
20
70.004871000000009
0
LWPOLYLINE
5
110
100
AcDbEntity
8
0
100
AcDbPolyline
90
4
70
1
43
0.0
10
-20.151490999999993
20
58.897258000000001
10
-20.151490999999993
20
44.899331000000004
10
-6.1510239999999961
20
44.899331000000004
10
-6.1510239999999961
20
58.897258000000001
0
LWPOLYLINE
5
111
100
AcDbEntity
8
0
100
AcDbPolyline
90
4
70
1
43
0.0
10
-42.151023999999992
20
20.754318000000001
10
-42.151023999999992
20
34.754784999999998
10
-56.151490999999993
20
34.754784999999998
10
-56.151490999999993
20
20.754318000000001
0
LWPOLYLINE
5
112
100
AcDbEntity
8
0
100
AcDbPolyline
90
4
70
1
43
0.0
10
-24.151023999999992
20
20.134763
10
-38.151490999999993
20
20.134763
10
-38.151490999999993
20
6.1368359999999988
10
-24.151023999999992
20
6.1368359999999988
0
LWPOLYLINE
5
113
100
AcDbEntity
8
0
100
AcDbPolyline
90
4
70
1
43
0.0
10
-78.151024000000021
20
25.516814
10
-78.151024000000021
20
39.51728
10
-92.151491000000021
20
39.51728
10
-92.151491000000021
20
25.516814
0
LWPOLYLINE
5
114
100
AcDbEntity
8
0
100
AcDbPolyline
90
4
70
1
43
0.0
10
-42.151023999999992
20
51.754785000000005
10
-56.151490999999993
20
51.754785000000005
10
-56.151490999999993
20
37.754317999999991
10
-42.151023999999992
20
37.754317999999991
0
LWPOLYLINE
5
115
100
AcDbEntity
8
0
100
AcDbPolyline
90
4
70
1
43
0.0
10
-24.151023999999992
20
54.134762999999992
10
-38.151490999999993
20
54.134762999999992
10
-38.151490999999993
20
40.136836000000002
10
-24.151023999999992
20
40.136836000000002
0
LWPOLYLINE
5
116
100
AcDbEntity
8
0
100
AcDbPolyline
90
4
70
1
43
0.0
10
-38.151490999999993
20
23.136836000000002
10
-24.151023999999992
20
23.136836000000002
10
-24.151023999999992
20
37.134763
10
-38.151490999999993
20
37.134763
0
LWPOLYLINE
5
117
100
AcDbEntity
8
0
100
AcDbPolyline
90
4
70
1
43
0.0
10
-6.1510239999999961
20
24.897258000000004
10
-20.151490999999993
20
24.897258000000004
10
-20.151490999999993
20
10.899331000000007
10
-6.1510239999999961
20
10.899331000000005
0
LWPOLYLINE
5
118
100
AcDbEntity
8
0
100
AcDbPolyline
90
4
70
1
43
0.0
10
-6.1510239999999961
20
41.897258000000008
10
-20.151490999999993
20
41.897258000000008
10
-20.151490999999993
20
27.899331000000004
10
-6.1510239999999961
20
27.899331000000004
0
LWPOLYLINE
5
119
100
AcDbEntity
8
0
100
AcDbPolyline
90
4
70
1
43
0.0
10
-78.151024000000021
20
56.51728
10
-92.151491000000021
20
56.51728
10
-92.151491000000021
20
42.516813999999997
10
-78.151024000000021
20
42.516813999999997
0
LINE
5
120
100
AcDbEntity
8
0
100
AcDbLine
10
-85.121266999999989
20
60.06662
30
0
11
-99.221266999999997
21
60.06662
31
0
0
LINE
5
121
100
AcDbEntity
8
0
100
AcDbLine
10
-99.221266999999997
20
66.166620000000009
30
0
11
-85.121266999999989
21
66.166620000000009
31
0
0
LINE
5
122
100
AcDbEntity
8
0
100
AcDbLine
10
-85.121266999999989
20
66.166620000000009
30
0
11
-85.121266999999989
21
60.06662
31
0
0
LWPOLYLINE
5
123
100
AcDbEntity
8
0
100
AcDbPolyline
90
24
70
1
43
0.0
10
-132.24484173145515
20
6.728473658736287
42
-0.13653714146227178
10
-222.04879871605559
20
9.0693901713412508
42
-0.32954234370872648
10
-223.10916374029276
20
10.50351746279274
10
-223.10916374029279
20
65.693294499999965
42
-0.41421356237309509
10
-221.60916374029279
20
67.193294499999979
10
-217.10916374029273
20
67.193294499999979
10
-217.10916374029273
20
76.193294499999979
10
-221.60916374029279
20
76.193294499999993
42
-0.41421356237309509
10
-223.10916374029276
20
77.693294499999979
10
-223.10916374029276
20
81.488294499999938
42
-0.41421356237309165
10
-221.60916374029279
20
82.988294499999924
10
-164.89004607527463
20
82.988294499999938
42
0.065543462815238637
10
-164.50181750762084
20
83.039405760566339
10
-132.89837163391132
20
91.507523560467519
42
-0.34676977437525525
10
-131.19191739726458
20
90.774372961423339
10
-123.45888911604737
20
76.53190661220404
42
-0.24495203839129398
10
-123.43535438601197
20
75.145587356960291
10
-126.88091463932111
20
68.251393354254873
42
0.11638863236123316
10
-127.03915424029276
20
67.58081223940053
10
-127.03915424029275
20
59.517047000000005
42
-0.4142135623730881
10
-128.53915424029276
20
58.017047000000005
10
-129.60916374029273
20
58.017047000000005
42
0.41421356237309509
10
-131.10916374029276
20
56.517046999999998
10
-131.10916374029276
20
8.183557667952428
42
-0.34405108989723271
0
LWPOLYLINE
5
124
100
AcDbEntity
8
0
100
AcDbPolyline
90
4
70
1
43
0.0
10
-166.26179724029274
20
81.015761000000012
10
-152.73884924029275
20
84.637798000000004
10
-149.11427324029276
20
71.114850000000018
10
-162.63722024029275
20
67.49281400000001
0
CIRCLE
5
125
100
AcDbEntity
8
0
100
AcDbCircle
10
-156.24968515743475
20
63.164059018155278
30
0
40
1.6000000000000014
210
0
220
-0
230
1
0
LWPOLYLINE
5
126
100
AcDbEntity
8
0
100
AcDbPolyline
90
4
70
1
43
0.0
10
-166.10939724029276
20
54.134763
10
-152.10893024029275
20
54.134763
10
-152.10893024029275
20
40.13683600000001
10
-166.10939724029276
20
40.13683600000001
0
LINE
5
127
100
AcDbEntity
8
0
100
AcDbLine
10
-127.03915424029276
20
66.166620000000009
30
0
11
-141.13915424029275
21
66.166620000000009
31
0
0
LINE
5
128
100
AcDbEntity
8
0
100
AcDbLine
10
-141.13915424029275
20
66.166620000000009
30
0
11
-141.13915424029275
21
60.06662
31
0
0
LINE
5
129
100
AcDbEntity
8
0
100
AcDbLine
10
-141.13915424029275
20
60.06662
30
0
11
-127.03915424029276
21
60.06662
31
0
0
LWPOLYLINE
5
130
100
AcDbEntity
8
0
100
AcDbPolyline
90
4
70
1
43
0.0
10
-220.10939724029276
20
58.897258000000001
10
-206.10893024029278
20
58.897258000000001
10
-206.10893024029278
20
44.899331000000004
10
-220.10939724029276
20
44.899331000000004
0
LWPOLYLINE
5
131
100
AcDbEntity
8
0
100
AcDbPolyline
90
4
70
1
43
0.0
10
-184.10939724029276
20
51.754785000000005
10
-170.10893024029275
20
51.754785000000005
10
-170.10893024029275
20
37.754317999999991
10
-184.10939724029276
20
37.754317999999991
0
LWPOLYLINE
5
132
100
AcDbEntity
8
0
100
AcDbPolyline
90
4
70
1
43
0.0
10
-202.10939724029276
20
20.134763
10
-188.10893024029275
20
20.134763
10
-188.10893024029275
20
6.1368359999999988
10
-202.10939724029276
20
6.1368359999999988
0
LWPOLYLINE
5
133
100
AcDbEntity
8
0
100
AcDbPolyline
90
4
70
1
43
0.0
10
-166.10939724029276
20
20.134763
10
-152.10893024029275
20
20.134763
10
-152.10893024029275
20
6.1368359999999988
10
-166.10939724029276
20
6.1368359999999988
0
LWPOLYLINE
5
134
100
AcDbEntity
8
0
100
AcDbPolyline
90
4
70
1
43
0.0
10
-188.10893024029275
20
37.134763
10
-188.10893024029275
20
23.136836000000002
10
-202.10939724029276
20
23.136836000000002
10
-202.10939724029276
20
37.134763
0
LWPOLYLINE
5
135
100
AcDbEntity
8
0
100
AcDbPolyline
90
4
70
1
43
0.0
10
-148.10939724029274
20
56.51728
10
-134.10893024029275
20
56.51728
10
-134.10893024029275
20
42.516813999999997
10
-148.10939724029274
20
42.516813999999997
0
LWPOLYLINE
5
136
100
AcDbEntity
8
0
100
AcDbPolyline
90
4
70
1
43
0.0
10
-166.10939724029276
20
23.136836000000002
10
-166.10939724029276
20
37.134763
10
-152.10893024029275
20
37.134763
10
-152.10893024029275
20
23.136836000000002
0
LWPOLYLINE
5
137
100
AcDbEntity
8
0
100
AcDbPolyline
90
4
70
1
43
0.0
10
-202.10939724029276
20
40.136836000000002
10
-202.10939724029276
20
54.134762999999992
10
-188.10893024029275
20
54.134762999999992
10
-188.10893024029275
20
40.136836000000002
0
LWPOLYLINE
5
138
100
AcDbEntity
8
0
100
AcDbPolyline
90
4
70
1
43
0.0
10
-220.10939724029276
20
41.897258000000008
10
-206.10893024029278
20
41.897258000000008
10
-206.10893024029278
20
27.899331000000004
10
-220.10939724029276
20
27.899331000000004
0
LWPOLYLINE
5
139
100
AcDbEntity
8
0
100
AcDbPolyline
90
4
70
1
43
0.0
10
-220.10939724029276
20
24.897258000000004
10
-206.10893024029278
20
24.897258000000004
10
-206.10893024029278
20
10.899331000000007
10
-220.10939724029276
20
10.899331000000005
0
LWPOLYLINE
5
140
100
AcDbEntity
8
0
100
AcDbPolyline
90
4
70
1
43
0.0
10
-134.10893024029275
20
8.5168139999999948
10
-148.10939724029274
20
8.5168139999999948
10
-148.10939724029274
20
22.517279999999996
10
-134.10893024029275
20
22.517279999999996
0
LWPOLYLINE
5
141
100
AcDbEntity
8
0
100
AcDbPolyline
90
4
70
1
43
0.0
10
-170.10893024029275
20
17.754784999999998
10
-170.10893024029275
20
3.7543179999999987
10
-184.10939724029276
20
3.7543179999999987
10
-184.10939724029276
20
17.754784999999998
0
LWPOLYLINE
5
142
100
AcDbEntity
8
0
100
AcDbPolyline
90
4
70
1
43
0.0
10
-170.10893024029275
20
34.754784999999998
10
-170.10893024029275
20
20.754318000000001
10
-184.10939724029276
20
20.754318000000001
10
-184.10939724029276
20
34.754784999999998
0
LWPOLYLINE
5
143
100
AcDbEntity
8
0
100
AcDbPolyline
90
4
70
1
43
0.0
10
-126.95533424029276
20
76.685065000000009
10
-139.25908224029274
20
70.004871000000009
10
-145.93927624029274
20
82.306080000000023
10
-133.63552724029276
20
88.988814000000005
0
LWPOLYLINE
5
144
100
AcDbEntity
8
0
100
AcDbPolyline
90
4
70
1
43
0.0
10
-134.10893024029275
20
39.51728
10
-134.10893024029275
20
25.516814
10
-148.10939724029274
20
25.516814
10
-148.10939724029274
20
39.51728
0
ENDSEC
0
SECTION
2
OBJECTS
0
DICTIONARY
5
C
100
AcDbDictionary
3
ACAD_GROUP
350
D
3
ACAD_MLINESTYLE
350
17
0
DICTIONARY
5
D
100
AcDbDictionary
0
DICTIONARY
5
1A
330
C
100
AcDbDictionary
0
DICTIONARY
5
17
100
AcDbDictionary
0
ENDSEC
0
EOF
