G04 #@! TF.GenerationSoftware,KiCad,Pcbnew,(5.1.9-0-10_14)*
G04 #@! TF.CreationDate,2021-02-04T04:09:05-06:00*
G04 #@! TF.ProjectId,microredox,6d696372-6f72-4656-946f-782e6b696361,rev?*
G04 #@! TF.SameCoordinates,Original*
G04 #@! TF.FileFunction,Legend,Top*
G04 #@! TF.FilePolarity,Positive*
%FSLAX46Y46*%
G04 Gerber Fmt 4.6, Leading zero omitted, Abs format (unit mm)*
G04 Created by KiCad (PCBNEW (5.1.9-0-10_14)) date 2021-02-04 04:09:05*
%MOMM*%
%LPD*%
G01*
G04 APERTURE LIST*
%ADD10C,0.300000*%
%ADD11C,0.150000*%
%ADD12C,0.125000*%
G04 APERTURE END LIST*
D10*
X69199928Y-133510571D02*
X69199928Y-132510571D01*
X69199928Y-132653428D02*
X69271357Y-132582000D01*
X69414214Y-132510571D01*
X69628500Y-132510571D01*
X69771357Y-132582000D01*
X69842785Y-132724857D01*
X69842785Y-133510571D01*
X69842785Y-132724857D02*
X69914214Y-132582000D01*
X70057071Y-132510571D01*
X70271357Y-132510571D01*
X70414214Y-132582000D01*
X70485642Y-132724857D01*
X70485642Y-133510571D01*
X71199928Y-133510571D02*
X71199928Y-132510571D01*
X71199928Y-132010571D02*
X71128500Y-132082000D01*
X71199928Y-132153428D01*
X71271357Y-132082000D01*
X71199928Y-132010571D01*
X71199928Y-132153428D01*
X72557071Y-133439142D02*
X72414214Y-133510571D01*
X72128500Y-133510571D01*
X71985642Y-133439142D01*
X71914214Y-133367714D01*
X71842785Y-133224857D01*
X71842785Y-132796285D01*
X71914214Y-132653428D01*
X71985642Y-132582000D01*
X72128500Y-132510571D01*
X72414214Y-132510571D01*
X72557071Y-132582000D01*
X73199928Y-133510571D02*
X73199928Y-132510571D01*
X73199928Y-132796285D02*
X73271357Y-132653428D01*
X73342785Y-132582000D01*
X73485642Y-132510571D01*
X73628500Y-132510571D01*
X74342785Y-133510571D02*
X74199928Y-133439142D01*
X74128500Y-133367714D01*
X74057071Y-133224857D01*
X74057071Y-132796285D01*
X74128500Y-132653428D01*
X74199928Y-132582000D01*
X74342785Y-132510571D01*
X74557071Y-132510571D01*
X74699928Y-132582000D01*
X74771357Y-132653428D01*
X74842785Y-132796285D01*
X74842785Y-133224857D01*
X74771357Y-133367714D01*
X74699928Y-133439142D01*
X74557071Y-133510571D01*
X74342785Y-133510571D01*
X75128500Y-133653428D02*
X76271357Y-133653428D01*
X76628500Y-133510571D02*
X76628500Y-132510571D01*
X76628500Y-132796285D02*
X76699928Y-132653428D01*
X76771357Y-132582000D01*
X76914214Y-132510571D01*
X77057071Y-132510571D01*
X78128500Y-133439142D02*
X77985642Y-133510571D01*
X77699928Y-133510571D01*
X77557071Y-133439142D01*
X77485642Y-133296285D01*
X77485642Y-132724857D01*
X77557071Y-132582000D01*
X77699928Y-132510571D01*
X77985642Y-132510571D01*
X78128500Y-132582000D01*
X78199928Y-132724857D01*
X78199928Y-132867714D01*
X77485642Y-133010571D01*
X79485642Y-133510571D02*
X79485642Y-132010571D01*
X79485642Y-133439142D02*
X79342785Y-133510571D01*
X79057071Y-133510571D01*
X78914214Y-133439142D01*
X78842785Y-133367714D01*
X78771357Y-133224857D01*
X78771357Y-132796285D01*
X78842785Y-132653428D01*
X78914214Y-132582000D01*
X79057071Y-132510571D01*
X79342785Y-132510571D01*
X79485642Y-132582000D01*
X80842785Y-132510571D02*
X80842785Y-133510571D01*
X80199928Y-132510571D02*
X80199928Y-133296285D01*
X80271357Y-133439142D01*
X80414214Y-133510571D01*
X80628500Y-133510571D01*
X80771357Y-133439142D01*
X80842785Y-133367714D01*
X81414214Y-133510571D02*
X82199928Y-132510571D01*
X81414214Y-132510571D02*
X82199928Y-133510571D01*
X70092785Y-135060571D02*
X70449928Y-136060571D01*
X70807071Y-135060571D01*
X71664214Y-134560571D02*
X71807071Y-134560571D01*
X71949928Y-134632000D01*
X72021357Y-134703428D01*
X72092785Y-134846285D01*
X72164214Y-135132000D01*
X72164214Y-135489142D01*
X72092785Y-135774857D01*
X72021357Y-135917714D01*
X71949928Y-135989142D01*
X71807071Y-136060571D01*
X71664214Y-136060571D01*
X71521357Y-135989142D01*
X71449928Y-135917714D01*
X71378500Y-135774857D01*
X71307071Y-135489142D01*
X71307071Y-135132000D01*
X71378500Y-134846285D01*
X71449928Y-134703428D01*
X71521357Y-134632000D01*
X71664214Y-134560571D01*
X72807071Y-135917714D02*
X72878500Y-135989142D01*
X72807071Y-136060571D01*
X72735642Y-135989142D01*
X72807071Y-135917714D01*
X72807071Y-136060571D01*
X73307071Y-135060571D02*
X73878500Y-135060571D01*
X73521357Y-136060571D02*
X73521357Y-134774857D01*
X73592785Y-134632000D01*
X73735642Y-134560571D01*
X73878500Y-134560571D01*
X74378500Y-136060571D02*
X74378500Y-135060571D01*
X74378500Y-134560571D02*
X74307071Y-134632000D01*
X74378500Y-134703428D01*
X74449928Y-134632000D01*
X74378500Y-134560571D01*
X74378500Y-134703428D01*
X75092785Y-136060571D02*
X75092785Y-135060571D01*
X75092785Y-135346285D02*
X75164214Y-135203428D01*
X75235642Y-135132000D01*
X75378500Y-135060571D01*
X75521357Y-135060571D01*
X75949928Y-135989142D02*
X76092785Y-136060571D01*
X76378500Y-136060571D01*
X76521357Y-135989142D01*
X76592785Y-135846285D01*
X76592785Y-135774857D01*
X76521357Y-135632000D01*
X76378500Y-135560571D01*
X76164214Y-135560571D01*
X76021357Y-135489142D01*
X75949928Y-135346285D01*
X75949928Y-135274857D01*
X76021357Y-135132000D01*
X76164214Y-135060571D01*
X76378500Y-135060571D01*
X76521357Y-135132000D01*
X77021357Y-135060571D02*
X77592785Y-135060571D01*
X77235642Y-134560571D02*
X77235642Y-135846285D01*
X77307071Y-135989142D01*
X77449928Y-136060571D01*
X77592785Y-136060571D01*
X78092785Y-135917714D02*
X78164214Y-135989142D01*
X78092785Y-136060571D01*
X78021357Y-135989142D01*
X78092785Y-135917714D01*
X78092785Y-136060571D01*
X78592785Y-135060571D02*
X79164214Y-135060571D01*
X78807071Y-134560571D02*
X78807071Y-135846285D01*
X78878500Y-135989142D01*
X79021357Y-136060571D01*
X79164214Y-136060571D01*
X79664214Y-136060571D02*
X79664214Y-135060571D01*
X79664214Y-135346285D02*
X79735642Y-135203428D01*
X79807071Y-135132000D01*
X79949928Y-135060571D01*
X80092785Y-135060571D01*
X80449928Y-135060571D02*
X80807071Y-136060571D01*
X81164214Y-135060571D02*
X80807071Y-136060571D01*
X80664214Y-136417714D01*
X80592785Y-136489142D01*
X80449928Y-136560571D01*
X68628500Y-138610571D02*
X68628500Y-137110571D01*
X68628500Y-137682000D02*
X68771357Y-137610571D01*
X69057071Y-137610571D01*
X69199928Y-137682000D01*
X69271357Y-137753428D01*
X69342785Y-137896285D01*
X69342785Y-138324857D01*
X69271357Y-138467714D01*
X69199928Y-138539142D01*
X69057071Y-138610571D01*
X68771357Y-138610571D01*
X68628500Y-138539142D01*
X69842785Y-137610571D02*
X70199928Y-138610571D01*
X70557071Y-137610571D02*
X70199928Y-138610571D01*
X70057071Y-138967714D01*
X69985642Y-139039142D01*
X69842785Y-139110571D01*
X72271357Y-138610571D02*
X72271357Y-137610571D01*
X72271357Y-137753428D02*
X72342785Y-137682000D01*
X72485642Y-137610571D01*
X72699928Y-137610571D01*
X72842785Y-137682000D01*
X72914214Y-137824857D01*
X72914214Y-138610571D01*
X72914214Y-137824857D02*
X72985642Y-137682000D01*
X73128500Y-137610571D01*
X73342785Y-137610571D01*
X73485642Y-137682000D01*
X73557071Y-137824857D01*
X73557071Y-138610571D01*
X74914214Y-138610571D02*
X74914214Y-137824857D01*
X74842785Y-137682000D01*
X74699928Y-137610571D01*
X74414214Y-137610571D01*
X74271357Y-137682000D01*
X74914214Y-138539142D02*
X74771357Y-138610571D01*
X74414214Y-138610571D01*
X74271357Y-138539142D01*
X74199928Y-138396285D01*
X74199928Y-138253428D01*
X74271357Y-138110571D01*
X74414214Y-138039142D01*
X74771357Y-138039142D01*
X74914214Y-137967714D01*
X75628500Y-138610571D02*
X75628500Y-137110571D01*
X75771357Y-138039142D02*
X76199928Y-138610571D01*
X76199928Y-137610571D02*
X75628500Y-138182000D01*
X77414214Y-138539142D02*
X77271357Y-138610571D01*
X76985642Y-138610571D01*
X76842785Y-138539142D01*
X76771357Y-138396285D01*
X76771357Y-137824857D01*
X76842785Y-137682000D01*
X76985642Y-137610571D01*
X77271357Y-137610571D01*
X77414214Y-137682000D01*
X77485642Y-137824857D01*
X77485642Y-137967714D01*
X76771357Y-138110571D01*
X78128500Y-137610571D02*
X78128500Y-138610571D01*
X78128500Y-137753428D02*
X78199928Y-137682000D01*
X78342785Y-137610571D01*
X78557071Y-137610571D01*
X78699928Y-137682000D01*
X78771357Y-137824857D01*
X78771357Y-138610571D01*
X79699928Y-138610571D02*
X79557071Y-138539142D01*
X79485642Y-138467714D01*
X79414214Y-138324857D01*
X79414214Y-137896285D01*
X79485642Y-137753428D01*
X79557071Y-137682000D01*
X79699928Y-137610571D01*
X79914214Y-137610571D01*
X80057071Y-137682000D01*
X80128500Y-137753428D01*
X80199928Y-137896285D01*
X80199928Y-138324857D01*
X80128500Y-138467714D01*
X80057071Y-138539142D01*
X79914214Y-138610571D01*
X79699928Y-138610571D01*
X80699928Y-137610571D02*
X81057071Y-138610571D01*
X81414214Y-137610571D01*
X82628500Y-138610571D02*
X82628500Y-137824857D01*
X82557071Y-137682000D01*
X82414214Y-137610571D01*
X82128500Y-137610571D01*
X81985642Y-137682000D01*
X82628500Y-138539142D02*
X82485642Y-138610571D01*
X82128500Y-138610571D01*
X81985642Y-138539142D01*
X81914214Y-138396285D01*
X81914214Y-138253428D01*
X81985642Y-138110571D01*
X82128500Y-138039142D01*
X82485642Y-138039142D01*
X82628500Y-137967714D01*
D11*
X34099500Y-143510000D02*
X34099500Y-146050000D01*
X34099500Y-146050000D02*
X64579500Y-146050000D01*
X64579500Y-146050000D02*
X64579500Y-143510000D01*
X64579500Y-143510000D02*
X34099500Y-143510000D01*
X34099500Y-128270000D02*
X34099500Y-130810000D01*
X34099500Y-130810000D02*
X64579500Y-130810000D01*
X64579500Y-130810000D02*
X64579500Y-128270000D01*
X64579500Y-128270000D02*
X34099500Y-128270000D01*
X97964500Y-128333500D02*
G75*
G03*
X97964500Y-128333500I-1000000J0D01*
G01*
X94364500Y-130933500D02*
X94364500Y-125733500D01*
X99564500Y-130933500D02*
X94364500Y-130933500D01*
X99564500Y-125733500D02*
X99564500Y-130933500D01*
X94364500Y-125733500D02*
X99564500Y-125733500D01*
X128047500Y-131133500D02*
X128047500Y-125533500D01*
X126047500Y-125533500D02*
X128047500Y-125533500D01*
X126047500Y-131133500D02*
X128047500Y-131133500D01*
X126047500Y-125283500D02*
X113947500Y-125283500D01*
X126047500Y-131383500D02*
X113947500Y-131383500D01*
X113947500Y-131383500D02*
X113947500Y-125283500D01*
X126047500Y-131383500D02*
X126047500Y-125283500D01*
X117987294Y-147842795D02*
X118321305Y-147227623D01*
X118321305Y-147227623D02*
X122275982Y-149374837D01*
X114245524Y-152638538D02*
X114923512Y-152437709D01*
X115400671Y-151558892D02*
X114923512Y-152437709D01*
X120033335Y-153505277D02*
X116078658Y-151358063D01*
X113078299Y-147453214D02*
X113756287Y-147252385D01*
X120319631Y-152977987D02*
X120033335Y-153505277D01*
X113756287Y-147252385D02*
X115953330Y-148445282D01*
X111408243Y-150529074D02*
X111609072Y-151207062D01*
X111609072Y-151207062D02*
X114245524Y-152638538D01*
X122275982Y-149374837D02*
X122037402Y-149814246D01*
X107348169Y-147528108D02*
X107825328Y-146649291D01*
X108226986Y-148005267D02*
X107348169Y-147528108D01*
X114028392Y-135224669D02*
X114907209Y-135701828D01*
X113551233Y-136103486D02*
X114028392Y-135224669D01*
X126331831Y-141904892D02*
X125854672Y-142783709D01*
X125453014Y-141427733D02*
X126331831Y-141904892D01*
X119651608Y-154208331D02*
X118772791Y-153731172D01*
X120128767Y-153329514D02*
X119651608Y-154208331D01*
X116078659Y-151358064D02*
G75*
G03*
X115400671Y-151558892I-238580J-439408D01*
G01*
X115953329Y-148445282D02*
G75*
G03*
X117987294Y-147842795I715739J1318226D01*
G01*
X114641000Y-116944500D02*
X114641000Y-116244500D01*
X114641000Y-116244500D02*
X119141000Y-116244500D01*
X113641000Y-122944500D02*
X114141000Y-122444500D01*
X114141000Y-121444500D02*
X114141000Y-122444500D01*
X119141000Y-120944500D02*
X114641000Y-120944500D01*
X110141000Y-118944500D02*
X110641000Y-118444500D01*
X119141000Y-120344500D02*
X119141000Y-120944500D01*
X110641000Y-118444500D02*
X113141000Y-118444500D01*
X110141000Y-122444500D02*
X110641000Y-122944500D01*
X110641000Y-122944500D02*
X113641000Y-122944500D01*
X119141000Y-116244500D02*
X119141000Y-116744500D01*
X105141000Y-121744500D02*
X105141000Y-120744500D01*
X106141000Y-121744500D02*
X105141000Y-121744500D01*
X105141000Y-107744500D02*
X106141000Y-107744500D01*
X105141000Y-108744500D02*
X105141000Y-107744500D01*
X119141000Y-107744500D02*
X119141000Y-108744500D01*
X118141000Y-107744500D02*
X119141000Y-107744500D01*
X119141000Y-121744500D02*
X118141000Y-121744500D01*
X119141000Y-120744500D02*
X119141000Y-121744500D01*
X114641000Y-120944500D02*
G75*
G03*
X114141000Y-121444500I0J-500000D01*
G01*
X113141000Y-118444500D02*
G75*
G03*
X114641000Y-116944500I0J1500000D01*
G01*
X114641000Y-99926500D02*
X114641000Y-99226500D01*
X114641000Y-99226500D02*
X119141000Y-99226500D01*
X113641000Y-105926500D02*
X114141000Y-105426500D01*
X114141000Y-104426500D02*
X114141000Y-105426500D01*
X119141000Y-103926500D02*
X114641000Y-103926500D01*
X110141000Y-101926500D02*
X110641000Y-101426500D01*
X119141000Y-103326500D02*
X119141000Y-103926500D01*
X110641000Y-101426500D02*
X113141000Y-101426500D01*
X110141000Y-105426500D02*
X110641000Y-105926500D01*
X110641000Y-105926500D02*
X113641000Y-105926500D01*
X119141000Y-99226500D02*
X119141000Y-99726500D01*
X105141000Y-104726500D02*
X105141000Y-103726500D01*
X106141000Y-104726500D02*
X105141000Y-104726500D01*
X105141000Y-90726500D02*
X106141000Y-90726500D01*
X105141000Y-91726500D02*
X105141000Y-90726500D01*
X119141000Y-90726500D02*
X119141000Y-91726500D01*
X118141000Y-90726500D02*
X119141000Y-90726500D01*
X119141000Y-104726500D02*
X118141000Y-104726500D01*
X119141000Y-103726500D02*
X119141000Y-104726500D01*
X114641000Y-103926500D02*
G75*
G03*
X114141000Y-104426500I0J-500000D01*
G01*
X113141000Y-101426500D02*
G75*
G03*
X114641000Y-99926500I0J1500000D01*
G01*
X114641000Y-82972000D02*
X114641000Y-82272000D01*
X114641000Y-82272000D02*
X119141000Y-82272000D01*
X113641000Y-88972000D02*
X114141000Y-88472000D01*
X114141000Y-87472000D02*
X114141000Y-88472000D01*
X119141000Y-86972000D02*
X114641000Y-86972000D01*
X110141000Y-84972000D02*
X110641000Y-84472000D01*
X119141000Y-86372000D02*
X119141000Y-86972000D01*
X110641000Y-84472000D02*
X113141000Y-84472000D01*
X110141000Y-88472000D02*
X110641000Y-88972000D01*
X110641000Y-88972000D02*
X113641000Y-88972000D01*
X119141000Y-82272000D02*
X119141000Y-82772000D01*
X105141000Y-87772000D02*
X105141000Y-86772000D01*
X106141000Y-87772000D02*
X105141000Y-87772000D01*
X105141000Y-73772000D02*
X106141000Y-73772000D01*
X105141000Y-74772000D02*
X105141000Y-73772000D01*
X119141000Y-73772000D02*
X119141000Y-74772000D01*
X118141000Y-73772000D02*
X119141000Y-73772000D01*
X119141000Y-87772000D02*
X118141000Y-87772000D01*
X119141000Y-86772000D02*
X119141000Y-87772000D01*
X114641000Y-86972000D02*
G75*
G03*
X114141000Y-87472000I0J-500000D01*
G01*
X113141000Y-84472000D02*
G75*
G03*
X114641000Y-82972000I0J1500000D01*
G01*
X97412913Y-144059584D02*
X97594086Y-143383436D01*
X97594086Y-143383436D02*
X101940752Y-144548122D01*
X94894073Y-149596320D02*
X95506445Y-149242767D01*
X95765264Y-148276841D02*
X95506445Y-149242767D01*
X100724303Y-149087973D02*
X96377636Y-147923288D01*
X92548608Y-144826750D02*
X93160981Y-144473197D01*
X100879594Y-148508418D02*
X100724303Y-149087973D01*
X93160981Y-144473197D02*
X95575795Y-145120245D01*
X91642742Y-148207491D02*
X91996295Y-148819863D01*
X91996295Y-148819863D02*
X94894073Y-149596320D01*
X101940752Y-144548122D02*
X101811343Y-145031085D01*
X86994286Y-146237247D02*
X87253105Y-145271322D01*
X87960212Y-146496067D02*
X86994286Y-146237247D01*
X90617753Y-132714286D02*
X91583678Y-132973105D01*
X90358933Y-133680212D02*
X90617753Y-132714286D01*
X104140714Y-136337753D02*
X103881895Y-137303678D01*
X103174788Y-136078933D02*
X104140714Y-136337753D01*
X100517247Y-149860714D02*
X99551322Y-149601895D01*
X100776067Y-148894788D02*
X100517247Y-149860714D01*
X96377637Y-147923288D02*
G75*
G03*
X95765264Y-148276841I-129410J-482963D01*
G01*
X95575796Y-145120245D02*
G75*
G03*
X97412913Y-144059584I388228J1448889D01*
G01*
X96670500Y-114531500D02*
X96670500Y-113831500D01*
X96670500Y-113831500D02*
X101170500Y-113831500D01*
X95670500Y-120531500D02*
X96170500Y-120031500D01*
X96170500Y-119031500D02*
X96170500Y-120031500D01*
X101170500Y-118531500D02*
X96670500Y-118531500D01*
X92170500Y-116531500D02*
X92670500Y-116031500D01*
X101170500Y-117931500D02*
X101170500Y-118531500D01*
X92670500Y-116031500D02*
X95170500Y-116031500D01*
X92170500Y-120031500D02*
X92670500Y-120531500D01*
X92670500Y-120531500D02*
X95670500Y-120531500D01*
X101170500Y-113831500D02*
X101170500Y-114331500D01*
X87170500Y-119331500D02*
X87170500Y-118331500D01*
X88170500Y-119331500D02*
X87170500Y-119331500D01*
X87170500Y-105331500D02*
X88170500Y-105331500D01*
X87170500Y-106331500D02*
X87170500Y-105331500D01*
X101170500Y-105331500D02*
X101170500Y-106331500D01*
X100170500Y-105331500D02*
X101170500Y-105331500D01*
X101170500Y-119331500D02*
X100170500Y-119331500D01*
X101170500Y-118331500D02*
X101170500Y-119331500D01*
X96670500Y-118531500D02*
G75*
G03*
X96170500Y-119031500I0J-500000D01*
G01*
X95170500Y-116031500D02*
G75*
G03*
X96670500Y-114531500I0J1500000D01*
G01*
X96670500Y-97577000D02*
X96670500Y-96877000D01*
X96670500Y-96877000D02*
X101170500Y-96877000D01*
X95670500Y-103577000D02*
X96170500Y-103077000D01*
X96170500Y-102077000D02*
X96170500Y-103077000D01*
X101170500Y-101577000D02*
X96670500Y-101577000D01*
X92170500Y-99577000D02*
X92670500Y-99077000D01*
X101170500Y-100977000D02*
X101170500Y-101577000D01*
X92670500Y-99077000D02*
X95170500Y-99077000D01*
X92170500Y-103077000D02*
X92670500Y-103577000D01*
X92670500Y-103577000D02*
X95670500Y-103577000D01*
X101170500Y-96877000D02*
X101170500Y-97377000D01*
X87170500Y-102377000D02*
X87170500Y-101377000D01*
X88170500Y-102377000D02*
X87170500Y-102377000D01*
X87170500Y-88377000D02*
X88170500Y-88377000D01*
X87170500Y-89377000D02*
X87170500Y-88377000D01*
X101170500Y-88377000D02*
X101170500Y-89377000D01*
X100170500Y-88377000D02*
X101170500Y-88377000D01*
X101170500Y-102377000D02*
X100170500Y-102377000D01*
X101170500Y-101377000D02*
X101170500Y-102377000D01*
X96670500Y-101577000D02*
G75*
G03*
X96170500Y-102077000I0J-500000D01*
G01*
X95170500Y-99077000D02*
G75*
G03*
X96670500Y-97577000I0J1500000D01*
G01*
X96670500Y-80559000D02*
X96670500Y-79859000D01*
X96670500Y-79859000D02*
X101170500Y-79859000D01*
X95670500Y-86559000D02*
X96170500Y-86059000D01*
X96170500Y-85059000D02*
X96170500Y-86059000D01*
X101170500Y-84559000D02*
X96670500Y-84559000D01*
X92170500Y-82559000D02*
X92670500Y-82059000D01*
X101170500Y-83959000D02*
X101170500Y-84559000D01*
X92670500Y-82059000D02*
X95170500Y-82059000D01*
X92170500Y-86059000D02*
X92670500Y-86559000D01*
X92670500Y-86559000D02*
X95670500Y-86559000D01*
X101170500Y-79859000D02*
X101170500Y-80359000D01*
X87170500Y-85359000D02*
X87170500Y-84359000D01*
X88170500Y-85359000D02*
X87170500Y-85359000D01*
X87170500Y-71359000D02*
X88170500Y-71359000D01*
X87170500Y-72359000D02*
X87170500Y-71359000D01*
X101170500Y-71359000D02*
X101170500Y-72359000D01*
X100170500Y-71359000D02*
X101170500Y-71359000D01*
X101170500Y-85359000D02*
X100170500Y-85359000D01*
X101170500Y-84359000D02*
X101170500Y-85359000D01*
X96670500Y-84559000D02*
G75*
G03*
X96170500Y-85059000I0J-500000D01*
G01*
X95170500Y-82059000D02*
G75*
G03*
X96670500Y-80559000I0J1500000D01*
G01*
X78700000Y-112182000D02*
X78700000Y-111482000D01*
X78700000Y-111482000D02*
X83200000Y-111482000D01*
X77700000Y-118182000D02*
X78200000Y-117682000D01*
X78200000Y-116682000D02*
X78200000Y-117682000D01*
X83200000Y-116182000D02*
X78700000Y-116182000D01*
X74200000Y-114182000D02*
X74700000Y-113682000D01*
X83200000Y-115582000D02*
X83200000Y-116182000D01*
X74700000Y-113682000D02*
X77200000Y-113682000D01*
X74200000Y-117682000D02*
X74700000Y-118182000D01*
X74700000Y-118182000D02*
X77700000Y-118182000D01*
X83200000Y-111482000D02*
X83200000Y-111982000D01*
X69200000Y-116982000D02*
X69200000Y-115982000D01*
X70200000Y-116982000D02*
X69200000Y-116982000D01*
X69200000Y-102982000D02*
X70200000Y-102982000D01*
X69200000Y-103982000D02*
X69200000Y-102982000D01*
X83200000Y-102982000D02*
X83200000Y-103982000D01*
X82200000Y-102982000D02*
X83200000Y-102982000D01*
X83200000Y-116982000D02*
X82200000Y-116982000D01*
X83200000Y-115982000D02*
X83200000Y-116982000D01*
X78700000Y-116182000D02*
G75*
G03*
X78200000Y-116682000I0J-500000D01*
G01*
X77200000Y-113682000D02*
G75*
G03*
X78700000Y-112182000I0J1500000D01*
G01*
X78636500Y-95164000D02*
X78636500Y-94464000D01*
X78636500Y-94464000D02*
X83136500Y-94464000D01*
X77636500Y-101164000D02*
X78136500Y-100664000D01*
X78136500Y-99664000D02*
X78136500Y-100664000D01*
X83136500Y-99164000D02*
X78636500Y-99164000D01*
X74136500Y-97164000D02*
X74636500Y-96664000D01*
X83136500Y-98564000D02*
X83136500Y-99164000D01*
X74636500Y-96664000D02*
X77136500Y-96664000D01*
X74136500Y-100664000D02*
X74636500Y-101164000D01*
X74636500Y-101164000D02*
X77636500Y-101164000D01*
X83136500Y-94464000D02*
X83136500Y-94964000D01*
X69136500Y-99964000D02*
X69136500Y-98964000D01*
X70136500Y-99964000D02*
X69136500Y-99964000D01*
X69136500Y-85964000D02*
X70136500Y-85964000D01*
X69136500Y-86964000D02*
X69136500Y-85964000D01*
X83136500Y-85964000D02*
X83136500Y-86964000D01*
X82136500Y-85964000D02*
X83136500Y-85964000D01*
X83136500Y-99964000D02*
X82136500Y-99964000D01*
X83136500Y-98964000D02*
X83136500Y-99964000D01*
X78636500Y-99164000D02*
G75*
G03*
X78136500Y-99664000I0J-500000D01*
G01*
X77136500Y-96664000D02*
G75*
G03*
X78636500Y-95164000I0J1500000D01*
G01*
X78636500Y-78146000D02*
X78636500Y-77446000D01*
X78636500Y-77446000D02*
X83136500Y-77446000D01*
X77636500Y-84146000D02*
X78136500Y-83646000D01*
X78136500Y-82646000D02*
X78136500Y-83646000D01*
X83136500Y-82146000D02*
X78636500Y-82146000D01*
X74136500Y-80146000D02*
X74636500Y-79646000D01*
X83136500Y-81546000D02*
X83136500Y-82146000D01*
X74636500Y-79646000D02*
X77136500Y-79646000D01*
X74136500Y-83646000D02*
X74636500Y-84146000D01*
X74636500Y-84146000D02*
X77636500Y-84146000D01*
X83136500Y-77446000D02*
X83136500Y-77946000D01*
X69136500Y-82946000D02*
X69136500Y-81946000D01*
X70136500Y-82946000D02*
X69136500Y-82946000D01*
X69136500Y-68946000D02*
X70136500Y-68946000D01*
X69136500Y-69946000D02*
X69136500Y-68946000D01*
X83136500Y-68946000D02*
X83136500Y-69946000D01*
X82136500Y-68946000D02*
X83136500Y-68946000D01*
X83136500Y-82946000D02*
X82136500Y-82946000D01*
X83136500Y-81946000D02*
X83136500Y-82946000D01*
X78636500Y-82146000D02*
G75*
G03*
X78136500Y-82646000I0J-500000D01*
G01*
X77136500Y-79646000D02*
G75*
G03*
X78636500Y-78146000I0J1500000D01*
G01*
X60666000Y-114531500D02*
X60666000Y-113831500D01*
X60666000Y-113831500D02*
X65166000Y-113831500D01*
X59666000Y-120531500D02*
X60166000Y-120031500D01*
X60166000Y-119031500D02*
X60166000Y-120031500D01*
X65166000Y-118531500D02*
X60666000Y-118531500D01*
X56166000Y-116531500D02*
X56666000Y-116031500D01*
X65166000Y-117931500D02*
X65166000Y-118531500D01*
X56666000Y-116031500D02*
X59166000Y-116031500D01*
X56166000Y-120031500D02*
X56666000Y-120531500D01*
X56666000Y-120531500D02*
X59666000Y-120531500D01*
X65166000Y-113831500D02*
X65166000Y-114331500D01*
X51166000Y-119331500D02*
X51166000Y-118331500D01*
X52166000Y-119331500D02*
X51166000Y-119331500D01*
X51166000Y-105331500D02*
X52166000Y-105331500D01*
X51166000Y-106331500D02*
X51166000Y-105331500D01*
X65166000Y-105331500D02*
X65166000Y-106331500D01*
X64166000Y-105331500D02*
X65166000Y-105331500D01*
X65166000Y-119331500D02*
X64166000Y-119331500D01*
X65166000Y-118331500D02*
X65166000Y-119331500D01*
X60666000Y-118531500D02*
G75*
G03*
X60166000Y-119031500I0J-500000D01*
G01*
X59166000Y-116031500D02*
G75*
G03*
X60666000Y-114531500I0J1500000D01*
G01*
X60666000Y-97513500D02*
X60666000Y-96813500D01*
X60666000Y-96813500D02*
X65166000Y-96813500D01*
X59666000Y-103513500D02*
X60166000Y-103013500D01*
X60166000Y-102013500D02*
X60166000Y-103013500D01*
X65166000Y-101513500D02*
X60666000Y-101513500D01*
X56166000Y-99513500D02*
X56666000Y-99013500D01*
X65166000Y-100913500D02*
X65166000Y-101513500D01*
X56666000Y-99013500D02*
X59166000Y-99013500D01*
X56166000Y-103013500D02*
X56666000Y-103513500D01*
X56666000Y-103513500D02*
X59666000Y-103513500D01*
X65166000Y-96813500D02*
X65166000Y-97313500D01*
X51166000Y-102313500D02*
X51166000Y-101313500D01*
X52166000Y-102313500D02*
X51166000Y-102313500D01*
X51166000Y-88313500D02*
X52166000Y-88313500D01*
X51166000Y-89313500D02*
X51166000Y-88313500D01*
X65166000Y-88313500D02*
X65166000Y-89313500D01*
X64166000Y-88313500D02*
X65166000Y-88313500D01*
X65166000Y-102313500D02*
X64166000Y-102313500D01*
X65166000Y-101313500D02*
X65166000Y-102313500D01*
X60666000Y-101513500D02*
G75*
G03*
X60166000Y-102013500I0J-500000D01*
G01*
X59166000Y-99013500D02*
G75*
G03*
X60666000Y-97513500I0J1500000D01*
G01*
X60666000Y-80559000D02*
X60666000Y-79859000D01*
X60666000Y-79859000D02*
X65166000Y-79859000D01*
X59666000Y-86559000D02*
X60166000Y-86059000D01*
X60166000Y-85059000D02*
X60166000Y-86059000D01*
X65166000Y-84559000D02*
X60666000Y-84559000D01*
X56166000Y-82559000D02*
X56666000Y-82059000D01*
X65166000Y-83959000D02*
X65166000Y-84559000D01*
X56666000Y-82059000D02*
X59166000Y-82059000D01*
X56166000Y-86059000D02*
X56666000Y-86559000D01*
X56666000Y-86559000D02*
X59666000Y-86559000D01*
X65166000Y-79859000D02*
X65166000Y-80359000D01*
X51166000Y-85359000D02*
X51166000Y-84359000D01*
X52166000Y-85359000D02*
X51166000Y-85359000D01*
X51166000Y-71359000D02*
X52166000Y-71359000D01*
X51166000Y-72359000D02*
X51166000Y-71359000D01*
X65166000Y-71359000D02*
X65166000Y-72359000D01*
X64166000Y-71359000D02*
X65166000Y-71359000D01*
X65166000Y-85359000D02*
X64166000Y-85359000D01*
X65166000Y-84359000D02*
X65166000Y-85359000D01*
X60666000Y-84559000D02*
G75*
G03*
X60166000Y-85059000I0J-500000D01*
G01*
X59166000Y-82059000D02*
G75*
G03*
X60666000Y-80559000I0J1500000D01*
G01*
X42632000Y-119294000D02*
X42632000Y-118594000D01*
X42632000Y-118594000D02*
X47132000Y-118594000D01*
X41632000Y-125294000D02*
X42132000Y-124794000D01*
X42132000Y-123794000D02*
X42132000Y-124794000D01*
X47132000Y-123294000D02*
X42632000Y-123294000D01*
X38132000Y-121294000D02*
X38632000Y-120794000D01*
X47132000Y-122694000D02*
X47132000Y-123294000D01*
X38632000Y-120794000D02*
X41132000Y-120794000D01*
X38132000Y-124794000D02*
X38632000Y-125294000D01*
X38632000Y-125294000D02*
X41632000Y-125294000D01*
X47132000Y-118594000D02*
X47132000Y-119094000D01*
X33132000Y-124094000D02*
X33132000Y-123094000D01*
X34132000Y-124094000D02*
X33132000Y-124094000D01*
X33132000Y-110094000D02*
X34132000Y-110094000D01*
X33132000Y-111094000D02*
X33132000Y-110094000D01*
X47132000Y-110094000D02*
X47132000Y-111094000D01*
X46132000Y-110094000D02*
X47132000Y-110094000D01*
X47132000Y-124094000D02*
X46132000Y-124094000D01*
X47132000Y-123094000D02*
X47132000Y-124094000D01*
X42632000Y-123294000D02*
G75*
G03*
X42132000Y-123794000I0J-500000D01*
G01*
X41132000Y-120794000D02*
G75*
G03*
X42632000Y-119294000I0J1500000D01*
G01*
X42632000Y-102276000D02*
X42632000Y-101576000D01*
X42632000Y-101576000D02*
X47132000Y-101576000D01*
X41632000Y-108276000D02*
X42132000Y-107776000D01*
X42132000Y-106776000D02*
X42132000Y-107776000D01*
X47132000Y-106276000D02*
X42632000Y-106276000D01*
X38132000Y-104276000D02*
X38632000Y-103776000D01*
X47132000Y-105676000D02*
X47132000Y-106276000D01*
X38632000Y-103776000D02*
X41132000Y-103776000D01*
X38132000Y-107776000D02*
X38632000Y-108276000D01*
X38632000Y-108276000D02*
X41632000Y-108276000D01*
X47132000Y-101576000D02*
X47132000Y-102076000D01*
X33132000Y-107076000D02*
X33132000Y-106076000D01*
X34132000Y-107076000D02*
X33132000Y-107076000D01*
X33132000Y-93076000D02*
X34132000Y-93076000D01*
X33132000Y-94076000D02*
X33132000Y-93076000D01*
X47132000Y-93076000D02*
X47132000Y-94076000D01*
X46132000Y-93076000D02*
X47132000Y-93076000D01*
X47132000Y-107076000D02*
X46132000Y-107076000D01*
X47132000Y-106076000D02*
X47132000Y-107076000D01*
X42632000Y-106276000D02*
G75*
G03*
X42132000Y-106776000I0J-500000D01*
G01*
X41132000Y-103776000D02*
G75*
G03*
X42632000Y-102276000I0J1500000D01*
G01*
X42632000Y-85321500D02*
X42632000Y-84621500D01*
X42632000Y-84621500D02*
X47132000Y-84621500D01*
X41632000Y-91321500D02*
X42132000Y-90821500D01*
X42132000Y-89821500D02*
X42132000Y-90821500D01*
X47132000Y-89321500D02*
X42632000Y-89321500D01*
X38132000Y-87321500D02*
X38632000Y-86821500D01*
X47132000Y-88721500D02*
X47132000Y-89321500D01*
X38632000Y-86821500D02*
X41132000Y-86821500D01*
X38132000Y-90821500D02*
X38632000Y-91321500D01*
X38632000Y-91321500D02*
X41632000Y-91321500D01*
X47132000Y-84621500D02*
X47132000Y-85121500D01*
X33132000Y-90121500D02*
X33132000Y-89121500D01*
X34132000Y-90121500D02*
X33132000Y-90121500D01*
X33132000Y-76121500D02*
X34132000Y-76121500D01*
X33132000Y-77121500D02*
X33132000Y-76121500D01*
X47132000Y-76121500D02*
X47132000Y-77121500D01*
X46132000Y-76121500D02*
X47132000Y-76121500D01*
X47132000Y-90121500D02*
X46132000Y-90121500D01*
X47132000Y-89121500D02*
X47132000Y-90121500D01*
X42632000Y-89321500D02*
G75*
G03*
X42132000Y-89821500I0J-500000D01*
G01*
X41132000Y-86821500D02*
G75*
G03*
X42632000Y-85321500I0J1500000D01*
G01*
D12*
X53480857Y-127665714D02*
X53516571Y-127689523D01*
X53552285Y-127760952D01*
X53552285Y-127808571D01*
X53516571Y-127880000D01*
X53445142Y-127927619D01*
X53373714Y-127951428D01*
X53230857Y-127975238D01*
X53123714Y-127975238D01*
X52980857Y-127951428D01*
X52909428Y-127927619D01*
X52838000Y-127880000D01*
X52802285Y-127808571D01*
X52802285Y-127760952D01*
X52838000Y-127689523D01*
X52873714Y-127665714D01*
X52802285Y-127237142D02*
X52802285Y-127332380D01*
X52838000Y-127380000D01*
X52873714Y-127403809D01*
X52980857Y-127451428D01*
X53123714Y-127475238D01*
X53409428Y-127475238D01*
X53480857Y-127451428D01*
X53516571Y-127427619D01*
X53552285Y-127380000D01*
X53552285Y-127284761D01*
X53516571Y-127237142D01*
X53480857Y-127213333D01*
X53409428Y-127189523D01*
X53230857Y-127189523D01*
X53159428Y-127213333D01*
X53123714Y-127237142D01*
X53088000Y-127284761D01*
X53088000Y-127380000D01*
X53123714Y-127427619D01*
X53159428Y-127451428D01*
X53230857Y-127475238D01*
X52766571Y-126618095D02*
X53730857Y-127046666D01*
X53552285Y-126451428D02*
X52802285Y-126451428D01*
X53338000Y-126284761D01*
X52802285Y-126118095D01*
X53552285Y-126118095D01*
X52802285Y-125927619D02*
X53552285Y-125594285D01*
X52802285Y-125594285D02*
X53552285Y-125927619D01*
X53552285Y-125380000D02*
X53552285Y-125284761D01*
X53516571Y-125237142D01*
X53480857Y-125213333D01*
X53373714Y-125165714D01*
X53230857Y-125141904D01*
X52945142Y-125141904D01*
X52873714Y-125165714D01*
X52838000Y-125189523D01*
X52802285Y-125237142D01*
X52802285Y-125332380D01*
X52838000Y-125380000D01*
X52873714Y-125403809D01*
X52945142Y-125427619D01*
X53123714Y-125427619D01*
X53195142Y-125403809D01*
X53230857Y-125380000D01*
X53266571Y-125332380D01*
X53266571Y-125237142D01*
X53230857Y-125189523D01*
X53195142Y-125165714D01*
X53123714Y-125141904D01*
X55635928Y-143082380D02*
X55671642Y-143010952D01*
X55707357Y-142987142D01*
X55778785Y-142963333D01*
X55885928Y-142963333D01*
X55957357Y-142987142D01*
X55993071Y-143010952D01*
X56028785Y-143058571D01*
X56028785Y-143249047D01*
X55278785Y-143249047D01*
X55278785Y-143082380D01*
X55314500Y-143034761D01*
X55350214Y-143010952D01*
X55421642Y-142987142D01*
X55493071Y-142987142D01*
X55564500Y-143010952D01*
X55600214Y-143034761D01*
X55635928Y-143082380D01*
X55635928Y-143249047D01*
X56028785Y-142487142D02*
X56028785Y-142772857D01*
X56028785Y-142630000D02*
X55278785Y-142630000D01*
X55385928Y-142677619D01*
X55457357Y-142725238D01*
X55493071Y-142772857D01*
X55243071Y-141915714D02*
X56207357Y-142344285D01*
X56028785Y-141749047D02*
X55278785Y-141749047D01*
X55814500Y-141582380D01*
X55278785Y-141415714D01*
X56028785Y-141415714D01*
X55278785Y-141225238D02*
X56028785Y-140891904D01*
X55278785Y-140891904D02*
X56028785Y-141225238D01*
X56028785Y-140439523D02*
X56028785Y-140725238D01*
X56028785Y-140582380D02*
X55278785Y-140582380D01*
X55385928Y-140630000D01*
X55457357Y-140677619D01*
X55493071Y-140725238D01*
X55278785Y-140130000D02*
X55278785Y-140082380D01*
X55314500Y-140034761D01*
X55350214Y-140010952D01*
X55421642Y-139987142D01*
X55564500Y-139963333D01*
X55743071Y-139963333D01*
X55885928Y-139987142D01*
X55957357Y-140010952D01*
X55993071Y-140034761D01*
X56028785Y-140082380D01*
X56028785Y-140130000D01*
X55993071Y-140177619D01*
X55957357Y-140201428D01*
X55885928Y-140225238D01*
X55743071Y-140249047D01*
X55564500Y-140249047D01*
X55421642Y-140225238D01*
X55350214Y-140201428D01*
X55314500Y-140177619D01*
X55278785Y-140130000D01*
X56155785Y-127999047D02*
X55405785Y-127999047D01*
X55405785Y-127880000D01*
X55441500Y-127808571D01*
X55512928Y-127760952D01*
X55584357Y-127737142D01*
X55727214Y-127713333D01*
X55834357Y-127713333D01*
X55977214Y-127737142D01*
X56048642Y-127760952D01*
X56120071Y-127808571D01*
X56155785Y-127880000D01*
X56155785Y-127999047D01*
X55405785Y-127546666D02*
X55405785Y-127213333D01*
X56155785Y-127427619D01*
X55370071Y-126665714D02*
X56334357Y-127094285D01*
X56155785Y-126499047D02*
X55405785Y-126499047D01*
X55941500Y-126332380D01*
X55405785Y-126165714D01*
X56155785Y-126165714D01*
X55405785Y-125975238D02*
X56155785Y-125641904D01*
X55405785Y-125641904D02*
X56155785Y-125975238D01*
X56155785Y-125189523D02*
X56155785Y-125475238D01*
X56155785Y-125332380D02*
X55405785Y-125332380D01*
X55512928Y-125380000D01*
X55584357Y-125427619D01*
X55620071Y-125475238D01*
X56155785Y-124713333D02*
X56155785Y-124999047D01*
X56155785Y-124856190D02*
X55405785Y-124856190D01*
X55512928Y-124903809D01*
X55584357Y-124951428D01*
X55620071Y-124999047D01*
X58273928Y-143132380D02*
X58309642Y-143060952D01*
X58345357Y-143037142D01*
X58416785Y-143013333D01*
X58523928Y-143013333D01*
X58595357Y-143037142D01*
X58631071Y-143060952D01*
X58666785Y-143108571D01*
X58666785Y-143299047D01*
X57916785Y-143299047D01*
X57916785Y-143132380D01*
X57952500Y-143084761D01*
X57988214Y-143060952D01*
X58059642Y-143037142D01*
X58131071Y-143037142D01*
X58202500Y-143060952D01*
X58238214Y-143084761D01*
X58273928Y-143132380D01*
X58273928Y-143299047D01*
X57916785Y-142846666D02*
X57916785Y-142537142D01*
X58202500Y-142703809D01*
X58202500Y-142632380D01*
X58238214Y-142584761D01*
X58273928Y-142560952D01*
X58345357Y-142537142D01*
X58523928Y-142537142D01*
X58595357Y-142560952D01*
X58631071Y-142584761D01*
X58666785Y-142632380D01*
X58666785Y-142775238D01*
X58631071Y-142822857D01*
X58595357Y-142846666D01*
X57881071Y-141965714D02*
X58845357Y-142394285D01*
X58666785Y-141799047D02*
X57916785Y-141799047D01*
X58452500Y-141632380D01*
X57916785Y-141465714D01*
X58666785Y-141465714D01*
X57916785Y-141275238D02*
X58666785Y-140941904D01*
X57916785Y-140941904D02*
X58666785Y-141275238D01*
X58666785Y-140489523D02*
X58666785Y-140775238D01*
X58666785Y-140632380D02*
X57916785Y-140632380D01*
X58023928Y-140680000D01*
X58095357Y-140727619D01*
X58131071Y-140775238D01*
X57988214Y-140299047D02*
X57952500Y-140275238D01*
X57916785Y-140227619D01*
X57916785Y-140108571D01*
X57952500Y-140060952D01*
X57988214Y-140037142D01*
X58059642Y-140013333D01*
X58131071Y-140013333D01*
X58238214Y-140037142D01*
X58666785Y-140322857D01*
X58666785Y-140013333D01*
X58273928Y-127975238D02*
X58273928Y-127808571D01*
X58666785Y-127737142D02*
X58666785Y-127975238D01*
X57916785Y-127975238D01*
X57916785Y-127737142D01*
X57916785Y-127308571D02*
X57916785Y-127403809D01*
X57952500Y-127451428D01*
X57988214Y-127475238D01*
X58095357Y-127522857D01*
X58238214Y-127546666D01*
X58523928Y-127546666D01*
X58595357Y-127522857D01*
X58631071Y-127499047D01*
X58666785Y-127451428D01*
X58666785Y-127356190D01*
X58631071Y-127308571D01*
X58595357Y-127284761D01*
X58523928Y-127260952D01*
X58345357Y-127260952D01*
X58273928Y-127284761D01*
X58238214Y-127308571D01*
X58202500Y-127356190D01*
X58202500Y-127451428D01*
X58238214Y-127499047D01*
X58273928Y-127522857D01*
X58345357Y-127546666D01*
X57881071Y-126689523D02*
X58845357Y-127118095D01*
X58666785Y-126522857D02*
X57916785Y-126522857D01*
X58452500Y-126356190D01*
X57916785Y-126189523D01*
X58666785Y-126189523D01*
X57916785Y-125999047D02*
X58666785Y-125665714D01*
X57916785Y-125665714D02*
X58666785Y-125999047D01*
X58666785Y-125213333D02*
X58666785Y-125499047D01*
X58666785Y-125356190D02*
X57916785Y-125356190D01*
X58023928Y-125403809D01*
X58095357Y-125451428D01*
X58131071Y-125499047D01*
X58166785Y-124784761D02*
X58666785Y-124784761D01*
X57881071Y-124903809D02*
X58416785Y-125022857D01*
X58416785Y-124713333D01*
X60652428Y-143069452D02*
X60688142Y-142998023D01*
X60723857Y-142974214D01*
X60795285Y-142950404D01*
X60902428Y-142950404D01*
X60973857Y-142974214D01*
X61009571Y-142998023D01*
X61045285Y-143045642D01*
X61045285Y-143236119D01*
X60295285Y-143236119D01*
X60295285Y-143069452D01*
X60331000Y-143021833D01*
X60366714Y-142998023D01*
X60438142Y-142974214D01*
X60509571Y-142974214D01*
X60581000Y-142998023D01*
X60616714Y-143021833D01*
X60652428Y-143069452D01*
X60652428Y-143236119D01*
X60366714Y-142759928D02*
X60331000Y-142736119D01*
X60295285Y-142688500D01*
X60295285Y-142569452D01*
X60331000Y-142521833D01*
X60366714Y-142498023D01*
X60438142Y-142474214D01*
X60509571Y-142474214D01*
X60616714Y-142498023D01*
X61045285Y-142783738D01*
X61045285Y-142474214D01*
X60259571Y-141902785D02*
X61223857Y-142331357D01*
X61045285Y-141736119D02*
X60295285Y-141736119D01*
X60831000Y-141569452D01*
X60295285Y-141402785D01*
X61045285Y-141402785D01*
X60295285Y-141212309D02*
X61045285Y-140878976D01*
X60295285Y-140878976D02*
X61045285Y-141212309D01*
X61045285Y-140426595D02*
X61045285Y-140712309D01*
X61045285Y-140569452D02*
X60295285Y-140569452D01*
X60402428Y-140617071D01*
X60473857Y-140664690D01*
X60509571Y-140712309D01*
X60295285Y-139974214D02*
X60295285Y-140212309D01*
X60652428Y-140236119D01*
X60616714Y-140212309D01*
X60581000Y-140164690D01*
X60581000Y-140045642D01*
X60616714Y-139998023D01*
X60652428Y-139974214D01*
X60723857Y-139950404D01*
X60902428Y-139950404D01*
X60973857Y-139974214D01*
X61009571Y-139998023D01*
X61045285Y-140045642D01*
X61045285Y-140164690D01*
X61009571Y-140212309D01*
X60973857Y-140236119D01*
X60779428Y-127892904D02*
X60815142Y-127821476D01*
X60850857Y-127797666D01*
X60922285Y-127773857D01*
X61029428Y-127773857D01*
X61100857Y-127797666D01*
X61136571Y-127821476D01*
X61172285Y-127869095D01*
X61172285Y-128059571D01*
X60422285Y-128059571D01*
X60422285Y-127892904D01*
X60458000Y-127845285D01*
X60493714Y-127821476D01*
X60565142Y-127797666D01*
X60636571Y-127797666D01*
X60708000Y-127821476D01*
X60743714Y-127845285D01*
X60779428Y-127892904D01*
X60779428Y-128059571D01*
X60672285Y-127345285D02*
X61172285Y-127345285D01*
X60386571Y-127464333D02*
X60922285Y-127583380D01*
X60922285Y-127273857D01*
X60386571Y-126726238D02*
X61350857Y-127154809D01*
X61172285Y-126559571D02*
X60422285Y-126559571D01*
X60958000Y-126392904D01*
X60422285Y-126226238D01*
X61172285Y-126226238D01*
X60422285Y-126035761D02*
X61172285Y-125702428D01*
X60422285Y-125702428D02*
X61172285Y-126035761D01*
X61172285Y-125250047D02*
X61172285Y-125535761D01*
X61172285Y-125392904D02*
X60422285Y-125392904D01*
X60529428Y-125440523D01*
X60600857Y-125488142D01*
X60636571Y-125535761D01*
X60422285Y-124821476D02*
X60422285Y-124916714D01*
X60458000Y-124964333D01*
X60493714Y-124988142D01*
X60600857Y-125035761D01*
X60743714Y-125059571D01*
X61029428Y-125059571D01*
X61100857Y-125035761D01*
X61136571Y-125011952D01*
X61172285Y-124964333D01*
X61172285Y-124869095D01*
X61136571Y-124821476D01*
X61100857Y-124797666D01*
X61029428Y-124773857D01*
X60850857Y-124773857D01*
X60779428Y-124797666D01*
X60743714Y-124821476D01*
X60708000Y-124869095D01*
X60708000Y-124964333D01*
X60743714Y-125011952D01*
X60779428Y-125035761D01*
X60850857Y-125059571D01*
X63319428Y-127892904D02*
X63355142Y-127821476D01*
X63390857Y-127797666D01*
X63462285Y-127773857D01*
X63569428Y-127773857D01*
X63640857Y-127797666D01*
X63676571Y-127821476D01*
X63712285Y-127869095D01*
X63712285Y-128059571D01*
X62962285Y-128059571D01*
X62962285Y-127892904D01*
X62998000Y-127845285D01*
X63033714Y-127821476D01*
X63105142Y-127797666D01*
X63176571Y-127797666D01*
X63248000Y-127821476D01*
X63283714Y-127845285D01*
X63319428Y-127892904D01*
X63319428Y-128059571D01*
X62962285Y-127321476D02*
X62962285Y-127559571D01*
X63319428Y-127583380D01*
X63283714Y-127559571D01*
X63248000Y-127511952D01*
X63248000Y-127392904D01*
X63283714Y-127345285D01*
X63319428Y-127321476D01*
X63390857Y-127297666D01*
X63569428Y-127297666D01*
X63640857Y-127321476D01*
X63676571Y-127345285D01*
X63712285Y-127392904D01*
X63712285Y-127511952D01*
X63676571Y-127559571D01*
X63640857Y-127583380D01*
X62926571Y-126726238D02*
X63890857Y-127154809D01*
X63712285Y-126559571D02*
X62962285Y-126559571D01*
X63498000Y-126392904D01*
X62962285Y-126226238D01*
X63712285Y-126226238D01*
X62962285Y-126035761D02*
X63712285Y-125702428D01*
X62962285Y-125702428D02*
X63712285Y-126035761D01*
X63712285Y-125250047D02*
X63712285Y-125535761D01*
X63712285Y-125392904D02*
X62962285Y-125392904D01*
X63069428Y-125440523D01*
X63140857Y-125488142D01*
X63176571Y-125535761D01*
X62962285Y-125083380D02*
X62962285Y-124773857D01*
X63248000Y-124940523D01*
X63248000Y-124869095D01*
X63283714Y-124821476D01*
X63319428Y-124797666D01*
X63390857Y-124773857D01*
X63569428Y-124773857D01*
X63640857Y-124797666D01*
X63676571Y-124821476D01*
X63712285Y-124869095D01*
X63712285Y-125011952D01*
X63676571Y-125059571D01*
X63640857Y-125083380D01*
X63255928Y-143005952D02*
X63291642Y-142934523D01*
X63327357Y-142910714D01*
X63398785Y-142886904D01*
X63505928Y-142886904D01*
X63577357Y-142910714D01*
X63613071Y-142934523D01*
X63648785Y-142982142D01*
X63648785Y-143172619D01*
X62898785Y-143172619D01*
X62898785Y-143005952D01*
X62934500Y-142958333D01*
X62970214Y-142934523D01*
X63041642Y-142910714D01*
X63113071Y-142910714D01*
X63184500Y-142934523D01*
X63220214Y-142958333D01*
X63255928Y-143005952D01*
X63255928Y-143172619D01*
X62898785Y-142458333D02*
X62898785Y-142553571D01*
X62934500Y-142601190D01*
X62970214Y-142625000D01*
X63077357Y-142672619D01*
X63220214Y-142696428D01*
X63505928Y-142696428D01*
X63577357Y-142672619D01*
X63613071Y-142648809D01*
X63648785Y-142601190D01*
X63648785Y-142505952D01*
X63613071Y-142458333D01*
X63577357Y-142434523D01*
X63505928Y-142410714D01*
X63327357Y-142410714D01*
X63255928Y-142434523D01*
X63220214Y-142458333D01*
X63184500Y-142505952D01*
X63184500Y-142601190D01*
X63220214Y-142648809D01*
X63255928Y-142672619D01*
X63327357Y-142696428D01*
X62863071Y-141839285D02*
X63827357Y-142267857D01*
X63648785Y-141672619D02*
X62898785Y-141672619D01*
X63434500Y-141505952D01*
X62898785Y-141339285D01*
X63648785Y-141339285D01*
X62898785Y-141148809D02*
X63648785Y-140815476D01*
X62898785Y-140815476D02*
X63648785Y-141148809D01*
X63648785Y-140363095D02*
X63648785Y-140648809D01*
X63648785Y-140505952D02*
X62898785Y-140505952D01*
X63005928Y-140553571D01*
X63077357Y-140601190D01*
X63113071Y-140648809D01*
X62898785Y-140196428D02*
X62898785Y-139863095D01*
X63648785Y-140077380D01*
X45573928Y-143049047D02*
X45573928Y-143215714D01*
X45966785Y-143215714D02*
X45216785Y-143215714D01*
X45216785Y-142977619D01*
X45466785Y-142572857D02*
X45966785Y-142572857D01*
X45181071Y-142691904D02*
X45716785Y-142810952D01*
X45716785Y-142501428D01*
X45181071Y-141953809D02*
X46145357Y-142382380D01*
X45966785Y-141787142D02*
X45216785Y-141787142D01*
X45752500Y-141620476D01*
X45216785Y-141453809D01*
X45966785Y-141453809D01*
X45216785Y-141263333D02*
X45966785Y-140930000D01*
X45216785Y-140930000D02*
X45966785Y-141263333D01*
X45288214Y-140763333D02*
X45252500Y-140739523D01*
X45216785Y-140691904D01*
X45216785Y-140572857D01*
X45252500Y-140525238D01*
X45288214Y-140501428D01*
X45359642Y-140477619D01*
X45431071Y-140477619D01*
X45538214Y-140501428D01*
X45966785Y-140787142D01*
X45966785Y-140477619D01*
X45932285Y-128011952D02*
X45182285Y-128011952D01*
X45182285Y-127892904D01*
X45218000Y-127821476D01*
X45289428Y-127773857D01*
X45360857Y-127750047D01*
X45503714Y-127726238D01*
X45610857Y-127726238D01*
X45753714Y-127750047D01*
X45825142Y-127773857D01*
X45896571Y-127821476D01*
X45932285Y-127892904D01*
X45932285Y-128011952D01*
X45932285Y-127250047D02*
X45932285Y-127535761D01*
X45932285Y-127392904D02*
X45182285Y-127392904D01*
X45289428Y-127440523D01*
X45360857Y-127488142D01*
X45396571Y-127535761D01*
X45146571Y-126678619D02*
X46110857Y-127107190D01*
X45932285Y-126511952D02*
X45182285Y-126511952D01*
X45718000Y-126345285D01*
X45182285Y-126178619D01*
X45932285Y-126178619D01*
X45182285Y-125988142D02*
X45932285Y-125654809D01*
X45182285Y-125654809D02*
X45932285Y-125988142D01*
X45932285Y-125202428D02*
X45932285Y-125488142D01*
X45932285Y-125345285D02*
X45182285Y-125345285D01*
X45289428Y-125392904D01*
X45360857Y-125440523D01*
X45396571Y-125488142D01*
X48079428Y-143049047D02*
X48079428Y-143215714D01*
X48472285Y-143215714D02*
X47722285Y-143215714D01*
X47722285Y-142977619D01*
X47722285Y-142549047D02*
X47722285Y-142787142D01*
X48079428Y-142810952D01*
X48043714Y-142787142D01*
X48008000Y-142739523D01*
X48008000Y-142620476D01*
X48043714Y-142572857D01*
X48079428Y-142549047D01*
X48150857Y-142525238D01*
X48329428Y-142525238D01*
X48400857Y-142549047D01*
X48436571Y-142572857D01*
X48472285Y-142620476D01*
X48472285Y-142739523D01*
X48436571Y-142787142D01*
X48400857Y-142810952D01*
X47686571Y-141953809D02*
X48650857Y-142382380D01*
X48472285Y-141787142D02*
X47722285Y-141787142D01*
X48258000Y-141620476D01*
X47722285Y-141453809D01*
X48472285Y-141453809D01*
X47722285Y-141263333D02*
X48472285Y-140930000D01*
X47722285Y-140930000D02*
X48472285Y-141263333D01*
X47972285Y-140525238D02*
X48472285Y-140525238D01*
X47686571Y-140644285D02*
X48222285Y-140763333D01*
X48222285Y-140453809D01*
X48472285Y-128011952D02*
X47722285Y-128011952D01*
X47722285Y-127892904D01*
X47758000Y-127821476D01*
X47829428Y-127773857D01*
X47900857Y-127750047D01*
X48043714Y-127726238D01*
X48150857Y-127726238D01*
X48293714Y-127750047D01*
X48365142Y-127773857D01*
X48436571Y-127821476D01*
X48472285Y-127892904D01*
X48472285Y-128011952D01*
X47722285Y-127416714D02*
X47722285Y-127369095D01*
X47758000Y-127321476D01*
X47793714Y-127297666D01*
X47865142Y-127273857D01*
X48008000Y-127250047D01*
X48186571Y-127250047D01*
X48329428Y-127273857D01*
X48400857Y-127297666D01*
X48436571Y-127321476D01*
X48472285Y-127369095D01*
X48472285Y-127416714D01*
X48436571Y-127464333D01*
X48400857Y-127488142D01*
X48329428Y-127511952D01*
X48186571Y-127535761D01*
X48008000Y-127535761D01*
X47865142Y-127511952D01*
X47793714Y-127488142D01*
X47758000Y-127464333D01*
X47722285Y-127416714D01*
X47686571Y-126678619D02*
X48650857Y-127107190D01*
X48472285Y-126511952D02*
X47722285Y-126511952D01*
X48258000Y-126345285D01*
X47722285Y-126178619D01*
X48472285Y-126178619D01*
X47722285Y-125988142D02*
X48472285Y-125654809D01*
X47722285Y-125654809D02*
X48472285Y-125988142D01*
X47722285Y-125226238D02*
X47722285Y-125464333D01*
X48079428Y-125488142D01*
X48043714Y-125464333D01*
X48008000Y-125416714D01*
X48008000Y-125297666D01*
X48043714Y-125250047D01*
X48079428Y-125226238D01*
X48150857Y-125202428D01*
X48329428Y-125202428D01*
X48400857Y-125226238D01*
X48436571Y-125250047D01*
X48472285Y-125297666D01*
X48472285Y-125416714D01*
X48436571Y-125464333D01*
X48400857Y-125488142D01*
X50623928Y-143049047D02*
X50623928Y-143215714D01*
X51016785Y-143215714D02*
X50266785Y-143215714D01*
X50266785Y-142977619D01*
X50266785Y-142572857D02*
X50266785Y-142668095D01*
X50302500Y-142715714D01*
X50338214Y-142739523D01*
X50445357Y-142787142D01*
X50588214Y-142810952D01*
X50873928Y-142810952D01*
X50945357Y-142787142D01*
X50981071Y-142763333D01*
X51016785Y-142715714D01*
X51016785Y-142620476D01*
X50981071Y-142572857D01*
X50945357Y-142549047D01*
X50873928Y-142525238D01*
X50695357Y-142525238D01*
X50623928Y-142549047D01*
X50588214Y-142572857D01*
X50552500Y-142620476D01*
X50552500Y-142715714D01*
X50588214Y-142763333D01*
X50623928Y-142787142D01*
X50695357Y-142810952D01*
X50231071Y-141953809D02*
X51195357Y-142382380D01*
X51016785Y-141787142D02*
X50266785Y-141787142D01*
X50802500Y-141620476D01*
X50266785Y-141453809D01*
X51016785Y-141453809D01*
X50266785Y-141263333D02*
X51016785Y-140930000D01*
X50266785Y-140930000D02*
X51016785Y-141263333D01*
X50266785Y-140525238D02*
X50266785Y-140620476D01*
X50302500Y-140668095D01*
X50338214Y-140691904D01*
X50445357Y-140739523D01*
X50588214Y-140763333D01*
X50873928Y-140763333D01*
X50945357Y-140739523D01*
X50981071Y-140715714D01*
X51016785Y-140668095D01*
X51016785Y-140572857D01*
X50981071Y-140525238D01*
X50945357Y-140501428D01*
X50873928Y-140477619D01*
X50695357Y-140477619D01*
X50623928Y-140501428D01*
X50588214Y-140525238D01*
X50552500Y-140572857D01*
X50552500Y-140668095D01*
X50588214Y-140715714D01*
X50623928Y-140739523D01*
X50695357Y-140763333D01*
X50948785Y-127951428D02*
X50198785Y-127951428D01*
X50198785Y-127832380D01*
X50234500Y-127760952D01*
X50305928Y-127713333D01*
X50377357Y-127689523D01*
X50520214Y-127665714D01*
X50627357Y-127665714D01*
X50770214Y-127689523D01*
X50841642Y-127713333D01*
X50913071Y-127760952D01*
X50948785Y-127832380D01*
X50948785Y-127951428D01*
X50448785Y-127237142D02*
X50948785Y-127237142D01*
X50163071Y-127356190D02*
X50698785Y-127475238D01*
X50698785Y-127165714D01*
X50163071Y-126618095D02*
X51127357Y-127046666D01*
X50948785Y-126451428D02*
X50198785Y-126451428D01*
X50734500Y-126284761D01*
X50198785Y-126118095D01*
X50948785Y-126118095D01*
X50198785Y-125927619D02*
X50948785Y-125594285D01*
X50198785Y-125594285D02*
X50948785Y-125927619D01*
X50198785Y-125451428D02*
X50198785Y-125118095D01*
X50948785Y-125332380D01*
X53123928Y-143049047D02*
X53123928Y-143215714D01*
X53516785Y-143215714D02*
X52766785Y-143215714D01*
X52766785Y-142977619D01*
X52766785Y-142834761D02*
X52766785Y-142501428D01*
X53516785Y-142715714D01*
X52731071Y-141953809D02*
X53695357Y-142382380D01*
X53516785Y-141787142D02*
X52766785Y-141787142D01*
X53302500Y-141620476D01*
X52766785Y-141453809D01*
X53516785Y-141453809D01*
X52766785Y-141263333D02*
X53516785Y-140930000D01*
X52766785Y-140930000D02*
X53516785Y-141263333D01*
X53088214Y-140668095D02*
X53052500Y-140715714D01*
X53016785Y-140739523D01*
X52945357Y-140763333D01*
X52909642Y-140763333D01*
X52838214Y-140739523D01*
X52802500Y-140715714D01*
X52766785Y-140668095D01*
X52766785Y-140572857D01*
X52802500Y-140525238D01*
X52838214Y-140501428D01*
X52909642Y-140477619D01*
X52945357Y-140477619D01*
X53016785Y-140501428D01*
X53052500Y-140525238D01*
X53088214Y-140572857D01*
X53088214Y-140668095D01*
X53123928Y-140715714D01*
X53159642Y-140739523D01*
X53231071Y-140763333D01*
X53373928Y-140763333D01*
X53445357Y-140739523D01*
X53481071Y-140715714D01*
X53516785Y-140668095D01*
X53516785Y-140572857D01*
X53481071Y-140525238D01*
X53445357Y-140501428D01*
X53373928Y-140477619D01*
X53231071Y-140477619D01*
X53159642Y-140501428D01*
X53123928Y-140525238D01*
X53088214Y-140572857D01*
X42678000Y-127761952D02*
X42642285Y-127809571D01*
X42642285Y-127881000D01*
X42678000Y-127952428D01*
X42749428Y-128000047D01*
X42820857Y-128023857D01*
X42963714Y-128047666D01*
X43070857Y-128047666D01*
X43213714Y-128023857D01*
X43285142Y-128000047D01*
X43356571Y-127952428D01*
X43392285Y-127881000D01*
X43392285Y-127833380D01*
X43356571Y-127761952D01*
X43320857Y-127738142D01*
X43070857Y-127738142D01*
X43070857Y-127833380D01*
X43392285Y-127523857D02*
X42642285Y-127523857D01*
X43392285Y-127238142D01*
X42642285Y-127238142D01*
X43392285Y-127000047D02*
X42642285Y-127000047D01*
X42642285Y-126881000D01*
X42678000Y-126809571D01*
X42749428Y-126761952D01*
X42820857Y-126738142D01*
X42963714Y-126714333D01*
X43070857Y-126714333D01*
X43213714Y-126738142D01*
X43285142Y-126761952D01*
X43356571Y-126809571D01*
X43392285Y-126881000D01*
X43392285Y-127000047D01*
X42642285Y-143224166D02*
X43392285Y-143057500D01*
X42642285Y-142890833D01*
X43320857Y-142438452D02*
X43356571Y-142462261D01*
X43392285Y-142533690D01*
X43392285Y-142581309D01*
X43356571Y-142652738D01*
X43285142Y-142700357D01*
X43213714Y-142724166D01*
X43070857Y-142747976D01*
X42963714Y-142747976D01*
X42820857Y-142724166D01*
X42749428Y-142700357D01*
X42678000Y-142652738D01*
X42642285Y-142581309D01*
X42642285Y-142533690D01*
X42678000Y-142462261D01*
X42713714Y-142438452D01*
X43320857Y-141938452D02*
X43356571Y-141962261D01*
X43392285Y-142033690D01*
X43392285Y-142081309D01*
X43356571Y-142152738D01*
X43285142Y-142200357D01*
X43213714Y-142224166D01*
X43070857Y-142247976D01*
X42963714Y-142247976D01*
X42820857Y-142224166D01*
X42749428Y-142200357D01*
X42678000Y-142152738D01*
X42642285Y-142081309D01*
X42642285Y-142033690D01*
X42678000Y-141962261D01*
X42713714Y-141938452D01*
X40138000Y-127761952D02*
X40102285Y-127809571D01*
X40102285Y-127881000D01*
X40138000Y-127952428D01*
X40209428Y-128000047D01*
X40280857Y-128023857D01*
X40423714Y-128047666D01*
X40530857Y-128047666D01*
X40673714Y-128023857D01*
X40745142Y-128000047D01*
X40816571Y-127952428D01*
X40852285Y-127881000D01*
X40852285Y-127833380D01*
X40816571Y-127761952D01*
X40780857Y-127738142D01*
X40530857Y-127738142D01*
X40530857Y-127833380D01*
X40852285Y-127523857D02*
X40102285Y-127523857D01*
X40852285Y-127238142D01*
X40102285Y-127238142D01*
X40852285Y-127000047D02*
X40102285Y-127000047D01*
X40102285Y-126881000D01*
X40138000Y-126809571D01*
X40209428Y-126761952D01*
X40280857Y-126738142D01*
X40423714Y-126714333D01*
X40530857Y-126714333D01*
X40673714Y-126738142D01*
X40745142Y-126761952D01*
X40816571Y-126809571D01*
X40852285Y-126881000D01*
X40852285Y-127000047D01*
X40852285Y-142894809D02*
X40495142Y-143061476D01*
X40852285Y-143180523D02*
X40102285Y-143180523D01*
X40102285Y-142990047D01*
X40138000Y-142942428D01*
X40173714Y-142918619D01*
X40245142Y-142894809D01*
X40352285Y-142894809D01*
X40423714Y-142918619D01*
X40459428Y-142942428D01*
X40495142Y-142990047D01*
X40495142Y-143180523D01*
X40816571Y-142704333D02*
X40852285Y-142632904D01*
X40852285Y-142513857D01*
X40816571Y-142466238D01*
X40780857Y-142442428D01*
X40709428Y-142418619D01*
X40638000Y-142418619D01*
X40566571Y-142442428D01*
X40530857Y-142466238D01*
X40495142Y-142513857D01*
X40459428Y-142609095D01*
X40423714Y-142656714D01*
X40388000Y-142680523D01*
X40316571Y-142704333D01*
X40245142Y-142704333D01*
X40173714Y-142680523D01*
X40138000Y-142656714D01*
X40102285Y-142609095D01*
X40102285Y-142490047D01*
X40138000Y-142418619D01*
X40102285Y-142275761D02*
X40102285Y-141990047D01*
X40852285Y-142132904D02*
X40102285Y-142132904D01*
X38416785Y-127968095D02*
X37666785Y-127968095D01*
X37666785Y-127849047D01*
X37702500Y-127777619D01*
X37773928Y-127730000D01*
X37845357Y-127706190D01*
X37988214Y-127682380D01*
X38095357Y-127682380D01*
X38238214Y-127706190D01*
X38309642Y-127730000D01*
X38381071Y-127777619D01*
X38416785Y-127849047D01*
X38416785Y-127968095D01*
X37738214Y-127491904D02*
X37702500Y-127468095D01*
X37666785Y-127420476D01*
X37666785Y-127301428D01*
X37702500Y-127253809D01*
X37738214Y-127230000D01*
X37809642Y-127206190D01*
X37881071Y-127206190D01*
X37988214Y-127230000D01*
X38416785Y-127515714D01*
X38416785Y-127206190D01*
X37631071Y-126634761D02*
X38595357Y-127063333D01*
X38416785Y-126468095D02*
X37666785Y-126468095D01*
X37666785Y-126349047D01*
X37702500Y-126277619D01*
X37773928Y-126230000D01*
X37845357Y-126206190D01*
X37988214Y-126182380D01*
X38095357Y-126182380D01*
X38238214Y-126206190D01*
X38309642Y-126230000D01*
X38381071Y-126277619D01*
X38416785Y-126349047D01*
X38416785Y-126468095D01*
X38202500Y-125991904D02*
X38202500Y-125753809D01*
X38416785Y-126039523D02*
X37666785Y-125872857D01*
X38416785Y-125706190D01*
X37666785Y-125610952D02*
X37666785Y-125325238D01*
X38416785Y-125468095D02*
X37666785Y-125468095D01*
X38202500Y-125182380D02*
X38202500Y-124944285D01*
X38416785Y-125230000D02*
X37666785Y-125063333D01*
X38416785Y-124896666D01*
X37534500Y-142938452D02*
X37498785Y-142986071D01*
X37498785Y-143057500D01*
X37534500Y-143128928D01*
X37605928Y-143176547D01*
X37677357Y-143200357D01*
X37820214Y-143224166D01*
X37927357Y-143224166D01*
X38070214Y-143200357D01*
X38141642Y-143176547D01*
X38213071Y-143128928D01*
X38248785Y-143057500D01*
X38248785Y-143009880D01*
X38213071Y-142938452D01*
X38177357Y-142914642D01*
X37927357Y-142914642D01*
X37927357Y-143009880D01*
X38248785Y-142700357D02*
X37498785Y-142700357D01*
X38248785Y-142414642D01*
X37498785Y-142414642D01*
X38248785Y-142176547D02*
X37498785Y-142176547D01*
X37498785Y-142057500D01*
X37534500Y-141986071D01*
X37605928Y-141938452D01*
X37677357Y-141914642D01*
X37820214Y-141890833D01*
X37927357Y-141890833D01*
X38070214Y-141914642D01*
X38141642Y-141938452D01*
X38213071Y-141986071D01*
X38248785Y-142057500D01*
X38248785Y-142176547D01*
X35772285Y-128011952D02*
X35022285Y-128011952D01*
X35022285Y-127892904D01*
X35058000Y-127821476D01*
X35129428Y-127773857D01*
X35200857Y-127750047D01*
X35343714Y-127726238D01*
X35450857Y-127726238D01*
X35593714Y-127750047D01*
X35665142Y-127773857D01*
X35736571Y-127821476D01*
X35772285Y-127892904D01*
X35772285Y-128011952D01*
X35022285Y-127559571D02*
X35022285Y-127250047D01*
X35308000Y-127416714D01*
X35308000Y-127345285D01*
X35343714Y-127297666D01*
X35379428Y-127273857D01*
X35450857Y-127250047D01*
X35629428Y-127250047D01*
X35700857Y-127273857D01*
X35736571Y-127297666D01*
X35772285Y-127345285D01*
X35772285Y-127488142D01*
X35736571Y-127535761D01*
X35700857Y-127559571D01*
X34986571Y-126678619D02*
X35950857Y-127107190D01*
X35772285Y-126511952D02*
X35022285Y-126511952D01*
X35558000Y-126345285D01*
X35022285Y-126178619D01*
X35772285Y-126178619D01*
X35022285Y-125988142D02*
X35772285Y-125654809D01*
X35022285Y-125654809D02*
X35772285Y-125988142D01*
X35022285Y-125511952D02*
X35022285Y-125202428D01*
X35308000Y-125369095D01*
X35308000Y-125297666D01*
X35343714Y-125250047D01*
X35379428Y-125226238D01*
X35450857Y-125202428D01*
X35629428Y-125202428D01*
X35700857Y-125226238D01*
X35736571Y-125250047D01*
X35772285Y-125297666D01*
X35772285Y-125440523D01*
X35736571Y-125488142D01*
X35700857Y-125511952D01*
X35772285Y-142966238D02*
X35415142Y-143132904D01*
X35772285Y-143251952D02*
X35022285Y-143251952D01*
X35022285Y-143061476D01*
X35058000Y-143013857D01*
X35093714Y-142990047D01*
X35165142Y-142966238D01*
X35272285Y-142966238D01*
X35343714Y-142990047D01*
X35379428Y-143013857D01*
X35415142Y-143061476D01*
X35415142Y-143251952D01*
X35558000Y-142775761D02*
X35558000Y-142537666D01*
X35772285Y-142823380D02*
X35022285Y-142656714D01*
X35772285Y-142490047D01*
X35022285Y-142371000D02*
X35772285Y-142251952D01*
X35236571Y-142156714D01*
X35772285Y-142061476D01*
X35022285Y-141942428D01*
D11*
X39331309Y-137564761D02*
X39236071Y-137612380D01*
X39045595Y-137612380D01*
X38950357Y-137564761D01*
X38902738Y-137517142D01*
X38855119Y-137421904D01*
X38855119Y-137136190D01*
X38902738Y-137040952D01*
X38950357Y-136993333D01*
X39045595Y-136945714D01*
X39236071Y-136945714D01*
X39331309Y-136993333D01*
X39902738Y-137612380D02*
X39807500Y-137564761D01*
X39759880Y-137517142D01*
X39712261Y-137421904D01*
X39712261Y-137136190D01*
X39759880Y-137040952D01*
X39807500Y-136993333D01*
X39902738Y-136945714D01*
X40045595Y-136945714D01*
X40140833Y-136993333D01*
X40188452Y-137040952D01*
X40236071Y-137136190D01*
X40236071Y-137421904D01*
X40188452Y-137517142D01*
X40140833Y-137564761D01*
X40045595Y-137612380D01*
X39902738Y-137612380D01*
X40664642Y-137612380D02*
X40664642Y-136945714D01*
X40664642Y-137040952D02*
X40712261Y-136993333D01*
X40807500Y-136945714D01*
X40950357Y-136945714D01*
X41045595Y-136993333D01*
X41093214Y-137088571D01*
X41093214Y-137612380D01*
X41093214Y-137088571D02*
X41140833Y-136993333D01*
X41236071Y-136945714D01*
X41378928Y-136945714D01*
X41474166Y-136993333D01*
X41521785Y-137088571D01*
X41521785Y-137612380D01*
X41997976Y-136945714D02*
X41997976Y-137945714D01*
X41997976Y-136993333D02*
X42093214Y-136945714D01*
X42283690Y-136945714D01*
X42378928Y-136993333D01*
X42426547Y-137040952D01*
X42474166Y-137136190D01*
X42474166Y-137421904D01*
X42426547Y-137517142D01*
X42378928Y-137564761D01*
X42283690Y-137612380D01*
X42093214Y-137612380D01*
X41997976Y-137564761D01*
X43045595Y-137612380D02*
X42950357Y-137564761D01*
X42902738Y-137517142D01*
X42855119Y-137421904D01*
X42855119Y-137136190D01*
X42902738Y-137040952D01*
X42950357Y-136993333D01*
X43045595Y-136945714D01*
X43188452Y-136945714D01*
X43283690Y-136993333D01*
X43331309Y-137040952D01*
X43378928Y-137136190D01*
X43378928Y-137421904D01*
X43331309Y-137517142D01*
X43283690Y-137564761D01*
X43188452Y-137612380D01*
X43045595Y-137612380D01*
X43807500Y-136945714D02*
X43807500Y-137612380D01*
X43807500Y-137040952D02*
X43855119Y-136993333D01*
X43950357Y-136945714D01*
X44093214Y-136945714D01*
X44188452Y-136993333D01*
X44236071Y-137088571D01*
X44236071Y-137612380D01*
X45093214Y-137564761D02*
X44997976Y-137612380D01*
X44807500Y-137612380D01*
X44712261Y-137564761D01*
X44664642Y-137469523D01*
X44664642Y-137088571D01*
X44712261Y-136993333D01*
X44807500Y-136945714D01*
X44997976Y-136945714D01*
X45093214Y-136993333D01*
X45140833Y-137088571D01*
X45140833Y-137183809D01*
X44664642Y-137279047D01*
X45569404Y-136945714D02*
X45569404Y-137612380D01*
X45569404Y-137040952D02*
X45617023Y-136993333D01*
X45712261Y-136945714D01*
X45855119Y-136945714D01*
X45950357Y-136993333D01*
X45997976Y-137088571D01*
X45997976Y-137612380D01*
X46331309Y-136945714D02*
X46712261Y-136945714D01*
X46474166Y-136612380D02*
X46474166Y-137469523D01*
X46521785Y-137564761D01*
X46617023Y-137612380D01*
X46712261Y-137612380D01*
X46997976Y-137564761D02*
X47093214Y-137612380D01*
X47283690Y-137612380D01*
X47378928Y-137564761D01*
X47426547Y-137469523D01*
X47426547Y-137421904D01*
X47378928Y-137326666D01*
X47283690Y-137279047D01*
X47140833Y-137279047D01*
X47045595Y-137231428D01*
X46997976Y-137136190D01*
X46997976Y-137088571D01*
X47045595Y-136993333D01*
X47140833Y-136945714D01*
X47283690Y-136945714D01*
X47378928Y-136993333D01*
X48569404Y-137564761D02*
X48664642Y-137612380D01*
X48855119Y-137612380D01*
X48950357Y-137564761D01*
X48997976Y-137469523D01*
X48997976Y-137421904D01*
X48950357Y-137326666D01*
X48855119Y-137279047D01*
X48712261Y-137279047D01*
X48617023Y-137231428D01*
X48569404Y-137136190D01*
X48569404Y-137088571D01*
X48617023Y-136993333D01*
X48712261Y-136945714D01*
X48855119Y-136945714D01*
X48950357Y-136993333D01*
X49426547Y-137612380D02*
X49426547Y-136945714D01*
X49426547Y-136612380D02*
X49378928Y-136660000D01*
X49426547Y-136707619D01*
X49474166Y-136660000D01*
X49426547Y-136612380D01*
X49426547Y-136707619D01*
X50331309Y-137612380D02*
X50331309Y-136612380D01*
X50331309Y-137564761D02*
X50236071Y-137612380D01*
X50045595Y-137612380D01*
X49950357Y-137564761D01*
X49902738Y-137517142D01*
X49855119Y-137421904D01*
X49855119Y-137136190D01*
X49902738Y-137040952D01*
X49950357Y-136993333D01*
X50045595Y-136945714D01*
X50236071Y-136945714D01*
X50331309Y-136993333D01*
X51188452Y-137564761D02*
X51093214Y-137612380D01*
X50902738Y-137612380D01*
X50807500Y-137564761D01*
X50759880Y-137469523D01*
X50759880Y-137088571D01*
X50807500Y-136993333D01*
X50902738Y-136945714D01*
X51093214Y-136945714D01*
X51188452Y-136993333D01*
X51236071Y-137088571D01*
X51236071Y-137183809D01*
X50759880Y-137279047D01*
X52855119Y-137612380D02*
X52855119Y-136612380D01*
X52855119Y-137564761D02*
X52759880Y-137612380D01*
X52569404Y-137612380D01*
X52474166Y-137564761D01*
X52426547Y-137517142D01*
X52378928Y-137421904D01*
X52378928Y-137136190D01*
X52426547Y-137040952D01*
X52474166Y-136993333D01*
X52569404Y-136945714D01*
X52759880Y-136945714D01*
X52855119Y-136993333D01*
X53474166Y-137612380D02*
X53378928Y-137564761D01*
X53331309Y-137517142D01*
X53283690Y-137421904D01*
X53283690Y-137136190D01*
X53331309Y-137040952D01*
X53378928Y-136993333D01*
X53474166Y-136945714D01*
X53617023Y-136945714D01*
X53712261Y-136993333D01*
X53759880Y-137040952D01*
X53807500Y-137136190D01*
X53807500Y-137421904D01*
X53759880Y-137517142D01*
X53712261Y-137564761D01*
X53617023Y-137612380D01*
X53474166Y-137612380D01*
X54140833Y-136945714D02*
X54331309Y-137612380D01*
X54521785Y-137136190D01*
X54712261Y-137612380D01*
X54902738Y-136945714D01*
X55283690Y-136945714D02*
X55283690Y-137612380D01*
X55283690Y-137040952D02*
X55331309Y-136993333D01*
X55426547Y-136945714D01*
X55569404Y-136945714D01*
X55664642Y-136993333D01*
X55712261Y-137088571D01*
X55712261Y-137612380D01*
X95631166Y-132802261D02*
X95774023Y-132849880D01*
X96012119Y-132849880D01*
X96107357Y-132802261D01*
X96154976Y-132754642D01*
X96202595Y-132659404D01*
X96202595Y-132564166D01*
X96154976Y-132468928D01*
X96107357Y-132421309D01*
X96012119Y-132373690D01*
X95821642Y-132326071D01*
X95726404Y-132278452D01*
X95678785Y-132230833D01*
X95631166Y-132135595D01*
X95631166Y-132040357D01*
X95678785Y-131945119D01*
X95726404Y-131897500D01*
X95821642Y-131849880D01*
X96059738Y-131849880D01*
X96202595Y-131897500D01*
X96535928Y-131849880D02*
X96774023Y-132849880D01*
X96964500Y-132135595D01*
X97154976Y-132849880D01*
X97393071Y-131849880D01*
X98297833Y-132849880D02*
X97726404Y-132849880D01*
X98012119Y-132849880D02*
X98012119Y-131849880D01*
X97916880Y-131992738D01*
X97821642Y-132087976D01*
X97726404Y-132135595D01*
X110833809Y-152086035D02*
X111310968Y-151207218D01*
X111263079Y-151993998D01*
X111896846Y-151525324D01*
X111419687Y-152404141D01*
X112231633Y-151707099D02*
X112340353Y-152904022D01*
X112817511Y-152025205D02*
X111754474Y-152585916D01*
X113135473Y-153335737D02*
X112633292Y-153063075D01*
X112884382Y-153199406D02*
X113361541Y-152320589D01*
X113209679Y-152400690D01*
X113080538Y-152438943D01*
X112974119Y-152435348D01*
X113905571Y-152615973D02*
X114491449Y-152934078D01*
X113637654Y-153608399D01*
X110379095Y-124086880D02*
X110379095Y-123086880D01*
X110712428Y-123801166D01*
X111045761Y-123086880D01*
X111045761Y-124086880D01*
X111426714Y-123086880D02*
X112093380Y-124086880D01*
X112093380Y-123086880D02*
X111426714Y-124086880D01*
X112998142Y-124086880D02*
X112426714Y-124086880D01*
X112712428Y-124086880D02*
X112712428Y-123086880D01*
X112617190Y-123229738D01*
X112521952Y-123324976D01*
X112426714Y-123372595D01*
X113855285Y-123086880D02*
X113664809Y-123086880D01*
X113569571Y-123134500D01*
X113521952Y-123182119D01*
X113426714Y-123324976D01*
X113379095Y-123515452D01*
X113379095Y-123896404D01*
X113426714Y-123991642D01*
X113474333Y-124039261D01*
X113569571Y-124086880D01*
X113760047Y-124086880D01*
X113855285Y-124039261D01*
X113902904Y-123991642D01*
X113950523Y-123896404D01*
X113950523Y-123658309D01*
X113902904Y-123563071D01*
X113855285Y-123515452D01*
X113760047Y-123467833D01*
X113569571Y-123467833D01*
X113474333Y-123515452D01*
X113426714Y-123563071D01*
X113379095Y-123658309D01*
X110379095Y-107068880D02*
X110379095Y-106068880D01*
X110712428Y-106783166D01*
X111045761Y-106068880D01*
X111045761Y-107068880D01*
X111426714Y-106068880D02*
X112093380Y-107068880D01*
X112093380Y-106068880D02*
X111426714Y-107068880D01*
X112998142Y-107068880D02*
X112426714Y-107068880D01*
X112712428Y-107068880D02*
X112712428Y-106068880D01*
X112617190Y-106211738D01*
X112521952Y-106306976D01*
X112426714Y-106354595D01*
X113902904Y-106068880D02*
X113426714Y-106068880D01*
X113379095Y-106545071D01*
X113426714Y-106497452D01*
X113521952Y-106449833D01*
X113760047Y-106449833D01*
X113855285Y-106497452D01*
X113902904Y-106545071D01*
X113950523Y-106640309D01*
X113950523Y-106878404D01*
X113902904Y-106973642D01*
X113855285Y-107021261D01*
X113760047Y-107068880D01*
X113521952Y-107068880D01*
X113426714Y-107021261D01*
X113379095Y-106973642D01*
X110379095Y-90114380D02*
X110379095Y-89114380D01*
X110712428Y-89828666D01*
X111045761Y-89114380D01*
X111045761Y-90114380D01*
X111426714Y-89114380D02*
X112093380Y-90114380D01*
X112093380Y-89114380D02*
X111426714Y-90114380D01*
X112998142Y-90114380D02*
X112426714Y-90114380D01*
X112712428Y-90114380D02*
X112712428Y-89114380D01*
X112617190Y-89257238D01*
X112521952Y-89352476D01*
X112426714Y-89400095D01*
X113855285Y-89447714D02*
X113855285Y-90114380D01*
X113617190Y-89066761D02*
X113379095Y-89781047D01*
X113998142Y-89781047D01*
X82255045Y-145776951D02*
X82513864Y-144811026D01*
X82650969Y-145587246D01*
X83157815Y-144983572D01*
X82898996Y-145949497D01*
X83525787Y-145082169D02*
X83910918Y-146220641D01*
X84169737Y-145254715D02*
X83266968Y-146048095D01*
X84784851Y-146454811D02*
X84232894Y-146306914D01*
X84508872Y-146380863D02*
X84767691Y-145414937D01*
X84638724Y-145528277D01*
X84522082Y-145595620D01*
X84417764Y-145616967D01*
X85365645Y-145575158D02*
X85963600Y-145735379D01*
X85543027Y-146017078D01*
X85681016Y-146054052D01*
X85760684Y-146124698D01*
X85794356Y-146183019D01*
X85815703Y-146287337D01*
X85754079Y-146517319D01*
X85683433Y-146596988D01*
X85625112Y-146630659D01*
X85520795Y-146652006D01*
X85244816Y-146578058D01*
X85165148Y-146507412D01*
X85131476Y-146449091D01*
X92408595Y-121673880D02*
X92408595Y-120673880D01*
X92741928Y-121388166D01*
X93075261Y-120673880D01*
X93075261Y-121673880D01*
X93456214Y-120673880D02*
X94122880Y-121673880D01*
X94122880Y-120673880D02*
X93456214Y-121673880D01*
X95027642Y-121673880D02*
X94456214Y-121673880D01*
X94741928Y-121673880D02*
X94741928Y-120673880D01*
X94646690Y-120816738D01*
X94551452Y-120911976D01*
X94456214Y-120959595D01*
X95408595Y-120769119D02*
X95456214Y-120721500D01*
X95551452Y-120673880D01*
X95789547Y-120673880D01*
X95884785Y-120721500D01*
X95932404Y-120769119D01*
X95980023Y-120864357D01*
X95980023Y-120959595D01*
X95932404Y-121102452D01*
X95360976Y-121673880D01*
X95980023Y-121673880D01*
X92408595Y-104719380D02*
X92408595Y-103719380D01*
X92741928Y-104433666D01*
X93075261Y-103719380D01*
X93075261Y-104719380D01*
X93456214Y-103719380D02*
X94122880Y-104719380D01*
X94122880Y-103719380D02*
X93456214Y-104719380D01*
X95027642Y-104719380D02*
X94456214Y-104719380D01*
X94741928Y-104719380D02*
X94741928Y-103719380D01*
X94646690Y-103862238D01*
X94551452Y-103957476D01*
X94456214Y-104005095D01*
X95980023Y-104719380D02*
X95408595Y-104719380D01*
X95694309Y-104719380D02*
X95694309Y-103719380D01*
X95599071Y-103862238D01*
X95503833Y-103957476D01*
X95408595Y-104005095D01*
X92408595Y-87701380D02*
X92408595Y-86701380D01*
X92741928Y-87415666D01*
X93075261Y-86701380D01*
X93075261Y-87701380D01*
X93456214Y-86701380D02*
X94122880Y-87701380D01*
X94122880Y-86701380D02*
X93456214Y-87701380D01*
X95027642Y-87701380D02*
X94456214Y-87701380D01*
X94741928Y-87701380D02*
X94741928Y-86701380D01*
X94646690Y-86844238D01*
X94551452Y-86939476D01*
X94456214Y-86987095D01*
X95646690Y-86701380D02*
X95741928Y-86701380D01*
X95837166Y-86749000D01*
X95884785Y-86796619D01*
X95932404Y-86891857D01*
X95980023Y-87082333D01*
X95980023Y-87320428D01*
X95932404Y-87510904D01*
X95884785Y-87606142D01*
X95837166Y-87653761D01*
X95741928Y-87701380D01*
X95646690Y-87701380D01*
X95551452Y-87653761D01*
X95503833Y-87606142D01*
X95456214Y-87510904D01*
X95408595Y-87320428D01*
X95408595Y-87082333D01*
X95456214Y-86891857D01*
X95503833Y-86796619D01*
X95551452Y-86749000D01*
X95646690Y-86701380D01*
X74914285Y-119324380D02*
X74914285Y-118324380D01*
X75247619Y-119038666D01*
X75580952Y-118324380D01*
X75580952Y-119324380D01*
X75961904Y-118324380D02*
X76628571Y-119324380D01*
X76628571Y-118324380D02*
X75961904Y-119324380D01*
X77057142Y-119324380D02*
X77247619Y-119324380D01*
X77342857Y-119276761D01*
X77390476Y-119229142D01*
X77485714Y-119086285D01*
X77533333Y-118895809D01*
X77533333Y-118514857D01*
X77485714Y-118419619D01*
X77438095Y-118372000D01*
X77342857Y-118324380D01*
X77152380Y-118324380D01*
X77057142Y-118372000D01*
X77009523Y-118419619D01*
X76961904Y-118514857D01*
X76961904Y-118752952D01*
X77009523Y-118848190D01*
X77057142Y-118895809D01*
X77152380Y-118943428D01*
X77342857Y-118943428D01*
X77438095Y-118895809D01*
X77485714Y-118848190D01*
X77533333Y-118752952D01*
X74850785Y-102306380D02*
X74850785Y-101306380D01*
X75184119Y-102020666D01*
X75517452Y-101306380D01*
X75517452Y-102306380D01*
X75898404Y-101306380D02*
X76565071Y-102306380D01*
X76565071Y-101306380D02*
X75898404Y-102306380D01*
X77088880Y-101734952D02*
X76993642Y-101687333D01*
X76946023Y-101639714D01*
X76898404Y-101544476D01*
X76898404Y-101496857D01*
X76946023Y-101401619D01*
X76993642Y-101354000D01*
X77088880Y-101306380D01*
X77279357Y-101306380D01*
X77374595Y-101354000D01*
X77422214Y-101401619D01*
X77469833Y-101496857D01*
X77469833Y-101544476D01*
X77422214Y-101639714D01*
X77374595Y-101687333D01*
X77279357Y-101734952D01*
X77088880Y-101734952D01*
X76993642Y-101782571D01*
X76946023Y-101830190D01*
X76898404Y-101925428D01*
X76898404Y-102115904D01*
X76946023Y-102211142D01*
X76993642Y-102258761D01*
X77088880Y-102306380D01*
X77279357Y-102306380D01*
X77374595Y-102258761D01*
X77422214Y-102211142D01*
X77469833Y-102115904D01*
X77469833Y-101925428D01*
X77422214Y-101830190D01*
X77374595Y-101782571D01*
X77279357Y-101734952D01*
X74850785Y-85288380D02*
X74850785Y-84288380D01*
X75184119Y-85002666D01*
X75517452Y-84288380D01*
X75517452Y-85288380D01*
X75898404Y-84288380D02*
X76565071Y-85288380D01*
X76565071Y-84288380D02*
X75898404Y-85288380D01*
X76850785Y-84288380D02*
X77517452Y-84288380D01*
X77088880Y-85288380D01*
X56880285Y-121673880D02*
X56880285Y-120673880D01*
X57213619Y-121388166D01*
X57546952Y-120673880D01*
X57546952Y-121673880D01*
X57927904Y-120673880D02*
X58594571Y-121673880D01*
X58594571Y-120673880D02*
X57927904Y-121673880D01*
X59404095Y-120673880D02*
X59213619Y-120673880D01*
X59118380Y-120721500D01*
X59070761Y-120769119D01*
X58975523Y-120911976D01*
X58927904Y-121102452D01*
X58927904Y-121483404D01*
X58975523Y-121578642D01*
X59023142Y-121626261D01*
X59118380Y-121673880D01*
X59308857Y-121673880D01*
X59404095Y-121626261D01*
X59451714Y-121578642D01*
X59499333Y-121483404D01*
X59499333Y-121245309D01*
X59451714Y-121150071D01*
X59404095Y-121102452D01*
X59308857Y-121054833D01*
X59118380Y-121054833D01*
X59023142Y-121102452D01*
X58975523Y-121150071D01*
X58927904Y-121245309D01*
X56880285Y-104655880D02*
X56880285Y-103655880D01*
X57213619Y-104370166D01*
X57546952Y-103655880D01*
X57546952Y-104655880D01*
X57927904Y-103655880D02*
X58594571Y-104655880D01*
X58594571Y-103655880D02*
X57927904Y-104655880D01*
X59451714Y-103655880D02*
X58975523Y-103655880D01*
X58927904Y-104132071D01*
X58975523Y-104084452D01*
X59070761Y-104036833D01*
X59308857Y-104036833D01*
X59404095Y-104084452D01*
X59451714Y-104132071D01*
X59499333Y-104227309D01*
X59499333Y-104465404D01*
X59451714Y-104560642D01*
X59404095Y-104608261D01*
X59308857Y-104655880D01*
X59070761Y-104655880D01*
X58975523Y-104608261D01*
X58927904Y-104560642D01*
X56880285Y-87701380D02*
X56880285Y-86701380D01*
X57213619Y-87415666D01*
X57546952Y-86701380D01*
X57546952Y-87701380D01*
X57927904Y-86701380D02*
X58594571Y-87701380D01*
X58594571Y-86701380D02*
X57927904Y-87701380D01*
X59404095Y-87034714D02*
X59404095Y-87701380D01*
X59166000Y-86653761D02*
X58927904Y-87368047D01*
X59546952Y-87368047D01*
X32456380Y-115395214D02*
X31456380Y-115395214D01*
X32170666Y-115061880D01*
X31456380Y-114728547D01*
X32456380Y-114728547D01*
X31456380Y-114347595D02*
X32456380Y-113680928D01*
X31456380Y-113680928D02*
X32456380Y-114347595D01*
X31456380Y-113395214D02*
X31456380Y-112776166D01*
X31837333Y-113109500D01*
X31837333Y-112966642D01*
X31884952Y-112871404D01*
X31932571Y-112823785D01*
X32027809Y-112776166D01*
X32265904Y-112776166D01*
X32361142Y-112823785D01*
X32408761Y-112871404D01*
X32456380Y-112966642D01*
X32456380Y-113252357D01*
X32408761Y-113347595D01*
X32361142Y-113395214D01*
X38846285Y-109418380D02*
X38846285Y-108418380D01*
X39179619Y-109132666D01*
X39512952Y-108418380D01*
X39512952Y-109418380D01*
X39893904Y-108418380D02*
X40560571Y-109418380D01*
X40560571Y-108418380D02*
X39893904Y-109418380D01*
X40893904Y-108513619D02*
X40941523Y-108466000D01*
X41036761Y-108418380D01*
X41274857Y-108418380D01*
X41370095Y-108466000D01*
X41417714Y-108513619D01*
X41465333Y-108608857D01*
X41465333Y-108704095D01*
X41417714Y-108846952D01*
X40846285Y-109418380D01*
X41465333Y-109418380D01*
X38846285Y-92463880D02*
X38846285Y-91463880D01*
X39179619Y-92178166D01*
X39512952Y-91463880D01*
X39512952Y-92463880D01*
X39893904Y-91463880D02*
X40560571Y-92463880D01*
X40560571Y-91463880D02*
X39893904Y-92463880D01*
X41465333Y-92463880D02*
X40893904Y-92463880D01*
X41179619Y-92463880D02*
X41179619Y-91463880D01*
X41084380Y-91606738D01*
X40989142Y-91701976D01*
X40893904Y-91749595D01*
M02*
